<svg version="1.1" id="Layer_1" xmlns="http://www.w3.org/2000/svg" xmlns:xlink="http://www.w3.org/1999/xlink" x="0px" y="0px"
	 viewBox="0 0 600 600" style="enable-background:new 0 0 600 600;" xml:space="preserve">
<style type="text/css">
	.st0{fill-rule:evenodd;clip-rule:evenodd;fill:#0B1F41;}
	.st1{fill-rule:evenodd;clip-rule:evenodd;fill:#FFFFFF;}
	.st2{fill:#0B1F41;}
	.st3{fill-rule:evenodd;clip-rule:evenodd;fill:#263B80;}
	.st4{fill-rule:evenodd;clip-rule:evenodd;fill:#F05323;}
</style>
<path id="Navy" class="st0" d="M64.5,32.9c155.8-43.9,308.3-43.9,471,0c18.8,50.9,56.8,187.2,54.1,303.8
	C522.9,452.2,394.8,551.2,300,600C205.2,551.2,77.1,452.2,10.5,336.7C7.8,220.1,45.7,83.8,64.5,32.9z"/>
<path id="White" class="st1" d="M526.6,42.5C543.4,90.1,579.9,219,578,333.4c-62.5,103.8-169.4,195.2-278,253.4
	C191.4,528.6,84.6,437.2,22,333.4C20.1,219,56.6,90.1,73.4,42.5C217.4,1.7,383.8,1.7,526.6,42.5z"/>
<path id="Navy_1_" class="st2" d="M181.4,287l-11.3-33.4l-13.7,7.8v74.4l13.5-7.8v-36.6l10.9,30.3l13.9-8v-74.4l-13.4,7.6V287z
	 M491.9,69.3v74.4l15.1-8.6V60.6L491.9,69.3z M228,218.5c-11,6.3-18.4,18.4-18.3,25.8l0,41.6c0,7.6,7.3,15,18.7,9.5
	c18.3-8.8,17.9-18.1,17.9-25.5l0-10.4l-15,8.6v10.5l-6.6,3.8v-45.9l6.6-3.8v14.6l15-8.5v-15.3C246.2,216.1,238.9,212.3,228,218.5z
	 M92.9,296c-11,6.3-18.4,18.4-18.3,25.8l0,41.6c0,7.6,7.3,15,18.7,9.5c18.3-8.8,17.9-18.1,17.9-25.5l0-10.4l-15,8.6v10.5l-6.6,3.8
	v-45.9l6.6-3.8v14.6l15-8.5v-15.3C111,293.5,103.7,289.8,92.9,296z M260.3,276.3l15.1-8.6v-74.4l-15.1,8.6V276.3z M125.1,353.7
	l15.1-8.6v-74.4l-15.1,8.6V353.7z M441.8,112.1l10.3-5.9v60.1l15.1-8.6V97.6l10.3-5.9V77.5l-35.7,20.4V112.1z M316.5,209.6
	l-11.3-33.4l-13.7,7.8v74.3l13.5-7.8v-36.5l10.9,30.3l13.9-8v-74.3l-13.4,7.6V209.6z M370.8,178.5l-11.3-33.4l-13.7,7.8v74.3
	l13.5-7.8V183l10.9,30.3l13.9-8V131l-13.4,7.6V178.5z M407.8,117.6l-9.7,79.7l14.7-8.4l1.1-13.2l8.6-5.1l1.5,12l14.5-8.3L427,106.4
	L407.8,117.6z M414.1,162.1l4-28.9l2.8,24.7L414.1,162.1z"/>
<path id="Blue" class="st3" d="M457.2,51.5L48.3,285.7c5.8-85.6,28.8-174.6,44.5-222.7C218.6,29.8,347.6,31,457.2,51.5z M141.9,98.8
	v16.6H152v13.5h-10.1v32.7l-16.8,9.7V85.9h33v12.9H141.9z M207.4,127.8v18.6c0,7.4-7.9,15.2-20.1,15.2c-12.3,0-20.6-7.8-20.6-15.2
	V99.7c0-7.4,8.3-15.2,20.6-15.2c12.1,0,20.1,7.8,20.1,15.2v6l-16.6,9.5l0-18.6l-7.1,4.1v48.9l7.1-4.1l0-8.2L207.4,127.8z"/>
<path id="Orange" class="st4" d="M102.4,399.8l429.3-245.9c11.8,52.8,21.6,114.6,21.4,172.4C489.6,428.4,391.8,505.4,300,558.4
	C208.9,505.4,152.7,456.9,102.4,399.8z M400.6,334.6c4.2-1.1,8-3.1,11.4-5.8c0.2,5-0.9,10-3.3,14.4
	C406.5,339.9,403.8,337,400.6,334.6z M315.4,341.4l13-7.5c-4.1-1.1-7.9-3.2-11-6.2l34.9-20.1l-4.1-5.6H402l3.3,5.6
	c0,0,8.9,2.1,14,7.1l-8.3,1.3l4.1,4.6c-3.1,3.8-11.1,8.9-18.8,10.4c-3.7-2.5-7.5-4.7-11.6-6.5l12.9-7.4c0,0-7.5-4.6-24.9-9.5
	c4.7,3,9.2,6.3,13.4,10l-11.2,6.4c0,0,19.7,9,30.6,28.5l-13.1,0.3c0,0-15.1,28-39.2,43.9v-15.9c0,0-15.7-1.7-24.7-8.6l8.8-5.2
	c-7.3-1.6-13.9-5.5-19-10.9l11.5-6.5C329.9,349.7,322.9,348.8,315.4,341.4z M389.6,305.9c3.1,3.7,7.8,5.8,12.7,5.6l-3.5-5.2
	L389.6,305.9z M256.6,441.1l1.3,11.4c-7.7,5.1-27.9,16.6-44,8.8c-12.1-5.9-14.7-22.9-5.7-37.4c10.5-16.8,27.5-17.1,36.8-10.9
	c-1.8,7.7-6.7,14.3-13.5,18.2l2.5-9.9c-5.7-2.9-13.1-0.3-17.3,6.6c-5.7,9.3-4,20,3.6,23.9C233.1,458.2,256.6,441.1,256.6,441.1
	L256.6,441.1z M459.7,394.3c0,0,8.1,0,8.7,7.1c-2.2-1.1-4.8-1.4-7.1-0.6c-6.6,2.3-13.7,3.1-20.7,2.3l-17.3,18.5
	c0.3,2.8,0.7,5.6,1.3,8.4c-10.4-3.8-20.3-9-29.4-15.4l6.1,10.9c0,0-4.7,12-30,28.1l-1-10.9c0,0-25.2-15.8-40.6-12.7
	c-14.5,26.4-40.1,23.1-40.1,23.1l-7.1,25.4c0,0,23.9,3.2,19.2,22.5l-6.6-3.9c0.3,3-1.2,5.9-3.8,7.5l-5.3-7.4c2,6.1-7.9,8.6-7.9,8.6
	s-0.5-6.6-2.5-9.3L268,487l-7.2-59.9l9.1,3.8c13.2-11.1,23.5-25.2,30.2-41.1c0,0,31,15.7,53,13.3c4.6-0.7,28.9-17.6,42.9-44.7
	l11.1-0.2c5.4,8.7,9.2,18.3,11,28.3l-7.9-1.5c2,4.2,3.5,8.6,4.5,13.1l20.5-11.9c12.2-7.2,29.7-8.6,32.3-1.3c0,0-5.7-0.5-7.1,2.2
	c0,0,7.8-0.6,8.5,5.9C469,393,462.4,391.1,459.7,394.3L459.7,394.3z M348.7,490.5l-5-3.6c0.5,2.3-0.3,4.8-2.2,6.3
	c-1.3-2.1-2.9-4-4.8-5.6c0.1,3.7-5.3,6.8-5.3,6.8c-0.5-2.3-1.6-4.5-3.3-6.2l-6.8-6.5l-18.8-25.2c20.5-1.2,31.4-21.3,31.4-21.3
	c26.8,25.4-6.5,31.2-6.5,31.2l2,9.1C329.4,475.4,351.9,473.7,348.7,490.5L348.7,490.5z M413.5,356.4c3.7,4.9,8.2,16.1,10.8,28.2
	l9.8-15.4l3.3,7.4c6.4-11.8,12.5-22.7,15.7-28.5c1.4,0.7,2.8,1.1,4.3,1.1v4.2c-0.5,1.1-0.7,2.2-0.7,3.4c1,1.5,2.3,2.7,3.9,3.6
	c1.6-0.8,2.9-2.1,3.9-3.6c0-1.2-0.2-2.3-0.7-3.4v-4.2c1.2-0.2,2.6-0.6,4.1-1c2-4.9,1.1-12.3,1.1-12.3c1.3-1.5,2.2-3.2,2.9-5.1
	c-2.2-2.1-5.1-3.3-8.1-3.6V327l9.2-5.6v-6.1l-5.8,3.5l0-76l-6.6-7l-6.6,6.6l0,76.4l-6.3-3.9v6.4l9.4,5.2l0,0.5
	c-2.8-0.2-5.7,0.5-8.1,2c0.2,2.1,0.9,4,2,5.8L413.5,356.4z M285.6,372.2l-27,15.2c6,4.2,24.5,1.3,37.9-6c0,0,29.2,15.9,51.1,16
	c0,0-0.1-12.1-0.1-12.1c-40.3-9.6-52.1-38-59.8-58l-80.6,46.1c10.4,8.4,41.3-7,65.8-20.3c0.5,1.1,1.2,2.3,1.9,3.6l-42.6,24.4
	c10.6,8.2,32.2-3.5,50.8-12.1C283.7,370.2,284.6,371.2,285.6,372.2z M398.9,286.4c-1.2-1.9-2.9-3.4-4.9-4.5c-2,1.1-3.7,2.6-4.9,4.5
	c0.1,1.7,0.4,3.5,0.9,5.1l-5.6,0c0.8-2.5,1.2-5.1,1.2-7.7c-2-3.1-4.8-5.6-8.1-7.4c-3.3,1.7-6,4.3-8,7.4c0.1,2.6,0.5,5.2,1.3,7.7
	l-5.6,0c0.5-1.7,0.8-3.4,0.9-5.1c-1.2-1.9-2.9-3.4-4.9-4.5c-2,1.1-3.7,2.6-4.9,4.5c0.1,1.7,0.4,3.5,0.9,5.1h0l0,6.3l41,0l0-6.3
	C398.5,289.9,398.8,288.1,398.9,286.4L398.9,286.4z"/>
</svg>
