<svg version="1.1" id="Layer_1" xmlns="http://www.w3.org/2000/svg" xmlns:xlink="http://www.w3.org/1999/xlink" x="0px" y="0px"
	 viewBox="0 0 600 600" style="enable-background:new 0 0 600 600;" xml:space="preserve">
<style type="text/css">
	.st0{fill:#FEDD00;}
	.st1{fill:#FFFFFF;}
</style>
<polygon id="Outline" class="st0" points="136.7,77.7 463.3,77.7 414.2,544.7 300,478.8 185.8,544.7 "/>
<path id="Black" d="M151.3,90.9l45.4,432.4L300,463.7l103.3,59.6l45.4-432.4C448.7,90.9,151.3,90.9,151.3,90.9z"/>
<path id="White" class="st1" d="M413.6,205.5l6.5-62l-51.5-29.8H231.5l-51.5,29.8l36,342.3l179.2-103.5l8-76.2l-51.6-29.8l-6.7,63.4
	l-84.6,48.7l-22.3-212.7H362l-6.7,63.4L413.6,205.5z M347,469.9l-5.7-3.3v-5l5.7-3.3l0.1,5.8l11.5-0.1l-0.1-11.9l-7.5,4.5l-9.7-5.5
	v-17.3l5.7-3.3h11.6l5.8,3.3v32.9l-5.8,3.3L347,469.9z M347.1,447.7l3.9,2.1l7.5-4.4v-9.1l-11.4,0.1V447.7z M375.8,469.9l-5.7-3.3
	v-32.9l5.7-3.3h11.6l5.8,3.3v5l-5.8,3.3l-0.1-5.7l-11.5,0.1l0.1,11.9l7.6-4.4l9.7,5.4v17.3l-5.8,3.3H375.8z M375.8,454.9v9.2
	l11.5-0.1l-0.1-11.4l-3.8-2.1L375.8,454.9z"/>
<path class="st1" d="M378.7,535.4l-7.7-4.2c-1.3-0.7-2.8-1.1-4.2-1.1c-1.6,0-3.1,0.4-4.5,1.2c-1.3,0.7-2.3,1.8-3,3
	c-0.5-0.1-1-0.1-1.5-0.1c0,0-0.1,0-0.1,0l-7.5,0.1c-0.5,0-0.9,0-1.4,0.1c-0.8-1.4-1.9-2.6-3.4-3.4c-1.4-0.8-2.9-1.2-4.4-1.2
	c-1.5,0-3.1,0.4-4.4,1.2l-6.1,3.6c-1.6-2.3-4.3-3.7-7.2-3.7c0,0,0,0,0,0l-23.1,0.1c-2.7,0-5.1,1.2-6.7,3.1l-3.7-2.1
	c-1.3-0.7-2.8-1.1-4.3-1.1c0,0,0,0,0,0L263,531c-2.7,0-5.1,1.2-6.7,3.2l-3.8-2.1c-1.3-0.7-2.8-1.1-4.3-1.1h-15
	c-1.6,0-3.1,0.4-4.4,1.2l-7.5,4.4c-2.7,1.6-4.3,4.5-4.3,7.6V587c0,3.1,1.7,6.1,4.4,7.6l7.5,4.3c1.3,0.8,2.8,1.2,4.4,1.2h15
	c1.5,0,3.1-0.4,4.4-1.2l3.7-2.1c0.2,0.3,0.5,0.5,0.7,0.8c1.6,1.6,3.9,2.5,6.2,2.5c0,0,0.1,0,0.1,0l7.5-0.1c3.1,0,5.8-1.7,7.3-4.1
	c1.5,2.5,4.3,4.2,7.5,4.2h7.5c1.3,0,2.6-0.3,3.7-0.8c1.1,0.5,2.4,0.8,3.7,0.8c0,0,0,0,0,0l27.5-0.1c0.9,0,1.9-0.2,2.7-0.4
	c1,0.4,2,0.5,3.1,0.5h7.5c1.5,0,3.1-0.4,4.4-1.2l8.3-4.8l8.5,4.9c1.3,0.8,2.8,1.2,4.4,1.2h7.7c4.8,0,8.8-3.9,8.8-8.8v-48.1
	C383.2,539.9,381.5,536.9,378.7,535.4z M248.2,539.7l7.6,4.3l0,0L248.2,539.7L248.2,539.7z M233.2,583.7l14.9-0.1v0L233.2,583.7
	l-0.1-36.3l7.5,0l-7.5,0L233.2,583.7z M252.3,568.5c-1.3-0.7-2.8-1.1-4.2-1.1c-1.6,0-3.1,0.4-4.5,1.3c-0.6,0.3-1.1,0.8-1.6,1.2
	l0-8.9c0.6,0.6,1.2,1,1.9,1.4c1.3,0.8,2.8,1.1,4.3,1.1c1.5,0,3-0.4,4.4-1.2l1.7-1l0,8.2L252.3,568.5z M248.2,554.8L248.2,554.8
	l3.8-2.2L248.2,554.8z M225.6,587V544l0,0L225.6,587l5.5,3.1L225.6,587z M263,539.8l22.4-0.1L263,539.8l0.1,51.4L263,539.8z
	 M270.6,565.9l14.9-8.7v-9.8h0v9.8L270.6,565.9L270.6,565.9z M285.4,572.8l-5.9-3.4l-8.9,5.1l8.9-5.1L285.4,572.8l0.1,18.4
	L285.4,572.8z M293.1,543.9l-7.6-4.3h0L293.1,543.9L293.1,543.9z M322,566.4l-2.8-4.8h0L322,566.4z M308,561.7L308,561.7l-0.1-14.4
	l0,0L308,561.7z M323.6,569.2L323.6,569.2l-15.7,0.1l0.1,14.4h0l-0.1-14.4L323.6,569.2z M327.7,547.2L327.7,547.2l-2.7-4.8
	L327.7,547.2L327.7,547.2z M300.3,539.8L300.3,539.8L300.3,539.8l0.1,51.4L300.3,539.8z M327.8,583.6L327.8,583.6l0.1,7.6
	L327.8,583.6z M370.6,541l-3.8-2.1v0L370.6,541z M366.9,582.6l0-21.8L366.9,582.6L366.9,582.6z M357.9,577.3l3.3,1.9L357.9,577.3
	l-0.1-34.4L357.9,577.3z M341.2,582.5l9.1-5.2l0,0L341.2,582.5l-0.1-43.9l0,0L341.2,582.5z M457.6,20.6v-6.5c0-3.2-1.7-6.1-4.5-7.6
	l-7.6-4.3c-1.3-0.7-2.8-1.1-4.3-1.1h-15c-1.6,0-3.1,0.4-4.4,1.2l-5.7,3.3c-0.1-0.1-0.3-0.2-0.4-0.3L408,1.2
	c-1.3-0.7-2.8-1.1-4.2-1.1c-1.6,0-3.1,0.4-4.5,1.2c-1.2,0.7-2.2,1.7-3,2.9c-0.8-1.3-1.8-2.3-3.1-3.1c-1.4-0.8-2.9-1.2-4.4-1.2
	c-1.5,0-3.1,0.4-4.4,1.2l-7.5,4.4c0,0-0.1,0-0.1,0.1l-6.1-3.4c-1.3-0.7-2.8-1.1-4.3-1.1c0,0,0,0,0,0l-22.5,0.1
	c-1.2,0-2.4,0.3-3.4,0.7c-1.1-0.5-2.4-0.8-3.7-0.8h-7.6c-1.5,0-3.1,0.4-4.4,1.2l-8.8,5.1l-8.8-5.1c-1.3-0.8-2.9-1.2-4.4-1.2
	c0,0-0.1,0-0.1,0l-7.5,0.1c-2.3,0-4.4,1-6,2.5l-4.7-2.6c-1.3-0.7-2.8-1.1-4.2-1.1c-1.6,0-3.1,0.4-4.5,1.2c-1.2,0.7-2.3,1.8-3,2.9
	c-0.8-1.2-1.8-2.3-3.1-3c-1.4-0.8-2.9-1.2-4.4-1.2c-1.5,0-3.1,0.4-4.4,1.2l-7.5,4.4c-2.7,1.6-4.3,4.5-4.3,7.6V45l-6.7,0l-0.1-35.2
	c0-2.3-0.9-4.6-2.6-6.2c-1.6-1.6-3.9-2.5-6.2-2.5c0,0-0.1,0-0.1,0l-7.5,0.1c-2.7,0-5,1.2-6.6,3.1l-3.7-2.1c-1.3-0.7-2.8-1.1-4.3-1.1
	h-15c-1.6,0-3.1,0.4-4.4,1.2l-6.6,3.9l-7-3.9c-1.3-0.7-2.8-1.1-4.3-1.1h-15c-1.6,0-3.1,0.4-4.4,1.2l-7.5,4.4
	c-2.7,1.6-4.3,4.5-4.3,7.6v42.9c0,3.1,1.7,6.1,4.4,7.6l7.5,4.3c1.3,0.8,2.8,1.2,4.4,1.2c0,0,0,0,0.1,0l15-0.1c1.5,0,3-0.4,4.3-1.2
	l6.7-3.8l6.9,4c1.3,0.8,2.8,1.2,4.4,1.2h15c1.5,0,3.1-0.4,4.4-1.2l3.7-2.1c1.6,2,4,3.2,6.8,3.2h23c2.9,0,5.5-1.4,7.2-3.7l4.7,2.7
	c1.3,0.8,2.8,1.2,4.4,1.2c0,0,0.1,0,0.1,0l15-0.2c1.5,0,3-0.4,4.3-1.2l3.7-2.1c0.3,0.3,0.5,0.7,0.8,1c1.6,1.6,3.9,2.5,6.2,2.5
	c0,0,0.1,0,0.1,0l7.5-0.1c1.6,0,3.2-0.5,4.5-1.3c1.4,0.9,3,1.4,4.7,1.4c0,0,0.1,0,0.1,0l7.5-0.1c1.7,0,3.2-0.5,4.5-1.3
	c1.4,0.9,3,1.4,4.8,1.4h7.8c1.2,0,2.5-0.3,3.6-0.8c1.1,0.5,2.3,0.8,3.6,0.8h22.3c1.5,0,3.1-0.4,4.4-1.2l6.8-3.9l6.9,4
	c1.3,0.8,2.8,1.2,4.4,1.2c0,0,0,0,0.1,0l15-0.1c1.5,0,3-0.4,4.3-1.2l6.7-3.8l7,3.9c1.3,0.7,2.8,1.1,4.3,1.1h14.9
	c1.5,0,3.1-0.4,4.4-1.2l7.6-4.4c2.7-1.6,4.4-4.5,4.4-7.6V38.8c0-3.2-1.7-6.1-4.4-7.6l-2.5-1.4l2.6-1.5
	C455.9,26.7,457.6,23.8,457.6,20.6z M173.8,53.7l-14.9,0.1l0,0L173.8,53.7l-0.1-7.5l0,0L173.8,53.7z M173.7,17.5l0.1,7.4L173.7,17.5
	L173.7,17.5z M179.9,39.6l-2-1.1c-1.3-0.7-2.8-1.1-4.2-1.1c-1.6,0-3.1,0.4-4.5,1.3c-0.6,0.3-1.1,0.8-1.6,1.2l0-8.8
	c0.6,0.6,1.2,1,1.9,1.4c1.3,0.8,2.8,1.1,4.3,1.1c1.5,0,3-0.4,4.4-1.2l1.7-1V39.6z M173.8,61.3l-15,0.1L173.8,61.3l3.8-2.2
	L173.8,61.3z M196.2,17.5L196.2,17.5L196.2,17.5l0,36.3h0V17.5z M211.1,17.4L211.1,17.4l0.1,36.3L211.1,17.4z M233.4,9.8l-7.5,0.1v0
	L233.4,9.8z M249,61.3h-23l0-0.1l0,0.1L249,61.3l4.3-7.6l-19.8,0.1l0,0l19.8-0.1L249,61.3z M265.3,53.8l-0.1-45l0,0L265.3,53.8z
	 M257.8,13.1L257.8,13.1l0,44l0,0V13.1z M280.3,61.2l-15,0.2l0,0L280.3,61.2l3.8-2.2L280.3,61.2z M302.7,9.8l-7.5,0.1v0L302.7,9.8z
	 M295.3,61.4l7.5-0.1v0L295.3,61.4z M312.1,61.4l7.5-0.1v0L312.1,61.4z M329,61.4l-0.1-42.7l-9.3,5.5l0,0l9.3-5.5L329,61.4L329,61.4
	z M343.9,9.9l22.4-0.1L343.9,9.9l0.1,51.4L343.9,9.9z M366.3,41l-5.9-3.4l-8.9,5.2v0l8.9-5.2L366.3,41L366.3,41L366.3,41z
	 M351.4,34.2l14.9-8.7L351.4,34.2L351.4,34.2z M351.4,34.1l0.1-16.6l0.1,0l-0.1,0L351.4,34.1z M374,29.8l-6.1,3.5L374,29.8L374,29.8
	z M366.4,9.8L366.4,9.8l7.6,4.3L366.4,9.8z M388.9,53.8l-0.1-45l0,0L388.9,53.8z M403.9,61.3l-15,0.1l0,0L403.9,61.3l4.6-2.7
	L403.9,61.3z M426.2,46.2l0.1,7.6L426.2,46.2L426.2,46.2z M426.2,26l-0.1-8.4L426.2,26L426.2,26z M441.2,9.8L445,12L441.2,9.8
	L441.2,9.8z M418.7,14.2l3.7-2.2L418.7,14.2l0,16l0,0V14.2z M418.7,50.6l2-1.2L418.7,50.6l0,6.5l0,0V50.6z M441.1,61.3h-14.9
	l-3.7-2.1l3.7,2.1L441.1,61.3l4.6-2.7L441.1,61.3z"/>
<path id="Black_2_" d="M366.8,591.2l-12.9-7.4l-12.7,7.4h-7.5l-0.1-48.2l7.5-4.4l0.1,43.9l9.1-5.2v-34.2l7.5-0.1l0.1,34.4l9,5.2
	l-0.1-43.7l7.7,4.2v48.1H366.8z M300.4,591.2l-0.1-51.4l23.1-0.1l4.4,7.6l-19.9,0.1l0.1,14.4l11.3-0.1l4.4,7.6l-15.7,0.1l0.1,14.4
	l19.8-0.1l0.1,7.6L300.4,591.2z M285.5,591.2l-0.1-18.4l-5.9-3.4l-8.9,5.1v16.6l-7.5,0.1l-0.1-51.4l22.5-0.1l7.6,4.3v17.6L287,565
	l6,3.4v22.8H285.5z M270.6,565.9l14.9-8.7v-9.8l-14.9,0.1V565.9z M233.1,591.2l-7.5-4.3V544l7.5-4.4h15l7.6,4.3v6.5l-7.6,4.4
	l-0.1-7.5l-14.9,0.1l0.1,36.3l14.9-0.1l-0.1-7.5l7.7,4.2v6.5l-7.6,4.4H233.1z M418.7,57.1v-6.5l7.5-4.4l0.1,7.6l14.9-0.1l-0.1-10.6
	l-22.4-12.9v-16l7.5-4.4h15l7.6,4.3v6.5l-7.6,4.4l-0.1-7.5h-15l0.1,8.4l22.5,12.8v18.2l-7.6,4.4h-14.9L418.7,57.1z M388.8,61.4
	l-7.5-4.3v-44l7.5-4.4l0.1,45l14.9-0.1l-0.1-44.8l7.7,4.2v43.9l-7.6,4.4L388.8,61.4z M344,61.4l-0.1-51.4l22.5-0.1l7.6,4.3v15.7
	l-6.1,3.5l6,3.4V57l-7.6,4.4H344z M351.4,42.8v10.9l14.9-0.1L366.3,41l-5.9-3.4L351.4,42.8z M351.4,34.2l14.9-8.7v-8.1l-14.8,0.1
	L351.4,34.2z M329,61.4l-0.1-42.7l-9.3,5.5v37.1l-7.5,0.1V24.1l-9.4-5.4l0.1,42.6l-7.5,0.1l-0.1-51.4l7.5-0.1l13.2,7.7l13.2-7.7h7.6
	l0.1,51.5L329,61.4z M265.2,61.4l-7.5-4.3v-44l7.5-4.4l0.1,45l14.9-0.1l-0.1-44.9l7.7,4.2v43.9l-7.6,4.4L265.2,61.4z M225.9,9.9
	l7.5-0.1l0.1,44l19.8-0.1l-4.3,7.6h-23L225.9,9.9z M196.1,61.4l-7.5-4.3V14.2l7.5-4.4h15l7.6,4.3V57l-7.6,4.4H196.1z M196.2,53.8
	l14.9-0.1l-0.1-36.3l-14.9,0.1V53.8z M158.8,61.4l-7.5-4.3V14.2l7.5-4.4h15l7.6,4.3v6.5l-7.6,4.4l-0.1-7.5h-14.9l0.1,36.3l14.9-0.1
	l-0.1-7.5l7.7,4.2v6.5l-7.6,4.4L158.8,61.4z"/>
</svg>
