<svg version="1.1" id="Layer_1" xmlns="http://www.w3.org/2000/svg" xmlns:xlink="http://www.w3.org/1999/xlink" x="0px" y="0px"
	 viewBox="0 0 600 600" style="enable-background:new 0 0 600 600;" xml:space="preserve">
<style type="text/css">
	.st0{fill:#231F20;}
	.st1{fill:#FFFFFF;}
	.st2{fill:#EF3E42;}
</style>
<path id="Outline" class="st0" d="M582.5,112.7c-0.4,18.1-6.7,35.6-17.8,49.9c3.4,12.4,5.1,25.3,5.1,38.1
	c-0.1,39.8-18.7,60.9-23.4,68.1c3.8,24.4-0.1,49.4-11.1,71.5c-12.5,24.5-29.4,41.4-56.1,54.9c0,0-20.2,50.4-46.6,86.5
	C376.1,559.2,311,596.3,299.6,600c-12.3-3.9-75.5-40.5-132.2-118.2c-26.4-36.2-46.6-86.5-46.6-86.5c-26.7-13.5-43.7-30.4-56.1-54.9
	c-11-22.1-14.9-47.1-11.1-71.5c-4.7-7.2-23.3-28.3-23.4-68.1c0-12.9,1.7-25.7,5.1-38.1c-11.1-14.3-17.4-31.8-17.8-49.9
	c-0.8-18.8,3.4-37.5,12-54.3c1.3-2.5,2.8-4.8,4.5-7.1c1.8,6.7,4.4,13.2,7.7,19.4c3.7,6.7,8.5,12.7,14.2,17.7
	c7.3,6.7,16,11.9,25.4,15l-0.1-83C119.3,11.9,196.3,0,299.7,0c103.5,0,179.7,11.9,219,20.3l-0.1,83c9.4-3.1,18.1-8.2,25.4-15
	c5.7-5,10.5-11,14.2-17.7c3.3-6.1,5.9-12.6,7.7-19.4c1.7,2.3,3.2,4.6,4.5,7.1C579.1,75.1,583.3,93.9,582.5,112.7"/>
<path id="White" class="st1" d="M567.3,71.5c-3.7,9.4-11.9,18.3-20,25.3c-9.7,8.4-26.5,16.1-36.6,17.8V26.2
	c-12.8-2.7-87.5-18.4-210.8-18.4c-123.3,0-197.7,15.8-210.5,18.4v88.4c-10.1-1.7-26.9-9.3-36.6-17.8c-8.1-7-16.3-15.9-20-25.3
	c-4.8,12.5-7.1,25.9-6.5,39.3c0.7,22.5,8.2,35.3,18.6,50.4c0,0-7.5,16.1-5.8,47.5c1.4,26.7,16.8,48.4,23.9,58.2
	c-8.1,47.1,13.7,79,27.1,94.4c10.9,11.9,23.9,21.7,38.5,28.6c7,18.5,25.2,59.3,49.7,91.1c29.8,38.5,72.8,83.7,121.4,109
	c48.5-25.2,92.5-70.4,122.3-109c24.5-31.8,42.7-72.6,49.7-91.1c14.6-7,27.6-16.7,38.5-28.6c13.4-15.4,35.1-47.3,27.1-94.4
	c7.1-9.9,22.5-31.6,23.9-58.2c1.7-31.5-5.8-47.5-5.8-47.5c10.4-15.1,17.9-27.9,18.6-50.4C574.3,97.4,572.1,84,567.3,71.5"/>
<path id="Black" class="st0" d="M139,36.5c-2.5-0.1-4.9,0.1-7.3,0.4c-5.9,0.7-20,3-20,3l0,83.7c0,0,8.5-1.1,11.5-1.5
	c3.2-0.5,13.1-1.6,15.3-2.1c3-0.5,5.7-1.8,7.8-3.9c3-3,4.6-7.1,4.4-11.3l0-51.3c0.2-3.7-0.5-7.5-1.8-10.9c-1.2-2.4-3.3-4.2-5.7-5.3
	C141.9,36.8,140.5,36.5,139,36.5L139,36.5z M132.9,44.8c1.1-0.3,2.3,0,3.1,0.8c0.7,0.7,0.8,2.2,0.8,4.7l0,57.9
	c0.2,1.3-0.2,2.6-1.1,3.5c-1,0.7-2.1,1.1-3.3,1.2l-6.7,0.9l0-68L132.9,44.8L132.9,44.8z M159.7,108.1c-1.3,0.1-2.6,0.8-3.4,1.8
	c-0.9,1-1.3,2.4-1.2,3.7c0.1,1.4,0.7,2.6,1.7,3.5c1,0.9,2.3,1.4,3.6,1.3c1.3-0.1,2.6-0.7,3.4-1.8c1.8-2.2,1.5-5.4-0.6-7.2
	C162.3,108.5,161,108,159.7,108.1L159.7,108.1z M191.2,29.9c-2.5,0.2-10.3,0.7-15.1,5.6c-3.1,3.4-4.6,7.9-4.2,12.5v53.6
	c-0.1,4.3,1.8,8.5,5.1,11.2c1.5,1.2,4.9,3.9,13.9,3c5.2-0.2,10.2-2,14.2-5.2c2.9-2.6,4.5-6.4,4.3-10.3V80.4l-13.8,5.8l0,14.3
	c0,4.3-1.6,6.3-4.9,6.7c-2.2,0.3-5.1,0-5.1-5.4v-58c-0.3-2.7,1.6-5.2,4.3-5.5c0.1,0,0.2,0,0.3,0c2.3-0.6,4.6,0.9,5.2,3.2
	c0.1,0.5,0.2,1.1,0.1,1.7l0,16.6l13.8-5.8l0-8.2c0.3-3.5-0.4-7-1.9-10.1C204.3,30.7,197,29.5,191.2,29.9L191.2,29.9z M218.9,103.1
	c-1.3,0.1-2.5,0.8-3.3,1.8c-0.9,1-1.3,2.4-1.2,3.7c0.1,1.3,0.7,2.6,1.8,3.5c1.9,1.8,4.9,1.7,6.6-0.2c0.1-0.1,0.2-0.2,0.3-0.3
	c1.8-2.2,1.6-5.4-0.5-7.2C221.5,103.5,220.2,103,218.9,103.1L218.9,103.1z M271.7,26.4l-14.2,0.4v71c0,5-2.9,5.9-5.7,5.9
	c-3.5,0.1-5.5-1.5-5.5-5.3V27.2l-14,0.7v69.8c0,7.3,3,9.5,4.4,10.7c2.7,2.4,8.7,4,15,3.7c7.4-0.3,11.6-1.9,15.2-4.5
	c3.3-2.6,5.1-6.7,4.9-11L271.7,26.4L271.7,26.4z M298.1,26.1l-13,0v84.2H299V52.2l13.5,26.8v31.4l13.7,0.2V26.4l-14-0.1l0,31
	L298.1,26.1L298.1,26.1z M340.9,26.8v84.2l13.9,0.8V27.3L340.9,26.8L340.9,26.8z M364.3,27.8l-4.2,8.4l15.1,0.9v75.6
	c0,0,14.2,1,13.9,1V37.9l13.9,0.9l-0.1-8.6c0,0-14.1-1-19.8-1.3C375.4,28.4,364.3,27.8,364.3,27.8L364.3,27.8z M409.8,30.7v84.4
	c0,0,10.6,1.1,14.6,1.5c4.5,0.5,16.4,1.8,16.4,1.8l-0.1-9.5l-17.1-2l0-30.4l9.1,0.9l5-9.7l-14.2-1.5V40.9l14.9,1.6l0.1-8.8
	c0,0-9.6-1-13.8-1.4C421.4,31.8,409.8,30.7,409.8,30.7L409.8,30.7z M449.1,35v84.5c0,0,8.7,1.1,11.6,1.6c2.8,0.5,13.4,1.9,15.6,1.9
	c2.6,0.3,5.2-0.3,7.3-1.8c2.8-1.8,4.4-5.2,4.4-10l0-51.7c0.2-4,0-7.9-0.8-11.8c-0.9-2.9-2.9-5.4-5.6-6.8c-2.4-1.5-6.8-2.3-12.8-3.2
	C462.8,36.7,449,35,449.1,35L449.1,35z M463,45.1l7,1c2.1,0.3,2.7,0.8,3.2,2c0.5,1.5,0.7,3,0.6,4.6v57.8c0,1.6-0.3,2.4-0.8,2.8
	c-1.1,0.6-2.3,0.7-3.5,0.3l-6.5-0.9L463,45.1L463,45.1z M38.1,96.2c-3.4,19.8,3.6,38.4,14.2,54c16.9,24.8,40.8,36.7,51.3,42.6
	c15.9,8.8,21.8,12.4,28.9,17.8c25,18.8,18.7,41.9,18.7,41.9c-8.2-18.7-26.8-31.6-54.2-45.2c-37.7-18.7-42.8-36.2-42.8-36.2
	c-4.4,17.2-4.2,35.2,0.6,52.3c11,37.6,42.6,51.6,66.8,65.1c9.5,5.1,18.6,11,26.9,17.9c22.5,19.7,18.4,33.8,18.4,33.8
	c-8.1-16.2-32.5-26.8-53.8-37.5c-29.1-14.7-38.4-28-38.4-28c-4.3,25.3,3.5,48.8,13.7,65.1c13.5,21.3,34,37.1,58.1,44.6h306.6
	c24-7.5,44.6-23.3,58.1-44.6c10.1-16.4,17.9-39.9,13.7-65.1c0,0-9.3,13.4-38.4,28c-21.3,10.8-45.6,21.3-53.8,37.5
	c0,0-4.1-14.1,18.4-33.8c8.4-6.8,17.4-12.8,27-17.9c24.1-13.6,55.7-27.5,66.7-65.1c4.9-17.1,5.1-35.1,0.7-52.3
	c0,0-5.2,17.4-42.8,36.2c-27.3,13.6-46,26.5-54.2,45.2c0,0-6.3-23.1,18.7-41.9c7.1-5.4,13-9,28.9-17.8c10.5-5.8,34.4-17.8,51.3-42.6
	c10.6-15.6,17.6-34.2,14.2-54c0,0-3.4,7.5-16.3,15.4c-15.6,9.7-32.7,14.6-56.7,21.1c-22.7,6.1-61.4,13.7-84.3,26.5
	c-10.6,5.9-16.9,14-17.1,23.3c-0.5,24.6,21.6,47.7,21.6,79.5c0,20-15.4,33.4-42.1,33.4c-19.9,0-29.7-5.1-34.5-9.3
	c-5.2-4.9-8.2-11.7-8.2-18.9c-0.6-10,7-18.6,17-19.2c0.6,0,1.1,0,1.7,0c5.9,0,13.5,3.3,14.9,9.6c2.4-0.7,11.8-7.5,11.8-21.7
	c0-9.5-6.3-20.1-23.8-20.1c-4.6,0-9.1,0.5-13.5,1.8c0.5-11.4-10.3-17-21.8-17c-12,0-20.4,3.8-44.4,1.3c-5.6-0.6-11-1.7-16.3-3.4
	c1.8,2.3,3.3,4.8,4.5,7.4c1.7,4.1,2.4,8.6,1.8,13c-0.8,7.8-6.1,12.8-13.9,16c3.3,1.7,17.8,6.2,17.8,26.5
	c-0.3,9.4-4.5,18.2-11.5,24.4c-6.8,6.1-15.6,9.5-24.7,9.3c-22.3,0-32.7-13.2-32.7-33.2c0-31.8,22-55.1,21.6-79.5
	c-0.1-9.3-6.7-17.5-17.1-23.3c-22.9-12.8-61.7-20.4-84.4-26.5c-24-6.5-41-11.4-56.7-21.1C41.6,103.7,38.2,96.2,38.1,96.2L38.1,96.2z
	 M262.2,208.3c8.2,4.1,23.9,4.1,34.1,2.4c8.2-1.4,17.5-2.8,23,1.5c7.1,5.6,5.1,15.3,5.1,15.3l1.3-0.5c5.6-2.1,11.6-3.2,17.5-3
	c10.4,0,16.9,3.2,18.2,11c0.5,4-0.4,8-2.6,11.4c0,0-3.7-7.2-15.9-7.2c-16.5,0-29.2,11-28.7,29.4c0.4,7.7,3.3,15,8.4,20.8
	c-0.2-0.1-0.2,0.8-0.2,0.8c-6-3.2-15.3-6.2-20.3-3.6c-6.3,3.4-5.9,14.3-4.8,20.4l-1.2,0.5c-1.7-4.5-3.9-13.8-16.8-18.5
	c-5.5-2-14-1.6-21.7-0.1c7.6-7.7,12.1-17.9,12.6-28.7c0-16.1-8.1-21.7-12.4-24.9c4.2-2.9,7-7.3,7.8-12.3
	C266.1,217.8,264.9,212.7,262.2,208.3L262.2,208.3z M293.9,223.9c2.3,3.1,4.8,6.1,7.6,8.8c3.8,2.8,10,0.3,15.1-1.9
	c2.5-1.2,7.3-3.1,7.3-3.1c-1.7-1.1-3.7-2-5.7-2.6c-4.4-1.2-9.1-1.6-13.6-1.2C300,224.1,293.9,223.9,293.9,223.9L293.9,223.9z
	 M250,432.7c2,4.3,3.1,8.9,3.2,13.7c0.2,6.1-0.7,12.2-2.5,18h98.5c-1.9-5.8-2.8-11.9-2.6-18c0.1-4.7,1.2-9.4,3.3-13.7H250z
	 M223.5,512.5c18.1,20.5,55.1,52,75.9,63c22.9-12.1,59.1-45.9,77.8-63H223.5z M299.4,127.9c-47.8,0.1-95.7,2.6-143.2,7.6
	c0,0,26.6,6.2,46.6,16.9c11.8,6.3,19.7,16.2,20.5,26.8c1.1,15.4-6.3,32-10.8,42.4c-7.2,16.8-11.1,30.4-11,40.7
	c-0.1,5.3,1.4,10.6,4.3,15.1c3.2,4.4,8,8.9,18.8,8.9c18.1,0,25-16.1,25-25.7c0.1-6.7-3-13.1-8.5-17.1c-4.5-3.7-9.7-6.5-15.2-8.3
	c0,0,20.8-6.7,20.8-18.8c0-9.9-6.1-21.3-13.9-29.6l0.5-0.5c5.3,2.4,10.8,4.2,16.5,5.3c9.7,1.6,19.5,2.4,29.4,2.4
	c16,0,23.3-1.9,35.1-1.9c12.3,0,23.2,5.8,25.9,17c4.3-0.6,8.7-0.7,13-0.3c14.7,1.5,24.7,11.8,24.9,25.2
	c0.7,16.6-10.3,31.5-26.4,35.6c0.6-1.7,0.7-3.5,0.4-5.3c-0.6-4.1-4-7.2-8.2-7.4c-6.9,0-10.3,5.6-10.1,11.2
	c0.5,12.3,14.3,17.5,28.2,18.3c2.1,0.1,3.6,0.2,5.6,0.1c12.9-0.3,20.9-3.6,25.6-9.3c3.1-4.4,4.7-9.6,4.6-14.9
	c0.1-10.3-3.7-23.9-11-40.7c-4.4-10.3-11.9-27-10.8-42.4c0.7-10.6,8.8-20.4,20.5-26.8c19.6-10.6,46.6-16.9,46.6-16.9
	C400.5,131.2,350.8,127.9,299.4,127.9L299.4,127.9z M455,397.5c-18.8,7.2-35.6,12.5-51.6,17.5c-19.7,6.3-46.1,14.4-47.5,30.4
	c-1.8,20.1,24.9,49.5,31.7,56.2c14.8-15.7,28.1-32.8,39.7-50.9C438,433.8,447.3,416,455,397.5L455,397.5z M145.1,397.6
	C161,436.3,184,471.7,212.7,502c7.6-7.9,31.4-36.2,31.4-56.4c0-15.6-27.7-24.1-47.5-30.2C181.3,410.6,163.9,404.8,145.1,397.6
	L145.1,397.6z"/>
<path id="Red" class="st2" d="M402.3,401.3c23.2-7.5,50.7-16.9,50.7-16.9H146.7c0,0,28.3,10,51.7,17c20.1,6.1,44.2,14.7,51.7,31.3
	h100C358.1,416.1,382.3,407.7,402.3,401.3 M239.9,488.4c-4.9,8.4-10.3,16.4-16.2,24h153.6c-3.3-4.7-10.3-13.7-16.6-24
	c-4.9-7.5-8.7-15.6-11.6-24h-98.5C247.9,472.8,244.3,480.8,239.9,488.4 M377.1,342.8h-16.9l13.6,9.9l-5.2,16l13.6-9.9l13.6,9.9
	l-5.2-16l13.6-9.9h-16.9l-5.2-16L377.1,342.8L377.1,342.8z M294,342.8h-16.9l13.6,9.9l-5.2,16l13.6-9.9l13.6,9.9l-5.2-16l13.6-9.9
	h-16.9l-5.2-16L294,342.8L294,342.8z M215,326.7l5.2,16h16.9l-13.6,9.9l5.2,16l-13.6-9.9l-13.6,9.9l5.2-16l-13.6-9.9h16.9L215,326.7
	L215,326.7z"/>
</svg>
