<svg version="1.1" id="Layer_1" xmlns="http://www.w3.org/2000/svg" xmlns:xlink="http://www.w3.org/1999/xlink" x="0px" y="0px"
	 viewBox="0 0 600 600" style="enable-background:new 0 0 600 600;" xml:space="preserve">
<style type="text/css">
	.st0{fill:#101820;}
	.st1{fill:#FFFFFF;}
	.st2{fill:#FF6B00;}
</style>
<path id="Black" class="st0" d="M298.8,0.3C298.5,0.5,244,34,177.6,74.8S56.5,149.3,56.1,149.7l-0.7,0.7c0,293,0,299.4,0.4,299.8
	c0.2,0.2,55.1,34,122,75.1C244.8,566.4,299.7,600,300,600c0.3,0,52.7-32,122.1-74.6c66.8-41,121.7-74.8,122-75.1
	c0.4-0.5,0.4-6.7,0.4-150.3s0-149.8-0.4-150.3c-0.2-0.3-44.6-27.7-98.6-60.8c-54-33.2-108.6-66.7-121.4-74.6
	C305.7,3,300.6,0,299.9,0C299.5,0,299,0.2,298.8,0.3z"/>
<path id="White" class="st1" d="M318,384.8l9.9,9.9v14.9l-9.9,9.9l-24.9,0l-9.8-9.7l7.4-7.4l7.6,7.3h14.7l4.5-4.5v-6.1l-4.5-4.5
	h-18.1l-9.9-9.9l-0.1-14.4l5.1-5.1l5.1-5.1h22.5l9.1,9.2l-7.3,7.3l-6.8-6.5H300l-4.6,4.5v5.4l4.8,4.8H318z M262.1,405.2l-4.5,4.6
	l-13.4,0l-4.5-4.5V360h-10.5l0,24.8v24.8l9.9,9.9h23l9.9-9.9V360h-9.8L262.1,405.2z M205,360l10.1,10.2v39.2L205,419.5h-24l-9.9-9.9
	l-0.1-39.7l5-5l5-5H205z M204.4,374.3l-4.3-4.3h-14.2l-2.2,2.1l-2.2,2.2l0.1,30.8l4.5,4.5h13.7l4.5-4.5V374.3z M146.3,383.6
	l-21.4,0.1V360h-10.5v29.8v29.8h10.5v-26h21.5v26h10.5V360h-10.5L146.3,383.6z M333.9,360.3c-0.1,0.2-0.1,2.4-0.1,5l0.1,4.7
	l16.5,0.1v49.5h10.8V370h16.6v-10C338.3,360,333.9,360.1,333.9,360.3z M418.9,360l9.9,9.9v39.7l-9.9,9.9h-24l-9.9-9.9l-0.1-39.7l5-5
	l5-5H418.9z M418.3,374.3L414,370h-14.2l-2.2,2.1l-2.2,2.2l0.1,30.8l4.5,4.5h13.7l4.5-4.5L418.3,374.3z M475.8,360
	c0,37.8-0.1,40-0.4,39.5c-0.2-0.3-4.8-9.3-10.1-20l-9.8-19.5h-12.2v29.8v29.8h10c0-35.6,0.1-39.7,0.3-39.4
	c0.2,0.2,4.8,9.2,10.3,19.9l10,19.5h11.8V360H475.8z M317.6,434.3c0-0.1,2.4-0.1,10.7-0.1v29.9h-8.1v-8.9c0-4.9-0.1-8.9-0.2-8.9
	c-0.1,0-0.3,0.8-0.5,1.8c-0.2,1-1.3,4.9-4.6,16h-6.2l-2.2-6.8c-1.2-3.8-2.3-7.5-2.5-8.2c-0.1-0.7-0.3-1.6-0.4-1.9
	c-0.1-0.3-0.2-0.5-0.4-0.5s-0.2,3.1-0.2,17.6h-6.8v-14.9v-14.9h11l0.2,1c0.2,0.6,1.1,4.2,2.2,8.2c1.1,3.9,2.1,7.8,2.2,8.6
	c0.2,0.9,0.4,1.5,0.5,1.5c0.1,0,0.3-0.6,0.5-1.4c0.1-0.8,0.5-2.3,0.8-3.4s1.2-4.7,2.2-8.1C316.8,437.2,317.6,434.4,317.6,434.3z
	 M249.4,452.7c-0.1-0.1-0.3-0.9-0.5-1.7c-0.1-0.8-1.4-4.6-2.8-8.5c-1.3-3.8-2.5-7.3-2.7-7.6l-0.2-0.7h-10.7v14.9v14.9h7.1
	c0-14.4,0.1-18.6,0.2-18.6c0.1,0,0.3,0.8,0.5,1.6s1.5,5.1,3,9.2c1.5,4.2,2.7,7.6,2.7,7.7c0,0,2.4,0.1,5.4,0.1h5.4v-29.9h-7.1
	C249.6,448.8,249.5,452.8,249.4,452.7z M191.1,434.2l4.8,4.8v20.3l-4.8,4.8h-19.9v-14.9v-14.9H191.1z M187.5,441.7
	c-1.3-1.3-1.3-1.3-4.7-1.3l-3.4,0v8.8v8.8c6.7,0,6.7,0,7.4-0.7l0.7-0.7V441.7z M223.8,434.2h-3.6c-3.5,8.6-4.6,11.8-4.8,12.6
	c-0.2,0.8-0.4,1.4-0.5,1.4c-0.1,0-0.2-0.1-0.2-0.2c0-0.1-0.2-0.9-0.4-1.8c-0.2-0.9-1.3-3.9-2.4-6.7l-2-5.1c-7.1-0.1-9.2-0.1-9.2,0
	c0,0.1,2,4.6,4.4,10l4.4,9.9v9.9h9.1v-9.8c6.8-15.1,8.8-19.6,8.8-19.8C227.4,434.3,226.5,434.2,223.8,434.2z M289.6,463.7
	c0.1,0.4-0.2,0.4-8.8,0.4l-0.5-2c-0.3-1.1-0.6-2.4-0.9-3.6h-7.3l-1.4,5.6l-3.8,0c-3.5,0-3.8,0-3.8-0.4c0.1-0.2,1.9-7,4.1-14.9
	l4-14.5h4.9c2.7,0,4.8,0.1,4.8,0.1c0,0.1,2,6.6,4.3,14.5C287.6,456.8,289.5,463.4,289.6,463.7z M278.5,452.2c0-0.1-0.4-1.6-0.8-3.5
	c-0.5-1.9-1-4.2-1.1-5.2c-0.1-1.1-0.4-1.9-0.5-1.9c-0.1,0-0.2,0-0.2,0.1c0,0.1-0.2,1-0.4,2.2c-0.2,1.1-0.8,3.5-1.2,5.2
	c-0.5,1.7-0.8,3.2-0.8,3.2c0,0.1,1.1,0.1,2.5,0.1C277.3,452.3,278.5,452.3,278.5,452.2z M379.2,449.1v14.9h8.1v-10.3h10.5v-6.2
	l-10.4-0.1l-0.1-6.7h12v-6.6h-20V449.1z M356.8,433.9l4.5,4.5v21.1l-4.8,4.8l-14.9,0l-4.8-4.8l-0.1-20.8l2.4-2.4l2.4-2.4H356.8z
	 M352.8,440.9c-0.5-0.5-0.8-0.5-3.5-0.5c-2.9,0-3,0-3.7,0.7l-0.7,0.7l0.1,15.2c1.3,1.3,1.4,1.4,4.1,1.4c2.8,0,2.8,0,3.5-0.7l0.7-0.7
	C353.3,441.4,353.3,441.4,352.8,440.9z M424.6,454.8c-0.1,0-1,0.8-2,1.7l-1.8,1.7l-5.5,0l-1.6-1.6l0-14.9c1.3-1.3,1.4-1.3,4.2-1.3
	h2.8l3.2,3.1l5.8-5l-4.5-4.5h-14.7l-2.4,2.4l-2.4,2.4l0.1,20.8l4.8,4.8l15.1,0l4.4-4.4C426,455.9,424.7,454.8,424.6,454.8z"/>
<path id="Orange" class="st2" d="M531.4,157.6c-179.1-110-231.2-141.9-231.3-142c-0.1,0-52.2,32-115.8,71l-115.5,71v284.8
	C247.3,552,299.4,584,299.6,584.1c0.4,0.2,16.9-9.8,116.2-70.9l115.7-71.1L531.4,157.6z M522.7,437l-111.2,68.3
	c-61.2,37.6-111.4,68.3-111.5,68.2c-0.2,0-50.2-30.8-222.5-136.6V163l111.3-68.4L300,26.3l2.9,1.7c1.6,1,51.7,31.7,219.8,134.9V437z
	 M228.5,116.3c-1.6,1.6-2.9,3-2.9,3.1c0,0.1,2.5,2.7,5.5,5.6l5.4,5.4l0,79.8l-16,16l16.1,15.8l0,23.6h8.6v-27.3l-12.2-12.2
	l12.2-12.2v-87.4c-10.1-10.1-13.2-13.1-13.3-13.1C231.5,113.4,230.1,114.7,228.5,116.3z M259,119.9l-6.6,6.5l0.1,95.9H368v-35.8
	h-8.6l-0.1,27.1l-97.9,0.1v-83.6l10.6-10.6c-4.6-4.8-6-6.2-6.1-6.2C265.8,113.4,262.7,116.3,259,119.9z M351.6,116.5l-3.1,3.1
	l10.9,10.5v16.7h8.6v-20.2c-10.1-10.1-13.1-13.1-13.2-13.1C354.7,113.4,353.2,114.8,351.6,116.5z M382.1,119.9l-6.5,6.5l-0.1,20.2
	h8.8v-16.5c8.1-8.2,10.5-10.7,10.5-10.8c0-0.1-1.3-1.6-2.9-3.1c-1.6-1.6-3-2.8-3.1-2.8S385.7,116.3,382.1,119.9z M161,140.3
	l-2.9,2.9c3.8,3.9,8.1,8.3,12.1,12.3l7.2,7.3h51.4v-8.6H181c-13.1-13.1-16.9-16.9-17-16.9C164,137.4,162.6,138.7,161,140.3z
	 M268.7,158.6v4.3h140.7l29.2,29.2v67.7l-29.1,29.4h-17.9v8.8h21.1l34.6-34.6v-74.7l-34.3-34.4H268.7V158.6z M177.5,226.2v55.7
	l8.7-0.1l0.1-111.3h-8.8V226.2z M193.9,226.2v55.7h157.9v-8.8H202.4v-93.8l26.3-0.2l0.1-8.7h-34.9V226.2z M268.8,174.8l0.1,4.3
	l134,0.2l19.7,19.7v54.1l-19.9,19.9h-10.9v8.8H406l25.3-25.4v-61.2l-24.8-24.8H268.7L268.8,174.8z M375.5,200.1v13.5l12.5,12.5
	l-12.5,12.5v86.9l13.4,13.4l6.1-6.1l-10.9-10.9v-79.7c12.5-12.2,16.1-15.9,16.1-16c0-0.2-3.6-3.8-8-8.2l-7.9-8v-23.4h-8.8V200.1z
	 M252.6,247.8v17.9l8.7-0.1l0.1-27.1h98v83.4l-10.9,10.9l6.2,6.2l13.2-13.2V230H252.6V247.8z M167.9,298.9c-5.4,5.3-9.7,9.7-9.7,9.9
	c0.1,0.1,1.4,1.6,3,3.3l2.9,3l17.2-17h170.6v-8.8l-174.2,0L167.9,298.9z M236.4,313.8v8.2c-10.1,10.1-10.8,11-10.6,11.3
	c0.1,0.2,1.6,1.6,3.1,3.1l2.9,2.7l13.2-13.2v-20.2h-8.6V313.8z M252.6,315.7l0,10.1l13.3,13.2l6.1-6.1c-2.2-2.5-4.6-4.9-6.7-7
	l-3.8-3.8v-16.5h-8.8V315.7z M302.6,499.3c-9.6,10.5-17.5,19.1-17.4,19.3c0.1,0.1,4.8,0.2,10.6,0.2c5.9,0,10.5,0.1,10.5,0.2
	c0,0.1-3.2,6.7-7.1,14.6c-3.9,7.9-7,14.4-6.9,14.5c0.1,0.1,8-8.4,17.5-18.9c9.6-10.5,17.4-19.1,17.4-19.2s-4.7-0.2-10.5-0.2
	s-10.5-0.1-10.5-0.2c0-0.1,3.2-6.7,7.1-14.6c3.9-7.9,7.1-14.5,7-14.5C320.1,480.3,312.3,488.8,302.6,499.3z"/>
</svg>
