<svg version="1.1" id="Layer_1" xmlns="http://www.w3.org/2000/svg" xmlns:xlink="http://www.w3.org/1999/xlink" x="0px" y="0px"
	 viewBox="0 0 600 600" style="enable-background:new 0 0 600 600;" xml:space="preserve">
<style type="text/css">
	.st0{fill:#ECE83A;}
	.st1{fill:#1F1646;}
</style>
<path id="Yellow" class="st0" d="M221.5,0L90.4,108.5v382.3L221.5,600h157.7l130.4-109.2V108.5L379.2,0H221.5z"/>
<path id="Blue" class="st1" d="M373.7,14.3l121.5,101V484L373.7,585.7H226.3L104.8,484V115.4l121.5-101H373.7z M376.5,6.8H223.5
	L98,111.9v375.4l126.3,105.1h152.2L502,487.4V111.9l-2.7-2L376.5,6.8z M271.3,370.6V253.9l54.6,116.7H358L242,124.9v245.7H271.3z
	 M328.7,57.3v116l-54.6-116H242l116,245.1V57.3H328.7z M191.5,96.2h21.8v234.8h-21.8V96.2z M148.5,135.8h14.3v156.3h-14.3V135.8z
	 M386.7,96.2h21.8v234.8h-21.8V96.2z M437.2,135.8h14.3v156.3h-14.3L437.2,135.8z M295.9,514.7l-16.4-16.4v-11.6h6.1v11.6h9.6v-15
	l-4.8-5.5h-15.7l-4.8,5.5v20.5l15.7,15.7v13.7h-6.1v-13.7H270v17.7l4.8,5.5h15.7l5.5-5.5L295.9,514.7z M304.8,483.3v53.9l5.5,5.5h15
	l4.8-5.5v-17.7h-9.6v13.7H315v-46.4h5.5v11.6h9.6v-15l-4.8-5.5h-15L304.8,483.3z M263.1,436.2l-16.4-16.4v-11.6h6.1v11.6h9.6v-15.7
	l-4.8-4.8h-15l-5.5,4.8v20.5l15.7,15.7v14.3h-5.5v-14.3h-10.2v18.4l5.5,4.8h15.7l4.8-4.8V436.2z M171.7,399.3l11.6,34.8v-34.8h10.2
	v64.2h-8.9l-12.3-34.8v34.8h-9.6v-64.2H171.7z M282.3,399.3v26.6h6.1v-26.6h9.6v64.2h-9.6v-28.7h-6.1v28.7H272v-64.2H282.3z
	 M315.7,399.3l5.5,50.5l6.1-50.5h9.6l-8.9,64.2h-13l-8.9-64.2H315.7z M345.1,399.3h9.6v64.2h-9.6V399.3z M373.7,399.3v54.6h8.9v9.6
	h-18.4v-64.2H373.7z M399.7,399.3v54.6h9.6v9.6h-19.1v-64.2H399.7z M437.2,408.9h-10.9v17.1h10.2v8.9h-10.2v19.1h10.9v9.6H416v-64.2
	h21.2L437.2,408.9z M221.5,463.5h9.6l-8.9-64.2h-13l-8.9,64.2h9.6l1.4-10.9h9.6L221.5,463.5z M211.9,443.7l3.4-30.7l3.4,30.7H211.9z
	"/>
</svg>
