<svg version="1.1" id="Layer_1" xmlns="http://www.w3.org/2000/svg" xmlns:xlink="http://www.w3.org/1999/xlink" x="0px" y="0px"
	 viewBox="0 0 600 600" style="enable-background:new 0 0 600 600;" xml:space="preserve">
<style type="text/css">
	.st0{fill:#FFFFFF;}
	.st1{fill:#999999;}
	.st2{fill:#002F65;}
	.st3{fill:#91B0D5;}
</style>
<path id="Outline" class="st0" d="M300,0.3h-0.2h-2.7l0,0C216.6,0.8,138.2,21.7,70.3,60.9l-3.4,2l-1.5,3.7
	c-16,39.3-27.2,84.8-31.5,128.1c-5.6,55.9-0.2,107.2,15.9,152.5c14.6,40.9,35,78.1,60.6,110.6c22.5,28.4,49,53.7,81.1,77.2
	c55.3,40.6,97,60.6,101.6,62.8l0.5,0.3l0.5,0.2l1.8,0.6l3.9,1.4l3.9-1.4l1.8-0.6l0.6-0.2l0.5-0.2c4.8-2.3,46.5-22.4,101.6-62.8
	c32.1-23.6,58.7-48.8,81.1-77.2c25.7-32.5,46.1-69.7,60.6-110.6c16.2-45.4,21.6-96.6,16.3-152.1c-4.2-43.3-15.3-88.6-31.2-127.7
	l-0.9-2.3l-1.8-1.7l-0.2-0.2l-1-0.9l-1.2-0.7C463.9,23.4,388.6,2.4,311.5,0.5V0.3L300,0.3L300,0.3z"/>
<path id="Grey_4_" class="st1" d="M76.1,70.9c-27,66.4-49.7,176-15.4,272.4C90.9,428,141.5,484,198.4,525.7
	c56.9,41.7,99.3,61.5,99.8,61.7l1.8,0.6l1.8-0.6c0.5-0.2,42.8-20,99.7-61.7C458.4,484,509,428,539.2,343.3
	c34.4-96.5,12.3-205.2-14.8-271.6l-0.2-0.2c-65.8-38-142.8-59.7-224.2-59.7v0h-0.2l0,0C218.5,11.9,141.9,32.9,76.1,70.9z"/>
<path id="White_Shield" class="st0" d="M295,573.5c-3.4-1.5-84-37.4-151.1-111.1C81.2,393.6,19.6,278.3,82.6,119.4l1.4-3.4l3.1-2
	c3.6-2.4,89.5-58.4,212.7-58.4c123.2,0,209.1,56.1,212.7,58.4l3.1,2l1.4,3.4c62.9,158.9,1.4,274.2-61.3,342.9
	C388.4,536,307.9,572,304.5,573.5l-4.7,2.1"/>
<path id="Blue_Shield" class="st2" d="M506.1,124.2c0-0.1-0.3-0.5-0.5-0.6c-6.2-4-89.3-56.2-205.8-56.2
	c-116.9,0-200.2,52.6-205.9,56.3c-0.2,0.1-0.4,0.4-0.5,0.6C-23.6,420.5,299.8,562.7,299.8,562.7S623.1,420.5,506.1,124.2"/>
<path id="White_Letters" class="st0" d="M314.3,26.9c-1.1,0-1.8,0.5-1.8,1.5c0,1.4,0.1,2.8,0.1,4.2c0,0.7,0.3,1.2,1.3,1.4
	c4.9,1.5,9.8,3,14.7,4.6c0,0.8,0.1,1.5,0.1,2.3c-3.7-0.2-7.4-0.4-11-0.6c0-0.9-0.1-1.8-0.1-2.7c-1.6-0.1-3.2-0.1-4.8-0.2
	c0,1.3,0.1,2.7,0.1,4.1c0,0.9,0.8,1.6,1.9,1.6c5.7,0.2,11.4,0.5,17.1,0.9c1.1,0.1,1.8-0.5,1.7-1.4c-0.1-1.5-0.2-3-0.3-4.5
	c0-0.7-0.4-1.2-1.3-1.5c-4.9-1.6-9.8-3.2-14.6-4.7c0-0.7,0-1.3-0.1-2c3.6,0.2,7.2,0.3,10.8,0.6c0,0.8,0.1,1.5,0.1,2.3
	c1.6,0.1,3.1,0.2,4.7,0.3l-0.2-3.7c-0.1-0.9-0.8-1.5-1.8-1.6C325.4,27.4,319.9,27.1,314.3,26.9L314.3,26.9z M278.5,27.2
	c-1.7,0.1-3.3,0.2-5,0.3c-3.4,5.6-6.8,11.2-10.4,16.9v0c1.6-0.1,3.3-0.3,4.9-0.4c0.6-1,1.2-2,1.8-3c3.8-0.3,7.5-0.5,11.3-0.7
	c0.5,0.9,1,1.9,1.5,2.8c1.7-0.1,3.3-0.1,5-0.2v0C284.6,37.6,281.5,32.4,278.5,27.2z M275.9,30.7c1.2,2.3,2.5,4.6,3.8,6.8
	c-2.7,0.1-5.3,0.3-8,0.5C273.1,35.6,274.5,33.1,275.9,30.7z M239.2,30.8c-5.5,0.7-10.9,1.5-16.4,2.5c-1.1,0.2-1.8,0.9-2,1.9
	c-0.2,1.4-0.3,2.9-0.5,4.3c-0.1,0.8,0.1,1.1,1,1.2c4.6,0.5,9.2,1,13.9,1.7c-0.1,0.8-0.1,1.6-0.2,2.4c-3.6,0.5-7.2,1.1-10.9,1.7
	c0.1-0.9,0.2-1.8,0.3-2.8c-1.6,0.3-3.1,0.5-4.7,0.8c-0.2,1.4-0.3,2.8-0.5,4.1c-0.1,1,0.5,1.4,1.6,1.2c5.6-1,11.2-1.9,16.8-2.7
	c1.1-0.2,1.9-0.8,1.9-1.8c0.1-1.5,0.3-3.1,0.4-4.6c0.1-0.7-0.2-1.2-1.1-1.3c-4.6-0.7-9.2-1.3-13.8-1.8c0.1-0.7,0.1-1.4,0.2-2
	c3.6-0.6,7.1-1.1,10.7-1.6c-0.1,0.8-0.1,1.6-0.2,2.3c1.6-0.2,3.1-0.4,4.6-0.6c0.1-1.2,0.2-2.5,0.3-3.7
	C240.9,31.2,240.3,30.7,239.2,30.8z M376.5,33.4c-0.6,0.1-0.9,0.6-0.8,1.3c0.5,4.5,1,9,1.6,13.5c0.1,1,0.8,1.7,1.9,1.9
	c5.9,1.1,11.9,2.3,17.9,3.7c1.1,0.3,1.7-0.2,1.6-1.2c-0.2-1.6-0.4-3.2-0.6-4.8c-1.6-0.4-3.1-0.7-4.7-1.1c0.1,1.1,0.3,2.1,0.4,3.2
	c-4-0.9-8-1.7-11.9-2.4c-0.4-3.5-0.8-7-1.2-10.5c3.9,0.7,7.9,1.5,11.8,2.3c0.1,1,0.3,2,0.4,3.1c1.6,0.3,3.1,0.7,4.7,1
	c-0.2-1.6-0.4-3.1-0.6-4.7c-0.1-1-0.9-1.8-2-2c-5.9-1.3-11.8-2.4-17.6-3.4C377,33.4,376.7,33.4,376.5,33.4z M197.5,38.2
	c-1.5,0.3-3,0.7-4.5,1.1c-0.6,3.8-1.2,7.6-1.9,11.4c-3.3-2.9-6.6-5.7-9.8-8.4c-1.5,0.4-3,0.8-4.5,1.3c-1.2,5.8-2.3,11.7-3.5,17.7
	c1.6-0.5,3.2-1,4.8-1.4c0.8-4.1,1.5-8.1,2.3-12.1c3.2,2.9,6.5,5.8,9.9,8.8c1.6-0.4,3.1-0.8,4.7-1.2
	C195.8,49.6,196.6,43.9,197.5,38.2z M418.4,42.6c1.1,5.7,2.3,11.5,3.4,17.4c1.6,0.5,3.2,1,4.7,1.4c-1.2-5.9-2.4-11.7-3.5-17.5
	C421.5,43.5,419.9,43.1,418.4,42.6z M443,50.1c0.2,1.1,0.4,2.2,0.7,3.3c2.5,0.8,5.1,1.7,7.6,2.7c1.1,4.8,2.2,9.7,3.4,14.8
	c1.6,0.7,3.2,1.3,4.8,2c-1.3-5.2-2.5-10.2-3.7-15.2c2.8,1,5.6,2.1,8.5,3.3c-0.3-1.2-0.6-2.4-0.9-3.6C456.2,54.6,449.4,52.1,443,50.1
	z M148,52.8c-1.6,0.6-3.2,1.2-4.7,1.8c-4.6,7.3-9.3,14.8-14.2,22.5c0,0,0,0,0,0.1c1.6-0.7,3.3-1.4,4.9-2.1c0.8-1.4,1.7-2.7,2.5-4.1
	c3.7-1.5,7.4-2.9,11.1-4.3c0.3,0.9,0.6,1.8,0.8,2.7c1.4-0.5,2.8-1,4.2-1.5c0,0,0,0,0-0.1C151,62.8,149.5,57.8,148,52.8z M144.7,57.5
	c0.6,2.2,1.3,4.4,2,6.5c-2.6,1-5.2,2-7.8,3C140.9,63.8,142.8,60.6,144.7,57.5z M479.6,64.1c0,0,0,0.1,0,0.1c4,5.2,8.4,11.4,12.6,17
	c0.6,2.2,1.2,4.7,1.9,6.9c1.6,0.9,3.2,1.7,4.8,2.6c-0.7-2.2-1.6-5.7-2.2-7.9c2-2.5,4-5,5.9-7.6c0-0.1,0-0.1,0-0.2
	c-1.8-0.9-4.5-2.3-4.5-2.3s-2.3,3-4.1,4.9c-2-2.4-4.9-6.6-7.9-10.6C484.6,66.3,481.1,64.8,479.6,64.1z M119.7,64.2
	c0,0-0.8,0.3-0.7,0.3c-1.8,0.8-5.9,2.5-5.9,2.5l-10.9,11.7c0,0,1.5-5,2.2-7.5c-1.5,0.7-3,1.5-4.6,2.2C97.7,80,95.4,87,93,94.5
	c1.8-1,3.5-1.9,5.2-2.8c0.9-3,1.8-6,2.6-8.9c2.4,1.2,4.9,2.4,7.4,3.7c2.2-1.1,3.4-1.6,5.5-2.6c0-0.1,0-0.1,0-0.2
	c-3.2-1.6-5.2-2.7-8.2-4.1C109.8,74.9,115.9,68.3,119.7,64.2z M298.5,84.6c-9.8,0-19.5,0.4-29.1,1.3c-0.4,10.7-0.8,21.6-1.2,32.1
	c3.4-0.3,6.8-0.5,10.2-0.7c0.2-8.6,0.4-17.7,0.7-26.3c7.7-0.4,15.4-0.6,23.2-0.5c0,3.1,0,6.4,0.1,9.5c-7.4,0-14.8,0-22.2,0.4
	c1.7,1.2,18.5,12.2,25.2,16.6c4.2,0.1,8.4,0.2,12.6,0.4c0-0.1,0-0.2,0-0.3c-6.1-3.9-11.2-7.8-17.1-11.5c3,0,4.9,0,7.9,0.1
	c2.3,0.1,3.8-1,3.8-2.8c-0.1-4.9-0.2-10.1-0.3-15c0-1.9-1.6-3.1-3.8-3.2C305,84.6,301.8,84.6,298.5,84.6z M320.3,85.2
	c0.1,2.1,0.2,3.7,0.3,5.8c5.9,0.3,11.8,0.8,17.7,1.4c0.6,8.8,1.3,18.1,1.9,26.7c3.4,0.4,6.7,0.8,10.1,1.2
	c-0.7-8.6-1.4-17.9-2.2-26.7c5.9,0.8,11.8,1.7,17.7,2.8c-0.2-2.1-0.3-3.8-0.6-5.9C350.4,87.7,335.3,86,320.3,85.2z M252.7,87.3
	c-12.9,1.6-25.6,3.6-38.3,6.6c-2.3,0.5-3.8,2.1-4.1,4c-1.2,8.9-2.5,18.1-3.7,26.7c-0.3,1.8,1,2.7,3.4,2.1c13.2-3,26.5-5.3,39.9-7
	c2.4-0.3,3.9-1.6,4.1-3.4c0.7-8.6,1.4-17.6,2.1-26.4C256.3,88.1,255,87.1,252.7,87.3z M374,91.7c1.2,10.8,2.4,21.9,3.6,32.7
	c3.4,0.7,6.8,1.4,10.3,2.2c-1.4-10.8-2.8-22-4.2-32.8C380.5,93,377.3,92.4,374,91.7z M245.9,94c-0.6,6.8-1.3,14.3-1.9,21
	c-9,1.2-17.8,2.8-26.7,4.6c0.8-6.7,1.8-14.4,2.6-21.2C228.1,96.7,237.2,95.2,245.9,94z M395.9,96.7c1.7,11,3.4,22.4,5.1,33.1
	c3.4,0.8,6.8,1.8,10.1,2.7c-1.2-7.3-2.5-15.4-3.7-22.9c9.6,9.8,19.5,20.9,29.2,31.1c3.2,1.1,6.1,2.3,9.5,3.6
	c-2.1-10.6-4.5-22.5-6.7-33.6c-3.1-1.2-6.2-2.4-9.3-3.5c1.4,7.4,3,15.6,4.4,22.8c-9.6-10.1-19.3-21-28.7-30.7
	C402.5,98.5,399.2,97.5,395.9,96.7z M197.9,97.9c-0.4,0-0.9,0-1.4,0.2c-12.4,3.5-24.5,7.5-36.6,12.3c-2.4,11.2-4.9,23-7.3,34.2
	c3.3-1.3,6.5-2.6,9.8-3.8c1.8-9,3.7-18.8,5.5-27.9c7.2-2.7,14.4-5,21.6-7.2c-0.6,3.4-1.2,7.5-1.8,11c-6.9,2.1-13.7,4.4-20.4,6.8
	c2.2,1.1,4.5,2.2,6.8,3.3c6.2-2.1,12.5-4.1,18.8-5.9c2.3-0.7,3.9-2.2,4.2-4.1c0.8-5.4,1.7-11.2,2.4-16.6
	C199.7,98.8,199.1,98,197.9,97.9z M145.5,116.3c-0.4,0-0.8,0.2-1.4,0.4c-10.9,4.8-21.4,9.8-31.9,15.7c-2.1,1.2-3.7,3.2-4.3,5.2
	c-0.9,3-2,6.5-2.8,9.5c-0.5,1.6-0.2,2.2,1.4,1.7c8.4-2.5,17.1-4.6,26.1-6.4c-0.4,1.6-1,4.2-1.4,5.8c-7.4,3.4-14.8,7.4-22,11.3
	c0.5-1.9,1-3.5,1.5-5.4c-3.1,1.7-6.2,3.6-9.3,5.4c-0.8,2.9-1.6,5.5-2.4,8.4c-0.6,2,0.5,2.4,2.6,1.2c11-6.2,22.5-12.4,34.1-17.4
	c2.3-1,4-2.8,4.4-4.8c0.7-3.1,1.5-6.6,2.2-9.8c0.3-1.5-0.1-2.2-1.8-1.9c-9,1.6-17.8,3.5-26.2,5.8c0.4-1.4,1.2-3.9,1.6-5.3
	c6.6-3.7,13.5-7,20.8-10.4c-0.4,1.6-0.8,3.2-1.2,4.8c3.1-1.4,6.2-2.8,9.4-4.2c0.6-2.5,1.1-5.1,1.7-7.6
	C147.1,116.8,146.6,116.1,145.5,116.3z M454.1,116.5c-1.2-0.1-1.8,0.7-1.4,2.2c2.2,9.2,4.4,19.4,6.5,28.6c0.4,1.9,2.1,3.5,4.4,4.5
	c11.8,5.2,21.5,10.1,33.1,16.6c2.7,1.5,4.1,1.5,3.3-1.4c-1.4-5.5-3.3-12.6-4.2-15.7c-8.4-4.7-11.5-6.4-21.4-11.4l5.2,7.3
	c4.5,2.3,5.3,2.7,8.9,4.7c0.8,2.7,1.7,6.1,2.3,8.2c-8.2-4.6-13.9-7.4-22.2-11.3c-2.2-8.4-3.9-15.9-5.7-23
	c8.4,3.9,13.9,6.6,21.5,10.7c0.4,1.7,0.9,3.8,0.9,3.8l8.8,5c0,0-1.3-4.5-2-7c-0.6-2.2-1.8-3.9-4-5c-11.1-6-18.8-10-32.5-16.1
	C455,116.7,454.5,116.5,454.1,116.5z M369.6,164.1c-10.4,0.3-20.2,3.4-29.2,9.2c-9.6,6.3-14.7,15.7-14.7,27.3
	c0,12.6,7.2,28.3,21.4,46.7c6.2,7.7,12.5,15.4,18.7,23.2l18,22.3c0,0,0.1,0.1,0.1,0.2l0.2,0.3c0.8,1,1.7,2.1,2.5,3.1l0.4,0.6
	c13.7,19.8,20.7,38.4,20.7,55.4c0,1.4-0.1,2.9-0.2,4.3l-0.1,1.1c-0.1,1-0.2,2-0.3,3.1l0,0.2c-0.1,0.5-0.1,0.9-0.2,1.4
	c-0.1,0.7-0.2,1.3-0.3,2c-0.4,2.4-1.1,5-2,7.7c-0.2,0.7,0.6,1.1,1.2,1.5c1.1,0.7,8.9,5.3,17,8c0.7,0.2,0.9,0.2,1.1-0.2
	c1.7-3.9,3-7.8,4-11.6c0-0.1,0-0.2,0.1-0.3c2.3-8.4,3.4-17,3.4-25.7c0-14.8-3.2-29-9.4-42.4c-3.2-6.9-7.7-14.4-13.5-22.5
	c-0.9-1.2-1.7-2.4-2.7-3.6c-0.2-0.3-0.5-0.6-0.7-1l-0.7-0.9c-0.9-1.2-1.9-2.4-2.9-3.6c-0.5-0.7-1-1.3-1.5-2
	c-0.7-0.8-1.4-1.7-2.1-2.5l-1.5-1.8c-0.9-1-1.8-2.1-2.7-3.2l-3.8-4.5c-5.4-6.4-10.8-12.9-16.1-19.3c-15.1-19.1-22.9-33.5-23.4-42.6
	c-0.3-5.3,1.5-9.4,5.5-12.5c4.3-3.4,8.6-4.7,14.9-4.7c3.9,0,8.2,2.2,11.2,5.4c2.8,3.5,4.1,6.6,4.1,9.6v0.4c0,3,0.1,9.2-6.6,14.1
	c-0.3,0.2-0.4,0.5-0.3,0.9c0.1,0.3,0.4,0.6,0.7,0.6c3.2,0.4,6.6,0.6,10,0.6c12.5,0,19-5.3,19.1-15.9c0.1-5.1-1.6-12.7-10.8-19.4
	c-7-5.2-16-8.5-24.1-8.9C372.6,164.1,371.1,164.1,369.6,164.1L369.6,164.1z M422.5,252.9c-4.6,0-7.7,0.3-7.8,0.3
	c-0.2,0-4.1,0.2-10.1,1.4c-2.8,0.5-5,1-7.7,1.7c-1,0.3-0.3,1.3,0.2,2c0.9,1,6.3,7.7,7.1,8.5c0.8,0.7,0.9,1.4,2.3,1.2
	c1.5-0.4,3-0.8,4.4-1.1c2.3-0.4,4.6-0.6,7-0.8c0.5,0,0.9,0,1.3,0c7.6-0.2,13,1,13.1,1c15.7,2.6,17.2,15.7,17.2,16.2l0,0.4
	c0.1,3,0.3,9.2-6.3,14.3c-0.3,0.2-0.4,0.6-0.3,0.9c0.1,0.3,0.4,0.6,0.7,0.6c2.5,0.3,5.2,0.4,7.8,0.4c0.7,0,1.4,0,2.2,0
	c6.2-0.2,10.9-1.6,14.1-4.3c3.2-2.7,4.7-6.8,4.6-12c0-0.2,0-18.9-27-27.5C437.1,253.4,428.4,252.9,422.5,252.9z M357.3,281
	c-3.1,4.2-5.1,8.1-6.5,11c-0.3,0.6-0.5,1.2-0.8,1.7c-0.1,0.3-0.3,0.6-0.4,0.9c0,0,0,0.1,0,0.2c-3.6,8.8-5.3,18.9-5,29.9
	c0,0.3,1.3,31.2,23.9,52.4c6.1,5.7,12.8,10.5,20,14.2c1.4,0.7,2.7,1.4,4.1,2c5.6,2.6,11.5,4.5,17.6,5.8c1.8,0.4,3.5,0.7,4.9,0.9
	c3.9,0.6,7.7,0.9,11.3,0.9c3.2,0,5-0.2,5-0.3c27.9-1,40.3-12.8,43.2-19.6c0.2-0.4,0-0.7-0.2-1c-0.3-0.2-0.7-0.3-1,0
	c-8.5,5.8-18.7,8.7-30.2,8.7c-6.8,0-13.8-1-20.8-3.1c-1.6-0.5-3-0.9-4.2-1.4c-2.1-0.8-4-1.6-6-2.6c-3.6-1.8-7.2-4.1-10.6-6.6
	c-1.3-1-2.5-2-3.7-3c-14.1-12.5-19.8-27.5-19.8-27.7c-3.9-9.6-6.2-17.8-6.1-29.1c0.1-4.3,0.6-8.5,1.6-12.7c0,0,0,0,0,0
	c0.1-0.3,0.3-1.4,0.3-1.4c0.1-0.6-0.1-1-0.5-1.4c-0.9-1-13.3-16.1-14.1-16.9C358.7,281.9,358.2,280.8,357.3,281L357.3,281z
	 M388.1,404.5c-0.4,0.1-0.6,0.3-1.1,0.9c-1.4,1.8-2.8,3.6-4.3,5.5c-14.4,16.9-32.8,31.3-54.9,42.9c-0.4,0.2-0.5,0.6-0.4,1
	c0.1,0.3,0.4,0.6,0.8,0.6h0.1c24.8-4,46.5-14.3,64.5-30.8c0.1-0.1,0.2-0.2,0.3-0.3l0.2-0.3c2.5-2.3,4.7-4.4,6.7-6.6
	c1.3-1.2,3.1-3.5,5.7-6.6c0.3-0.4,0-0.7-0.3-0.8c-8.5-1.6-14.5-4.6-15.8-5.1C388.9,404.6,388.5,404.5,388.1,404.5z"/>
<path id="Light_Blue" class="st3" d="M191.4,153.7c-36.9,9.9-71.6,24.8-103.1,43.8c-4.6,19.1-7,35.5-7.2,52.1
	c41.6-28,89.9-48.3,142.5-58.7C212.4,177.5,201.7,165.1,191.4,153.7z M245.5,217.2c-60.6,9.6-116,32.6-162.1,65.4
	c1.4,9.4,3.3,19.4,5.8,30.3c0.8,3.4,1.7,6.8,2.6,10.2c51.2-36.6,114.9-60.8,184.9-67.1C265.9,242.2,255.5,229.3,245.5,217.2
	L245.5,217.2z M299.7,285.5c-75.2,3.5-143.8,28-197.6,66.6c4.7,11.2,10.3,22.2,16.6,32.9c49.8-33.5,112.4-54.9,181-58.9V285.5z
	 M299.7,358.9c-61.7,4.4-118.1,23.3-163.9,52.3c7,9.6,14.6,19,22.9,28.3c40.4-22.3,88.6-37.1,141-41.4
	C299.7,398.1,299.7,358.9,299.7,358.9z M299.7,432.5c-42.7,4.2-82.4,15.4-116.9,32c10,9.5,20.2,18.2,30.2,26.1
	c26.5-10,55.7-17.1,86.7-20.4V432.5z M299.7,506.3c-17.7,2.2-34.8,5.6-51,10c23.2,15.3,42.1,25.1,51,29.4V506.3z"/>
</svg>
