<svg version="1.1" id="Layer_1" xmlns="http://www.w3.org/2000/svg" xmlns:xlink="http://www.w3.org/1999/xlink" x="0px" y="0px"
	 viewBox="0 0 600 600" style="enable-background:new 0 0 600 600;" xml:space="preserve">
<style type="text/css">
	.st0{fill:#AEACAD;}
	.st1{fill:#00245E;}
	.st2{fill:#9DC2EA;}
	.st3{fill:#FFFFFF;}
</style>
<path id="Gray_Outline" class="st0" d="M300,0l-6.1,10.2L248.6,86l-19.1-31.9l-6.1-10.2l-6.1,10.2L71.9,297.5l-2.2,3.6l2.2,3.6
	l143.4,239.9l6.1,10.2l6.1-10.2l19.7-33l46.7,78.1L300,600l6.1-10.2l46.7-78.1l19.7,33l6.1,10.2l6.1-10.2L528,304.8l2.2-3.6
	l-2.2-3.6L382.6,54.1l-6.1-10.2l-6.1,10.2l-19,31.9l-45.3-75.8L300,0L300,0z M300,13.8l51.4,86l25.1-42L522,301.1L378.6,541
	l-25.8-43.2L300,586.2l-52.8-88.3L221.4,541L78,301.1L223.5,57.7l25.1,42L300,13.8L300,13.8z"/>
<path id="Dark_Blue" class="st1" d="M247.2,497.9l52.8,88.3l52.8-88.3l25.8,43.2L522,301.1L376.5,57.8l-25.1,42l-51.4-86l-51.4,86
	l-25.1-42L78,301.1L221.4,541L247.2,497.9L247.2,497.9z"/>
<path id="Light_Blue" class="st2" d="M395.4,342.4L300,502.1l-95.4-159.7h-32.3L300,556l127.7-213.6H395.4L395.4,342.4z M221.4,457
	L153,342.4h-32.3l100.7,168.5l22.4-37.5l-16.1-27L221.4,457L221.4,457z M447.1,342.4L378.6,457l-6.3-10.5l-16.1,27l22.4,37.5
	l100.7-168.5L447.1,342.4L447.1,342.4z"/>
<path id="White" class="st3" d="M376.5,87.9l-21.8,36.5l15.7,26.3l6.1-10.3l71.4,119.4h31.4L376.5,87.9L376.5,87.9z M120.7,259.8
	h31.4l71.4-119.4l6.1,10.2l15.7-26.3l-21.8-36.5L120.7,259.8L120.7,259.8z M225.4,221.3L300,96.5l74.6,124.8H406L300,44L194,221.3
	H225.4z"/>
<path id="White_1_" class="st3" d="M105.4,278.2h11l7.3,29.3h0.1l9.6-29.3h9.4l9.5,30.1h0.1l7.7-30.1h10.2l-13.3,45.7h-9l-10.1-31.6
	h-0.1l-10.1,31.6h-8.6L105.4,278.2L105.4,278.2z M175,278.2H185v17h19.5v-17h10.1v45.7h-10.1v-19.7H185v19.7H175V278.2z
	 M225.6,278.2h10v45.7h-10V278.2z M256.2,287.1h-13v-8.9h36.1v8.9h-13v36.8h-10.1V287.1z M287.1,278.2h31v9.3h-21v8.5h15.5v9.3
	h-15.5v9.3h22.1v9.3h-32.2L287.1,278.2L287.1,278.2z M355.9,290.1c-2-2.4-4.9-3.7-8.6-3.7c-7.6,0-13.2,6.2-13.2,14.7
	c0,8.5,5.6,14.7,12.9,14.7c4.1,0,7.4-1.8,9.4-4.9l8.4,6.3c-3.8,5.4-10.3,7.9-16.5,7.9c-14.3,0-24.6-9.3-24.6-24
	c0-14.6,10.4-24,24.6-24c5.1,0,11.5,1.7,15.4,6.7L355.9,290.1L355.9,290.1z M389.3,291.5l-5.5,14.2h11.2L389.3,291.5z M385.4,278.2
	h8.3l19.9,45.7h-11.4l-3.9-9.7h-17.7l-3.8,9.7h-11.1L385.4,278.2z M428.2,297.6h6.7c3.5,0,7.1-1.2,7.1-5.5c0-4.7-4.8-5.4-8.7-5.4
	h-5.2L428.2,297.6L428.2,297.6z M418.1,278.2h17c9.5,0,17.3,3,17.3,13.9c0,10.7-7.3,14-16.9,14h-7.4v17.8h-10L418.1,278.2
	L418.1,278.2z M482.6,289.4c-1.6-2.1-4.8-3-7.3-3c-2.8,0-6.8,1.3-6.8,4.7c0,8.3,21,3,21,19c0,10.2-8.2,15-17.6,15
	c-5.9,0-11-1.7-15.4-5.7l7.2-7.9c2.1,2.7,5.4,4.3,8.8,4.3c3.3,0,7-1.6,7-4.8c0-8.4-21.4-3.9-21.4-19.1c0-9.7,8.5-14.8,17.4-14.8
	c5.2,0,10.1,1.4,14,4.8L482.6,289.4L482.6,289.4z M263.1,342.2h30.6v9.3h-20.6v9.3h14.7v9.3h-14.7v17.8h-10.1V342.2z M327.5,354
	c-2-2.4-4.9-3.7-8.6-3.7c-7.6,0-13.2,6.2-13.2,14.7s5.6,14.7,12.9,14.7c4.1,0,7.4-1.8,9.4-4.9l8.4,6.3c-3.8,5.4-10.3,7.9-16.5,7.9
	c-14.3,0-24.6-9.4-24.6-24c0-14.6,10.4-24,24.6-24c5.1,0,11.5,1.7,15.4,6.7L327.5,354L327.5,354z M183,233.9h6.6L196,251h0.1
	l6.6-17.1h6.1L198,260h-4.6L183,233.9z M218.3,241.5l-3.2,8.1h6.4L218.3,241.5z M216.1,233.9h4.8l11.3,26.1h-6.5l-2.3-5.5h-10.1
	l-2.2,5.5h-6.3L216.1,233.9L216.1,233.9z M235.3,233.9h7.8l11.1,18.1h0.1v-18.1h5.7V260h-7.5l-11.4-18.6h-0.1V260h-5.7V233.9z
	 M282.7,240.7c-1.1-1.4-2.8-2.1-4.9-2.1c-4.3,0-7.6,3.5-7.6,8.4s3.2,8.4,7.4,8.4c2.3,0,4.2-1,5.4-2.8l4.8,3.6
	c-2.2,3.1-5.9,4.5-9.4,4.5c-8.1,0-14.1-5.3-14.1-13.7s5.9-13.7,14.1-13.7c2.9,0,6.6,1,8.8,3.8L282.7,240.7L282.7,240.7z
	 M303.7,255.4c4.9,0,8.1-3.5,8.1-8.4s-3.2-8.4-8.1-8.4c-4.9,0-8.1,3.5-8.1,8.4S298.8,255.4,303.7,255.4 M303.7,233.2
	c8.1,0,14.1,5.3,14.1,13.7s-5.9,13.7-14.1,13.7c-8.2,0-14.1-5.3-14.1-13.7S295.5,233.2,303.7,233.2 M344.6,249.9
	c0,6.2-3.8,10.7-11,10.7c-7.3,0-11-4.6-11-10.7v-16h5.8v15.8c0,3.2,2.2,5.6,5.3,5.6c3,0,5.2-2.4,5.2-5.6v-15.8h5.8V249.9z
	 M347.8,233.9h6.6l6.5,17.1h0.1l6.6-17.1h6.1L362.8,260h-4.6L347.8,233.9z M377.1,233.9h17.7v5.3h-12v4.9h11.3v5.3h-11.3v5.3h12.6
	v5.3h-18.4L377.1,233.9L377.1,233.9z M406.3,244.7h3.4c2.1,0,4.8-0.1,4.8-2.9c0-2.6-2.4-3-4.5-3h-3.8V244.7z M400.6,233.9h10.1
	c5.3,0,9.8,1.8,9.8,7.9c0,3.6-2,6.5-5.6,7.2l6.6,11h-6.9l-5.5-10.4h-2.8V260h-5.7V233.9z"/>
</svg>
