<svg version="1.1" id="Layer_1" xmlns="http://www.w3.org/2000/svg" xmlns:xlink="http://www.w3.org/1999/xlink" x="0px" y="0px"
	 viewBox="0 0 600 600" style="enable-background:new 0 0 600 600;" xml:space="preserve">
<style type="text/css">
	.st0{fill:#FFFFFF;}
</style>
<path id="White_1_" d="M599.3,333.4c-2.4-14.8-12.2-36.5-44.9-56.1c-2.2-1.3-4.5-2.6-6.9-3.9c6.1-2.1,12.4-4.2,12.4-4.2l-36.2-14.1
	c-3.1-1.2-6.4-2.3-9.6-3.4c2.4-2.4,4.9-5,4.9-5l-27.8-3.9c-12-1.7-21.5-2.1-28.7-2c-0.1-1.2-0.2-2.2-0.3-3.2l-4.6-34.8
	c0,0-10.7,14.7-11.8,16.1c-2.3-3.8-4.9-7.4-7.8-10.7l-30-33.9c0,0,1.2,10,2.2,17.9c-9.7-6.8-20.4-12.8-32.2-17.9
	c-48.2-20.7-109.2-25-167.2-11.8c-48.6,11-118.7,39.7-177,114L0,319.6l50.6-20.2c0.4-0.2,39.5-15.4,71-19.8
	c11.8-1.7,20.7-1.8,13.4,14.3c-5.8,12.7-18.8,31.2-19,31.4l-25.3,36.9l42.3-14.7c20.3-7.1,38.6-10.6,47.8-10.9
	c3.3,0.1,3.9,2.2,2.9,4.6c-0.3,0.8-0.5,1.3-2.8,4.8l-26.5,37.8l43.5-15.6c31.6-11.3,73-18.8,87.9-13.1c1.2,0.5,5.1,2.5,1.2,8.2
	l-17,27.2c0,0,25.2-3.8,28.8-4.4c2,24.8,14.4,38.3,16,39.9l18.3,18.8l6.4-25.4c4.6-18.3,13.3-28.3,21.1-33.7l1.5,10.5l17-6.1
	c14.3-5.2,25.6-11.4,33.7-18.4c10.8-0.9,37.1-2.4,62.3,0.1c43.5,4.3,72.7-1.5,80.6-3.4c10.6-2.5,19.5,2,19.6,2.1l12.9,7l7-13.1
	c0.8-1.6,4.8-9.8,4.8-21.9C600,339.4,599.8,336.4,599.3,333.4"/>
<path id="Gold_1_" class="st0" d="M593.2,335.9c-2.2-13.1-11-32.5-41.1-50.5c-8-4.8-16.8-8.9-25.6-12.4l10.6-3.6l-14.6-5.7
	c-7.2-2.8-14.9-5.2-22.7-7c1.5-1.5,3.1-3.2,3.1-3.2l-11.2-1.6c-17.3-2.4-29.2-2.1-36.2-1.5c0.1-1.5,0.1-3.1,0.1-4.7
	c0-2.3-0.1-4.5-0.3-6.3l-1.9-14c0,0-6.8,9.3-7.8,10.7c-2.3-6.3-5.9-14-12.7-21.7l-12.1-13.7l1.4,11.4
	c-10.9-10.1-25.9-20.7-46.6-29.6c-46.8-20.1-106.2-24.2-162.9-11.4c-47.5,10.9-116.1,39-173.1,111.7l-14.4,18.3l21.6-8.6
	c0.4-0.2,40.7-16.1,73.4-20.5c12.8-1.7,21.7-0.2,24.9,4.3c3,4.2,2.1,12.5-2.6,22.2c-6.4,13.3-19.6,32.5-19.7,32.7L112,347l18.1-6.3
	c23.8-8.3,53.8-14.4,60.8-9.9c1.6,1.1,2.5,2.3,2.8,4c1.1,5.8-3.9,14.6-5.7,17.2l-11.3,16.2l18.6-6.7c29.7-10.7,83-22.9,99.5-10.3
	c7.6,5.8,0.5,17.4,0.2,17.9l-7.3,11.6l13.6-2.1c0,0,3.3-0.5,6.6-1c0,1.1-0.1,2.1-0.1,3.2c0,26.3,13.3,40.2,13.9,40.9l7.8,8l2.8-10.9
	c7.7-30.6,26-41.2,36.1-44.8c0.3,2,1.7,11.9,1.7,11.9l7.3-2.6c17.8-6.4,27.8-13.5,33.3-18.8c8.2-0.7,38.2-3,67-0.1
	c42.4,4.2,70.6-1.4,78.3-3.2c14.1-3.3,25.5,2.8,25.6,2.8l5.6,3l3-5.6c0.2-0.4,3.8-7.4,3.8-18C593.8,341.2,593.6,338.6,593.2,335.9"
	/>
<path id="Black" d="M548.4,291.8c-12.6-8.9-29.5-15.3-45.9-20c6.8-2.2,13.7-2.1,13.7-2.1c-10.5-4-21.5-6.5-31.7-8.1l3.8-3.4
	c-18.7-3.2-31.7-2.9-39.5-2.1c1-3.8,1.8-9.7,0.8-17.5c0,0-2.3,6.7-7.8,10.9c-0.7-8.7-3.5-21.4-13-30l1.8,15.4
	c-8.4-12.6-24.3-28.7-54.3-42.7c-81.7-38.2-225.8-23.7-304.8,78.4c0,0,30.7-15.4,73.3-16.4c22.3-0.5,27.7,12,19.6,33
	c-8.2,21.2-22.5,39.7-22.5,39.7s96.4-34.2,66,13.3c0,0,72.8-21.8,94.6,3.8c10.1,11.9-1.7,28.5-1.7,28.5l20.6-4.5
	c-6.7,26.2,5,43,5,43c8.5-34.3,38.2-43.4,48.7-45.1l2.3,9.3c17.6-6.4,25.9-13.2,30.6-18.7c37.3-5.9,62.7-0.9,91.4,0.7
	c41.9,2.3,63.6-5,70.5-5c5.1,0,11.1,4.5,11.1,4.5S598.5,327.3,548.4,291.8"/>
<path id="Purple" d="M270.4,221L270.4,221c9.8,0.1,13.8,5,8.6,16.1c-0.7,1.4-1.3,2.6-2.1,3.7c-3,0.9-6.4,1.4-10,1.4h-7.5
	C264.1,231.5,267.8,224.9,270.4,221z M277,240.8L277,240.8L277,240.8L277,240.8z M250.4,288.2c2.3,0,5.1-0.3,7.9-1
	c2.4-2,4.5-4.7,6.1-8.1c6.2-13.4,0.7-19-9.3-19h-4.2c-6.9,14.7-11.2,28.1-11.2,28.1H250.4z"/>
<path id="White" class="st0" d="M293.7,192.7c-3.9-0.4-8.1-0.6-12.6-0.7l0,0c-42.7-0.4-105.3,15.7-133.7,37.8
	c0,0,48.6-10.3,98.6-12.7c-7.4,2.5-16.7,6.9-22,13.3c-8.8,8.8-22,26.7-36.6,77.8c0,0,0.8-0.1,2.1-0.3c6.3-0.8,25.1-3.1,36.3-3.6
	l18.8-1.1c2,0,4.4-0.1,6.5-0.2c0.2-0.2,1.4-1.2,1.9-1.5c0.4-0.3,0.9-0.6,1.3-0.9c0.5-0.3,2.5-1.6,2.9-1.9c0.5-0.3,1.1-0.7,1.7-1
	c0.5-0.3,0.9-0.5,1.4-0.8c0.6-0.4,1.2-0.7,1.8-1.1c0.5-0.3,0.9-0.5,1.4-0.8c13-7.3,28.8-14,46.6-18.3c0.6-1,1.2-2.1,1.7-3.2
	c6-12.9-3.5-25.8-20.2-27.9c16.1-3.4,33.3-14.1,36.8-21.9C332.9,214,335.7,197,293.7,192.7z M275.4,273.7c-3.8,8.1-10.7,12-17,13.5
	l0,0c-2.8,0.7-5.6,1-7.9,1h-10.7c0,0,4.3-13.4,11.2-28.1l0,0c0.9-1.8,1.7-3.6,2.7-5.4l0,0h12.4C276.1,254.6,281.6,260.2,275.4,273.7
	z M289.9,231.7c-2.3,4-6.9,7.3-13,9.1l0,0c-3,0.9-6.4,1.4-10,1.4h-7.5c4.7-10.7,8.4-17.3,11-21.2l0,0l0,0c2.7-4,4.1-5.2,4.1-5.2h8.4
	C291.1,216.6,295,222.9,289.9,231.7z"/>
<path id="Gold" d="M277.1,198.3c-6.2,0-13.8,0.4-21.9,1.5c-8.6,1.2-50.6,5.4-86.3,22.9c31.2-7.6,68.2-10.4,91.5-11.2
	c9.8-0.3,20.6,0,20.6,0c7,0,13.5,2.1,16,6.1c2.6,4.2,3.3,9.3-1.6,15.5c-2.7,3.4-5.8,7-14.9,10.7l10.5-2.2
	c15.7-3.3,29.9-12.1,33.1-19c2.4-5,2.5-9,0.6-12.1c-3.9-6.4-13.5-10.3-30.5-11.1C294.2,199.2,287.5,198.3,277.1,198.3L277.1,198.3z
	 M263,219.9c-4.8,0.1-20.7,2.4-33.2,14.3c-11.6,10.2-24,36.8-34,68.4c17.1-1.8,32.6-2.6,32.6-2.6l16.2-0.7c4.3,0,8.8-0.2,13.3-0.7
	c12.5-7.7,28-15,45.8-20c1.1-1.5,2.1-3.1,2.9-4.8c1.8-3.8,2-8.6,0.7-12.4c-1.9-5.7-5.7-9.5-17.8-12.4c-15.9-3.7-39-2.1-39-2.1
	c5.3-13,9.3-20.5,13.3-27.1C263.6,219.9,263.3,219.9,263,219.9L263,219.9z M249,250.2h17.3c8.9,0,13,3.7,14.9,6.7
	c2.9,4.8,2.4,11.3-1.2,19.4c-7,15.7-24,17.1-29.1,17.1l-19.6,0.7C239.6,267.3,249,250.2,249,250.2L249,250.2z"/>
<path id="Eye_White" class="st0" d="M391.2,250.7c-1.3,0-2.6,0.2-3.9,0.6c-5.4,1.8-8.3,7-6.3,11.6c1.2,2.9,3.9,4.8,7.1,5.5
	c-1.6-1-2.8-2.4-3.6-4.1c-2-4.6,0.9-9.8,6.3-11.6c2.1-0.7,4.3-0.8,6.3-0.3C395.4,251.3,393.3,250.7,391.2,250.7L391.2,250.7z"/>
<path id="Eye_Black" d="M395.3,254.4c2.9,0.1,5.6,1.8,6.7,4.6c1.4,3.7-0.6,7.8-4.5,9.2c-3.9,1.4-8.2-0.5-9.6-4.2s0.6-7.8,4.5-9.2
	C393.3,254.5,394.3,254.4,395.3,254.4L395.3,254.4z"/>
<path id="Beak_White" class="st0" d="M456.1,273l13,10.5l-24.1-2.1l19.1,13.8c-20.5-6.7-75.7-24.8-121.5-13.4
	c0,0,50.2-0.6,73.1,13.1c-84.8-13.8-129,15.6-129,15.6c47.7-13.6,85.8-9.9,98.3-8c-20.1,4.8,3.6,19.5,18,27.2
	c1.6,4,5.6,12.3,1.7,19.2c0,0,4.3-5.5,7.5-13.7l11.7,9.4c35-4.3,60.9,3.1,89.9,2.9c20.9-0.1,36.5-2,48.8-4.9
	c-45.3-19.4-134.1-27.7-147.9-26.6c0,0-7.5,2.1,1.1,10.4c-12.1-4.8-24.2-13.8-25-18.4c-0.9-4.9,8-6.3,28.9-3.8
	c78.4,9.3,146.2,22.4,155.3,41.6c0,0,4.8-24-34.3-46.9C507.5,276.6,456.1,273,456.1,273L456.1,273z"/>
</svg>
