<svg version="1.1" id="Layer_1" xmlns="http://www.w3.org/2000/svg" xmlns:xlink="http://www.w3.org/1999/xlink" x="0px" y="0px"
	 viewBox="0 0 600 600" style="enable-background:new 0 0 600 600;" xml:space="preserve">
<style type="text/css">
	.st0{fill:#FFFFFF;}
</style>
<path id="White" class="st0" d="M598.9,92.7c-12.3-47.1-58.1-33.1-86.2-32.1c-7-7.8-14.7-15-22.7-21.4c0.7-12.4-11-12.7-21.4-11.7
	c-1.8-5.3-9.5-7.8-13.6-7.6C407.3-7.5,350.3,3.1,297.5,24.3c-49.9-7.8-103.4-40.6-149.7-6.1c-8.8-2.1-16.4-5.1-21,3.8
	c-5.5,0.6-10,5.3-10,10.8v-0.1c-4.8,1.2-8.5,3.3-11.5,5.3c-19-5-40.1-1.9-57.5,7.3c-2.5,1.8-6.1,0.6-8.7,2.6
	c-4.1,2.4-7.8,6-12.4,7.7c-1.5,0.8-2.7,1.3-3.9,2.3c-0.1,0-0.1,0.1-0.1,0.1c-2.8,1.5-5,3.9-7.3,5.9C10,70.1,5,77.1,2.5,85
	c-9.9,30.9,11.2,55.3,38.6,66.7c3.8,18.5-35.6,51.9-9.7,63.7c4.6,21.8-10.7,57.1,6.2,78.2c-0.2,0.4,1.4,10.3,0.7,10.4
	c-2.3,4.8-4,9.6-5,14.7c-0.1,2.4-0.6,5.2,0,7.6c0.3,1.9,0.7,4.1,1.4,5.9s1.6,4.1,2.6,5.6c0.5,1,1.6,2.2,2.2,3.1
	c3.8,4.3,8,8.8,12.9,11.9c5.9,28.3,13.8,62.8,34.7,69.9c8-1.2,20-5.4,25.2,0.8c4.1,7.2-3.8,14.6,3.7,20.6
	c36.7,33.1,57.9,38.1,72,41.2c51.6,14.2,24,107.8,104.2,111.1c14.8,1,36.5,2.4,51.8-4.4c-0.3,0.1-0.4,0.1-0.7,0.3
	c1-0.5,2.2-0.9,3.3-1.4c-0.3,0.1-0.5,0.3-0.9,0.4c27.3-12.3,39.4-53.5,41.6-78.5c23.1-9.6,45.3-61,66.2-72.8
	c13.6-6.1,29.7-6.9,44.9-12.7c-0.4,0.1-0.8,0.3-1.2,0.4c1.8-0.2,3.3-1.6,4.8-1.7c3.4,1.4,7.5,1.1,10.5-1.1c0,0,0.1,0,0.1-0.1
	c7-4.6,11-10.7,13.3-16.3c3.2-1.6,5.9-4.5,7.8-7.6c0,0,0,0.1-0.1,0.1c0.3-0.5,0.7-1.2,0.9-1.7c3.9-1.9,5.5-5.9,8-9.4
	c3.5-3,10.7-11.8,11.9-23.6c1.8-14,12-23.3,15.9-36.4c5.1-16.1,1.9-33.2-2.7-48.9c12-44.6-3.7-103.4-13.2-122.7
	c5.7-2.2,11.7-5.3,16.7-8.5c-0.1,0,0,0,0,0c2.6-1.7,5.6-3.7,8-6l-0.3,0.3c1.2-1.1,2.4-2.3,3.7-3.7l-0.3,0.3c1.2-1.1,2.2-2.5,3.3-3.8
	c0-0.1,0.1-0.1,0.1-0.3c6.8-7.2,6.2-17.2,10.6-25.2c4-4.8,5-12.1,2.9-18.5l0,0L598.9,92.7z"/>
<path id="Orange" class="st0" d="M583.3,112.4c5.5-6.5,8.9-14.1,4.8-20.2c-1-6.1-27.1-13.6-59.7-16.9c-12-1.2-23.2-1.7-32.7-1.6
	v-0.1c0-17.5-24.5-32.6-60.3-40.1c-12.5-5-29.9-8.2-49-8.2c-17.6,0-33.6,2.6-45.8,7c-13.1,2.3-25,5.7-34.9,9.8
	c-3-0.2-5.9-0.3-8.9-0.3c-12.1-7.8-33.1-14.1-57.4-16.3c-28-2.6-52.7,0.9-64.9,8.2c-25.9,2.2-44.9,9.4-44.9,17.9v0.1
	c-0.6-0.1-1.3-0.1-1.9-0.1c-6.5,0-12.4,2.6-16.6,6.8c-7.7-3.1-18.9-5.1-31.3-5.1c-16.1,0-30,3.3-37.1,8.1c-1.6,0.7-3.1,1.4-4.5,2.1
	c-5.6,7.9-9.2,14.8-11.3,20.8c-7.1,5.5-11.2,12.3-11.2,19.6c0,18.6,26.8,33.7,59.9,33.7c2.4,0,4.8-0.1,7.2-0.2
	c-6.6,13.9-9.3,29.7-9.7,48.4c-9.7,24.4-15,50.8-15,78.4c0,2,0,4,0.1,5.9L48.1,289l2.1,16.2c0.1,0.4,0.1,0.7,0.2,1.1
	c0,0.2,0,0.3,0,0.5c0,20.1,5.7,36.4,12.7,36.4c2.9,0,5.5-2.8,7.6-7.4c15.4,42.6,44,79.4,81.3,105.9c-0.3,0.9-0.4,1.9-0.4,2.9
	c0,4.4,2.8,8,6.2,8c2.2,0,4-1.4,5.1-3.6c23.3,14.7,49.6,25.6,77.7,31.6c-2.1,7.7-3.3,15.8-3.3,24.3c0,21.1,7.2,40.2,18.8,54.4
	c-0.5,1.2-0.8,2.4-0.8,3.7c0,11.7,22.6,21.2,50.4,21.2c27.9,0,50.4-9.5,50.4-21.2c0-1.1-0.2-2.2-0.6-3.2
	c11.8-14.2,19.1-33.5,19.1-54.8c0-6.4-0.7-12.5-1.9-18.4c2.7,3.3,6,5.3,9.7,5.3c8.7,0,15.8-11.4,15.8-25.4c0-1.3-0.1-2.7-0.2-4
	c32.3-15.4,60.4-37.7,82-64.9c5.5,4.6,11.4,7.2,17.5,7.2c13.5,0,25.9-12.2,35.3-32.4l4.7,6.1l1.1-3.2l0.1,0.1c0,0.1-0.1,0.1-0.1,0.3
	c1.8-2,3.4-4.8,4-9.8v-0.1l-3-10.9c7.1-22,11.3-49.7,11.3-79.8c0-3.3-0.1-6.6-0.2-9.8c2.6-11.4,4.2-24.6,4.2-38.7
	c0-43.2-14.2-78.2-31.7-78.2c-2.3,0-4.5,0.6-6.6,1.7c-6.7-3.1-12.1-6.8-16.1-11.2L583,112C583.2,112.3,583.3,112.3,583.3,112.4z"/>
<path id="Navy" d="M197.2,14.2c-11.7,0.4-24.4,2.9-39.1,8.6c-2.5,0.9,11.2,8.2,8.6,9.4c-2.6,1.2-30-5.1-30-5.3c0,0,15.3,8.2,13.8,9
	c-1.7,0.9-20.9-3.8-22.7-2.9c-1.8,1,8.6,7.7,6.7,8.7c-1.7,0.9-8.5,0-10.2,1c-8-0.3-11.9,3.7-17.3,7.2c-16.4-6.3-42.4-5-63.1,10.7
	l-0.1,0.1C81,61,110,67.3,130.6,79.3l-3.1-19c7-3.9,10.8-5.9,19.2-8.2c1.4-0.4-4.2-2.7-13.2-4.7c8.6-2.9,25.3,1.7,27.3,1.3
	c2.3-0.5-5.3-3.5-2.9-4c2-0.4,13.2,0.3,17.3,0c14.9-0.4,25.4-1.6,39.7-2.9l-15.1-14c31.6-0.3,64,4.7,97.3,15.1l-0.4,0.8
	c5.6,19,8.2,40.6,2,79.2c43.9-44.9,36.1-15.9,41.5-8.2c20.3,19.8,38.7-33.7,101.2-17.6c-29.2-38.1-72.5-20.9-80.5-18.4
	c-34.7,21.4-53.4-3.3-40.7-22.8c22.4,8.3,49.3,3.4,67.9-9.3c-17.7,1.4-35.2-0.3-52.6-4.8C357.7,26.5,451.3,31,451.3,69.6
	c11.6-2.6,20.5,2,26.6,14c69.8-17.1,83.7,12.1,110.3,8.9c-15.1-42.5-68.5-14-81.8-22.8c-6.8-7.8-15.1-15.9-24.9-23.5
	c-2-1.4-9.7-0.8-11.6-2.2c-2.1-1.4,8.6-4.2,9.4-6c0.1,0.1-19.2,0.8-21.3-0.4c-3.1-0.8,2.1-5.2,0.5-6c-2.9-2.2-15,1.3-17.7-1.4
	c-5.3-3,7.6-3.4,5.1-4.3c-35.7-14.3-83.5-17.3-144.8,9l-0.5,1C257.9,30.5,232.3,13,197.2,14.2L197.2,14.2L197.2,14.2z M277.2,50.9
	c2.2,29.2-7.8,54-29.9,74.2c15.9,11.7,25.3,26,28.3,42.8l19.4,7.7c4.3-15.1,7.7-27.5,4.7-32.5c-5.6-11.9-24.3,27.3-17.5-38.1
	C288.1,80.3,286.4,62.2,277.2,50.9L277.2,50.9z M38.5,63.4c-23.6,3.7-52.8,55.8,13.7,81.3c2.1,31.2-11.2,31.4-18.4,60.1
	c24.8,5.9-6.3,60.9,14.5,84.4l27.5-51.9c-5-60.9-4.8-98.5,29.2-128.1C92.9,88.7,78.1,80.9,60.5,85.6c-19.8,9.4-19.4,25.6-4,41.4
	C36.9,119.4,7.1,108.3,38.5,63.4L38.5,63.4z M495,97.8c-9.9,29.9,3,49.4,38.6,58.7c18.4,43.9,19.8,82.6,4.2,115.9
	c8.6,17.3,9.1,44.2,1.6,80.3l3.7,13.4c11-35.4,32.6-35,9.8-94.8l8.2,3.1c1.2-67.4-7.6-100.2-22.2-120.5
	c30.4-8.7,45.2-22.4,44.9-41.2C575.3,103.6,513.6,117.9,495,97.8L495,97.8L495,97.8z M197.6,101.8c-9.2-0.8-16,1.9-24.7,6.1
	c-36.9,24.4-6.5,70.7-54.9,82.6c-5-31.8,9.3-66.5,21.4-84.1c-10.8,0.4-20.2,6.4-27.8,17.3c-2,2.9,5.2,2.3,3.5,6
	c-1.6,3.4,2.3,6-13.4,14.9c-0.9,2.7,6.8,2.1,6,5.1c-1.2,4.6-15.8,10.7-15.4,25.6c14-13,11.6-5.6,7.4,2.7c-0.3,3.4-6.1,13.6-6.4,17.2
	c-0.8,17.1-0.1,36.5,2.1,58l13.2-12.7c0,0-35.7,134.3,103.9,193c3.4,27.5-21,18.5-46.8,0.4c-5.9-5.5-8.6,12.1-9,11.3
	c-2.7-2.1-4.3-21.3-6.9-23.5c-2.3-2-3.1,9.8-5.3,7.8c-2.5-2.1-6.4-18-8.7-20.1c-7.8-7.3-14.5-14.3-19-20c-25.3,5-35-28.6-37.7-63.1
	c-7.4,4.2-10.7,9.9-12.8,14.9c-1.4-6.9-4-18.9,0-27.5c-9.4,2.5-14.7-0.3-15.9-8.2c-9.5,17.6-10,27.1,12.7,42.2
	c4.2,29.2,12.4,51,24.8,65.3c36.1-10.6,40.3,13.8,36.1,24.1c64.3,58.3,74.7,23.1,96.6,60.5c33.1,60.6,17.1,92.7,100,89.5
	c24.4-0.5,40.7-14.5,48.6-41.6c0.3-0.3,0.5-0.4,0.7-0.7c6.7-18.9,7-27.7,7.6-38.4c25.7-5.3,50.1-67.2,73-75.4
	c12.8-6.1,28.8-6.8,44.7-12.7c6.1-1.6,10.8-10.4,12.7-11.3c2-1,4.2-0.4-1,10.2c12.3-7.8,11.2-23.1,12.7-24.3
	c1.8-1.4,0.3,8.9,2.1,7.2c5.9-3.3,4.8-14.2,6.3-15.9c1.6-1.8,0.8,9,2.2,6.9c3-4.3,5.9-9.3,8.6-15c0-0.1,0.1-0.1,0.1-0.3l-9.3-15.8
	c-29.9,2.7-34.4,54.4-83.6,34c-1.4,12.3-4.2,20.9-8.2,26L427,409.8c-4.2,17.9-21,42.1-50.5,73l-6-10.7
	c10.6-30.7,55.6-78.1,27.1-118.9c-2.3,9.8-9.4,13-19.3,10.6v0.1l-17.7-9.5c9.1,9.7,11.9,20.7,8.2,33.2
	c-2.5,13.8-10.2,27.5-21.7,41.9c2.5-33,1-54-4.2-62.9l-11.2,14.5c-1.4-14-3.4-20.2-5.6-18.8l-8.6,6.4l-8.9-3l-5.1,3.4l-5.2-2.3
	l-7.6,3.3l-9.3-8.2c-3,2.6-6.1,9.3-9.3,20.2c-8-3-10.8-17.9-16.8-21.4c-8.2,21-10.8,23.1-8.9,58c-0.3,0.8-0.4,1.6-0.7,2.3
	c-16.3-27.9-21.4-51.2-9.7-68.9c-13.7-9-22.2-21.7-15.4-61.3c-7.7,2.1-7.2-5-0.3-15.8c-11,1.6-10.8-4.2,0.3-17.2
	c-19-4.2,13.4-26.7,25-52.7c-10-1.4-19.8,4.2-35.4,23.9c-12.4,8.7-29.9,7.2-18-15c-6.9-4.8-9.1-9.5-6.5-14.2c2.6,4,7.8,7.3,15.4,9.9
	c-4.2-4.6-7.2-8.6-9.1-12.3c22.2,15.1,35.9,6.8,37.6-16.3c2.9,3.4,5.2,7.7,6.9,13.7c11.6-8.3,21.4-4.4,32.1,16.2
	c10.8-27.3-4.2-34.6-28.4-42.5c9.8-5.3,15.5-3.3,28.7,3.8c-12.1-45.2-52.3-24.1-58.8-40.7c-0.1-12,15.8-14.3,25.8-15.9
	c-17.9-9.1-29.5-13.2-38.6-14l0,0L197.6,101.8z M449.3,116.2c8,9.1-0.1,8.5-8.7,10.6c-19.8-14.6-34.6-12.5-44.2,6.5
	c9.5-1.2,18.1-1,30.8,5.3c0,0.1-0.1,0.3-0.1,0.4c28.7,13.7,27.1,41.7,5.6,34.8c-17.7-23.3-27.1-20.3-32.9-9.7
	c-15.8-3.3-27.7-0.3-37.9,17.1c1.6-18,14-26.2,38.6-22.7c-6.7-29.1-30.4-10-43.3-32.5c-24.3,17.5-25.2,12.7-32,1.6l-23.7,62.2
	c21-21.5,28.4,13.2,39.8,45.6c-0.5-44.4,16.6-49.2,21-41.6c3.4-7.8,7.2-13.4,11.2-17.5c-4.8,5.2-4.6,15,4.7,21.7
	c22.7,11.9,34-14,19-22.7l-9.8,5.1l-3.7-7.7c-3.9-0.4-7.2,0.7-9.5,2.7c16.4-15.3,35.7-3.7,37.3,10.2c0.1,6.1-5,13.8-15,23.2
	c19.3-9.8,29.1-17,28.8-21.9c24.3,22.4,21.4,29.9-34.8,37.9c30.9,28.6,54.6,32,71.3,9.9c7.4,17.9-55,112.1-82.4,54.9
	c4.3,18.1,5.1,36.5,2.2,54.9c15.4-3.4,21.1-4.3,30.1-0.8c10.7,11,15.1,27.3,13.3,48.9c5.1-5.1,12.4-21.7,18-25.2
	c3.1-2-2.7,13,0.5,11.3c3.4-1.7,17.7-23,21.1-24.4c5.9-2.5-3.4,15.8,2.2,13.6c0.5,0.5,16.8-27.1,23.9-34.2
	c11.3,9.3-5.5,25.3-2.7,23.9c9.5-5.1,25.6-14.5,28.4-24.4c1.3-24.4,6.4-39.2,15.5-44.5l-19-28.6c-6.3,25.8-17.7,40-34.2,42.4
	C497.8,270.4,541,142.4,449.3,116.2L449.3,116.2L449.3,116.2z M210.7,170.8c2,0,4,0.1,6.3,0.4c1.3,0.7,2.6,1.3,3.9,2.1l-6.7,7.2
	L210.7,170.8L210.7,170.8z M138.3,219.1c5.6,29.2,24.3,48.8,55.9,58.8c-5.6,16.8,0.8,58.6,12.5,96.1c-32-6.3-19.6-54-38.2-71.2
	c-6.8-2.2-3.1,22.2-4.7,21.1c-9.9-6.5-10.4-31-12.1-32.5c-2.1-1.8-2.1,8.3-3.9,6.5c-2-2-5.6-15.9-7.3-17.9c-1.6-2-3.9,12.5-5.1,10.4
	c-6.1-5.2-0.8-19.7-1.6-21.3c-0.9-2.1-4,7-4.7,4.8c-0.4-1.7,1.4-14.7,1.2-16.4C128.6,246.7,130.8,233.9,138.3,219.1L138.3,219.1
	L138.3,219.1z M255.9,238.3c-13,13.8-38.2,62.6-15.1,103.8l14.3,4l-8.9,6.8c33.1-5,102.6,0,102.6,0l-9.9-7.8
	c19.7-16,24.1-29.5,13.3-40.4l-10.7,5.6c4-11.7,27.1-24.4,9-45.8c1.8,14.5-6.7,25-25,32l-11.7,24.4c4.2-21.5-18.8-11.2-27.8-12
	l5.1-12.1c-6.8-7.6-20.3,1.4-26.5-1.4c-11.2-5.3-14-12.1-8-20.5l17.2,10c0.9-8.2,5.3-10.7,13.3-7.6c0.3-17.9-7.3-24.3-22.7-19.3
	C250.3,256.3,254.2,247.8,255.9,238.3L255.9,238.3L255.9,238.3z M325.8,254c-4.1-0.7-8.1,2.9-12.5,10.4
	c-4.8,16.4,15.3,21.1,19.7,16.7c4.6-6.7,4.6-13.7,0.4-21.3C330.8,256.3,328.3,254.4,325.8,254L325.8,254L325.8,254z M71.5,260.2
	c-5.5,8.3-3.7,35.1-4.6,52.8C86,290.7,84.7,281.7,71.5,260.2z M273.7,394.5c7.6,0.5,13.8,15.3,19.2,14.3
	c14.5,4.6,23.1-17.2,37.2-7.2c8.9,27.8,9.7,67.7,2.7,110.3c8.6-3.9,16.8-29.2,23.1-50.6c7.3,35.6,3,76.2-25.7,69.6
	c-8.9,4.3-31.3,16.6-55.2,0.3l-0.7-0.4c-25,6.4-31.8-19.3-23.5-54.8l0.4,2c8.2,21.1,3.9,30.4,21.4,37.9l2,8.6l9.9-6.9
	c10.3,6.8,12.1,7,20.3,0l9.9,4.6l15.8-8.9l-12.8-1l-8.6,2l-8.9-5.2c-5,3.7-12,4.6-21.1,2.9c-17.2-39.5-27.4-82.9-8.9-116.7
	C271.4,394.8,272.5,394.5,273.7,394.5L273.7,394.5L273.7,394.5z M267.3,557.6c10.2,13.8,49.6,16,80.3,2.3
	c2.5,10.8-8.1,17.6-31.8,20.2C277.4,583.8,267.7,571,267.3,557.6z"/>
</svg>
