<svg version="1.1" id="Layer_1" xmlns="http://www.w3.org/2000/svg" xmlns:xlink="http://www.w3.org/1999/xlink" x="0px" y="0px"
	 viewBox="0 0 600 600" style="enable-background:new 0 0 600 600;" xml:space="preserve">
<style type="text/css">
	.st0{fill:#FFFFFF;}
</style>
<path id="White_Outline" class="st0" d="M538.4,293.1c-3.2-1.6-2.8-4.5-0.5-6.2c26.9-20,45.3-45.7,45.3-85.2
	c0-46.8-33.6-112.6-164.6-112.6h-338L4.2,222.5h56.1c6.3,0,11.3,5.1,11.3,11.3v133c0,6.3-5.1,11.3-11.3,11.3H0l77.3,132.8H435
	c115.2,0,165-60.1,165-124.7c0-42.7-30.4-77.5-61.3-93.1"/>
<path id="Orange_B" class="st0" d="M338.8,271.3h-55.5V218c0.1-5.6,4.6-10.1,10.2-10.1h45.3c26.7,0,36.4,13.6,36.4,31.2
	C375.1,257.8,365.2,271.3,338.8,271.3L338.8,271.3z M338.8,394.2h-45.3c-5.6,0-10.2-4.6-10.2-10.2v-53.4h55.5
	c26.7,0,36.4,13,36.4,31.2C375.3,380.7,365.4,394.2,338.8,394.2L338.8,394.2z M497.3,297c-4.1-1-3.4-5.9-0.4-7.1
	c36.6-13.9,58.1-38.5,58.1-82c0.5-58.3-51-98.4-134.8-98.4H102l-55.7,98.4h38.3c7.6,0,13.7,6.1,13.7,13.7v158.9
	c0,7.6-6.1,13.7-13.7,13.7H46.7l56.1,98h332c94.9,0,133.8-63,133.8-109.3c0-40.7-30-75.9-71.7-86"/>
<path id="Black_Stripes" d="M401.5,465c-16.4-116.6,20.3-244.2,87.7-344.2c42.1,15.8,66.2,47.2,65.8,87.2c0,1.6,0,3.1-0.1,4.7
	C473.7,277.8,421.6,367.7,401.5,465z M289.8,492.3h41.6c-5.9-32.8-8.8-65.5-9.2-97.4v-0.7h-28.7c-5.6,0-10.2-4.6-10.2-10.2v-53.4
	h41.2c1.7-20.1,4.2-39.7,7.3-58.6c0,0,0-0.3,0.1-0.8h-48.7V218c0.1-5.6,4.6-10.1,10.2-10.1h45.3c2.2,0,4.4,0.1,6.4,0.3
	c9.3-37.3,20.6-71.1,31.1-98.6H256.9C212.4,281,257.2,413.4,289.8,492.3z M209.8,464c-58.4-110.4-73.7-236.3-51.9-354.5H102
	l-55.7,98.4h38.3c7.6,0,13.7,6.1,13.7,13.7v121l0.2,0.7C127.2,389.6,168.3,434,209.8,464z M210.3,464.3c-0.1-0.1-0.3-0.2-0.4-0.3
	c0.2,0.3,0.4,0.7,0.5,1L210.3,464.3z"/>
<path id="Outline_1_" d="M420.2,109.5c83.8,0,135.3,40.1,134.8,98.4c0,43.5-21.5,68.1-58.1,82c-3,1.2-4.1,6,0,7
	c41.7,10.1,71.7,45.3,71.7,86c0,46.3-38.9,109.3-133.8,109.3h-332l-56.1-98h37.9c7.6,0,13.7-6.1,13.7-13.7V221.6
	c0-7.6-6.1-13.7-13.7-13.7H46.3l55.7-98.4H420.2 M283.3,271.3h55.5c26.4,0,36.3-13.5,36.4-32.2c0-17.6-9.7-31.2-36.4-31.2h-45.3
	c-5.6,0-10.1,4.5-10.2,10.1V271.3 M293.5,394.2h45.3c26.6,0,36.5-13.5,36.4-32.4c0-18.2-9.7-31.2-36.4-31.2h-55.5V384
	C283.3,389.6,287.9,394.2,293.5,394.2 M420.2,99.5H102h-5.8l-2.9,5.1L37.6,203l-8.4,14.9h17.2h38.3c2.1,0,3.7,1.6,3.7,3.7v158.9
	c0,2.1-1.6,3.7-3.7,3.7H46.7H29.5l8.6,15l56.1,98l2.9,5h5.8h332c57.2,0,91.2-21.9,109.6-40.2c11.2-11.2,20-24.2,25.9-38.7
	c5.4-13.2,8.3-27.2,8.3-40.4c0-21.9-8-43.6-22.6-60.9c-10.7-12.8-24.7-22.9-40.5-29.5c13.5-7.1,24.1-15.8,32.1-26.5
	c11.5-15.4,17.3-34.9,17.3-58c0.2-26.4-9.3-50.1-27.6-68.5c-12.7-12.8-29.2-22.8-49.1-29.6C468.3,103,445.4,99.5,420.2,99.5
	L420.2,99.5z M293.3,218.1c0-0.1,0.1-0.2,0.2-0.2h45.3c23.4,0,26.4,11.3,26.4,21.2c-0.1,11-3.3,22.2-26.4,22.2h-45.5V218.1
	L293.3,218.1z M293.3,340.6h45.5c23.3,0,26.4,10.7,26.4,21.2v0l0,0c0,7.2-1.7,12.6-5.2,16.1c-4.1,4.2-11.3,6.3-21.2,6.3h-45.3
	c-0.1,0-0.2-0.1-0.2-0.2V340.6L293.3,340.6z"/>
</svg>
