<svg version="1.1" id="Layer_1" xmlns="http://www.w3.org/2000/svg" xmlns:xlink="http://www.w3.org/1999/xlink" x="0px" y="0px"
	 viewBox="0 0 600 600" style="enable-background:new 0 0 600 600;" xml:space="preserve">
<style type="text/css">
	.st0{fill:#FFFFFF;}
</style>
<path id="White_Outline" class="st0" d="M592.7,281.5c-0.7-0.6-1.6-1.5-2.7-2.6c-2.9-2.8-6.9-6.7-11.8-10.5
	c-3.8-3.4-7.1-5.7-9.1-7.2c-0.4-0.3-0.8-0.6-1.1-0.8l-0.2-0.2c-1.5-1.2-2.4-2-3-2.4c-1.2-1-2.2-1.8-3.8-2.5
	c-0.3-0.1-0.9-0.6-2.3-1.5l-0.2-0.1c-1.5-0.9-2.5-1.8-3.8-2.9c-1.9-1.7-4.4-3.8-8.2-5.9c-6.6-3.8-6.7-3.9-12.8-11.3l-0.3-0.4
	c-8.9-15.2-22.6-18.3-32.6-20.5l-1.5-0.3c-4.8-1.1-9.1-5.3-10-6.7c-6.5-10.5-16.2-15.8-21.4-18.6c-0.4-0.2-0.8-0.4-1.2-0.7
	c-7-3.8-14.2-5.7-20.5-7.4c-7.7-2.1-13.8-3.7-18.7-8l-0.5-0.5l-0.6-0.4c-18.1-12.8-26.9-13.5-42.1-13.6c-2.5,0-5.1,0-8.1-0.1
	c-7.4-0.2-18.6-5.7-21.4-8c-4.6-3.9-10.2-6.9-16.6-9l-0.2-0.1c-5.9-1.8-10.9-2-14.6-2c-1.8,0-3.6,0.1-5.3,0.1
	c-1.6,0.1-3.1,0.1-4.6,0.1c-5,0-9.6-0.6-16-3.7c-2.9-1.4-5.9-3.3-9.1-5.4c-1.8-1.2-3.7-2.4-5.7-3.5c-3.6-2.6-7.3-4.1-13.7-5.4h-0.2
	c-4.8-0.9-9.6-1.4-14.7-1.4c-5.7,0-11,0.5-16.7,1.1c-1.1,0.1-2.3,0.2-3.4,0.3c-0.2,0-0.3,0-0.5,0c-0.3,0-0.5,0-0.5,0l0,0
	c-0.3-0.1-1.2-0.7-1.9-1.2c-1.3-0.8-2.8-1.8-4.8-2.8l-0.3-0.2c-6.5-3.1-13.1-5.4-19.4-6.8h-0.2h-0.2c-3.6-0.6-7.4-1-11.4-1
	c-6.4,0-13.3,0.8-21.6,2.5c-2.2,0.4-4.5,0.7-7,0.7c-5.8,0-11.9-1.2-18.3-2.4c-7.3-1.4-14.8-2.8-22.9-2.8c-2,0-4,0.1-5.9,0.3
	c-8.1,0.8-17.8,7.8-21.8,15.8l-0.1,0.3c-4.1,8.7-4,14.7-3.5,21.7c0.5,7.2,1.4,10.1,2.7,13.9c0.3,0.7,0.5,1.5,0.8,2.5l1,3.4
	c2.7,9,4.4,14.9,6.9,22c0.8,2.3,1.1,4.4,1.2,5.9c-0.5-0.5-1.1-1.1-1.7-1.7c-3.4-3.5-8.1-8.4-16-10c-1.5-0.3-3.1-0.5-4.7-0.5
	c-7.5,0-14,3.3-19.7,6.2c-2.5,1.3-5.1,2.6-6.9,3.1c0,0-0.1,0-0.1-0.1c-1.5-1.1-3.7-2.7-6.7-4.1c-2.6-1.2-5.3-1.8-8.2-1.8
	c-6.1,0-10.9,2.8-13.1,4.2l-0.3,0.2c-8.9,5.1-10.8,14-12,19.9l-0.1,0.5c-0.9,4.9-1.5,10.3,0,16.7c0.7,3.1,1.5,5.6,2.2,7.6
	c0.5,1.5,1,3.2,1.1,3.8v0.1c0.3,7.4-0.7,12.8-3,15.6c-4.9,6.2-9.1,19.4-9.7,21.2l0,0c-0.5,1.5-0.9,2.8-1.2,3.9
	c-2.6,8.2-2.8,8.8-4.3,18.2l-0.2,1.1c-0.7,4.4-0.9,8.9-1.1,12.8c-0.1,2.1-0.2,4.1-0.3,5.8l0,0c-0.3,3.4,0.9,17.2,1.4,20.2
	c1.3,8.4,2.9,14.2,4.5,20.4c0.3,1.1,0.6,2.2,0.8,3.2c2.7,11,3.5,16.3,3.3,22.9c-0.1,1.7-0.6,3.8-1.1,6.1c-1.5,6.3-4.1,16.8,3.6,25.8
	c5.1,6.1,14.1,10,22.8,10c3.9,0,7.6-0.8,11.1-2.3c2.7-1.2,5-2.4,7.1-3.5c2.9-1.5,5.6-2.9,7-3.1c0.8-0.1,1.5-0.2,2.3-0.2
	c2.6,0,5,0.6,7.6,1.3c2.7,0.7,5.6,1.5,8.8,1.5c0.7,0,1.4,0,2.1-0.1h0.2c3.7-0.5,7.2-1.9,10.7-3.3c1-0.4,2.4-1,3.2-1.3
	c-0.1,0.7-0.3,1.5-0.5,2.3c-0.4,1.8-0.7,3.1-0.9,4c-0.9,2.9-1.8,5.8-2.7,8.6c-2.3,7.1-4.4,13.8-5.7,19.3c-0.2,0.7-0.5,1.8-0.9,3
	c-1.5,5-3.7,12-2.9,19.5c1.1,10.7,7.6,19,18.4,23.2c4.8,1.9,9.7,2.9,15.2,2.9c4.9,0,10.2-0.8,16.7-2.4c3-0.8,4.6-1,7.1-1.4
	c0.9-0.2,2-0.3,3.2-0.5l0,0c0.4,0,0.9,0,1.3,0c1,0,1.9-0.1,2.7-0.1c0.6,0,1.3-0.1,1.9-0.2l5.3-0.3h0.4c3.2-0.4,5.5-0.5,7.4-0.5
	c2.6,0,4.7,0.3,8.5,0.9c0.9,0.1,3.1,0.4,3.1,0.4c1.6,0.2,3.2,0.4,4.8,0.6c5.4,0.7,10.9,1.5,16.9,1.5c2.4,0,4.7-0.1,6.9-0.4
	c5.7-0.6,10.6-1.7,15.2-3.2c5.1-1.6,9.2-3.5,12.8-5.1c5.4-2.5,9.7-4.4,16.9-5.4c2.6-0.4,4.7-0.5,6.3-0.5c1.3,0,2.3,0.1,3.7,0.2
	c1.9,0.2,4.3,0.4,7.5,0.4c1.2,0,2.4,0,3.8-0.1c12.6-0.6,20.8-5.4,25.6-8.3c0.6-0.4,1.2-0.7,1.8-1c2.8-1.5,4.3-2.2,5.9-2.9
	c1.4-0.6,2.8-1.3,4.8-2.3c6.6-3.6,15-4.7,23.9-5.9c5.8-0.8,11.7-1.6,17.9-3.1c6.8-1.7,11.5-4.1,15.7-6.2c3.7-1.9,6.8-3.5,11.5-4.7
	c1.9-0.5,4.5-0.7,7.2-0.9c2-0.2,4.1-0.3,6.3-0.6h0.2c6.6-1,15.9-5.7,21.5-10.9c2.2-2,3.6-3.4,4.7-4.5c1.8-1.8,1.8-1.8,3.9-3
	c3-1.7,6.8-2.6,11.2-3.6c4.5-1.1,9.7-2.3,14.9-4.7c1.1-0.5,2.2-1,3.3-1.5c7.5-3.4,16-7.2,23.1-14.4c4.8-4.9,13.1-7.5,21.9-10.2
	c3-0.9,6.1-1.9,9.1-3c8.5-3.1,21-9.2,31.1-26.3c5-8.7,7.7-9.4,20.2-13.1l0.2-0.1c10.4-3.2,16.2-5.9,25.1-14.2
	c6.5-6.1,9.4-10.4,12.1-14.3c0.4-0.5,0.7-1.1,1.1-1.6l0.6-0.9c2-2.8,5-7.1,6.5-12.3C601.5,295.5,599.2,287.3,592.7,281.5z"/>
<path id="Black_Arrowhead" d="M569.9,278.4c-4.9-4.4-8.9-6.9-10.2-7.9c-7.3-5.8-1.2-1.2-8.2-5.7c-5-3.1-6.4-5.7-11.5-8.5
	c-9.1-5.2-10.1-6.7-17.5-15.5c-6.4-11.7-16.3-13.4-26.3-15.6c-9.6-2.2-16.5-9.8-18.2-12.5c-5.1-8.4-13.5-12.4-17.9-14.8
	c-13.7-7.5-29.4-6.2-41.7-17.2c-18.5-13.2-23.5-10.7-43-11.3c-10.8-0.3-24.8-7.2-29.4-11c-3.8-3.2-8.4-5.3-12.3-6.6
	c-13.8-4.2-23.1,3-42.4-6.3c-5.6-2.8-10.7-6.5-16.2-9.7c-1.8-1.4-3.7-2.4-9.2-3.6c-11-2.2-20.2-0.8-31.2,0.3
	c-7.3,0.5-9.2-2.6-14.7-5.4c-5.5-2.6-11-4.6-16.5-5.8c-9-1.6-18.5-0.5-28.3,1.5c-19.3,3.8-36.7-5.9-55.4-4.1
	c-3.1,0.3-9.2,4.2-11.4,8.6c-2.8,5.9-2.8,9.3-2.4,15.2c0.6,7.9,1.5,8.5,3,13.7c3.3,11.2,5.1,17.3,7.8,24.8c3.1,8.7,3,19.5-4.4,23
	c-3.5,1.7-9.5,1.7-12.9-0.9c-5.2-4-8.1-9.5-14-10.7c-7.9-1.6-17.3,6.5-25.7,8.7s-9.4-2.4-15.2-5c-3.8-1.8-7.6,0.8-9.7,2.1
	c-3.9,2.2-4.8,6.7-5.8,11.5c-0.7,3.8-1.1,7.4-0.1,11.6c1.4,6.1,3.4,9.7,3.5,14c0.4,10.6-1.4,18.5-5.7,24.1
	c-2.8,3.5-6.5,13.5-7.6,17.1c-3.8,12.2-3.4,10.1-5.3,21.5c-1,5.8-0.8,12.3-1.3,17.7c-0.1,1,0.7,13.3,1.3,17
	c1.5,9.1,3.1,14.9,5.1,22.6c2.8,11.1,3.9,18,3.6,26.4c-0.3,8.7-5.8,17-0.6,23.1c3.2,3.8,11.8,7.3,18.7,4.2
	c7.1-3.1,12.2-6.8,17.7-7.6c10.1-1.4,16.7,2.9,21.1,2.5c3.9-0.5,10.7-4.3,14-4.6c2.6-0.2,8.2-0.5,10.1,1c3.1,2.4,5,4.9,4.5,12.9
	c0,0.1-1.9,8.5-1.9,8.6c-3.2,10.5-6.7,20.4-8.4,27.5c-1.8,7.6-10,24.1,6.8,30.7c7.1,2.8,14.5,2.3,23.9-0.1c4.7-1.2,6.7-1.4,11.1-2.2
	c0-0.3,6.6-0.2,6.6-0.5l5.9-0.3c10.4-1.2,12.9-0.5,22,0.8c8.6,1.1,16.9,2.8,25.5,1.8c4.3-0.5,8.5-1.3,12.7-2.6
	c12-3.8,17.6-9,31.9-11c12-1.7,12,0.4,22.6-0.1c11-0.5,17.1-5.2,21.7-7.8c5.6-3,7.1-3.3,10.8-5.3c13.5-7.3,29.6-6.4,44.8-10.1
	c10.7-2.6,14.9-7.7,27-10.9c4.8-1.3,10-1.2,15.1-1.9c3.9-0.6,10.8-4,14.6-7.6c6.6-6.1,5.9-6.4,11-9.2c8.5-4.8,18.3-4.7,27-8.7
	c8.1-3.7,16.3-6.9,22.6-13.3c9.2-9.3,23.9-12,35.8-16.3c7.1-2.6,16.4-7.2,24.2-20.6c7.7-13.2,14.4-15.1,27.9-19.1
	c9-2.8,13-4.6,20-11.2c6.3-5.9,8.5-9.7,11.4-13.8c3.2-4.7,9.5-12.6,2.8-18.5C581.1,288.5,576.2,283.3,569.9,278.4z"/>
<path id="White_Arrowhead" class="st0" d="M560.7,289.8c-7.9-5.6-8.5-6.6-12.7-9.3c-10.6-7.1-12.7-8.6-17.9-14.6
	c-5.1-5.8-6.5-7.8-12.3-10.9c-2.2-1.3-16.8-6.3-14.1-5.8c-13.4-2.4-13.8-5.2-19.1-10.1c-4.4-6.4-9.6-14-14.1-17
	c1.8,1.1-8.2-5.4-8.1-5.2c-7.6-2.6-10.2-2-19.8-2.4c0.3,0-10.4-1.5-13.2-2.8c-4.9-2.2-7.6-4.7-10.9-7.3c-7.5-5.6-5.4-4.3-12.8-9.7
	c-10-7.3-11.3-5.5-24.1-6.8c-10.8-1.1-18.5-3.6-27-9.7c-15-10.9-29.7-7.1-38.9-8.4c-13.3-2-22.6-7.4-27.5-10.5
	c-10.7-6.8-8.2-3.6-19.6-8.9c-13.7-6.5-26.4,4.3-42.4-0.2c-8.4-2.4-11.6-6.8-17-8.7c-16.3-4.8-21.8-2.2-35.1-2
	c-15.8,0-29.9-4.2-45-4c-4.2,0-7.5,3.5-6.9,8.4c0,0,0.2,5.8,0.2,5.9c0.8,4.8,2.6,9.9,4,15.2c1.9,6.5,2.8,8.6,5.5,18.9
	c1,8.2,0,10.5-0.6,14c-0.5,2.8-2.4,8.4-3.7,10.5c-1.6,2.4-3.6,3.2-6.4,4.9c-4.7,2.8-9.6,4.1-14.7,4c-5.3-0.2-3.9-0.2-12.3-3.2
	c-3-1.2-9.3-4.7-15.6-2.1c-12.1,5.1-13.5,0.9-20,1.4c-2,0.1-3.9,1.1-5.8,2c-3,1.3-4.4,3.2-6.4,7.3c-1.2,2.5-2.1,6.5-1.6,10.1
	c-0.7,0,1.2,5.7,1.2,5.9c1.5,7.8,1.9,13.8-1.1,20.7c-2.8,6.5-3.6,8.7-7.3,14c-3.5,5.1-9.7,19.8-10.2,33.4c0.5-0.5-0.1,16.1,1.9,25.9
	c2.2,10.8,5.3,11.7,6,29.6c0.3,6.8-0.4,12.7-0.6,18.7c-0.1,3.9,1.2,9.4,6.1,8.6c7.1-1.1,15-5,20.6-5.2c2.8-0.1,7.5,0.8,9.4,1.4
	c11.2,3.9,7.5,1,25-2.1c5.8-1.1,13.8,0.2,17,2.1c10.3,6,9.4,19.1,6.5,32.1c-0.5,2.1-3,15.7-3.6,17.8c-1.8,6.9-1.6,7.3-2.5,14.6
	c-0.4,3.5-0.2,6.3,1.8,9.5c1.7,2.6,3.5,4.5,6.1,4.5c11.4,0.3,17.7,0,29.4-2.1c15.1-2.8,22.8-2.8,33.2-1.8c10.7,1,25.9,0.7,32.1-1.7
	c5.7-2.1,13.3-6.5,19.3-7.8c19.8-4.2,20.6-2.3,36.7-4.3c12.9-1.7,19.5-8.2,26.1-11.6c9-4.8,17-6.5,27.4-6.5c6.1,0,14.8-2.1,19.1-4
	c17.1-7.8,10.7-7.3,34.5-11.7c12.1-2.3,20.7-11.9,28.3-16c4.8-2.8,9-4.9,14.4-6.6c7.3-2.2,15.4-3.3,22.4-5.7
	c11.2-3.9,14.6-7.8,20.7-13.3c5.1-4.6,6.8-4.5,12.5-8.1c5.8-3.6,14.2-6.3,17.5-7.3c7.4-2.3,18.2-14.6,28.3-24.8
	c11.9-12.2,23-10.1,36.2-17.2c8.1-4.2,13.3-7.1,9.5-14.7C567.2,296.3,564,292,560.7,289.8z"/>
<path id="Black_Letters" d="M292.9,350.3c-25-19.5-17.9-36.9-7.4-45l3.1,3.4l-5.3,5.6l0.4,20.2h72l9.2-8.8v-22h-5.5l-25-26.8
	c47.9-10.2,71.4,10.7,85.6,33.8h18.7l9.5-9.2v-53.2h-20l-12,7.4C374,235,341,237.2,307.9,248l-5.4-5.5l30.5-18.2l18.4-0.1l9-8.5
	v-18.1H287l-7.8,7.9V218l-68.9,39.5v-30.3l11.1-11.2v-18.3h-72.2l-9.8,11.5v14.4h11.8v78h-3.6c0,0-9.6,10.9-9.1,11.1V333h76l7.6-7.1
	v-24.2h-11.2v-6.2l41.9-24.1l3.5,3.6c-9.3,6.6-16.7,12.8-22.2,22.6c-8.2,13.7-11.2,32.7-6.4,47.9c3.1,10.2,7.1,16.4,14,23.5
	c6.6,6.8,12.2,10.7,23,15.8c8.8,4.4,29.6,10.7,45.7,12.4c15.6,1.2,35.3,1,48.1-0.7c14.1-1.5,28.8-6.6,37.6-10.2
	c7.1-3.4,14.9-6.6,20.9-11.3c15.1-10.9,31.2-27.4,31.4-47.9h-28.3C411.2,358.7,327.2,374.8,292.9,350.3z"/>
<path id="Red_Letters" class="st0" d="M358.3,202.6l-68,0.1v11.8h8l-89.9,51.3v-51.2l11.2-0.1v-11.8h-65.9v11.8h11.2v94.2h-11.2
	v13.6h65.9v-13.6h-10.7v-15.9l51.1-29.3l42.3,45.1l-9.4-0.1v13.8h68.4v-13.7h-2.2l-62-66.9l46.1-27.1l15.1-0.2L358.3,202.6
	L358.3,202.6z M358.6,245c-21.4-0.1-36.5,5-43.9,7.3l17.6,19.3c37.8-9,78.4,0.4,96.2,27.2l17.1-0.2l0.2-47.2h-15.7l-11.2,7.4
	C395.6,248.4,375.2,245.1,358.6,245L358.6,245z M428.5,298.8h-0.4H428.5L428.5,298.8L428.5,298.8z M262.7,279.9
	c-15.7,10.7-21,20.7-24.5,30.4c-2.7,8.1-6.4,24.5,1.2,39.8c9.2,15.9,24.2,25.1,34.2,28.8c16.4,6.9,42.9,13.2,73,12
	c21.5-0.5,40.3-4.4,58.3-13.5c10.5-5.6,12.7-6.9,23.2-16.6c7.9-9,14.2-14.6,16.9-28.6h-18.1c-7.3,12-17.3,21.5-40.3,28.3l0.2,0.1
	c-44.4,13.2-87.1,6.6-106.1-16.8c-15.7-18.1-8.3-34,1.7-42.6L262.7,279.9L262.7,279.9z"/>
</svg>
