<svg version="1.1" id="Layer_1" xmlns="http://www.w3.org/2000/svg" xmlns:xlink="http://www.w3.org/1999/xlink" x="0px" y="0px"
	 viewBox="0 0 600 600" style="enable-background:new 0 0 600 600;" xml:space="preserve">
<style type="text/css">
	.st0{fill:#FFFFFF;}
</style>
<path id="Blue_1_" d="M526.8,157.8C444.7,75.6,316.7,61,218.1,122.5l0,0c-27.2,18-50.7,41-69.4,67.8c-0.1,0.1-0.1,0.2-0.2,0.2H97.1
	L0,410.1h125.9c18.2,33.9,45.8,61.9,79.5,80.6c64.3,35.4,142.8,32.4,204.2-7.7c8.9-5.8,11.4-17.8,5.6-26.7
	c-3.5-5.4-9.5-8.7-15.9-8.7c-1.9,0-3.8,0.3-5.7,0.8c-12.6,3.8-25.6,5.7-38.7,5.7c-37.7,0.1-73.7-15.9-98.8-44h117.6l20.2-28.1h78.4
	c0,0-2.4,6.1-3.7,9l-8.4,19.1h128.3l2.7-10C614.8,313.6,590.2,221.2,526.8,157.8z M304.4,329.5h-79.6c0-0.3,0-0.5,0-0.8
	c0-66.7,54.1-121.8,123.2-125.2c2.3-0.1,4.6-0.2,6.9-0.2c12.2,0,24.4,1.6,36.2,4.7L304.4,329.5z M476.9,265.8
	c3.5,12,5.7,24.2,6.7,36.7h-32.8L476.9,265.8z"/>
<path id="Outer_Arc" class="st0" d="M225.3,134c101-41.3,216.4,7.1,257.7,108.2c20.3,49.6,19.5,105.3-2,154.3h97
	c34.3-125.8-39.8-255.6-165.6-289.9C349,89.3,281.2,99.2,225.3,134"/>
<path class="st0" d="M125.3,343.2l61.6-139H155c34-44.2,86.3-70.7,142.1-72c1.3,0,2.7,0,4,0c78.6,0,144.6,47.1,171.3,116.3l0,0
	c-14.9-21.3-35.5-37.7-59.5-47.6c-18.4-7.5-38.1-11.3-58-11.2c-2.5,0-5.1,0.1-7.6,0.2l0.1,0c-75.8,3.8-136.2,64.6-136.2,138.8
	c0,4.8,0.3,9.6,0.8,14.4L125.3,343.2z"/>
<path class="st0" d="M134.3,396.5c6.7,14,15.2,27.1,25.1,39l0,0.1c14.7,17.5,32.5,32.2,52.6,43.3v-0.1l0,0
	c59.9,33,133,30.2,190.2-7.1l0,0c1.5-1,2.5-2.7,2.5-4.7c0.1-3.1-2.4-5.8-5.5-5.9c-0.6,0-1.1,0.1-1.7,0.3
	c-13.8,4.1-28.2,6.2-42.6,6.2c-38.2,0.2-75-14.7-102.3-41.4v0.1c-9-8.8-16.8-18.9-23.1-29.8H134.3z"/>
<path d="M187,204.1l-61.6,139h169.1l-24.6,34.6c-7.8,10.4-18,18.8-33.7,18.8H20.9l85-192.4H187 M207,191.1h-20h-81.1h-8.5l-3.4,7.7
	L9,391.2l-8.1,18.3h20h215.3c17.6,0,32-7.9,44.1-24l0.1-0.1l0.1-0.1l24.6-34.6l14.6-20.5h-25.2H145.4l53.5-120.7L207,191.1
	L207,191.1z"/>
<path class="st0" d="M465.9,257.6L424.1,316h60.6c0,33.2-5.1,43.5-7.9,52.3h-90.1l-20.1,28.1h-93.4l130.5-182.9
	C427.4,222.1,450.8,237.7,465.9,257.6z"/>
<path class="st0" d="M105.9,204.1l-85,192.4h215.3c15.7,0,25.9-8.4,33.7-18.8l24.6-34.6H125.4l61.6-139H105.9z"/>
</svg>
