<svg version="1.1" id="Layer_1" xmlns="http://www.w3.org/2000/svg" xmlns:xlink="http://www.w3.org/1999/xlink" x="0px" y="0px"
	 viewBox="0 0 600 600" style="enable-background:new 0 0 600 600;" xml:space="preserve">
<style type="text/css">
	.st0{fill:#FFFFFF;}
</style>
<path id="White_Outline" class="st0" d="M541.6,394.8c-1.3-7.9-8.5-14.9-14.1-16.1c-0.4-0.1-0.9-0.2-1.5-0.3
	c1.5-5.2,2.2-9.4,2.5-12.4c3.2-1.5,7-3,8.6-3.7l5.5-2.2l-1.1-5.8c-2.3-12-8.6-22-12.2-26.9c1.3-4.1,2.1-6.8,2.1-9
	c0-4.6-3.7-9.3-11-14c-0.6-0.4-1.2-1.4-1.2-6.4c0-0.1-0.1-4.8-1.3-9.6c4-2.7,8.9-7.1,11.3-14c2.4-6.9,3.3-13,3.7-16.6
	c0.2-1.9-0.1-6.6-0.1-6.6l-0.7-8.9c0,0-4.5,3.6-7,5.5c-0.7,0.5-1.2,0.9-1.4,1c-0.4,0.3-0.7,0.5-1.1,0.7c-1.8,1.1-3.9,2-4.7,2.4
	c-2,1.1-4.9,2.2-8.2,3.1c-4.7-24.3-21.9-66.9-63.6-104.4c-50.1-45-132.8-53.4-136.3-53.7l-7.8-0.7c0,0-0.2,11.6-0.9,14.9l-0.1,0.4
	c-0.3,1.6-0.6,3.1-1,4.5c-9.4-5.9-16-11.9-19.2-17.5c-5.9-10.4-7.8-19.9-9.6-29.2c-1.3-6.5-2.5-12.7-5.1-18.7
	c-6.7-15.7-16.3-29.1-28.6-39.9c-2.2-1.9-4.5-3.9-8-3.9c-1.4,0-3.5,0.4-5.6,2c-1.5,1.2-6,5.8-1,13.2c0.1,0.1,8.3,15.1,11.3,36.5
	c1,7.1,1.2,15.7,1.5,24.9c0.5,18.6,1,39.7,8.4,55.7c3.2,7,7.4,13.3,11.8,18.8c0.4,0.5,2.1,2.3,2.4,2.6c0.7,0.9,1.5,1.7,2.3,2.6
	c-8.1-0.7-15-2.8-21.8-6.7l-0.3-0.2c-21.1-10.6-37.4-35.6-40.4-62l-0.4-3.5c-0.6-4.7-0.6-9.4-0.7-14.4c0-2.8-0.1-5.8-0.2-8.7
	c-0.3-7.4-1.1-14.9-2.5-22.3c-0.5-3.1-1.2-6.3-1.9-9.3l-0.1-0.2c-0.4-2.3-1-4.4-1.5-6.1c-0.4-1.3-0.8-2.6-1.2-3.9
	c-1.1-3.2-2.5-6.3-4.3-9.2c-2.4-3.8-4.6-6.9-7-9.5c-1.9-2.1-3.8-3.8-5.7-5.1l-0.3-0.2c-0.8-0.5-3-1.7-5.8-1.7c-1.5,0-2.8,0.3-4.1,1
	l-0.8,0.5c-3.2,2.2-5.1,7.2-2.2,13.1l0.3,0.5c0.1,0.1,0.2,0.4,0.4,0.8s0.3,0.9,0.5,1.4c0.1,0.5,0.2,1,0.4,1.7c1,5.1,1.9,17.4-2.8,42
	l-0.2,1.3c-0.5,4.4-1,7.7-1.5,10.8c-2,11.8-4.1,25.8-4.5,40.8c0,0.5,0,1.4,0,2.2v0.7c-0.1,9.9,1.4,96.1,86.5,126h0.1l-0.3,0.1
	c-3.9,24.8-4.1,40-3.9,47.5c-18.5,7.2-36.6,15.9-53.9,25.9c-27.1,14.9-52.3,33.3-74.8,54.9c-4.6,4.4-8.9,8.8-13.3,13.4
	c-1,1.1-2.1,2.2-3,3.1l-0.3,0.3c-11.2,12-21.2,24.5-29.9,37.2c-0.3,0.4-1.1,1.7-1.4,2.4c-1,2.3-2.1,6.7,0,9c1.2,1.4,3.7,2.6,8.3,0.6
	c0.2-0.1,1.1-0.4,1.5-0.6c0.9-0.5,2.2-1.3,2.7-1.7c28.2-21.5,92.9-33.4,111.7-34.6c15.8-0.9,31.5-3.2,37.4-4.2
	c3.2,1.5,9.3,4.1,16.3,5.6c3,0.6,6.1,1,9.5,1c2.9,0,5.6-0.2,8-0.6c4.8,15.2,14.4,25.7,19.4,30.4c-0.3,9.2,1.2,26.4,8.1,37.6
	c5.6,9.2,13.6,16.2,18.1,19.7c0,4.4,0.4,11.4,2.6,17.4c2,5.3,5.3,10.2,7.7,13.4c-1,2.6-1.9,6-2.1,9.8c-0.3,4.3,0.7,7.7,2,10.3
	c-1.1,2-2.1,4.3-2.5,6.7c-0.5,3.2,0.1,6.7,0.9,9.3c-0.7,1.6-1.5,3.7-2,5.7c-0.6,2.9-0.1,5.7,0.5,7.9c-2.2,6.5-4.7,19.3,3.6,26.3
	c2.5,2.1,5.5,3.2,8.7,3.2c6.3,0,11.5-4.5,14-7.1c3.7-1.7,8.1-5.1,10.6-9c1.9-2.9,2.8-5.8,3.3-7.9c1.7-1.7,3.8-4.2,5.7-7.8
	c1.6-3.1,2.4-5.7,2.7-7.7c3.6-4.3,11.6-14.9,15-28l0.8-3.6c0.1-0.4,0.2-0.9,0.2-1.4c1.9-11.9,0.4-23.1-0.6-28.3
	c2.8-5,8.3-16.5,9-29.8c6.1-4.1,16.7-10.6,29.7-16.5c0.5,7.9,0.6,16.1-1.8,28.5c-3,15.1-14,27.7-19.6,33.2c-1.9,1.9-6.7,7.3-6.7,7.3
	s-1.8,1.5-1.5,4.7c0,0.2,0.2,0.7,0.3,1.1c0.1,0.1,0.4,0.6,0.5,0.7c2.6,2.6,9.9,1.6,9.9,1.6c31.3-3.3,52.4-29.6,61.4-51.3
	c5.6-13.5,10.7-31.6,13.7-42.6c18.1-3.3,34.9-4.9,46.3-6.1c5.1-0.5,9.1-0.9,11.7-1.3c6.9-1,19.8-3,20.6-15.2
	C543.7,409.6,543.1,403.7,541.6,394.8"/>
<path id="Black_Outline" d="M534.5,395.8c-0.8-5.1-5.9-9.7-8.5-10.2c-2.6-0.6-9.1-2.3-9.1-2.3c4.8-13.6,4.8-22.2,4.8-22.2
	c4.3-2.3,12.8-5.7,12.8-5.7c-2.8-15.1-13.1-26.7-13.1-26.7c0.9-3.1,2.8-8.5,2.8-10.5s-3.7-5.4-7.7-7.9c-4-2.6-4.5-7.1-4.5-12.5
	s-2.3-12.2-3.1-12.5c-0.9-0.3,10.1-3.7,13.5-13.4c3.4-9.7,3.5-17.5,3.5-17.5c-4.5,6.6-22.3,9.3-22.3,9.3
	c-1.4-15.1-13.5-63.6-62.3-107.6s-132.1-52-132.1-52c0.1,2.5-0.2,5.4-0.9,8.6c-0.7,4.1-1.9,9-4,13c-0.1,0.2-0.3,0.5-0.5,0.8
	c-11.5-6.2-23.5-14.6-29.1-24.4c-10.7-18.9-9.4-35.2-15.1-48.6C250.4,31.7,237,19.8,233,16.3c-2.3-2-3.1-2.7-4.2-1.7
	c-1.2,0.9-0.4,2.3,0.6,3.7c0.9,1.3,9.3,17.5,12.4,39.3c3.1,21.9-1,56.4,9.2,78.5c6.4,13.8,16.9,24.7,23.9,31
	c0.2,0.2,0.5,0.4,0.7,0.6l2.3,2.3c-14.6,1.4-28.2,0.9-42.6-7.3c-23.2-11.7-41-38.9-44.3-67.6l-0.4-3.5c-0.9-7.9-0.5-15.8-0.9-23.7
	c-0.3-7.2-1.1-14.3-2.4-21.4c-0.5-3.1-1.2-6.2-1.9-9.3v-0.1c-0.3-1.9-0.9-3.7-1.4-5.6c-0.4-1.2-0.7-2.4-1.1-3.6
	c-0.9-2.7-2.1-5.3-3.6-7.7c-1.8-3-3.8-5.8-6.2-8.4c-1.4-1.5-2.9-3-4.6-4.1c0,0-1.6-1-2.6-0.4c0,0-1.4,1,0.1,4c0,0,0.4,0.6,0.8,1.6
	c0.2,0.6,0.5,1.3,0.8,2.1c0.2,0.7,0.4,1.6,0.6,2.4c1.2,6.2,2,19.7-2.9,45.3v0.1c-0.4,3.7-0.9,7.4-1.6,11.2c-2,12-4,25.6-4.3,39.8
	c0,0.6,0.1,2.5,0.1,2.8c-0.1,12.6,2.3,95.1,87.6,121.1c-0.4,1.8-0.8,3.5-1,5.1c-5.8,36.4-3.6,51.7-3.6,51.7s0,0.1,0,0.4
	c-17.5,6.6-37.2,15.4-58,27.3C161.2,335,136,352.3,111.3,376c-4.6,4.5-9,8.9-13.1,13.2c-1,1-2,2.1-3,3.2c0,0.1-0.1,0.1-0.2,0.2
	c-13,14-22.9,27-30,37.5c38.5-27.8,98.8-36.2,117.2-37.3c19.3-1.1,38.9-4.4,38.9-4.4s7.6,4.1,16.7,6.1c10.3,2.3,21.2-1,21.2-1
	c3.9,20,18,32.9,21.6,35.8c-1,6,0,25.9,6.8,36.9c7.3,11.9,19.3,19.9,19.3,19.9s-0.8,10.8,2,18.5s9.4,14.7,9.4,14.7s-3,5-3.4,11.4
	c-0.4,6.3,3.4,9.8,3.4,9.8s-3.4,4.4-4,7.8c-0.6,3.5,1.6,8.6,1.6,8.6s-2.1,3.8-2.7,6.7s1.1,6.5,1.1,6.5c-1.4,2.7-5.5,15.5,0.6,20.7
	c6.1,5.1,13.6-4.5,13.6-4.5c2.3-0.7,6.7-3.6,8.8-6.8c2.6-4,2.6-7.7,2.6-7.7s3.3-2.1,6.1-7.5c2.3-4.4,2-7.3,2-7.3s13.2-13.9,16-31.2
	c2.3-14.8-1.1-28.4-1.1-28.4s9.9-15.1,9.5-32.4c6.8-4.7,23.1-15.3,43.4-23.2c0.6,11.6,2.4,21.7-1.2,40.5
	c-4.6,23.3-25.3,40.3-25.3,40.3c29-3.1,48.3-28.7,56-47.2c6.3-15.1,12-36.4,14.6-46c28.3-5.5,54.1-6.9,62.7-8.2
	c11.4-1.7,14.2-4.2,14.5-8.5C536.5,408.6,535.3,400.9,534.5,395.8L534.5,395.8z"/>
<path id="White_Horns" class="st0" d="M250.5,57c2.2,9.9,2.7,25.9,2.7,25.9c-0.7-5.6-3.1-14.4-4.9-20.5c0.7,4.4,1.2,8.6,1.6,12
	c1.5,11.9-1.4,33,7,55.2c5.4,14.4,17.2,24.9,24.3,30.2c5.9-8.3,13.4-18.9,18.5-26.7c-28.6-17.7-35.7-34.4-40-58.5
	c-0.7-3.9-1.6-7.5-2.7-11c0.8,9.1,0.1,17.6,0.1,17.6C256,72.4,250.5,57,250.5,57L250.5,57z M176,58.6c0.1,1.9,0,3.8-0.1,5.7
	c-0.2,4.9-1.3,10.7-1.8,15.6s-1.3,9.7-2,14.6c-0.2,1.3-0.5,4-0.5,3.6c0-0.1,0-0.2,0-0.3c-0.3-3-1-12.6-1-23.6v-2.3
	c-0.1,0.4-0.1,0.9-0.2,1.3c-1.8,10.5-3.9,25.2-4.1,41c0,0.5,0,1.8,0,2.5c-0.1,4.9,0.1,25.3,8.9,47.9c13.4,34.3,39.3,57,77,67.6
	c18.7,5.3,39.7,9.3,54.3,13.7v-0.1c0,0,16.2,4.7,26,12.3c0,0-10.6-2.1-21.4-3.5c7.8,11.6,21,19.2,36,19.2c11.4,0,21.7-4.4,29.4-11.6
	c-1.9,1.3-3.6,2.3-5,3c-3.7,1.8-7.4,2.4-10.1,2.6c-6.2,2-12.4,1.1-14,0.8c0.1,0,0.3-0.1,0.4-0.1c18.7-3.2,36-17.5,34.1-39.2
	c-0.8-9.3-3.7-19.2-9.5-25.5c7.3,6.2,12.3,15.1,13.2,25.4c0.5,5.1-0.1,10-1.5,14.5c2.4-5.1,3.8-10.8,3.8-16.7
	c1.4,6.4,0.9,11.9-0.6,16.5c1.9-4.6,2.9-9.6,3-14.9c0.1,0.6,0.2,1.2,0.3,1.8v-0.1c0-3.1-0.3-6.2-1-9.2v-0.4
	c-2.5-16.2-14.4-31.7-29.5-38.5c-4.5-2.4-18.3-7.4-33.3-8.8c-6.8-0.8-14-0.7-22.9,0.3c-4,0.4-7.8,0.9-11.6,1.4
	c-20.3,2.6-39.4,5.1-59.9-6.5c-25.4-12.8-44.2-41.4-47.8-72.8l-0.4-3.4c-0.5-4.3-0.7-8.9-0.9-13.3c-0.4-3.9-1.1-6-1.2-5.6
	c-0.1,0.3,0,0.6,0,0.9c0,3.3-0.8,6.7-1.3,9.9c-0.6,3.9-1.4,11.3-1.5,11s-0.2-0.6-0.2-0.9c-0.2-1.1-0.2-2.2-0.2-3.2
	c0-2.2-0.1-4.4-0.2-6.6c-0.3-5.5-1.2-21.5-1.6-23.6C176.7,60.7,176.5,58.9,176,58.6L176,58.6z"/>
<path id="Face" class="st0" d="M441.1,266.9c-2.7,0-12.3,1.2-15,1.4c0,0.2-1,0.3-2.5,0.5c0,0.3,0,0.6,0,0.9c0,0-4,30.9-18.7,51.1
	c3.8,2.1,13.5,5,16.9,8.1c6.3,5.8,6.7,14.1,6.4,17.4c-0.3,3.3-0.8,9.2-3.8,20.9c0,0-0.7-16.8-2.2-21.8s-7.1-9.5-12.5-11.2
	c-2.5-0.8-7-2-12-3.1c-9.7,11.1-19.4,18.7-28.6,26.8c1,1.5,2.3,2.8,4.3,3.3c5.5,1.4,12.5-1.8,12.5-1.8s-4.4,20.5,7.3,37.9
	c8.8,13,25.7,9.7,25.7,9.7s3.6-25.7,19.7-46.3c14.8-19,32.8-28.8,45.4-32.5c-0.5-2.3-1.2-7.2-0.3-9.5c1.2-3.2,4.7-6,8.9-6
	c4.2,0,9,2.3,9,2.3c-2.2-0.5-8.1-0.7-11.1,2.4c-2.3,2.4-1.2,7.3-0.6,9.5c11.6-2.1,22.2-0.7,24.3-0.2c2.2,0.5,4.2,0.2,4.9-2.6
	c0.7-2.7,0.7-6-0.7-7.1c-1.5-1.1-3.8-1.5-6.2-3.3c-2.4-1.8-4.4-6.2-4.2-12.6c0.2-6.4-3.6-15.1-3.6-15.1c-8.8,3.5-29.2-2.7-41.9-3.7
	c-12.8-0.9-21.7,5.1-21.7,5.1C437.1,278.7,441.1,266.9,441.1,266.9L441.1,266.9z M475.1,286.6c5.8,0.1,9.8,1.6,9.8,1.6
	c-6.2,0.3-10.5,2.7-10.5,2.7c1.5,1.8,4.2,5.7,4.4,7.1c0,0.2,0,0.5,0,1c0,0,0,0.1,0,0.4v0.1c-0.2,2.1-1.2,11.7-3.4,14.4
	c-0.3,0.5-0.7,1.1-1.2,1.5c-2.6,2.4-7,4.7-15.5,10.5c-9.3,6.5-16.7,19.7-16.7,19.7s2.7-12.5,8.4-19.6c7.1-8.8,16.4-14.7,22.2-17.7
	l2.6-11.5c-2-1.3-4.5-2.7-6.9-3.1c-5-0.9-13.4-0.8-18.5-2.4l0.1-0.1c6.2-0.8,9.8-2.6,18.9-4.1C471,286.7,473.2,286.6,475.1,286.6
	L475.1,286.6z M513.5,365.4c0,0-34,14.7-43.7,41.6c0,0,20.4,0.5,31.8,1.9c11.4,1.4,18.8,1.4,21.4,1.6c2.6,0.1,7.8,0.4,6.2-8.9
	c-1.7-9.3-4.2-11-8.7-12.8s-12.2-1.3-12.2-1.3S514.1,373.2,513.5,365.4L513.5,365.4z M361,365.7c-0.8,0.8-1.5,1.5-2.3,2.3
	c0,0,6.8,9.5,11,27.3c3.2,13.6-5.3,35.6-5.3,35.6s4.4,11.1,6.3,24.5c0.3-0.2,0.5-0.3,0.8-0.5c0,0,23.6-12.5,36.3-17.8
	c2-0.8,4.5-1.8,7.4-2.7c0.3-5.3,0.8-12.6,1.9-19.4c-2.4,0.1-4.7,0.1-6.6,0.1c-13.1,0-21.2-7.6-27.3-16.5l0,0
	c-6-8.8-10.2-26.6-10.2-26.6S365.5,371.8,361,365.7L361,365.7z M465.5,413.9c-0.1,0-0.1,0-0.2,0c-1.6,2.5-2.8,5.1-4.2,8.8
	c4.4-0.9,8.6-1.6,12.5-2.2c21.4-3.2,39-3.8,41.8-4.2c2.8-0.4,8-0.2,9.8-1.7c0,0-5.9,0.5-12.4,0.3
	C506.5,414.7,481.2,413.9,465.5,413.9L465.5,413.9z"/>
<path id="Yellow_Hair" class="st0" d="M315.2,112.6c0,0-0.6,7.5-5.2,17.1c-1.6,3.4-3.7,7-6.4,10.7c-3.9,5.3-11.8,16.1-19,27.1
	c-0.2,0.4-1.6,2.1-1.6,2.1c2.7-0.3,5.4-0.7,8.2-1c3.8-0.5,7.7-1,11.8-1.4c9.4-1,17.1-1.1,24.3-0.3c14.2,1.3,27.8,5.8,34.3,8.8
	c18,7.6,32.2,26,34.7,45.1l0,0c0.1,0.5,0.2,1.1,0.3,1.6c0,0.2,0.1,0.4,0.1,0.6c0.1,0.7,0.2,1.4,0.3,2.1l0,0c4.5-0.5,28-3.2,47.5-3.1
	c17.5,0.1,33,2,40.4,3.2c-7.7-17.1-19.5-37.1-37.4-54.1C407,132.8,357,114.5,315.2,112.6L315.2,112.6z M253.7,239.5
	c-0.2,0.8-0.3,1.7-0.5,2.5c-0.5,3-0.9,6.1-1.2,9.1c7.7-2,16.8-4.1,25.6-5.7c0.2,0,0.4-0.1,0.6-0.1c-0.1,0-0.3-0.1-0.4-0.1
	c-1.5-0.4-3-0.8-4.6-1.1c-3.1-0.8-6.2-1.5-9.2-2.2C260.5,241.1,257.1,240.4,253.7,239.5L253.7,239.5z M519.7,263.6
	c0,0-3.9,1.8-12.6,3.8c-8.7,2-26.3-0.7-31.5-1.3c-5.3-0.6-21-1.8-25.5,1.2s-3.5,12-3.5,12s3.6-3.7,12.5-6s20.6-0.6,20.6-0.6
	c-6.8,1.3-10.5,3.6-10.5,3.6c12.6,1.7,14.9,5.7,31.7,4.5C517.6,279.5,519.7,263.6,519.7,263.6L519.7,263.6z M415.5,270.2
	c-4.6,0.4-9,1-13.4,1.4c0,0.2-0.1,0.3-0.1,0.5c-4.4,14.8-13,25.5-26.7,31.8c-17.8,18.2-44.4,30.8-59.2,40.3
	C289.9,361,285.7,394,285.7,394c2.9-50.7,34-57.3,68-82.2c0.7-0.5,2.4-1.5,3.1-2l-1.1,0.4c-4.2,0-12.9-0.8-16.9-1.7
	c-3.7,2.6-7.3,4.8-10.7,6.6c-17.8,9.7-30.1,25.6-30.1,25.6c4.8-16.1,16.1-22.8,32.9-34.7c-6.3-2.6-13.4-7-18.2-11.8
	c-9.9,5.1-31.9,18.5-46.5,32.3c-11.7,11.1-33.4,26.7-59.1,38.8c20.2-13.3,54.2-43.3,66.1-54.7c0,0-44.7,25.8-57.5,34.5
	c0,0,16.6-18.4,37.2-29.7c0,0-45.5,18.6-71.7,36.5c-13.5,9.2-34.3,28.1-46.3,40.9c4.9-1.1,23.6-4.8,28.6-5.4
	c33.6-3.5,70.4-0.8,102.6-39.6c0.5-0.6,1.1-1.3,1.5-1.8c-2.8,9.6-4,23-3.5,38c1.2,32.4,26.3,45.2,36.1,52c-0.2-4-0.8-8,2.7-22
	c3.9-15.4,14.5-27.9,17.1-29.9c0,0-16.5,22-11.7,56.6c0,0,4.5-28.3,25.9-56.2c21.4-27.8,41.9-40.8,58.9-61.6
	c9.5-11.6,14.8-22.6,18-32.6C413.8,282.8,415,275.6,415.5,270.2L415.5,270.2z M305.2,284.3c-4.6,0.9-66.7,9.1-141.8,59.6
	c-24.9,16.7-55.4,46.4-70.5,63c6.5-2.8,20.4-8.7,31.4-12.1c11.2-11.5,29.7-30.2,46.6-42.1c39.2-27.4,106.2-55.8,137.7-64.4
	c-0.7-0.9-1.3-1.8-2-2.8L305.2,284.3L305.2,284.3z M505.2,331c-6.5,0-15.6,1.2-25.6,5.8c-20.1,9.2-39.3,27.4-47.6,46.4
	c-8.3,18.9-8.9,38.9-9.8,53.7c-0.9,14.7,1.6,36.7-4.2,56.5c0,0,9.5-14,12.9-53.7c3.1-35.9,12-60.7,28.5-72.2
	c0,0-13.2,18.3-17.7,48.4c-4.5,30-3.6,41.8-9.2,66.7l-1.4,4.7c0,0,13.2-17.7,20.4-63.8c6.3-40.3,18.1-58.4,34.3-67.9
	c0,0-21.7,23.6-26.7,57.4c0,0,12.3-30.4,31.7-43.2c19.4-12.8,36.1-17,36.1-17s-0.7-10.5-11.3-20.4C515.8,332.1,511.8,331,505.2,331
	L505.2,331z M259.6,362.8c0,0-15,18-31.6,22.1l-0.6,0.1c0,0,9.5,5,17.5,5s14.4-2.6,14.4-2.6S257.8,368.8,259.6,362.8L259.6,362.8z
	 M351.6,373.2c0,0-19.4,21.2-27,38.4c-6.8,15.4-9.1,27.8-9.5,34.4c8.1,5,17.9,11.1,23.3,15.4c1.3-3.1,2.7-6.3,4.2-9.2
	c8.7-17.1,17.1-23.1,20.5-40.9S358.1,379.8,351.6,373.2L351.6,373.2z M285.9,434.9c0,0-0.1,17.2,8.3,30.3
	c6.3,9.8,23.4,18.7,34.5,25.4c1-3.6,3.6-13,7.3-23c-4.5-3.4-17.6-13.1-25.5-17.6C300.7,444.6,290,438.6,285.9,434.9L285.9,434.9z
	 M358.9,440.3c-1.4,2.3-3.7,5.9-5.1,7.7c-4.2,5.7-14.7,28.5-19.1,46.3c1.3,0.8,2.5,1.6,3.6,2.3c4.9,3.4,7.8,6.2,9.5,8
	c2.1-3.8,6.3-7.7,8-10.7c6.1-11.1,10.8-24.3,9.3-36.3C364,449.4,360.3,442.9,358.9,440.3L358.9,440.3z M314.2,490.7
	c0,3.6,0.4,12.9,5.6,20.3c6.6,9.6,16.1,14.5,16.1,14.5s4.3-7.5,9-15.8c-3-2.5-7-5.5-11.9-8.6C328.5,498.4,320.9,494.6,314.2,490.7
	L314.2,490.7z M355.3,503.9c0,0-7.7,10.4-13.2,20.2c-3.8,6.8-7.2,15.8-8.9,20.6c0.4,0.2,0.7,0.4,1,0.6c3.6,2.4,8.1,8.8,8.1,8.8
	s9.8-10.9,13.7-23.2C360,518.6,355.3,503.9,355.3,503.9L355.3,503.9z M324.5,523.4c-1.7,2.2-4.7,4.7-2.7,11.4
	c1.2,4.1,4.3,6.2,7.3,7.8c1.9-6.2,4.5-13,4.5-13C328.9,527.3,324.5,523.4,324.5,523.4L324.5,523.4z M322,542.7c0,0-2.9,3.9-1.8,8.6
	c1.1,4.7,5.4,6.7,10,9s6.3,7,6.3,7c3.3-2.3,4.9-5.8,3.1-9.6s-5.3-7.1-10.2-9.4C324.6,545.9,322,542.7,322,542.7L322,542.7z
	 M320.3,558.1c-4.7,8.2-2.4,10.1,4.1,14.9c4.5,3.3,3.6,7.6,3.6,7.6s6.1-3.1,5.7-7.1c-0.3-2.6-4-8-7.6-10.4
	C322.6,560.8,320.3,558.1,320.3,558.1L320.3,558.1z M319.1,573.6c-2.7,3.3-3.9,10-2.2,12c1.7,2,4.1,1.8,5.5,0.1
	c1.5-1.7,1.9-4.3-0.1-7.1C320.7,576.4,319.1,573.6,319.1,573.6L319.1,573.6z"/>
</svg>
