<svg version="1.1" id="Layer_1" xmlns="http://www.w3.org/2000/svg" xmlns:xlink="http://www.w3.org/1999/xlink" x="0px" y="0px"
	 viewBox="0 0 600 600" style="enable-background:new 0 0 600 600;" xml:space="preserve">
<style type="text/css">
	.st0{fill:#FFFFFF;}
</style>
<path id="White_Outline" class="st0" d="M592.3,190.4c-75.5,17.8-78.8-25.9-192.3-33.9c-152.8-10.8-281.3,55.8-383.9,64.3
	c-22.3,1.9-19.4,20.4-3.4,23.6c38.7,9,78.6,7.9,115.1,3c-1.2,2.9-2.5,7.5,1.6,11c14.5,12.3,72.6,13.4,98.2,11.9
	c8.7-0.5,27.2-2.2,27.2-2.2c-5.3,0.5-13.5,16.6,3.9,21.1c107.8,30.2,158.5,78.9,216.7,155.7c23.7-3,45.9-31.5,36.4-53.2l4.7-11.7
	l17.4-8.1l-5-38.9l26.6-12.5c0,0,41.4-111.2,43.8-119.3C601.8,192.9,596.8,189.3,592.3,190.4"/>
<path id="Blue_Head" d="M305.7,248.9c30.3-3.3,57-2.2,86.1,15.5c-60.7-6.6-90.5,10.4-128.3,14.1c133.7,35.1,182.7,110.1,215.9,151.7
	c23.2-9.9,24.4-30,18.5-37.2l6-12.8l0.3-8.2l16-7.5l-5.1-39.8l29.9-12.3L584.7,204c-67.2,13.9-88.9-29.5-184.5-35.4
	c-38.9-2.4-74-0.6-106.9,3.7l5.4,33.2c22-0.8,42.7,2,62.4,11c-21.6-1.3-41,0.5-60,4L305.7,248.9"/>
<path id="Red_Tail" d="M287.1,173.1c-94.1,13.3-171.2,46.8-272.4,60.5c114.2,18.8,203.8-23.4,278.6-27.8
	C293.2,205.7,287.1,173.1,287.1,173.1z M296.2,221.4c-49.1,9.8-93.8,29.8-153.4,31.4c69.2,13,117.1,1.5,158.5-3.4L296.2,221.4z"/>
<path id="Silver_Face" class="st0" d="M408.9,340.5c36.2,25.3,54.7,53.4,73.6,77.9c9.6-4,12.6-15.1,9.4-19l-9.1-11.2l10.4,0.6
	l4.8-8.3l-12.9-0.8l-14.5,2.6l14.7-10.1l11.2,0.7l0.4-6.4l-11.5-5.5l3.9-4.3l21.2,1.3l-6.1-47.2c-8.4-1-15.4,3.4-18.5,15.5
	l-37.6-2.2c5.3-12,13.5-17.4,29.2-15.4c-8.8-12.3-51.5-13.4-57.5,5.9l33.2,27.2l4.3,24.9l-13.6-19.8
	C431.5,336.2,418.7,328.7,408.9,340.5"/>
<path id="White_Star" class="st0" d="M520.1,218.7l2.7,23.7l26.7,10l-25,6.3l2.5,32l-21.7-27l-32.4,7.6l20-23.3l-16.5-21.9l27.6,9.5
	L520.1,218.7"/>
</svg>
