<svg version="1.1" id="Layer_1" xmlns="http://www.w3.org/2000/svg" xmlns:xlink="http://www.w3.org/1999/xlink" x="0px" y="0px"
	 viewBox="0 0 600 600" style="enable-background:new 0 0 600 600;" xml:space="preserve">
<style type="text/css">
	.st0{fill:#FFFFFF;}
</style>
<path id="White_Outline" class="st0" d="M349.5,124l-29.2,30.7c47.9-19.9,152.4-54.1,152.4-54.1l-33.5,32.7
	c91.4-27,160.8-39.8,160.8-39.8s-20.1,46.8-50.2,93.7c5.8-0.6,43.8-5,43.8-5s-34.2,56.6-73.6,97.4l22,5.4c0,0-34.4,49.6-79.8,90.1
	c-65.3,58.2-98.9,49.3-98.9,49.3c-48.5,35.1-87.3,17.3-87.3,17.3s16.8-42.4-0.6-46.9c-15.6-4.1-39.4,8.2-42.4,13.1
	c-3.1,10.7-16.1,37.8-29.5,54.3c-25.8,31.5-54.3,44.4-54.3,44.4s-22.5-19.2-22.6-51.9c0,0-15.5,16.4-40.6,21.7
	c-17.6,3.7-41.6,0.7-66.2-19.8C3.2,442.8,0,396.4,0,396.4s15.5-29.7,45.5-55.7c-6.6-5.7-10.7-12.8-12-17.3
	c79.6-34.8,79.7-67.9,143-108.2C238.8,175.5,278,157.2,349.5,124"/>
<path d="M576.4,192.8c0,0-29.8,3.4-44.1,4.8c29.5-42,51.7-91.4,51.7-91.4s-67.8,11.2-174.8,44.3l30.3-29.6
	c0,0-104.3,35.5-153.7,57.4l25-26.2c-44.4,19.9-81,40.4-115.5,61.3c-74.4,44.9-83.5,85-149.4,113.4c1.2,2.8,6.1,10,12.6,14.2
	C25.8,367.5,9,398.3,9,398.3s2.8,39.8,16.4,51.6c23,19.9,44.9,20.8,59,17.9c22.4-4.6,35.3-18.8,35.3-18.8s-27.8-9.4-23-20.4
	c6.9-15.6,34.9-21.6,38.5-16.1c1.1,1.8,3.3,6,1.6,16.8c-7.6,49.3,14.3,66.2,14.3,66.2s24.1-12.2,45.9-39
	c12.6-15.4,25.2-41.8,27.9-51.3c2.4-8.7,33-25,52.9-18.7c25.8,8.2,9,48.8,9,48.8s37.7,14.4,83.1-28.3c0,0.1,0.4,1.7,0.4,3.4
	c0.1,3.2-0.5,5.2-0.5,5.2s26.1,6.1,85-45.5c46.1-40.4,72.7-79.8,72.7-79.8s-20-4.6-24.9-5.3C546.6,242.7,576.4,192.8,576.4,192.8z"
	/>
<path class="st0" d="M160.5,322.5c-0.2,2.3,0.4,5.2,3.2,7.4c0,0-3.3,0.3-5.4-1.3c-1.2-0.8-1.7-1.9-1.9-2.5
	C157.9,325,159.2,323.7,160.5,322.5z M275.9,313.4c21.7-8.3,56.6-19,95.6-19.4c2.6,0,5.2,0,8,0c25.2,0.7,51.9,5.8,77.6,18.7
	c-4,8.7-14.4,21.7-30.8,37.9c-15.7,15.4-26.1,19.8-28.8,21.3c-0.5,0.2-0.7,0.3-0.7,0.3c-5.6-21.2-52.1-41.3-119.1-24.7
	c-28.3,7-40.5,15.8-52,26.6c0.8-2.1,1.7-4.2,2.7-6.2c0-0.1,0.1-0.1,0.1-0.2c7.1-14.3,17.6-23.5,17.6-23.5c-2.6,1.3-5.1,2.7-7.6,4.3
	c-10.2,5.9-51.9,27.1-88.2,4.6c-2.3-1.4-4.2-2.7-5.8-3.9c12,6.3,31.9,6.8,40.2-1.3c-28.9,7.5-34.1-5.7-34.7-13.9
	c-1.9,0.4-4.9,0.1-7.1-0.4c0,0,4.8-2,7.1-3.2c0.4-0.2,0.8-0.5,1.2-0.7c0.2,0.8,0.6,1.6,1,2.3c3.5,5.8,12.4,6.9,19.9,2.4
	s10.8-12.8,7.3-18.6c-1.8-3-4.9-4.7-8.6-5.1c2.6-3.1,7.6-9.7,15.3-15.3c-5.7,6.8-7.5,11.4-7.7,12c3.5,0.5,6.5,2,8,4.8
	c2,3.7,1.7,6.8,1,9.1c0.6-1.8,0.6-3,0.6-3.4c5-11.5,17.6-22.2,17.6-22.2s-9.3,5.6-10.7,0.2c-3.7-14.2,21.3-42.4,68.8-60.1
	c0.1-0.1,0.7-0.3,1.2-0.5c0.2-0.1,0.4-0.2,0.6-0.2c0.9-0.3,1.8-0.7,2.8-1c0,0-25.2,3.9-63.1,26.5c-14.9,8.9-28.3,21.2-35.1,30.5
	c0.3-6.2,3.6-12.1,5.6-16.8c-14.1,9.1-10.6,21.8-21.2,34.1c-4.7,5-9.6,9.7-14.8,13.1c-30,19.6-59.7,7.4-59.7,7.4
	c40.3-21.8,39.1-26.7,65.6-54.8c29.8-31.5,48-47.7,98.1-72.3c-3.3,4.3-16.8,16.1-19.7,19.5c0,0,10.1-5.4,29.1-14.4
	c67.5-32.1,117.3-44,117.3-44c0.1,0-12.3,8.8-20.7,14.6c-11.6,7.7-21.8,15.1-21.8,15.1s0.5-0.1,1.3-0.5c6.8-2.9,40.7-16.8,93.4-26.6
	c50.7-9.4,95.4-13,95.4-13s-10.1,31.3-35.9,56c-18,1.8-62.7,3.7-101.1,11.3c-38.5,7.7-66.1,17.6-80.1,23.4c-0.8,0.4-1.4,0.8-2,1.2
	c-5.4,2.3-8.2,3.7-8.2,3.7s16.1-5,36.6-10.1c12.2-3,25.9-6.2,38.7-8.2c18.5-2.8,39.2-3.9,59-4.1c43.5-0.4,82.2,3.7,82.2,3.7
	s-3.8,12.1-21.6,31.6c-16.8,18.4-23.1,23.3-23.1,23.3c-94.3-20-169,15-197.4,31.4c-0.6,0.4-1.2,0.9-1.8,1.3
	c-6.8,4-10.4,6.6-10.4,6.6S261.5,319,275.9,313.4z M187.2,322c0-0.1,0.1-0.2,0.1-0.4C187.3,321.7,187.3,321.8,187.2,322z M186.8,323
	c0-0.1,0.1-0.2,0.1-0.2C186.9,322.9,186.8,323,186.8,323z M189.8,335.2C189.8,335.2,189.8,335.2,189.8,335.2
	c7.3-6.6,7.2-13.4,7.2-13.4s-3.9,2.2-7.1,2.6c-1.1,0.2-2.4,0-3.6-0.3c0,0,0,0,0,0c0,0,0,0,0,0c-2,4.1-5.6,8.1-10.4,11.2
	c-6.5,4.1-13.7,5.4-19,3.9c0,0,1,1.7,2.5,2.7c2.6,1.7,10.1,4.2,21-0.7C184.5,339.4,187.5,337.3,189.8,335.2z M293.2,357.3
	c-36.5,0.8-53.3,17.1-53.3,17.1s16.9-12.7,45.5-8.1c42.4,6.8,41.2,33.5,41.2,33.5s19.1-8.2,28.7-25c0,0-12-11.4-33.6-15.2
	C311.1,357.8,301.7,357.2,293.2,357.3z M219.3,366.9c-2.7,4.8-3.8,10-5.6,16.2c-13.5,62.8-59,90-59,90c-8.2-18.8-3.6-37-2.2-43.8
	c3.3-15.5-4.2-27-4.2-27c29.9,1.4,0.6,38.7,11.7,54.9c20.1-11.7,32.2-52.9,35.2-67.6c0.2-0.5-2.8-2.7-5.3-3.6
	c-28.9-9.2-77.4-1.3-94.9,9.3c-54.8,33.2-3.5,56-3.5,56S57.7,462.5,38.4,432c-4.8-8.1-6-22.9-7-34.4c20.1-34,51.7-47.5,60.5-53.6
	c7.6,2.1,21.4,3,32.3-0.3C124.2,343.7,160.8,390,219.3,366.9z M125.3,358.2c-8.5-0.8-11.8-2.6-14.9-5.2c-7.3,3.8-12.8,6.7-12.7,6.8
	c-4.3,6.4,4.7,5.1,8.9,3.9C110,362.6,125.3,358.2,125.3,358.2z"/>
</svg>
