<svg version="1.1" id="Layer_1" xmlns="http://www.w3.org/2000/svg" xmlns:xlink="http://www.w3.org/1999/xlink" x="0px" y="0px"
	 viewBox="0 0 600 600" style="enable-background:new 0 0 600 600;" xml:space="preserve">
<style type="text/css">
	.st0{fill:#FFFFFF;}
</style>
<path id="Black_Circle" d="M0,300c0,165.4,134.6,300,300,300s300-134.6,300-300S465.4,0,300,0S0,134.6,0,300"/>
<path id="White_Circle" class="st0" d="M300,545.5c135.2,0,244.8-109.6,244.8-244.8S435.2,55.9,300,55.9S55.2,165.5,55.2,300.7
	S164.8,545.5,300,545.5"/>
<path id="Gold_Star" d="M301.3,301.1c2.8-100.3,97.5-123.8,121.3-121.6c-58.7-3.2-116.5-28-121-120.7
	c-7.1,86.3-41.7,110.8-121.4,121C237.1,182.6,294.8,205.1,301.3,301.1"/>
<path id="Red_Star" d="M422.9,425.1c2.8-100.3,95.9-125,119.7-122.8c-58.9-2.2-115.5-30.1-120-122.9
	C415.5,265.7,381,290.8,301.3,301C358.2,303.9,416.5,329.2,422.9,425.1"/>
<path id="Blue_Star" d="M302.8,544.5C305.6,444.2,399.2,423,423,425.1c-58.7-3.2-117.2-31.3-121.7-124.1
	c-7.1,86.3-40.7,112.2-120.4,122.4C237.8,426.4,296.3,448.6,302.8,544.5"/>
<path id="Black_Letters" d="M103.5,263.9c-2.3,0-4.7,0.5-6.9,1.5c-2.7,1.2-4.5,3.3-5.8,5.6c-1.3,2.3-2,4.2-2.2,6.9
	c-0.3,5.6,2.5,11.6,7.8,14.9c3.7,2.3,6.4,2.6,9.6,5.7c1.7,1.6,1.5,5.7,1,6.7c-1.5,2.7-5.5,1.7-6.5,0.7s-1.4-4.8-1.2-6.2l-10.5,0.1
	c-0.4,4.6-0.1,7.5,1.3,10.6c1.4,3.2,3.4,4.4,6,5.6c5.6,2.7,13.2,2.4,18.7-2.7c1.3-1.2,1.8-2.7,1.8-2.7c1.3-3.1,2.7-6.6,1.7-12.3
	c-0.5-2.6-1.6-4.8-2.2-5.6c-2-2.8-3.4-4-8.6-6.5c0.1,0-1.6-0.8-1.5-0.8c-5.5-1.8-7.7-5.1-6-8.7c0.9-2,4.5-2.8,6.1-1.4
	c1.1,1,1.3,3.1,1.4,4.7h3.7h6.8c0.1-4.7-0.9-7.3-1.9-9C113.5,266.2,108.6,263.9,103.5,263.9L103.5,263.9z M192.8,264.9v51.7h9.9
	v-51.7H192.8L192.8,264.9z M133.2,270.9l-9.8,5.4v3.4l-3.9,0.1v8.5l3.7-0.1l0.1,19.5c0,10.3,8.9,8.8,13.6,8.9v-11
	c-4,0.1-3.6-0.7-3.6-2.7v-14.5l3.8,0.1v-8.7l-3.7,0.1L133.2,270.9L133.2,270.9z M264,279.2c-1.7,0-3.3,0.4-4.9,1.1
	c-1.5,0.7-2.6,0.6-5.1,3.7c-1.2,1.5-1.5,3.6-1.6,5.5c-0.2,4,1.1,9.2,6.5,10.6c3,0.8,6.5,1.2,8.1,3.6c0.9,1.3,0.6,1.9,0.2,2.9
	c-0.6,1.4-3.8,1.4-5.1,0.9c-1.3-0.5-2.1-2-1.9-3.3l-8.2,0.1c0.2,3.2,0.2,5.1,1.4,7.5c1.2,2.3,3.5,3.9,5.7,4.6
	c4.4,1.3,9.3,1.1,12.9-1.1c0.7-0.4,2.5-2.1,3.3-3.5c1.2-2.3,2-5.2,0.9-9c-0.5-1.8-0.6-2-0.9-2.7c-2-3.7-4.5-4.5-7.1-5.4
	c0.1,0-2.4-0.6-2.3-0.6c-4.6-0.5-4.9-3.1-4.3-4.9c0.5-1.5,1.7-2,3.2-2c1.3,0,2.5,0.9,2.8,1.9c0.2,0.7,0.1,1.5,0.1,2.3h8.5
	c-0.1-3.3-0.7-6.8-2.5-8.6C271.3,280.7,267.7,279.1,264,279.2L264,279.2z M248.2,279.4c-3.3,0.7-4.1,2.2-5.6,4.8v-4.6l-9.6,0.1v36.7
	h9.7v-21.3c0.1-2.2-0.4-5.1,7.8-4.5v-11.2H248.2L248.2,279.4z M151.4,279.7c-2,0-4.1,0.4-6.9,1.6c-3.2,2.1-5.1,5.1-4.9,8.4v17.9
	c0.2,4.4,2.1,7.6,6.1,9c3,0.6,6.2,1.6,11.4,0c4.9-1.7,6.1-4.8,6-7.7v-4.3H155v1c-0.2,4.2-7.4,3.5-7.4,0.2v-5H163v-11.4
	c0-3.7-1.8-6.4-5.8-8.6C155.1,280.2,153.3,279.7,151.4,279.7L151.4,279.7z M178.2,279.7c-2,0-4.1,0.4-6.9,1.6
	c-3.2,2.1-5.1,5.1-4.9,8.4v17.9c0.2,4.4,2.1,7.6,6.1,9c3,0.6,6.2,1.6,11.4,0c4.9-1.7,6-4.8,6-7.7v-4.3h-8.1v1
	c-0.2,4.2-7.4,3.5-7.4,0.2v-5h15.5v-11.4c0-3.7-1.8-6.4-5.8-8.6C182,280.2,180.2,279.7,178.2,279.7L178.2,279.7z M217.7,279.7
	c-2,0-4.1,0.4-6.9,1.6c-3.2,2.1-5.1,5.1-4.9,8.4v17.9c0.2,4.4,2.1,7.6,6.1,9c3,0.6,6.2,1.6,11.4,0c4.9-1.7,6.1-4.8,6-7.7v-4.3h-8.1
	v1c-0.2,4.2-7.4,3.5-7.4,0.2v-5h15.5v-11.4c0-3.7-1.8-6.4-5.8-8.6C221.4,280.2,219.6,279.7,217.7,279.7L217.7,279.7z M151.2,288.1
	c2.3-0.1,4.8,1.7,4,5.1h-7.3C147.3,289.8,149.2,288.2,151.2,288.1L151.2,288.1z M178.1,288.1c2.3-0.1,4.8,1.7,4,5.1h-7.3
	C174.1,289.8,176,288.2,178.1,288.1L178.1,288.1z M217.5,288.1c2.3-0.1,4.8,1.7,4,5.1h-7.3C213.6,289.8,215.5,288.2,217.5,288.1
	L217.5,288.1z"/>
</svg>
