<svg version="1.1" id="Layer_1" xmlns="http://www.w3.org/2000/svg" xmlns:xlink="http://www.w3.org/1999/xlink" x="0px" y="0px"
	 viewBox="0 0 600 600" style="enable-background:new 0 0 600 600;" xml:space="preserve">
<style type="text/css">
	.st0{fill:#FFFFFF;}
</style>
<path id="White" class="st0" d="M502.9,384.8c-25.9-4.5-52.2-6.6-78.5-6.5H63.8c-22.5,0-46,0-57.5-18.5c-12.5-18.5-5.5-37,14.5-73.5
	c1.5-3,63.5-119,63.5-119c3.8,4.7,8,9,12.5,13c6.5,5,13,7.5,30,7.5c30.5,0,228.1-0.5,230.1-0.5c40,0,80.5,4,106.5,33
	c14,1.5,57.5,7,94,24.5c21,10,35,25,40.5,43.5c1.4,5.7,2.1,11.6,2,17.5c0,17.5-6.5,37-19,57.5c-27.5,42.5-52.5,57.5-53.5,58
	c-9,6.5-19.5,10.5-30.5,11.5c7.8-9,13.9-19.4,18-30.5C519.5,386.8,502.9,384.8,502.9,384.8z"/>
<path id="Gray" d="M241.3,323.3c-15,26-21,32-10.5,44.5h-167c-25,0-41-1-49-13.5s-6.5-24,15-63h142.1c24.5,0,31,1.5,44,11.5
	C229.3,313.3,241.3,323.3,241.3,323.3z"/>
<path id="Blue" d="M553,254.2c-41.5-20-94.5-24-94.5-24c-23-28.5-62-32.5-101.5-32.5c0,0-199.1,0.5-230.1,0.5
	c-36,0-39.5-14.5-39.5-14.5l-48.5,90.5h125.6c39.5,0,41.5-4,67.5-23.5c28-20.5,50-27.5,76.5-27.5c26,0,43.5,5.5,73,18.5
	c29,13,44.5,19.5,62,12c0,0-13.5,18.5-55,1c-41.5-17-52.5-21-78-21c-24.5,0-53,12-88.5,47.5l42.5,34c0,0-10,15.5-16.5,25
	s-6,16-2.5,21c3.5,4.5,8,6.5,23.5,6.5h155.6c27,0,53.9,2.4,80.5,7c40,8,14,41.5,14,41.5s27-17.5,53-59
	C601.5,311.3,594,273.7,553,254.2z"/>
<path id="White_1_" class="st0" d="M479.9,261.2c-18.5-4.5-2.5-15-2.5-15c-18,3.8-32.8,16.4-39.5,33.5c-0.5,1-1,1.5-1.5,2.5
	c-15,30-28.5,28.5-54,28.5h-43.5c-35.5,0-52,17.5-69,47.5h20c18.5-27.5,32-34.5,68.5-36.5c82.5,0,148.1,23.5,183.1,41.5
	C591,280.2,517.5,266.7,479.9,261.2z M326.4,357.8c9-14,28-18.5,58-17c75,4.5,118,19,151.1,31.5c-41-24-114.5-41.5-165.6-41.5
	c-24.5,0-46.5,4.5-59,27H326.4z M406.4,275.2c-9.5,14-22.5,18.5-59,16c-42-3-31-21-26.5-29.5l0,0c1.5-2.5,3.5-7,6-11
	c-32.5-2-56,23-56,23c24,24,40,26.5,62,26.5h41c38,0,47-17,50.5-25C418.5,276.2,412.4,276.2,406.4,275.2z"/>
<path id="Green" class="st0" d="M387.9,271.2c-0.9-0.2-1.7-0.5-2.5-1c-4.1,4.3-10.1,6.4-16,5.5c-8.5-1-13-7-10.5-13
	c0.1-1.1,0.4-2.1,1-3c-4-1.5-8.5-3-12.5-4.5c-8.5,13.5-13,22.5,16,25c18,1.5,23-1.5,27-8C389.4,271.7,388.9,271.7,387.9,271.2z"/>
</svg>
