<svg version="1.1" id="Layer_1" xmlns="http://www.w3.org/2000/svg" xmlns:xlink="http://www.w3.org/1999/xlink" x="0px" y="0px"
	 viewBox="0 0 600 600" style="enable-background:new 0 0 600 600;" xml:space="preserve">
<style type="text/css">
	.st0{fill:#FFFFFF;}
</style>
<ellipse id="White_Outline" class="st0" cx="300" cy="300" rx="300" ry="177.4"/>
<ellipse id="Black_Oval" cx="299.3" cy="301.3" rx="290.9" ry="169.6"/>
<ellipse id="Gold_Oval" class="st0" cx="300.7" cy="303.3" rx="253.7" ry="156.5"/>
<ellipse id="Red_Oval" cx="301.3" cy="300.7" rx="233.5" ry="146.1"/>
<path id="White_Letters" class="st0" d="M387.8,298.3h49.8c28.5,0.9,26.4,36.4,26.4,36.4h14.3V281h-86
	C392.4,280.9,392.2,293,387.8,298.3 M286.4,344.2v41.3c-1.5,21.6-47.6,23.4-47.6,23.4v11.8h127.5v-11.8
	c-37.9-3.3-38.1-22.6-38.1-22.6v-27.6h45.3c20.7,3,28.7,28.9,28.7,28.9h13.4v-72.2h-13c-9,43.5-75.6,23.9-80.6,25
	C322.2,340.5,305.8,344.6,286.4,344.2 M326.2,273.2c17.3,5.1,18.9,18.3,8.8,30.6c-13,12.2-32.8,12.7-32.8,12.7s-66.7,7.2-105.6-34.9
	H180V340h14.6c0,0,8.9,1.4,14.6-20c0,0,68.5,27.9,133.6,2c63.1-25.1,39.1-79.9-4.3-88.5c-16.7-3.3-23.3-6.2-71.2-5.9
	c0,0-8.6-0.3-17.1-1.4c-26.4-6.6-11.4-23.7,4.1-25.7c0,0,47.6-9.4,97.2,22.8h25V185H340l-7.7,5.9c0,0-67.5-18.9-123.6,5.7
	c-37.7,15.6-45.1,54.6-3.9,66.4c36.2,10.4,59.4,6.1,96.1,7.5C311.1,270.9,320,271.3,326.2,273.2 M271.8,296.8h-17.3v-15.5
	c13.4,0,40.8,0.1,60.1,0c19.5,0,22.1,11.3,13.9,18.9c-7.7,7.2-23.9,12.3-43.1,8.8C285.4,309,283.8,296.8,271.8,296.8"/>
</svg>
