<svg version="1.1" id="Layer_1" xmlns="http://www.w3.org/2000/svg" xmlns:xlink="http://www.w3.org/1999/xlink" x="0px" y="0px"
	 viewBox="0 0 600 600" style="enable-background:new 0 0 600 600;" xml:space="preserve">
<style type="text/css">
	.st0{fill-rule:evenodd;clip-rule:evenodd;fill:#FFFFFF;}
	.st1{fill-rule:evenodd;clip-rule:evenodd;}
	.st2{fill:#FFFFFF;}
</style>
<path id="Silver_Flag" class="st0" d="M576.1,33.2c0,0,1.4,25.6-3.4,49c-4.7,22.6-7.2,31.3-7.2,31.3c-9.9,5.8-25.9,12.9-49.3,16.8
	c-43.6,7.3-83.2-4.4-126.5-21.4c-43.2-17-101.1-35.3-154.8-29.1c-52,6-89.3,27.1-109.1,40.8s-23.4,17.4-40.4,22.2
	c0,0,13.3,5.2,20.2,5.2c0,0-3.2,13.4-2,17.8c0,0,28.3-12.9,31.5-6.9c3.2,6.1-10.1,10.1-19.4,12.5s-33.5,2-33.5,2s11.4,8.8,15.4,14.9
	c0,0-21.4,9.3-45.3,6.1c0,0-0.8,8.8,18.8,23.3c-4.2,1.5-9.5,3.9-12.7,7.4c0,0,20.5-4.2,33.4,10.1c3.4,4.3,4.5,8.1,4.1,12.9
	c-0.7,8.7-4.1,12.1-12.3,17.5c-4.7,1.9-9.7,4.3-14.5,7.3c-22.7,14-39.3,35.2-51,59.5C13,343,9,355.2,6.2,366.3
	c-2.9,11.1-3.9,21-4.6,27.2S0,419.1,0,419.1s10.2-14.3,15-21.1c4.8-6.8,34.9-44.7,78.8-55.7c14-3.6,28-5.1,41.4-5.1
	c32.1,0,60.8,8.7,77.8,17c24.7,11.9,65.2,40.1,118.3,48.9c12.5,2.1,26,3.1,39.9,3.1c13.4,0,27.3-1,41.1-2.9
	c-7.8,11.7-15.3,22.6-22.5,32.7c-7.2-6.9-17.1-7.6-17.1-7.6c-11.9-1.1-17.9,6.1-17.9,6.1c-2.4,2.6-4.2,6-4.9,10
	c-0.8,3.7,0.2,8,0.9,10.2c2.3,7.2,8.4,10.5,10.8,11.5c-17.4,23.2-22.5,49.9-22.5,49.9l-7.9,7l2.9,11.6c-4.4,14.2,2.5,24.9,11.5,29.3
	c9.1,4.5,17.7,1.9,17.7,1.9c5.4-1.5,10.2-4.9,13.5-9.9c0.5-0.8,1-1.5,1.3-2.3c1.9-1,3.4-2.1,4.8-3.3c2.5,0.3,8.9,0.5,8.9,0.5
	c13.2-0.1,26-3.8,35.9-12.2c7.7-6.9,16.2-18.7,16.5-34.8c0-3,0.6-15.2-9.5-25.9c63.6-93.4,104.9-153.5,131.3-214.7
	C635.9,101.4,576.3,33.8,576.1,33.2L576.1,33.2z"/>
<path id="Black_Flag" class="st1" d="M581.2,61.1c-0.7,33.8-10,57.4-10,57.4c-13.2,7.9-31.3,16.4-52,19.5
	c-43.1,6.4-64.3-0.1-104.2-12.8c-39.9-12.8-99.8-40.3-161.3-39.9S148.3,112.4,109,142.7c0.6-0.2,10.3-3.2,13.7-4.3
	c0,0-9.2,10.8-12,16.8c0,0,18.3-13.7,43.4-12.2c0,0-8.7,2.2-12.4,7.6c0,0,10.2-2.2,12,1.8s-4.4,13.1-15.6,18.2
	c-11.3,5.1-29.5,9.1-41.1,9.8c0,0,11.7,3.6,19.3,10.9c0,0-8.9,1.3-18.6,5.1c-8.1,3.2-22.6,5.1-28.8,4.4c0,0,8.5,7.9,18.6,14.2
	c29.5,18.3,17.1,45.5,7.6,54.4c-6.3,1.8-71.5,19.5-86.5,124.9c0,0,33.1-46.1,83.2-58.9c50.1-12.7,98.7,0,124.2,12.4
	c25.5,12.5,65,39.8,116.3,48.3c28.2,4.7,62.2,3.8,95.1-2.5c-0.5,0.8-25.6,38.1-36.4,53.2c0,0-8-10.1-18.8-11.1c0,0-4.5-0.9-8.2,1
	l0,0c-3.2,1.5-6,4.7-6.9,9.1c-0.9,4.5,0.7,8,2.8,10.4c2,2.4,4.6,3.6,6.6,4.1c1.8,0.4,4.4,1.6,4.9,4c-4.9,7.6-11.7,18.6-16.6,29.2
	c-3.8,8.4-5.7,15.5-7.2,20.4c-1.4,5-2.7,6.9-3.1,7.1l-5.2,4.6c0,0,2,8,2.6,9.4c-1.3,2.4-1.9,5-1.9,7.6v0.1c0,5.5,2.7,10.8,7.6,14
	c3.8,2.6,9.3,2.8,9.3,2.8c5.4,0,10.8-2.7,14-7.5c0.8-1.2,1.4-2.4,1.8-3.6c3.9-1.6,6.3-3.8,7.6-5.6c2.9,0.7,11.4,0.9,11.7,0.9
	c11.8-0.1,23-3.5,31.2-10.4c6.6-5.9,13.8-16,14-29.5c0-2.4,0.7-15.1-11.5-25.2c10.5-15.2,23.5-34.2,37.1-54.8
	c25.3-38.4,46-71.7,61.8-99.5c16.5-28.3,68-106,67.9-212.4C592.3,81,581.2,61.1,581.2,61.1L581.2,61.1z"/>
<path id="Red_Flag" class="st0" d="M258.3,96.2c-82-0.4-121.9,42.6-121.9,42.6s19.5-7.1,29.3-0.7c10.7,6.9,1.3,24.8-2.2,28.4
	c-9.9,10.3-24,17.8-39.7,17.8c0,0,16.6,4,21.9,8.9c0,0-15.4,2-23.7,4.9c-8.4,2.9-24.7,7.6-28.4,7.6c0,0,43.1,19.7,16.4,61.9
	c0,0,18.7-2.9,34.3,4.6c0,0-85.5-13.8-114.4,80.5c10.9-9,45.1-33.1,98.4-33.4c64.3-0.3,91.9,14.5,117.5,30
	c39,23.6,68.4,30.6,90.8,34.8c64.3,12,128.9-9.6,156.9-22.7c81.2-124.5,90.6-194.8,92-245c-26.2,26.4-70.2,32.9-90.2,32.8
	c-59.3-0.4-123.6-33.7-180.5-46.5C294.1,98.2,275.3,96.3,258.3,96.2L258.3,96.2z M338.5,124.3c15.6-0.4,31.2,5.2,31.4,5.2
	c0.2,0.1,28.3,8.9,38.5,26.1s8.9,32.9,2.7,44.4c-6.2,11.5-12.1,17.9-12,21.8c0.1,3.8,1.8,7,1.8,7s-7.1,14.2-17.5,18.2
	c0,0-5.8,14.9-12,19.9c-6.2,4.9-15.5,10-23.8,16.7c-3.3,2.6-7.1,4.3-11.1,5.1c0.3,0.2,0.5,0.4,0.8,0.6c16.8-0.4,42-2.5,68.3-9.6
	c46.4-12.5,90.4-54.8,90.4-54.8c-11,36-15.9,48-44.7,68.3c-28.8,20.3-73.8,26.6-73.8,26.6c-0.5,2-3.5,4-3.5,4s4.6,1.7,15.9,10.2
	s8.2,8.1,11.8,10.5c3.4,2.3,5.4,1.8,5.6,1.7l0,0c1.1,2.2,1.2,5.4,1.2,5.4c1.5,1.4,8.9,8.5,2,15.7c-6.9,7.3-14.8,0.5-14.8,0.5
	c-2.8,0.6-5.5-0.3-5.5-0.3s-14.7,9.2-29.2-0.8c-11.9-8.2-11.1-17.9-10.4-21.2c-4,2.3-8.3,4.1-12.7,5.5c-11.9,3.7-27.1,5.3-42.2,0.3
	c-9.9-3.3-18.1-9.1-24.6-15.5s-11.3-13.5-14.4-19.9c-0.5-1-0.9-1.9-1.3-2.9c-1,2.5-6,11.8-21.4,11.2c-17.7-0.8-23.8-17-23.8-17
	s-2.7-0.9-4.6-3.1c0,0-10.4,0.6-11.5-9.3c-1.1-10,9.1-11.1,11.1-11.3c0,0,2.1-2.5,4.2-3.6c0,0,1.2,1.8,5.6,2
	c4.3,0.2,1.6-1.3,15.8-1.2c14.2,0,18.8,1.5,18.8,1.5s-1.1-3.4-0.4-5.3c0,0-32.2-32.1-42.8-65.7c-10.7-33.6-7.4-46,5.5-81.4
	c0,0,9.6,60.3,39.1,98.2c16.8,21.6,35.7,38.5,48.9,49c0.3,0,0.6,0,0.9,0c-2.8-3.1-4.9-6.8-6-11c-2.6-10.4-6.9-20-8.9-27.7
	s2.4-23.1,2.4-23.1c-5.9-9.5-3-25-3-25s3.2-1.5,5.6-4.5s1.6-11.7,3.6-24.6c2-12.9,10.4-26.2,28.9-33.8
	C328.1,125.3,333.3,124.5,338.5,124.3L338.5,124.3z"/>
<path id="White" class="st2" d="M332.9,310.8c0,1.1,0,2.3,0,3.5c0,0.3,0,0.7-0.1,1c-0.9-0.4-1.8-0.9-2.7-1.3c-0.3,2-0.8,4-1.5,5.9
	c-1.3-0.8-2.7-1.5-4.1-2.2c0.6-1.9,1.1-3.8,1.4-5.7c-1.5-0.7-3-1.3-4.5-2c-0.4,1.8-0.9,3.6-1.5,5.4c-1.4-0.6-2.8-1.3-4.2-1.9
	c0.6-1.7,1.1-3.5,1.5-5.2c-1.5-0.6-3-1.1-4.6-1.7c-0.5,1.7-1.1,3.4-1.6,5.1c-1.5-0.5-2.9-1-4.4-1.5c0.6-1.7,1.2-3.4,1.8-5.1
	c-1.6-0.5-3.1-1-4.6-1.4c-0.7,1.7-1.3,3.3-1.9,5.1c-1.5-0.4-3-0.8-4.5-1.1c0.6-1.8,1.3-3.5,2.1-5.2c-1.6-0.4-3.2-0.8-4.8-1.1
	c-0.9,1.7-1.6,3.5-2.2,5.3c-1.5-0.3-3.1-0.5-4.6-0.7c0.6-1.9,1.4-3.8,2.4-5.6c-1-0.2-2-0.4-2.9-0.5c0.2-0.3,0.4-0.6,0.6-0.9
	c0.7-1,1.4-1.9,2.1-2.8c0.1-0.1,0.2-0.2,0.3-0.3c0.8,0.1,1.7,0.2,2.5,0.3c0.8-1.1,1.6-2.2,2.4-3.2c1.4,0.2,2.8,0.4,4.2,0.6
	c-0.8,1.1-1.5,2.2-2.2,3.3c1.5,0.3,3,0.6,4.6,0.9c0.6-1.2,1.3-2.3,2-3.4c1.3,0.3,2.6,0.6,3.8,0.9c-0.6,1.1-1.1,2.3-1.7,3.5
	c1.4,0.4,2.9,0.8,4.4,1.3c0.5-1.2,0.9-2.4,1.4-3.6c1.2,0.4,2.4,0.8,3.6,1.2c-0.3,1.2-0.7,2.5-1.1,3.7c1.4,0.5,2.9,1.1,4.2,1.6
	c0.3-1.3,0.5-2.5,0.8-3.8c1.2,0.5,2.4,1,3.6,1.6c-0.1,1.3-0.3,2.6-0.5,3.9c1.4,0.6,2.9,1.3,4.2,2c0.1-1.3,0.2-2.6,0.2-3.9
	c1.2,0.6,2.5,1.3,3.7,2c0.1,1.3,0.1,2.6,0,3.9c0.8,0.4,1.5,0.8,2.2,1.2C332.9,310.4,332.9,310.6,332.9,310.8z M262.4,253.1
	c-41.4-44.8-49.3-86.5-51.9-97.7l0,0c0,0-3.9,24.6,15.1,59.5l1.4,2.5c0.9,1.5,2,3.4,3.5,5.8c6.9,11.1,16.1,23,28.4,35.4l0,0
	c0.8,0.8,15.5,15.2,21.8,20.8c2.5-0.7,5.2-1.3,7.9-1.7C279.6,270.2,270.6,262,262.4,253.1z M292.8,194.6c0,0,4.3-2.7,6.4-6.8
	c2.2-4,4-11.9,4-11.9c8.2-0.9,15.9-9.7,16.4-10.2c-2,2-4.7,3.4-7.5,4.6c0.1-1.9-0.2-5-0.1-9.7c0.1-5.8,5.7-28,32.9-27.7l0,0
	c2.8,0,5.9,0.3,9.2,0.9c6.5,1.3,11.7,2.9,13,3.3c0.1,0,0.3,0.1,0.4,0.1c0.7,0.2,1.6,0.5,2.7,0.9c0.3,0.1,0.7,0.2,1,0.4
	c0.5,0.2,0.9,0.4,1.4,0.6c0.7,0.3,1.4,0.6,2.1,0.9c0.7,0.3,1.5,0.7,2.3,1.1c1.7,0.8,3.5,1.8,5.4,2.9c0.2,0.1,0.4,0.2,0.5,0.3
	c0.1,0,0.1,0.1,0.2,0.1c14.3,8.7,18.2,19.3,18.2,28.1c0,7.7-3,14.1-4.7,16.4c-2.3,3.3-4.5,5.5-5.5,7.1c-1.3-2.3-2.3-4.8-2.7-7.3l0,0
	l0,0c0,0.7,0.9,11.9,6.6,17.7l0.3,0.3c0,0-3.3,7.4-4,11.9s1.1,9.3,1.1,9.3s-0.4,0.7-1.1,1.7c-3.5,4.1-9.6,7.7-12.9,7.1
	c-3.7-0.7-12.8-3.8-18-2.7c-4.3,0.9-6.9,3.3-8.3,5.8l0,0c-0.4,0.5-0.7,1-1,1.6c0,0-1.1,1.9-1.4,4.5c-0.8-0.3-1.4-0.6-1.4-0.6
	c0,0.1,0,0.3,0,0.5c0,0.4-0.2,1-0.2,1.1s0,0.2,0,0.3c-0.1,0.3-0.2,0.7-0.3,1c-0.3,1.3-0.7,2.3-1.1,3.5v0.1c-0.4,1.2-1.6,0.8-1.6,0.8
	H345c-0.9-0.4-1.8-0.9-2.8-1.4c0,0-1.1-0.6-0.9-1.7v-0.1v-0.1c0-0.1,0.1-0.2,0.1-0.3c0.3-1.1,1-3.5,1-4.1c0.1-0.7,0.5-1.9,0.8-2.3
	c-0.2-0.2-0.7-0.7-1.1-0.9c-0.3-0.2-0.7-0.2-1.2-0.2c-0.2,0.2-0.5,0.6-0.5,0.9c0,0.1-0.4,1.4-0.8,2.7c-0.4,1.4-1,2.9-1.2,3.6
	c-0.2,0.7-0.8,0.9-1.2,0.9c-0.3,0-0.5-0.1-0.6-0.1h-0.1c-0.9-0.3-2-0.8-3-1.1c-0.1,0-0.1-0.1-0.2-0.1c-1.1-0.4-1-1.4-1-1.8
	c0.5-1.4,1.1-3.2,1.6-4.7c0.1-0.3,0.2-0.7,0.3-1l0,0c0-0.1,0.5-1.2,1.1-1.5c-0.4-0.3-1.3-0.7-1.9-0.9c-0.8-0.2-2.1-0.5-2.2-0.5
	c0.2,0.5,0.3,1.3,0.2,1.7c-0.2,0.6-1.6,5.7-1.7,5.9s-0.3,0.8-0.7,1c-0.4,0.1-1.5-0.2-1.5-0.2c-0.1,0-0.1,0-0.2,0
	c-0.9-0.3-2.3-0.5-3.2-0.7c0,0-1.5-0.4-1-1.8c0,0,1-3.5,1.4-5.1v-0.1c0-0.1,0.2-0.8,0.3-1.9c0.1-1-0.6-1.3-1.1-1.3s-1,0.9-1.2,1.4
	c-0.1,0.6-0.4,1.5-0.4,1.5v0.1c0,0.1-0.1,0.2-0.1,0.2c-0.5,1.3-0.9,2.5-1.4,3.8c-0.4,1.1-1.6,1-1.9,1l0,0c-1.1-0.2-2.1-0.4-3-0.6
	h-0.1c0,0-1.2-0.4-0.8-1.6v-0.1c0.4-1.2,0.8-2.2,1.3-3.4c0.1-0.3,0.6-1.5,0.9-2s0.7-0.7,0.7-0.7c0-0.3-0.4-0.8-1.1-1
	c-0.1,0-0.2,0-0.3-0.1c0.4-1.1,1-2.6,1.2-3.8c0.8-3,0.7-7.3-2.8-11.3s-12.6-7-16-8.7C295.5,208.4,292.4,200.2,292.8,194.6z
	 M354,207.2c0,2.3,0.8,11.1,4.7,13.4c0,0,0,0,0.1,0c3.9,2.6,11.9,3.9,15.7,3.4c0.5-0.1,1.5-0.4,1.5-0.4l0,0c1.7-1,3.2-1.7,4.6-3.1
	c1.8-1.9,3.3-4.3,4.3-6.7c0.5-1.1,0.8-2.2,1.2-3.3c0,0,0.8-3.7,2.4-4.3c0.2,0,0.3-0.1,0.5-0.1h0.1l0,0c0,0-4.9-1.2-10.5-0.6
	c-0.5,0.1-1.1,0.1-1.6,0.2c-6.2,1.1-12.1,2.1-16,0.7c-1.3-0.4-2.4-1.2-3.4-2l0,0c-0.3-0.2-0.5-0.4-0.7-0.7c-1.3-1.3-2.2-2.5-2.4-2.7
	l-0.1-0.1l0,0C354.3,201.1,354,204.9,354,207.2z M338.7,211.6L338.7,211.6c-0.7,2-1.8,3.3-3,4.6c-2.1,2.6-3.9,2.5-4.6,4.5l-0.7,2
	c-0.4,1.2,0,2.4,0.9,3.3c0.4,0.4,0.9,0.8,1.5,1c1.9,0.6,4-0.3,4.5-2c0.1-0.3,0.4-0.4,0.7-0.3c0.3,0.1,0.5,0.4,0.4,0.7
	c-0.6,1.7,0.5,3.7,2.4,4.3c0.6,0.2,1.2,0.2,1.8,0.1c1.2-0.2,2.3-0.9,2.7-2.1l0.7-2c0.7-2.1-0.9-3-0.9-6.4c-0.1-1.7-0.2-3.4,0.4-5.4
	c0.5-1.6-0.4-3.4-2.1-4.2c-0.1,0-0.2-0.1-0.3-0.1c-0.1,0-0.2-0.1-0.3-0.1C341.1,209.1,339.2,210,338.7,211.6z M307.5,199.2
	c0.1,0.1,1,1.8,1,1.8c-0.1,0.1-0.2,0.1-0.3,0.2c0.1-0.1,0.2-0.1,0.3-0.2c0,0,0.6,0.8,0.9,1.2c2.8,2.7,9.9,6.5,14.6,6.8h0.1
	c4.5,0.5,10.4-6.1,11.8-7.9c1.4-1.8,3.5-5.1,3.5-5.1s-1.6,0.5-3.7,0.8c-0.3,0-0.7,0.1-1,0.1h-0.1c-1.2,0.1-2.6,0-3.9-0.5
	c-4-1.3-8.1-5.6-12.4-10.3c-0.4-0.4-0.8-0.8-1.2-1.1c-4-3.8-8.4-5.7-8.7-5.8l0,0l0,0l0,0c0.1,0.1,0.2,0.2,0.3,0.4
	c0.9,1.4-0.7,4.9-0.7,4.9c-0.4,1-0.7,2.1-1,3.1C306.3,191.2,306,195.7,307.5,199.2z M234.3,287.7c-1,0-1.9-0.1-2.9-0.1l0,0
	c-2,0.4-4.3,1.1-6,2.2c-1.9,1.2-3.1,2.7-3.7,4c6.2-0.7,17.8-0.6,20.8-0.1c0,0,0,0,0.1-0.1c1.7-2.7,4.2-3.9,6.1-4.5
	c-3.1-0.5-6.6-0.9-9.7-1.2C237.4,287.9,235.8,287.8,234.3,287.7z M222.9,289.9c2.3-1.4,5.9-2.2,8.1-2.3c0.1,0-0.8,0-1.2,0
	c-2.8,0-5.6,0.3-8.4,0.7c-2.5,0.3-4.8,0.8-7.1,0.8c-0.5,0-1.1,0-1.6-0.1l-0.5-0.1c-0.6-0.1-1.3-0.3-1.9-0.6c0,0.1,1.4,5.7,8.8,5.7
	c0.1-0.1,0.3-0.6,0.4-0.7C220.2,292,221.6,290.7,222.9,289.9C222.9,290,222.9,289.9,222.9,289.9z M369.4,256.8
	c-0.5-2-3.2-3.8-4.2-4.3c-0.6,0.1-2.8,0.6-4,1.4c-1.3,1-6,7.9-12.1,10.6c0.6-3.5-1.7-5.2-2.2-5.2c-0.6,0.1-1,1.4-1.1,1.8
	c-0.1,0.3-1.3,2.7-1.7,3.8c-0.4,1.1-0.3,1.2-0.3,1.2c-1,0-2-0.1-3-0.2c0.9-1.8,1.8-3.5,2.6-5.3c0.6-1.5-1-1.8-1-1.8
	c-0.9-0.1-1.7-0.3-2.6-0.4h-0.1c-1.1-0.2-1.8,0.5-1.9,0.9c-0.1,0.3-0.2,0.6-0.3,0.8c-0.4,1-0.8,1.9-1.3,2.9c0,0.1,0,0.1-0.1,0.2
	c-0.5,1.2-0.1,2.2-0.1,2.2c-0.3,0-1.2,0-2.5-0.3c-0.7-0.1-1.5-0.5-1.5-0.5c0.5-0.4,0.8-1.1,0.8-1.1c0.9-2.1,2.2-5.5,2.2-5.5
	s0.5-1.4-0.4-1.7c-1.3-0.3-2.5-0.7-3.8-1c-0.9-0.2-1.4,0.6-1.5,0.8c-0.2,0.5-0.5,1.3-0.6,1.6c-0.5,1.4-1,2.7-1.4,4.1c0,0,0,0,0,0.1
	c-0.3,0.9-0.1,1.7-0.1,1.7s-1.2-0.2-1.8-0.4c-0.6-0.2-1.6-0.8-1.6-0.8c0.2-0.2,0.3-0.6,0.5-0.9c0.6-2,1.1-4.6,1.6-6.7
	c0-0.3,0-1.2-0.8-1.6c-1.1-0.4-2.1-0.8-3.2-1.2c-0.9-0.3-1.3,0.5-1.5,0.9c-0.4,1.9-0.9,4.2-1.2,5.9c-0.1,1.2,0.4,2,0.4,2
	c-0.5-0.1-1.5-0.5-2.3-0.9c-0.5-0.2-1.7-1-1.7-1c0.6-0.1,0.9-1.3,0.9-1.3c0.7-1.4,1.1-2.6,1.6-3.8c0-0.1,0-0.1,0.1-0.2v-0.1
	c0.5-1.4-0.4-2.1-0.6-2.2c-1.4-0.7-2.9-1.5-2.9-1.5c-0.8-0.4-1.3,0.1-1.5,0.7c-0.5,1.5-1.4,3-1.7,4.7c-0.1,1-0.1,1.6-0.1,1.6
	c-1.9-0.9-2.6-2.3-2.6-2.3c0.4-0.5,1-2.4,1.1-4.2c0-1.8,0.1-3.4-0.7-4c-0.8-0.6-2.2,0.9-2.9,2c-0.7,1.1-0.9,1.7-0.9,1.7v0.1
	c-3.3-5.8-2.9-14.2-3.3-15.8c-0.5-1.5-2.4-3.6-2.4-3.6s-1.1-0.2-2.4-0.2l0,0c-1.3,0-2.9,0.2-3.9,1c0,0,1.1,6.2,4.2,11.6
	c3,5.4,6.6,15,8,18.9c0.5,1.6,1.6,3.4,3.4,5.2c2.4-1.3,8.3-0.9,14.8,1.2c6.2,2.1,11,5.1,12.3,7.6c2.2-0.4,4-1.1,5.3-2
	c3.4-2.3,12-7.7,17.7-10.2C364.7,261.1,369.4,256.8,369.4,256.8z M459.1,385.7L459.1,385.7L459.1,385.7L459.1,385.7z M366.1,496.4
	C366.1,496.3,366.1,496.3,366.1,496.4L366.1,496.4c-0.3,0.6-0.7,1.3-1,2c-6.8,14.8-6.6,25.4-13.2,31.3c0,0,0.2,0,0.4,0.1
	c1.8,0.2,8.5,0,12-16l0,0c-0.2-0.9-0.4-1.8-0.6-2.8C363.2,506.4,364.6,500,366.1,496.4z M441.8,390.5c-0.6,1-32.7,48.8-44,64.5
	c0.3,0.2,7.9,6.8,8.1,7c3.1-4.1,47.5-67.7,53.2-76.3c-0.2,0.1-0.3,0.1-0.5,0.2C453.1,387.6,447.5,389.1,441.8,390.5z M481.6,246.5
	c0,0.1-1.6,1.4-4,3.3c-1.1,0.9-2.2,1.8-3.5,2.8c-14.3,11.3-44.2,31.6-92.8,40.4c-11.8,2.1-23.8,3.3-35.5,3.8c1.9,2,3.7,4,5.3,6.1
	c0,0,5.1-0.4,5.8-0.4c8.8-0.7,17.6-1.8,26.4-3.4c21.6-3.9,37.9-9.4,45.6-12.3c1.8-0.7,3.5-1.4,5.2-2.2
	C472.2,268,481.4,247,481.6,246.5L481.6,246.5z M401.7,352.5c-0.6-0.2-1.2-0.4-1.8-0.7c-0.6-0.3-1.2-0.7-1.8-1.1
	c-0.8-0.6-3.1-2.8-3.7-3.3c-0.8-0.8-1.5-1.5-2.3-2.3c-0.9-0.9-3-2.8-3.9-3.5c-0.2-0.2-2.7-2.1-2.7-2.2c0.1,0.1,4.2,4.4,5.1,6.8
	c0.5,1.3,0.8,3,0.8,4.5c0,0.4-0.1,0.8-0.2,1.1l0,0c0.3,0.2,0.5,0.4,0.8,0.6c0.4,0.3,0.8,0.5,1.3,0.7c0.7,0.4,1.4,0.6,2.2,0.8
	c0.5,0.1,1.2,0.2,1.7,0.2C398.8,354.1,400.3,353.5,401.7,352.5L401.7,352.5z M381.4,469.8L381.4,469.8c-0.1,0.2-0.2,0.4-0.4,0.6
	c-2.6,4.1-5.2,8.1-7.6,12.3c-2.3,4-7,12.9-7.1,13.2c0,0.2-1.1,6.8,0.1,12l0,0c0-0.1,0.1-0.3,0,0c7.6-16.7,16.2-27.9,16.2-28
	C381,475.3,381.3,470.7,381.4,469.8z M385.5,339.4L385.5,339.4L385.5,339.4L385.5,339.4z M385.3,339.2c-0.2-0.1-0.4-0.3-0.5-0.4
	c-1.4-1-2.9-2-4.3-2.9c-2-1.3-4.1-2.6-6.2-3.8c-1-0.6-2-1.1-3-1.7c-0.2-0.1-0.4-0.2-0.6-0.3l0,0c1.1,1.6,2.4,4.2,2.1,7.4
	c2.6,1.4,12.1,8.3,16.5,12.6c0.3-1.4,0.2-3.4-0.5-5.5C388.1,342.7,386.7,340.8,385.3,339.2z"/>
<path id="Gray" class="st0" d="M340.9,132.3c-28.5,0.1-36.6,21.3-37.8,26.2c-1.3,5.2-1.3,11.7-1.6,14.7c0,0,5.5-0.8,10.6-2.9
	c0.1-1.9-0.2-5-0.1-9.7c0.1-6.4,6.9-32.8,42.1-26.8h-0.2c-1.1-0.2-2.3-0.5-3.6-0.7C347,132.5,343.9,132.3,340.9,132.3L340.9,132.3z
	 M377.1,141c1.7,0.8,3.5,1.8,5.4,2.9c0.2,0.1,0.4,0.2,0.5,0.3c0.1,0,0.1,0.1,0.2,0.1c14.3,8.7,18.2,19.3,18.2,28.1
	c0,7.7-3,14.1-4.7,16.4c-2.3,3.3-4.5,5.5-5.5,7.1c2,3.6,4.6,6.8,6.6,8.9c1.7-2.7,5.5-7.4,7.4-12.3c2.1-5.3,10.2-33.3-26.6-51
	L377.1,141z M210.5,155.5l-0.2,0.7c-1.6,4.7-2.2,9.8-2.5,14.8c-0.4,8.4,0.3,16.8,2.1,24.9c1.9,8.7,4.9,17.1,8.6,25.1
	c3.8,8.3,8.4,16.1,13.6,23.6c6.4,9.2,13.7,17.7,21.6,25.6c3.4,3.4,6.9,6.7,10.5,9.9c0.4,0.4,4,4,4.4,3.8c2.2-1.1,4.7-2.1,7.3-3
	l-1.1-1c-35.7-31.5-49.3-65.2-49.3-65.2l0.1,0.1C206.6,180,210.5,155.5,210.5,155.5L210.5,155.5z M321.2,172.6
	c-0.4,0-0.8,0.1-1.2,0.2c0,0.2,8.3,5.1,12.8,9.8c4.3,5,11.1,11.2,15.2,12.6c4.1,1.4,13.3,0.5,19.7-0.8c6.5-1,16.2,0,16.2-0.1
	c-4-4.9-17.6-3.5-25.2-3.2c-6.6,0.5-8.6-0.5-9.1-0.6c-0.4-0.1-2.6-0.5-7.6-5C336.5,180.8,327.4,172.3,321.2,172.6L321.2,172.6z
	 M308.5,179.2c0,0-5.1,9.3-5.5,14c-0.5,4.8-0.8,9.3,4.5,12.8c-0.2-0.2-2.2-3.1,0.4-4.6c0.1-0.1,0.2-0.1,0.3-0.2
	c0.1-0.1,0.2-0.1,0.3-0.2c0,0-0.9-1.7-1-1.8c-1.5-3.6-1.1-8-0.2-11.6c0.3-1,0.6-2.1,1-3.1c0,0,1.6-3.5,0.7-4.9
	c-0.1-0.1-0.2-0.2-0.3-0.4H308.5L308.5,179.2z M292.8,194.6c0,0-0.3,3.2-0.3,6.3c0,1.3,0,2.6,0.2,3.6c0.1,0.5,0.2,1,0.3,1.5
	c1,3.4,1.1,5.5,8.4,8.7c2.5,1.1,4.9,2.2,7.3,3.6c3.5,2,7.3,4.4,8.8,8.4v0.1c0.4,1,0.4,2.3,0.2,3.3c0-0.1-0.1-0.3-0.1-0.5
	c-0.3-0.6-0.9-1.1-1.2-1.7l0,0c-0.8-0.9-1.6-1.7-2.6-2.4l0,0l0,0c0,0-0.8,2.7-2,4.7c-0.7,1.1-1.4,2.4-2.2,4.1v0.1
	c-1.5,3.9,0.2,8,0.7,8s1.5-0.4,3.4-5.9c0-0.1,0.1-0.4,0.2-0.7c0-0.3,0-0.7-0.1-1.1c0,0,0,0,0-0.1c0.2-0.9,1.4-0.8,2.1-0.7
	c0.2,0,0.5,0.1,0.7,0.1c0.4-1.1,1-2.6,1.2-3.8c0.8-3,0.7-7.3-2.8-11.3s-12.6-7-16-8.7C295.5,208.4,292.4,200.2,292.8,194.6
	L292.8,194.6z M339.4,196.1c0,0-2.1,3.3-3.5,5.1s-7.3,8.4-11.8,7.9l0,0c0,0.2-0.1,1.6-3.1,3.6c0,0,5.1,1.6,9-0.5s9-11.8,15.5-9.7
	c6.5,2.3,4.7,13.1,6.5,17.1c1.7,3.9,6.6,5.7,6.9,5.8c-1.2-3.6-0.3-4.7-0.3-4.7c-3.9-2.3-4.6-11.1-4.7-13.4c0-2.3,0.3-6.1,0.3-6.2
	C351.4,202.6,340.8,199,339.4,196.1L339.4,196.1z M389,206.3c-0.2,0-0.3,0-0.5,0.1c-1.6,0.6-2.4,4.3-2.4,4.3
	c-0.3,1.1-0.7,2.2-1.2,3.3c-1,2.4-2.5,4.8-4.3,6.7c-1.4,1.4-2.9,2.2-4.6,3.1c0,0.2,0.1,0.4,0.2,0.6c1.2,2.9-2.5,3.9-2.5,3.9
	c6.3,0.3,8.8-3.4,11.3-7.5s4.1-14.5,4.1-14.5L389,206.3z M340.7,209.3c-2.1,0.1-3.9,1.3-4.6,3.2c-0.5,1.6-1.4,2.6-2.6,3.9v0.1
	c-0.9,1-1.6,1.4-2.4,2c-0.8,0.5-2,1.4-2.4,2.8l-0.7,1.9c-0.9,2.6,0.9,5.6,3.9,6.6c0,0-1.3-1.6-0.7-3.6v-0.1
	c-0.9-0.9-1.3-2.1-0.9-3.3l0.7-2c0.7-2.1,2.5-1.9,4.6-4.5c1.1-1.3,2.3-2.6,3-4.6c0.5-1.6,2.4-2.5,4.2-2.1
	C342.1,209.3,341.4,209.2,340.7,209.3L340.7,209.3z M343.6,209.7c1.7,0.7,2.6,2.6,2.1,4.2c-0.7,2-0.6,3.7-0.4,5.4
	c0.1,3.4,1.6,4.3,0.9,6.4l-0.7,2c-0.4,1.2-1.5,1.9-2.7,2.1c0,0,0,0,0,0.1c-0.7,1.9-2.7,2.5-2.7,2.5c3,1,6.2-0.3,7.1-2.9l0.7-1.9
	c0.5-1.4,0.1-2.8-0.2-3.7c-0.3-0.9-0.6-1.7-0.7-3l0,0l0,0c-0.1-1.7-0.2-3,0.3-4.6C347.9,213.7,346.3,210.9,343.6,209.7L343.6,209.7z
	 M296.4,216.1c0,0,0,0,0,0.1c-0.3,1-2.3,9.5-2.8,13.6c-0.5,4.4,0.2,6.5,1,9.1c0.8,2.5,4.7,13.4,5.6,16.4c0.1,0.4,0.3,0.8,0.4,1.4
	c1,3.8,2.8,11.1,6.4,14.9c4.1,4.4,8,6.3,12.8,8l0,0l0,0c2.4,0.8,4.7,1.4,7.1,1.7c2.4,0.3,5,0.2,7.9-0.3c5.9-1,12.7-7.1,15.2-8.9
	c2.6-1.8,12.2-8.2,14.4-9.7c2.2-1.5,4-2.8,6.3-6.6c2.2-3.8,6-12.6,6-12.6s-3.6-0.7-4.9-0.9c0,0,0,0-0.1,0.1
	c-0.5,0.9-4.9,8.6-6.5,10.2c0,0,0,0-0.1,0c0.9,0.5,3.7,2.3,4.2,4.3c0,0-4.6,4.3-10.3,6.8c-5.7,2.5-14.3,8-17.7,10.2
	c-1.3,0.9-3,1.6-5.3,2c-1.4-2.5-6.2-5.5-12.3-7.6c-6.4-2.2-12.3-2.6-14.8-1.2c-1.8-1.8-2.8-3.6-3.4-5.2c-1.3-3.9-4.9-13.4-8-18.9
	c-3-5.4-4.2-11.6-4.2-11.6c1.9-1.6,6.3-0.9,6.3-0.9c0-0.3-0.1-0.7,0-1.2c0-3.2,0.9-9.9,1.1-10.8c0-0.1,0-0.1,0-0.1
	C299.7,217.7,296.4,216.1,296.4,216.1L296.4,216.1z M391.4,229.7c-3.5,4.1-9.6,7.7-12.9,7.1c-3.7-0.7-12.8-3.8-18-2.7
	c-4.3,0.9-6.9,3.3-8.3,5.8l0,0c0,0,0,0,0-0.1c2.9-3.3,8.1-3.2,12.1-2.7c3.1,0.4,6.2,1,9.2,1.8c7.7,1.8,9.1,0.2,11.9-1.9
	c2.4-1.8,4.4-4.6,5.8-7.2C391.3,229.8,391.4,229.8,391.4,229.7L391.4,229.7z M357.3,240.1c-3.9-0.2-6.1,1.4-6.1,1.4l0,0
	c-0.2,0.3-1.1,2.1-1.4,4.5c0,0,1.5,0.7,1.8,0.8s0.7,0.3,0.8,0.6c0.4,0.5,0.5,0.7,0.5,0.7c-0.4,0.1-0.7,0.1-1.1,0.2
	c-0.2,0-1.1,0.3-1.1,0.6c-1.7,5.5-1.2,6.5-0.8,6.8c0.3,0.2,4.2-2,5.3-6c0,0,0.6-3.4,0.8-4.7C356.3,242.8,357.2,240.4,357.3,240.1
	L357.3,240.1L357.3,240.1L357.3,240.1z M481.6,246.5c-0.2,0.5-9.4,21.6-47.5,38.1l-0.2,0.2c0,0-31.7,18.8-79.8,22.3
	c1.5,2.3,2.9,4.6,4,6.8c15-0.8,30.1-2.9,44.4-6.9c9.2-2.5,18.2-5.8,26.7-9.8c8.6-4.1,17.1-9,24.6-15c4.9-3.9,9.4-8.2,13.6-12.8
	c5.8-6.4,11-14,13.8-22.2C481.4,247.1,481.6,246.5,481.6,246.5L481.6,246.5z M257.1,277c-0.1,0-0.2,0-0.2,0
	c-0.4,0.1-0.7,0.4-0.6,1.1c0.1,0.6,0.8,2.5-0.2,5.4s-3.1,4.7-5.2,5.6c-2.1,0.9-4.7,3-5.4,6.4s-2.6,7.9-2.1,10.9
	c0.2,1.1,1.3,2.7,3.9,2.6c-1.8,1.5-3.4,1.4-4.8,0.7c-2.1,3.9-5.4,5.6-11.2,4.4c-6-1.2-13.6-6.9-15.1-16.6c0-0.2,2-0.2,2.8-0.2h0.4
	c-0.4-0.5-0.7-1.1-0.8-1.9c0-0.4,0.2-0.9,0.4-1.5c-7.4,0-8.8-5.6-8.8-5.7c0,0-2.4,1.9-2.5,5.1c-0.3-1.3-1.3-2.4-2.7-2.6
	c-1.8-0.3-3.5,1-3.7,2.8c-0.3,1.8,1,3.5,2.8,3.7c1.8,0.3,3.5-1,3.7-2.8v-0.1c0,0.4,0.1,0.8,0.2,1.2c0.3,1.1,0.7,2,1.2,2.6
	c1,1.5,2.2,1.7,2.2,1.7l0.2-0.2c0.1-0.1,0.7-0.8,0.8-0.7c-0.8-0.5-4-2.9-2-8.2c0,0-0.1,4.8,3.8,7.3c0.4,2,3.5,13.8,15.2,17.5
	c12.7,4,17.6-2,18.7-4.3c0.5-1,1.8-4.3,1.8-4.3c1.1-3.2,3.9-15.4,4.9-16.8s4.2-7.2,2.9-12.4C257.8,277.7,257.6,277,257.1,277
	L257.1,277z M233.3,293.3c-4.1,0-8.5,0.1-11.6,0.5c-0.3,0.7-0.5,1.3-0.5,1.7c0,0.7,0.4,1.4,0.7,1.8c0,0,11.3,0.6,18.4,2.6
	c0.3-1,0.7-2.3,1.1-3.8c0.3-1,0.7-1.8,1.2-2.5c0,0,0,0-0.1,0.1C241,293.5,237.3,293.3,233.3,293.3L233.3,293.3z M370.9,315.1
	c-0.4-0.1-0.8,0.2-0.8,0.2c-4.2,3.4-5.2,9.9-5.2,11.7c0,1.8-5.2,13.2-6.2,16.4c0,0.1-0.9,2.9-1.1,4.5c-0.3,2.5-0.2,10.3,12.3,14.7
	c11.5,4.1,21.1-3.6,22.6-4.9c3.2,0.2,5.6-1.4,6.7-2.6c0.5-0.5,0.8-0.9,0.8-0.9c-1.2,4.1-3.8,5.1-5.4,5.3c-0.5,0.1-0.9,0.1-1.1,0
	c0,0.1,0,0.2,0.1,0.3c0.2,0.7,0.1,1.1,0.1,1.1s0.4,0.2,1,0.2c0.9,0.1,2.4-0.2,4.2-1.6c0.3-0.2,0.6-0.5,0.8-0.8
	c-0.7,1.5-0.2,3.4,1.4,4.2c1.6,0.9,3.6,0.3,4.4-1.3c0.9-1.6,0.3-3.6-1.3-4.4c-1.2-0.6-2.5-0.5-3.5,0.3c1-1.6,1.1-3.2,1-4.2
	c0-0.2-0.1-1-0.1-1l0,0c-1.3,1-2.8,1.6-4.4,1.6c-0.6,0-1.2-0.1-1.7-0.2c-0.8-0.2-1.5-0.5-2.2-0.8c-0.4-0.2-0.9-0.5-1.3-0.7
	c-0.3-0.2-0.5-0.4-0.8-0.6l0,0c-0.1,0.6-0.3,1.1-0.6,1.4c-0.5,0.6-1.2,0.9-1.7,1l0,0c0.8,0.7,1.7,1.2,2.4,2
	c-7.1,6.8-16.6,6.8-22.1,4.1c-5.4-2.6-6.9-5.9-6.3-10.3c-1.4-0.3-2.8-1.2-3.4-3.4c0,0,0.1,0.1,0.2,0.1c1.2,1,3.2,1.4,4.5,0.2
	c1.1-1.1,2-2.8,2.8-4.7c0.7-1.7,1.3-3.5,2.1-5.2c0.3-0.7,0.6-1.4,0.7-2.2c0.4-2.1-0.1-4.4-1.1-6.2c-1.1-2-1.7-4.8-0.7-7.6
	c1-2.8,2.6-3.9,3.1-4.4c0.5-0.4,0.4-0.9,0.2-1.2C371.2,315.2,371.1,315.2,370.9,315.1L370.9,315.1z M372.7,337.5
	c0,0-0.2,1.6-0.6,2.6c-0.5,1.5-1,2.7-1.4,3.7c6.3,2.8,12.3,6.4,16.2,9.1c0.6-0.2,1.2-0.5,1.6-1c0.3-0.4,0.5-1,0.6-1.7
	C384.8,345.8,375.4,338.8,372.7,337.5L372.7,337.5z M480.2,378c-4,1.7-8.1,3.3-12.2,4.8c-11.9,18.7-52.5,79.1-56.1,84.2
	c2.2,1.8,4.1,3.5,5.7,4.9c0.1,0,0.2,0.1,0.2,0.2C428.2,456.9,472.2,390.7,480.2,378L480.2,378z M369.7,446.8c-0.4,0-1.4,0.1-1.5,1
	c-0.1,0.7,0.2,1.4,1.3,1.7c1.1,0.3,4.5,0.6,8.3,4.2s5.2,8.3,5.1,12.3s1.3,9.6,6.2,13.3c4.9,3.6,10.6,9.8,15.7,11.2
	c0.3,0.1,0.6,0.1,0.9,0.2c3.3,0.3,6.5-2.7,6-4.4c1.1,3.7,0.1,6.3-1.5,8.2c5.6,5.5,8.3,11.8,6.6,17.5c-2.2,7.3-10.4,17.1-25.3,16.9
	c-10.6-0.1-16.8-3.1-19.5-4.8c0,0,0.9-2,1-2.2c-6.2,1.5-8.5-7.7-8.6-8.1c-3.5,15.9-10.2,16.2-12,16c-0.3,0-0.4-0.1-0.4-0.1
	s1.3,5.2,6.5,7.7c-2.4-0.7-5,0.1-6.4,2.3c-1.8,2.6-1,6.2,1.6,8c2.7,1.7,6.2,1,8-1.6c1.7-2.6,1-6.2-1.6-8c-0.1-0.1-0.3-0.1-0.4-0.2
	c0.7,0.3,1.4,0.5,2.3,0.6c6.9,1.1,9.2-2.2,9.2-2.2s-0.5-1-0.8-2.3c0,0-6.8,4.8-14.4-2.8c0.3,0.1,2.8,1,7.1,0.2c6.4-1,7.3-3,7.7-3.3
	c0-0.1,0-0.1,0.1-0.2c5.5,3,11.7,4.4,20.4,4.6c9.8,0.2,19.1-2.9,24.7-7.7c5.5-4.8,12-15,9.6-25.7c-2-9-13.5-17.8-16.1-19.7
	c-5.7-5-20.3-16.4-21.7-18.9c-1.5-2.7-8.3-11.9-17.5-13.7C370,446.8,369.9,446.8,369.7,446.8L369.7,446.8z M382.6,479.9
	c0,0-8.6,11.2-16.2,28c0.2,0.8,0.5,1.6,0.8,2.3c2.3,5,4.4,6.4,8.6,6.1c0,0,9.7-16.5,16.5-25.4c-1.4-1.2-3.1-2.7-5.1-4.5
	C384.9,484.3,383.5,482.1,382.6,479.9L382.6,479.9z M399.2,500.4c-2.7,3.5-5.7,8.2-8.2,12.2c-1.1,1.8-2.1,3.5-2.9,4.8
	c0.9,0.1,1.8,0.1,2.7,0.1c2.9,0,5.9-0.4,8.1-1.4c3.1-1.1,6.6-5.5,6.4-8.5c0-0.7-0.2-1.4-0.5-2.1C403.6,503.1,401,501.3,399.2,500.4
	L399.2,500.4z"/>
</svg>
