<svg version="1.1" id="Layer_1" xmlns="http://www.w3.org/2000/svg" xmlns:xlink="http://www.w3.org/1999/xlink" x="0px" y="0px"
	 viewBox="0 0 600 600" style="enable-background:new 0 0 600 600;" xml:space="preserve">
<style type="text/css">
	.st0{fill:#FFFFFF;}
</style>
<path id="Outline" class="st0" d="M549.5,216L549.5,216c-25.9-25.7-58.1-42.3-93.5-48c-48.3-43.5-104.6-27.9-107-27.2l-21.9,6.3
	c-0.5-0.4-1-0.8-1.5-1.2c-8.6-7.2-20.4-17-31.7-23.2c-27.4-15.3-68.3-13.2-98.1,5C144.8,80.1,79.4,87,43.2,96L0,106.8l42.9,12
	c17.5,4.9,31.1,12.6,41.8,23.8l2.2,38.9c1.9,34.8,7.7,70.7,36,98c10.9,10.3,29.5,20.4,58.8,31.7c2.4,0.9,4.8,1.8,7.1,2.7
	c3.1,1.2,6.1,2.3,9,3.4v12.8c0,0.8,0.1,19.5,11.4,41.3c9.9,19.2,30.7,44.7,73.4,59.2c6.9,10.8,14.9,20.7,23.7,29.5
	c32.5,32.5,75.7,50.4,121.8,50.4s89.3-18,121.7-50.7c32.5-32.7,50.4-76,50.2-121.9C600,291.7,582.1,248.5,549.5,216z"/>
<path id="Navy" d="M541.1,224.4c-24.9-24.7-56.4-40.5-90.5-45.3c-44.5-42.6-98.3-27-98.3-27c11.4,1.6,19,8.5,16,16
	c-1.9,4.9-10.2,5.2-14.1,5.2c-12,0.1-22.5-7.2-30.7-13.9c-8.7-7-22.6-19.5-35.4-26.5c-23.5-13.2-60.7-11.5-87.7,5.7
	c16.2,1,35.5,5.7,47.1,15.3c6.4,5.4,14.7,16,7.9,21.1c-5.8,4.3-20.4,2.1-27.9-2.1c-11.5-6.9-22.2-17.2-28.5-24.7
	C156.4,97.9,95.8,95,46.1,107.5c32.7,9.1,54.6,27.9,68,60s24,45.9,46.2,54.6c13.9,5.4,17.7,6.4,16.6,12.6c-1.6,9-18.1,4.6-30.7-0.1
	c-15.3-6-35.5-22.5-47.5-53.5c2.2,40.2,9.9,68.5,32.4,90.1c9.6,9.1,27.3,18.6,54.9,29.2c17.5,6.7,31.6,10.9,44.7,22.6
	c15.3,13.6,8.8,22.8-1.3,21c-11.5-1.9-19.6-13.6-19.6-13.6s0,65.3,80.8,90.5c6.7,11.1,14.8,21.6,24.3,31
	c30.3,30.3,70.6,46.9,113.5,46.9s83.2-16.8,113.3-47.2c30.3-30.4,46.9-70.7,46.8-113.6C588.2,295,571.6,254.7,541.1,224.4"/>
<path id="Blue" class="st0" d="M532.6,232.5c-24.1-24.1-55-38.8-88.3-42.6c-28.6-28.6-57.4-27.3-57.4-27.3
	c12.6,7.9,6.1,25.5-21.9,29.2c-27.7,3.9-62.8-5.5-80-25.5c-17.7-20.5-31-21.6-31-21.6c15.3,9.6,16.3,21,25.6,38.5
	c9.3,17.5,28.5,23.8,45.1,24.9c17.5,1.2,18,9.1,3.9,17.5c-15.4,9.1-29.1,0.4-39.1-9.3c-15.7-15.4-31.3-18.4-52.9-18.1
	c-21.6,0.3-50.1,3.1-74.2-5.8s-40-40.8-40-40.8c12,42.1,38.4,62.1,62.9,66.8c32.4,6.4,54.9,14.1,68.6,25.2
	c13.3,10.9,20.5,21.7,25.6,36.7c3.9,11.5,4.6,26.8,0.7,27.7c-4.5,1-5.4-5.1-10.6-15.9c-5.8-11.8-12.7-21.1-26.8-28.6
	c-19-10.2-37.6-9.6-56.5-9.3c-15,0.1-23.8-1.5-23.8-1.5s0.6,2.1,25.2,7.5c27.3,6.1,53.7,21.6,71.2,59.1c15,31.9,7.2,54.4-25.9,44.2
	c0,0,15.4,34.3,65.9,46.6c6.4,11.4,14.7,22.2,24.1,31.8c28,28,65.2,43.5,104.8,43.5S504.6,470,532.6,442c28-28,43.3-65.2,43.3-104.8
	C576.1,297.7,560.6,260.5,532.6,232.5"/>
<path id="White" d="M427.8,196.4c37.6,0,73,14.7,99.7,41.2c26.7,26.7,41.2,62.1,41.2,99.7c0,77.8-63.2,141-140.9,141
	c-37.6,0-73-14.7-99.7-41.4c-26.7-26.7-41.2-62.1-41.2-99.7s14.7-73,41.2-99.7C354.8,211,390.2,196.4,427.8,196.4"/>
<path id="White_1_" class="st0" d="M396.4,311.2h-38.1l-12.6,22.5l-16.9-48h197.8l-16.9,48l-12.4-22.5h-37.5L428,450.3L396.4,311.2z
	"/>
<path id="Red_Flame" class="st0" d="M330.7,174.5c-28.6-0.7-40.3-12.1-58.2-26.5c-21.7-17.5-46-12.6-46-12.6
	c14.5-8.2,43-8.7,63.5,9.3C308.4,160.7,317.4,169.4,330.7,174.5z M85.8,111.2c32.1-6,58.8,4,79.1,40c19.8,35.2,56.1,36.1,56.1,36.1
	c-27.6,7.8-65.2,0.7-84.8-34.6C112.6,110.5,85.8,111.2,85.8,111.2z M237.8,315.2c-15.7-21.7-40.5-27-74.2-36
	c-48.3-12.9-48.7-55.2-48.7-55.2s7.2,29.2,63.4,40.6C234,276.1,237.8,315.2,237.8,315.2z"/>
<path id="Red_Stars" class="st0" d="M447.2,273.2l-19.3-13.9l-19.2,14.2l7.2-22.6l-19.3-13.8l23.8-0.3l7.2-22.6l7.5,22.6h23.8
	l-19.2,13.9L447.2,273.2z M362.3,353.1l-2.4,23.7l21.9,9.4l-23.2,5.1l-2.2,23.7l-12-20.5l-23.2,5.2l15.9-17.8L325,361.4l21.7,9.6
	L362.3,353.1z M473.8,386.9l21.7-9.9l-2.7-23.7l16,17.7l21.6-9.9l-11.8,20.7l16,17.5l-23.4-4.8l-11.7,20.7l-2.5-23.7L473.8,386.9z"
	/>
</svg>
