<?xml version="1.0" encoding="utf-8"?>
<!-- Generator: Adobe Illustrator 25.2.3, SVG Export Plug-In . SVG Version: 6.00 Build 0)  -->
<svg version="1.1" id="Layer_1" xmlns="http://www.w3.org/2000/svg" xmlns:xlink="http://www.w3.org/1999/xlink" x="0px" y="0px"
	 viewBox="0 0 600 600" style="enable-background:new 0 0 600 600;" xml:space="preserve">
<style type="text/css">
	.st0{fill:#FFFFFF;}
	.st1{fill:#555555;}
</style>
<path id="White" class="st0" d="M540.3,354c-21.3-15.1-47-18.4-71.8-21.8c-47.5-6.2-84.9-11.1-90.2-88.7
	c-7.9-112.9-10.6-138.8-39.1-159.5c-1-7.9-6.7-53-6.7-53c-1.8-15.3-15.9-26.2-31.2-24.1l-86.7,10.9c-7.4,0.8-13.9,4.7-18.6,10.6
	c-3,4-5,8.6-5.5,13.4c-12.1-0.7-23.8,6.5-28,18.4c0,0-14.9,42.1-17.8,50c-17.3,7.7-31.2,32.2-46.6,81.5l-8.7,28.5
	c-16.9,56-30.5,100.3-55.8,127.6C11.7,371.1,0,396.6,0,419.9c0,7,1,13.9,3.2,20.3c6.5,19.5,26,44.8,82.3,55
	c30.9,5.4,66.7,27.5,101.3,49c23.8,14.8,49.3,30.5,72.3,40.1c14.8,6.2,40.1,17.1,110.7-0.7c3.7-0.8,11.4-4,13.9-16.3
	c0.5-2.5,0.8-5.5,0.8-8.7c0-23.8-16.6-65.2-61.5-103.6c32,3.2,68.1,10.9,94.6,20.1c43.9,15.4,126.4,26,173.9-8.4
	c3.9-2.5,8.2-8.2,8.6-18.6C600,426.5,581.9,383.4,540.3,354"/>
<path id="Red" class="st1" d="M534.3,362.6c-56.8-40.4-157.3,11.6-166.5-118.4c-8.2-118.1-11.2-136.2-38.4-154.3L322,32.2
	c-1.2-9.4-9.9-16.3-19.3-14.9L216,28.2c-8.4,1-14.6,7.9-15.1,15.9c3,1.2,8.6,3,15.3,5.4l-0.7-5.5c-0.2-1.5,0.8-2.9,2.3-3
	s2.9,0.8,3,2.3l1,8.2c3.7,1.3,7.7,2.7,11.7,4.2l-1.7-12.9c-0.2-2,1.2-3.7,3-3.9s3.7,1.2,3.9,3l2,16.4c3.5,1.2,6.9,2.5,10.2,3.7
	l-2.5-20.5c-0.3-2.3,1.3-4.5,3.7-4.7c2.3-0.3,4.5,1.3,4.9,3.7l3,24.7c3.4,1.2,6.5,2.3,9.2,3.4l-3.7-29c-0.3-2.3,1.3-4.5,3.7-4.7
	c2.3-0.3,4.5,1.3,4.7,3.7l4.2,33.4c1.2,0.5,2,0.7,2,0.7c3.2,1.2,6,2.9,8.4,4.9l-5-40.7c-0.2-1.8,1.2-3.7,3-3.9s3.7,1.2,3.9,3
	l6.7,54.2c1,2.9,1.5,5.9,1.5,8.9s-0.5,6.2-1.7,9.4c0,0-15.1,42.6-17.9,50.3c3.4,6.7,4.9,13.6,4.9,20.8c0,21.3-12.6,44.3-24.1,65.4
	c-4.9,8.9-9.6,17.4-13.1,25.3c-17.8,43.4-26.3,70.3-26.3,88.5c0,9.7,2.3,16.9,7.2,23.1c0.2-11.6,2.3-20.5,3.5-24.8
	c11.4,3.7,45.3,14.3,62.2,17.9c0,0-1.3,34.9,2.9,59.9c2,1.5,3.7,3,4.9,4c2.2,1.5,4.4,3,6.5,4.7c38.2,2.2,83.7,11.7,113,22
	c45.6,15.9,122.6,23.5,164.5-7.2C597.3,450.8,582.4,396.8,534.3,362.6 M312.4,96.5c-1.5,0.2-2.9-0.8-3-2.3l-7.5-60.7
	c-0.2-1.5,0.8-2.9,2.3-3s2.9,0.8,3,2.3l7.5,60.7C314.9,94.8,313.9,96.3,312.4,96.5 M574.2,447.3c-14.6,9.7-34.2,14.6-55,16.1
	c-4.5,0.2-7.4-1.5-8.4-5l-15.1-40.9c-1.5-3.4-1.7-6.5,3-8.9c0,0,30.9-13.4,34.4-15.3c3.5-1.8,7.7-5.2,11.9-1
	c20.6,21.8,29.2,45.6,29.2,54.8C574.3,446.9,574.2,447.1,574.2,447.3 M296.5,448c-4.2-3.4-28.7-24.5-63.4-48s-26.7-58.5,4.5-134.7
	C252.9,231,287.8,188,268,159l19.5-54.8c3.2-9.1-1.5-18.9-10.6-22.1l-82.3-29.2c-9.1-3.2-18.9,1.5-22.1,10.6l-19.3,55
	c-15.1,3.4-28.8,25.5-44.8,76.3c-21.7,69.4-35.6,126.2-67,160.1C-3.4,403-8.4,467.6,87.4,484.8c55,9.6,119.9,66.4,174.9,89.4
	c13.2,5.5,34.7,16.8,105-0.8C382.5,570.4,376.6,503.6,296.5,448 M81.8,468.1C52,461.2,33.4,449,27.7,432
	c-5.7-17.3,1.8-39.9,20.3-61.9c21,8,38.6,17.8,51.6,26.7C90.4,416.4,84,441.1,81.8,468.1 M272.5,94.6c1.3,0.5,2.2,2,1.7,3.5
	l-20.6,57.5c-0.5,1.3-2,2.2-3.5,1.7c-1.3-0.5-2.2-2-1.7-3.5L269,96.3C269.5,94.8,271,94.1,272.5,94.6 M256.1,88.8
	c1.8,0.7,2.9,2.7,2.2,4.5l-20.1,56c-0.7,1.8-2.7,2.9-4.5,2.2s-2.7-2.7-2.2-4.5l20.1-56.2C252.2,89.1,254.2,88.1,256.1,88.8
	 M239.6,82.9c2.2,0.8,3.4,3.2,2.5,5.5l-19.6,54.7c-0.8,2.2-3.2,3.4-5.5,2.7c-2.2-0.8-3.4-3.2-2.5-5.5L234,85.6
	C234.9,83.2,237.5,82,239.6,82.9 M168.2,128c-1.3-0.5-2.2-2-1.7-3.5L187,67c0.5-1.3,2-2.2,3.5-1.7c1.3,0.5,2.2,2,1.7,3.5l-20.6,57.5
	C171,127.8,169.5,128.5,168.2,128 M184.6,133.9c-1.8-0.7-2.9-2.7-2.2-4.5l20-56c0.7-1.8,2.7-2.9,4.5-2.2s2.7,2.7,2.2,4.5L189,131.9
	C188.3,133.5,186.3,134.5,184.6,133.9 M200.9,139.7c-2.2-0.8-3.4-3.2-2.5-5.5l19.5-54.7c0.8-2.2,3.2-3.4,5.5-2.5
	c2.2,0.8,3.4,3.2,2.5,5.5l-19.5,54.7C205.6,139.4,203.2,140.6,200.9,139.7 M358.7,559.6c-26,6.2-44.1,8-57.4,7.9
	c-4.7,0.7-8.6-1.7-9.4-7.2l-4.9-42.8c0.2-4.4,1.5-8,6.9-8.2c12.7,0.2,28-1.2,32.7-2.7c7-2.3,8.9-1.5,9.7-0.3
	c17.3,23.1,22.5,42.9,22.5,52.2C358.9,559,358.7,559.3,358.7,559.6"/>
</svg>
