<?xml version="1.0" encoding="utf-8"?>
<!-- Generator: Adobe Illustrator 25.2.3, SVG Export Plug-In . SVG Version: 6.00 Build 0)  -->
<svg version="1.1" id="Layer_1" xmlns="http://www.w3.org/2000/svg" xmlns:xlink="http://www.w3.org/1999/xlink" x="0px" y="0px"
	 viewBox="0 0 600 600" style="enable-background:new 0 0 600 600;" xml:space="preserve">
<style type="text/css">
	.st0{fill:#FFFFFF;}
	.st1{fill:#AAAAAA;}
</style>
<path id="Outline" class="st0" d="M136.4,0c-16.3,0-29.8,13.4-29.8,29.8c0,10.1,5.2,19.2,13,24.6v440.4L299.7,600l180-105.2v-440
	c8.2-5.3,13.7-14.6,13.7-25c0-16.3-13.5-29.8-29.8-29.8s-29.8,13.4-29.8,29.8c0,10.6,5.6,19.9,14,25.2v8.2
	c0,21.4-17.2,38.7-38.6,38.7s-38.5-17.2-38.5-38.7V55c8.4-5.3,14-14.6,14-25.2c0-16.3-13.4-29.8-29.8-29.8
	c-16.3,0-29.8,13.4-29.8,29.8c0,10.4,5.4,19.6,13.6,24.9v8.5c0,21.4-17.2,38.7-38.6,38.7s-38.4-17.3-38.4-38.8v-8
	c8.5-5.3,14.3-14.7,14.3-25.4c0-16.3-13.4-29.8-29.8-29.8c-16.3,0-29.8,13.4-29.8,29.8c0,10.2,5.3,19.3,13.2,24.7v8.8
	c0,21.4-17.2,38.7-38.6,38.7s-38.5-17.3-38.5-38.7v-8.6c8.1-5.4,13.5-14.5,13.5-24.8C166.2,13.4,152.7,0,136.4,0z"/>
<path id="Blue" d="M129.2,166.9v322.4L299.7,589l170.4-99.7V166.9H129.2z"/>
<path id="Gold" class="st1" d="M136.4,9.6c-11.2,0-20.2,9-20.2,20.2s9,20.2,20.2,20.2s20.2-9.1,20.2-20.2
	C156.6,18.6,147.6,9.6,136.4,9.6z M246.4,9.6c-11.2,0-20.2,9-20.2,20.2s9,20.2,20.2,20.2c11.2,0,20.2-9.1,20.2-20.2
	C266.6,18.6,257.5,9.6,246.4,9.6z M355.1,9.6c-11.2,0-20.2,9-20.2,20.2S344,50,355.1,50s20.2-9.1,20.2-20.2
	C375.3,18.6,366.2,9.6,355.1,9.6z M463.6,9.6c-11.2,0-20.2,9-20.2,20.2S452.5,50,463.6,50c11.2,0,20.2-9.1,20.2-20.2
	C483.8,18.6,474.8,9.6,463.6,9.6z M129.2,63v94.7h340.9V63.2h-8.5h-4.2c0,26.6-21.6,48.2-48.2,48.2s-48-21.7-48-48.3h-12.8
	c0,26.6-21.6,48.3-48.2,48.3s-48-21.8-48-48.4l-12.9,0.1c0,26.6-21.5,48.2-48.2,48.2c-26.6,0-48.1-21.7-48.1-48.3L129.2,63L129.2,63
	z"/>
<path id="White" class="st0" d="M440.8,427.2c-0.1-0.2-0.2-0.3-0.3-0.4c-11.7-19.7-32.3,3.4-14.3,12.1c0.1,0.1,0.2,0.1,0.3,0.2
	c1.3,0.7,2.1,1.7,2.1,3.3c0,1.2-0.2,2.6-1.1,4.9c-9.2,23.2-42.9,33.8-67.9,12.6c-16.6-14.1-29.3-42.1-28.5-89.7
	c0.6-32.3,8.2-79.7,49.2-78.4c15.9,0.5,26.5,7.3,33.5,16.1c10.8,13.5,13.3,31.6,13.8,39.2h6h3.8v-65.8v-6.8H426
	c-2,8.4-3.4,15.9-18.7,11.7c-15.3-4.2-21.9-3.5-27.2-3.8c-46.9-2.1-79,50.7-74,94.3c0.1,0.9,0.1,1.7,0.2,2.5
	c-7.3-5.3-16.9-32.1-34.4-51.9c-7.9-8.9-17.4-16.2-29-19.6c-3.2-0.9-6.5-1.7-10-1.9c0,0,29.3-44.2,44.1-62.5
	c11.5-14.3,20.2-14.3,27.2-14.3h4.5v-2.8v-6.8h-64.3v9.7c2.3,0,4.7,0,6.8,0.2c5.5,0.4,9.7,2,9.3,7.1c-0.2,1.8-0.7,3.8-2.1,6.6
	c-5.4,10.7-30.3,46.4-41.8,62.6c-0.6,0.9-1.2,1.7-1.8,2.5l-5,2.9v-57.4c0-17.1,10.6-23.4,21-24.2v-3v-6.8h-30.6h-41.9v9.6l3.7,0.1
	c1,0,2.1,0.1,3.1,0.2c6.5,0.6,13,3.5,16.9,9.9c2.2,3.6,3.6,8.1,3.6,14.1v128.3c0,18.4-12.4,24.4-23.5,24.2l-3.7,0.1v9.6h6.8h32.6
	h39.4v-3.1v-6.5l-3.7-0.1c-4.5,0.1-9.2-1-13.2-3.3c-5.9-3.5-10.3-9.9-10.3-20.9l-0.2-33.5l0.3-18.9c6.7-6.5,24.3-18.3,45.9,6.4
	c0.6,0.7,1.2,1.2,1.8,2c20.7,25.2,38.1,87.9,74.9,121.4c14.6,13.3,32.1,22,54.1,22C436.6,481.3,446.1,436.6,440.8,427.2"/>
</svg>
