<?xml version="1.0" encoding="utf-8"?>
<!-- Generator: Adobe Illustrator 25.2.3, SVG Export Plug-In . SVG Version: 6.00 Build 0)  -->
<svg version="1.1" id="Layer_1" xmlns="http://www.w3.org/2000/svg" xmlns:xlink="http://www.w3.org/1999/xlink" x="0px" y="0px"
	 viewBox="0 0 600 600" style="enable-background:new 0 0 600 600;" xml:space="preserve">
<style type="text/css">
	.st0{fill:#FFFFFF;}
	.st1{fill:#AAAAAA;}
	.st2{fill:#555555;}
</style>
<path class="st0" d="M337.5,600h171c-15.8-10.7-29.7-29.5-36-51l-47.8-164c-5.2-17.7,3.2-35.3,16.7-47.3
	c-19.1-5.9-36-19.1-41.3-37.4l-26.8-91.8c38.1-12.7,62.9-35.3,62.9-61.5c0-34.2-42.3-62.2-101.3-70.2L312.5,0h-25l-22.4,76.8
	c-59,8-101.4,36-101.4,70.2c0,26.2,24.9,48.8,62.9,61.5l-26.8,91.8c-5.3,18.3-22.3,31.5-41.3,37.4c13.4,11.9,21.9,29.6,16.7,47.3
	l-47.8,164c-6.3,21.5-20.2,40.3-35.9,51h171c-14-10.7-21.6-29.5-15.3-51l4.2-14.3h97.3l4.1,14.3C359,570.5,351.4,589.3,337.5,600z
	 M285.2,418.5l14.8-50.7l14.7,50.7H285.2z"/>
<path d="M479.7,588.4c-8.2-10.7-14.6-23.1-18.5-36.1l-47.5-162.9c-7.5-25.9,6.4-44.2,8.2-47.2c-16.5-8.9-28.6-22.5-33.2-38.6
	l-28.9-99.2c40.7-10.8,68.5-32.5,68.5-57.4c0-31.5-44.6-57.9-103.8-63.7l-20.9-71.7H296l-20.9,71.7c-59.2,5.8-103.9,32.1-103.9,63.7
	c0,24.9,27.8,46.5,68.6,57.4l-28.9,99.2c-4.7,16.1-16.7,29.7-33.2,38.6c1.9,2.9,15.8,21.3,8.2,47.2l-47.5,162.9
	c-3.8,13-10.3,25.4-18.5,36.1h118.4c-9.5-21.1-4.5-36.5-0.2-50.9l4.2-14.4h114.8l4.2,14.4c4.2,14.5,9.2,29.8-0.3,50.9H479.7z
	 M269.6,430.2L300,326l30.3,104.2H269.6z"/>
<g>
	<path class="st1" d="M319.2,130.6c-6.2-0.3-12.7-0.6-19.2-0.6v34l91.2,312.6l21,71.7l36.1,21.6c-2.5-5.5-4.8-11.1-6.5-16.8
		l-45.4-155.4c-7.1-24.3-3.2-34.8,2-49.4c-13.6-10.5-22.7-24.1-27.1-39.4L319.2,130.6z"/>
	<path class="st1" d="M310.7,101.1L300,64.5v36.4C303.6,100.9,307.2,100.9,310.7,101.1"/>
	<path class="st1" d="M187.2,550.3l29.1,19.7c-1.6-9.8-0.1-22.7,2.7-31.8l9.7-33.5l-20-28L187.2,550.3z"/>
	<polygon class="st1" points="245,448.6 300,260.3 300,164 208.8,476.6 391.2,476.6 354.8,448.6 	"/>
</g>
<g>
	<polygon class="st2" points="300,260.3 354.8,448.6 391.2,476.6 300,164 	"/>
	<path class="st2" d="M448.2,569.9l-36.1-21.6l-21-71.7H208.6l20,28H371l9.8,33.4c2.6,9.2,4.1,22,2.6,31.8L448.2,569.9z"/>
	<path class="st2" d="M300,164v-34c6.6,0,13,0.2,19.2,0.6l-3-10.4c-0.8-0.1-1.6-0.1-2.5-0.1c-4.5-0.2-9.1-0.4-13.8-0.4l0,0V64.5
		l-71.2,244.4c-4.4,15.3-13.4,29-27.1,39.4c5.1,14.7,9.1,25.1,2,49.4l-45.5,155.4c-1.7,5.8-3.9,11.4-6.5,16.8h64.7l-29.1-19.7
		L300,164z"/>
</g>
<path class="st0" d="M268.5,172.5L268.5,172.5c-33-4-56.5-13.9-56.5-25.5c0-13.4,30.9-24.5,71.8-26.8c5.3-0.3,10.7-0.5,16.3-0.5
	c4.7,0,9.3,0.1,13.8,0.4c0.8,0,1.7,0.1,2.5,0.1l0,0c40.8,2.4,71.8,13.4,71.8,26.8c0,11.6-23.5,21.6-56.5,25.5l0,0l5.2,18h0.1
	c42.5-6.4,73.1-23.4,73.1-43.5c0-24-43.5-43.7-99.1-45.9c-3.5-0.1-7.1-0.2-10.7-0.2s-7.2,0.1-10.7,0.2c-55.7,2.3-99.1,22-99.1,45.9
	c0,20.1,30.5,37.2,73,43.5c0,0,0,0,0.1,0"/>
</svg>
