<?xml version="1.0" encoding="utf-8"?>
<!-- Generator: Adobe Illustrator 25.2.3, SVG Export Plug-In . SVG Version: 6.00 Build 0)  -->
<svg version="1.1" id="Layer_1" xmlns="http://www.w3.org/2000/svg" xmlns:xlink="http://www.w3.org/1999/xlink" x="0px" y="0px"
	 viewBox="0 0 600 600" style="enable-background:new 0 0 600 600;" xml:space="preserve">
<style type="text/css">
	.st0{fill:#FFFFFF;}
	.st1{fill:#555555;}
</style>
<path id="Outline" class="st0" d="M391.6,383.7L391.6,383.7v0.1l-13.9,71.5c-0.9,4.9-5,8.6-10,8.9c-0.2,0-0.4,0-0.6,0
	c-0.9,0-1.7-0.1-2.5-0.4c-2.5-0.6-4.7-2.1-6.3-4.3c-1.6-2.3-2.3-5.2-1.8-8v-0.1v-0.1l13.8-71.7v-0.1v-0.1c1.1-5,5.6-8.6,10.7-8.6
	c0.6,0,1.1,0,1.7,0.1h0.1h0.1C388.9,372.4,392.6,377.9,391.6,383.7z M272.8,451L272.8,451L272.8,451c-1.1-0.4-2.2-0.5-3.3-0.5l0,0
	c-4.7,0-8.8,3-10.2,7.5c0,0.1,0,0.1-0.1,0.2L219.7,586c-1.7,5.5,1.3,11.4,6.7,13.3c1,0.4,2,0.6,3.1,0.7h0.4h0.4
	c4.5-0.2,8.4-3,9.9-7.2l0.1-0.2l0.1-0.2l39.4-128C281.5,458.8,278.4,452.8,272.8,451z M220.7,287.5L220.7,287.5
	c1.6,1,3.4,1.5,5.2,1.5c0.1,0,0.2,0,0.3,0c3.9-0.1,7.4-2.3,9.2-5.7l56.9-101.7v-0.1v-0.1c2.7-5.2,0.8-11.6-4.3-14.5
	c-1.6-0.9-3.4-1.4-5.2-1.4l0,0c-3.8,0-7.4,2.1-9.3,5.4l0,0l0,0L216.6,273c-1.4,2.4-1.7,5.3-1,8.1
	C216.4,283.8,218.2,286.1,220.7,287.5z M576.6,225.6c-3.7-10.6-13.4-16.9-25.8-16.9c-2.7,0-5.5,0.3-8,0.9
	c-2.4-13.1-9.4-20.4-16.6-28c-1.8-1.8-3.6-3.7-5.4-5.7c-0.1-1.7,0.5-2.9,2.1-5.5c1.6-2.7,3.6-6.1,4.2-10.7c0.6-5.1-0.6-9.6-3.3-12.7
	c-2.4-2.7-5.8-4.2-9.4-4.2l0,0c-4.6,0-9.3,2.4-12.6,6.6c-3.3,4.1-8.3,13.6-4.9,31c-1,4.6-3.1,12-5.9,20.3c0.2-4.6-1-9.1-4.7-13
	c-2.6-2.6-5.9-3.9-9.9-3.9c-2.1,0-4.2,0.4-6.2,0.7c-1.6,0.3-3,0.5-4.4,0.6c-0.4-2.9-1.3-6-3.3-8.3l-0.2-0.3l-0.3-0.3
	c-2.4-2.3-5.5-3.5-8.9-3.5c-3.2,0-6.2,1.2-8.6,3.3c-8.5,6.9-9.1,21.7-5.8,30.6c-0.6,4-1.3,7.4-2,10.6c-1.3-3.5-3.5-6.6-6.5-9.1
	s-6.9-3.8-11.2-3.8c-9.5,0-19.8,5.9-27.6,15.9c-1.9,2.4-3.9,5.4-5.8,9l1.6-11.7c2.2-1.5,3.8-3.9,4.3-6.6l17.2-77
	c0.7-2.8,0.2-5.6-1.3-8.1c-0.9-1.5-2.2-2.8-3.7-3.7c4.9-0.9,9.6-2.4,14-4.4l-13,71.3c-1.1,5.7,2.6,11.4,8.3,12.6l0.7,0.2h0.7h0.8
	l0,0l0,0c5.1,0,9.5-3.7,10.5-8.7V193v-0.1l14.2-77.3l0,0l0,0c0.7-4.1-1-8.1-4.1-10.5c6.8-6.7,12-15.1,15.1-24.6l0.1-0.2
	c5.1-15.4,3.7-32.6-3.8-47C436.6,12.8,415.7,0,392.5,0c-9.7,0-19.4,2.4-28.1,6.8C349.8,14.3,339,27.1,334,42.7
	c-3.5,10.9-3.9,22.3-1.2,33.2c-3.8,0-7.4,2.1-9.3,5.4l0,0l0,0l-38.6,69.3c-2.8,5.1-1.1,11.6,3.9,14.6l0.4,0.3l0.5,0.2
	c1.4,0.6,3,0.9,4.5,0.9l0,0h0.1c3.9,0,7.4-2.1,9.3-5.6l37.1-66.7c3.1,4.9,6.8,9.2,11,13c-0.5-0.1-0.9-0.1-1.4-0.1l0,0
	c-4.2,0-8.1,2.5-9.8,6.4l-27.7,63.1v0.1v0.1c-2.1,5.2,0.2,11.3,5.2,13.8c1.4,0.7,3,1.1,4.6,1.1l0,0l0,0c4.3,0,8.1-2.6,9.8-6.5
	l27.6-63c1.3-2.9,1.2-6,0-8.7c3,1.9,6.2,3.5,9.6,4.8c-3.6,0.9-6.5,3.6-7.7,7.2l0,0l0,0l-29.2,94.6c-1.8,5.4,1,11.4,6.4,13.4
	c1.1,0.5,2.4,0.8,3.6,0.8c0.1,0,0.2,0,0.3,0c-5.5,1.8-10.9,5.2-15.6,10c-2.7,2.8-5.6,6.4-8.3,11.1c2.5-13.7,5.1-26.6,7-36
	c0.6-3.2,1.2-6,1.7-8.4l2.9-14.9l-13.3,7.4c-4.1,2.3-8.6,3.8-13.4,4.3l-5.1,0.6l-1,5c-3.2,16.2-7.7,38.8-10.2,50.9
	c-1.7-0.4-3.5-0.6-5.3-0.6c-2.3,0-4.5,0.3-6.7,1c-15.7,3.9-27.1,21.9-30.4,36.3c-3.3-5.4-7.8-8.9-13.5-10.7
	c-2.9-0.9-5.9-1.3-8.9-1.3c-9.7,0-19.2,5-26.6,13.9c-2.3,2.8-4.4,5.9-6.2,9.2c-1.9-15.3-7.3-32.6-20.7-45.7
	c-11.7-11.5-27.9-17.7-46.8-17.7c-22,0-45.8,8.3-65.2,22.7c-21,15.5-33.8,35.8-36.1,57.1c-1.6,14.7-1.3,35.3,20,44.1
	c2.7,1.1,5.5,1.7,8.5,1.7c11.6,0,22.2-8.5,26.2-14.5c1.1-1.7,2.1-3.4,3-5.2c-1,8.6-1.6,16.9-2.1,24.4c-0.6,8.9-1.4,19.6-2.8,24.7
	c-26.2,5.2-41.1,22-44.3,37c-1.7,8,0.2,14.7,5.2,17.9c2.1,1.4,4.8,2,8.1,2c11.3,0,33.4-9,49.9-33.4c0.9,0.1,1.9,0.1,2.9,0.2
	c3.8,0.3,8.6,0.7,13.9,0.7c8.5,0,16.2-1,23.3-3.2c-1.1,0.8-2,1.9-2.7,3.1v0.1v0.1l-29.5,53.1v0.1v0.1c-2.7,5.2-0.8,11.7,4.3,14.5
	l0.3,0.1l0.3,0.1c1.4,0.6,2.9,0.9,4.4,1c0.1,0,0.2,0,0.3,0c3.9,0,7.5-2.1,9.3-5.6l29.5-53.1c2.9-5.1,1.1-11.6-4-14.5l-0.1-0.1
	l-0.1-0.1c-1.5-0.8-3.3-1.2-5-1.2c-0.1,0-0.1,0-0.2,0c1.2-0.5,2.3-1,3.5-1.6c13.3-6.5,24.3-17.5,32.6-32.8c3.1-5.7,5.8-12,8.1-18.7
	c2.8,6.9,7.7,12.8,13.9,16.9l0.4,0.3l0.4,0.2c3.5,1.7,7.2,2.6,11,2.6c10.7,0,21.4-6.8,29.3-18.8c4.3-6.5,7.5-14.1,9.6-22.5
	c3.4,6.9,8.7,12.3,16.6,13.4c1.1,0.2,2.3,0.3,3.4,0.3c12,0,19.6-8.9,24-16.6c2.7,1.5,5.9,2.3,9.1,2.3h0.1h0.2
	c11.5-0.5,17.5-9.3,20.9-17.1c2.9,1.5,5.7,2,8,2.1c-5.6,8.4-10.8,16.6-13.2,20.3c-33.8,12.3-100,37-128.2,79.3l-9.3,14l16.5-3.1
	c0.4-0.1,0.9-0.2,1.3-0.2c-1.6,1.1-2.9,2.6-3.7,4.4l-0.1,0.2l-19.9,45.5c-1.2,2.6-1.3,5.4-0.3,8c1,2.7,2.9,4.8,5.5,6
	c0,0,0.1,0,0.2,0.1c1.4,0.7,2.9,1,4.4,1h0.1h0.1c4.2-0.1,7.9-2.6,9.6-6.4l20-45.6c2.4-5.3,0.1-11.6-5.2-14.1c-0.1,0-0.2-0.1-0.3-0.1
	c-0.2-0.1-0.4-0.2-0.6-0.2c1.8-0.1,3.5-0.2,5.3-0.2c7.3,0,14.6,0.9,21.6,2.7l6.1,1.6l2.2-5.9c2.2-5.9,13.1-17.3,30.4-28
	c-0.2,0.5-0.4,0.9-0.6,1.4v0.1v0.1l-7,22.7c-1.7,5.6,1.2,11.5,6.7,13.5l1.1,0.4h0.8c0.4,0.1,0.9,0.1,1.5,0.1c4.7,0,8.9-3.1,10.3-7.7
	l7-22.7c1.8-5.6-1.3-11.6-6.9-13.4l0,0l0,0c-0.8-0.3-1.6-0.4-2.4-0.5c3.8-2,7.8-3.9,12-5.7c-2.7,12.7-1.6,25.7,3.5,33.9
	c3.8,6.1,9.7,9.5,16.5,9.5h0.3c1.7,0,3.3-0.2,4.9-0.5c-2.5,1.4-4.4,3.8-5.1,6.8v0.1v0.1l-10.9,49.1c-1.3,5.7,2.2,11.5,7.9,12.9h0.1
	h0.1l0.8,0.2h0.8h0.9c5,0,9.4-3.6,10.4-8.4l11-49.1c1.3-5.7-2.2-11.4-7.8-12.8c-0.1,0-0.2,0-0.3-0.1H329h-0.1
	c-0.7-0.1-1.3-0.2-2-0.2l0,0h-0.1c10.2-3.8,18.8-13.2,25.6-28.1c6.4-14.1,10-30.2,12.2-40.5c10.4-4.4,23.7-9.8,38.9-15.9
	c23-9.3,49.1-19.9,76.3-31.5c20-8.6,49-22,70-38.5C575,267.4,584,246.6,576.6,225.6z"/>
<path id="Blue" d="M553.8,255.5c-16.3,24.7-61.3,42.1-192.1,89.7c1.1-8.3,3.3-23.2,4.9-33.3c2.9-5.2,6.4-10.7,10.2-16.2l1-1.5
	c2.8-4.1,5.9-8,9.3-11.7c3,5,7.7,11.8,17.3,11.6c32.4-0.9,46.6-61.6,51.6-85.3c2.6,0.6,5.3,0.9,7.9,0.9c-2.3,7.7-20.4,48.7,3.6,55.6
	c23.9,7,38.6-59,42.8-73.4c14.6,16.8,10.9,34.5,3.5,38.2c-3.8,1.9-8-3.9-12.3,0.1c-6.3,6-2.1,16,6.5,17.5c12.4,2,20.6-6.4,28.8-15.1
	c2.6-2.6,12.3-8.5,18.2-4.3C564.2,234.6,557.7,249.6,553.8,255.5z M339.5,305.4c-13.2,2.5-8.9-49,10.7-51.4
	c3.8-0.4,7.7,4.1,6.9,11.7c-0.7,7-2,14-3.9,20.7C350.7,294.2,346.5,304.2,339.5,305.4z M416.2,225.1c9.8,4.9-7.3,25.5-15.1,33.9
	C402.4,240.1,411.8,222.9,416.2,225.1z M345.9,350.5c0,0-4.5,2-6.7,2.8c3-4.4,8.4-14.6,9.5-16.5
	C348.3,340.2,345.9,350.5,345.9,350.5z M323.9,411.8c-8.7,1.5-4.3-20.5,2.5-31c8.8-3.4,16.2-6.9,16.2-6.9
	C338.1,395.6,334.2,409.9,323.9,411.8L323.9,411.8z M290,293.1c-0.1,2.3-2.6,21.9-3.3,24c-2.4,9.9-7.4,17.1-14.4,16.7
	c-12.1-0.4-6.7-51.3,10.6-49.5c4.1,0.1,7.4,3.5,7.3,7.7C290.1,292.4,290.1,292.7,290,293.1z M211.2,363.2c-9.8-2-9.4-28.3-2.6-39.8
	c4.4,8,16.1,8.9,23.1,7.9C232.2,342.7,223.4,365.6,211.2,363.2L211.2,363.2z M231.3,319c-2,0.5-4.2,0.7-6.3,0.5
	c-4.9-0.5-8.5-2.9-8.9-4.9C213.7,303.4,230.8,305,231.3,319L231.3,319z M570,227.9c-5.8-16.5-27.8-13.2-33.3-8
	c0-21.6-10.9-27.5-22.4-40.8c-2.5-9.3,4.9-12.4,5.9-20.4c2-16.2-23.4-11.6-16.2,21.6c-3,15.5-19.3,62.8-27.9,64.1
	c-4.9,0.6-5.3-7.3-2.6-16.7c2.5-9.4,16.1-26.5,7.7-35.2c-4.9-5-13.9,2.5-22.1-2c0,0,0.3-6.8-1.9-9.3c-2.3-2.1-5.8-2.1-8,0
	c-6.2,4.8-6.4,17.8-3.1,24.4c-2.5,16.2-4.5,22.7-12.4,44.5c-8,22.5-27.3,33.2-31.7,19.5c38.4-36.9,29.9-51.1,23.9-56.2
	c-9.9-8.2-40.6,6.5-42.1,53.1c0,2.2,0.2,4.5,0.6,6.7c-3,3.6-8.3,10.2-15.1,19.5c3.1-20.6,7.5-50.6,9-61.7c-4.9,3.1-10.5,5.1-16.2,6
	l-1.1,7.7c-8.2-12.3-46.4-0.8-45,59.5c-1.9,18.6-11.8,20.6-12.2,16.2c-1.3-22,12.4-86.9,17.1-110.4c-4.9,2.7-10.3,4.5-16,5.2
	c0,0-11.8,59.8-12.1,59.8c-4.1-3.6-9.8-4.8-15.1-3.1c-14.3,3.4-25.5,23.6-26.3,36.4c-2.5,2.5-5.3,4.6-8.4,6.3
	c-1.8-7.7-5.3-14.7-13.2-17.1c-26-7.9-47.4,30.7-40.4,67c2.1,6.8,6.4,12.7,12.3,16.6c18.3,9,42.2-15.7,42.5-54.3
	c2.7-1.9,5-4.3,6.8-7c-1.6,11.7,2,33.5,15.2,35.4c14.2,2.1,22.1-14.8,24.2-22c1.7,4.8,6.2,7.9,11.3,7.9c12.2-0.5,16-16,18.2-22.6
	c10.7,17.1,28,1.4,31.9-8.7l-1.4,8.3c-9.8,11.8-28,41.1-28,41.1c-33.9,12.3-99.9,36.7-127,77.4c13.6-2.6,27.6-2.2,41.1,1.3
	c4.4-11.9,31.3-35.9,70.8-49.1c-9.7,19.6-7.8,48.5,8.8,48.2c28.6-0.6,38.1-49.9,42.1-68.6c25.5-10.9,71-28.5,118.6-48.9
	C521,300.4,584.3,268.6,570,227.9L570,227.9z M52.3,437.6c-1.9-4.6,10.8-15.7,22.1-16.2C70,428.9,54.1,442.2,52.3,437.6z
	 M28.4,329.7c-2,18.5,1.4,30.9,15.7,36.8c10.6,4.4,22.7-4.9,26.1-10.2c3.5-5.3,5.8-11.4,6.5-17.7c0,0-20,19.2-31.5,1.6
	c-6.7-10.2-3.1-40.3,36.1-61.7c39.2-21.2,58.7-3.9,58.7-3.9c23.6,13.3,24.6,52.9,17.7,83.5c-5.3,22.9-16.1,46.9-40.7,51.4
	c-9.2,1.6-12.7,0.6-21.1,0.4c6.1-14,9.7-29,10.7-44.2c5.9-72.1,13.7-79,20.9-89.8c-53.3,27.1-38,119.2-48.4,134.4
	C40,416.1,31.1,448,38.9,453c5.9,3.8,32.4-3.4,50.5-32.7c13.1-0.3,54.9,11.3,80.4-35.2c17.2-31.4,22.7-86.3-5-113.4
	C124.9,232.6,34.7,272.6,28.4,329.7z"/>
<path id="Red" class="st1" d="M430,110.1c-2-0.4-3.9,0.9-4.2,2.9v0.1l-14.2,77.3c-0.4,2,0.9,4,2.9,4.4h0.8c1.8,0,3.3-1.3,3.6-3
	l14.2-77.3C433.4,112.4,432.1,110.5,430,110.1z M399.1,127.7c-2-0.4-4,0.9-4.4,2.9l-17.3,77.3c-0.4,2,0.9,3.9,2.9,4.4
	c0.3,0,0.5,0.1,0.8,0.1c1.8,0,3.3-1.3,3.6-3l17.2-77.1C402.4,130.2,401.2,128.2,399.1,127.7L399.1,127.7L399.1,127.7z M381.7,378.2
	c-2-0.3-4,1-4.4,3l-13.8,71.7c-0.3,2,1,3.9,3,4.3l0,0c0.2,0.1,0.5,0.1,0.8,0.1c1.8-0.1,3.2-1.4,3.5-3.1l13.9-71.6
	C385.1,380.5,383.7,378.6,381.7,378.2L381.7,378.2z M327.4,449c-2-0.4-4,0.9-4.5,2.9L312,501c-0.5,2,0.7,4,2.8,4.5l0,0h0.9
	c1.7,0,3.2-1.2,3.5-2.9l11.1-49.2c0.5-1.9-0.7-3.9-2.7-4.4C327.5,449,327.5,449,327.4,449z M373.3,125.4c-2-0.5-4,0.6-4.6,2.5
	l-29.3,94.7c-0.7,1.9,0.3,3.9,2.1,4.6c0.1,0,0.2,0.1,0.2,0.1c0.3,0.2,0.7,0.3,1.1,0.3c1.6,0,3-1.1,3.5-2.6l29.3-94.7
	C376.3,128.2,375.2,126.1,373.3,125.4z M284.3,413.3c-1.9-0.6-4,0.5-4.6,2.4l-7,22.7c-0.6,2,0.4,4.1,2.4,4.8c0.4,0,0.8,0.1,1.1,0.1
	c1.6,0,3.1-1.1,3.5-2.6l7-22.7C287.3,416,286.3,414,284.3,413.3z M270.6,457.7c-1.9-0.6-4,0.5-4.6,2.4v0.1l-39.6,127.9
	c-0.6,1.9,0.5,4,2.4,4.6c0.4,0.1,0.7,0.2,1.1,0.3c1.6-0.1,3.1-1.1,3.6-2.6l39.4-128C273.6,460.4,272.6,458.3,270.6,457.7z
	 M321.1,184.6c0.5,0.2,1,0.4,1.5,0.4c1.5,0,2.8-0.9,3.4-2.3l27.6-63.1c0.8-1.9,0-4.1-1.9-4.9s-4.1,0-4.9,1.9l-27.6,63.1
	C318.5,181.5,319.3,183.7,321.1,184.6z M205.7,448.6c-1.8-0.8-4,0-4.9,1.8c0,0,0,0,0,0.1l-20,45.6c-0.9,1.8-0.1,4,1.7,4.8
	c0,0,0.1,0,0.1,0.1c0.5,0.2,1,0.4,1.5,0.4c1.5,0,2.8-0.9,3.4-2.3l20-45.6c0.9-1.8,0.1-4-1.7-4.8L205.7,448.6z M334.6,83.4
	c-1.8-1-4-0.4-5,1.4L291,154.2c-1,1.8-0.4,4.1,1.4,5.2c0.6,0.2,1.2,0.4,1.9,0.4c1.3,0,2.5-0.7,3.1-1.9L336,88.5
	C337,86.7,336.3,84.5,334.6,83.4z M229.3,279.9l56.9-101.8c1-1.8,0.3-4-1.5-5s-4-0.4-5,1.4l-56.9,101.9c-1,1.7-0.4,4,1.4,5
	c0,0,0.1,0,0.1,0.1c0.5,0.4,1.1,0.5,1.8,0.5C227.4,281.9,228.7,281.1,229.3,279.9z M141.8,430.4c-1.8-1-4.1-0.3-5.2,1.5L107.1,485
	c-1,1.8-0.3,4,1.5,5c0.6,0.2,1.2,0.4,1.8,0.4c1.4,0.1,2.6-0.7,3.3-1.9l29.5-53.1C144.1,433.7,143.5,431.4,141.8,430.4z M376.3,56.2
	c4.1-12.5,3.4-26.1-1.9-38.2c5.8-2.3,12-3.5,18.2-3.5c16.1,0,31.1,8.3,39.7,22c-23.6,14-33.1,43.5-22,68.6
	c-5.6,2.3-11.6,3.5-17.7,3.5c-4.9,0-9.8-0.8-14.4-2.4c-10.7-3.4-19.8-10.5-25.6-20C363.9,79.5,372.3,68.8,376.3,56.2z M347.8,47
	c3.4-10.7,10.6-19.7,20.1-25.6c4.3,10.3,4.8,21.9,1.4,32.5c-3.4,10.7-10.5,19.8-20.1,25.6C344.9,69.2,344.4,57.7,347.8,47z
	 M437.3,75.9c-3.5,10.7-10.7,19.9-20.4,25.8c-9.2-21.5-1.3-46.5,18.7-58.7C440.3,53.4,440.8,65.1,437.3,75.9z M441,36.6
	c-13.8-26.7-46.6-37.3-73.3-23.5c-26.7,13.8-37.3,46.6-23.5,73.3c6.6,12.8,18,22.5,31.8,26.9c28.5,9.2,59.2-6.4,68.4-34.9
	c0-0.1,0-0.1,0.1-0.2C448.9,64.4,447.7,49.4,441,36.6L441,36.6z"/>
</svg>
