<?xml version="1.0" encoding="utf-8"?>
<!-- Generator: Adobe Illustrator 25.2.3, SVG Export Plug-In . SVG Version: 6.00 Build 0)  -->
<svg version="1.1" id="Layer_1" xmlns="http://www.w3.org/2000/svg" xmlns:xlink="http://www.w3.org/1999/xlink" x="0px" y="0px"
	 viewBox="0 0 600 600" style="enable-background:new 0 0 600 600;" xml:space="preserve">
<style type="text/css">
	.st0{fill:#555555;}
	.st1{fill:#AAAAAA;}
	.st2{fill:#FFFFFF;}
</style>
<path id="Shadow_Marlin" class="st0" d="M558.5,106.6c0,0-103.3,37.8-126,46.4s-22.2,30-22.2,30l1.7-0.1l42.7-2.6
	c5.5-0.4,11.1-0.4,16.6-0.1c0.1,0,0.2,0,0.3,0c1.1,0.1,2.1,0.1,3.1,0.2c0.5,0,1.1,0.1,1.5,0.1c4.1,0.4,7.6,1,10.6,1.7
	c0.2,0,0.4,0.1,0.6,0.1c9.3,2.2,12.9,5.1,12.9,5.1l-80.1,8.6l-25.3,24.6l-0.1,0.1h-0.1c-55.5-0.4-162,34.5-181.1,110.5
	c-0.9,3.4-1.6,6.9-2,10.4c0,0.1-0.2,1-0.3,2.5V344c2-8.5,4.9-16.7,8.7-24.6c0.2-0.5,0.5-1,0.7-1.5l0.1-0.2l-0.1,0.2l-0.2,0.4
	l0.4-0.9c2.7-5.3,7.4-12.9,10.6-16.8c2.3-3,4.7-5.9,7.3-8.7c1.5-1.6,3-3.2,4.5-4.7l0,0c17.9-17.7,40.7-29.7,56.3-37
	c16.7-7.8,34.9-13.9,52.2-18c15-3.5,29.4-5.5,41.9-5.5l0,0h3.4l27.3-26.6l89.1-9.6c-8.3-6.2-24.1-14.8-48.4-15.3
	c-3.2-0.1-6.6,0.1-10.8,0.4l-36.3,2.2l2-5.8c2.3-6.8,7.8-12.4,14.7-15c21.6-8.2,131.6-48.6,142.3-52.6l3.8-3.7l-22.6,5.8
	L558.5,106.6L558.5,106.6z M336.2,537.6c0.1,3.2,0.3,6.3,0.6,9.4c0.4,4,1,8,1.8,11.9c2,10.3,4.7,18,6.6,22.6c1.1,2.8,3,6.3,3,6.3
	v0.1c4.4,4.4,9.2,8.3,14.3,12.1l0.2,0.1l-8.4-15.2l-2.3-4.3c-0.4-0.7-8.8-17.6-10.1-43.2c-1.8,0.2-3.5,0.4-5.1,0.4
	C336.6,537.6,336.4,537.6,336.2,537.6L336.2,537.6z M431.8,357.8L431.8,357.8L431.8,357.8l-1.7,0.7H430l-0.8,0.3l-0.2,0.1
	c-0.2,0.1-0.6,0.2-1.1,0.5l-0.9,0.4c-3.8,1.8-12.2,6.2-22.1,14.1c-1.4,1.1-2.7,2.2-4.1,3.4c-7.6,6.8-17.3,17.7-18.1,18.6
	c-16.2,17.5-35.6,42.2-35.9,42.6c-1.4,1.9-1.9,3.2-2.3,4.8c-0.1,0.5-0.2,1.1-0.2,1.6c0,0.9-0.1,2.3-0.3,3.9h5.5
	c0.2-1.9,0.3-3.9,0.4-5.6V443c0.2-1.1,0.5-1.6,1.6-3.1c2.8-3.6,9.5-12,15.2-19.1c9.5-10.7,17.6-20,25.1-28.4
	c18.6-20.6,38.4-30,38.6-30.1l13.9-6l2.2-0.7l0,0C442.1,356,436.2,356.6,431.8,357.8C431.9,357.8,431.9,357.8,431.8,357.8
	L431.8,357.8z M409.2,160.2c-25.6,8.5-29.6,24.6-29.6,24.6l19.4-1.2C401.2,164.8,409.2,160.2,409.2,160.2z"/>
<path id="Blue_Marlin" class="st1" d="M433,123h-0.4c-1.9-0.1-3.7-0.1-5.6-0.1c-10.4,0-19,0.9-23.2,1.4l-1.2,0.1l-1.1-0.5
	c-13.8-6.5-28.2-8.7-28.2-8.7l-0.9-1.8c-13-26.9-35.9-67.1-71-105.3c-3.8-3.9-6.1-6-8.5-8.1c-1.1,3.3-2.1,6.5-3,9.8
	c-2.7,9.2-4.7,21.2-4.3,41.6c0.2,8.8-1.1,32.1-11.4,50.6c-6.2,11.1-16,20.2-31.6,30.8l-0.1,0.1c-1.2,0.7-6,3.7-7.2,4.4
	c-7.4,4.4-17.4,10.4-25.4,16.3C185.3,172,168,193.5,156.7,216c-23.9,6.4-48.8,15.4-73.2,27.8h0.1c62.1-20.2,127.1-22.6,175.4-20.5
	c13.2-7.6,27-14,40.7-19c-19.1-2.7-51.3-3.8-89.4,1.2c-5.1,0.7-10.3,1.4-15.6,2.3c-9.7,1.6-19.3,3.6-28.9,5.9l-0.4,0.1
	c5.8-10.5,12.8-20.4,20.7-29.5c11.4-13,25.3-24.9,42-35.4l0,0c4.5-3,9.2-5.8,13.8-8.6c6-3.6,15.9-8.9,27.9-21.7
	c2-2.1,3.8-4.4,5.4-6.7c6.2-9.1,7.3-12.3,8.1-13.9c7.8-18,8.7-35.1,8.7-50.4v-2.5c0-2.5,0-5.1,0-7.6c0.2-8.4,1-16.8,4.1-26.1
	c2,2.2,4,4.4,6,6.6c7.8,8.9,14.9,17.9,21.5,26.7c5.6,7.6,10.9,15.3,16,23.2c0.7,1.1,1.4,2.2,2,3.2c1,1.6,1.9,3.1,2.5,3.9
	c9.1,14.7,17.3,29.8,24.6,45.4c3,0.5,5.7,1.1,8.2,1.7c13.9,3.2,20.9,6.7,24.4,8.5l0,0c0,0,14.2-2.2,31.9-1.6l5-0.9l17.1-3.1
	l102.6-18.5l22.6-5.8l5.4-5.3L433,123z M147.3,266.9c0.7-4.1,1.4-8.2,2.4-12.3c1.4-6.1,3.2-12,5.4-17.9H155
	c-2.4,0.1-4.8,0.2-7.1,0.3c-18.2,53.5-7.2,109.8,15,145.2C138.3,338.8,143.5,288.3,147.3,266.9L147.3,266.9z M307.4,489.3
	c-0.7-4.7-1.4-8.8-2.1-12.3c-1,0.1-2.1,0.4-3.3,0.8v0.2l0.3,2.1c0.6,3.7,1.8,11.8,3.5,22.9l2.4-8C308,493,307.7,491.2,307.4,489.3
	L307.4,489.3z M306.8,47.6c0,1.3,0,2.5,0.1,3c2.5,35.9-10.2,62.2-21.3,77.2c16.9-7.2,38.1-13.1,62.5-13.3
	C340.2,99.3,326.1,73.8,306.8,47.6z M238.5,354.1c10.1,54.1,48.8,72.1,51.9,73.3c13.6,5.8,23.4,1.4,25.9-0.3
	c3.6-2.3,7.5-5.3,11.2-8.6l22-19.4l16.6-14.4l3.1-2.7c2.3-2,4.7-4,7.1-5.8c4.1-3.2,8.4-6.3,12.9-9c0.7-0.4,1.3-0.8,2-1.2
	c11.1-6.5,20-9,26.3-9.8c9.3-1.2,14.4,1.7,14.4,1.7h0.1c4.5-1.2,10.4-1.8,14.8-2.2l-0.8-0.3c-2.1-0.8-4.3-1.6-6.4-2.3
	c-6.3-2.2-12.5-3.3-17.5-3.3c-17.2,0-36.7,9.3-57.8,27.6c-8.4,7.2-34.7,31.8-35,32l-1.2,1.1c-5.2,4.8-14.8,13.8-23.8,13.8
	c-6,0-15.9-2.6-23.6-8.4c-21.8-16.4-34.3-39.4-39.9-74.8c-1.4-8-3.1-17.5-3-28.1c-0.2,1.8-0.4,3.7-0.6,5.8
	C236.4,328.3,236.2,340.8,238.5,354.1L238.5,354.1z"/>
<path id="Red_Stitches" class="st0" d="M312.2,313.1l0.1,0.4l-0.4,0.2l-5.8,2.4l-0.1-0.5c-2.7-9.3-8.9-13.4-9-13.5l-1.6-1l-0.3-0.2
	l0.1-0.3l0.3-1.9c1.3-7.6-2.1-14.9-2.1-14.9l-0.2-0.4l0.4-0.2l5.2-2.5l0.4-0.2l0.2,0.4c0.2,0.3,3.8,8,3,16.9
	C305.1,300,309.7,304.9,312.2,313.1z M255.4,314.5L255.4,314.5c-0.4-8.5-1.6-13.7-1.6-13.7l-0.1-0.5l-0.5,0.2l-5.5,2.1l-0.4,0.1
	l0.1,0.4c0,0,1,5.7,1.3,13.3v0.9v0.2l0.1,0.1l0.5,0.7c0.1,0.1,5.6,7,8.4,16.7l0.1,0.5l6.5-2.5l-0.1-0.4
	C261.7,323.3,257,316.5,255.4,314.5z M271,310c-0.1-5.1-1.4-11.1-2.4-15.3l-0.1-0.5l-0.5,0.2l-5.5,2.3l-0.4,0.2l0.1,0.4
	c1,4.2,2.3,10.2,2.2,14.7v1.3v0.2l0.2,0.1l0.9,0.8l0,0c0.1,0,5.7,4.9,8.4,14.1l0.1,0.5l6.4-2.6l-0.1-0.4
	C277.7,317.4,273.1,312,271,310z M318.4,291.3c1.7-9.1-1.8-17.4-2-17.7l-0.2-0.4l-0.4,0.2l-5.3,2.3l-0.4,0.2l0.2,0.4
	c0,0.1,3.3,7.8,1.1,15.5l-0.6,2.2l-0.1,0.4l0.3,0.2l1.9,1.1c0.1,0,6.3,3.8,8.5,13.5l0.1,0.5l6.3-2.4l-0.1-0.4
	C325.7,298.4,321.1,293.5,318.4,291.3z M334.5,285.4c2.6-9.4-0.9-18.2-1-18.5l-0.2-0.4l-0.4,0.2l-5.3,2.2l-0.4,0.2l0.2,0.4
	c0,0.1,3.3,8.3,0.2,16l-1,2.4l-0.2,0.4l0.4,0.2l2.3,1.2c0.3,0.1,6.3,3.6,8,13.3l0,0l0.1,0.5l6.4-2.3l-0.1-0.4
	C341.6,292.4,337.2,287.6,334.5,285.4z M350.6,279.8c3.5-9.6,0-18.9-0.1-19.3l-0.2-0.4l-0.4,0.2l-5.4,2.1l-0.4,0.2l0.2,0.4
	c0,0.1,3.3,8.8-0.8,16.6l-1.4,2.6l-0.2,0.4l0.4,0.2l2.7,1.3c0.1,0,6.2,3.2,7.5,13l0,0l0.1,0.5l0.5-0.1c0,0,4.1-1.2,5.7-1.8l0.4-0.1
	l-0.1-0.4C357.6,286.6,353.2,281.9,350.6,279.8z M426.3,267.1c0,0.1,4.8,6,3.8,14.8l-0.1,0.5h0.5c1.9,0.1,3.8,0.4,5.7,0.7l0.5,0.1
	l0.1-0.5c0.9-7.9-1.7-14-3.5-17.2c5.8-6.2,5.3-14.1,4.8-17.2l0,0V248l-0.3-0.1c-2-0.4-4.1-0.8-6.2-1.1l-0.7-0.1l0.2,0.7
	c0.6,2.3,2.2,10-4.2,14.9l-2.4,1.8l-0.4,0.3l0.3,0.4L426.3,267.1z M464.7,276.6l0.1,0.4l0.6,2.2c0,0.1,1.8,7.2-3.6,14.9l-0.2,0.3
	l0.3,0.3c1.3,1.2,2.5,2.5,3.7,3.9l0.4,0.5l0.4-0.5c5.6-7.4,5.9-14.7,5.6-18.5c4.3-3.7,4.5-5.6,4.6-6.8v-0.2v-0.2l-0.1-0.2
	c-0.8-1.1-1.7-2.2-2.6-3.3l0,0l-0.4-0.5l-0.7-0.8l-0.2,1c-0.1,0.4-0.2,0.9-0.3,1.3c-0.8,2.2-2.4,3.9-5.1,5l-2.1,0.9L464.7,276.6z
	 M472.3,287.9l0.2,0.5c0,0,0.7,1.5,0.9,2.3c0.2,0.8,1.9,5.6-4.6,11.6l-0.3,0.3l0.2,0.3c0.9,1.3,1.7,2.8,2.4,4.2l0.3,0.5l0.5-0.4
	c7.2-6.1,7.8-12.5,7.4-15.9c2.4-1.5,3.7-3.9,4-7.5v-0.1l-0.1-0.1c-1-1.9-1.4-2.6-2.3-4.1l0,0l-0.4-0.6l-0.7-1.2l-0.1,1.4
	c-0.4,4.3-0.9,6.2-4.6,7.8L472.3,287.9z M441,267.8c0.1,0.3,3.5,7.2,0.4,15.8l-0.2,0.5l0,0l0.5,0.1c1.9,0.5,3.8,1,5.5,1.7l0.5,0.2
	l0.2-0.5c2.1-6,2.2-12.5,0.1-18.6c2.1-2.7,4.8-7,4.4-13.5v-0.4V253v-0.3l-0.3-0.1c-2-0.9-4-1.6-6.1-2.3l-1-0.3l0.1,0.8
	c0.2,1.1,0.3,2.3,0.4,3.3c0.2,3.6-1.3,7.5-3.8,9.6l-1.7,1.5l-0.3,0.2l0.2,0.3L441,267.8z M453.8,272.4c0.1,0.3,2.4,7.4-1.6,15.2
	L452,288l0,0l0.4,0.2c1.7,0.9,3.4,1.9,4.9,2.9l0.4,0.3l0.3-0.5c2.9-5.6,3.9-11.9,2.8-18.1c2.4-1.8,4.2-4.4,5-7.3
	c0.3-1.1,0.5-2.2,0.5-3.4v-0.2l-0.2-0.2c-2-1.7-4.1-3.3-6.3-4.7l-1-0.7l0.3,1.2c0.6,2.4,0.6,4.5,0.1,6.2c-0.5,2-1.8,3.4-3.9,4.5
	l-2.2,1.2l-0.4,0.2l0.1,0.4L453.8,272.4z M286.3,303.7c0.3-8-2.3-14.7-2.9-16l-0.2-0.4l-0.4,0.2l-5.8,2.6l0.2,0.4
	c0,0.1,3.1,6.9,2.3,14.6l-0.1,1.6v0.3l0.2,0.2l1.2,0.9c0.1,0,6.1,4.7,8.7,14.1l0,0l0.1,0.5l6.3-2.6l-0.1-0.4
	C293.4,311,288.5,305.7,286.3,303.7z M476.2,363l-9.5,5.5l-0.3,0.2c0,0-0.1,0.4-0.3,0.7c-0.8,1.8-1.6,3.5-2.6,5.1l-0.6,1.1l1.2-0.4
	c2.9-0.9,5.8-2.1,8.5-3.5l0.1-0.1l0,0l0.1-0.1c1.5-2.6,2.9-5.2,4.1-8l0.6-1.3L476.2,363L476.2,363z M460.6,379.4h-0.2l-0.1,0.2
	c-1.7,2.4-3.5,4.7-5.4,7l-0.8,1l1.2-0.2c2.1-0.3,4.2-0.7,6.2-1.3h0.1l0,0l0.1-0.1c2.4-2.6,4.7-5.3,6.7-7.9l1-1.3l-1.5,0.6
	C465.4,378.3,462.9,379,460.6,379.4z M473.2,355.5l-0.2,0.1l-0.1,0.2c-0.8,1.8-1.5,3.5-2.3,5.1l-0.5,1.1l1.1-0.4
	c0.5-0.2,4.6-1.7,8-3.4l0.2-0.1l0,0l0.1-0.2c1-2.5,2.5-6.8,3.6-10C481.9,350.1,479,353.3,473.2,355.5z M480.1,340.4l-0.3,0.1v0.3
	c0,0.1,0,2.4-2.2,4.2c-0.3,0.2-0.6,0.4-0.8,0.6l-0.2,0.1l-0.1,0.2c-0.5,1.6-1,3.2-1.6,4.8l-0.4,1.2l1.1-0.6c2.7-1.6,7.2-4.7,7.7-8.5
	c0.4-0.2,1.2-0.7,2.2-1.4l0,0l0.1-0.1v-0.2c1-3,1.7-5.9,2.5-8.8l1.3-4.5l-1.9,4.1C486.2,334.5,483.2,339.2,480.1,340.4z
	 M490.7,315.2c-1.1,3.2-2.5,4.9-4.3,5.4c-0.3,0.1-0.6,0.1-0.8,0.1H485l0.1,0.5c0,0.3,1,6.9-6,11.4l-0.2,0.1v0.2
	c-0.1,1.1-0.2,2.3-0.4,3.7l-0.1,1l0.9-0.5c1.3-0.8,2.4-1.6,3.5-2.5c3.9-3.3,6-7,6.1-10.9c0.3-0.3,1.1-0.8,1.8-1.7l0,0l0.1-0.1v-0.1
	c0.7-2.1,0.8-3.6,0.9-5c0-0.5,0.5-5.5,0.5-5.5L490.7,315.2z M366.6,274.7c4.3-9.5,1.3-19,0.9-20.1l-0.1-0.4l-5.9,2l-0.4,0.2l0.2,0.4
	c0,0.1,3.2,9.3-1.8,17.2l-1.8,2.8l-0.3,0.5l0.5,0.2l3,1.4c0.2,0.1,6.3,3.2,7.1,13.2l0,0v0.6l0.6-0.2c1.9-0.6,3.7-1.2,5.6-1.7
	l0.4-0.1v-0.4C373.4,281.7,369.2,276.9,366.6,274.7z M451.1,390.9h-0.2l-0.1,0.1c-2.3,2.4-4.7,4.6-7.2,6.8l-1.1,0.9l1.4-0.1
	c1.2-0.1,2.6-0.2,4-0.4l0,0h0.1l0.1-0.1c2.8-2.2,5.5-4.4,8.1-6.8l1.1-1l-1.5,0.2C454.2,390.8,452.6,390.9,451.1,390.9z M382.5,270.5
	c4.7-8.4,3.2-17,2.3-20.3l-0.1-0.4l-0.4,0.1c-1.8,0.4-3.7,0.9-5.6,1.3l-0.5,0.1l0.1,0.5c0.6,2.3,2.3,10.4-2.9,17.4l-1.8,2.5
	l-0.3,0.4l0.4,0.3l2.5,1.7c0.1,0,6,4.1,7,13.6l0,0l0.1,0.6l0.5-0.1c1.9-0.5,3.8-1,5.6-1.4l0.4-0.1l-0.1-0.4
	C388.8,278,384.9,272.9,382.5,270.5z M399.1,267.1c5.3-8.4,4-17.5,3.4-20.1l-0.1-0.4l-0.4,0.1c-1.8,0.2-3.8,0.5-5.7,0.8l-0.5,0.1
	l0.1,0.5c0.2,1,2.1,10.3-4,17.6l-2.4,2.9L389,269l0.6,0.3l3.4,1.6c0.1,0,5.9,3,5.5,13.1v0.5c0,0,4.6-0.6,6.3-0.9l0.4-0.1V283
	C405.2,274.7,402,269.8,399.1,267.1z M414.9,282.5L414.9,282.5L414.9,282.5L414.9,282.5z M414.9,282l-0.1,0.6h0.6
	c1.9-0.1,3.9-0.2,5.8-0.3h0.4v-0.4c0.7-8.3-2.5-13.8-4.6-16.5c5.2-6.7,4.9-14.7,4.3-18.9l-0.1-0.4h-0.4c-2-0.1-3.9-0.1-5.9,0h-0.6
	l0.1,0.6c0.5,2.4,1.6,10.7-4.4,16.4l-2.5,2.3l-0.4,0.4l0.4,0.3l2.7,2.1C410.7,268.1,416,272.5,414.9,282z M441.2,402
	c-0.8,0-1.6,0-2.3-0.1h-0.2l-0.1,0.1l-0.2,0.1l-0.2,0.1c-7.1,5.5-19,12.8-28.1,17.5c3.1-1.2,18.4-7.6,31.8-16.9l1.3-0.9h-1.5
	L441.2,402z M481.8,296.3l-2,0.4l-0.4,0.1v0.4l0.1,2c0,0.1,0.1,6.1-6.1,12.2l-0.2,0.2l0.1,0.3c0.6,1.5,1.2,3.2,1.7,4.9l0.2,0.7
	l0.6-0.5c7-6.1,8.9-12.5,9.3-16c1.5-0.8,3.1-3,3.1-6.6v-0.1v-0.1c-0.5-1.3-1-2.7-1.6-3.9l0,0l-0.5-1.1l-0.8-1.7l-0.2,1.8
	C485,292.3,484.2,295.8,481.8,296.3z M485.9,308.4h-2.1v0.4l-0.1,2.1c-0.1,0.8-0.4,5.8-7,10.5l-0.3,0.2l0.1,0.3c0.4,1.6,0.7,3,1,4.5
	l0.1,0.7l0.6-0.4c7.4-4.5,9.7-10.3,10.5-13.5c0.7-0.3,1.6-1.2,2.2-2.5c0.9-1.8,1.5-4.9-0.3-9.6l-0.7-1.8l-0.2,1.9
	c-0.4,3.1-1.1,5.4-2,6.5C487.2,308,486.4,308.4,485.9,308.4z"/>
<path d="M308.2,494.9l4.3-14.5c-0.1-1.1-0.7-2-1.8-2.6c-1.2-0.7-3.1-1-5.5-0.7c0.7,3.6,1.4,7.6,2.1,12.3
	C307.7,491.1,308,493,308.2,494.9z M213.5,331.2c19.1-75.9,125.7-110.9,181.1-110.5h0.1l0.1-0.1l25.3-24.6l80.1-8.6
	c0,0-3.6-2.9-12.9-5.1c-0.2,0-0.4-0.1-0.6-0.1c-3.5-0.8-7-1.3-10.6-1.7c-0.5,0-1-0.1-1.5-0.1c-1-0.1-2-0.2-3.1-0.2
	c-0.1,0-0.2,0-0.3,0c-5.5-0.3-11.1-0.2-16.6,0.1l-42.7,2.6l-1.7,0.1c0,0-0.5-21.4,22.2-30s126-46.4,126-46.4l-102.9,18.5l-17.1,3.1
	l-5,0.9c-17.6-0.6-31.9,1.6-31.9,1.6c-3.6-1.8-10.5-5.3-24.4-8.5c-2.5-0.6-5.2-1.1-8.2-1.7c-7.4-15.6-15.6-30.8-24.6-45.4
	c-0.8-1.3-1.6-2.6-2.5-3.9c-0.7-1.1-1.3-2.1-2-3.2c-5.1-7.9-10.4-15.7-16-23.2c-6.8-9.2-13.9-18.1-21.5-26.7c-1.9-2.2-3.9-4.4-6-6.6
	c-3.2,9.4-3.9,17.8-4.1,26.1c-0.1,2.5-0.1,5,0,7.6v2.5c0.1,15.3-0.9,32.4-8.7,50.4c-0.9,1.6-1.9,4.7-8.1,13.9
	c-1.6,2.4-3.4,4.6-5.4,6.7c-12,12.8-21.9,18.2-27.9,21.7c-4.7,2.8-9.3,5.6-13.8,8.6l0,0l-0.2,0.1l0,0
	c-16.5,10.3-30.4,22.2-41.8,35.2c-8,9-14.9,18.9-20.7,29.5l0.4-0.1c10-2.4,19.4-4.3,28.9-5.9c4.4-5.9,9.2-11.5,14.4-16.7
	c4.3-4.1,8.9-8,13.6-11.6c29.9-22.5,71.5-34.7,116.5-36.1c1,0,2.1,0,3.1-0.1c-52.9,6.7-100.5,27-132,62.2c38.1-5,70.3-3.9,89.4-1.2
	c-13.6,5-27.5,11.3-40.7,19c-8.1,4.7-15.9,9.9-23.3,15.5c-15.5-1.5-31.1-2.3-46.7-2.5c-13.7,26.3-20.3,58.4-17.4,96.4
	c-2.7-10.6-4.3-21.4-4.8-32.3c-1-22.6,2.9-44.1,11.5-64.1c-8.1,0-15.8,0.2-23.2,0.5c-2.1,5.9-3.9,11.8-5.4,17.9
	c-1,4.1-1.8,8.1-2.4,12.3c-3.8,21.4-9,71.8,15.6,115.4c3.9,7,8.5,13.5,13.7,19.6c1.4-0.9,2.8-1.8,4.2-2.6l0,0
	c5.2-2.9,10.8-5.2,16.5-6.7c5.5-1.5,6.7-1.6,6.7-1.6l1.6-0.2c5.9-1.4,11.9-2.1,17.9-2.1c10.4,0,14.9,0.6,14.9,0.6
	c-4.2,3.4-6.3,5.1-10.3,8.7c-8.1,7-14.4,16.9-18.7,30.1c4.7,2.9,9.6,5.5,14.6,7.9c-1.8-6.3,0.6-13.1,6-16.9c0.1-0.1,0.2-0.2,0.3-0.3
	c0.8-1.1,1.7-2.2,2.8-3.1c2.9-2.4,6.5-3.7,10.3-3.7c8.9,0,16.1,7.2,16.1,16.1c0,6.3-3.7,12-9.5,14.6c-0.3,0.2-0.5,0.4-0.8,0.6
	c-0.8,0.7-1.7,1.4-2.6,1.9c11.9,4,25.4,7.3,40.5,9.3c0.2-0.1,0.3-0.2,0.5-0.3c2.3-1.4,4.6-2.6,7-3.6c10.9-4.6,21.9-4.7,30.7-0.4
	c1.1,0.5,2.1,1.1,3.2,1.8c2.5-2.1,5.5-3.3,8.4-3.3h7c0.2-1.6,0.2-3,0.3-3.9c0-0.5,0.1-1.1,0.2-1.6c0.4-1.7,0.9-2.9,2.3-4.8
	c0.2-0.3,19.6-25.1,35.9-42.6c0.8-0.9,10.6-11.8,18.1-18.6c1.5-1.3,2.8-2.5,4.1-3.4c9.9-7.9,18.4-12.3,22.1-14.1
	c0.3-0.2,0.6-0.3,0.9-0.4c0.5-0.2,0.9-0.4,1.1-0.5l0.2-0.1l0.9-0.4l1.7-0.7l0,0l0,0c0,0-5.1-2.9-14.4-1.7
	c-6.3,0.8-15.1,3.3-26.3,9.8c-0.7,0.4-1.3,0.8-2,1.2c-4.5,2.8-8.8,5.8-12.9,9c-2.4,1.9-4.8,3.8-7.1,5.8l-3.1,2.7
	c-3,2.6-14.8,12.8-16.6,14.4l-22,19.4c-3.6,3.2-7.6,6.3-11.2,8.6c-2.4,1.8-12.3,6.1-25.9,0.3c-3.1-1.2-41.8-19.1-51.9-73.3
	c-2.3-13.4-2.1-25.8-1.2-35.5c0.2-2,0.3-4,0.6-5.8c0.7-6,1.6-10.8,2.2-13.8c-2.6,2.8-5.1,5.7-7.4,8.7c-3,3.9-5.7,8.1-8.1,12.4
	c-0.3,0.6-0.6,1.2-1,1.7c-6.5,12.4-10.6,25.9-12.1,39.8c-0.9-8-0.6-14.3-0.3-17.6c0.1-1.5,0.3-2.4,0.3-2.5
	C211.9,338.2,212.6,334.7,213.5,331.2z M409.2,160.2c0,0-8,4.6-10.2,23.4l-19.4,1.2C379.6,184.8,383.6,168.7,409.2,160.2z
	 M285.6,127.8c11.1-14.9,23.8-41.2,21.3-77.2c0-0.5,0-1.7-0.1-3c19.3,26.2,33.4,51.6,41.3,66.9C323.7,114.7,302.4,120.6,285.6,127.8
	z M348.2,587.8c0,0-1.9-3.5-3-6.3c-1.9-4.5-4.6-12.3-6.6-22.6c-1.4-7-2.2-14.2-2.4-21.4c-5.6-0.1-10.6-1.9-14.7-4.2
	c-2.9-1.7-5.5-3.9-7.6-6.5l-0.7,0.4C318.6,555.7,327.8,584.7,348.2,587.8L348.2,587.8L348.2,587.8z"/>
<path id="Red_Letters" class="st0" d="M543.5,533.4c-7.4,0-14.1-2-19.4-5.6c-1.4-0.9-2.7-2-3.8-3.2c-9,5.8-19.2,8.9-29.4,8.9
	c-10.2,0-18.7-3.8-23.8-10.7c-5.4-7.3-6.7-17.3-3.4-28.3l3.9-12.4c1.2-3.7,1.2-6.5-0.2-7.7c-1.5-1.4-4.7-1.4-7.9-0.1
	c-1.5,0.6-3.1,1.6-4.6,2.9c-0.1,0.1-0.2,0.2-0.3,0.3c0.3-0.1,0.5-0.2,0.7-0.3c2.5-1.1,4.9-1,6.1,0.1s1.3,3.6,0.4,6.6l-3.3,10.8
	c-3.6,12.1-2.2,23.4,4,31.7c1.8,2.3,3.9,4.9,8.7,7.6c4.4,2.5,9.6,3.8,15.5,3.8c9,0,19-2.9,29.8-8.8c6,5.9,14.6,9.3,23.5,9.4h19.3
	l5.1-4.8L543.5,533.4L543.5,533.4L543.5,533.4z M404.4,530l14.9-49c1-3.2,0.8-5.8-0.5-7s-4-1.2-6.8-0.1c-1.6,0.7-3.1,1.5-4.4,2.6
	c-0.3,0.2-0.6,0.5-0.8,0.7c2.5-1,4.8-1,6,0.1s1.3,3.6,0.4,6.6L397.7,535h31.4l6.1-5H404.4L404.4,530z M357.7,530
	c-13,4.5-24.5,4.3-33.2-0.5c-2.5-1.4-4.7-3.1-6.6-5.2c-0.7,0.5-1.4,1-2.1,1.5c-0.6,0.4-1.3,0.8-1.9,1.2c2.1,2.6,4.7,4.8,7.6,6.5
	c4.1,2.4,9.1,4.1,14.7,4.2c0.2,0,0.4,0,0.6,0c1.7,0,3.4-0.1,5.1-0.4c3.6-0.4,7.2-1.2,10.7-2.3h28.2l6.6-5H357.7L357.7,530z
	 M250.3,442.7c-0.1,0-0.2,0.1-0.3,0.2c-8.2,3.5-17.6-0.4-21.1-8.5c-0.8-2-1.3-4.1-1.3-6.3c0-3.4,1.1-6.6,3-9.3
	c-0.1,0.1-0.2,0.2-0.3,0.3c-4.1,2.9-6.6,7.6-6.6,12.7c0,1.5,0.2,2.9,0.6,4.2c1.9,6.7,8,11.3,14.9,11.3c3.8,0,7.5-1.4,10.3-3.9
	C249.7,443.1,250,442.9,250.3,442.7L250.3,442.7z M550.4,444.1c-8.9,0-16.1-7.2-16.1-16.1c0-3.4,1.1-6.7,3.1-9.4
	c-0.2,0.1-0.3,0.3-0.5,0.4c-4.1,2.9-6.6,7.6-6.6,12.7c0,8.6,6.9,15.5,15.5,15.5l0,0l0,0c3.8,0,7.5-1.4,10.3-3.9
	c0.2-0.2,0.5-0.3,0.7-0.5c0,0-0.1,0-0.1,0.1C554.7,443.7,552.6,444.1,550.4,444.1L550.4,444.1z M514.9,493l10.5-34.7
	c0.1-0.4,0.2-0.7,0.4-1.1l0.1-0.2c0.2-0.4,0.3-0.6,0.4-0.8l0.1-0.3c0.2-0.3,0.3-0.5,0.4-0.7l0.2-0.2c1.3-1.9,3-3.5,5-4.6
	c-4,0.7-6.8,2.5-8.8,4.6c-2.9,2.8-3.9,6.3-4.5,8.5l-10.5,34.7c-0.7,2.3-2.1,4.6-4,6.7c0.1,0,0.2-0.1,0.2-0.1
	C509.6,501.9,513.6,497.4,514.9,493L514.9,493z M367.6,493.7l10.8-35.4c0.1-0.3,0.2-0.7,0.4-1.1l0.1-0.2c0.1-0.3,0.3-0.5,0.4-0.8
	l0.2-0.3c0.2-0.3,0.3-0.5,0.4-0.7l0.2-0.3c0.7-0.9,1.4-1.8,2.3-2.6c-0.9,0.4-1.8,0.9-2.7,1.4c-4.3,2.5-7.1,6.9-8,9.8l-11,35.4
	c-1,2.9-2.8,5.8-5.1,8.4c0.2-0.1,0.5-0.2,0.7-0.3C361.4,504.1,365.8,499.1,367.6,493.7L367.6,493.7z M311.3,528.5
	c-7,3.8-14.4,5.8-21.4,5.8c-6,0-11.4-1.4-16.1-4.2c-3.1-1.8-5.8-4.2-8-7.1c-0.8,0.5-1.7,1.1-2.6,1.6c-0.8,0.4-1.6,0.9-2.4,1.3
	c2.2,3.1,5.1,5.7,8.4,7.7c4.7,2.8,10.1,4.2,16,4.2l0,0c8.5,0,16.7-2.8,24.5-8.2c0.3-0.2,0.7-0.4,1-0.7L311.3,528.5L311.3,528.5z
	 M237.5,531.8h-0.1c-11.1-0.1-20.6-4.4-26.2-11.9c-5.2-7-6.5-16.1-3.6-25.4l11.1-36.2c0.1-0.3,0.2-0.7,0.4-1.1l0.1-0.2
	c0.2-0.4,0.3-0.6,0.4-0.8l0.1-0.3c0.1-0.3,0.3-0.5,0.4-0.7l0.2-0.3c0.6-0.9,1.4-1.8,2.2-2.5c-2.6,1.2-4.9,2.8-6.8,4.9
	c-2.1,2.1-3.3,4.3-3.9,6.3l-9.3,30.5c-3.2,10.5-1.7,20.8,4.2,28.8c6.5,8.9,18.6,13.5,27.2,13.5c6.6,0,12-1.2,17.1-3.9
	c3.1-1.5,6.1-3.5,9.2-6.2C252.9,529.9,245.1,531.8,237.5,531.8L237.5,531.8z M254.9,501.6c1.7-1.2,3.2-2.6,4.5-4.1
	c0.9-8.2,4-16.6,9-24.3c4.5-6.8,10.3-12.7,17-17.3c-2.9,1.6-5.6,3.5-8.1,5.5c-7.5,5.7-12.9,12.7-16.8,19.8
	c-3.8,6.9-6.3,14.3-7.2,21.5C253.8,502.3,254.3,501.9,254.9,501.6z M305.3,477c2.4-0.3,4.2,0,5.5,0.7c1.1,0.6,1.7,1.5,1.8,2.6
	l-4.3,14.5l-2.4,8l-0.2,0.6c0.5-0.4,1-0.8,1.5-1.3c2.4-2.1,4.4-4.6,6.1-7.2l4.7-15.4c-0.3-3.5-1.8-5.6-4.6-6.3
	c-0.7-0.2-1.4-0.3-2.2-0.3c-3,0-6.5,1.3-9.9,3.7c-0.5,0.4-1,0.8-1.5,1.2c-0.5,0.4-1,0.8-1.5,1.3c-0.1,0.1-0.2,0.2-0.2,0.2
	c1.4-0.7,2.7-1.3,4-1.7C303.1,477.5,304.2,477.2,305.3,477L305.3,477z"/>
<path id="Blue_Letters" class="st1" d="M566.5,428c0-8.9-7.2-16.1-16.1-16.1c-3.8,0-7.4,1.3-10.3,3.7c-1,0.9-1.9,1.8-2.7,2.9
	c-2,2.7-3.1,6-3.1,9.4c0,8.9,7.2,16.1,16.1,16.1c2.1,0,4.3-0.4,6.3-1.3c0,0,0.1,0,0.1-0.1C562.7,440.2,566.5,434.4,566.5,428
	L566.5,428z M550.4,439.1c-6.1,0-11.1-5-11.1-11.1s5-11.1,11.1-11.1s11.1,5,11.1,11.1C561.6,434.2,556.6,439.1,550.4,439.1z
	 M323,480.2c-0.2-6.1-3.3-10.4-8.3-11.7c-1.1-0.3-2.3-0.4-3.4-0.4c-9.2,0-20.3,8.5-25.7,20.4c-2.9,6.4-3.6,12.9-1.8,17.7
	c1.1,2.9,3,5,5.5,6.1c7.5,3.4,19.3-2.2,26.9-12.6c0.6-0.8,1.2-1.7,1.7-2.6L323,480.2z M291.3,507.8c-1.3-0.6-2.3-1.7-2.9-3.3
	c-1.3-3.5-0.7-8.7,1.6-13.9c1.8-4,4.7-7.9,8-11c0.1-0.1,0.2-0.2,0.2-0.2c0.5-0.5,1-0.9,1.5-1.3s1-0.8,1.5-1.2
	c3.4-2.4,6.9-3.7,9.9-3.7c0.8,0,1.5,0.1,2.2,0.3c2.8,0.7,4.3,2.8,4.6,6.3l-4.7,15.4c-1.7,2.7-3.8,5.1-6.1,7.2
	c-0.5,0.5-1,0.9-1.5,1.3C300.5,507.6,294.7,509.4,291.3,507.8z M337.1,448.7c-2.9,0-6,1.2-8.4,3.3c-1-0.7-2.1-1.3-3.2-1.8
	c-8.9-4.3-19.8-4.2-30.7,0.4c-2.3,1-4.7,2.2-7,3.6c-0.2,0.1-0.3,0.2-0.5,0.3c-0.7,0.4-1.3,0.8-1.9,1.3c-6.8,4.6-12.6,10.5-17,17.3
	c-5,7.7-8.2,16.1-9,24.3c-1.7,2-3.8,3.8-6,5.2c-3.6,2.2-7.4,3.5-10.9,3.5c-2.4,0-4.2-0.7-5-1.8c-0.8-1.1-1-2.9-0.3-4.9l15.4-50.6
	h-21.2c-3.1,0-6.2,1.4-8.7,3.6c-0.8,0.7-1.6,1.6-2.2,2.5l-0.2,0.3c-0.2,0.2-0.3,0.5-0.4,0.7l-0.1,0.3c-0.1,0.3-0.3,0.6-0.4,0.8
	l-0.1,0.2c-0.2,0.4-0.3,0.7-0.4,1.1l-11.1,36.2c-2.9,9.4-1.6,18.4,3.6,25.4c5.5,7.5,15,11.8,26.2,11.9h0.1c7.6,0,15.4-2,22.7-5.7
	c0.1,0,0.1-0.1,0.2-0.1c0.1-0.1,0.2-0.1,0.3-0.2c1.7-0.9,3.4-1.9,5-2.9c2.2,2.9,4.9,5.3,8,7.1c4.7,2.8,10.2,4.2,16.1,4.2
	c7,0,14.4-2,21.4-5.8l-0.6,0.4c-0.3,0.2-0.7,0.4-1,0.7c3.3,23.3,8.3,38.7,16.3,49.8c7.1,9.9,14.8,13.4,16.3,13.9
	c0.1,0,1.9,0.9,4.5,1.8c6.1,2.1,12.7,4,15.8,4.8c-5.1-3.8-9.9-7.7-14.3-12.1c-20.4-3.2-29.7-32.2-35-60.5c0.2-0.1,0.4-0.3,0.7-0.4
	c0.6-0.4,1.3-0.8,1.9-1.2c0.8-0.5,1.5-1,2.1-1.5c1.9,2.1,4.1,3.8,6.6,5.2c8.7,4.9,20.2,5.1,33.2,0.5h29.7l13.6-44.6
	c0.7-2.7,2.9-5.7,5.9-8.2c0.3-0.2,0.5-0.5,0.8-0.7c1.3-1.1,2.8-1.9,4.4-2.6c2.8-1.2,5.5-1.1,6.8,0.1s1.4,3.8,0.5,7l-14.9,49h30.9
	l13.3-43.7V486c0.8-2.9,3-6.1,5.9-8.6c0.1-0.1,0.2-0.2,0.3-0.3c1.5-1.3,3.1-2.3,4.6-2.9c3.2-1.3,6.4-1.3,7.9,0.1
	c1.3,1.2,1.4,4.1,0.2,7.7l-3.9,12.4c-3.3,10.9-2,21,3.4,28.3c5.2,6.9,13.6,10.7,23.8,10.7s20.4-3.1,29.4-8.9
	c1.2,1.2,2.5,2.2,3.8,3.2c5.3,3.6,12,5.6,19.4,5.6h20.9l7.9-25.7H549c-2.4,0-4.2-0.7-5-1.9c-0.8-1.1-1-2.9-0.3-4.9l15.9-52.2h-21.2
	c-2,0-4.1,0.6-6,1.6c-2,1.1-3.7,2.7-5,4.6l-0.2,0.2c-0.1,0.2-0.3,0.4-0.4,0.7l-0.1,0.3c-0.1,0.2-0.2,0.5-0.4,0.8l-0.1,0.2
	c-0.2,0.4-0.3,0.7-0.4,1.1L514.9,493c-1.3,4.4-5.4,8.9-10.5,11.8c-0.1,0-0.2,0.1-0.2,0.1c-3.2,1.8-6.7,2.8-9.7,2.8
	c-0.6,0-1.7-0.1-2.1-0.7c-0.7-0.9-0.6-3.3,0.2-6l4-13.2c4.8-16,1.6-29.4-8.6-36c-5.9-3.8-13.3-4.8-21.5-3c-6.3,1.4-13,4.6-19.4,9.2
	c-3.3-4.3-8.2-7.5-13.9-9.1c-6.7-1.8-14.3-1.3-21.6,1.3l0.5-1.5h-21.2c-3,0-6.2,1.3-8.6,3.5c-0.9,0.8-1.6,1.6-2.3,2.6l-0.2,0.3
	c-0.1,0.2-0.3,0.5-0.4,0.7l-0.2,0.3c-0.1,0.3-0.3,0.5-0.4,0.8l-0.1,0.2c-0.1,0.4-0.3,0.7-0.4,1.1l-10.8,35.4
	c-1.8,5.4-6.1,10.5-11.3,13.3c-0.2,0.1-0.5,0.2-0.7,0.3c-2.2,1.1-4.4,1.7-6.3,1.7c-2.3,0-4.1-0.8-5.2-2.3c-1.6-2.2-1.8-5.7-0.4-9.6
	l14.7-48.3h-14.1L337.1,448.7L337.1,448.7z M351.6,453.7l-12.7,41.8c-1.8,5.4-1.4,10.5,1.1,14.1c2,2.8,5.3,4.4,9.2,4.4
	c9.2,0,19.5-8.4,23-18.6l10.9-35.5c1-3.3,4.5-6,7.8-6h14.5l-2,6.7c8.7-6.7,19.7-9.2,28.9-6.6c6.5,1.8,11.2,6,13.4,11.6
	c14.2-12.2,29.7-15.9,39.7-9.5c8.2,5.3,10.7,16.7,6.5,30.5l-4,13.1c-1.4,4.5-1.2,8.1,0.5,10.4c1.3,1.8,3.5,2.7,6.1,2.7
	c10.4,0,22.2-8.5,25.1-18.2l10.5-34.7c1-3.3,4.5-6,7.8-6h14.5l-13.9,45.8c-1.1,3.6-0.7,6.9,1.1,9.3c1.8,2.5,5,3.9,9,3.9h16.8
	l-4.7,15.9h-17.2c-9.8-0.1-17.9-3.9-22.4-10.4c-6.4,4.9-16.8,10.5-30.3,10.5c-8.6,0-15.6-3.1-19.9-8.7c-4.5-6-5.4-14.5-2.6-23.9
	l3.8-12.3c1.9-5.7,1.4-10.2-1.5-12.9c-2.9-2.7-8.1-3.1-13.1-1c-6.2,2.5-12,9-13.7,15.1L431.6,525h-20.5l13-42.6
	c1.6-5.2,1-9.5-1.9-12.1c-2.8-2.6-7.3-2.9-12-1c-6.4,2.7-12.5,9-14,14.8l-0.3,1V485l-12.2,40h-20.5l0.9-3.1
	c-10.5,5.1-20.3,7.2-28.4,6.1c-7.5-1.1-13.3-4.8-16.9-10.8c-9,8-19.4,12.2-28.9,12.2c-5,0-9.7-1.2-13.7-3.6c-4-2.4-7.1-5.7-9.2-10
	c-8.6,7-19.4,11-29.6,11h-0.2c-9.4-0.1-17.5-3.7-22.1-9.9c-4.2-5.8-5.2-13.2-2.9-21.1l11.1-36.2c1-3.3,4.5-6,7.8-6h14.5l-13.4,44.2
	c-1.1,3.6-0.7,6.9,1.1,9.3c1.8,2.5,5,3.9,9,3.9c7.7,0,16.6-4.8,21.7-11.7c0.6-7.9,3.4-16,8.3-23.5c6.1-9.3,14.7-16.6,24.2-20.6
	c9.6-4,19.1-4.2,26.7-0.5c2.3,1.1,4.3,2.6,6.1,4.3c1.3-3,4.5-5.3,7.6-5.3L351.6,453.7L351.6,453.7z M227.6,428
	c0,8.9,7.2,16.1,16.1,16.1c2.2,0,4.3-0.4,6.3-1.3c0.1,0,0.2-0.1,0.3-0.2c5.8-2.6,9.5-8.3,9.5-14.6c0-8.9-7.2-16.1-16.1-16.1
	c-3.8,0-7.4,1.3-10.3,3.7c-1.1,0.9-2,1.9-2.8,3.1C228.6,421.5,227.6,424.7,227.6,428L227.6,428z M243.7,416.9
	c6.1,0,11.1,5,11.1,11.1s-5,11.1-11.1,11.1s-11.1-5-11.1-11.1C232.6,421.9,237.5,416.9,243.7,416.9z"/>
<path id="Black_Letters" d="M561.6,428c0-6.1-5-11.1-11.1-11.1s-11.1,5-11.1,11.1s5,11.1,11.1,11.1S561.6,434.2,561.6,428z
	 M243.7,439.2c6.1,0,11.1-5,11.1-11.1s-5-11.1-11.1-11.1s-11.1,5-11.1,11.1C232.6,434.2,237.5,439.2,243.7,439.2z M337.1,453.7
	c-3.1,0-6.3,2.3-7.6,5.3c-1.8-1.8-3.9-3.2-6.1-4.3c-7.6-3.7-17-3.5-26.7,0.5c-9.5,4-18.1,11.3-24.2,20.6c-4.9,7.5-7.8,15.6-8.3,23.5
	c-5.1,6.9-14.1,11.7-21.7,11.7c-4,0-7.2-1.4-9-3.9c-1.8-2.4-2.2-5.7-1.1-9.3l13.4-44.2h-14.5c-3.3,0-6.8,2.7-7.8,6l-11.1,36.2
	c-2.4,7.8-1.4,15.3,2.9,21.1c4.6,6.2,12.6,9.8,22.1,9.9h0.2c10.2,0,21-4,29.6-11c2.1,4.3,5.2,7.6,9.2,10c4.1,2.4,8.8,3.6,13.7,3.6
	c9.5,0,19.9-4.3,28.9-12.2c3.6,6,9.5,9.8,16.9,10.8c8,1.1,17.8-1,28.4-6.1l-0.9,3.1h20.5l12.2-40v0.1l0.3-1
	c1.5-5.8,7.5-12.1,14-14.8c4.7-1.9,9.2-1.6,12,1s3.5,6.9,1.9,12.1l-13,42.6h20.5l12.2-40.1c1.6-6.1,7.5-12.6,13.7-15.1
	c5.1-2.1,10.2-1.7,13.1,1s3.4,7.2,1.5,12.9l-3.8,12.3c-2.8,9.4-1.9,17.9,2.6,23.9c4.2,5.6,11.3,8.7,19.9,8.7
	c13.5,0,23.9-5.7,30.3-10.5c4.5,6.6,12.7,10.4,22.4,10.4h17.2l4.7-15.9h-16.8c-4,0-7.2-1.4-9-3.9c-1.8-2.4-2.2-5.7-1.1-9.3
	l13.9-45.8H538c-3.3,0-6.8,2.7-7.8,6l-10.5,34.7c-3,9.7-14.7,18.2-25.1,18.2c-2.6,0-4.8-1-6.1-2.7c-1.7-2.3-1.9-5.9-0.5-10.4l4-13.1
	c4.2-13.7,1.7-25.1-6.5-30.5c-9.9-6.4-25.5-2.7-39.7,9.5c-2.2-5.7-6.9-9.8-13.4-11.6c-9.2-2.6-20.2-0.1-28.9,6.6l2-6.7H391
	c-3.3,0-6.8,2.7-7.8,6l-10.9,35.5c-3.4,10.3-13.7,18.6-23,18.6c-3.9,0-7.2-1.6-9.2-4.4c-2.5-3.5-2.9-8.6-1.1-14.1l12.7-41.8
	L337.1,453.7L337.1,453.7z M317.9,497.1c-0.6,0.9-1.1,1.8-1.7,2.6c-7.6,10.5-19.4,16-26.9,12.6c-2.5-1.1-4.4-3.2-5.5-6.1
	c-1.8-4.8-1.2-11.3,1.8-17.7c5.4-11.9,16.5-20.4,25.7-20.4c1.2,0,2.3,0.1,3.4,0.4c5.1,1.3,8.1,5.6,8.3,11.7L317.9,497.1z"/>
<path id="Red_M" class="st0" d="M132.8,457.3l0.7-0.9c5.8-7.8,13.7-18.5,21.2-28.3l0.1-0.2c13.5-16.1,22.1-24,33-30.2
	c5.7-3.2,11.7-5.5,18-7l-1.6,0.2c0,0-1.3,0.2-6.7,1.6c-5.8,1.6-11.3,3.8-16.5,6.7l0,0c-1.4,0.8-2.9,1.7-4.2,2.6
	c-9.5,6.2-17.9,14.3-30.2,28.8c-0.1,0.1-0.1,0.2-0.2,0.3l-14.9,19.8L132.8,457.3L132.8,457.3z M71.2,535.9
	c-5.9,4.9-15.4,8.5-27.4,10.3c-5.9,0.8-12.3,1.5-16.6,1.5c3.8-2.9,8.4-7,12.5-11.8c3-3.2,6.6-8.4,9.2-16
	c1.9-5.5,28.7-92.3,31.7-102.2l0.1-0.4c0.4-1.3,0.7-2.5,1-3.6c0.2-0.8,0.4-1.5,0.5-2.2c0.9-4.5,0.8-6.6,0.8-6.7
	c0.1-3.2-0.4-6-1.2-8.3c-0.2-0.5-0.4-1.1-0.7-1.6l-0.1-0.2l0,0l0,0l-4.8,4.8l0.1,0.2c0.3,0.5,0.5,1.1,0.6,1.6
	c1,3.5,0.8,8.1-0.7,13.8l-32.3,104c-5.5,17.3-28,31.2-28.3,31.3l-1.7,1.1l2,0.2c0.1,0,3.4,0.3,8.5,0.3c4.4,0,10.2-0.2,16.3-1.1
	c17.4-2.5,29.2-8.8,35.2-18.9c0.8-1.3,2.4-3.9,3.5-5.9c-1.3,2.2-2.9,4.2-4.6,6.1C74,533.1,72.9,534.4,71.2,535.9z M141.8,535.3
	l21.1-68.1l-8.7,11.7l-1.4,4.4l0,0l-17.5,56.3l-0.3,0.9h42.8l5-5l-0.2-0.1l-0.1,0.1l-0.9-0.1l0.1-0.1L141.8,535.3L141.8,535.3z
	 M101.3,461.9l-3,9.8l13.1,62l4.3-3.3L101.3,461.9z"/>
<path id="Blue_M" class="st1" d="M228.3,397.9c4-3.7,6.1-5.3,10.3-8.7c0,0-4.5-0.6-14.9-0.6c-4.5,0-10.9,0.4-17.9,2.1
	c-6.3,1.5-12.4,3.8-18,7c-10.9,6.2-19.5,14.1-33,30.2l-0.1,0.2c-7.5,9.8-15.4,20.5-21.2,28.3l-0.7,0.9l-1.4-6.6l-11.8-56.1H80.9l0,0
	l0,0l0.1,0.2c0.3,0.5,0.5,1.1,0.7,1.6c0.8,2.3,1.3,5.1,1.2,8.3c0,0.1,0.1,2.2-0.8,6.7c-0.1,0.7-0.3,1.5-0.5,2.2
	c-0.3,1.1-0.6,2.3-1,3.6l-0.1,0.4c-3,9.9-29.8,96.6-31.7,102.2c-2.6,7.6-6.3,12.8-9.2,16c-4.1,4.8-8.7,8.8-12.5,11.8
	c4.4,0,10.7-0.6,16.6-1.5c12-1.7,21.5-5.3,27.4-10.3c1.7-1.5,2.8-2.9,3.5-3.6c1.7-1.9,3.2-3.9,4.6-6.1c4.9-7.8,7.3-16.1,8.3-19.3
	l10.8-35.3l3-9.8l14.5,68.5l38.3-51.5l8.7-11.7l-21.1,68.1h40h1.1c-0.8-2.7-1.3-4.5-1.7-6.6c-0.5-3-0.5-4.2-0.1-7
	c0.2-1.8,0.7-3.7,1.5-6.3l26.8-86.3c0.1-0.4,0.3-0.7,0.4-1.1C213.9,414.9,220.2,405,228.3,397.9L228.3,397.9z M204.5,427.7
	L177.7,514c-0.8,2.8-1.4,5-1.7,7.1c-0.5,3.5-0.4,6.3,0.3,8.8l0.1,0.4h-27.9l0.1-0.4l27.5-88.9l-57.8,77.6L102.2,442l-19.4,63.5
	c-1.1,3.8-4.5,15.4-11.8,23.5c-2.3,2.5-9.2,10.2-28.9,12.3l-1,0.1l0.7-0.7c3.5-3.5,8.4-9.6,11.7-19.2c2-5.8,31.6-101.7,31.9-102.7
	c1.1-3.8,1.8-6.7,2.2-9.9c0.5-3.5,0.4-6.4-0.3-8.8l-0.1-0.4h28.3l14.6,69.5c0,0,21-28.3,28.4-37.9c13.1-15.6,21.4-23.2,31.7-29.1
	c12.5-7,25.1-8.5,33.5-8.5c0.4,0,0.8,0,1.1,0h0.9l-0.7,0.6C215.9,402,209.1,413,204.5,427.7L204.5,427.7z"/>
<path id="Black_M" d="M224.9,393.6c-0.4,0-0.8,0-1.1,0c-8.4,0-20.9,1.5-33.5,8.5c-10.3,5.9-18.6,13.5-31.7,29.1
	c-7.4,9.7-28.4,37.9-28.4,37.9l-14.6-69.5H87.3l0.1,0.4c0.6,2.5,0.7,5.4,0.3,8.8c-0.4,3.3-1.1,6.2-2.2,9.9
	c-0.3,1-29.9,96.9-31.9,102.7c-3.3,9.6-8.2,15.7-11.7,19.2l-0.7,0.7l1-0.1c19.7-2.1,26.6-9.7,28.9-12.3c7.3-8.1,10.7-19.7,11.8-23.5
	l19.4-63.5l16.2,76.6l57.8-77.6l-27.5,88.9l-0.1,0.4h27.9l-0.1-0.4c-0.6-2.5-0.7-5.3-0.3-8.8c0.3-2.1,0.8-4.3,1.7-7.1l26.8-86.3
	c4.6-14.7,11.3-25.6,20.6-33.5l0.7-0.6L224.9,393.6L224.9,393.6z"/>
<path id="Red_Marlin" class="st2" d="M166.8,300.4c0.5,10.9,2.1,21.7,4.8,32.3c-2.9-38,3.7-70,17.4-96.4c-3.6-0.1-7.2-0.1-10.7-0.1
	C169.6,256.3,165.8,277.8,166.8,300.4z M342.3,143.4c-1,0-2.1,0-3.1,0.1c-45,1.4-86.7,13.5-116.5,36.1c-4.8,3.6-9.3,7.5-13.6,11.6
	c-5.2,5.2-10,10.8-14.4,16.7c5.3-0.9,10.5-1.7,15.6-2.3C241.9,170.4,289.5,150.1,342.3,143.4z"/>
<path id="Fin_Shadow" class="st0" d="M155.1,236.8c11.3-0.4,22.6-0.6,33.9-0.4c14.7,0.2,30.4,1,46.7,2.5
	c7.4-5.7,15.2-10.8,23.3-15.5c-48.4-2.1-113.4,0.3-175.4,20.5c1.6-0.3,26.6-4.9,64.3-6.8C150.3,237,152.7,236.9,155.1,236.8z"/>
</svg>
