<?xml version="1.0" encoding="utf-8"?>
<!-- Generator: Adobe Illustrator 25.2.3, SVG Export Plug-In . SVG Version: 6.00 Build 0)  -->
<svg version="1.1" id="Layer_1" xmlns="http://www.w3.org/2000/svg" xmlns:xlink="http://www.w3.org/1999/xlink" x="0px" y="0px"
	 viewBox="0 0 600 600" style="enable-background:new 0 0 600 600;" xml:space="preserve">
<style type="text/css">
	.st0{fill:#AAAAAA;}
	.st1{fill:#FFFFFF;}
	.st2{fill:#555555;}
</style>
<path id="Outline_Gray" class="st0" d="M0,300c0,165.3,134.6,299.8,300,299.8S600,465.3,600,300S465.4,0.2,300,0.2S0,134.7,0,300"/>
<path id="Outline_White" class="st1" d="M15.2,300C15.2,142.9,142.9,15,300,15s284.8,127.9,284.8,285S457,585,300,585
	C142.9,585,15.2,457.1,15.2,300"/>
<path id="Circle_Green" class="st2" d="M300,30.6C151.4,30.6,30.4,151.4,30.4,300S151.3,569.5,300,569.5S569.5,448.6,569.5,300
	S448.6,30.6,300,30.6"/>
<path id="Circle_Blue" d="M300,561C156.1,561,39.1,443.9,39.1,300S156.1,39,300,39c143.8,0,260.9,117.1,260.9,261S443.8,561,300,561
	"/>
<path id="White_Letters" class="st1" d="M314.7,60.9h-26.3v7.9h8.2l-0.2,51.4l10.2,0.1l0.2-51.4h8L314.7,60.9L314.7,60.9z
	 M376.3,72.7l-2.9,7.4l7.5,2.9L362,130.8l9.4,3.7l18.9-47.9l7.2,2.9l2.9-7.3L376.3,72.7L376.3,72.7z M222.3,73.5l-16,6.2l15.4,58
	l9.1-3.6l-3.4-12.2l8.4-3.4l6,11.2l9.1-3.6L222.3,73.5L222.3,73.5z M219.4,87.3l12.5,24.1l-6.6,2.7L218.1,88L219.4,87.3L219.4,87.3z
	 M144.3,118.4l-15.7,14.9l41.1,42.7l15.7-14.9l-5.4-5.7l-8.4,7.9l-14.4-15l8.4-7.9l-5.4-5.6l-8.4,7.9l-10.5-10.9l8.4-7.9
	L144.3,118.4L144.3,118.4z M456.7,118.6L417,162.7l15.9,14.4l5.2-5.8l-8.3-7.6l34.4-38.3L456.7,118.6L456.7,118.6z M300.9,142.9
	c-85.6,0-155.1,70.5-155.1,157.4l0,0c0,86.9,69.4,157.4,155.1,157.4l0,0c85.6,0,155.1-70.5,155.1-157.4l0,0
	C455.9,213.3,386.5,142.9,300.9,142.9L300.9,142.9z M511.5,186.4l-53,26.5l9.7,19.2l7-3.5l-5.2-10l18.6-9.3l5.2,10l7-3.5l-5.2-10.1
	l13.5-6.8l5.2,10l6.9-3.4L511.5,186.4L511.5,186.4z M90.8,190.1c-3.2-0.2-5.1,1.9-7.6,7.3c-0.1,0.3-2.2,5.4-2.4,5.7
	c-4.2,9.3-3.2,11.4,6,15.5l7.7,3.5c3.8,1.7,7.3,0.8,10.9-1.7l6.1-4.4c2-1.4,4-4.7,5.8-3.9l11.5,5.1c1.1,0.5,1.7,1,1.8,1.6
	c0.1,0.3-2,5.3-2.1,5.6c-0.5,1.1-1.5,1.2-3,0.5l-11-4.9l-4.2,9.4l9.7,4.3c9.1,4.1,11.4,3.5,15.6-5.8c0.2-0.3,2.3-5.4,2.4-5.7
	c3.8-8.8,2.6-10.6-6.4-14.6l-11.2-5.1c-3.5-1.6-6.4-2.1-10.1,0.6l-7.3,7.6c-1.9,1.4-3.2,2.6-4.9,1.9l-8.4-3.8
	c-1.5-0.6-2.1-1.3-1.7-2.4c0.1-0.2,2.2-5.2,2.4-5.4c0.5-0.5,1.3-0.5,2.5,0.1l8.2,3.7l4.1-9.2l-6.8-3.2
	C95.1,191.1,92.7,190.2,90.8,190.1L90.8,190.1z M476.6,354.6c-3.2,0-5,2.1-7.3,7.6c-0.1,0.3-2.1,5.7-2.2,6.1
	c-3.8,9.5-2.8,11.6,6.6,15.3l7.8,3.2c3.9,1.6,6.9,1.9,10.3-0.8l5.9-4.6c1.9-1.5,4.4-6.5,6.1-5.8l11.7,4.7c1.1,0.5,1.8,0.9,1.9,1.5
	c0.1,0.3-1.8,5.6-1.9,5.9c-0.5,1.1-1.4,1.2-3,0.6l-9.9-4.1l-3.9,9.5l8.6,3.5c9.3,3.8,11.5,3.1,15.3-6.4c0.1-0.3,2.1-5.7,2.2-6.1
	c3.5-8.9,2.1-10.7-6.9-14.4l-11.5-4.6c-3.6-1.4-7-0.2-10.6,2.7l-6.9,7.9c-1.8,1.4-2.6,1.4-4.4,0.7l-8.5-3.4
	c-1.5-0.6-2.2-1.2-1.8-2.3c0.1-0.3,2.1-5.5,2.2-5.7c0.5-0.5,1.3-0.5,2.5,0l8.1,3.4l3.8-9.4l-6.7-2.8
	C480.9,355.4,478.5,354.6,476.6,354.6L476.6,354.6z M128,358.7l-53.8,25.1L78,392l31.6-15.1l0.2,0.5L81.4,399l2.2,4.9l34.4-9.1
	l0.8,1.7L86.9,411l3.8,8.2l53.8-25l-5.5-11.8l-28.3,6.4l-0.2-0.4l22.6-18.7L128,358.7L128,358.7z M446,411.2
	c-2.7,0.2-5.3,2.2-8.4,5.8L427,429.1l44.8,38.8l6.6-7.7l-18.6-16.1c0.6-0.9,4.7-5.3,5.3-5.5c0.7-0.2,1.4,0.1,2.3,0.9l16.6,14.4
	l6.6-7.7l-15.2-13.1c-3.7-3.2-6.3-4.3-9.9-2.5c1.3-4.4-0.7-6.7-4.7-10.2l-5.8-5.1C451.4,412.3,448.7,410.9,446,411.2L446,411.2z
	 M445.1,420.9c0.8-0.1,1.5,0.6,2.8,1.7l8.6,7.5c1.3,1.1,1.8,1.9,1.4,2.8c-0.2,0.5-4.1,4.8-4.8,5.4l-13.7-11.9
	c0.5-0.6,4.4-4.9,4.8-5.2C444.6,421.1,444.8,421,445.1,420.9L445.1,420.9z M168.3,423.6l-47,37.2l6.9,6.9l9.9-8l6.3,6.4l-7.9,10
	l7,6.9l36.7-47.2L168.3,423.6L168.3,423.6z M165.4,437.7l1,1l-17.1,21.1l-5-5L165.4,437.7L165.4,437.7z M402.5,450l-18.6,10.8
	l29.7,51.3l18.6-10.7l-3.9-6.8l-9.8,5.7l-10.4-18l9.8-5.7l-3.9-6.8l-9.8,5.7l-7.6-13.1l9.8-5.7L402.5,450L402.5,450z M212.4,459.3
	l-24.8,53.8l9.2,4.3l10.3-22.3c1,0.3,6.6,3.1,7,3.6c0.4,0.6,0.3,1.4-0.2,2.5l-9.2,19.9l9.1,4.2l8.4-18.3c2-4.4,2.4-7.3-0.4-10.2
	c4.6,0,6.2-2.5,8.5-7.4l3.2-7c3.9-8.5,3.7-11.6-5-15.5L212.4,459.3L212.4,459.3z M218.4,470.5c0.8,0.3,6.2,2.9,6.6,3.2
	c1.1,0.8,0.7,1.8-0.3,3.9l-4.8,10.3c-0.7,1.6-1.3,2.3-2.4,2.1c-0.5-0.1-6-2.7-6.8-3.1L218.4,470.5L218.4,470.5z M349,474.5l-8.6,1.7
	l5.9,29l-0.4,0.1l-14.8-27.2l-8.9,1.8l11.6,58.1l8.7-1.7l-6.1-29.7l0.4-0.1l15.1,28l8.8-1.7L349,474.5L349,474.5z M273.9,479.2
	l-6.9,58.9l10.1,1.2l6.9-58.9L273.9,479.2L273.9,479.2z"/>
<path id="Stitches" d="M356.3,231.3c-0.4,0.3-0.8,0.7-0.8,0.7l-0.5,0.5l4.7,1.8C358.5,233.2,357.4,232.2,356.3,231.3L356.3,231.3z
	 M243.1,231.9c-0.4,0.4-0.8,0.7-1.2,1.1l-1.2,4.3l-1-0.9c-0.1,0-1,0.2-2,0.5c-1.1,1.1-2.2,2.2-3.3,3.4c1.5-0.4,5.8-1.6,6.5-1.9
	c0.5,0.5,1.1,1,1.1,1c0.7-0.2,2.4-6.1,2.4-6.1C244.3,233,243.5,232.2,243.1,231.9L243.1,231.9z M351.7,235.3
	c-0.5,0.1-1.8,1.2-1.8,1.2l-0.5,0.5l6.7,2.6l-1.1,0.9c-0.1,0.5,1.7,5.4,1.7,5.4c0.7,0.2,2.2-1.1,2.2-1.1c0.1-0.4-1.3-4.3-1.7-5.2
	c0.6-0.4,1.3-1,1.3-1C358.4,237.9,351.7,235.3,351.7,235.3L351.7,235.3z M248.2,235.3l-0.1,0.5l-1.5,5.6l-1.5-0.9
	c-0.4,0-7.4,2.1-7.4,2.1c-0.1,0.8,1.8,1.9,1.8,1.9c0.3,0,6.6-1.9,7.4-2.1c0.6,0.5,1.6,1.1,1.6,1.1c0.6-0.3,2.3-6.5,2.3-6.5
	c-0.2-0.5-1.9-1.5-1.9-1.5L248.2,235.3L248.2,235.3z M361,235.5l-0.5,0.4c-0.1,0.4,1.7,5.4,1.7,5.4c0.7,0.2,2.2-1.1,2.2-1.1
	c0-0.2-0.2-0.9-0.4-1.7C363,237.5,362,236.5,361,235.5L361,235.5z M346,239c-0.4,0-2.2,1-2.2,1l-0.7,0.4l6.5,3.3l-1.2,0.7
	c-0.2,0.4,0.4,5.6,0.4,5.6c0.6,0.3,2.5-0.8,2.5-0.8c0.2-0.4-0.3-4.6-0.4-5.4c0.7-0.3,1.5-0.8,1.5-0.8c0-0.1-0.1-0.2-0.3-0.3l0,0H352
	C351,241.5,346,239,346,239L346,239z M254.5,239.3l-0.1,0.6l-0.9,5.6l-1.6-0.8c-0.4,0-7.2,2.5-7.2,2.5c0,0.8,2,1.8,2,1.8
	c0.4,0,6.7-2.3,7.2-2.5c0.6,0.5,1.7,1,1.7,1c0.6-0.3,1.7-6.5,1.7-6.5c-0.2-0.5-2.2-1.4-2.2-1.4L254.5,239.3L254.5,239.3z
	 M339.8,242.2c-0.4,0-2.3,0.9-2.3,0.9l-0.7,0.3l6.4,3.7l-1.3,0.7c-0.2,0.4-0.1,5.7-0.1,5.7c0.6,0.4,2.6-0.7,2.6-0.7
	c0.2-0.3,0.1-4.6,0-5.5c0.7-0.2,1.7-0.7,1.7-0.7c0-0.1-0.1-0.2-0.2-0.4l0,0l-0.1-0.1C344.6,244.9,339.8,242.2,339.8,242.2
	L339.8,242.2z M262.1,243.1v0.6l-0.5,5.6l-1.8-0.7c-0.4,0-7,2.8-7,2.8c0,0.1,0.1,0.3,0.2,0.4c0.5,0.7,2,1.3,2,1.3
	c0.3,0,6.5-2.6,7-2.8c0.7,0.4,1.8,0.9,1.8,0.9c0.6-0.3,1.1-6.6,1.1-6.6c-0.3-0.4-2.3-1.2-2.3-1.2L262.1,243.1L262.1,243.1z
	 M333.3,245.1c-0.4,0-2.5,0.8-2.5,0.8l-0.8,0.3l6.2,4l-1.5,0.6c-0.3,0.3-1.1,5.7-1.1,5.7c0.6,0.5,2.8-0.4,2.8-0.4
	c0.3-0.3,1-4.8,1.1-5.6c0.7-0.2,1.8-0.6,1.8-0.6c0-0.1-0.1-0.2-0.2-0.4h0.1l-0.2-0.1C337.8,248.1,333.3,245.1,333.3,245.1
	L333.3,245.1z M269,246v0.6l0.7,5.6l-2-0.5c-0.3,0.1-6.4,3.6-6.4,3.6c0,0.1,0.1,0.2,0.2,0.4c0.6,0.6,2.3,1.1,2.3,1.1
	c0.3,0,5.9-3.3,6.3-3.5c0.8,0.3,2.2,0.7,2.2,0.7c0.5-0.5-0.2-6.7-0.2-6.7c-0.3-0.4-2.6-1-2.6-1L269,246L269,246z M326.9,249.8
	c0.3,1.8,0.6,3.5,0.9,5.1c0.1-0.5,0.1-0.9,0.2-1.1c0.8-0.1,2.2-0.5,2.2-0.5c0-0.1,0-0.2-0.2-0.4h0.1l-0.1-0.1
	C329.5,252.1,328.1,250.8,326.9,249.8L326.9,249.8z M300.4,257.2L300.4,257.2L300.4,257.2z M328.4,341.2c0,0.4-0.1,0.7-0.2,1.1
	c0.5-0.3,0.7-0.5,0.7-0.5c0-0.1-0.1-0.2-0.2-0.3C328.6,341.3,328.6,341.3,328.4,341.2L328.4,341.2z M336.7,343.3
	c-0.3,0-6.1,3.4-6.4,3.5c-0.7-0.3-2.2-0.7-2.2-0.7c-0.5,0.4,0.2,6.8,0.2,6.7c0.3,0.4,2.6,1,2.6,1l0.6,0.2l-0.8-6.3l2,0.5
	c0.3,0,6.4-3.6,6.4-3.6c0-0.1-0.1-0.2-0.2-0.4l0,0C338.4,343.7,336.7,343.3,336.7,343.3L336.7,343.3z M266.2,343.4
	c-0.9,0.1-2.1,0.5-2.1,0.5c-0.2,0.3-1,4.8-1.1,5.5c-0.8,0.2-1.8,0.6-1.8,0.6c0,0.1,0.3,0.5,0.3,0.5c1.2,1.3,5.7,4.3,5.7,4.3
	c0.4,0,2.5-0.8,2.5-0.8l0.8-0.3l-6.1-4l1.5-0.5c0.3-0.3,1.1-5.7,1.1-5.7C266.8,343.4,266.5,343.3,266.2,343.4L266.2,343.4z
	 M272.5,346.2c-0.8,0.1-2.1,0.5-2.1,0.5c0,0.1,0,0.2,0.2,0.4h-0.1l0.1,0.1c0.5,0.6,1.5,1.6,2.5,2.5
	C272.9,348.5,272.7,347.3,272.5,346.2L272.5,346.2z M258,346.4c-0.8,0.1-1.9,0.7-1.9,0.7c-0.2,0.3-0.1,4.6-0.1,5.5
	c-0.7,0.3-1.7,0.7-1.7,0.7c0,0.1,0.3,0.5,0.3,0.5c1.3,1.2,6,4,6,4c0.4,0,2.3-0.9,2.3-0.9l0.7-0.3l-6.4-3.7l1.3-0.7
	c0.2-0.4,0.1-5.7,0.1-5.7C258.5,346.4,258.3,346.4,258,346.4L258,346.4z M345.6,346.9c-0.3,0-6.6,2.7-7,2.8
	c-0.7-0.4-1.9-0.9-1.9-0.9c-0.6,0.3-1.1,6.6-1.1,6.6c0.3,0.4,2.3,1.3,2.3,1.3l0.5,0.2l0.5-6.3l1.7,0.8c0.4,0,7-2.8,7-2.8
	c0-0.1-0.1-0.3-0.2-0.4l0,0l0,0C347,347.5,345.6,346.9,345.6,346.9L345.6,346.9z M250.9,349.8c-0.8,0.2-1.9,0.8-1.9,0.8
	c-0.2,0.3,0.3,4.6,0.4,5.4c-0.7,0.3-1.5,0.8-1.5,0.8c0,0.1,0.1,0.2,0.2,0.3l0,0h0.1c1.2,1.1,6.3,3.7,6.3,3.7c0.4,0,2.2-1.1,2.2-1.1
	l0.7-0.4l-6.6-3.3l1.2-0.7l0,0c0.2-0.4-0.4-5.6-0.4-5.6C251.4,349.8,251.2,349.8,250.9,349.8L250.9,349.8z M353.9,351
	c-0.3,0-6.8,2.3-7.2,2.5c-0.6-0.5-1.7-1-1.7-1c-0.6,0.3-1.6,6.6-1.6,6.6c0.2,0.5,2.1,1.4,2.1,1.4l0.5,0.3l1-6.2l1.7,0.8
	c0.3,0,7.2-2.5,7.2-2.5C356,352,353.9,351,353.9,351L353.9,351z M243.9,354c-0.7-0.2-2.2,1.1-2.2,1.1c-0.1,0.4,1.3,4.3,1.7,5.2
	c-0.6,0.4-1.3,1.1-1.3,1.1c0.1,0.7,6.8,3.3,6.8,3.3c0.5-0.1,1.8-1.3,1.8-1.3l0.5-0.4l-6.7-2.6l1.1-0.9
	C245.7,359,243.9,354,243.9,354L243.9,354z M361.2,355.5c-0.3-0.1-6.6,1.8-7.3,2.1c-0.6-0.5-1.6-1.1-1.6-1.1
	c-0.6,0.3-2.3,6.5-2.3,6.5c0.2,0.5,1.9,1.5,1.9,1.5l0.5,0.3l1.7-6.1l1.5,0.9c0.3,0,7.4-2.1,7.4-2.1
	C363.1,356.6,361.2,355.5,361.2,355.5L361.2,355.5z M238.3,358.6c-0.7-0.2-2.2,1.1-2.2,1.1c0,0.2,0.3,1.3,0.7,2.4
	c0.9,0.9,1.7,1.7,2.6,2.5l0.6-0.5C240.2,363.6,238.3,358.6,238.3,358.6L238.3,358.6z M365.3,359.9c-1.9,0.5-5.1,1.5-5.7,1.6
	c-0.5-0.5-1.1-1-1.1-1c-0.7,0.2-2.4,6.1-2.4,6.1c0.1,0.2,0.6,0.7,1,1.1c0.6-0.5,1.2-1,1.8-1.5l1-3.5l1,0.8c0.1,0,0.5-0.1,1.1-0.2
	C363.1,362.3,364.2,361.1,365.3,359.9L365.3,359.9z M240.3,365.5c1.3,1.1,2.5,2.2,3.8,3.3c0.5-0.4,1-0.8,1-0.8l0.5-0.5L240.3,365.5
	L240.3,365.5z"/>
<path id="Compass_Gray" class="st0" d="M300,122.6V300c-2.3-2.9-22.1-23.2-29.6-30.2c-0.1,0-0.3,0-0.5,0.1
	c-5.4,0.5-27.2,3.1-55.4,6.6c-1.2,0.2-2.4,0.3-3.6,0.5c-19.6,2.5-41.9,5.3-63.9,8.2c-3,0.3-5.9,0.7-8.8,1.1
	c-49.4,6.4-94.6,12.5-99.1,13.6c-0.2,0.1-0.4,0.1-0.4,0.2H300c-2.3,2.9-22.1,23.3-29.6,30.2c-0.1,0-0.3,0-0.5-0.1
	c0.7,6.7,5.2,30.1,10.5,56.4c0.2,1.2,0.5,2.3,0.7,3.5c4.6,22.5,9.7,46.6,13.4,63.7c0.7,3.1,1.3,6,1.9,8.5c2.1,9.3,3.5,15.1,3.6,15.1
	V300.1l0,0c0,0,0,0,0.1-0.1c0,0,0,0,0.1-0.1c2.6-3.2,22-23.3,29.5-30.2c0.2,0,0.4,0,0.7,0c-0.7-6.7-5.1-30.1-10.4-56.3
	c-0.2-1.2-0.5-2.3-0.7-3.5c-4.5-22.4-9.6-46.4-13.4-63.6c-0.7-3.1-1.3-5.9-1.9-8.5C301.7,128.3,300.2,122.5,300,122.6L300,122.6z
	 M198.8,184.3l40.5,46.5c6-5.3,12.7-9.8,20-13.4C246.2,209.4,198.8,184.3,198.8,184.3L198.8,184.3z M401.2,184.4L360,230.1
	c6,5.2,11.3,11.1,15.8,17.6C382.4,231.8,399.6,189.1,401.2,184.4L401.2,184.4z M561.9,299.9c0.2,0.1,0.3,0.1,0.3,0.1
	c0.1,0,0.1,0,0.1,0C562.2,299.9,562.1,299.9,561.9,299.9L561.9,299.9z M300.1,300c2.5,3.1,22.1,23.2,29.6,30.2c0.1,0,0.3,0,0.5,0
	c5.4-0.5,27.2-3.2,55.4-6.7c1.2-0.2,2.4-0.3,3.6-0.5c19.6-2.5,41.8-5.3,63.8-8.2c2.9-0.4,5.9-0.7,8.8-1.1
	c47.2-6.1,90.7-12,99.1-13.4c0.5-0.1,0.9-0.2,1.2-0.2L300.1,300L300.1,300z M224,351.8c-6.4,15.6-22.5,55.8-24.8,62.6l40.7-44.8
	C233.9,364.4,228.5,358.4,224,351.8L224,351.8z M361.3,368.6c-6,5.3-12.6,9.9-19.8,13.5c13.1,8.1,59,34.2,59,34.2L361.3,368.6
	L361.3,368.6z M200,414.6c-0.4,0.2-0.7,0.3-1,0.5c0,0.2-0.1,0.3,0,0.3C199,415.4,199.3,415.1,200,414.6L200,414.6z"/>
<path id="Compass_Green" class="st2" d="M461.8,286.2c-0.2-2.5-0.5-5-0.8-7.4c0-0.1,0-0.2,0-0.3c-0.3-2.4-0.7-4.8-1.1-7.2
	c0-0.1-0.1-0.2-0.1-0.3c-0.4-2.4-0.9-4.7-1.5-7.1c0-0.1-0.1-0.2-0.1-0.3c-0.5-2.4-1.2-4.7-1.8-7v-0.1c-8.1-28.7-23.8-54.3-45-74.3
	c0,0,0,0-0.1,0c-1.7-1.6-3.5-3.2-5.3-4.8c-0.1,0-0.1-0.1-0.2-0.1c-1.8-1.6-3.6-3.1-5.5-4.5l-0.1-0.1c-26.7-21-60.1-33.8-96.5-34.7
	c0.6,2.6,1.2,5.5,1.9,8.5c36.5,1.3,69.8,15.5,95.5,38.1c0,0-45.7,24.7-60.2,33.1c-6.8-3.4-14.2-6-21.9-7.6c0.2,1.2,0.5,2.3,0.7,3.5
	c13.6,3.1,26,9.4,36.5,17.9c1.1,0.9,2.3,1.9,3.4,2.9c0.5,0.4,0.9,0.9,1.4,1.3c1,1,2,2,3,3c10.1,10.5,17.6,23.5,21.6,37.9
	c-28-3.5-49.7-6.1-55.4-6.7c-0.2,0-0.5,0-0.7,0c-7.5,6.9-26.8,27-29.5,30.2v0.1l-0.1,0.1h0.1v177.3c0.2,0,1.6-5.8,3.6-15.1
	c36.4-0.8,69.9-13.6,96.7-34.7c0,0,0.1,0,0.1-0.1c1.9-1.5,3.7-3,5.5-4.5l0.1-0.1c1.8-1.6,3.6-3.2,5.3-4.8l0,0
	c22.9-21.7,39.6-49.9,46.9-81.7v-0.1c0.5-2.4,1-4.8,1.5-7.2c0-0.1,0-0.2,0-0.2c0.4-2.4,0.8-4.9,1.1-7.3c0-0.1,0-0.1,0-0.2
	c0.3-2.5,0.6-5,0.8-7.5c-2.9,0.4-5.8,0.7-8.8,1.1c-7.3,76.1-70.2,136.2-147.5,138.9c3.8-17.1,8.8-41.2,13.4-63.7
	c8-1.7,15.5-4.3,22.6-7.9c7.2-3.6,13.8-8.2,19.8-13.5l39.2,47.7c0.5-0.2-17.4-48.6-24-65c5.8-8.5,10.1-18.1,12.7-28.3
	c-1.2,0.2-2.4,0.3-3.6,0.5c-3.8,13.8-10.8,26.3-20.3,36.5c-1.1,1.2-2.2,2.3-3.4,3.5c-1,1-2,2-3.1,2.9c-0.6,0.5-1.2,1-1.8,1.5
	c-10.6,9-23.4,15.5-37.5,18.7c5.4-26.3,9.9-49.8,10.5-56.4c-0.2,0-0.3,0-0.5,0c-7.5-6.9-27.1-27.1-29.6-30.2h261.9h0.3
	c0,0,0,0-0.1,0c0,0-0.1,0-0.3-0.1c-0.2,0-0.6-0.1-1-0.2C552.7,298.2,509.1,292.3,461.8,286.2L461.8,286.2L461.8,286.2z M389.2,276.9
	c-2.7-10.6-7.3-20.4-13.4-29.1c-4.5-6.5-9.8-12.4-15.8-17.6l40.7-45.3l0.5-0.5C429.9,209.5,449.1,245,453,285
	C431.1,282.2,408.8,279.3,389.2,276.9 M138.2,313.6c0.2,2.5,0.5,5,0.8,7.5c0,0,0,0.1,0,0.2c0.3,2.5,0.7,4.9,1.1,7.4c0,0,0,0.1,0,0.2
	c0.4,2.5,0.9,4.9,1.5,7.3c0,0,0,0,0,0.1c7.3,31.9,23.9,60.1,46.9,81.8c1.8,1.7,3.5,3.3,5.4,4.9c0,0,0.1,0,0.1,0.1
	c1.8,1.6,3.6,3.1,5.5,4.6l0.1,0.1c26.8,21.1,60.3,33.9,96.7,34.7c-0.6-2.6-1.2-5.4-1.9-8.5c-36.8-1.3-70.3-15.6-96.1-38.4
	c0,0,0.2,0,0.6-0.2c0.2-0.1,0.6-0.3,1-0.5c8-4,44.8-24.3,58.9-32.4c7,3.5,14.4,6.1,22.2,7.7c-0.2-1.2-0.5-2.3-0.7-3.5
	c-13.5-3.1-25.8-9.2-36.2-17.7c-1.3-1.1-2.6-2.2-3.8-3.3c-0.3-0.3-0.6-0.6-0.9-0.9c-0.9-0.9-1.7-1.7-2.6-2.6
	c-10.5-10.7-18.3-23.9-22.3-38.7c28.2,3.6,49.9,6.2,55.4,6.7c0.2,0,0.4,0.1,0.5,0.1c7.6-6.9,27.3-27.3,29.6-30.2H38.7
	c0,0,0.2,0.1,0.4,0.1C43.5,301,88.8,307.1,138.2,313.6L138.2,313.6L138.2,313.6z M210.8,322.9c2.7,10.5,7.2,20.2,13.2,28.9
	c4.5,6.6,9.9,12.5,15.9,17.7l-40.7,44.8l-0.8,0.9c-28.5-25.2-47.7-60.7-51.5-100.6C168.9,317.6,191.3,320.4,210.8,322.9 M300,122.6
	c-0.2,0-1.6,5.8-3.6,15.2l0,0c-33.8,0.8-65.1,11.9-90.8,30.3c0,0,0,0-0.1,0.1c-1.9,1.4-3.8,2.8-5.7,4.3c0,0-0.1,0.1-0.2,0.1
	c-1.8,1.5-3.7,3-5.5,4.5c-0.1,0.1-0.1,0.1-0.2,0.2c-1.8,1.5-3.6,3.1-5.3,4.8l0,0c-21.2,20-37,45.5-45,74.3c0,0.1,0,0.1,0,0.1
	c-0.7,2.3-1.3,4.7-1.8,7.1c0,0.1-0.1,0.2-0.1,0.3c-0.5,2.3-1,4.7-1.5,7.1c0,0.1,0,0.2-0.1,0.4c-0.4,2.4-0.8,4.8-1.1,7.2
	c0,0.1,0,0.2,0,0.3c-0.3,2.5-0.6,5-0.8,7.5l0,0c2.9-0.4,5.9-0.8,8.8-1.1c3.9-40.1,23.2-75.7,51.8-100.8c-0.2,0.9,18.5,47,25.3,63.5
	c-6,8.7-10.6,18.5-13.3,29.1c1.2-0.2,2.4-0.3,3.6-0.5c3.7-13.6,10.7-26,19.9-36.2c1.1-1.2,2.2-2.3,3.3-3.4c1.4-1.4,2.7-2.6,4.2-3.9
	c0.4-0.3,0.8-0.7,1.2-1.1c10.6-8.9,23.3-15.3,37.2-18.5c-5.3,26.2-9.9,49.7-10.5,56.4c0.2,0,0.4,0,0.5-0.1
	c7.6,7,27.3,27.3,29.6,30.2L300,122.6L300,122.6z M281.1,209.9c-7.6,1.6-15,4.1-21.8,7.5c-7.2,3.6-13.9,8.1-20,13.4l-40.5-46.5
	c25.8-22.6,59.1-36.7,95.7-38C290.7,163.5,285.7,187.4,281.1,209.9"/>
</svg>
