<?xml version="1.0" encoding="utf-8"?>
<!-- Generator: Adobe Illustrator 25.2.3, SVG Export Plug-In . SVG Version: 6.00 Build 0)  -->
<svg version="1.1" id="Layer_1" xmlns="http://www.w3.org/2000/svg" xmlns:xlink="http://www.w3.org/1999/xlink" x="0px" y="0px"
	 viewBox="0 0 600 600" style="enable-background:new 0 0 600 600;" xml:space="preserve">
<style type="text/css">
	.st0{fill:#FFFFFF;}
	.st1{fill:#AAAAAA;}
	.st2{fill:#555555;}
</style>
<path id="Outline" d="M295.6,456.4c-86.2,0-156.4-70.2-156.4-156.4s70.2-156.4,156.4-156.4S452,213.8,452,300
	S381.8,456.4,295.6,456.4z"/>
<path id="Ball_White_BG" class="st0" d="M295.6,453.9c85,0,153.9-68.9,153.9-153.9s-68.9-153.9-153.9-153.9S141.7,215,141.7,300
	S210.6,453.9,295.6,453.9"/>
<path id="Ball_Gold_BG" class="st1" d="M144.2,321l-1.1,0.2c-0.2-1.5-0.4-2.9-0.5-4.4c0.3,0.1,1,0.1,1.7,0.1c1.4,0,2,1.4,2,2.1
	C146.2,319.7,145.8,321,144.2,321 M449.5,300c0,85-68.9,153.9-153.9,153.9c-25.9,0-50.2-6.4-71.6-17.7l0.2-0.5l-0.7-0.7l-0.7,0.6
	c-6.7-3.6-13.2-7.7-19.3-12.3v-0.1l-0.9-0.9l-0.3,0.1c-1.1-0.8-2.2-1.7-3.2-2.5l0.4-0.8c0-0.6-0.4-1-1-1l-0.9,0.6
	c-1-0.9-2.1-1.7-3.1-2.6c0.5-0.1,0.9-0.5,0.9-1.1s-0.5-1.1-1.1-1.1s-1.1,0.5-1.1,1.1c-1.1-1-2.1-2-3.2-2.9h0.1
	c0.7,0,1.2-0.5,1.2-1.2s-0.5-1.2-1.2-1.2s-1.2,0.5-1.2,1.2v0.2c-1.1-1-2.1-2-3.1-3.1h0.1c0.7,0,1.3-0.6,1.3-1.3
	c0-0.7-0.6-1.3-1.3-1.3s-1.3,0.6-1.3,1.3v0.1c-0.9-0.9-1.8-1.9-2.7-2.9c0.7-0.1,1.2-0.7,1.2-1.4c0-0.8-0.6-1.4-1.4-1.4
	c-0.7,0-1.2,0.5-1.4,1.1c-0.7-0.8-1.4-1.7-2.2-2.5c0.5-0.2,0.9-0.7,0.9-1.3c0-0.8-0.7-1.5-1.5-1.5c-0.5,0-0.9,0.2-1.2,0.6
	c-0.6-0.8-1.3-1.6-1.9-2.4l0.3-0.9c0-0.8-0.6-1.4-1.4-1.4l-0.6,0.1c-4.3-5.6-8.2-11.5-11.6-17.7c0.7-0.1,1.7-0.5,1.7-1.9
	c0-1.8,0.2-2.1,2.2-2.1c1,0,1.9,0.8,1.9,2.1c0,1.2-0.5,2.2-2,2.2c-1.4,0-2,0.6-2,2s1.1,2,2,2s2-0.6,2-2s0.9-1.9,2.2-1.9
	c0.8,0,1.8,0.9,1.8,1.9c0,0.9-0.3,2.1-1.9,2.1c-1.8,0-2.1,0.6-2.1,2.1c0,1.3,1,2.1,2.1,2.1c2,0,2.1,0,2.1-2.1c0-1.3,0.8-1.8,2.1-1.8
	c0.3,0,1.8,0.6,1.8,1.8c0,0.8-0.1,1.9-1.8,1.9c-2,0-2.1,0.2-2.1,2.3c0,0.7,0.5,2.1,2.1,2.1c2,0,2,0,2,2c0,0.8,0.2,2.1,2.2,2.1
	c1.9,0,2,0,2,2c0,0.7,0.3,2.2,2.2,2.2c2.1,0,2,0.1,2,2c0,1,0.6,2.1,2.2,2.1c2,0,2.1-0.2,2.1-2.1c0-1,0.6-1.8,2.1-1.8
	c0.8,0,1.8,0.8,1.8,1.8c0,1.3-0.6,2.1-1.8,2.1c-2,0-2.1,0.3-2.1,2.1c0,1.4,1,2.1,2.1,2.1c1.2,0,2.1-0.9,2.1-2.1
	c0-0.8,0.5-1.8,2.1-1.8c0.7,0,1.8,0.8,1.8,1.8c0,0.7-0.1,2-1.8,2s-2.1,0.2-2.1,2.2c0,1.7,1.4,2.1,2.1,2.1c0.6,0,2-0.4,2-2.1
	c0-1.2,1-1.9,2.2-1.9c0.9,0,1.9,0.7,1.9,1.9c0,2-0.8,2.2-2,2.2c-1.6,0-2,0.2-2,2c0,1.7,1.5,2,2,2s2-0.2,2-2c0-1.7,0.3-2.1,2.2-2.1
	c1,0,2.1,1,2.1,2.1c0,2.1,0.1,2.2,2.1,2.2c1.5,0,2,0.3,2,2c0,1.4,0.1,2.2,2.1,2.2c2.1,0,2,0.1,2,2c0,0.9,0.2,2.2,2.1,2.2
	c2,0,2.1-1.5,2.1-2.2s0.4-2,2-2s2,1.2,2,2c0,1.9-0.1,2-2,2c-1.7,0-1.8,1.5-1.8,2.2s0.6,1.9,1.9,1.9c1.7,0,2-1,2-1.9
	c0-2,0.1-2.1,2.1-2.1c1.5,0,2.1,1,2.1,2.1c0,1.7,0.5,2.1,2.1,2.1c2.3,0,2.2-0.1,2.2-2.1c0-0.7,0.4-1.9,1.9-1.9s1.9,1.2,1.9,1.9
	s-0.1,1.9-1.9,1.9c-1.8,0-2.1,0.2-2.1,2.2c0,1.4,0.7,1.9,2.1,1.9c1.4,0,2.1-0.3,2.1-1.9s1.5-2,2-2c0.6,0,2,0.5,2,2
	c0,1.9,0.1,2,2.1,2s2.2,0,2.2,2.2c0,1.2,0.5,1.9,2,1.9s2-0.4,2-1.9s1.3-2.1,2.2-2.1s2.1,0.6,2.1,2.1s0.2,2.2,2.1,2.2
	c2.1,0,2.1-0.3,2.1-2.2c0-1.1,0.8-2,2-2c1.3,0,2,0.7,2,2c0,2.2,0,2.2,2.2,2.2c2.1,0,2.1,0.1,2.1,2c0,1.5,1,1.9,2.1,1.9
	s2.1-0.4,2.1-1.9s0-2,2.1-2c2,0,2.1,0.5,2.1,2c0,1.4,0.7,1.9,2.1,1.9s2.2-0.4,2.2-1.9s0.1-2,2-2s2.1,0.5,2.1,2s0.7,1.9,2.1,1.9
	s2.1-0.3,2.1-1.9c0-1.8,0.1-2,2-2c2.1,0,2.1,0.3,2.1,2s0.8,1.9,2,1.9c1.3,0,2.2-0.1,2.2-1.9s0-2,2-2s2.1,0.2,2.1,2
	c0,1.3,1.2,1.8,2.1,1.8s2.2-0.5,2.2-1.8c0-2-0.2-2.2-2.2-2.2s-2-0.1-2-2c0-1.1,0.7-2,2-2s2,0.8,2,2c0,2.1,0.2,2.2,2.2,2.2
	s2.1-0.1,2.1-2.2c0-1.1,0.7-2,2-2s2,0.9,2,2c0,2,0.9,2.2,2.1,2.2c1.3,0,2.1-0.6,2.1-2.2s1.3-2.1,2.1-2.1c2,0,2.1,0.2,2.1,2.1
	c0,1.7,1.4,2,2.1,2c0.6,0,2-0.4,2-2c0-2-0.2-2.2-2-2.2s-2-0.2-2-2c0-1.1,0.6-2,2-2c1.3,0,2,0.9,2,2c0,2,0.2,2,2.2,2s2.1-0.1,2.1-2
	c0-1.2,0.8-2,2-2s2,0.6,2,2s1.3,2,2.2,2c0.8,0,2.1-0.5,2.1-2c0-2.2-0.3-2.2-2.1-2.2c-1,0-1.9-0.5-1.9-1.9s1.1-1.9,1.9-1.9
	c0.9,0,1.9,0.5,1.9,1.9c0,2,0.2,2.1,2.2,2.1s2.1-0.2,2.1-2.1c0-0.9,0.5-2.1,2.1-2.1c2,0,2.1,0.2,2.1,2.1c0,0.9,0.8,1.9,2.1,1.9
	c1.3,0,2-1.2,2-1.9c0-1.6-0.9-2.2-2-2.2c-1.8,0-2,0-2-2c0-1.5,1.2-2,2-2c1.7,0,2,0.3,2,2c0,1.6,1.5,2.2,2.2,2.2
	c0.6,0,2.2-0.3,2.2-2.2c0-1.9,0.2-2,2-2s2.1-0.7,2.1-2.2c0-1.4,0.2-2,2-2c2.2,0,2.2-0.2,2.2-2.2c0-0.4,0.7-2,2-2
	c2.1,0,2.2,0.3,2.2,2c0,1,0.6,2,2,2s2-1,2-2s-0.6-2-2-2c-1.8,0-2.1-0.3-2.1-2.2c0-1,1.3-2,2.1-2c1.8,0,2.1,0.9,2.1,2
	c0,0.9,0.6,2.1,2.1,2.1s2.1-1.1,2.1-2.1s-0.6-2-2.1-2c-1.4,0-1.7-1.3-1.7-2.1c0-1.1,0.7-1.9,1.7-1.9c1.4,0,2.1,0.5,2.1,1.9
	s0.9,2.1,2.1,2.1s2.1-0.9,2.1-2.1c0-1.3-0.8-2.1-2.1-2.1c-1.3,0-2-1-2-2.1c0-1,1-1.7,2-1.7s2,0.3,2,1.7c0,1.5,1.1,2.1,2.2,2.1
	s2.1-0.7,2.1-2.1s-1.1-2.1-2.1-2.1s-2-0.8-2-2c0-0.7,1-1.8,2-1.8c1.6,0,2,0.3,2,1.8c0,1.2,0.9,2.2,2.2,2.2c1.3,0,2.2-0.9,2.2-2.2
	c0-1.3-0.8-2.2-2.2-2.2c-1.4,0-1.8-1.1-1.8-2c0-0.7,0.8-1.7,1.8-1.7c1.8,0,2,0.7,2,1.7s0.4,2.1,2.1,2.1s2.1-1.3,2.1-2.1
	c0-1.9-0.4-2.1-2.1-2.1c-1.6,0-1.7-1.5-1.7-2s0.1-1.7,1.7-1.7s2,0.6,2,1.7c0,1.8,0.2,2.1,2.1,2.1c1.4,0,2.1-1,2.1-2.1
	c0-1.6-0.2-2.1-2.1-2.1c-1.3,0-1.8-1.5-1.8-2c0-1,0.9-1.8,1.8-1.8c2.1,0,2.1,1,2.1,1.8c0,1.7,0.2,2.1,2.1,2.1c1.8,0,2-1.5,2-2.1
	c0-0.5-0.3-2.1-2-2.1c-1.5,0-1.9-0.5-1.9-2.1c0-1.2,0.9-2.1,1.9-2.1c2.2,0,2.2,1.2,2.2,2.1s0.4,2,2,2s2-1.3,2-2c0-0.6-0.4-2-2-2
	s-2-1.8-2-2.2c0-0.4,0.5-2.1,2-2.1c2.2,0,2.2-0.1,2.2-2.1c0-1.4,0.6-2.1,2-2.1c2,0,2.3-0.4,2.3-2.1s0-2,1.9-2c0.9,0,2.3-0.4,2.3-2.2
	c0-1.7-1.2-2.1-2.3-2.1c-1.1,0-2.1-0.6-2.1-2.1s1.1-2.1,2.1-2.1c1.9,0,2.1,0.2,2.1,2.1c0,1.6,0.7,1.9,2.1,1.9s2-0.9,2-1.9
	s-0.5-2.1-2-2.1c-1.9,0-2.1-0.1-2.1-2.1c0-1,0.5-2.1,2.1-2.1c2.1,0,2.2-0.2,2.2-2.1s0-2.1,2-2.1c1.3,0,2.1-0.9,2.1-2.1
	c0-1.1-0.4-2.1-2.1-2.1s-2-1.2-2-2s0.5-2,2-2c2.1,0,2.2-0.2,2.2-2.1s0.1-2.1,2-2.1c1.1,0,2.1-1,2.1-2.1s-0.7-2.1-2.1-2.1
	s-2-1.1-2-2.1c0-1.1,1.2-2.1,2-2.1s2.4-0.1,2.4-2.1s-1-2.2-2.4-2.2s-2-1-2-2s0.6-2,2-2c2,0,2,0.1,2,2c0,0.7,0.6,2.1,2.2,2.1
	s2.1-1.5,2.1-2.1s-0.4-2-2.1-2c-2.1,0-1.9-0.6-1.9-2.1s0.3-2.1,1.9-2.1s2.1-0.8,2.1-2.1c0-1.3-0.4-2.1-2.1-2.1s-2-0.9-2-2.1
	s0.6-2.1,2-2.1s2.2-0.6,2.2-2.1s-0.6-2.1-2.2-2.1c-1.7,0-2.1-1.5-2.1-2.1s0.4-2.1,2.1-2.1s2.3-0.6,2.3-2.1s-0.6-2.1-2.3-2.1
	c-1.7,0-2.1-1.6-2.1-2.1s0.2-2.1,2.1-2.1s2.3-0.6,2.3-2s-0.6-2.1-2.3-2.1c-1.2,0-2-0.6-2-2c0-1.5,0.6-2.1,2-2.1s2.2-0.8,2.2-2.1
	s-0.6-2.2-2.2-2.2s-2-0.1-2-2s0.4-2.2,2-2.2c1,0,2.1-0.6,2.1-2.1c0-1.4-1-2-2.1-2c-1,0-2.1,0.8-2.1,2c0,1.7,0,2.1-2.1,2.1
	c-1.5,0-2-1.2-2-2.1c0-0.8,0.5-2,2-2c2,0,2.3-0.2,2.3-2.1s-0.4-2.1-2.3-2.1c-1.5,0-2-1.3-2-2.1c0-0.7,0.4-2.2,2-2.2
	c1.5,0,2.1-1.3,2.1-2c0-0.7-0.3-2-2.1-2c-1.8,0-1.9-0.1-1.9-2.1s-0.1-2.2-2.3-2.2c-1.1,0-1.8-1.2-1.8-2s0.2-2.2,1.8-2.2
	c1.6,0,2.3-0.8,2.3-2s-1.3-2.3-2.3-2.3c-1.6,0-1.9-0.5-1.9-1.9c0-2.2,0-2.1-2.3-2.1c-1.4,0-2.1-1.1-2.1-2.1c0-0.9,0.6-2.2,2.1-2.2
	s2-1,2-1.9c0-1,0-2.2-2-2.2c-1.9,0-2.5,1.4-2.5,2.2s-0.5,1.7-1.7,1.7s-1.7-1-1.7-1.7c0-1.3,0.8-1.8,1.7-1.8c1.9,0,2.3-0.7,2.3-2.4
	c0-1.6-0.9-2.2-2.3-2.2c-0.7,0-2,0.1-2-1.9s-0.1-2.2-2.2-2.2c-1.1,0-2.1-0.6-2.1-2s0.9-2.2,2.1-2.2s2.1-0.6,2.1-2.1
	c0-1.4-1.2-2.1-2.1-2.1s-2.1,0.5-2.1,2.1c0,1.5-0.8,2.1-2.1,2.1c-1.3,0-2-0.9-2-2s0.8-2,2-2c1.1,0,2.2-0.7,2.2-2.2s-1.1-2.3-2.2-2.3
	s-2.2,1-2.2,2.3s-0.7,1.8-2,1.8s-1.8-1.3-1.8-1.8c0-1.3,0.8-2,1.8-2c2,0,2.2-1.7,2.2-2.2s-0.3-2.2-2.2-2.2c-1.9,0-1.9-0.1-1.9-2
	c0-0.6-0.3-2.2-2.2-2.2c-1.9,0-1.9,0-1.9-1.9c0-0.7-0.3-2.2-2.2-2.2c-1.9,0-1.9,0-1.9-1.9c0-0.7-0.4-2.2-2.2-2.2c-1.8,0-2-0.1-2-1.9
	c0-0.9-0.4-2.2-2.2-2.2c-1.7,0-2-0.4-2-2c0-1-0.4-2.2-2.2-2.2c-2.4,0-2.1-1.2-2.1-1.9s-0.4-2.1-2.1-2.1c-2,0-2.1,0-2.1-2.1
	c0-1.8-1.4-2.1-2.1-2.1s-2.1,0.2-2.1,2.1c0,1.8-1.7,1.9-2.1,1.9c-1.2,0-2-0.9-2-1.8c0-1.6,1.6-2.2,2-2.2s2-0.2,2-2s-1.4-2.1-2-2.1
	s-2,0.3-2,2s-1.3,2.1-2.1,2.1c-0.8,0-2-0.4-2-2c0-2-0.1-2.2-2.2-2.2c-1.6,0-2-0.5-2-2s-0.5-2.2-2.2-2.2c-1.6,0-2.1-0.6-2.1-1.9
	c0-1.4-0.8-2.1-2.1-2.1c-1.3,0-2.1,0.9-2.1,2.1c0,1.2-0.9,1.8-2.1,1.8s-2-0.6-2-1.8c0-2,0-2.2,2-2.2c1.1,0,1.9-0.8,1.9-1.9
	c0-1.1-0.8-1.9-1.9-1.9s-1.9,0.8-1.9,1.9c0,1.8-0.1,2-2.2,2c-1.6,0-2.1-1.2-2.1-2s-0.2-2.4-2.1-2.4s-2.3,1.2-2.3,2.4
	c0,1.3-1,1.9-1.9,1.9s-1.9-0.8-1.9-1.9c0-1.2,1-2.2,1.9-2.2s2-0.5,2-2s-1.5-2-2-2s-2,0.2-2,2s-1.2,2.1-2.2,2.1
	c-0.9,0-2.1-0.5-2.1-2.1c0-1.5-0.7-2.3-2.1-2.3s-2.2,0.7-2.2,2.3s-1.6,2-1.9,2c-0.4,0-2-0.3-2-2c0-1.6,0.9-2.3,2-2.3
	c1,0,1.9-0.7,1.9-1.9s-0.9-1.9-1.9-1.9s-1.9,0.9-1.9,1.9c0,2-0.5,1.9-2.3,1.9s-2.1-0.6-2.1-1.9c0-1.3-1.1-2.1-2-2.1
	s-2.1,0.7-2.1,2.1c0,1.4-0.7,1.9-2.1,1.9s-1.9-0.5-1.9-1.9s-1.3-2.2-2.2-2.2c-0.9,0-2.2,0.8-2.2,2.2s-0.6,1.6-1.9,1.6
	s-1.9-0.5-1.9-1.6c0-1.2-1-2.3-2.3-2.3s-2.3,1.2-2.3,2.3c0,1-0.5,1.6-1.9,1.6s-1.9-0.5-1.9-1.6s-1-2.3-2.3-2.3s-2.3,1.1-2.3,2.3
	s-0.8,1.6-1.9,1.6s-1.9-0.4-1.9-1.6c0-1.3-1.1-2.3-2.3-2.3c-1.2,0-2.3,1-2.3,2.3s-0.9,1.7-1.8,1.7c-1,0-2-0.3-2-1.7
	s-1.3-2.2-2.2-2.2c-0.9,0-2.3,0.6-2.3,2.2c0,1.6-1.1,1.9-1.9,1.9s-2.2-0.3-2.2-1.9c0-0.7-0.3-1.3-0.7-1.6c3.1-0.8,6.3-1.5,9.5-2
	c0.3,0.7,0.9,1.2,1.7,1.2c1,0,1.8-0.8,1.8-1.8c1.6-0.3,3.2-0.5,4.9-0.7l-0.1,0.7c0,1,0.8,1.8,1.8,1.8s1.8-0.8,1.8-1.8l-0.3-1
	c2-0.2,4-0.4,6-0.5c-0.5,0.3-0.9,0.9-0.9,1.6c0,1,0.8,1.8,1.8,1.8s1.8-0.8,1.8-1.8c0-0.7-0.4-1.4-1.1-1.7c2.9-0.2,5.9-0.2,8.8-0.2
	c5,0,9.9,0.2,14.7,0.7c-0.4,0.3-0.7,0.7-0.7,1.2c0,0.8,0.7,1.5,1.5,1.5s1.5-0.7,1.5-1.5l-0.4-1.1c2,0.2,4.1,0.5,6.1,0.8v0.3
	c0,0.7,0.5,1.2,1.2,1.2c0.6,0,1.2-0.5,1.2-1.1C393.7,160.1,449.5,223.5,449.5,300 M250.4,152.8c1.5-0.4,3-0.9,4.4-1.3l-0.1,0.7
	c0,1.3-0.3,1.8-2.1,1.8C251.2,154.1,250.5,153.9,250.4,152.8"/>
<path id="Ball_White_Dots" class="st0" d="M440.3,294.4l-0.4-0.4l0.4-0.4l0.4,0.4L440.3,294.4z M427.8,356.9l-0.4-0.4l0.4-0.4
	l0.4,0.4L427.8,356.9z M419.4,373.6l-0.4-0.4l0.4-0.4l0.4,0.4L419.4,373.6z M440.3,311l-0.4-0.4l0.4-0.4l0.4,0.4L440.3,311z
	 M440.3,302.7l-0.4-0.4l0.4-0.4l0.4,0.4L440.3,302.7z M436.1,299l-0.8-0.8l0.8-0.8l0.8,0.8L436.1,299z M432,303.6
	c-0.7,0-1.3-0.6-1.3-1.3c0-0.7,0.6-1.2,1.3-1.2c0.7,0,1.2,0.6,1.2,1.2C433.2,303,432.7,303.6,432,303.6 M432,295.2
	c-0.7,0-1.3-0.6-1.3-1.2c0-0.7,0.6-1.3,1.3-1.3c0.7,0,1.2,0.6,1.2,1.3C433.2,294.7,432.7,295.2,432,295.2 M436.1,307.2l-0.7-0.7
	l0.7-0.7l0.7,0.7L436.1,307.2z M432,311.8c-0.6,0-1.1-0.5-1.1-1.1s0.5-1.1,1.1-1.1s1.1,0.5,1.1,1.1S432.6,311.8,432,311.8
	 M436.1,315.5l-0.7-0.7l0.7-0.7l0.7,0.7L436.1,315.5z M432,320c-0.5,0-1-0.4-1-1c0-0.5,0.4-1,1-1c0.5,0,1,0.4,1,1
	C432.9,319.5,432.5,320,432,320 M427.8,348.8l-0.6-0.6l0.6-0.6l0.6,0.6L427.8,348.8z M432,344.4l-0.4-0.4l0.4-0.4l0.4,0.4L432,344.4
	z M436.1,331.9l-0.4-0.4l0.4-0.4l0.4,0.4L436.1,331.9z M432,336.3l-0.6-0.6l0.6-0.6l0.6,0.6L432,336.3z M427.8,340.7l-0.8-0.8
	l0.8-0.8l0.8,0.8L427.8,340.7z M427.8,332.6c-0.6,0-1-0.5-1-1c0-0.6,0.5-1,1-1c0.6,0,1,0.5,1,1S428.4,332.6,427.8,332.6
	 M427.8,324.4c-0.7,0-1.3-0.6-1.3-1.3c0-0.7,0.6-1.2,1.3-1.2c0.7,0,1.2,0.6,1.2,1.2C429,323.9,428.5,324.4,427.8,324.4 M427.8,316.3
	c-0.8,0-1.5-0.7-1.5-1.5s0.7-1.5,1.5-1.5s1.5,0.7,1.5,1.5C429.3,315.7,428.6,316.3,427.8,316.3 M427.8,308.2c-0.9,0-1.7-0.8-1.7-1.7
	c0-0.9,0.7-1.7,1.7-1.7c0.9,0,1.7,0.8,1.7,1.7C429.5,307.4,428.7,308.2,427.8,308.2 M425.9,298.2c0-1.1,0.8-1.9,1.9-1.9
	s1.9,0.8,1.9,1.9s-0.9,1.9-1.9,1.9C426.7,300.1,425.9,299.2,425.9,298.2 M432,328.2l-0.8-0.8l0.8-0.8l0.8,0.8L432,328.2z
	 M436.1,323.8l-0.6-0.6l0.6-0.6l0.6,0.6L436.1,323.8z M439.9,319l0.4-0.4l0.4,0.4l-0.4,0.4L439.9,319z M419.4,365.6l-0.7-0.7
	l0.7-0.7l0.7,0.7L419.4,365.6z M419.4,357.6c-0.6,0-1-0.5-1-1c0-0.6,0.5-1.1,1-1.1c0.6,0,1.1,0.5,1.1,1.1
	C420.5,357.1,420,357.6,419.4,357.6 M419.4,349.6c-0.8,0-1.4-0.6-1.4-1.4s0.6-1.4,1.4-1.4s1.4,0.6,1.4,1.4S420.2,349.6,419.4,349.6
	 M419.4,341.8c-1,0-1.9-0.8-1.9-1.9s0.8-1.9,1.9-1.9s1.9,0.8,1.9,1.9S420.5,341.8,419.4,341.8 M423.6,361.1l-0.4-0.4l0.4-0.4
	l0.4,0.4L423.6,361.1z M423.6,369.4l-0.3-0.3l0.3-0.3l0.3,0.3L423.6,369.4z M394.4,406.9l-0.3-0.3l0.3-0.3l0.3,0.3L394.4,406.9z
	 M356.9,436.1l-0.3-0.3l0.3-0.3l0.3,0.3L356.9,436.1z M306.9,452.8l-0.3-0.3l0.3-0.3l0.3,0.3L306.9,452.8z M423.6,353.1l-0.7-0.7
	l0.7-0.7l0.7,0.7L423.6,353.1z M423.6,345.1c-0.6,0-1-0.5-1-1s0.5-1.1,1-1.1c0.6,0,1,0.5,1,1.1C424.7,344.6,424.2,345.1,423.6,345.1
	 M423.6,337.1c-0.8,0-1.4-0.6-1.4-1.4s0.6-1.4,1.4-1.4s1.4,0.6,1.4,1.4S424.4,337.1,423.6,337.1 M423.6,329.1c-1,0-1.7-0.8-1.7-1.7
	c0-0.9,0.8-1.7,1.7-1.7c0.9,0,1.7,0.8,1.7,1.7S424.6,329.1,423.6,329.1 M415.3,369.9l-0.8-0.8l0.8-0.8l0.8,0.8L415.3,369.9z
	 M411.1,374.1l-0.9-0.9l0.9-0.9l0.9,0.9L411.1,374.1z M407,378.4c-0.6,0-1-0.4-1-1s0.4-1,1-1c0.5,0,1,0.4,1,1S407.5,378.4,407,378.4
	 M402.8,382.7c-0.6,0-1.1-0.5-1.1-1.1s0.5-1.1,1.1-1.1s1.1,0.5,1.1,1.1S403.4,382.7,402.8,382.7 M398.6,386.9
	c-0.7,0-1.2-0.5-1.2-1.2s0.5-1.2,1.2-1.2s1.2,0.5,1.2,1.2C399.8,386.4,399.3,386.9,398.6,386.9 M394.4,391.2c-0.7,0-1.3-0.6-1.3-1.3
	s0.6-1.3,1.3-1.3c0.7,0,1.3,0.6,1.3,1.3S395.2,391.2,394.4,391.2 M390.3,395.5c-0.8,0-1.4-0.6-1.4-1.4s0.6-1.4,1.4-1.4
	s1.4,0.6,1.4,1.4C391.7,394.8,391,395.5,390.3,395.5 M361.1,432l-0.4-0.4l0.4-0.4l0.4,0.4L361.1,432z M365.2,427.9l-0.4-0.4l0.4-0.5
	l0.4,0.5L365.2,427.9z M369.4,423.8l-0.5-0.5l0.5-0.5l0.5,0.5L369.4,423.8z M373.6,419.7l-0.6-0.6l0.6-0.6l0.6,0.6L373.6,419.7z
	 M377.8,415.6l-0.7-0.7l0.7-0.7l0.7,0.7L377.8,415.6z M381.9,411.5l-0.7-0.7l0.7-0.8l0.8,0.8L381.9,411.5z M386.1,407.4l-0.8-0.8
	l0.8-0.8l0.8,0.8L386.1,407.4z M390.3,403.3l-0.9-0.9l0.9-0.9l0.9,0.9L390.3,403.3z M390.3,411l-0.3-0.3l0.3-0.3l0.3,0.3L390.3,411z
	 M398.6,402.7l-0.3-0.3l0.3-0.3l0.3,0.3L398.6,402.7z M386.1,415.2l-0.3-0.3l0.3-0.2l0.3,0.2L386.1,415.2z M381.9,419.3l-0.2-0.2
	l0.2-0.3l0.3,0.3L381.9,419.3z M402.8,398.5l-0.3-0.3l0.3-0.2l0.3,0.2L402.8,398.5z M423.7,368.8l0.3,0.3l-0.3,0.3l-0.3-0.3
	L423.7,368.8z M419.5,372.8l0.4,0.4l-0.4,0.4l-0.4-0.4L419.5,372.8z M415.4,376.9l0.4,0.5l-0.4,0.4l-0.4-0.4L415.4,376.9z
	 M411.2,381l0.5,0.5l-0.5,0.5l-0.5-0.5L411.2,381z M407,385.1l0.6,0.6l-0.6,0.6l-0.6-0.6L407,385.1z M402.9,389.2l0.7,0.7l-0.7,0.7
	l-0.7-0.7L402.9,389.2z M398.7,393.3l0.7,0.8l-0.7,0.7l-0.8-0.7L398.7,393.3z M394.5,397.4l0.8,0.8l-0.8,0.8l-0.8-0.8L394.5,397.4z
	 M384.6,398.2c0-0.8,0.7-1.5,1.5-1.5s1.5,0.7,1.5,1.5s-0.7,1.5-1.5,1.5C385.3,399.7,384.6,399.1,384.6,398.2 M290.2,452.1l0.4,0.4
	l-0.4,0.4l-0.4-0.4L290.2,452.1z M298.5,452.1l0.4,0.4l-0.4,0.4l-0.4-0.4L298.5,452.1z M319.4,447.9l0.4,0.4l-0.4,0.4l-0.4-0.4
	L319.4,447.9z M281.8,452.1l0.4,0.4l-0.4,0.4l-0.4-0.4L281.8,452.1z M352.7,430.9l0.7,0.7l-0.7,0.7l-0.7-0.7L352.7,430.9z
	 M356.9,426.6l0.8,0.8l-0.8,0.8l-0.8-0.8L356.9,426.6z M361.1,422.4c0.5,0,0.9,0.4,0.9,0.9s-0.4,0.9-0.9,0.9l-0.9-0.9L361.1,422.4z
	 M365.2,418.1c0.6,0,1,0.4,1,1s-0.5,1-1,1c-0.6,0-1-0.4-1-1S364.7,418.1,365.2,418.1 M369.4,413.8c0.6,0,1.1,0.5,1.1,1.1
	s-0.5,1.1-1.1,1.1s-1.1-0.5-1.1-1.1S368.8,413.8,369.4,413.8 M373.6,409.5c0.7,0,1.2,0.5,1.2,1.2s-0.5,1.2-1.2,1.2s-1.2-0.5-1.2-1.2
	C372.4,410.1,372.9,409.5,373.6,409.5 M377.8,405.3c0.7,0,1.3,0.6,1.3,1.3c0,0.7-0.6,1.3-1.3,1.3c-0.7,0-1.3-0.6-1.3-1.3
	S377,405.3,377.8,405.3 M381.9,401c0.8,0,1.4,0.6,1.4,1.4s-0.6,1.4-1.4,1.4s-1.4-0.6-1.4-1.4S381.2,401,381.9,401 M407,394.3
	l-0.3-0.3l0.3-0.3l0.2,0.3L407,394.3z M415.3,361.9c-0.7,0-1.2-0.6-1.2-1.2c0-0.7,0.6-1.2,1.2-1.2c0.7,0,1.2,0.6,1.2,1.2
	C416.5,361.4,416,361.9,415.3,361.9 M411.1,366.3c-0.8,0-1.4-0.6-1.4-1.4s0.6-1.4,1.4-1.4s1.4,0.6,1.4,1.4
	C412.5,365.7,411.9,366.3,411.1,366.3 M407,370.7c-0.9,0-1.6-0.7-1.6-1.6s0.7-1.6,1.6-1.6s1.6,0.7,1.6,1.6S407.8,370.7,407,370.7
	 M402.8,375c-1,0-1.8-0.8-1.8-1.8s0.8-1.8,1.8-1.8s1.8,0.8,1.8,1.8C404.6,374.2,403.8,375,402.8,375 M336.1,439.3l0.6,0.6l-0.6,0.6
	l-0.6-0.6L336.1,439.3z M331.9,443.7l0.4,0.4l-0.4,0.4l-0.4-0.4L331.9,443.7z M344.4,430.5c0.6,0,1,0.5,1,1.1s-0.5,1.1-1,1.1
	c-0.6,0-1.1-0.5-1.1-1.1C343.4,431,343.8,430.5,344.4,430.5 M340.2,435.1l0.7,0.7l-0.7,0.7l-0.7-0.7L340.2,435.1z M348.6,426.2
	c0.7,0,1.2,0.6,1.2,1.2c0,0.7-0.5,1.2-1.2,1.2s-1.2-0.6-1.2-1.2C347.3,426.8,347.9,426.2,348.6,426.2 M352.7,421.8
	c0.8,0,1.4,0.6,1.4,1.4s-0.6,1.4-1.4,1.4s-1.4-0.6-1.4-1.4C351.3,422.5,351.9,421.8,352.7,421.8 M356.9,417.5c0.9,0,1.6,0.7,1.6,1.6
	s-0.7,1.6-1.6,1.6s-1.6-0.7-1.6-1.6S356,417.5,356.9,417.5 M361.1,413.1c1,0,1.8,0.8,1.8,1.8s-0.8,1.8-1.8,1.8s-1.8-0.8-1.8-1.8
	C359.3,413.9,360.1,413.1,361.1,413.1 M326.9,440l0.8-0.8l0.8,0.8l-0.8,0.8L326.9,440z M318.4,440c0-0.6,0.4-1,1-1c0.5,0,1,0.4,1,1
	c0,0.5-0.4,1-1,1C318.8,440.9,318.4,440.5,318.4,440 M309.9,440c0-0.7,0.5-1.2,1.2-1.2s1.2,0.5,1.2,1.2s-0.5,1.2-1.2,1.2
	C310.4,441.1,309.9,440.6,309.9,440 M301.3,440c0-0.8,0.6-1.4,1.4-1.4s1.4,0.6,1.4,1.4s-0.6,1.4-1.4,1.4
	C301.9,441.3,301.3,440.7,301.3,440 M292.8,440c0-0.9,0.7-1.6,1.6-1.6s1.6,0.7,1.6,1.6s-0.7,1.6-1.6,1.6
	C293.5,441.5,292.8,440.8,292.8,440 M284.2,440c0-1,0.8-1.8,1.8-1.8s1.8,0.8,1.8,1.8s-0.8,1.8-1.8,1.8
	C285,441.7,284.2,440.9,284.2,440 M280.8,444.1c0-0.6,0.5-1.1,1.1-1.1s1.1,0.5,1.1,1.1s-0.5,1.1-1.1,1.1
	C281.2,445.2,280.8,444.7,280.8,444.1 M293.7,448.3l0.6-0.7l0.7,0.7l-0.7,0.7L293.7,448.3z M302.1,448.3l0.6-0.6l0.6,0.6l-0.6,0.6
	L302.1,448.3z M310.5,448.3l0.5-0.5l0.5,0.5l-0.5,0.5L310.5,448.3z M323,444.1l0.5-0.5l0.5,0.5l-0.5,0.5L323,444.1z M314.5,444.1
	l0.7-0.7l0.7,0.7l-0.7,0.7L314.5,444.1z M306.1,444.1l0.8-0.8l0.8,0.8l-0.8,0.8L306.1,444.1z M297.6,444.1c0-0.5,0.4-0.9,0.9-0.9
	s0.9,0.4,0.9,0.9s-0.4,0.9-0.9,0.9C298,445.1,297.6,444.6,297.6,444.1 M285.3,448.3l0.7-0.7l0.7,0.7L286,449L285.3,448.3z
	 M344.4,439.6l0.4,0.4l-0.4,0.4L344,440L344.4,439.6z M347.8,435.8l0.7-0.7l0.7,0.7l-0.7,0.7L347.8,435.8z M289.1,444.1
	c0-0.6,0.5-1.1,1.1-1.1s1.1,0.5,1.1,1.1s-0.5,1.1-1.1,1.1S289.1,444.7,289.1,444.1 M440.7,293.9l-0.4,0.4l-0.4-0.4l0.4-0.4
	L440.7,293.9z M428.2,231.4l-0.4,0.4l-0.4-0.4l0.4-0.4L428.2,231.4z M419.8,214.7l-0.4,0.4l-0.4-0.4l0.4-0.4L419.8,214.7z
	 M440.3,276.9l-0.4,0.4l0.4,0.4l0.4-0.4L440.3,276.9z M440.7,285.6l-0.4,0.4l-0.4-0.4l0.4-0.4L440.7,285.6z M437,289.8l-0.8,0.8
	l-0.8-0.8l0.8-0.8L437,289.8z M433.2,285.6c0,0.7-0.6,1.2-1.2,1.2c-0.7,0-1.3-0.6-1.3-1.2s0.6-1.3,1.3-1.3
	C432.7,284.3,433.2,284.9,433.2,285.6 M433.2,293.9c0,0.7-0.6,1.2-1.2,1.2c-0.7,0-1.3-0.6-1.3-1.2c0-0.7,0.6-1.3,1.3-1.3
	C432.7,292.7,433.2,293.2,433.2,293.9 M436.9,281.4l-0.7,0.7l-0.7-0.7l0.7-0.7L436.9,281.4z M433.1,277.3c0,0.6-0.5,1.1-1.1,1.1
	s-1.1-0.5-1.1-1.1s0.5-1.1,1.1-1.1C432.6,276.2,433.1,276.7,433.1,277.3 M436.8,273.1l-0.7,0.7l-0.7-0.7l0.7-0.7L436.8,273.1z
	 M432.9,268.9c0,0.5-0.4,1-1,1c-0.5,0-1-0.4-1-1s0.4-1,1-1C432.5,268,432.9,268.4,432.9,268.9 M428.4,239.7l-0.6,0.6l-0.6-0.6
	l0.6-0.6L428.4,239.7z M432.3,243.9l-0.4,0.4l-0.4-0.4l0.4-0.4L432.3,243.9z M436.5,256.4l-0.4,0.4l-0.4-0.4l0.4-0.4L436.5,256.4z
	 M432.6,252.2l-0.6,0.6l-0.6-0.6l0.6-0.6L432.6,252.2z M428.6,248.1l-0.8,0.8l-0.8-0.8l0.8-0.8L428.6,248.1z M428.8,256.4
	c0,0.6-0.5,1-1,1c-0.6,0-1-0.5-1-1c0-0.6,0.5-1,1-1C428.4,255.4,428.8,255.8,428.8,256.4 M429.1,264.7c0,0.7-0.6,1.3-1.3,1.3
	c-0.7,0-1.3-0.6-1.3-1.3c0-0.7,0.6-1.3,1.3-1.3S429.1,264,429.1,264.7 M429.3,273.1c0,0.9-0.7,1.5-1.5,1.5c-0.9,0-1.6-0.7-1.6-1.5
	s0.7-1.5,1.6-1.5C428.7,271.6,429.3,272.2,429.3,273.1 M429.6,281.4c0,1-0.8,1.8-1.8,1.8s-1.8-0.8-1.8-1.8s0.8-1.8,1.8-1.8
	C428.8,279.7,429.6,280.5,429.6,281.4 M427.8,287.9c1.1,0,1.9,0.8,1.9,1.9s-0.9,1.9-1.9,1.9c-1.1,0-1.9-0.9-1.9-1.9
	C425.9,288.7,426.7,287.9,427.8,287.9 M432.8,260.6l-0.8,0.8l-0.8-0.8l0.8-0.8L432.8,260.6z M436.7,264.8l-0.6,0.6l-0.6-0.6l0.6-0.6
	L436.7,264.8z M440.3,268.6l0.4,0.4l-0.4,0.4l-0.4-0.4L440.3,268.6z M420.2,223.1l-0.7,0.7l-0.7-0.7l0.7-0.7L420.2,223.1z
	 M420.5,231.4c0,0.6-0.5,1.1-1.1,1.1s-1-0.5-1-1.1s0.5-1,1-1C420,230.3,420.5,230.8,420.5,231.4 M420.9,239.7c0,0.8-0.7,1.5-1.5,1.5
	s-1.5-0.7-1.5-1.5s0.7-1.5,1.5-1.5C420.3,238.3,420.9,238.9,420.9,239.7 M421.3,248.1c0,1-0.8,1.9-1.9,1.9s-1.9-0.8-1.9-1.9
	s0.8-1.9,1.9-1.9C420.5,246.2,421.3,247,421.3,248.1 M424,227.2l-0.4,0.4l-0.4-0.4l0.4-0.4L424,227.2z M423.9,218.9l-0.3,0.3
	l-0.3-0.3l0.3-0.3L423.9,218.9z M424.3,235.6l-0.7,0.7l-0.7-0.7l0.7-0.7L424.3,235.6z M424.8,243.9c0,0.6-0.5,1.1-1.1,1.1
	s-1.1-0.5-1.1-1.1s0.5-1.1,1.1-1.1C424.3,242.8,424.8,243.3,424.8,243.9 M425.1,252.3c0,0.8-0.7,1.5-1.5,1.5s-1.5-0.7-1.5-1.5
	s0.7-1.5,1.5-1.5C424.5,250.8,425.1,251.5,425.1,252.3 M425.4,260.6c0,1-0.8,1.8-1.8,1.8s-1.8-0.8-1.8-1.8s0.8-1.8,1.8-1.8
	C424.6,258.8,425.4,259.6,425.4,260.6 M416.1,218.9l-0.8,0.8l-0.8-0.8l0.8-0.8L416.1,218.9z M412.1,214.7c0,0.6-0.5,1-1,1
	c-0.6,0-1-0.4-1-1s0.5-1,1-1C411.7,213.7,412.1,214.1,412.1,214.7 M408.1,210.5c0,0.6-0.5,1.2-1.2,1.2c-0.6,0-1.2-0.5-1.2-1.2
	c0-0.6,0.5-1.2,1.2-1.2C407.6,209.4,408.1,209.9,408.1,210.5 M404.1,206.4c0,0.7-0.6,1.3-1.3,1.3c-0.7,0-1.3-0.6-1.3-1.3
	s0.6-1.3,1.3-1.3C403.5,205,404.1,205.6,404.1,206.4 M400,202.2c0,0.8-0.6,1.4-1.4,1.4s-1.4-0.6-1.4-1.4c0-0.8,0.6-1.4,1.4-1.4
	S400,201.4,400,202.2 M396,198c0,0.8-0.7,1.5-1.5,1.5c-0.9,0-1.5-0.7-1.5-1.5c0-0.9,0.7-1.5,1.5-1.5S396,197.2,396,198 M391.9,193.9
	c0,0.9-0.7,1.6-1.6,1.6s-1.6-0.7-1.6-1.6c0-0.9,0.7-1.6,1.6-1.6C391.2,192.2,391.9,193,391.9,193.9 M374.2,168.8l-0.6,0.6l-0.6-0.6
	l0.6-0.6L374.2,168.8z M378.4,173l-0.7,0.7L377,173l0.7-0.7L378.4,173z M382.7,177.2l-0.8,0.7l-0.7-0.7l0.7-0.8L382.7,177.2z
	 M386.9,181.4l-0.8,0.8l-0.8-0.8l0.8-0.8L386.9,181.4z M391.2,185.5l-0.9,0.9l-0.9-0.9l0.9-0.9L391.2,185.5z M423.4,218.9l0.3-0.3
	l0.3,0.3l-0.3,0.3L423.4,218.9z M431.6,235.6l0.3-0.3l0.3,0.3l-0.3,0.3L431.6,235.6z M435.8,248.1l0.3-0.3l0.3,0.3l-0.3,0.3
	L435.8,248.1z M419.2,214.7l0.4-0.4l0.4,0.4l-0.4,0.4L419.2,214.7z M414.9,210.5l0.4-0.4l0.4,0.4l-0.4,0.5L414.9,210.5z
	 M410.7,206.4l0.5-0.5l0.5,0.5l-0.5,0.5L410.7,206.4z M406.4,202.2l0.6-0.6l0.6,0.6l-0.6,0.6L406.4,202.2z M402.2,198l0.7-0.7
	l0.7,0.7l-0.7,0.7L402.2,198z M397.9,193.9l0.8-0.7l0.7,0.7l-0.7,0.8L397.9,193.9z M393.7,189.7l0.8-0.8l0.8,0.8l-0.8,0.8
	L393.7,189.7z M386.1,188.1c0.9,0,1.6,0.7,1.6,1.6c0,0.9-0.7,1.6-1.6,1.6s-1.6-0.7-1.6-1.6S385.2,188.1,386.1,188.1 M356,160.5
	l0.9-0.9l0.9,0.9l-0.9,0.9L356,160.5L356,160.5z M360,164.7c0-0.6,0.5-1.1,1.1-1.1s1.1,0.5,1.1,1.1s-0.5,1.1-1.1,1.1
	S360,165.3,360,164.7 M364,168.8c0-0.7,0.6-1.3,1.3-1.3c0.7,0,1.3,0.6,1.3,1.3s-0.6,1.3-1.3,1.3S364,169.5,364,168.8 M368.1,173
	c0-0.8,0.6-1.4,1.4-1.4s1.4,0.6,1.4,1.4c0,0.8-0.6,1.4-1.4,1.4S368.1,173.8,368.1,173 M372.1,177.2c0-0.8,0.7-1.5,1.5-1.5
	s1.5,0.7,1.5,1.5s-0.7,1.5-1.5,1.5C372.8,178.7,372.1,178,372.1,177.2 M376.2,181.3c0-0.9,0.7-1.6,1.6-1.6s1.6,0.7,1.6,1.6
	c0,0.9-0.7,1.6-1.6,1.6C376.9,182.9,376.2,182.2,376.2,181.3 M380.3,185.5c0-0.9,0.7-1.6,1.6-1.6s1.6,0.7,1.6,1.6
	c0,0.9-0.7,1.6-1.6,1.6C381.1,187.1,380.3,186.4,380.3,185.5 M416.7,227.2c0,0.7-0.6,1.4-1.4,1.4s-1.4-0.6-1.4-1.4
	c0-0.8,0.6-1.4,1.4-1.4C416,225.9,416.7,226.5,416.7,227.2 M412.8,223c0,0.9-0.7,1.6-1.7,1.6c-0.9,0-1.6-0.7-1.6-1.6
	s0.7-1.7,1.6-1.7C412,221.4,412.8,222.1,412.8,223 M408.8,218.9c0,1-0.9,1.9-1.9,1.9s-1.9-0.8-1.9-1.9c0-1,0.8-1.9,1.9-1.9
	S408.8,217.8,408.8,218.9 M343.2,156.3c0-0.7,0.5-1.2,1.2-1.2c0.6,0,1.2,0.5,1.2,1.2s-0.5,1.2-1.2,1.2S343.2,157,343.2,156.3
	 M347.2,160.5c0-0.8,0.6-1.4,1.4-1.4s1.4,0.6,1.4,1.4c0,0.8-0.6,1.4-1.4,1.4C347.8,161.9,347.2,161.3,347.2,160.5 M351.1,164.7
	c0-0.9,0.8-1.7,1.7-1.7c0.9,0,1.7,0.7,1.7,1.7c0,0.9-0.7,1.7-1.7,1.7C351.8,166.3,351.1,165.6,351.1,164.7 M355,168.8
	c0-1.1,0.9-1.9,1.9-1.9c1.1,0,1.9,0.9,1.9,1.9c0,1.1-0.9,1.9-1.9,1.9C355.8,170.8,355,169.9,355,168.8 M302.7,146.3
	c0.9,0,1.7,0.7,1.7,1.7c0,0.9-0.7,1.7-1.7,1.7c-0.9,0-1.7-0.7-1.7-1.7C301,147.1,301.8,146.3,302.7,146.3 M294.4,146.2
	c1,0,1.8,0.8,1.8,1.8s-0.8,1.8-1.8,1.8s-1.8-0.8-1.8-1.8S293.4,146.2,294.4,146.2 M417.1,235.6c0,1-0.8,1.8-1.8,1.8
	s-1.8-0.8-1.8-1.8s0.8-1.8,1.8-1.8C416.3,233.8,417.1,234.6,417.1,235.6 M330.6,152.2c0-0.7,0.6-1.3,1.3-1.3c0.7,0,1.3,0.6,1.3,1.3
	s-0.6,1.3-1.3,1.3S330.6,152.9,330.6,152.2 M334.4,156.4c0-0.9,0.7-1.6,1.7-1.6c0.9,0,1.6,0.7,1.6,1.6c0,0.9-0.7,1.6-1.6,1.6
	C335.1,158,334.4,157.3,334.4,156.4 M321.8,152.2c0-0.9,0.8-1.7,1.7-1.7s1.7,0.8,1.7,1.7s-0.8,1.7-1.7,1.7S321.8,153.2,321.8,152.2
	 M331.9,434.7c0.6,0,1.1,0.5,1.1,1.1s-0.5,1.1-1.1,1.1s-1.1-0.5-1.1-1.1S331.3,434.7,331.9,434.7 M323.5,434.4
	c0.8,0,1.4,0.6,1.4,1.4s-0.6,1.4-1.4,1.4s-1.4-0.6-1.4-1.4S322.8,434.4,323.5,434.4 M317,435.8c0,1-0.8,1.8-1.7,1.8
	c-1,0-1.8-0.8-1.8-1.8s0.8-1.8,1.8-1.8C316.2,434,317,434.8,317,435.8 M329.5,431.6c0,1-0.8,1.8-1.8,1.8s-1.8-0.8-1.8-1.8
	s0.8-1.8,1.8-1.8C328.7,429.9,329.5,430.6,329.5,431.6 M413.5,352.4c0-1,0.8-1.8,1.8-1.8s1.8,0.8,1.8,1.8s-0.8,1.8-1.8,1.8
	S413.5,353.4,413.5,352.4 M341.9,427.4c0,0.9-0.8,1.7-1.7,1.7c-0.9,0-1.7-0.8-1.7-1.7c0-0.9,0.7-1.7,1.7-1.7
	C341.2,425.8,341.9,426.5,341.9,427.4 M337.4,431.6c0,0.7-0.6,1.4-1.3,1.4c-0.8,0-1.4-0.6-1.4-1.4s0.6-1.4,1.4-1.4
	C336.8,430.2,337.4,430.9,337.4,431.6 M304.8,435.8c0-1.1,0.9-2,2-2s2,0.9,2,2s-0.9,2-2,2C305.7,437.8,304.8,436.9,304.8,435.8
	 M220.4,431.6c0,0.6-0.5,1.1-1.1,1.1s-1-0.5-1-1.1s0.5-1.1,1-1.1C219.9,430.6,220.4,431,220.4,431.6 M216.3,427.4
	c0,0.7-0.6,1.2-1.2,1.2c-0.7,0-1.2-0.6-1.2-1.2c0-0.7,0.5-1.2,1.2-1.2C215.8,426.2,216.3,426.8,216.3,427.4 M212.4,423.3
	c0,0.8-0.6,1.4-1.4,1.4c-0.8,0-1.4-0.6-1.4-1.4s0.6-1.4,1.4-1.4C211.7,421.9,212.4,422.5,212.4,423.3 M208.4,419.1
	c0,0.9-0.7,1.6-1.6,1.6c-0.9,0-1.6-0.7-1.6-1.6s0.7-1.6,1.6-1.6S208.4,418.2,208.4,419.1 M204.4,414.9c0,1-0.8,1.8-1.8,1.8
	s-1.8-0.8-1.8-1.8s0.8-1.8,1.8-1.8C203.6,413.1,204.4,413.9,204.4,414.9 M236,440.7l-0.8-0.8l0.8-0.8l0.8,0.8L236,440.7z
	 M244.3,440.9c-0.6,0-1-0.4-1-1s0.4-1,1-1c0.5,0,1,0.4,1,1S244.9,440.9,244.3,440.9 M252.6,441.1c-0.7,0-1.2-0.5-1.2-1.2
	s0.5-1.2,1.2-1.2s1.2,0.5,1.2,1.2S253.3,441.1,252.6,441.1 M261,441.3c-0.8,0-1.4-0.6-1.4-1.4s0.6-1.4,1.4-1.4s1.4,0.6,1.4,1.4
	C262.4,440.7,261.8,441.3,261,441.3 M269.3,441.5c-0.9,0-1.6-0.7-1.6-1.6s0.7-1.6,1.6-1.6s1.6,0.7,1.6,1.6S270.2,441.5,269.3,441.5
	 M277.7,441.7c-1,0-1.8-0.8-1.8-1.8s0.8-1.8,1.8-1.8s1.8,0.8,1.8,1.8C279.4,440.9,278.6,441.7,277.7,441.7 M269.3,449l-0.6-0.7
	l0.6-0.7l0.7,0.7L269.3,449z M261,448.9l-0.6-0.6l0.6-0.6l0.6,0.6L261,448.9z M248.5,444.8l-0.7-0.7l0.7-0.7l0.7,0.7L248.5,444.8z
	 M256.8,444.9l-0.8-0.8l0.8-0.8l0.8,0.8L256.8,444.9z M265.2,445.1c-0.5,0-0.9-0.4-0.9-0.9s0.4-0.9,0.9-0.9s0.9,0.4,0.9,0.9
	C266.1,444.6,265.7,445.1,265.2,445.1 M277.7,449l-0.7-0.7l0.7-0.7l0.7,0.7L277.7,449z M273.5,445.2c-0.6,0-1.1-0.5-1.1-1.1
	s0.5-1.1,1.1-1.1s1.1,0.5,1.1,1.1S274.1,445.2,273.5,445.2 M231.8,434.7c0.6,0,1.1,0.5,1.1,1.1s-0.5,1.1-1.1,1.1s-1.1-0.5-1.1-1.1
	S231.2,434.7,231.8,434.7 M227.6,430.2c0.8,0,1.4,0.6,1.4,1.4s-0.6,1.4-1.4,1.4c-0.8,0-1.4-0.6-1.4-1.4
	C226.2,430.8,226.9,430.2,227.6,430.2 M223.5,425.7c0.9,0,1.7,0.8,1.7,1.7c0,0.9-0.8,1.7-1.7,1.7s-1.7-0.8-1.7-1.7
	S222.5,425.7,223.5,425.7 M240.1,437.2c-0.8,0-1.4-0.6-1.4-1.4s0.6-1.4,1.4-1.4c0.8,0,1.4,0.6,1.4,1.4
	C241.6,436.6,240.9,437.2,240.1,437.2 M248.5,437.5c-1,0-1.7-0.8-1.7-1.7c0-1,0.8-1.7,1.7-1.7c1,0,1.7,0.8,1.7,1.7
	S249.4,437.5,248.5,437.5 M256.8,437.8c-1.1,0-2-0.9-2-2s0.9-2,2-2s2,0.9,2,2C258.9,436.9,257.9,437.8,256.8,437.8 M236,433.4
	c-1,0-1.8-0.8-1.8-1.8s0.8-1.8,1.8-1.8s1.8,0.8,1.8,1.8S237,433.4,236,433.4"/>
<path id="Ball_Gold_Dots" class="st1" d="M142.1,298.2l-0.5-1.3c0,0.9,0,1.8,0,2.7C141.9,299.1,142.1,298.7,142.1,298.2
	 M148.4,258.3c1,0,1.8-0.8,1.8-1.8s-0.8-1.8-1.8-1.8c-0.4,1.1-0.7,2.3-1,3.4L148.4,258.3L148.4,258.3z M146.3,268.9
	c0-0.8-0.5-1.5-1.1-1.8c-0.3,1.3-0.5,2.6-0.8,3.9C145.4,270.9,146.3,270,146.3,268.9 M240.1,158.5c1.2,0,2.1-0.9,2.1-2.1l-0.1-0.8
	c-1.3,0.5-2.6,1-3.9,1.5C238.5,157.9,239.2,158.5,240.1,158.5 M152.6,245.8c1,0,1.9-0.8,1.9-1.9c0-0.9-0.7-1.7-1.5-1.9
	c-0.5,1.1-0.9,2.3-1.4,3.4L152.6,245.8L152.6,245.8z M158.4,231.4l-0.2-0.9c-0.4,0.8-0.8,1.7-1.2,2.5
	C157.7,233,158.4,232.3,158.4,231.4 M160.9,228.8c0.8,0,1.5-0.7,1.5-1.5c0-0.9-0.7-1.5-1.5-1.5h-0.2c-0.4,0.7-0.8,1.5-1.2,2.2
	C159.7,228.5,160.3,228.8,160.9,228.8 M144.2,279.2c1,0,1.9-0.9,1.9-1.9s-0.8-1.9-1.9-1.9l-0.6,0.1c-0.2,1.1-0.3,2.2-0.5,3.3
	L144.2,279.2L144.2,279.2z M194.3,187.3c1,0,1.7-0.8,1.7-1.7s-0.6-1.6-1.5-1.7c-0.7,0.6-1.3,1.1-1.9,1.7
	C192.6,186.5,193.3,187.3,194.3,187.3 M198.4,183.3c1,0,1.8-0.8,1.8-1.8c0-0.7-0.4-1.3-0.9-1.6c-0.9,0.7-1.8,1.4-2.7,2.2
	C197,182.7,197.6,183.3,198.4,183.3 M202.6,178.9c0.9,0,1.7-0.8,1.7-1.7l-0.3-1c-0.9,0.7-1.8,1.4-2.7,2
	C201.6,178.7,202.1,178.9,202.6,178.9 M206.8,174.9c1,0,1.8-0.8,1.8-1.8V173c-0.8,0.6-1.7,1.2-2.5,1.7L206.8,174.9z M190.1,191.5
	c0.9,0,1.7-0.8,1.7-1.7s-0.8-1.7-1.7-1.7h-0.2l-1.5,1.4v0.3C188.4,190.7,189.1,191.5,190.1,191.5 M185.9,195.6
	c0.9,0,1.6-0.7,1.6-1.6s-0.7-1.6-1.6-1.6l-0.4,0.1l-1.2,1.3v0.3C184.3,194.8,185,195.6,185.9,195.6 M181.8,199.7
	c0.9,0,1.6-0.7,1.6-1.6c0-0.9-0.7-1.6-1.6-1.6h-0.1c-0.5,0.6-1,1.1-1.5,1.7C180.2,199,180.9,199.7,181.8,199.7 M177.6,203.9
	c0.9,0,1.6-0.7,1.6-1.6c0-0.8-0.5-1.4-1.3-1.6c-0.6,0.7-1.3,1.5-1.9,2.3C176.3,203.5,176.9,203.9,177.6,203.9 M173.4,207.9
	c0.8,0,1.5-0.7,1.5-1.5c0-0.5-0.2-1-0.6-1.2c-0.6,0.8-1.2,1.6-1.8,2.4L173.4,207.9L173.4,207.9z M169.2,212.1c0.8,0,1.5-0.7,1.5-1.5
	l-0.1-0.6C170.1,210.7,169.6,211.4,169.2,212.1L169.2,212.1L169.2,212.1z M223.4,166.7c1.1,0,2-0.9,2-1.9c0-0.6-0.3-1.1-0.7-1.4
	c-1.1,0.6-2.2,1.1-3.2,1.7C221.7,165.9,222.5,166.7,223.4,166.7 M226.6,162.3l1,0.3c1,0,1.8-0.7,2-1.7
	C228.6,161.3,227.6,161.8,226.6,162.3 M419.4,295.7c0.9,0,1.7-0.7,1.7-1.7c0-0.9-0.7-1.7-1.7-1.7c-0.9,0-1.7,0.7-1.7,1.7
	C417.8,294.9,418.5,295.7,419.4,295.7 M411.1,294.8l0.8-0.8l-0.8-0.8l-0.8,0.8L411.1,294.8z M406.9,298.5l0.3-0.3l-0.3-0.3l-0.3,0.3
	L406.9,298.5z M421.1,294c0-0.9-0.8-1.7-1.7-1.7c-0.9,0-1.7,0.7-1.7,1.7c0,0.9,0.7,1.7,1.7,1.7C420.4,295.6,421.1,294.9,421.1,294
	 M416.5,298.2c0-0.7-0.5-1.2-1.2-1.2s-1.2,0.6-1.2,1.2c0,0.7,0.6,1.2,1.2,1.2S416.5,298.8,416.5,298.2 M411.9,302.3l-0.8-0.8
	l-0.8,0.8l0.8,0.8L411.9,302.3z M407.3,306.5l-0.4-0.4l-0.4,0.4l0.4,0.4L407.3,306.5z M421.1,302.3c0-0.9-0.7-1.7-1.7-1.7
	c-0.9,0-1.7,0.7-1.7,1.7c0,0.9,0.7,1.7,1.7,1.7S421.1,303.3,421.1,302.3 M416.5,306.5c0-0.7-0.6-1.2-1.2-1.2s-1.2,0.6-1.2,1.2
	c0,0.7,0.5,1.2,1.2,1.2S416.5,307.2,416.5,306.5 M411.9,310.7l-0.8-0.8l-0.8,0.8l0.8,0.8L411.9,310.7z M407.5,314.8l-0.6-0.6
	l-0.6,0.6l0.6,0.6L407.5,314.8z M403.1,327.4l-0.4-0.4l-0.4,0.4l0.4,0.4L403.1,327.4z M382.2,364.9l-0.2-0.2l-0.2,0.2l0.2,0.2
	L382.2,364.9z M419.5,292.3c0.9,0,1.7,0.7,1.7,1.7c0,0.9-0.7,1.7-1.7,1.7c-0.9,0-1.7-0.7-1.7-1.7S418.5,292.3,419.5,292.3
	 M411.1,293.2l0.8,0.8l-0.8,0.8l-0.8-0.8L411.1,293.2z M407,289.5l0.3,0.3l-0.3,0.3l-0.3-0.3L407,289.5z M421.1,294
	c0,0.9-0.8,1.7-1.7,1.7c-0.9,0-1.7-0.7-1.7-1.7c0-0.9,0.7-1.7,1.7-1.7S421.1,293,421.1,294 M416.5,289.8c0,0.7-0.5,1.2-1.2,1.2
	s-1.2-0.6-1.2-1.2c0-0.7,0.6-1.2,1.2-1.2S416.5,289.1,416.5,289.8 M411.9,285.6l-0.8,0.8l-0.8-0.8l0.8-0.8L411.9,285.6z
	 M407.3,281.4l-0.4,0.4l-0.4-0.4l0.4-0.4L407.3,281.4z M421.1,285.6c0,0.9-0.7,1.7-1.7,1.7c-0.9,0-1.7-0.7-1.7-1.7s0.7-1.7,1.7-1.7
	S421.1,284.7,421.1,285.6 M416.5,281.4c0,0.7-0.6,1.2-1.2,1.2s-1.2-0.6-1.2-1.2c0-0.7,0.5-1.2,1.2-1.2
	C416,280.2,416.5,280.7,416.5,281.4 M411.9,277.3l-0.8,0.8l-0.8-0.8l0.8-0.8L411.9,277.3z M415.3,254.6c1,0,1.8,0.8,1.8,1.8
	c0,1-0.8,1.8-1.8,1.8s-1.8-0.8-1.8-1.8C413.4,255.4,414.3,254.6,415.3,254.6 M386.5,218.9l-0.4,0.4l-0.4-0.4l0.4-0.5L386.5,218.9z
	 M365.2,183.3c-1.1,0-1.9-0.9-1.9-1.9c0-1.1,0.9-1.9,1.9-1.9c1.7,0,1.9,0,1.9,1.9C367.2,182.5,366.3,183.3,365.2,183.3 M281.8,157.9
	c0.9,0,1.6-0.7,1.6-1.5c0-0.9-0.7-1.5-1.6-1.5c-0.8,0-1.5,0.7-1.5,1.5S281,157.9,281.8,157.9 M290.2,157.9c-0.9,0-1.5-0.7-1.5-1.5
	c0-0.9,0.7-1.5,1.5-1.5c0.9,0,1.5,0.7,1.5,1.5S291,157.9,290.2,157.9 M298.5,158.1c-0.9,0-1.7-0.8-1.7-1.7s0.7-1.7,1.7-1.7
	c0.9,0,1.7,0.8,1.7,1.7S299.5,158.1,298.5,158.1 M306.9,158.2c-1,0-1.8-0.8-1.8-1.8s0.8-1.8,1.8-1.8s1.8,0.8,1.8,1.8
	C308.7,157.4,307.9,158.2,306.9,158.2 M287.1,160.6c0-0.6-0.5-1.1-1.1-1.1s-1.1,0.5-1.1,1.1s0.5,1.1,1.1,1.1
	C286.6,161.7,287.1,161.2,287.1,160.6 M295.5,160.6c0-0.6-0.5-1.1-1.1-1.1s-1.1,0.5-1.1,1.1s0.5,1.1,1.1,1.1
	C295,161.7,295.5,161.2,295.5,160.6 M290.9,164.7l-0.7-0.7l-0.7,0.7l0.7,0.7L290.9,164.7z M299.2,164.7l-0.7-0.7l-0.7,0.7l0.7,0.7
	L299.2,164.7z M294.6,168.9l-0.3-0.3l-0.2,0.3l0.2,0.2L294.6,168.9z M282.6,164.7l-0.7-0.7l-0.7,0.7l0.7,0.7L282.6,164.7z
	 M286.3,168.9l-0.3-0.3l-0.3,0.3l0.3,0.2L286.3,168.9z M302.7,161.9c-0.7,0-1.3-0.6-1.3-1.3s0.6-1.3,1.3-1.3c0.7,0,1.3,0.6,1.3,1.3
	S303.4,161.9,302.7,161.9 M311,162.1c-0.8,0-1.5-0.7-1.5-1.5s0.7-1.5,1.5-1.5s1.5,0.7,1.5,1.5C312.6,161.4,311.9,162.1,311,162.1
	 M319.4,162.3c-1,0-1.7-0.8-1.7-1.7c0-1,0.8-1.7,1.7-1.7c1,0,1.7,0.8,1.7,1.7S320.3,162.3,319.4,162.3 M305.9,164.7c0-0.5,0.4-1,1-1
	c0.5,0,1,0.4,1,1c0,0.5-0.4,1-1,1S305.9,165.2,305.9,164.7 M314,164.7c0-0.7,0.6-1.2,1.2-1.2c0.7,0,1.2,0.6,1.2,1.2
	c0,0.7-0.6,1.2-1.2,1.2C314.5,166,314,165.4,314,164.7 M322.1,164.7c0-0.8,0.7-1.5,1.5-1.5s1.5,0.7,1.5,1.5s-0.7,1.5-1.5,1.5
	C322.7,166.2,322.1,165.6,322.1,164.7 M330.1,164.7c0-1,0.8-1.8,1.8-1.8s1.8,0.8,1.8,1.8s-0.8,1.8-1.8,1.8S330.1,165.7,330.1,164.7
	 M361.6,193.9l-0.6,0.6l-0.5-0.6l0.5-0.6L361.6,193.9z M357.6,189.7l-0.7,0.7l-0.6-0.7l0.6-0.7L357.6,189.7z M353.5,185.6l-0.8,0.8
	l-0.8-0.8l0.8-0.8L353.5,185.6z M349.4,181.4l-0.9,0.9l-0.9-0.9l0.9-0.9L349.4,181.4z M345.4,177.2c0,0.5-0.4,1-1,1
	c-0.5,0-1-0.4-1-1c0-0.5,0.4-1,1-1C344.9,176.3,345.4,176.7,345.4,177.2 M302.7,169.4l0.5-0.5l-0.5-0.5l-0.5,0.5L302.7,169.4z
	 M311,169.7l0.8-0.8l-0.8-0.8l-0.8,0.8L311,169.7z M319.4,170c0.6,0,1.1-0.5,1.1-1.1s-0.5-1.1-1.1-1.1s-1.1,0.5-1.1,1.1
	S318.8,170,319.4,170 M327.7,170.2c0.8,0,1.3-0.6,1.3-1.3s-0.6-1.3-1.3-1.3c-0.7,0-1.3,0.6-1.3,1.3
	C326.4,169.6,327,170.2,327.7,170.2 M323.5,173.6l0.5-0.5l-0.5-0.5l-0.5,0.5L323.5,173.6z M331.9,173.9l0.8-0.8l-0.8-0.8l-0.8,0.8
	L331.9,173.9z M340.2,174.1c0.6,0,1.1-0.5,1.1-1.1s-0.5-1.1-1.1-1.1s-1.1,0.5-1.1,1.1C339.2,173.7,339.6,174.1,340.2,174.1
	 M336.1,177.8l0.5-0.5l-0.5-0.5l-0.5,0.5L336.1,177.8z M336.1,170.5c0.9,0,1.6-0.7,1.6-1.6c0-0.9-0.7-1.6-1.6-1.6s-1.6,0.7-1.6,1.6
	C334.4,169.8,335.2,170.5,336.1,170.5 M344.4,170.8c1,0,1.9-0.8,1.9-1.9c0-1.7,0.1-1.9-1.9-1.9c-1.1,0-1.9,0.8-1.9,1.9
	C342.5,169.9,343.4,170.8,344.4,170.8 M348.6,174.8c1,0,1.8-0.8,1.8-1.8c0-1.3-0.2-1.8-1.8-1.8c-1,0-1.8,0.8-1.8,1.8
	C346.8,174,347.6,174.8,348.6,174.8 M352.7,178.9c0.9,0,1.7-0.7,1.7-1.7c0-0.9-0.8-1.7-1.7-1.7c-0.9,0-1.7,0.7-1.7,1.7
	C351.1,178.2,351.8,178.9,352.7,178.9 M356.9,182.9c0.9,0,1.5-0.7,1.5-1.5c0-0.9-0.7-1.5-1.5-1.5c-0.9,0-1.5,0.7-1.5,1.5
	C355.4,182.3,356,182.9,356.9,182.9 M361.1,187c0.8,0,1.4-0.6,1.4-1.4c0-0.8-0.6-1.4-1.4-1.4s-1.4,0.6-1.4,1.4
	C359.6,186.4,360.3,187,361.1,187 M365.2,191.1c0.7,0,1.3-0.6,1.3-1.3s-0.6-1.3-1.3-1.3c-0.7,0-1.3,0.6-1.3,1.3
	C363.9,190.5,364.5,191.1,365.2,191.1 M369.4,195.1c0.7,0,1.2-0.5,1.2-1.2s-0.5-1.2-1.2-1.2s-1.2,0.5-1.2,1.2
	C368.2,194.6,368.7,195.1,369.4,195.1 M373.6,199.2c0.6,0,1.1-0.5,1.1-1.1s-0.5-1.1-1.1-1.1s-1.1,0.5-1.1,1.1S373,199.2,373.6,199.2
	 M377.8,203.2c0.5,0,1-0.4,1-1c0-0.5-0.4-1-1-1c-0.5,0-1,0.4-1,1S377.2,203.2,377.8,203.2 M391,223.1l-0.7,0.7l-0.7-0.7l0.7-0.7
	L391,223.1z M395.4,227.3c0,0.5-0.4,0.9-0.9,0.9s-0.9-0.4-0.9-0.9s0.4-0.9,0.9-0.9C394.9,226.3,395.4,226.8,395.4,227.3
	 M399.8,231.4c0,0.6-0.5,1.2-1.2,1.2c-0.6,0-1.2-0.5-1.2-1.2c0-0.6,0.5-1.2,1.2-1.2C399.2,230.3,399.8,230.8,399.8,231.4
	 M404.2,235.6c0,0.8-0.6,1.4-1.4,1.4s-1.4-0.6-1.4-1.4c0-0.8,0.6-1.4,1.4-1.4C403.6,234.2,404.2,234.8,404.2,235.6 M408.6,239.8
	c0,0.9-0.7,1.6-1.7,1.6c-0.9,0-1.7-0.7-1.7-1.6c0-0.9,0.7-1.7,1.7-1.7S408.6,238.9,408.6,239.8 M411.1,242.1c-1.1,0-1.9,0.8-1.9,1.9
	c0,1,0.8,1.9,1.9,1.9c1,0,1.9-0.8,1.9-1.9C413,242.9,412.2,242.1,411.1,242.1 M402.8,225.7c-0.9,0-1.5,0.7-1.5,1.5
	c0,0.9,0.7,1.5,1.5,1.5s1.5-0.7,1.5-1.5S403.6,225.7,402.8,225.7 M398.6,221.7c-0.8,0-1.4,0.6-1.4,1.4c0,0.8,0.6,1.4,1.4,1.4
	s1.4-0.6,1.4-1.4S399.4,221.7,398.6,221.7 M394.4,217.6c-0.7,0-1.3,0.6-1.3,1.3s0.6,1.3,1.3,1.3c0.7,0,1.3-0.6,1.3-1.3
	C395.7,218.2,395.2,217.6,394.4,217.6 M390.3,213.6c-0.7,0-1.2,0.5-1.2,1.2s0.5,1.2,1.2,1.2s1.2-0.5,1.2-1.2
	S390.9,213.6,390.3,213.6 M386.1,209.5c-0.6,0-1.1,0.5-1.1,1.1s0.5,1.1,1.1,1.1s1.1-0.5,1.1-1.1S386.7,209.5,386.1,209.5
	 M381.9,205.4c-0.5,0-1,0.4-1,1c0,0.5,0.4,1,1,1s1-0.4,1-1C382.9,205.9,382.5,205.4,381.9,205.4 M373.6,206.7l0.3-0.3l-0.3-0.3
	l-0.3,0.3L373.6,206.7z M377.8,210.9l0.3-0.3l-0.3-0.3l-0.3,0.3L377.8,210.9z M402.8,260.9l0.3-0.3l-0.3-0.3l-0.3,0.3L402.8,260.9z
	 M399.2,239.8l-0.6,0.6l-0.6-0.6l0.6-0.6L399.2,239.8z M394.4,244.2l0.2-0.3l-0.2-0.3l-0.3,0.3L394.4,244.2z M386.1,227.5l0.3-0.3
	l-0.3-0.3l-0.3,0.3L386.1,227.5z M365.2,198.5l0.4-0.4l-0.4-0.4l-0.4,0.4L365.2,198.5z M369.4,202.6l0.3-0.3l-0.3-0.3l-0.3,0.3
	L369.4,202.6z M381.9,215.2l0.4-0.4l-0.4-0.4l-0.4,0.4L381.9,215.2z M415.3,266.3c0.8,0,1.5-0.7,1.5-1.5s-0.7-1.5-1.5-1.5
	s-1.5,0.7-1.5,1.5C413.7,265.7,414.4,266.3,415.3,266.3 M411.1,261.8c0.6,0,1.1-0.5,1.1-1.1s-0.5-1.2-1.1-1.2s-1.1,0.5-1.1,1.2
	C410,261.3,410.5,261.8,411.1,261.8 M411.1,269.9l0.9-0.9l-0.9-0.9l-0.9,0.9L411.1,269.9L411.1,269.9z M415.3,274.5
	c0.7,0,1.3-0.6,1.3-1.3c0-0.7-0.6-1.3-1.3-1.3c-0.7,0-1.3,0.6-1.3,1.3C413.9,273.9,414.5,274.5,415.3,274.5 M419.4,279.2
	c1.1,0,1.9-0.9,1.9-1.9s-0.9-1.9-1.9-1.9s-1.9,0.9-1.9,1.9S418.4,279.2,419.4,279.2 M407,265.4l0.5-0.6l-0.5-0.5l-0.6,0.5L407,265.4
	z M407,257.2l0.7-0.7l-0.7-0.7l-0.8,0.7L407,257.2z M411.1,253.7c0.8,0,1.4-0.6,1.4-1.4s-0.6-1.4-1.4-1.4s-1.4,0.6-1.4,1.4
	C409.7,253.1,410.3,253.7,411.1,253.7 M407,249.2c0.6,0,1.1-0.5,1.1-1.1s-0.5-1.1-1.1-1.1s-1.1,0.5-1.1,1.1S406.3,249.2,407,249.2
	 M402.8,252.8l0.5-0.5l-0.5-0.5l-0.5,0.5L402.8,252.8z M402.8,244.7l0.8-0.8l-0.8-0.8L402,244L402.8,244.7z M419.4,312.6
	c1.1,0,1.9-0.9,1.9-1.9c0-1.1-0.9-1.9-1.9-1.9c-1.1,0-1.9,0.9-1.9,1.9S418.4,312.6,419.4,312.6 M407.7,323.2l-0.7-0.7l-0.8,0.7
	l0.8,0.7L407.7,323.2z M412.2,319c0-0.6-0.5-1.1-1.1-1.1s-1.1,0.5-1.1,1.1s0.5,1.1,1.1,1.1S412.2,319.6,412.2,319 M416.8,314.8
	c0-0.8-0.7-1.5-1.5-1.5s-1.5,0.7-1.5,1.5s0.7,1.5,1.5,1.5C416.1,316.3,416.8,315.7,416.8,314.8 M417,323.2c0-1-0.8-1.7-1.7-1.7
	s-1.7,0.8-1.7,1.7c0,1,0.8,1.7,1.7,1.7S417,324.1,417,323.2 M415.3,333.5c1.1,0,2-0.9,2-2s-0.9-2-2-2s-2,0.9-2,2
	S414.2,333.5,415.3,333.5 M395,352.4l-0.6-0.6l-0.6,0.6l0.6,0.6L395,352.4z M399.5,348.2l-0.9-0.9l-0.9,0.9l0.9,0.9L399.5,348.2z
	 M403.5,335.7l-0.8-0.8l-0.8,0.8l0.8,0.8L403.5,335.7z M404,344c0-0.7-0.5-1.2-1.2-1.2s-1.2,0.5-1.2,1.2c0,0.6,0.5,1.2,1.2,1.2
	C403.4,345.2,404,344.7,404,344 M402.8,362.7c1.1,0,2-0.9,2-2s-0.9-2-2-2s-2,0.9-2,2C400.8,361.8,401.7,362.7,402.8,362.7
	 M412.5,327.4c0-0.8-0.6-1.4-1.4-1.4s-1.4,0.6-1.4,1.4s0.6,1.4,1.4,1.4C411.9,328.7,412.5,328.1,412.5,327.4 M412.8,335.7
	c0-0.9-0.7-1.7-1.7-1.7c-0.9,0-1.7,0.7-1.7,1.7c0,0.9,0.7,1.7,1.7,1.7C412,337.4,412.8,336.6,412.8,335.7 M408,331.5
	c0-0.6-0.5-1.1-1.1-1.1s-1.1,0.5-1.1,1.1s0.5,1.1,1.1,1.1S408,332.1,408,331.5 M408.4,339.9c0-0.8-0.6-1.4-1.4-1.4s-1.4,0.6-1.4,1.4
	s0.6,1.4,1.4,1.4C407.7,341.3,408.4,340.6,408.4,339.9 M344.2,402.4l0.2,0.2l0.2-0.2l-0.2-0.2L344.2,402.4z M306.6,414.9l0.2,0.2
	l0.2-0.2l-0.2-0.2L306.6,414.9z M339.7,406.6l0.6,0.6l0.6-0.6l-0.6-0.5L339.7,406.6z M335.2,410.8l0.9,0.9l0.9-0.9l-0.9-0.9
	L335.2,410.8z M327.1,410.8l0.6,0.6l0.6-0.6l-0.6-0.6L327.1,410.8z M314.6,414.9l0.6,0.6l0.5-0.6l-0.5-0.6L314.6,414.9z
	 M322.7,414.9l0.9,0.9l0.9-0.9l-0.9-0.9L322.7,414.9L322.7,414.9z M330.7,414.9c0,0.7,0.5,1.2,1.2,1.2s1.2-0.5,1.2-1.2
	s-0.5-1.2-1.2-1.2C331.2,413.7,330.7,414.3,330.7,414.9 M321.9,423.3c0,0.9,0.7,1.7,1.7,1.7c0.9,0,1.7-0.7,1.7-1.7
	c0-0.9-0.7-1.7-1.7-1.7C322.6,421.6,321.9,422.3,321.9,423.3 M326.3,419.1c0,0.8,0.6,1.4,1.4,1.4s1.4-0.6,1.4-1.4s-0.6-1.4-1.4-1.4
	S326.3,418.3,326.3,419.1 M413.1,344c0-1.1-0.9-1.9-1.9-1.9c-1.1,0-1.9,0.9-1.9,1.9c0,1.1,0.9,1.9,1.9,1.9
	C412.9,346,413.1,345.8,413.1,344 M373.6,391.1c0.7,0,1.2-0.5,1.2-1.2s-0.5-1.2-1.2-1.2s-1.2,0.5-1.2,1.2S372.9,391.1,373.6,391.1
	 M398.6,366.7c1,0,1.8-0.8,1.8-1.8s-0.8-1.8-1.8-1.8s-1.8,0.8-1.8,1.8C396.8,365.9,397.6,366.7,398.6,366.7 M394.4,370.7
	c0.9,0,1.7-0.8,1.7-1.7c0-0.9-0.8-1.7-1.7-1.7c-0.9,0-1.7,0.8-1.7,1.7C392.8,370,393.5,370.7,394.4,370.7 M390.3,374.7
	c0.8,0,1.5-0.7,1.5-1.5s-0.7-1.5-1.5-1.5s-1.5,0.7-1.5,1.5C388.7,374.1,389.4,374.7,390.3,374.7 M386.1,378.8c0.7,0,1.4-0.6,1.4-1.4
	s-0.6-1.4-1.4-1.4s-1.3,0.6-1.3,1.4C384.7,378.2,385.3,378.8,386.1,378.8 M381.9,382.7c0.7,0,1.2-0.5,1.2-1.2s-0.5-1.2-1.2-1.2
	s-1.2,0.5-1.2,1.2C380.7,382.2,381.3,382.7,381.9,382.7 M377.8,386.9c0.7,0,1.2-0.5,1.2-1.2s-0.5-1.2-1.2-1.2s-1.2,0.5-1.2,1.2
	S377.1,386.9,377.8,386.9 M348.6,413.1c-1,0-1.8,0.8-1.8,1.8s0.8,1.8,1.8,1.8c2,0,1.8,0.1,1.8-1.8
	C350.4,413.9,349.6,413.1,348.6,413.1 M352.7,409.1c-0.9,0-1.7,0.7-1.7,1.7c0,0.9,0.8,1.7,1.7,1.7c0.9,0,1.7-0.8,1.7-1.7
	C354.4,409.8,353.7,409.1,352.7,409.1 M356.9,405.1c-0.8,0-1.5,0.7-1.5,1.5s0.7,1.5,1.5,1.5s1.5-0.7,1.5-1.5
	C358.4,405.8,357.7,405.1,356.9,405.1 M361.1,401c-0.8,0-1.4,0.6-1.4,1.4c0,0.7,0.6,1.4,1.4,1.4c0.7,0,1.3-0.6,1.3-1.4
	C362.4,401.7,361.8,401,361.1,401 M365.2,397c-0.7,0-1.2,0.5-1.2,1.2s0.5,1.2,1.2,1.2s1.2-0.5,1.2-1.2
	C366.4,397.6,365.9,397,365.2,397 M369.4,392.9c-0.7,0-1.2,0.5-1.2,1.2s0.5,1.2,1.2,1.2s1.2-0.5,1.2-1.2S370.1,392.9,369.4,392.9
	 M369.4,386.2l0.4-0.4l-0.4-0.4l-0.4,0.4L369.4,386.2z M373.6,382l0.4-0.4l-0.4-0.4l-0.4,0.4L373.6,382z M377.8,377.8l0.4-0.4
	l-0.4-0.4l-0.4,0.4L377.8,377.8z M381.9,373.8l0.6-0.6l-0.6-0.6l-0.6,0.6L381.9,373.8z M386.1,369.8l0.8-0.8l-0.8-0.8l-0.8,0.8
	L386.1,369.8z M390.3,365.8c0.5,0,0.9-0.4,0.9-0.9s-0.4-0.9-0.9-0.9s-0.9,0.4-0.9,0.9C389.3,365.4,389.8,365.8,390.3,365.8
	 M394.4,361.8c0.6,0,1.1-0.5,1.1-1.1s-0.5-1.1-1.1-1.1s-1.1,0.5-1.1,1.1S393.8,361.8,394.4,361.8 M398.6,357.8
	c0.7,0,1.3-0.6,1.3-1.3c0-0.7-0.6-1.3-1.3-1.3c-0.7,0-1.3,0.6-1.3,1.3C397.3,357.2,397.9,357.8,398.6,357.8 M402.8,353.8
	c0.8,0,1.4-0.6,1.4-1.4s-0.6-1.4-1.4-1.4s-1.4,0.6-1.4,1.4C401.3,353.2,402,353.8,402.8,353.8 M407,349.8c0.9,0,1.6-0.7,1.6-1.6
	s-0.7-1.6-1.6-1.6s-1.6,0.7-1.6,1.6C405.3,349.1,406.1,349.8,407,349.8 M365.2,389.5l-0.4,0.4l0.4,0.4l0.4-0.4L365.2,389.5z
	 M361.1,393.5l-0.6,0.6l0.6,0.6l0.6-0.6L361.1,393.5z M356.9,397.5l-0.8,0.8l0.8,0.8l0.8-0.8L356.9,397.5z M352.7,401.5
	c-0.5,0-0.9,0.4-0.9,0.9s0.4,0.9,0.9,0.9s0.9-0.4,0.9-0.9S353.2,401.5,352.7,401.5 M348.6,405.5c-0.6,0-1.1,0.5-1.1,1.1
	s0.5,1.1,1.1,1.1s1.1-0.5,1.1-1.1S349.2,405.5,348.6,405.5 M344.4,409.5c-0.7,0-1.3,0.6-1.3,1.3c0,0.7,0.6,1.3,1.3,1.3
	c0.7,0,1.3-0.6,1.3-1.3C345.7,410.1,345.1,409.5,344.4,409.5 M340.2,413.5c-0.8,0-1.4,0.6-1.4,1.4s0.7,1.4,1.4,1.4
	c0.8,0,1.4-0.6,1.4-1.4C341.7,414.1,341,413.5,340.2,413.5 M336.1,417.5c-0.9,0-1.6,0.7-1.6,1.6s0.7,1.6,1.6,1.6s1.6-0.7,1.6-1.6
	S336.9,417.5,336.1,417.5 M281.8,433.5c1,0,1.9-0.8,1.9-1.9c0-1-0.8-1.9-1.9-1.9c-1,0-1.9,0.8-1.9,1.9
	C280,432.6,280.8,433.5,281.8,433.5 M290.2,433.5c1.1,0,1.9-0.9,1.9-1.9c0-1.1-0.9-1.9-1.9-1.9c-1.1,0-1.9,0.9-1.9,1.9
	C288.2,432.7,289.1,433.5,290.2,433.5 M311,429.2c1,0,1.8-0.8,1.8-1.8s-0.8-1.8-1.8-1.8s-1.8,0.8-1.8,1.8
	C309.2,428.4,310,429.2,311,429.2 M302.7,429.1c0.9,0,1.6-0.7,1.6-1.6s-0.7-1.6-1.6-1.6s-1.6,0.7-1.6,1.6
	C301,428.3,301.8,429.1,302.7,429.1 M294.3,428.9c0.8,0,1.4-0.7,1.4-1.5s-0.6-1.4-1.4-1.4s-1.4,0.7-1.4,1.4
	C292.9,428.2,293.5,428.9,294.3,428.9 M286,428.7c0.7,0,1.3-0.6,1.3-1.3c0-0.7-0.6-1.3-1.3-1.3c-0.7,0-1.3,0.6-1.3,1.3
	S285.3,428.7,286,428.7 M281.8,424l0.8-0.8l-0.8-0.8l-0.8,0.8L281.8,424z M315.2,424.7c0.8,0,1.4-0.6,1.4-1.4s-0.6-1.4-1.4-1.4
	s-1.4,0.6-1.4,1.4C313.8,424.1,314.4,424.7,315.2,424.7 M306.9,424.5c0.7,0,1.2-0.6,1.2-1.2c0-0.7-0.5-1.2-1.2-1.2s-1.2,0.6-1.2,1.2
	C305.6,423.9,306.2,424.5,306.9,424.5 M298.5,424.3c0.6,0,1-0.4,1-1s-0.4-1-1-1s-1,0.4-1,1C297.5,423.8,298,424.3,298.5,424.3
	 M290.2,424l0.8-0.8l-0.8-0.8l-0.8,0.8L290.2,424z M286,419.5l0.4-0.4l-0.4-0.4l-0.4,0.4L286,419.5z M319.4,420.3
	c0.6,0,1.2-0.5,1.2-1.2c0-0.6-0.5-1.2-1.2-1.2s-1.2,0.5-1.2,1.2C318.2,419.8,318.7,420.3,319.4,420.3 M311,420.1
	c0.5,0,0.9-0.4,0.9-0.9s-0.4-0.9-0.9-0.9s-0.9,0.4-0.9,0.9C310.1,419.6,310.5,420.1,311,420.1 M302.7,419.8l0.7-0.7l-0.7-0.7
	l-0.7,0.7L302.7,419.8z M294.3,419.6l0.5-0.4l-0.5-0.4l-0.4,0.4L294.3,419.6z M144.2,295.7c-0.9,0-1.7-0.7-1.7-1.7
	c0-0.9,0.8-1.7,1.7-1.7s1.7,0.7,1.7,1.7C145.9,294.9,145.1,295.7,144.2,295.7 M152.5,294.8l-0.8-0.8l0.8-0.8l0.8,0.8L152.5,294.8z
	 M156.7,298.5l-0.3-0.3l0.3-0.3l0.3,0.3L156.7,298.5z M142.6,294c0-0.9,0.7-1.7,1.7-1.7c0.9,0,1.7,0.7,1.7,1.7
	c0,0.9-0.7,1.7-1.7,1.7C143.3,295.6,142.6,294.9,142.6,294 M147.2,298.2c0-0.7,0.6-1.2,1.2-1.2c0.7,0,1.2,0.6,1.2,1.2
	c0,0.7-0.5,1.2-1.2,1.2C147.7,299.4,147.2,298.8,147.2,298.2 M151.8,302.3l0.8-0.8l0.8,0.8l-0.8,0.8L151.8,302.3z M156.4,306.5
	l0.4-0.4l0.4,0.4l-0.4,0.4L156.4,306.5z M142.5,302.3c0-0.9,0.8-1.7,1.7-1.7s1.7,0.7,1.7,1.7c0,0.9-0.8,1.7-1.7,1.7
	S142.5,303.3,142.5,302.3 M147.1,306.5c0-0.7,0.6-1.2,1.2-1.2c0.7,0,1.2,0.6,1.2,1.2c0,0.7-0.5,1.2-1.2,1.2
	C147.7,307.7,147.1,307.2,147.1,306.5 M151.7,310.7l0.8-0.8l0.8,0.8l-0.8,0.8L151.7,310.7L151.7,310.7z M156.1,314.8l0.6-0.6
	l0.6,0.6l-0.6,0.6L156.1,314.8L156.1,314.8z M160.5,319l0.4-0.4l0.4,0.4l-0.4,0.4L160.5,319z M160.5,327.4l0.4-0.4l0.4,0.4l-0.4,0.4
	L160.5,327.4z M164.8,331.5l0.2-0.2l0.2,0.2l-0.2,0.2L164.8,331.5z M164.7,339.9l0.4-0.4l0.4,0.4l-0.4,0.4L164.7,339.9z M169,344
	l0.2-0.2l0.3,0.2l-0.3,0.2L169,344z M173.2,356.6l0.2-0.2l0.2,0.2l-0.2,0.2L173.2,356.6z M177.3,360.7l0.2-0.2l0.2,0.2l-0.2,0.2
	L177.3,360.7z M177.6,387.6c-1.6,0-1.9-0.4-1.9-1.9c0-1,0.8-1.9,1.9-1.9c1,0,1.9,0.8,1.9,1.9C179.5,386.8,178.6,387.6,177.6,387.6
	 M185.9,396c-1.7,0-1.9,0-1.9-1.9c0-1,0.8-1.9,1.9-1.9s1.9,0.8,1.9,1.9C187.8,395.1,187,396,185.9,396 M181.8,391.8
	c-1.7,0-1.9-0.3-1.9-1.9c0-1,0.8-1.9,1.9-1.9c1,0,1.9,0.8,1.9,1.9C183.6,390.9,182.8,391.8,181.8,391.8 M144.2,292.3
	c-0.9,0-1.7,0.7-1.7,1.7c0,0.9,0.8,1.7,1.7,1.7s1.7-0.7,1.7-1.7S145.1,292.3,144.2,292.3 M152.6,293.2l-0.8,0.8l0.8,0.8l0.8-0.8
	L152.6,293.2z M156.7,289.5l-0.3,0.3l0.3,0.3l0.3-0.3L156.7,289.5z M142.5,294c0,0.9,0.2,1.7,1.8,1.7c0.9,0,1.7-0.7,1.7-1.7
	c0-0.9-0.7-1.7-1.7-1.7S142.5,293,142.5,294 M147.2,289.8c0,0.7,0.6,1.2,1.2,1.2c0.7,0,1.2-0.6,1.2-1.2c0-0.7-0.5-1.2-1.2-1.2
	C147.7,288.6,147.2,289.1,147.2,289.8 M151.8,285.6l0.8,0.8l0.8-0.8l-0.8-0.8L151.8,285.6z M156.4,281.4l0.4,0.4l0.4-0.4l-0.4-0.4
	L156.4,281.4z M142.4,285.6c0,0.9,0.9,1.7,1.8,1.7c0.9,0,1.7-0.7,1.7-1.7s-0.8-1.7-1.7-1.7S142.4,284.7,142.4,285.6 M147.1,281.4
	c0,0.7,0.6,1.2,1.2,1.2c0.7,0,1.2-0.6,1.2-1.2c0-0.7-0.5-1.2-1.2-1.2C147.7,280.2,147.1,280.7,147.1,281.4 M151.7,277.3l0.8,0.8
	l0.8-0.8l-0.8-0.8L151.7,277.3z M156.3,273.1l0.4,0.4l0.4-0.4l-0.4-0.4L156.3,273.1z M177.1,218.9l0.5,0.4l0.4-0.4l-0.4-0.5
	L177.1,218.9L177.1,218.9z M273.5,157.9c0.9,0,1.5-0.7,1.5-1.5c0-0.9-0.7-1.5-1.5-1.5s-1.5,0.7-1.5,1.5
	C271.9,157.2,272.6,157.9,273.5,157.9 M265.1,158.1c0.9,0,1.7-0.8,1.7-1.7s-0.8-1.7-1.7-1.7c-0.9,0-1.7,0.8-1.7,1.7
	S264.2,158.1,265.1,158.1 M256.8,158.2c1,0,1.8-0.8,1.8-1.8s-0.8-1.8-1.8-1.8s-1.8,0.8-1.8,1.8C255,157.4,255.8,158.2,256.8,158.2
	 M248.5,158.3c1.1,0,2-0.9,2-2c0-1.9-0.9-2-2-2s-2,0-2,2C246.5,157.5,247.4,158.3,248.5,158.3 M276.5,160.6c0-0.6,0.5-1.1,1.1-1.1
	s1.1,0.5,1.1,1.1s-0.5,1.1-1.1,1.1C277,161.7,276.5,161.2,276.5,160.6 M268.2,160.6c0-0.6,0.5-1.1,1.1-1.1s1.1,0.5,1.1,1.1
	s-0.5,1.1-1.1,1.1C268.7,161.7,268.2,161.2,268.2,160.6 M272.8,164.7l0.7-0.7l0.7,0.7l-0.7,0.7L272.8,164.7z M264.4,164.7l0.7-0.7
	l0.7,0.7l-0.7,0.7L264.4,164.7z M269.1,168.9l0.2-0.3l0.3,0.3l-0.3,0.2L269.1,168.9z M277.4,168.9l0.3-0.3l0.3,0.3l-0.3,0.2
	L277.4,168.9z M261,161.9c0.7,0,1.3-0.6,1.3-1.3s-0.6-1.3-1.3-1.3c-0.7,0-1.3,0.6-1.3,1.3S260.2,161.9,261,161.9 M252.6,162.1
	c0.8,0,1.5-0.7,1.5-1.5s-0.7-1.5-1.5-1.5s-1.5,0.7-1.5,1.5C251.1,161.4,251.8,162.1,252.6,162.1 M244.3,162.3c0.9,0,1.7-0.8,1.7-1.7
	c0-1-0.8-1.7-1.7-1.7c-1,0-1.7,0.8-1.7,1.7C242.5,161.5,243.3,162.3,244.3,162.3 M257.8,164.7c0-0.5-0.4-1-1-1c-0.5,0-1,0.4-1,1
	c0,0.5,0.4,1,1,1C257.3,165.7,257.8,165.2,257.8,164.7 M249.7,164.7c0-0.7-0.6-1.2-1.2-1.2c-0.7,0-1.2,0.6-1.2,1.2
	c0,0.7,0.6,1.2,1.2,1.2C249.1,166,249.7,165.4,249.7,164.7 M241.6,164.7c0-0.8-0.7-1.5-1.5-1.5s-1.5,0.7-1.5,1.5s0.7,1.5,1.5,1.5
	C240.9,166.2,241.6,165.6,241.6,164.7 M237.9,160.6c0-1.1-0.9-1.9-1.9-1.9c-1.1,0-1.9,0.9-1.9,1.9c0,1.1,0.9,1.9,1.9,1.9
	S237.9,161.6,237.9,160.6 M233.6,164.7c0-1-0.8-1.8-1.8-1.8s-1.8,0.8-1.8,1.8s0.8,1.8,1.8,1.8S233.6,165.7,233.6,164.7 M202,193.9
	l0.6,0.6l0.5-0.6l-0.5-0.6L202,193.9z M206.1,189.7l0.6,0.7l0.7-0.7l-0.7-0.7L206.1,189.7z M210.2,185.6l0.8,0.8l0.8-0.8l-0.8-0.8
	L210.2,185.6z M214.2,181.4l0.9,0.9l0.9-0.9l-0.9-0.9L214.2,181.4z M218.3,177.2c0,0.5,0.4,1,1,1c0.5,0,1-0.4,1-1c0-0.5-0.4-1-1-1
	C218.7,176.3,218.3,176.7,218.3,177.2 M261,169.4l-0.5-0.5l0.5-0.5l0.5,0.5L261,169.4z M252.6,169.7l-0.8-0.8l0.8-0.8l0.8,0.8
	L252.6,169.7z M244.3,170c-0.6,0-1.1-0.5-1.1-1.1s0.5-1.1,1.1-1.1s1.1,0.5,1.1,1.1C245.4,169.5,244.9,170,244.3,170 M236,170.2
	c-0.7,0-1.3-0.6-1.3-1.3s0.6-1.3,1.3-1.3s1.3,0.6,1.3,1.3C237.3,169.6,236.7,170.2,236,170.2 M248.2,173.1l0.3-0.2l0.2,0.2l-0.2,0.3
	L248.2,173.1z M240.1,173.6l-0.5-0.5l0.5-0.5l0.5,0.5L240.1,173.6z M231.8,173.9l-0.8-0.8l0.8-0.8l0.8,0.8L231.8,173.9z
	 M223.4,174.1c-0.6,0-1.1-0.5-1.1-1.1s0.5-1.1,1.1-1.1s1.1,0.5,1.1,1.1C224.5,173.7,224,174.1,223.4,174.1 M235.7,177.2l0.2-0.3
	l0.3,0.3l-0.3,0.3L235.7,177.2z M214.9,189.7l0.2-0.2l0.2,0.2l-0.2,0.3L214.9,189.7z M218.9,185.6l0.3-0.3l0.3,0.3l-0.3,0.3
	L218.9,185.6z M223,181.4l0.4-0.4l0.4,0.4l-0.4,0.4L223,181.4z M227.6,177.8l-0.5-0.5l0.5-0.5l0.5,0.5L227.6,177.8z M227.6,170.5
	c-0.9,0-1.6-0.7-1.6-1.6c0-0.9,0.7-1.6,1.6-1.6c0.9,0,1.6,0.7,1.6,1.6C229.2,169.8,228.5,170.5,227.6,170.5 M219.3,170.8
	c-1,0-1.9-0.8-1.9-1.9c0-1.1,0.8-1.9,1.9-1.9c1,0,1.9,0.8,1.9,1.9C221.2,169.9,220.3,170.8,219.3,170.8 M215.1,174.8
	c-1,0-1.8-0.8-1.8-1.8s0.8-1.8,1.8-1.8s1.8,0.8,1.8,1.8C216.9,174,216.1,174.8,215.1,174.8 M210.9,178.9c-0.9,0-1.7-0.7-1.7-1.7
	c0-0.9,0.7-1.7,1.7-1.7c0.9,0,1.7,0.7,1.7,1.7C212.6,178.2,211.9,178.9,210.9,178.9 M206.8,182.9c-0.8,0-1.5-0.7-1.5-1.5
	c0-0.9,0.7-1.5,1.5-1.5c0.9,0,1.5,0.7,1.5,1.5C208.3,182.3,207.6,182.9,206.8,182.9 M202.6,187c-0.8,0-1.4-0.6-1.4-1.4
	c0-0.8,0.6-1.4,1.4-1.4s1.4,0.6,1.4,1.4S203.4,187,202.6,187 M198.4,191.1c-0.7,0-1.3-0.6-1.3-1.3s0.6-1.3,1.3-1.3s1.3,0.6,1.3,1.3
	S199.1,191.1,198.4,191.1 M194.3,195.1c-0.7,0-1.2-0.5-1.2-1.2s0.5-1.2,1.2-1.2s1.2,0.5,1.2,1.2S194.9,195.1,194.3,195.1
	 M190.1,199.2c-0.6,0-1.1-0.5-1.1-1.1s0.5-1.1,1.1-1.1s1.1,0.5,1.1,1.1C191.2,198.7,190.7,199.2,190.1,199.2 M185.9,203.2
	c-0.6,0-1-0.4-1-1c0-0.5,0.4-1,1-1c0.5,0,1,0.4,1,1S186.4,203.2,185.9,203.2 M172.7,223.1l0.7,0.7l0.7-0.7l-0.7-0.7L172.7,223.1
	L172.7,223.1z M168.3,227.3c0,0.5,0.4,0.9,0.9,0.9s0.9-0.4,0.9-0.9s-0.4-0.9-0.9-0.9C168.7,226.3,168.3,226.8,168.3,227.3
	 M163.9,231.4c0,0.6,0.5,1.2,1.2,1.2c0.6,0,1.2-0.5,1.2-1.2c0-0.6-0.5-1.2-1.2-1.2C164.4,230.3,163.9,230.8,163.9,231.4
	 M159.5,235.6c0,0.8,0.6,1.4,1.4,1.4c0.8,0,1.4-0.6,1.4-1.4c0-0.8-0.6-1.4-1.4-1.4C160.1,234.2,159.5,234.8,159.5,235.6
	 M155.1,239.8c0,0.9,0.7,1.6,1.7,1.6c0.9,0,1.6-0.7,1.6-1.6c0-0.9-0.7-1.7-1.6-1.7C155.8,238.1,155.1,238.9,155.1,239.8
	 M165.1,221.7c0.8,0,1.4,0.6,1.4,1.4c0,0.8-0.6,1.4-1.4,1.4c-0.8,0-1.4-0.6-1.4-1.4C163.6,222.3,164.3,221.7,165.1,221.7
	 M169.2,217.6c0.7,0,1.3,0.6,1.3,1.3s-0.6,1.3-1.3,1.3s-1.3-0.6-1.3-1.3C167.9,218.2,168.5,217.6,169.2,217.6 M173.4,213.6
	c0.7,0,1.2,0.5,1.2,1.2s-0.5,1.2-1.2,1.2s-1.2-0.5-1.2-1.2S172.7,213.6,173.4,213.6 M177.6,209.5c0.6,0,1.1,0.5,1.1,1.1
	s-0.5,1.1-1.1,1.1s-1.1-0.5-1.1-1.1S177,209.5,177.6,209.5 M181.7,205.4c0.5,0,1,0.4,1,1c0,0.5-0.4,1-1,1s-1-0.4-1-1
	C180.8,205.9,181.2,205.4,181.7,205.4 M190.1,206.7l-0.3-0.3l0.3-0.3l0.2,0.3L190.1,206.7z M185.9,210.9l-0.3-0.3l0.3-0.3l0.2,0.3
	L185.9,210.9z M164.4,239.8l0.6,0.6l0.6-0.6l-0.6-0.6L164.4,239.8L164.4,239.8z M177.6,227.5l-0.3-0.3l0.3-0.3l0.2,0.3L177.6,227.5z
	 M173.4,231.7l-0.3-0.3l0.3-0.3l0.3,0.3L173.4,231.7z M169.2,236l-0.4-0.4l0.4-0.4l0.4,0.4L169.2,236z M165.1,248.4l-0.3-0.3
	l0.3-0.3l0.3,0.3L165.1,248.4z M198.4,198.5l-0.4-0.4l0.4-0.4l0.4,0.4L198.4,198.5z M194.3,202.6l-0.3-0.3l0.3-0.3l0.3,0.3
	L194.3,202.6z M181.7,215.2l-0.4-0.4l0.4-0.4l0.4,0.4L181.7,215.2z M148.4,266.3c-0.8,0-1.5-0.7-1.5-1.5s0.7-1.5,1.5-1.5
	c0.9,0,1.5,0.7,1.5,1.5C149.9,265.7,149.2,266.3,148.4,266.3 M152.6,261.8c-0.6,0-1.1-0.5-1.1-1.1s0.5-1.2,1.1-1.2s1.1,0.5,1.1,1.2
	C153.7,261.3,153.2,261.8,152.6,261.8 M152.6,269.9l-0.9-0.9l0.9-0.9l0.9,0.9L152.6,269.9L152.6,269.9z M148.4,274.5
	c-0.7,0-1.3-0.6-1.3-1.3c0-0.7,0.6-1.3,1.3-1.3c0.8,0,1.3,0.6,1.3,1.3S149.1,274.5,148.4,274.5 M156.7,265.4l-0.5-0.6l0.5-0.5
	l0.5,0.5L156.7,265.4z M156.7,249.2c-0.6,0-1.1-0.5-1.1-1.1s0.5-1.1,1.1-1.1s1.1,0.5,1.1,1.1S157.3,249.2,156.7,249.2 M160.9,252.8
	l-0.5-0.5l0.5-0.5l0.5,0.5L160.9,252.8z M160.9,244.7l-0.8-0.8l0.8-0.8l0.8,0.8L160.9,244.7z M144.2,312.6c-1.1,0-1.9-0.9-1.9-1.9
	c0-1.1,0.9-1.9,1.9-1.9c1.1,0,1.9,0.9,1.9,1.9C146.1,311.7,145.3,312.6,144.2,312.6 M156,323.2l0.7-0.7l0.8,0.7l-0.8,0.7L156,323.2z
	 M151.4,319c0-0.6,0.5-1.1,1.1-1.1s1.1,0.5,1.1,1.1s-0.5,1.1-1.1,1.1S151.4,319.6,151.4,319 M146.9,314.8c0-0.8,0.7-1.5,1.5-1.5
	s1.5,0.7,1.5,1.5s-0.7,1.5-1.5,1.5C147.6,316.3,146.9,315.7,146.9,314.8 M146.7,323.2c0-1,0.8-1.7,1.7-1.7c1,0,1.7,0.8,1.7,1.7
	c0,1-0.8,1.7-1.7,1.7C147.4,324.9,146.7,324.1,146.7,323.2 M148.4,333.5c-1.1,0-2.2-0.9-2.2-2s1.1-2,2.2-2c1.1,0,2,0.9,2,2
	S149.5,333.5,148.4,333.5 M168.7,352.4l0.6-0.6l0.6,0.6l-0.6,0.6L168.7,352.4z M164.2,348.2l0.9-0.9l0.9,0.9l-0.9,0.9L164.2,348.2
	L164.2,348.2z M160.1,335.7l0.8-0.8l0.8,0.8l-0.8,0.8L160.1,335.7L160.1,335.7z M159.7,344c0-0.7,0.5-1.2,1.2-1.2s1.2,0.5,1.2,1.2
	c0,0.6-0.5,1.2-1.2,1.2S159.7,344.7,159.7,344 M160.9,362.7c-1.1,0-2-0.9-2-2s0.9-2,2-2s2,0.9,2,2
	C162.9,361.8,162,362.7,160.9,362.7 M151.2,327.4c0-0.8,0.6-1.4,1.4-1.4c0.8,0,1.4,0.6,1.4,1.4s-0.6,1.4-1.4,1.4
	C151.8,328.7,151.2,328.1,151.2,327.4 M150.9,335.7c0-0.9,0.7-1.7,1.7-1.7c0.9,0,1.7,0.7,1.7,1.7c0,0.9-0.7,1.7-1.7,1.7
	C151.6,337.4,150.9,336.6,150.9,335.7 M155.6,331.5c0-0.6,0.5-1.1,1.1-1.1s1.1,0.5,1.1,1.1s-0.5,1.1-1.1,1.1
	S155.6,332.1,155.6,331.5 M155.3,339.9c0-0.8,0.6-1.4,1.4-1.4c0.8,0,1.4,0.6,1.4,1.4s-0.6,1.4-1.4,1.4
	C155.9,341.3,155.3,340.6,155.3,339.9 M215.3,398.2l-0.2,0.2l-0.2-0.2l0.2-0.2L215.3,398.2z M211.2,394.1l-0.3,0.2l-0.2-0.2l0.2-0.2
	L211.2,394.1z M232,406.6l-0.2,0.2l-0.2-0.2l0.2-0.2L232,406.6z M244.5,410.8l-0.2,0.2l-0.3-0.2l0.3-0.2L244.5,410.8z M257,414.9
	l-0.2,0.2l-0.2-0.2l0.2-0.2L257,414.9z M244.3,425.5c1.1,0,2,0.9,2,2s-0.9,2-2,2c-1.5,0-2-0.3-2-2
	C242.3,426.3,243.2,425.5,244.3,425.5 M224,406.6l-0.6,0.6l-0.6-0.6l0.6-0.5L224,406.6z M228.5,410.8l-0.9,0.9l-0.9-0.9l0.9-0.9
	L228.5,410.8z M236.5,410.8l-0.6,0.6l-0.6-0.6l0.6-0.6L236.5,410.8z M249,414.9l-0.6,0.6l-0.5-0.6l0.5-0.6L249,414.9z M241,414.9
	l-0.9,0.9l-0.9-0.9l0.9-0.9L241,414.9z M233,414.9c0,0.7-0.5,1.2-1.2,1.2s-1.2-0.5-1.2-1.2s0.5-1.2,1.2-1.2
	C232.4,413.7,233,414.3,233,414.9 M241.8,423.3c0,0.9-0.7,1.7-1.7,1.7c-0.9,0-1.7-0.7-1.7-1.7c0-0.9,0.7-1.7,1.7-1.7
	C241,421.6,241.8,422.3,241.8,423.3 M237.4,419.1c0,0.8-0.6,1.4-1.4,1.4c-0.8,0-1.4-0.6-1.4-1.4s0.6-1.4,1.4-1.4
	C236.7,417.7,237.4,418.3,237.4,419.1 M150.6,344c0-1.1,0.9-1.9,1.9-1.9c1.1,0,1.9,0.9,1.9,1.9c0,1.1-0.9,1.9-1.9,1.9
	C151.5,346,150.6,345.1,150.6,344 M190.1,391.1c-0.7,0-1.2-0.5-1.2-1.2s0.5-1.2,1.2-1.2s1.2,0.5,1.2,1.2S190.7,391.1,190.1,391.1
	 M165.1,366.7c-1,0-1.8-0.8-1.8-1.8s0.8-1.8,1.8-1.8s1.8,0.8,1.8,1.8C166.9,365.9,166.1,366.7,165.1,366.7 M169.2,370.7
	c-0.9,0-1.7-0.8-1.7-1.7c0-0.9,0.7-1.7,1.7-1.7c0.9,0,1.7,0.8,1.7,1.7C170.9,370,170.2,370.7,169.2,370.7 M173.4,374.7
	c-0.8,0-1.5-0.7-1.5-1.5s0.7-1.5,1.5-1.5s1.5,0.7,1.5,1.5C174.9,374.1,174.2,374.7,173.4,374.7 M181.7,382.7c-0.7,0-1.2-0.5-1.2-1.2
	s0.5-1.2,1.2-1.2c0.6,0,1.2,0.5,1.2,1.2S182.4,382.7,181.7,382.7 M185.9,386.9c-0.7,0-1.2-0.5-1.2-1.2s0.5-1.2,1.2-1.2
	s1.2,0.5,1.2,1.2S186.6,386.9,185.9,386.9 M215.1,413.1c1,0,1.8,0.8,1.8,1.8s-0.8,1.8-1.8,1.8s-1.8-0.8-1.8-1.8
	S214.1,413.1,215.1,413.1 M210.9,409.1c0.9,0,1.7,0.7,1.7,1.7c0,0.9-0.8,1.7-1.7,1.7s-1.7-0.8-1.7-1.7
	C209.3,409.8,210,409.1,210.9,409.1 M206.8,405.1c0.8,0,1.5,0.7,1.5,1.5s-0.7,1.5-1.5,1.5s-1.5-0.7-1.5-1.5
	C205.2,405.8,205.9,405.1,206.8,405.1 M202.6,401c0.8,0,1.4,0.6,1.4,1.4c0,0.7-0.6,1.4-1.4,1.4c-0.8,0-1.4-0.6-1.4-1.4
	C201.2,401.7,201.8,401,202.6,401 M198.4,397c0.7,0,1.2,0.5,1.2,1.2s-0.5,1.2-1.2,1.2s-1.2-0.5-1.2-1.2
	C197.2,397.6,197.8,397,198.4,397 M194.3,392.9c0.7,0,1.2,0.5,1.2,1.2s-0.5,1.2-1.2,1.2s-1.2-0.5-1.2-1.2S193.6,392.9,194.3,392.9
	 M194.3,386.2l-0.4-0.4l0.4-0.4l0.4,0.4L194.3,386.2z M190.1,382l-0.4-0.4l0.4-0.4l0.4,0.4L190.1,382z M185.9,377.8l-0.4-0.4
	l0.4-0.4l0.4,0.4L185.9,377.8z M181.7,373.8l-0.6-0.6l0.6-0.6l0.6,0.6L181.7,373.8z M173.4,365.8c-0.5,0-0.9-0.4-0.9-0.9
	s0.4-0.9,0.9-0.9s0.9,0.4,0.9,0.9C174.3,365.4,173.9,365.8,173.4,365.8 M169.2,361.8c-0.6,0-1.1-0.5-1.1-1.1s0.5-1.1,1.1-1.1
	s1.1,0.5,1.1,1.1S169.8,361.8,169.2,361.8 M165.1,357.8c-0.7,0-1.3-0.6-1.3-1.3c0-0.7,0.6-1.3,1.3-1.3s1.3,0.6,1.3,1.3
	C166.3,357.2,165.8,357.8,165.1,357.8 M160.9,353.8c-0.8,0-1.4-0.6-1.4-1.4s0.6-1.4,1.4-1.4c0.8,0,1.4,0.6,1.4,1.4
	C162.3,353.2,161.7,353.8,160.9,353.8 M156.7,349.8c-0.9,0-1.6-0.7-1.6-1.6s0.7-1.6,1.6-1.6c0.9,0,1.6,0.7,1.6,1.6
	C158.3,349.1,157.6,349.8,156.7,349.8 M198.4,389.5l0.4,0.4l-0.4,0.4l-0.4-0.4L198.4,389.5z M202.6,393.5l0.6,0.6l-0.6,0.6l-0.6-0.6
	L202.6,393.5z M206.8,397.5l0.8,0.8l-0.8,0.8l-0.8-0.8L206.8,397.5z M210.9,401.5c0.5,0,0.9,0.4,0.9,0.9s-0.4,0.9-0.9,0.9
	s-0.9-0.4-0.9-0.9S210.4,401.5,210.9,401.5 M215.1,405.5c0.6,0,1.1,0.5,1.1,1.1s-0.5,1.1-1.1,1.1s-1.1-0.5-1.1-1.1
	S214.5,405.5,215.1,405.5 M219.3,409.5c0.7,0,1.3,0.6,1.3,1.3c0,0.7-0.6,1.3-1.3,1.3s-1.3-0.6-1.3-1.3S218.6,409.5,219.3,409.5
	 M223.4,413.5c0.8,0,1.4,0.6,1.4,1.4s-0.6,1.4-1.4,1.4c-0.8,0-1.4-0.6-1.4-1.4S222.6,413.5,223.4,413.5 M227.6,417.5
	c0.9,0,1.6,0.7,1.6,1.6s-0.7,1.6-1.6,1.6c-0.9,0-1.6-0.7-1.6-1.6S226.7,417.5,227.6,417.5 M273.5,433.5c-1.1,0-1.9-0.9-1.9-1.9
	c0-1.1,0.9-1.9,1.9-1.9c1.1,0,1.9,0.9,1.9,1.9C275.4,432.7,274.5,433.5,273.5,433.5 M265.1,433.6c-1.8,0-2-0.1-2-2c0-1.1,0.9-2,2-2
	s2,0.9,2,2C267.1,433.5,267,433.6,265.1,433.6 M252.6,429.2c-1,0-1.8-0.8-1.8-1.8s0.8-1.8,1.8-1.8s1.8,0.8,1.8,1.8
	C254.4,428.4,253.6,429.2,252.6,429.2 M261,429.1c-0.9,0-1.6-0.7-1.6-1.6s0.7-1.6,1.6-1.6s1.6,0.7,1.6,1.6
	C262.6,428.3,261.9,429.1,261,429.1 M269.3,428.9c-0.8,0-1.4-0.7-1.4-1.5s0.6-1.4,1.4-1.4s1.4,0.7,1.4,1.4
	C270.7,428.2,270.1,428.9,269.3,428.9 M277.6,428.7c-0.7,0-1.3-0.6-1.3-1.3c0-0.7,0.6-1.3,1.3-1.3c0.7,0,1.3,0.6,1.3,1.3
	S278.3,428.7,277.6,428.7 M248.5,424.7c-0.8,0-1.4-0.6-1.4-1.4s0.6-1.4,1.4-1.4c0.8,0,1.4,0.6,1.4,1.4
	C249.9,424,249.3,424.7,248.5,424.7 M256.8,424.5c-0.7,0-1.2-0.6-1.2-1.2c0-0.7,0.6-1.2,1.2-1.2c0.7,0,1.2,0.6,1.2,1.2
	S257.5,424.5,256.8,424.5 M265.1,424.3c-0.6,0-1-0.4-1-1s0.5-1,1-1s1,0.4,1,1C266.1,423.8,265.7,424.3,265.1,424.3 M273.5,424
	l-0.8-0.8l0.8-0.8l0.8,0.8L273.5,424z M277.6,419.5l-0.4-0.4l0.4-0.4l0.5,0.4L277.6,419.5z M244.3,420.3c-0.6,0-1.2-0.5-1.2-1.2
	c0-0.6,0.5-1.2,1.2-1.2c0.6,0,1.2,0.5,1.2,1.2S244.9,420.3,244.3,420.3 M252.6,420.1c-0.5,0-0.9-0.4-0.9-0.9s0.4-0.9,0.9-0.9
	s0.9,0.4,0.9,0.9C253.6,419.6,253.1,420.1,252.6,420.1 M261,419.8l-0.7-0.7l0.7-0.7l0.7,0.7L261,419.8z M269.3,419.6l-0.4-0.4
	l0.4-0.4l0.5,0.4L269.3,419.6z M367.5,185.6c0-1.1,0.9-1.9,1.9-1.9c1.8,0,1.9,0.1,1.9,1.9c0,1.1-0.9,1.9-1.9,1.9
	C368.3,187.5,367.5,186.6,367.5,185.6 M371.7,189.7c0-1.1,0.9-1.9,1.9-1.9c1.1,0,1.9,0.9,1.9,1.9c0,1.1-0.9,1.9-1.9,1.9
	C372.5,191.7,371.7,190.8,371.7,189.7 M375.8,193.9c0-1.1,0.9-1.9,1.9-1.9c1.1,0,1.9,0.9,1.9,1.9c0,1.1-0.9,1.9-1.9,1.9
	C376.7,195.8,375.8,195,375.8,193.9 M380,198.1c0-1.1,0.9-1.9,1.9-1.9c1.1,0,1.9,0.9,1.9,1.9c0,1.1-0.9,1.9-1.9,1.9
	S380,199.1,380,198.1 M384.2,202.2c0-1.1,0.9-1.9,1.9-1.9c1.8,0,1.9,0.1,1.9,1.9c0,1.1-0.9,1.9-1.9,1.9
	C385,204.2,384.2,203.3,384.2,202.2 M388.3,206.4c0-1.1,0.8-1.9,1.9-1.9c2,0,1.9,0,1.9,1.9c0,1.1-0.9,1.9-1.9,1.9
	C389.2,208.4,388.3,207.5,388.3,206.4 M398.6,340.1l0.3-0.3l-0.3-0.3l-0.3,0.3L398.6,340.1z"/>
<path id="Stitches_Gold" class="st1" d="M189.5,383.1l-3.1,12L184,397c0,0,3.3-1.5,4.8-0.9s2,1.4,2,1.4l7.3,8.1c0,0-0.7,2.8,0.3,3.4
	c1.1,0.6,4.4,0.3,4.4,0.3l-1.7-2.2l2.5-2.3l-0.7-0.2l-8.8-9.8c-1.3-0.7-3.4-0.1-3.4-0.1l2.7-10.9l1.7-1.2l-3.4-2.5
	c0,0-0.7-1.3-0.2-1.7c0.5-0.4,1.2-1.1,1.2-1.1s-2.9-0.6-3.8,1.3C188.2,380.2,189.5,383.1,189.5,383.1 M218,401.2
	c0,0-3.3,0.1-4.3-0.5c-1-0.7-0.1-3.4-0.1-3.4l-6.8-8.3c0,0-0.5-0.8-1.9-1.5s-4.7,0.6-4.7,0.6l2.4-1.7l3.7-11.6c0,0-1.2-2.9-0.4-4.4
	c1-1.8,3.8-1,3.8-1s-0.7,0.6-1.2,1s0.1,1.7,0.1,1.7l3.2,2.6l-1.7,1.1l-3.2,10.6c0,0,2.1-0.4,3.3,0.3l8.1,10.1l0.7,0.2l-2.5,2.1
	L218,401.2L218,401.2z M233.1,395.2c0,0-3.2,0-4.2-0.8c-1-0.7,0-3.4,0-3.4l-6.2-8.5c0,0-0.5-0.8-1.8-1.6c-1.3-0.8-4.7,0.4-4.7,0.4
	l2.5-1.6l4.2-11.2c0,0-1-2.9-0.1-4.4c1-1.7,3.8-0.8,3.8-0.8s-0.7,0.6-1.2,0.9s0,1.7,0,1.7l3,2.7l-1.8,1l-3.7,10.2
	c0,0,2.1-0.3,3.2,0.5l7.5,10.3l0.7,0.3l-2.6,2L233.1,395.2L233.1,395.2z M248.3,390.4c0,0-3.2-0.2-4.1-1c-0.9-0.8,0.2-3.3,0.2-3.3
	l-5.7-8.8c0,0-0.4-0.8-1.7-1.7c-1.3-0.8-4.6,0.1-4.6,0.1l2.5-1.4l4.8-10.9c0,0-0.9-3,0.1-4.4c1.1-1.6,3.8-0.6,3.8-0.6
	s-0.7,0.5-1.3,0.8s-0.1,1.7-0.1,1.7l2.8,2.8l-1.8,0.9l-4.2,9.9c0,0,2.1-0.2,3.2,0.6l6.8,10.6l0.7,0.3l-2.7,2L248.3,390.4
	L248.3,390.4z M263.5,386.9c0,0-3.1-0.4-4-1.2c-0.9-0.8,0.4-3.3,0.4-3.3l-5.1-9c0,0-0.3-0.8-1.6-1.7c-1.2-0.9-4.6-0.2-4.6-0.2
	l2.6-1.3l5.3-10.5c0,0-0.7-3,0.4-4.3c1.2-1.6,3.8-0.4,3.8-0.4s-0.7,0.5-1.3,0.8c-0.6,0.3-0.2,1.6-0.2,1.6l2.6,3l-1.8,0.8l-4.8,9.6
	c0,0,2.1-0.1,3.1,0.8l6.2,10.9l0.6,0.3l-2.8,1.6L263.5,386.9L263.5,386.9z M278.8,384.8c0,0-3.1-0.6-3.9-1.4
	c-0.8-0.9,0.6-3.2,0.6-3.2l-4.6-9.2c0,0-0.3-0.9-1.5-1.8c-1.2-1-4.6-0.4-4.6-0.4l2.6-1.1l5.9-10.1c0,0-0.5-3,0.6-4.3
	c1.3-1.5,3.8-0.2,3.8-0.2s-0.8,0.4-1.3,0.7c-0.6,0.2-0.3,1.6-0.3,1.6l2.4,3.1l-1.9,0.7l-5.3,9.3c0,0,2.1,0,3,1l5.5,11.2l0.6,0.4
	l-2.8,1.5L278.8,384.8L278.8,384.8z M294,384c0,0-3.1-0.7-3.8-1.6c-0.8-0.9,0.8-3.2,0.8-3.2l-4.1-9.5c0,0-0.2-0.9-1.4-1.9
	c-1.1-1-4.5-0.7-4.5-0.7l2.7-1l6.5-9.8c0,0-0.4-3,0.8-4.2c1.4-1.4,3.8,0,3.8,0s-0.8,0.4-1.4,0.6s-0.4,1.6-0.4,1.6l2.3,3.2l-1.9,0.6
	l-5.8,8.9c0,0,2.1,0.1,3,1.2l4.9,11.4l0.6,0.4l-2.9,1.3L294,384L294,384z M309.3,384.2c0,0-3-0.9-3.7-1.8c-0.7-1,0.9-3.1,0.9-3.1
	l-3.5-9.7c0,0-0.2-0.9-1.3-2c-1.1-1.1-4.5-0.9-4.5-0.9l2.7-0.8l7-9.4c0,0-0.2-3,1.1-4.2c1.4-1.3,3.8,0.3,3.8,0.3s-0.8,0.4-1.4,0.5
	c-0.6,0.2-0.5,1.6-0.5,1.6l2.1,3.3l-1.9,0.5l-6.3,8.6c0,0,2.1,0.3,2.9,1.3l4.2,11.7l0.6,0.4l-3,1.1L309.3,384.2L309.3,384.2z
	 M324.6,385.8c0,0-3-1.1-3.6-2.1c-0.7-1,1.1-3.1,1.1-3.1l-3-9.9c0,0-0.1-0.9-1.2-2c-1-1.1-4.4-1.2-4.4-1.2l2.8-0.7l7.5-9.1
	c0,0,0-3,1.3-4.1c1.5-1.2,3.8,0.5,3.8,0.5s-0.8,0.3-1.5,0.5c-0.6,0.1-0.6,1.5-0.6,1.5l1.9,3.5l-2,0.4l-6.8,8.3c0,0,2,0.4,2.8,1.5
	l3.6,12l0.5,0.5l-3.1,1L324.6,385.8L324.6,385.8z M339.9,388.5c0,0-2.9-1.2-3.5-2.3c-0.6-1,1.3-3,1.3-3l-2.5-10.2
	c0,0-0.1-0.9-1.1-2.1c-0.9-1.2-4.4-1.4-4.4-1.4l2.9-0.5l8.1-8.7c0,0,0.1-3.1,1.5-4.1c1.6-1.2,3.8,0.7,3.8,0.7s-0.9,0.3-1.5,0.4
	s-0.6,1.5-0.6,1.5l1.7,3.6l-2,0.3l-7.3,8c0,0,2,0.5,2.8,1.7l2.9,12.3l0.5,0.5l-3.1,0.8L339.9,388.5L339.9,388.5z M355.3,392.6
	c0,0-2.9-1.4-3.5-2.5s1.5-3,1.5-3l-1.9-10.4c0,0-0.1-0.9-0.9-2.2c-0.9-1.3-4.4-1.7-4.4-1.7l2.9-0.4l8.7-8.3c0,0,0.3-3.1,1.8-4
	c1.7-1.1,3.8,0.9,3.8,0.9s-0.9,0.2-1.5,0.3c-0.7,0.1-0.7,1.5-0.7,1.5l1.5,3.7l-2,0.2l-7.8,7.6c0,0,2,0.6,2.7,1.8l2.3,12.5l0.5,0.5
	l-3.2,0.6L355.3,392.6L355.3,392.6z M370.6,398.1c0,0-2.9-1.6-3.4-2.7s1.7-3,1.7-3l-1.4-10.6c0,0,0-0.9-0.8-2.3
	c-0.8-1.3-4.3-1.9-4.3-1.9l3-0.2l9.2-8c0,0,0.5-3.1,2-4c1.8-1,3.8,1.1,3.8,1.1s-0.9,0.2-1.6,0.2c-0.6,0-0.8,1.5-0.8,1.5l1.4,3.9
	h-2.1l-8.3,7.3c0,0,2,0.7,2.7,2l1.6,12.8l0.5,0.6l-3.3,0.5L370.6,398.1L370.6,398.1z M391.5,376l-9.8,7.6l-3,0.1
	c0,0,3.5,0.8,4.3,2.2c0.8,1.4,0.7,2.3,0.7,2.3l0.8,10.8c0,0-2.3,1.8-1.8,2.9c0.5,1.2,3.3,2.9,3.3,2.9V402l3.4-0.3l-0.5-0.6l-1-13.1
	c-0.6-1.3-2.6-2.2-2.6-2.2l8.8-7l2.1,0.1l-1.2-4c0,0,0.3-1.5,0.9-1.5c0.7,0,1.6-0.1,1.6-0.1s-1.9-2.3-3.8-1.3
	C392.2,372.9,391.5,376,391.5,376 M405.5,382.7l-9.8,7.6l-3,0.1c0,0,3.5,0.8,4.3,2.2c0.8,1.4,0.7,2.4,0.7,2.4l0.9,10.8
	c0,0-2.3,1.8-1.9,2.9c0.5,1.2,3.3,2.9,3.3,2.9v-2.8l3.3-0.3l-0.5-0.6l-1-13.1c-0.6-1.3-2.6-2.2-2.6-2.2l8.8-7l2.1,0.1l-1.2-4
	c0,0,0.3-1.5,0.9-1.5c0.7,0,1.6-0.1,1.6-0.1s-1.9-2.3-3.8-1.3C406.2,379.6,405.5,382.7,405.5,382.7 M404.5,213.9l3.1-12l2.4-1.9
	c0,0-3.3,1.5-4.8,0.9s-2-1.4-2-1.4l-7.3-8.1c0,0,0.8-2.8-0.3-3.4c-1.1-0.6-4.4-0.3-4.4-0.3l1.8,2.2l-2.5,2.3l0.7,0.2l8.8,9.8
	c1.3,0.7,3.4,0.1,3.4,0.1l-2.7,10.9l-1.7,1.2l3.3,2.5c0,0,0.7,1.3,0.2,1.7s-1.2,1.1-1.2,1.1s2.9,0.6,3.8-1.3
	C405.9,216.8,404.5,213.9,404.5,213.9 M376.1,195.8c0,0,3.3-0.1,4.3,0.5c1,0.7,0.1,3.4,0.1,3.4l6.7,8.3c0,0,0.5,0.8,1.9,1.5
	s4.7-0.6,4.7-0.6l-2.4,1.7l-3.6,11.6c0,0,1.2,2.9,0.4,4.4c-1,1.8-3.8,1-3.8,1s0.7-0.6,1.2-1s-0.1-1.7-0.1-1.7l-3.2-2.6l1.7-1.1
	l3.2-10.6c0,0-2.1,0.5-3.3-0.3l-8.1-10.1l-0.7-0.2l2.5-2.1L376.1,195.8L376.1,195.8z M360.9,201.9c0,0,3.2,0,4.2,0.8
	c1,0.7,0,3.4,0,3.4l6.2,8.5c0,0,0.4,0.8,1.8,1.6c1.3,0.8,4.7-0.4,4.7-0.4l-2.5,1.6l-4.2,11.2c0,0,1,2.9,0.1,4.4
	c-1.1,1.7-3.8,0.8-3.8,0.8s0.7-0.6,1.2-0.9c0.5-0.3,0-1.7,0-1.7l-3-2.7l1.8-1l3.7-10.2c0,0-2.1,0.3-3.2-0.5l-7.5-10.3l-0.7-0.3
	l2.6-2L360.9,201.9L360.9,201.9z M345.7,206.7c0,0,3.2,0.2,4.1,1s-0.2,3.3-0.2,3.3l5.7,8.8c0,0,0.4,0.8,1.7,1.7
	c1.3,0.8,4.6-0.1,4.6-0.1l-2.5,1.4l-4.8,10.9c0,0,0.9,2.9-0.1,4.3c-1.1,1.6-3.8,0.6-3.8,0.6s0.7-0.5,1.3-0.8
	c0.6-0.3,0.1-1.7,0.1-1.7l-2.8-2.8l1.8-0.9l4.2-9.9c0,0-2.1,0.2-3.2-0.7l-6.8-10.6l-0.7-0.3l2.7-1.8L345.7,206.7L345.7,206.7z
	 M330.5,210.2c0,0,3.1,0.4,4,1.2s-0.4,3.3-0.4,3.3l5.1,9c0,0,0.3,0.8,1.6,1.7c1.2,0.9,4.6,0.1,4.6,0.1l-2.6,1.3l-5.3,10.5
	c0,0,0.7,3-0.4,4.3c-1.2,1.6-3.8,0.4-3.8,0.4s0.7-0.5,1.3-0.8c0.6-0.3,0.2-1.6,0.2-1.6l-2.6-3l1.8-0.8l4.8-9.6c0,0-2.1,0.1-3.1-0.8
	l-6.2-10.9l-0.6-0.3l2.8-1.6L330.5,210.2L330.5,210.2z M315.3,212.3c0,0,3.1,0.5,3.9,1.4s-0.6,3.2-0.6,3.2l4.6,9.2
	c0,0,0.3,0.9,1.5,1.8c1.2,1,4.6,0.4,4.6,0.4l-2.6,1.1l-5.9,10.1c0,0,0.5,3-0.6,4.3c-1.3,1.5-3.8,0.2-3.8,0.2s0.8-0.4,1.4-0.7
	c0.6-0.2,0.3-1.6,0.3-1.6l-2.4-3.1l1.9-0.7l5.3-9.3c0,0-2.1,0-3.1-1l-5.5-11.2l-0.6-0.4l2.8-1.5L315.3,212.3L315.3,212.3z
	 M300,213.1c0,0,3.1,0.7,3.8,1.6c0.8,0.9-0.8,3.2-0.8,3.2l4.1,9.5c0,0,0.2,0.9,1.4,1.9c1.1,1,4.5,0.7,4.5,0.7l-2.7,1l-6.4,9.8
	c0,0,0.4,3-0.8,4.2c-1.4,1.4-3.8,0-3.8,0s0.8-0.4,1.4-0.6c0.6-0.2,0.4-1.6,0.4-1.6l-2.3-3.2l1.9-0.6l5.8-8.9c0,0-2.1-0.1-3-1.2
	l-4.9-11.4L298,217l2.9-1.3L300,213.1L300,213.1z M284.7,212.9c0,0,3,0.9,3.7,1.8c0.7,0.9-1,3.1-1,3.1l3.5,9.7c0,0,0.2,0.9,1.3,2
	c1.1,1.1,4.5,0.9,4.5,0.9l-2.8,0.8l-7,9.4c0,0,0.2,3-1.1,4.2c-1.4,1.3-3.8-0.2-3.8-0.2s0.8-0.4,1.4-0.5c0.6-0.2,0.5-1.6,0.5-1.6
	l-2.1-3.3l1.9-0.5l6.3-8.6c0,0-2-0.2-2.9-1.3l-4.2-11.7l-0.6-0.4l3-1.1L284.7,212.9L284.7,212.9z M269.5,211.3c0,0,3,1.1,3.6,2.1
	c0.7,1-1.1,3.1-1.1,3.1l3,9.9c0,0,0.1,0.9,1.2,2c1,1.1,4.4,1.2,4.4,1.2l-2.8,0.7l-7.5,9c0,0,0,3-1.3,4.1c-1.5,1.2-3.8-0.5-3.8-0.5
	s0.8-0.3,1.4-0.4c0.6-0.1,0.6-1.5,0.6-1.5l-1.9-3.5l2-0.4l6.8-8.3c0,0-2.1-0.4-2.9-1.5l-3.6-12l-0.6-0.5l3.1-1L269.5,211.3
	L269.5,211.3z M254.1,208.6c0,0,2.9,1.2,3.5,2.3c0.6,1-1.3,3-1.3,3l2.5,10.2c0,0,0.1,0.9,1,2.1c0.9,1.2,4.4,1.4,4.4,1.4l-2.9,0.5
	l-8.1,8.7c0,0-0.2,3.1-1.5,4.1c-1.6,1.2-3.8-0.7-3.8-0.7s0.9-0.3,1.5-0.4c0.6-0.1,0.6-1.5,0.6-1.5l-1.7-3.6l2-0.2l7.3-8
	c0,0-2-0.5-2.8-1.7l-2.9-12.3l-0.5-0.5l3.1-0.8L254.1,208.6L254.1,208.6z M238.8,204.5c0,0,2.9,1.4,3.4,2.5c0.6,1.1-1.5,3-1.5,3
	l1.9,10.4c0,0,0,0.9,0.9,2.2s4.4,1.7,4.4,1.7l-2.9,0.4l-8.6,8.3c0,0-0.3,3.1-1.8,4c-1.7,1.1-3.8-0.9-3.8-0.9s0.9-0.2,1.5-0.3
	c0.7-0.1,0.8-1.5,0.8-1.5l-1.8-3.1l1.6-0.4l8.5-8c0,0-2-0.6-2.7-1.8l-2.3-12.5l-0.5-0.5l3.2-0.6L238.8,204.5L238.8,204.5z
	 M223.4,199c0,0,2.9,1.6,3.4,2.7c0.5,1.1-1.7,3-1.7,3l1.4,10.6c0,0,0,0.9,0.8,2.3c0.8,1.3,4.4,1.9,4.4,1.9l-3,0.2l-9.2,8
	c0,0-0.5,3.1-2,4c-1.8,1-3.8-1.1-3.8-1.1s0.9-0.2,1.5-0.2c0.7,0,0.8-1.5,0.8-1.5l-1.3-3.9h2.1l8.3-7.3c0,0-2-0.7-2.7-2l-1.6-12.8
	l-0.5-0.6l3.3-0.5L223.4,199L223.4,199z M202.6,221l9.8-7.6l3-0.1c0,0-3.5-0.8-4.3-2.2s-0.7-2.4-0.7-2.4l-0.8-10.8
	c0,0,2.3-1.8,1.8-2.9c-0.4-1.2-3.3-2.9-3.3-2.9v2.8l-3.4,0.3l0.5,0.6l1,13.1c0.6,1.3,2.6,2.2,2.6,2.2l-8.8,7l-2.1-0.1l1.2,4
	c0,0-0.3,1.5-0.9,1.5c-0.7,0-1.6,0.1-1.6,0.1s1.9,2.3,3.8,1.3C201.9,224.2,202.6,221,202.6,221 M188.5,214.3l9.8-7.6l3-0.1
	c0,0-3.5-0.8-4.3-2.2s-0.7-2.4-0.7-2.4l-0.9-10.9c0,0,2.3-1.8,1.8-2.9c-0.5-1.2-3.3-2.9-3.3-2.9v2.8l-3.4,0.3l0.4,0.6l1,13.1
	c0.6,1.3,2.6,2.2,2.6,2.2l-8.8,7l-2.1-0.1l1.2,4c0,0-0.3,1.4-0.9,1.5c-0.7,0-1.6,0.1-1.6,0.1s1.9,2.3,3.8,1.3
	C187.9,217.5,188.5,214.3,188.5,214.3"/>
<path id="Stitches_Orange" class="st2" d="M188.1,383.1l-3.1,12l-2.4,1.9c0,0,3.3-1.5,4.8-0.9s2,1.4,2,1.4l7.3,8.1
	c0,0-0.7,2.8,0.3,3.4c1.1,0.6,4.4,0.3,4.4,0.3l-1.8-2.2l2.5-2.3l-0.7-0.2l-8.8-9.8c-1.3-0.7-3.4-0.1-3.4-0.1l2.7-10.9l1.7-1.2
	l-3.3-2.5c0,0-0.7-1.3-0.2-1.7c0.5-0.4,1.2-1.1,1.2-1.1s-2.9-0.6-3.8,1.3C186.8,380.2,188.1,383.1,188.1,383.1 M216.5,401.2
	c0,0-3.3,0.1-4.3-0.5c-1-0.7-0.1-3.4-0.1-3.4l-6.8-8.3c0,0-0.5-0.8-1.9-1.5s-4.7,0.6-4.7,0.6l2.4-1.7l3.6-11.6c0,0-1.2-2.9-0.4-4.4
	c1-1.8,3.8-1,3.8-1s-0.7,0.6-1.2,1s0.1,1.7,0.1,1.7l3.2,2.6l-1.7,1.1l-3.2,10.6c0,0,2.1-0.4,3.3,0.3l8.1,10.1l0.7,0.2l-2.5,2.1
	L216.5,401.2L216.5,401.2z M231.7,395.2c0,0-3.2,0-4.2-0.8c-1-0.7,0-3.4,0-3.4l-6.2-8.5c0,0-0.4-0.8-1.8-1.6
	c-1.4-0.8-4.7,0.4-4.7,0.4l2.5-1.6l4.2-11.2c0,0-1-2.9-0.1-4.4c1.1-1.7,3.8-0.8,3.8-0.8s-0.7,0.6-1.2,0.9c-0.6,0.3,0,1.7,0,1.7
	l3,2.7l-1.8,1l-3.7,10.2c0,0,2.1-0.3,3.2,0.5l7.5,10.3l0.7,0.3l-2.6,2L231.7,395.2L231.7,395.2z M246.9,390.4c0,0-3.2-0.2-4.1-1
	c-0.9-0.8,0.2-3.3,0.2-3.3l-5.7-8.8c0,0-0.4-0.8-1.7-1.7c-1.3-0.8-4.6,0.1-4.6,0.1l2.5-1.4l4.8-10.9c0,0-0.9-3,0.1-4.4
	c1.1-1.6,3.8-0.6,3.8-0.6s-0.7,0.5-1.3,0.8s-0.1,1.7-0.1,1.7l2.8,2.8l-1.8,0.9l-4.2,9.9c0,0,2.1-0.2,3.2,0.6l6.8,10.6l0.7,0.3
	l-2.7,1.8L246.9,390.4L246.9,390.4z M262.1,386.9c0,0-3.2-0.4-4-1.2c-0.9-0.8,0.4-3.3,0.4-3.3l-5.1-9c0,0-0.3-0.8-1.6-1.7
	c-1.2-0.9-4.6-0.2-4.6-0.2l2.6-1.3l5.3-10.5c0,0-0.7-3,0.4-4.3c1.2-1.6,3.8-0.4,3.8-0.4s-0.7,0.5-1.3,0.8c-0.6,0.3-0.2,1.6-0.2,1.6
	l2.6,3l-1.8,0.8l-4.8,9.6c0,0,2.1-0.1,3.1,0.8l6.2,10.9l0.6,0.3l-2.8,1.6L262.1,386.9L262.1,386.9z M277.3,384.8
	c0,0-3.1-0.6-3.9-1.4c-0.8-0.9,0.6-3.2,0.6-3.2l-4.6-9.2c0,0-0.3-0.9-1.5-1.8c-1.2-1-4.6-0.4-4.6-0.4l2.6-1.1l5.9-10.1
	c0,0-0.5-3,0.6-4.3c1.3-1.5,3.8-0.2,3.8-0.2s-0.8,0.4-1.3,0.7c-0.6,0.2-0.3,1.6-0.3,1.6l2.4,3.1l-1.9,0.7l-5.3,9.3c0,0,2.1,0,3.1,1
	l5.5,11.2l0.6,0.4l-2.8,1.5L277.3,384.8L277.3,384.8z M292.6,384c0,0-3.1-0.7-3.8-1.6c-0.8-0.9,0.7-3.2,0.7-3.2l-4.1-9.5
	c0,0-0.2-0.9-1.4-1.9c-1.1-1-4.5-0.7-4.5-0.7l2.7-1l6.4-9.8c0,0-0.4-3,0.8-4.2c1.4-1.4,3.8,0,3.8,0s-0.8,0.4-1.4,0.6
	s-0.4,1.6-0.4,1.6l2.3,3.2l-1.9,0.6L286,367c0,0,2.1,0.1,3,1.2l4.9,11.4l0.6,0.4l-2.9,1.3L292.6,384L292.6,384z M307.9,384.2
	c0,0-3-0.9-3.7-1.8c-0.7-1,0.9-3.1,0.9-3.1l-3.5-9.7c0,0-0.2-0.9-1.3-2c-1.1-1.1-4.5-0.9-4.5-0.9l2.7-0.8l7-9.4c0,0-0.2-3,1.1-4.2
	c1.5-1.3,3.8,0.3,3.8,0.3s-0.8,0.4-1.4,0.5c-0.6,0.2-0.5,1.6-0.5,1.6l2.1,3.3l-1.9,0.5l-6.3,8.6c0,0,2.1,0.3,2.9,1.3l4.2,11.7
	l0.6,0.4l-3,1.1L307.9,384.2L307.9,384.2z M323.2,385.8c0,0-3-1.1-3.6-2.1c-0.7-1,1.1-3.1,1.1-3.1l-3-9.9c0,0-0.2-0.9-1.2-2
	s-4.4-1.2-4.4-1.2l2.8-0.7l7.5-9.1c0,0,0-3,1.3-4.1c1.5-1.2,3.8,0.5,3.8,0.5s-0.8,0.3-1.5,0.5c-0.6,0.1-0.6,1.5-0.6,1.5l1.9,3.5
	l-2,0.4l-6.8,8.3c0,0,2.1,0.4,2.9,1.5l3.6,12l0.6,0.5l-3.1,1L323.2,385.8L323.2,385.8z M338.5,388.5c0,0-2.9-1.2-3.6-2.3
	c-0.6-1,1.3-3,1.3-3l-2.5-10.2c0,0-0.1-0.9-1-2.1c-1-1.2-4.4-1.4-4.4-1.4l2.9-0.5l8.1-8.7c0,0,0.2-3.1,1.5-4.1
	c1.6-1.2,3.8,0.7,3.8,0.7s-0.9,0.3-1.5,0.4s-0.7,1.5-0.7,1.5l1.7,3.6l-2,0.3l-7.3,8c0,0,2,0.5,2.8,1.7l2.9,12.3l0.5,0.5l-3.2,0.8
	L338.5,388.5L338.5,388.5z M353.8,392.6c0,0-2.9-1.4-3.4-2.5c-0.6-1.1,1.5-3,1.5-3l-1.9-10.4c0,0-0.1-0.9-0.9-2.2
	c-0.9-1.3-4.4-1.7-4.4-1.7l2.9-0.4l8.7-8.3c0,0,0.3-3.1,1.8-4c1.7-1.1,3.8,0.9,3.8,0.9s-0.9,0.2-1.5,0.3c-0.7,0.1-0.7,1.5-0.7,1.5
	l1.5,3.7l-2,0.2l-7.8,7.6c0,0,2,0.6,2.7,1.8l2.3,12.5l0.5,0.5l-3.2,0.6L353.8,392.6L353.8,392.6z M369.2,398.1c0,0-2.9-1.6-3.4-2.7
	s1.7-3,1.7-3l-1.4-10.6c0,0,0-0.9-0.8-2.3c-0.8-1.3-4.3-1.9-4.3-1.9l3-0.2l9.2-8c0,0,0.5-3.1,2-4c1.8-1,3.8,1.1,3.8,1.1
	s-0.9,0.2-1.5,0.2s-0.8,1.5-0.8,1.5l1.3,3.9h-2.1l-8.3,7.3c0,0,2,0.7,2.7,2l1.6,12.8l0.5,0.6l-3.3,0.5L369.2,398.1L369.2,398.1z
	 M390.1,376l-9.8,7.6l-3,0.1c0,0,3.5,0.8,4.3,2.2c0.8,1.4,0.7,2.3,0.7,2.3l0.8,10.8c0,0-2.3,1.8-1.8,2.9c0.5,1.2,3.3,2.9,3.3,2.9
	V402l3.4-0.3l-0.5-0.6l-1-13.1c-0.6-1.3-2.6-2.2-2.6-2.2l8.8-7l2.1,0.1l-1.2-4c0,0,0.3-1.5,0.9-1.5c0.7,0,1.6-0.1,1.6-0.1
	s-1.9-2.3-3.8-1.3C390.8,372.9,390.1,376,390.1,376 M404.1,382.7l-9.8,7.6l-3,0.1c0,0,3.5,0.8,4.3,2.2c0.8,1.4,0.7,2.4,0.7,2.4
	l0.9,10.8c0,0-2.3,1.8-1.8,2.9c0.5,1.2,3.3,2.9,3.3,2.9v-2.8l3.4-0.3l-0.5-0.6l-1-13.1c-0.6-1.3-2.6-2.2-2.6-2.2l8.8-7l2.1,0.1
	l-1.2-4c0,0,0.2-1.5,0.9-1.5c0.7,0,1.6-0.1,1.6-0.1s-1.9-2.3-3.8-1.3C404.8,379.6,404.1,382.7,404.1,382.7 M403.1,213.9l3.1-12
	l2.4-1.9c0,0-3.3,1.5-4.8,0.9s-2-1.4-2-1.4l-7.3-8.1c0,0,0.7-2.8-0.3-3.4c-1.1-0.6-4.4-0.3-4.4-0.3l1.8,2.2l-2.5,2.3l0.7,0.2
	l8.8,9.8c1.3,0.7,3.4,0.1,3.4,0.1l-2.7,10.9l-1.7,1.2l3.4,2.5c0,0,0.7,1.3,0.2,1.7s-1.2,1.1-1.2,1.1s2.9,0.6,3.8-1.3
	C404.5,216.8,403.1,213.9,403.1,213.9 M374.7,195.8c0,0,3.3-0.1,4.3,0.5c1,0.7,0.1,3.4,0.1,3.4l6.8,8.3c0,0,0.5,0.8,1.9,1.5
	s4.7-0.6,4.7-0.6l-2.4,1.7l-3.6,11.6c0,0,1.2,2.9,0.4,4.4c-1,1.8-3.8,1-3.8,1s0.7-0.6,1.2-1s-0.1-1.7-0.1-1.7l-3.2-2.6l1.7-1.1
	l3.2-10.6c0,0-2.1,0.5-3.3-0.3l-8.1-10.1l-0.7-0.2l2.6-2.1L374.7,195.8L374.7,195.8z M359.5,201.9c0,0,3.2,0,4.2,0.8
	c1,0.7-0.1,3.4-0.1,3.4l6.2,8.5c0,0,0.4,0.8,1.8,1.6s4.7-0.4,4.7-0.4l-2.5,1.6l-4.2,11.2c0,0,1,2.9,0.1,4.4
	c-1.1,1.7-3.8,0.8-3.8,0.8s0.7-0.6,1.2-0.9c0.6-0.3,0-1.7,0-1.7l-3-2.7l1.8-1l3.7-10.2c0,0-2.1,0.3-3.2-0.5l-7.5-10.3l-0.7-0.3
	l2.6-2L359.5,201.9L359.5,201.9z M344.4,206.7c0,0,3.2,0.2,4.1,1s-0.2,3.3-0.2,3.3l5.7,8.8c0,0,0.4,0.8,1.7,1.7
	c1.3,0.8,4.6-0.1,4.6-0.1l-2.5,1.4l-4.8,10.9c0,0,0.9,2.9-0.1,4.3c-1.1,1.6-3.8,0.6-3.8,0.6s0.7-0.5,1.3-0.8
	c0.6-0.3,0.1-1.7,0.1-1.7l-2.8-2.8l1.8-0.9l4.3-9.9c0,0-2.1,0.2-3.2-0.7l-6.8-10.6l-0.7-0.3l2.7-1.8L344.4,206.7L344.4,206.7z
	 M329.2,210.2c0,0,3.1,0.4,4,1.2s-0.4,3.3-0.4,3.3l5.1,9c0,0,0.3,0.8,1.6,1.7c1.2,0.9,4.6,0.1,4.6,0.1l-2.6,1.3l-5.3,10.5
	c0,0,0.7,3-0.4,4.3c-1.2,1.6-3.8,0.4-3.8,0.4s0.7-0.5,1.3-0.8c0.6-0.3,0.2-1.6,0.2-1.6l-2.6-3l1.8-0.8l4.8-9.6c0,0-2.1,0.1-3.1-0.8
	l-6.2-10.9l-0.6-0.3l2.8-1.6L329.2,210.2L329.2,210.2z M313.9,212.3c0,0,3.1,0.5,3.9,1.4s-0.6,3.2-0.6,3.2l4.6,9.2
	c0,0,0.3,0.9,1.5,1.8c1.2,1,4.6,0.4,4.6,0.4l-2.6,1.1l-5.9,10.1c0,0,0.5,3-0.6,4.3c-1.3,1.5-3.8,0.2-3.8,0.2s0.8-0.4,1.3-0.7
	c0.6-0.2,0.3-1.6,0.3-1.6l-2.4-3.1l1.9-0.7l5.3-9.3c0,0-2.1,0-3.1-1l-5.5-11.2l-0.6-0.4l2.8-1.5L313.9,212.3L313.9,212.3z
	 M298.7,213.1c0,0,3,0.7,3.8,1.6c0.8,0.9-0.8,3.2-0.8,3.2l4.1,9.5c0,0,0.3,0.9,1.4,1.9s4.5,0.7,4.5,0.7l-2.7,1l-6.4,9.8
	c0,0,0.4,3-0.8,4.2c-1.4,1.4-3.8,0-3.8,0s0.8-0.4,1.4-0.6c0.6-0.2,0.4-1.6,0.4-1.6l-2.3-3.2l1.9-0.6l5.8-8.9c0,0-2.1-0.1-3-1.2
	l-4.9-11.4l-0.6-0.4l2.9-1.3L298.7,213.1L298.7,213.1z M283.4,212.9c0,0,3,0.9,3.7,1.8c0.7,0.9-0.9,3.1-0.9,3.1l3.5,9.7
	c0,0,0.2,0.9,1.3,2c1.1,1.1,4.5,0.9,4.5,0.9l-2.7,0.8l-7,9.4c0,0,0.2,3-1.1,4.2c-1.5,1.3-3.8-0.2-3.8-0.2s0.8-0.4,1.4-0.5
	c0.6-0.2,0.5-1.6,0.5-1.6l-2.1-3.3l1.9-0.5l6.3-8.6c0,0-2.1-0.2-2.9-1.3l-4.2-11.7l-0.6-0.4l3-1.1L283.4,212.9L283.4,212.9z
	 M268.1,211.3c0,0,3,1.1,3.6,2.1c0.7,1-1.1,3.1-1.1,3.1l3,9.9c0,0,0.2,0.9,1.2,2s4.5,1.2,4.5,1.2l-2.8,0.7l-7.5,9c0,0,0,3-1.3,4.1
	c-1.5,1.2-3.8-0.5-3.8-0.5s0.8-0.3,1.4-0.4c0.6-0.1,0.6-1.5,0.6-1.5l-1.9-3.5l2-0.4l6.8-8.3c0,0-2.1-0.4-2.9-1.5l-3.6-12l-0.6-0.5
	l3.1-1L268.1,211.3L268.1,211.3z M252.8,208.6c0,0,3,1.2,3.6,2.3c0.6,1-1.3,3-1.3,3l2.5,10.2c0,0,0.1,0.9,1,2.1
	c0.9,1.2,4.4,1.4,4.4,1.4l-2.9,0.5l-8.1,8.7c0,0-0.2,3.1-1.5,4.1c-1.6,1.2-3.8-0.7-3.8-0.7s0.9-0.3,1.5-0.4c0.6-0.1,0.6-1.5,0.6-1.5
	l-1.7-3.6l2-0.2l7.3-8c0,0-2.1-0.5-2.8-1.7l-2.9-12.3l-0.5-0.5l3.1-0.8L252.8,208.6L252.8,208.6z M237.4,204.5c0,0,2.9,1.4,3.5,2.5
	s-1.5,3-1.5,3l1.9,10.4c0,0,0.1,0.9,0.9,2.2c0.9,1.3,4.4,1.7,4.4,1.7l-2.9,0.4L235,233c0,0-0.3,3.1-1.8,4c-1.7,1.1-3.8-0.9-3.8-0.9
	s0.9-0.2,1.5-0.3c0.7-0.1,0.7-1.5,0.7-1.5l-1.8-3.1l1.6-0.4l8.5-8c0,0-2-0.6-2.7-1.8l-2.3-12.5l-0.5-0.5l3.2-0.6L237.4,204.5
	L237.4,204.5z M222.1,199c0,0,2.9,1.6,3.4,2.7c0.5,1.1-1.7,3-1.7,3l1.4,10.6c0,0,0,0.9,0.8,2.3c0.8,1.3,4.3,1.9,4.3,1.9l-3,0.2
	l-9.2,8c0,0-0.5,3.1-2,4c-1.8,1-3.8-1.1-3.8-1.1s0.9-0.2,1.6-0.2c0.7,0,0.8-1.5,0.8-1.5l-1.3-3.9h2.1l8.3-7.3c0,0-2-0.7-2.7-2
	l-1.6-12.8l-0.5-0.6l3.3-0.5L222.1,199L222.1,199z M201.2,221l9.8-7.6l3-0.1c0,0-3.5-0.8-4.3-2.2s-0.7-2.4-0.7-2.4l-0.8-10.8
	c0,0,2.3-1.8,1.8-2.9c-0.5-1.2-3.3-2.9-3.3-2.9v2.8l-3.4,0.3l0.5,0.6l1,13.1c0.6,1.3,2.6,2.2,2.6,2.2l-8.8,7l-2.1-0.1l1.2,4
	c0,0-0.3,1.5-0.9,1.5c-0.7,0-1.6,0.1-1.6,0.1s1.9,2.3,3.8,1.3C200.5,224.2,201.2,221,201.2,221 M187.1,214.3l9.8-7.6l3-0.1
	c0,0-3.5-0.8-4.3-2.2s-0.7-2.4-0.7-2.4l-0.9-10.9c0,0,2.3-1.8,1.8-2.9c-0.5-1.2-3.3-2.9-3.3-2.9v2.8l-3.4,0.3l0.5,0.6l1,13.1
	c0.6,1.3,2.6,2.2,2.6,2.2l-8.8,7l-2.1-0.1l1.2,4c0,0-0.3,1.4-0.9,1.5c-0.7,0-1.6,0.1-1.6,0.1s1.9,2.3,3.8,1.3
	C186.4,217.5,187.1,214.3,187.1,214.3"/>
<path id="Letters_Gold" class="st1" d="M116.8,360.4c1.4,3.7,6.2,9.8,8.1,11.7c-3.7,3.5-12.5,14.1-10.7,23.9l-45.6,17.7
	c-4.5-4.7-7.5-14.4-21.5-12.8c-0.1-3.9-3.2-6.7-5.7-12.9c-2.5-6.2-25.5-61.6-27-65.3s-4.1-10.1-9.6-15.3c6.9-5,12-14.4,10.7-23.1
	l44.9-15.9c5.9,4.3,17.1,7.6,25.6,9c-0.7,4.4-0.3,9.1,0.6,11.8c0.9,2.7,9.8,24.1,9.8,24.1l-28.9,10.5L56.7,298l-9.8-2.5l-2.5,12.2
	L74.6,383l9.4,2.1l5.2-9.4l-6.8-17.6l-7.8,2.9l-10.2-25.4l36.9-13.5C101.4,322.1,115.4,356.6,116.8,360.4z M15.4,284.3L15.4,284.3
	L15.4,284.3L15.4,284.3z M205.1,237.1L205.1,237.1L205.1,237.1L205.1,237.1z M364.7,234.6L364.7,234.6L364.7,234.6L364.7,234.6z
	 M389.3,338.8c-0.3,4.4,0.5,8.1,4.8,12.3c-2.1,2.6-9.4,13.8-11.3,21.5l-25.3-2.9l-21.2-60.3l-3.1-12.5c-0.2,2.2,0.5,10.6,0.3,12.8
	c-0.8,11.9-1.6,22.9-1.6,22.9c-0.3,4.1,2.2,12.1,7.6,15.1c-3,4.1-9.6,11.9-10.6,20.1l-28.5-0.6c-1.6-9.6-2.9-12.5-7.7-20.1
	c-2,3.1-6,10.6-6,19.5l-31.3,1.9c-0.5-3.7-6.1-14-11.3-19.7c5.2-4,7.1-6.7,5.3-12.1c-0.4-1.1-1.4-4.3-2.2-7.2l-24.3,3
	c-0.1,2.9-0.2,5.8-0.3,7.3c-0.4,5.8,3.7,8.6,7.7,10.6c-2.5,5.5-5.4,12.9-5,21.5l-33.8,4.9c-0.4-6-4.9-14.1-8.6-19
	c-3.8,6.8-5.6,11.9-2.8,21.1l-31.2,7.8c-1.9-6.9-3.2-11.3-13.8-17.9c5.5-7,5.8-13,4.3-18.6c-1.4-5.6-14.4-56.5-15.3-60.2
	c-0.9-3.6-3.3-10.4-13.2-15.5c3-4.4,5.3-13.2,3.5-20.7l32.3-7.5c2.2,8.6,8.8,15.2,13.3,17c-3.8,5.2-7.3,10.7-5.5,18l0,0
	c1.7,7.4,16,60,16.5,61.9c1.8,6.5,5.7,9.8,12.1,13.2c4.5-4.6,6.4-9.9,7.9-17.5c1-5.1,3.9-27.2,6.3-45c1.8-13.6,1.9-22.6,2.3-24.6
	c1.1-5.7-0.3-8.4-2.9-12c3.4-3.8,8.4-12.1,8.5-20.2l41.1-3.9c2.4,9.1,8.8,15.4,12.6,18.5c-3.9,4.6-2.8,9.8-1.8,12.9
	c3.6,11.1,23,64.7,24.3,67.4c2.4,5.4,7.6,10.3,12.1,13.5c2.7-2.5,8-8.3,8.4-13.6l4.2-65c0.3-4.3,1.2-10.1-5.2-15.6
	c3.6-5.2,7-14.3,7.3-19.1l32.3,0.4l19.9,56.5l1.9,13v-13.9l1.2-18.9c0.3-5-0.4-10.2-6-15.2c2.8-3.8,5.6-14.4,7.3-19.5l32.3,3
	c0.5,7.9,3.9,16.8,6.4,21.6c-5.9,4.2-9.3,8-9.8,15.1L389.3,338.8z M238.5,304c0,0-5-13.1-6.1-16.6c-1.1-3.6-3.2-12.5-3.2-12.5
	s-0.8,9.8-1.3,13s-2.5,17.4-2.5,17.4L238.5,304z M512.4,292.1c-5.2-9.8-10.2-24.5-9-34.2l-75.5-15.8c-4.1,10.2-16.7,19.9-26.1,26.1
	l17.6,16.8c7.6-7.2,18-11.2,24.5-11.1l-15.8,69.4l0,0c-1.6,5-5.1,10.6-12,13.3c4,7.8,6.7,13.6,3.7,22.4l30,7
	c1.6-9.1,6.4-13.9,13.1-18.2c-4-4.2-5.8-11.6-4.6-17.5l17-72c6.2,3.2,12.3,13.4,15.2,21L512.4,292.1z M585,284.5l-41.8-15.1
	c-4.4,7.7-15.7,10.8-23.3,10.6c0.8,10.1-0.5,11.4-1.8,16.2c-1.4,4.8-9.1,21.1-10.5,24.5s-2.8,6.4-6.1,10.1l40.4,31.8l-8.5,22.5
	l-9.1,3.7l-4.3-8.7l7.8-20.5L497.5,348l-5.8,14.6l0,0c-1.8,4.5-1.4,8.5-5.4,12.2c7,5.9,8.8,14.8,8.1,25.2l43.6,17
	c3.4-6.2,14.3-9.9,24.3-10.3c0-4.3-0.2-8.5,1.6-14c0,0,7.5-19.6,10.8-28c1.6-3.8,2.9-6.5,5.4-9.4L541,324.1l9.9-23.6l10-3.9l3.8,6
	l-0.3,2.9l-8.5,23.5l29.1,11.4c0,0,6.1-16.5,7.4-20.4c1.3-3.8,4.6-7.8,7.7-11.2C596.8,305.5,586,291.7,585,284.5z"/>
<path id="Letters_Orange" class="st0" d="M10.7,282l46.2-16.4c5.9,4.3,15.8,8,24.2,9.5c-0.7,4.4-0.3,9.1,0.6,11.8
	c1,2.7,9.7,24.4,9.7,24.4l-28.9,10.4l-10.7-26l-9.8-2.5l-3.2,11.5L69.1,380l10,3l5.6-10.4l-6.2-16.9l-8.7,3.2l-10.2-25.4L96.5,320
	c0,0,13.9,34.5,15.4,38.3c1.5,3.7,6.2,9.8,8.1,11.7c-3.7,3.5-12.5,14.1-10.7,23.9l-45.6,17.7c-4.5-4.7-10.7-10.2-24.8-8.7
	c-0.2-3.9,0-10.8-2.5-17S9.5,320.4,9.5,320.4c-1.9-5.5-4.1-10.1-9.6-15.3C6.9,300.1,12,290.7,10.7,282 M228.3,284
	c-1.1-3.6-3.2-12.9-3.2-12.9s0,10.2-0.5,13.4c-0.5,3.2-2.5,17.4-2.5,17.4l12.3-1.4C234.3,300.6,229.4,287.6,228.3,284 M201,233.8
	l41-3.9c2.4,9.1,8.8,15.4,12.6,18.5c-3.9,4.6-2.8,9.8-1.8,12.9c3.7,11.1,23,64.7,24.3,67.5c2.9,6.4,7.3,10.5,11.5,13.6
	c-1,1.2-6.2,10.1-6.1,20.9l-31.3,1.9c-0.5-3.7-6.1-14-11.3-19.7c5.2-4,7.2-6.7,5.3-12c-0.4-1.1-1.4-4.3-2.2-7.2l-24.2,3
	c-0.1,2.9-0.2,5.8-0.3,7.3c-0.4,5.8,3.7,8.6,7.7,10.6c-2.5,5.5-5.4,12.9-5,21.5l-33.8,4.9c-0.4-6.2-4.3-14.3-8.8-19.5
	c5-4.8,6.8-10.2,8.4-18.2c1-5.1,3.9-27.2,6.3-45c1.8-13.6,1.9-22.6,2.3-24.7c1.1-5.7-0.3-8.4-2.9-12
	C195.9,250.1,200.9,241.9,201,233.8 M361.2,230.6l32.2,3c0.4,7.9,3.8,16.8,6.4,21.6c-5.9,4.2-9.3,8-9.8,15.1l-4.2,64.5
	c-0.3,4.4,0.5,8.2,4.8,12.3c-2.1,2.6-9.4,13.8-11.3,21.5l-25.4-2.9l-21.2-60.3l-3.4-16.6c-0.2,2.2,0.8,14.6,0.6,16.9
	c-0.8,11.9-1.6,22.9-1.6,22.9c-0.3,4,2.2,12.1,7.5,15.1c-3,4.1-9.6,11.9-10.6,20.1l-28.5-0.6c-1.6-9.8-2.3-12.7-7.4-20.7
	c3.7-2.9,8.5-8.5,8.9-14.6l4.2-65c0.3-4.3,0-9.5-6.5-14.9c3.6-5.1,8.3-14.9,8.6-19.8l30.9,0.5l19.9,56.5l4.1,16.5l-0.8-17.4
	l1.2-18.9c0.3-5-1.7-9.7-7.4-14.7C355.4,246.8,359.5,235.6,361.2,230.6 M149.8,278.4c1.7,7.4,15.9,60.1,16.5,62
	c1.8,6.7,5,10.2,11.5,13.5c-4.2,7.4-5.5,12.3-2.5,22l-31.2,7.8c-1.9-6.9-3.2-11.3-13.8-17.9c5.6-7,5.8-13,4.4-18.6
	c-1.4-5.6-15.5-58.1-16.4-61.7c-0.9-3.7-2.7-8.6-12.6-13.7c3-4.4,5.8-13.6,4.1-21l32.3-7.4c2.2,8.6,8.8,15.2,13.3,17
	C151.6,265.6,148.1,271.1,149.8,278.4 M425.3,338.8l15.8-69.4c-6.4-0.1-16.3,3.5-23.9,10.7l-17.6-16.8c9.4-6.3,21.3-15.4,25.3-25.7
	l74.2,15.6c-1.2,9.7,6.5,24.2,11.7,34l-23.2,7.7c-2.9-7.6-9.5-16-15.7-19.3l-16.4,70.2c-1.2,5.9,0.6,13.3,4.6,17.5
	c-6.7,4.3-11.5,9.1-13.1,18.2l-30-7c2.9-8.8,0.2-14.6-3.7-22.4C420.2,349.5,423.7,343.9,425.3,338.8 M489.5,357.8l5.8-14.6
	l30.2,11.7l-7.8,20.5l4.3,8.7l9.1-3.7l8.4-22.5l-40.4-31.8c3.3-3.8,6-9.5,7.4-12.9s7.7-16.8,9.1-21.6c1.4-4.8,2.7-6.1,1.9-16.2
	c7.6,0.2,18.9-2.8,23.3-10.6l43.9,15.8c1,7.2,9.9,20.3,13,23.5c-3,3.4-6.4,7.4-7.7,11.2c-1.3,3.8-7.4,20.4-7.4,20.4l-29.1-11.4
	l8.5-23.5l-4.9-7.8l-8.5,2.9l-9.8,23.5l39.1,31.2c-2.5,2.9-3.9,5.6-5.4,9.4c-3.4,8.4-10.8,28-10.8,28c-1.9,5.5-1.6,9.7-1.7,14
	c-10,0.4-20.8,4.1-24.3,10.3l-43.5-17c0.7-10.4-4.8-18.4-11.8-24.3C484.4,367.1,487.8,362.2,489.5,357.8"/>
<path id="Letters_Black" d="M64.8,406.7c-5.2-5.5-13.7-8.8-21.9-8.2c-0.2-3.4,0.5-6.4-1.8-12.1c-2.3-5.6-25.3-61.1-27.6-67.4
	s-5.1-11.5-7.6-13.8c6.1-4.8,9.6-15.8,9.1-20.4l41.1-14.5c3.9,3,14.1,6.2,21,7.6c-0.4,2.9-0.4,7,0.8,10.4c1.2,3.3,7.9,20.2,7.9,20.2
	L65,316.4l-9.8-23.9l-14.8-4.2l-6,16.1L66,383.2l15.3,5l7.6-14.5l-8.9-23l-7.8,2.9l-6.9-17.4l29-11c0,0,12.8,31.9,14,34.7
	c1.2,2.9,3.4,6.5,6.8,9.8c-4.4,4.1-10.3,13.6-9.9,21.3L64.8,406.7L64.8,406.7z M228.2,272c-1.1-2.7-4.6-12.6-4.6-12.6
	s-1.2,11.1-1.5,13s-4.9,34.2-4.9,34.2l22.9-2.5C240.1,304.2,229.3,274.7,228.2,272 M249.6,249c-2.9,3.9-2,9.4-0.6,13.5
	c3.1,9.6,23,64.8,24.4,67.9c1.9,4.3,5,8.7,10.3,12.5c-1.7,2.1-4.7,10.1-5.1,16.3l-24.3,1.5c-0.7-2.7-6.6-12.5-8.9-14.9
	c4.4-3.3,5.9-7.7,3.7-13.9c-0.6-1.6-3.2-10.3-3.2-10.3l-31.3,3.8c0,0-0.1,8.3-0.3,10.4c-0.7,5.1,1.6,10,6.8,12.7
	c-2.8,6.1-3.9,10.5-4.1,16.4l-26.5,3.9c-1.1-5.6-4.4-10.9-7.6-15.1c4.2-4,6.2-8.5,7.9-17.2s7.6-64.6,8.6-69.6s0.7-9.4-2.2-12.8
	c4.2-4.8,6.7-10.8,7.4-16.4l34.6-3.2C241.9,241.4,245.1,245.3,249.6,249 M376.5,364l-19.4-2.3c0,0-21.1-60.5-23.3-66.4
	c-2.2-5.9-5.9-19.2-5.9-19.2c-0.3,5-0.8,13.3-1.2,19.5c-1.1,15-2.1,30.5-2.3,32.5c-0.4,5.3,2.1,12.9,6.5,16c-4.3,6-7.1,9-8.7,15.2
	l-21.8-0.4c-1.1-6.7-3.3-11-6.6-16c3.3-2.5,8.1-7.8,8.6-15c0.3-4.6,3.9-60.5,4.2-65c0.3-4.4,0.4-10.9-5.7-15.8
	c3.3-5.1,6.3-11,7.1-14.9l24.5,0.4c0,0,21,59.7,22.8,64.7s5.5,16.5,5.5,16.5c0.3-4.3,0.8-9.7,1.1-15c1-14.8,2-30.9,2.2-33.3
	c0.4-6.4-1.5-10.4-6.8-15.3c2.9-4.1,5.2-10.3,6.8-15.2l25.8,2.4c0.8,5,2.5,11.4,5.2,16.5c-3.6,2.7-8.5,7.4-9.1,16
	c-0.7,9.9-4,60.8-4.2,64.5c-0.4,5.3,0.7,10,3.9,12.8C383.1,350.3,378.4,358.4,376.5,364 M170.3,373c0,0-1-4.3-0.1-8.8
	c0.8-4.5,3.2-8.6,3.2-8.6s-2.2-0.8-6-4.8c-3.5-3.7-5.1-9.3-5.1-9.3l-16.5-62.3c0,0-0.9-5.4,0.1-9.5c0.8-3.5,4-7.6,4-7.6
	s-1.3-0.3-5.5-5.4s-4.9-8.3-4.9-8.3l-25.2,5.8c0,0,0.8,3.2-0.7,9.6s-2.5,7.2-2.5,7.2s4.7,2.4,6.9,5.1c2.8,3.3,4.3,8.5,4.3,8.5
	l16.6,62.8c0,0,1.2,5.7-0.1,10.6c-1.4,5.3-2.9,7.1-2.9,7.1s4,2.5,6.9,6c2.9,3.6,4.1,7.8,4.1,7.8L170.3,373L170.3,373z M497.7,269.8
	c-2.1-6-2.7-13.2-2.7-13.2l-67.5-14.2c0,0-4.8,6.5-9.3,11.1c-6.5,6.7-12,10.4-12,10.4l11.2,10.6c9.8-9.4,20.7-10,28.9-8.9l-17,74.3
	c0,0-1.5,5.6-5,9.4c-3.7,4.1-5.9,4.9-5.9,4.9s2.4,4,3.4,8.5c0.9,4.5,0,8.8,0,8.8l22.2,5.1c0,0,1.1-4.2,3.9-7.9
	c2.8-3.6,6.8-6.1,6.8-6.1s-1.5-1.7-3-7c-1.4-4.9-0.3-10.6-0.3-10.6l17.5-75.1c8.5,2.8,17.8,9.8,21.1,20l14.8-5.2
	C504.9,284.8,500.7,278.6,497.7,269.8 M508,319.9c-2.2,4.3-3.2,5.2-3.2,5.2l39.7,31.3l-10.2,27l-14.3,5.8l-6.8-13.7l7-18.3
	l-22.4-8.6c-2.4,6.2-4.7,11.6-4.9,12.2c-0.9,2.3-4.6,7.4-6.9,10c6.4,5.2,10.3,13.9,10.4,21.5l38.2,14.9c4.9-5.9,15.6-8.8,21.7-8.8
	c-0.3-4.7,1.1-9.9,1.6-11.8l9-23.8c0,0,2.5-6.4,3.9-8.9c1.3-2.3,1.7-2.7,1.7-2.7L534,320.6l11.4-28.2l13.5-4.6l7.7,12.2l-7.8,21.5
	l21.4,8.5l6.5-17.8c1.4-4.1,3.8-5.7,5.9-8.5c-4.5-5.4-10.1-15.5-11.3-20.3l-38.7-13.9c-2.5,3.9-13,9.3-20.8,9.2
	c0.5,3.3-0.9,10.3-2.7,15.5c-0.2,0.7-2.1,3.7-5.1,12.4C514,306.7,509.1,317.8,508,319.9"/>
</svg>
