<svg version="1.1" id="Layer_1" xmlns="http://www.w3.org/2000/svg" xmlns:xlink="http://www.w3.org/1999/xlink" x="0px" y="0px"
	 viewBox="0 0 600 600" style="enable-background:new 0 0 600 600;" xml:space="preserve">
<style type="text/css">
	.st0{fill:#3EC1CD;}
	.st1{fill:#A71930;}
</style>
<path id="Blue" class="st0" d="M413.5,475.4l-57,78.2H600L486.7,48.3l-0.4-1.9l-164.9,0.1L0,553.6h264.4l-37.1-77.8l73.9-123.6
	l5,19.6l-61.9,106.5l92.8-68.7l62.2,68.7l-25.8-99.5l14.2-22.6L413.5,475.4z M338.5,390.8c-7,5.8-56.6,46.6-56.6,46.6
	s34.8-60,37.6-64.8c-1.1-4.1-5.7-22.2-5.7-22.2h61.5c0,0-13.4,21.3-15.9,25.4c1.7,5.5,19,63.2,19,63.2S343.4,396.6,338.5,390.8
	L338.5,390.8z M309.2,338.8l46.5-77.9h11.2l16.9,77.9H309.2z"/>
<path id="Black" d="M584.1,541.3L476.5,58.4l-132.1-0.1l6.7,10.3l1.6,2.4l0,0h113.1L568,528.9h-160l35.3-47.6l-54.5-243.2l-47.9,0
	L196.6,474.9l-0.7,1.1l25.7,52.7H63.2l-0.7,0.5l-7,4.3l-0.2,0.1l-12.4,7.6h200.6L211.7,476L348,249.4h29.7l51.4,228.9l-46.2,63.1
	L584.1,541.3z M289.7,139.3l73.2-32.4l-30.8-45.1l-2.3-3.4L22.6,541.3l7.9-5L191.8,435l-30.9-73.4l98.3-61.5l-34-60.8l95.3-45.9
	L289.7,139.3z"/>
<path id="Red" class="st1" d="M221.6,528.7L195.9,476l0.7-1.1L341,238.1l47.9,0l54.5,243.2l-35.3,47.6h160L465.8,71.1H352.7
	l27.2,41.6l-72.5,32.5l31.2,53.9l-95.3,45.5l31.9,58.9l-98.6,62l30.4,74.3L62.4,529.2l0.7-0.5H221.6z M351.1,68.6l1.6,2.4
	L351.1,68.6L351.1,68.6z M375.4,350.4h-61.5c0,0,4.6,18.2,5.7,22.2c-2.8,4.8-37.6,64.8-37.6,64.8s49.5-40.8,56.6-46.6
	c4.9,5.9,39.9,48.2,39.9,48.2s-17.3-57.7-19-63.2C362,371.7,375.4,350.4,375.4,350.4z"/>
</svg>
