<svg version="1.1" id="Layer_1" xmlns="http://www.w3.org/2000/svg" xmlns:xlink="http://www.w3.org/1999/xlink" x="0px" y="0px"
	 viewBox="0 0 600 600" style="enable-background:new 0 0 600 600;" xml:space="preserve">
<style type="text/css">
	.st0{fill:#0D233F;}
	.st1{fill:#BB2031;}
	.st2{fill:#EBAB1F;}
</style>
<path id="Outline" class="st0" d="M80.3,190.4c-22.5,0.5-35.9,12.4-43.2,22.4c-10,13.6-13.1,29.3-11,37.8l1.1,4.5l4.6,1.6
	c2.8,0.9,5.8,0.2,8-1.8c6.7-5.4,10.7-6.8,11.7-7l1-0.1c-11.4,15.4-18.3,34.5-24.9,53.1c-7,19.5-13.5,37.9-24.1,47.7L0,351.7l0.8,4.5
	c0.9,5.1,1.5,15.9,1.1,26.8c-0.1,3.8,1.6,6.9,4.5,8.4c2.9,1.6,6.3,1.2,9-0.8c17.9-13.3,29.9-49.9,40.5-82.1
	c4.4-13.3,8.6-26.1,12.5-34.8c-0.5,2.3-0.5,4.8,0,7.2c2.5,9.5,10.4,14.5,19.8,12.6c0,0,0.9-0.4,1.9-0.9c2.9,4.4,4.4,10.8,4.4,17.8
	c0,5.4-0.9,11.3-2.9,16.7c-2.5,7.1-10.4,23.6-29.5,23.1c-4.1-0.1-8.4-1.9-9.3-2.4c-4.9-2.9-9.3-0.8-11.3,2.4
	c-2.1,3.3-1.9,8.3,2.4,11.6c-0.4-0.4,0.3,0.2,0.3,0.2c4.2,3.7,14,12.6,33.4,11.8c16.2-0.7,31.4-12.2,39.7-29.3
	c0,0.2-0.1,0.5-0.1,0.7c0,2.5,1.2,4.4,1.8,5.1c2.1,2.8,6.6,4.8,12.2,1.4c3.1-2,7.3-4.7,11.9-8.9c7.7-7.1,15.3-16.8,23.9-30.6
	c0.4-0.7,4.8-7.7,9-16.7c0.9,0,1.9,0,2.9-0.1c-2.1,6.3-4.4,13.9-4.4,21.1c0,8,2.8,15.5,11.7,19.5c10,4.5,26.2,0.8,41.6-15.8
	c3.6,4.8,8.6,7.9,14.9,8.5c6.2,0.2,12.8-2.8,17.9-6.4c3.7,2.7,8.8,5.2,15.5,4.5c9.9-1.1,19.8-8.7,30.1-23.5l6.1-9.3
	c6.1-9.6,15.2-23.8,22.4-31.3c-0.5,1.4-1.1,2.9-2.3,4.9c-6,10.1-11.7,20.6-11.7,29.6c0,2.1,0.3,4.1,1,6.1c1.6,4.4,5,7.7,9.7,9.3
	c19.1,6.3,39.4-10.1,54.8-43.8c2-0.5,3.9-1.2,5.8-2c-2.2,4.8-3.6,9.3-3.6,13.2c0,6.6,2.7,12,6.5,15.6c9.5,9.2,26.3,8.7,38.7-0.3
	c5.3,3,11.6,4.9,18.3,5c14.4,0.2,27.1-6.3,34.8-18c7.6-11.5,9-26.4,3.7-39.8h0c-1.9-4.7-7.3-18.4,1.1-30.1c3.2-3.9,1.7-8.1,1.2-9.3
	c-0.5-1.2-2.8-5.1-8.3-5h-0.3l-0.3,0c-17.1,1.7-26.6,21.7-36.6,42.9c-1,2.2-2.3,4.5-3.5,6.8c-0.5-0.1-0.9-0.3-1.4-0.3
	c-1.7-0.2-3.2,0-4.8,0.2c-0.1-0.3,0-0.5-0.1-0.8c-0.3-1-1.2-1.8-1.9-2.6c1.4-0.3,3.1-0.8,3.1-0.8c4.7-1.2,6.4-6.1,6.9-8.1
	c0.3-1.4,0.5-2.8,0.5-4.1c0-3.1-0.9-6.2-2.6-8.8c-2.8-4.2-7.3-7-12.6-7.7c-10-1.3-20.9,7.1-25.3,18.6c-3.6,4.1-7.7,7-11.7,9
	c-1-8.2-6.1-14.1-13.6-15.4c-8.1-1.4-16.4,3-19.8,10.6c-0.1,0.3-0.2,0.6-0.3,1c-1.6-2.8-3.8-5.1-6.8-6.3
	c-21.5-8.6-37.9,17.4-52.3,40.3c-5.8,9.2-11.2,17.8-16.4,23.7c-0.4,0.5-0.6,0.6-1,0.9c0.1-1.5,0.5-3.3,1.5-5.6
	c0.1-0.3,19.7-46.8,19.7-46.8l-27.1,2.7c0,0-0.3,0.8-0.5,1.3c-2.5-1.2-5.2-2.3-8.3-2.7c-24.2-3.1-39.1,18.4-45,39.6
	c-0.4,1.1-2.5,5.3-4.4,8.8c-7.9,14-14.6,17.9-17.2,18.1c-0.2-0.8-0.4-1.5-0.4-2.7c0-7.4,3.6-22.5,7.7-32.5c0.6-1.7,0.9-3.3,0.9-4.6
	c0-3.5-1.8-5.7-2.7-6.6c-2.1-1.9-5.8-3.2-9.9-1.1c-4.6,2.8-9.2,4.4-13.5,5.4c0.1-0.7,0.2-1.4,0.2-2.1c0-1.9-0.2-3.6-0.8-5
	c-2.6-6.9-7.7-11.5-14.2-12.5c-6.5-1-13.1,1.7-17.3,7.2c-2.8,3.6-4.2,7.9-4.2,12.4c0,2.8,0.6,5.8,1.7,8.7c1.1,2.7,2.9,5.3,5.2,7.7
	c-2.5,5.1-5.3,10.6-8.1,15.5c-8.3,14.6-15.8,25-26.2,35.9c-0.4,0.5-0.7,0.9-1.1,1.3c0.3-0.8,0.6-1.5,0.8-2.3
	c2.2-6.6,3.2-13.2,3.2-19.7c0-13.6-4.8-26.7-13.7-37.4c13.6-10.8,21.8-26.3,21.8-42.6c0-3.3-0.4-6.4-1-9.7c2-0.6,4-1.3,6.1-1.9
	c7.6-1.9,6.9-8.7,6.8-9.5c-0.1-0.8-1.2-7.5-9.2-7.4c-4,0.1-7.8,0.3-11.6,0.7C115.1,198.7,101.3,190.3,80.3,190.4L80.3,190.4z
	 M78.3,216.5c0.9,0,1.8,0,2.8,0c1.8,0.1,4.7,0.7,7.7,2c-11.5,5.2-21.6,12.5-30.1,21.8l-0.1-1c-0.1-1.8-0.4-11.4,5.4-17.4
	C67.3,218.4,72.1,216.6,78.3,216.5L78.3,216.5z M525.6,224l-7.5,11.7c-4.1,6.4-4.7,12.6-5,16.7c0,0-0.2,1.6-0.2,2.3
	c-0.3,0.4-0.9,0.9-0.9,0.9l-3.5,3.9L508,260c-5,6.3-5.9,11.6-5.9,24.4l-0.1,1.2c-0.4,0.4-0.8,1-0.8,1c-4.2,5.5-4.4,12-4.5,16.8
	c0,0-0.2,3.9-0.2,4c-12.2,1.8-254.2,36.7-259.7,37.4c-15.5,2.1-22.7,14.4-21.6,24.8c2,18.1,14.7,23.5,26,22.5
	c7.1-0.6,183-26.8,245.4-36.2c-0.5,2.5-0.9,5.1-0.9,7.9c0,3.4,0.6,7.1,1.9,10.8c-1,2.3-1.8,4.8-2.1,7.6c-0.2,1.7-0.3,3.3-0.3,4.7
	c0,10.1,4.3,15.6,8.1,18.6c6.1,4.7,14.4,5.1,24.3,1.6c10.3,1.9,21.6,0.8,31.8-3c9.6,1.8,19.3-3.8,24.2-6.8c0,0,0.1-0.1,0.1-0.1h0.5
	l6.7-0.2l1.1-0.2c4.4-0.8,12.6-2.4,16.3-10.7c1.1-2.4,1.5-4.8,1.5-7.1c0-5.7-2.7-10.6-3.8-12.5c0-0.4,0.1-0.7,0.1-1.2
	c0-1.6-0.1-3.6-0.6-5.9c-1.3-6.3-4.7-10.9-7.2-14.2l-1.9-2.8l-0.9-2.1c-0.3-0.9-0.7-2-1.3-3.2c5.3-4.4,7.5-9.3,8.3-12.5
	c1.8-7.1-0.2-14.4-5.4-19.5c-5.2-5.1-12.8-7.5-21.4-6.8c-0.3-11.2-5.4-17.5-8.3-20.8c0-0.6,0-1.1,0-1.1c-0.1-6.5-0.1-18.7-9.9-28.4
	c-2.1-2.1-2.4-2.8-3.2-4.9c0,0-1-2.3-1.3-3c-0.5-1.3-2-4.4-6.6-7.8L525.6,224L525.6,224z M428.9,236.1c0.2,2.4,1.3,4.2,2,4.9v0
	c0,0,0.5,0.5,0.8,0.8c-1.7-0.4-3.4-0.8-5.6,0c-0.1,0-0.2,0-0.3-0.1c0-0.1,0-0.2,0-0.3c0-1.8,1-3.6,2.2-4.6
	C428.3,236.5,428.6,236.3,428.9,236.1L428.9,236.1z M102.7,239.1c-0.1,4.3-1.2,13.7-8.5,22.9l-0.1,0.1c-0.3,0.3-0.6,0.6-0.9,0.9
	c-6.6-3.3-13.6-2.9-18.8,1.3c-0.5,0.4-1,0.9-1.5,1.4c0.1-0.1,0.2-0.3,0.3-0.5l1.6-2.2C79.7,256.1,85.6,247.9,102.7,239.1
	L102.7,239.1z M469,246.5c0.3,1.6,0.7,3.1,0.7,5c0,0.7,0,1.5-0.1,2.3c-0.6,13.4-8.5,17.9-15.8,19.4c4.9-7.6,9.2-15.5,12.9-22.5
	C467.4,249.3,468.2,247.8,469,246.5L469,246.5z M360.2,259.5c0.2,0.4,0.3,0.9,0.5,1.3c1,1.8,2.5,3,3.8,4.3
	c-6,10.9-11.7,17.9-15.3,20.2c1.2-4.5,4.7-11.7,6.8-16.1l2.9-6.1C359.6,261.7,359.8,260.7,360.2,259.5L360.2,259.5z M419.3,267.6
	c-0.2,1.3-0.8,2.5-0.8,3.7c0,2.6,0.5,5.2,1.3,7.8c-1.8,0.6-3.5,0.9-4.4,0.1c-0.6-0.5-0.8-1.3-0.8-2.3c0-1.4,0.5-3.2,1.5-5.1
	C416.9,270.3,418,268.9,419.3,267.6L419.3,267.6z M263.5,269.6c0.5,0,0.6,0.1,0.6,0.2c0.3,0.4,0.5,1.3,0.5,2.9
	c0,2.1-0.5,5.3-2.3,9.9c-6.2,16.1-10.5,19-11.7,19.5c-0.3,0.2-0.6,0.3-1.4-0.1c-0.4-0.2-1.6-3.2-0.3-9.8
	C251.5,279.8,259.6,269.6,263.5,269.6L263.5,269.6z"/>
<path id="Red" class="st1" d="M80.3,198.6c-37,0.8-49.4,38.6-46.6,49.9c0.1,0.2,0.3,0.5,0.6,0.2c6.9-5.6,12.7-8.7,16.3-9
	c-0.6-10,2.9-32.7,30.7-31.4c6.3,0.3,16.9,3.7,23.5,12.9c-15.4,4.3-31.9,12.9-45.2,30C36,281.8,31.7,333.3,8.6,354.8
	c1.1,6.2,1.7,17.8,1.2,28.6c0,1.2,0.6,0.9,1,0.6c26-19.5,41.1-103.4,56-123.7c6.7-9.1,13.4-20.6,41.6-32.8c1,2.4,1.7,5.1,2.1,8.1
	c0.7,5.6-0.3,19.4-10.3,31.7c-2.3,2.9-6.2,5.4-7.4,5.2c-1.5-1.2-1.3-0.8-2.9-1.9c-8.6-4.6-15.2,2.2-13.7,8.5
	c1.1,4.2,4.6,7.6,10.6,6.4c1.8-0.4,4.9-3.1,5.5-2.6c20.6,17.1,10.2,76.5-30.2,75.6c-6.1-0.2-12-2.8-13-3.4c-1-0.6-1-0.3-0.4,0.2
	c3.3,2.9,11.1,11.2,28.6,10.5c32.7-1.4,56.1-56.1,20.6-87.1c22.7-12.3,30.7-37.5,23.1-56.4c4.2-1.5,8.7-3,13.7-4.6
	c1.1-0.3,2-0.7,0-0.7c-4.6,0.1-9.9,0.4-15.6,1.2C112.8,206.8,99.9,198.5,80.3,198.6L80.3,198.6z M484.6,206.4
	c-12.4,1.2-20.5,17.7-30.2,38.3c-2,4.3-4.4,8.8-6.9,13.3c-3.4-2.9-14.8-5.2-19.5,6.1c-2.7,6.6-1.6,12.8,2.1,17.8
	c-1,1-1.9,1.9-2.9,2.7c-11.5,9.3-26.6-0.4-18-16.7c4.2-8,14.4-14.2,18.4-15.8c1.9-0.8,4-3.4,0.8-2.4c-3.8,1.3-9.1-0.8-10.2-4.7
	c-1.6-5.7,0.9-11.4,4.7-14.5c9.4-7.9,15-0.3,14,4.3c-0.5,1.7,0.7,0.4,1.1-1.5c1.4-5.4-2.8-9.7-8-10.4c-6.9-0.9-15.5,6.5-17.9,15.5
	c-8,9.4-19.2,14.6-28,15.5c1.4-4.2,2.3-8,2.1-10c-1-12-14.8-11.1-18.4-3c-3.5,7.8-2.4,19.7,7.5,21.1c-7.4,15.4-20.1,34.8-29.6,32.7
	c-11.3-2.6-0.7-20.6,6-35.1c5.3-11.5,3.1-18.1-1.2-19.8c-22.3-8.9-41.4,40.9-60,61.9c-11.9,13.4-19.1,0.3-12.5-13.8l14.2-33.8
	l-8.8,0.9l-2.9,7.3c-1.1-3-5.7-7.4-12.5-8.2c-19.3-2.5-31.4,16-36.4,33.7c-0.7,2.4-4.1,8.8-5.2,10.6c-10.1,18-21.1,25-28.4,21.4
	c-9.6-4.6,0.7-37,4.3-45.8c0.6-1.7,0.3-2.3-0.9-1.7c-8.3,5-18.9,7.9-27.3,7.5c2.1-5.9,3.3-11,2.3-13.7c-5.5-14.8-25-5.5-19.1,9.7
	c1.3,3.3,3.9,6.4,7.6,8.7c-3.3,7.2-7.5,15.4-11.1,21.8c-9.5,16.8-17.7,27.3-27.4,37.5c-2.4,2.5-0.3,1.7,0.8,1
	c3.3-2.1,6.9-4.5,10.7-8c7.3-6.7,14.6-16.2,22.4-28.9c3-4.9,7.4-13,10.9-21c3.2,0.7,6.8,0.9,10.8,0.2c2.3-0.4,6.5-2.3,8.3-3.1
	c0.5-0.2,0.6,0.4,0.6,0.4c-0.9,8.2-17.5,37-1.4,44.2c9,4.1,25.9-1.9,40.7-23.7c1.1,8.6,5.3,15,13.4,15.7c6,0.2,14.5-5.3,17.1-8.8
	c4.8,4.4,16.9,18.6,39.3-13.2c5.4-7.7,19.2-31.5,29.8-42.3c11.2-11.3,19.7-1.3,9.6,15.7c-7.3,12.3-16.4,29.1-5.3,32.8
	c18.4,6.1,36.1-18.3,46.8-43c12.1-1.9,26.6-13,30.5-17c0.3,2.8,1.8,6.7,4.5,8c-5.1,3.8-10.5,8-13.5,11.9
	c-18.5,26.2,10.9,38.3,28.8,22.9c0.8-0.7,1.5-1.4,2.3-2.1c4.7,4,11.3,6.6,18.7,6.7c24.8,0.4,40-23.8,31-46.5v0
	c-1.9-4.8-9.2-22.4,2-38.1C485.8,206.8,485.8,206.3,484.6,206.4L484.6,206.4z M472.1,227.2c-0.5,5.2,6.5,13.1,5.4,27.2
	c-1,21-16.5,26.4-24.7,27.4c-5.3,0.7-10.2-0.1-14.1-1.8C454.5,261.5,464.3,233.9,472.1,227.2L472.1,227.2z M527.2,232.1l-4.4,6.8
	c-3.3,5.1-3.7,10.3-4.1,14l-0.5,3.7c-0.3,1.1-0.8,1.7-2.4,3.3l-3,3.3l-0.5,0.6c-3.5,4.4-4.6,7.7-4.6,20.7c0,2.8-0.3,3.5-0.3,3.6
	c0,0-0.8,1-0.8,1l-1,1.3c-3.1,3.9-3.2,8.9-3.3,13.3l-0.3,4.7c-0.3,2.1-0.7,3.5-1.1,4.3c-5.5,0.8-261,37.6-263.4,38
	c-13.4,1.8-17.3,12.2-16.6,18.4c1.8,17,14.6,17.8,19.9,17.3c7.3-0.6,204.6-30.1,253.7-37.4c-1.4,4.3-3,9.3-3,14.9
	c0,3.6,0.7,7.4,2.5,11.3c-1.3,2.5-2.4,5-2.7,7.9c-0.2,1.4-0.3,2.7-0.3,4c0,7.7,3.1,11.8,5.9,14c6.8,5.2,15.9,2.3,20.8,0.3
	c9.9,2.1,20.9,0.8,30.8-3.2c8.1,3,17.4-2.7,22.3-5.7l1.1-0.6c0.5-0.3,1-0.3,2.8-0.2l5.2-0.1l1.2-0.2c4.1-0.7,9.7-1.8,12.2-7.4
	c0.7-1.6,1-3.1,1-4.7c0-3.6-1.6-7.1-3.1-9.6h0l-0.4-0.7c0,0-0.2-0.3-0.4-0.4c0-0.1,0-0.3,0-0.3c0.1-0.7,0.1-1.6,0.1-2.7
	c0-1.3-0.1-2.8-0.5-4.6c-1.1-5-3.9-8.8-6.2-11.9l-2.3-3.4l-1.3-3c-0.7-2-1.6-4.4-3.5-7.1c7.1-4,9.6-9.1,10.4-12.2
	c1.3-5-0.1-10.1-3.8-13.8c-4.6-4.5-11.8-6.2-20.2-4.8c-0.4-0.5-0.7-1-1.1-1.5c0,0-1.5-2.2-1.8-2.8c0-0.4,0.1-0.8,0.1-1.2
	c0-9.8-4.5-14.9-7.3-18c0,0-0.8-0.9-1.1-1.3c0-0.8-0.2-3.4-0.2-3.4c0-6.1-0.1-16.2-8.1-24.3c-2.9-3-3.5-4.4-4.5-6.8l-1.3-3.1
	c-0.3-0.7-1.1-2.3-4.4-5L527.2,232.1L527.2,232.1z M377.4,240c0.3,0,0.7,0.1,1.1,0.3c3.7,1.4,3.7,5.4,0.4,13.5
	c-1.4-0.2-2.7-0.4-3.8-0.9C369.3,250.5,372.2,239.5,377.4,240L377.4,240z M437.4,260.6c2.6,0.1,5,2.2,6,4.1c-2.9,4.6-6,8.9-9.1,12.6
	c-3.6-3.1-5.1-7.3-2.9-11.8h0C433.2,261.8,435.4,260.6,437.4,260.6L437.4,260.6z M263.6,261.4c7.1,0,12.7,7.4,6.3,24.2
	c-6.8,17.6-14.3,28.1-23.7,24C231.7,303.1,247.3,261.4,263.6,261.4L263.6,261.4z M166.6,263.7c2.3,0,4.4,1.7,4.3,5.7
	c0,1.4-1.3,4.8-3.2,9.2c-2.6-0.9-4.7-2.4-5.9-4.5C158.1,268.1,162.7,263.6,166.6,263.7z"/>
<path id="Navy" class="st0" d="M585.9,372.8c-1.9-2-1.8-3.1-1.6-5.2c0.1-1.4,0.3-3.1-0.2-5.4c-0.8-3.6-3-6.6-5.1-9.4l-2.8-4.2
	l-1.7-3.9c-0.9-2.5-1.8-5.1-4.8-8.1c-0.3-0.3-0.5-0.5-0.7-0.8l-2.5-3.1c8.1-2.4,13.5-6.4,14.7-11.2c0.7-2.7-0.1-5.5-2.1-7.5
	c-2.9-2.9-9.4-4.9-18.9-2.2c0,0-0.1-0.1-0.1-0.1c-0.8-1.6-1.9-3.2-3-4.8c-0.1-0.2-0.3-0.3-0.4-0.5c-0.6-0.9-1.5-2.3-2.1-3.3
	c-0.4-0.8-0.6-1.4-0.6-2c0.6-8.6-3-12.7-5.6-15.6c-1.2-1.3-2.2-2.4-2.5-3.6c-0.3-1.3-0.4-3.2-0.4-5.3c0-5.7-0.1-13.5-6.2-19.7
	c-3.9-3.9-4.8-6.3-5.9-9l-1.2-2.7c-0.4-1-2-2.3-2.7-2.8l-0.9-0.7l-0.7,1c-2.4,3.8-2.8,7.6-3,10.9l-0.6,4.8c-0.7,2.9-2.4,4.6-4.2,6.4
	l-2.4,2.6l-0.5,0.6c-2.2,2.8-3.2,4.5-3.2,16.6c0,5.7-0.9,6.8-2.5,8.7l-0.9,1.2c-1.7,2.2-1.8,5.7-1.9,9.4l-0.3,5.6
	c-0.1,0.7-0.2,1.4-0.3,2l-0.6,2.6c0,0,0,0,0,0h0c-0.7,2.3-1.6,3.6-2.7,4.5c-0.1,0.1-0.2,0.2-0.3,0.2c-0.7,0.1-7.8,1.1-19.3,2.8
	l-1.9,0.2c0,0,0,0-0.1,0c-7.2,1-16,2.3-25.9,3.8c0,0,0,0,0,0l-5.2,0.7c-55.6,8-141.2,20.4-185.2,26.7c-0.1,0-0.2-0.1-0.3-0.1
	l-5.7,0.9l-22.3,3.2c-9,1.2-11.7,7.6-11.2,11.3c0.3,3.1,1.4,12.7,13.2,11.7c1.2-0.1,8.3-1.1,19.3-2.7c0.1,0,0.1,0,0.2,0l5.9-0.9
	c38.2-5.6,111.6-16.5,167-24.7l0.5,0l3-0.5c22.7-3.4,42.2-6.3,54.5-8.2c0.1,0,0.2,0,0.3,0l8.6-1.3c0,0,0,0,0.1,0
	c1.4-0.2,2.5-0.4,3.3-0.5c-0.3,2.8-1.2,5.8-2.2,9c-1.4,4.3-3,8.8-3,13.6c0,3.6,1,7.3,3.3,11.2c-0.1,0.2-0.3,0.8-0.3,0.8
	c-2.1,3.4-3,5.6-3.3,8.2c-0.1,1.1-0.2,2.2-0.2,3.2c0,4.1,1.1,7.1,3.4,8.8c3.3,2.5,8.8,2.1,16.3-1.2c10.1,2.7,22,1.3,32.1-3.5
	c5.4,3.7,13.9-1.4,18.6-4.3l1.2-0.7c2.3-1.4,4.4-1.2,6.4-1l3.5,0l1.2-0.2c3.4-0.6,6.6-1.2,7.7-3.8
	C588.6,379.2,588,376.6,585.9,372.8L585.9,372.8z M259.1,375c-10.8,1.6-17.7,2.6-18.9,2.6c-8.6,0.7-10.3-4.7-10.8-9.6
	c0-0.1,0-0.3,0-0.5c0-2.3,1.6-7.2,9.3-8.2l18.3-2.6c1.5,1.1,2.8,3.9,3.4,7.4C261.1,368.5,260.6,372.8,259.1,375L259.1,375z
	 M423.4,350.7c-51.5,7.7-115.3,17.1-152.5,22.5c1.3-3.3,1.4-7.7,0.8-11c-0.5-3-1.5-5.5-2.7-7.3l152.4-22
	C422.6,337.8,423.6,343.2,423.4,350.7L423.4,350.7z M434,341.4c-0.4-3.8-1-7-1.8-10l10-1.4L434,341.4L434,341.4z M442.7,347.8
	l6.7-9.4c0.3,2.5,0.4,5.3,0.4,8.4C447.5,347.1,445.1,347.5,442.7,347.8L442.7,347.8z M460.6,345.2c0-3.1-0.1-5.8-0.4-8.3l7.7,7.3
	C465.5,344.4,463.1,344.8,460.6,345.2L460.6,345.2z M474.1,334.4c-1.1-1-5.8-5.3-8.4-7.7l15.1-2.2
	C478.7,327.5,475,333.1,474.1,334.4L474.1,334.4z M489.8,340.8c-2.6,0.4-5.5,0.8-8.7,1.3l8.2-10.9
	C489.6,333.9,489.8,337.1,489.8,340.8L489.8,340.8z M577.5,315.7c1.1,1.1,1.7,2.4,1.7,3.8c0,0.5-0.1,0.9-0.2,1.4
	c-1,4-6.2,7.6-13.8,9.7c-0.7-0.9-1.3-2.1-1.8-3.4c-0.2-0.5-0.4-1.1-0.6-1.6c0-0.1-0.1-0.1-0.1-0.1c-0.5-1.3-0.8-2.5-1-3.3
	c-0.3-1.4-0.5-2.6-0.6-3.8c-0.1-1-0.1-2-0.1-2.8c0,0-0.1-0.3-0.1-0.8v-0.5c0,0,0-0.1,0-0.1v-0.1c0-0.1,0-0.2,0-0.3
	C569.3,311.5,575,313.2,577.5,315.7z M559,320.2c0.1,0.7,0.2,1.4,0.4,2.2c0,0,0,0,0,0.1v0.1l0,0.1c0.2,0.7,0.4,1.5,0.6,2.3
	c-1.4,0-2.8-0.3-4-0.8C557,322.8,558,321.5,559,320.2z M556.1,309.5c-2.4,3.4-5.1,6.9-8.4,10.4c-2.6-1.4-6.7-4.6-9.5-7.3
	c1-0.1,1.9-0.3,2.8-0.4L556.1,309.5L556.1,309.5z M552,332.9c-1.3,0-2.6,0-3.7-0.2c0.3-0.3,0.7-0.6,1-1
	C550.2,332.2,551.1,332.6,552,332.9z M517.8,324c-0.2-2.1-0.7-4.1-1.4-5.6c-0.2-0.4-0.4-0.7-0.6-1c3.2-1.1,6.6-1.9,10.1-2.7
	c4.4,4.5,10.8,9.5,14.6,12.1c-1.1,0.9-2.2,1.7-3.4,2.6l-2.9-1C529.5,326.8,523.2,324.6,517.8,324L517.8,324z M524.9,335.9
	c-3.4,1.3-7,2.4-10.9,3.1c1.2-2,2.1-4,2.7-5.9c2,0.3,4,1.1,5.9,1.9C523.3,335.3,524,335.6,524.9,335.9L524.9,335.9z M510.9,303.8
	c0.1-3.3,0.1-6.4,1.4-8l0.9-1.1c2-2.5,3.1-4,3.1-10.3c0-11.8,0.9-12.9,2.7-15.1l0.5-0.7l2.2-2.4c1.8-1.8,4-3.9,4.8-7.5l0.7-5.1
	c0.3-2.9,0.7-5.8,2.2-8.7c0.4,0.4,0.8,0.7,0.8,1c0,0.1,1.1,2.6,1.1,2.6c1.1,2.9,2.2,5.6,6.4,9.8c5.5,5.5,5.5,12.4,5.6,18
	c0,2.3,0,4.3,0.4,5.9c0.4,1.7,1.7,3.1,3,4.6c2.3,2.6,5,5.7,5,12.2c0,0.6,0,1.1-0.1,1.7c0,0.1,0,0.2,0,0.3l-10.5,1.8
	c2.6-6.4,0.8-14.4-1.9-19.7c-0.3-0.6-1-0.8-1.5-0.5c-0.6,0.3-0.8,1-0.5,1.6c2.6,5.2,4.4,13.2,1.1,19l-1.9,0.3
	c-8.9,1.3-18,2.7-25.9,5.3L510.9,303.8L510.9,303.8z M502.5,338.9c-0.5,0.1-1.1,0.2-1.9,0.3c0.1-7.1-0.8-12.2-2.1-17.3l5-0.7
	c0.1,0,0.1,0.1,0.2,0.1c1.3,0,2.2,0.6,2.8,1.7C508.1,326.5,506.1,334.1,502.5,338.9L502.5,338.9z M585.6,380.2
	c-0.7,1.4-3.2,1.9-6,2.4l-1.2,0.2h-2.9c-2.2-0.2-4.8-0.4-7.7,1.3l-1.2,0.7c-4.1,2.5-12.6,7.6-16.7,4.1l-0.6-0.5l-0.7,0.3
	c-3.7,1.8-16.9,7.5-31.5,3.4l-0.4-0.1l-0.4,0.2c-6.8,3.1-11.8,3.6-14.4,1.6c-2.1-1.6-2.9-4.9-2.3-9.8c0.3-2.1,1.1-4.1,3-7.2l0.9-2.6
	l-0.4-0.2c-5.4-8.3-2.8-15.9-0.4-23.3c15.9-0.7,27.1-4.2,36.3-10.5c9.5,2.4,21.8,2,30-0.9c1.7,2.1,2.4,4,3.1,6l1.9,4.3l3,4.4
	c1.9,2.6,3.9,5.4,4.6,8.6c0.2,1,0.3,1.9,0.3,2.7c0,0.7-0.1,1.3-0.1,2c0,0.6-0.1,1.1-0.1,1.6c0,1.6,0.4,3.2,2.2,5.1
	c1.1,2.1,1.7,3.8,1.7,5C585.8,379.6,585.8,379.9,585.6,380.2L585.6,380.2z M525.6,285.1c0.3,0.6,0,1.3-0.6,1.6
	c-2.3,1.1-4.3,3.9-4.8,6.8c-0.6,2.9,0.2,5.6,2,7.8c0.4,0.5,0.4,1.2-0.1,1.7c-0.5,0.4-1.2,0.4-1.6-0.1c-2.4-2.8-3.3-6.2-2.6-9.9
	c0.7-3.7,3.1-7,6.1-8.5C524.7,284.2,525.4,284.5,525.6,285.1L525.6,285.1z M561.8,343.4c0.6,0,1.1,0.6,1.1,1.2
	c-0.1,1.5,1.7,2.9,3.9,4.6c3.7,3,8.8,7.2,6.7,14.8c-0.2,0.6-0.8,1-1.4,0.8c-0.6-0.2-1-0.8-0.8-1.4c1.7-6.1-2.2-9.3-5.9-12.3
	c-2.5-2.1-4.9-4-4.7-6.6C560.7,343.8,561.2,343.3,561.8,343.4L561.8,343.4z M573.7,368.9c-0.3,1.5-0.9,1.9-1.2,2l-2.4-0.1l-2.5-0.1
	c-1.6,0.2-3.2,0.9-4.4,1.9l-4,3.2l-0.9,0.4c-1.7,0.4-3.3,0.2-5-0.4c-0.6-0.2-1.2,0.1-1.5,0.7c-0.2,0.6,0.1,1.3,0.7,1.5
	c2.1,0.8,4.2,1,6.3,0.5l1.8-0.8l4-3.2c0.9-0.8,2.1-1.3,3.3-1.4l2,0.1l3.3,0c2.1-0.6,2.6-2.9,2.8-3.7c0.1-0.6-0.2-1.2-0.8-1.4
	C574.4,367.9,573.8,368.3,573.7,368.9L573.7,368.9z M541.4,347.9c2.5,4,2.7,9.2,0.5,14.1c-0.5,1.1,0,2.1,1.7,3.9c0,0,0.6,0.5,0.5,1
	c-0.1,0.5-0.1,1-0.7,1c-0.4,0-1,0.1-1.4-0.4c-1.1-1.2-3.4-3.6-2.1-6.5c1.8-4.3,1.7-8.6-0.4-11.9c-0.3-0.5-0.2-1.3,0.4-1.6
	C540.4,347.2,541.1,347.4,541.4,347.9L541.4,347.9z M517.8,351.5c2.2,2.2,1.5,5.5-0.4,7.7l-2.8,2.4c-2.5,1.9-4,3.1-3.3,5.5
	c0.2,0.6-0.2,1.2-0.8,1.4c-0.6,0.2-1.2-0.1-1.4-0.8c-1.1-4,1.8-6.2,4.2-8l2.5-2.1c0.6-0.7,2-2.9,0.5-4.4c-0.4-0.4-0.5-1.2,0-1.6
	C516.7,351.1,517.4,351.1,517.8,351.5L517.8,351.5z M512.4,378.5c1,2.7,3.8,4.3,6.3,3.6l3.2-1.5l3.4-1.5c1.3-0.5,2.6-0.1,3.6,0.3
	c0.9,0.3,1.6,0.6,2.2,0.3l0.9-0.3l-0.1,0c0.1,0,1.6-0.6,2-0.2c1.1,1-0.5,1.7,0,1.5l-1.8,1.2l-0.3,0.1c-1.4,0.5-2.6,0.1-3.7-0.3
	c-0.9-0.3-1.6-0.5-2.3-0.3l-3,1.4l-3.7,1.7c-3.7,1-7.6-1.2-9-5c-0.2-0.6,0.1-1.3,0.7-1.5C511.5,377.6,512.2,377.9,512.4,378.5
	L512.4,378.5z M533,259.4c0.6,0.3,0.8,1,0.6,1.5c-1.1,2.5-1,5.9,0.2,8.9c0.9,2.3,2.4,3.9,4,4.6c0.6,0.2,0.9,0.9,0.7,1.5
	c-0.2,0.6-0.9,0.9-1.5,0.7c-2.2-0.9-4.1-2.9-5.3-5.8c-1.4-3.6-1.5-7.7-0.2-10.8C531.8,259.4,532.5,259.2,533,259.4L533,259.4z"/>
<path id="Gold" class="st2" d="M539.4,305.6C539.4,305.6,539.4,305.6,539.4,305.6c4.1-0.7,11.8-2,12.9-2.2c0,0.1,0.1,0.2,0.1,0.2
	c0.6,1.2,1.4,2.5,2.3,3.8l-14,2.4c-2.7,0.4-5.4,0.8-8,1.3c-3.9,0.6-6,1-6.8,1.2c-4.1,0.8-8,1.8-11.7,3.1c-1.3-1.2-2.7-2-4.3-2.3
	c0.1-0.5,0.2-1.1,0.4-1.6c8-2.8,17.4-4.2,26.6-5.6C536.9,306,537.9,305.8,539.4,305.6L539.4,305.6z M567.5,337.6
	c-7.2,2.3-17.2,2.7-25.7,1c0.3-0.2,0.5-0.4,0.7-0.6c0.3-0.2,0.6-0.5,1-0.7c1-0.8,2-1.7,2.8-2.4c4.5,1,13.5,0.3,17.9-1.3
	c0.9,1.3,1.9,2.6,3.1,4C567.4,337.5,567.4,337.6,567.5,337.6L567.5,337.6z M485.3,323.8c0.8-0.1,1.7-0.2,2.3-0.3
	c0.2,0.7,0.6,2.3,0.8,3.5c0.1,0.4,0.1,0.8,0.2,1.1c-0.8,1-10.3,13.8-10.8,14.5c-0.8,0.1-6.2,0.9-7.1,1.1c-0.7-0.7-10.3-9.7-11-10.5
	c-0.3-1.9-0.7-3.7-1.1-5.5c1.4-0.2,3.5-0.5,4.2-0.6l10.8,9.9c0.2,0.2,0.6,0.3,0.9,0.3c0.3,0,0.6-0.3,0.8-0.5c0,0,8.2-12.1,8.7-12.8
	L485.3,323.8L485.3,323.8z M456.3,328l1.1,5.1c0.6,3.2,1,6.7,1,10.9c0,0.5,0,1,0,1.5c-1.2,0.2-4.7,0.7-6.3,1c0-0.4,0-0.8,0-1.2
	c0-3.7-0.3-6.9-0.8-9.9h0c-0.1-0.5-0.2-1.2-0.4-2.2c-0.1-0.6-0.2-1.2-0.4-1.8c-0.2-1-0.4-1.9-0.6-2.6c0.5-0.1,1.4-0.2,2.2-0.3
	C452.2,328.6,456.3,328,456.3,328z M423.7,332.7c1.5-0.2,4.9-0.7,6.3-0.9c1,4.3,2,9,2,15.1v2.5c-1.3,0.1-4.7,0.6-6.3,0.8
	c0-0.4,0-0.8,0-1.2C425.7,342.3,424.8,337.3,423.7,332.7L423.7,332.7z M434.3,349.1c0-1.1,0-2.1,0-3.1v-1.1
	c0.4-0.6,10.5-14.6,11.1-15.4c0.5-0.1,1.4-0.2,2.3-0.3c0.3,1.3,1,5,1.2,5.9c-0.6,0.9-8.8,12.5-9.3,13.2c-0.4,0.1-1.9,0.3-3.3,0.5
	C435.7,348.9,435,349,434.3,349.1z M492,340.5c0-0.4,0-0.7,0-1.1c0-4.4-0.4-8-1-11c0-0.1,0-0.2,0-0.3c-0.5-2.5-0.8-4-1.1-4.9
	c1.6-0.2,5-0.7,6.3-0.9c1.2,4.8,2.1,9.5,2.1,15.9c0,0.4,0,0.9,0,1.4C496.6,339.8,494.5,340.1,492,340.5L492,340.5z M551.8,329.1
	c0.1-0.2,0.3-0.3,0.4-0.5c0.9-1,1.9-2.2,2.4-2.8c1.9,0.9,4,1.4,6.2,1.3c0.3,0.7,0.6,1.3,0.9,2.1c0.3,0.5,0.5,1.1,0.8,1.6
	c0,0.1,0.1,0.2,0.1,0.2c0,0.1,0.1,0.1,0.1,0.2c-3.4,0.6-7.8,0.5-11.7-1.3C551.2,329.8,551.5,329.5,551.8,329.1L551.8,329.1z
	 M528.2,334.5c-1.6-0.3-3.2-0.9-4.9-1.6c-1.9-0.8-3.9-1.5-6-1.9c0.4-1.6,0.6-3.1,0.6-4.6c5.1,0.7,11.1,2.7,15.5,4.3l1.2,0.4
	c-1.9,1.2-4,2.4-6.2,3.4C528.3,334.4,528.3,334.5,528.2,334.5L528.2,334.5z M542.3,325.2c-3.2-2-9.1-6.7-13.6-11
	c1.2-0.2,2.4-0.4,3.6-0.6c1-0.2,2.1-0.3,3.3-0.5c2.4,2.6,7.2,6.5,10.6,8.5c-1.2,1.2-3.1,3.1-3.1,3.1l-0.5,0.5
	C542.4,325.1,542.3,325.2,542.3,325.2L542.3,325.2z M509.2,315.5c1.6,0.2,3,0.9,4.1,2.3l0.1,0.1c0.4,0.5,0.7,1,1,1.5
	c0.8,1.7,1.3,3.8,1.3,6.2c0,0.1,0,0.1,0,0.2c0,0.9-0.1,1.9-0.3,2.9c0,0.1,0,0.3-0.1,0.4c-0.6,3.2-2,6.8-4.4,10.3
	c-0.5,0.1-1,0.2-1.5,0.2c-0.1,0-0.1,0-0.2,0c-1.2,0.1-2.5,0.2-3.7,0.2l0-1.3h0c2.2-3.7,3.9-8.4,3.9-12.3c0-1.5-0.2-3-0.8-4.1
	c-0.5-1-1.1-1.7-1.9-2.3C507.7,318.6,508.5,317.3,509.2,315.5L509.2,315.5z M504.4,346.1c0.4-1.3,0.7-2.6,0.8-3.9c0,0,0,0,0-0.1
	c1.6,0,4.6-0.1,6.5-0.5c0.1,0,0.1-0.1,0.2-0.1c6.2-0.8,11.7-2.5,16.7-4.7c1.6-0.5,6.5-3.1,9.2-5.2c0,0,0,0,0-0.1
	c1.8-1.2,3.5-2.6,5.1-3.9c0.1-0.1,0.2-0.1,0.2-0.1l1.3-1.2l0.1-0.1c5.2-4.8,9.5-9.9,12.9-14.7c0.4,0.5,0.7,1.2,0.9,1.8
	c0.1,0.3,0.2,0.7,0.2,1v2.3c-0.1,0.1-0.1,0.2-0.1,0.2c-14.3,19.8-26.9,30.1-54.8,31.6C504,347.8,504.2,347,504.4,346.1L504.4,346.1z
	 M266.2,355.3c1.5,1.2,2.8,3.9,3.4,7.4c0.2,1.3,0.3,2.6,0.3,3.9c0,3-0.6,5.6-1.7,7.1c-0.8,0.1-4.3,0.7-6.5,1c0.8-2,1.4-4.4,1.4-6.7
	c0-1.5-0.1-2.9-0.3-4.2c-0.5-3.3-1.7-5.6-3.1-7.4C261.8,356,265.4,355.4,266.2,355.3L266.2,355.3z"/>
</svg>
