<svg version="1.1" id="Layer_1" xmlns="http://www.w3.org/2000/svg" xmlns:xlink="http://www.w3.org/1999/xlink" x="0px" y="0px"
	 viewBox="0 0 600 600" style="enable-background:new 0 0 600 600;" xml:space="preserve">
<style type="text/css">
	.st0{fill:#DF4601;}
</style>
<path id="Black" d="M577,208.5c-0.7-6.9-5-17.3-13.7-33.9c-1.4-2.6-2.4-4.6-3-5.9c-1.6-3.5-1.9-7.6-0.9-11.7l2.2-8.4l-8.4,2.1
	l-22.9,5.7l-1,1.2c-4,4.6-8.6,13.1-15.3,28.4c-3.7,8.4-9.9,20.5-14.8,30.3l-0.1,0.3c-12.2,24-20.2,33-29.4,33.4
	c-3.4,0.2-5.8-0.6-8.7-4.8c15.1-7.1,24.3-16.2,29.4-22.8c9.2-12,12.8-26.9,9.4-38.7c-3.5-12.4-16.1-20-28-16.9
	c-11.8,3.1-22.8,12.3-31,25.9c-3.4,5.7-14.2,25.7-13,48.1c-7.3,10.5-17.3,22.6-24.1,26.9c-5.5,3.5-8.3,3.3-8.8,3.1
	c-1.2-0.7-2.3-1.5-2.8-4.7c-0.8-5.8,0.4-14,2.7-25.1c16.8-13.1,30-27.5,39.3-42.9c9-14.8,14.4-30.6,16.1-46.9c1.1-10-1.6-18-7.6-23
	c-4.9-4.1-13.5-3.1-17.8-1.5c-23.2,8.8-45.5,51.7-53.9,79.3c-3,9.8-5.1,17.9-7.3,27.3c-2.5,1.9-5,3.8-7.2,5.3
	c-0.9-9.6-3.4-15.7-5.9-21.3c-5.2-11.7-13.3-15.9-19.7-18.3c-10.5-3.8-22.7-1.7-33.4,5.8c-9.3,6.5-14.3,16.6-13.8,27.3
	c-8.2,10.8-14.9,28.1-16,42.2c-0.8,9.2-0.6,17.1,0.4,23.5c-5.2,9-15.2,20.9-21.4,21.8c-2.6,0.4-4-0.1-4.2-0.4
	c-1.2-1.5-0.9-4-0.4-5.9c3.7-15.1,20.4-64.1,30.2-89.7l3.7-9.6l-5.5,1.6c3.5-3.2,6.3-7.5,7.7-12.2c1.8-6,1-11.8-2.1-15.9
	c-2.7-3.6-6.8-5.6-11.5-5.6c-9.5,0-19.3,8.2-22.4,18.6c-1.8,6-1,11.8,2.1,15.9c1.9,2.5,4.4,4.2,7.3,5c-4.3,1.4-8.6,2.7-9.8,3.1
	l-2.4,0.7l-0.9,2.3c-5,12.6-11.9,32.8-18.6,52.4c-4.5,13.1-8.7,25.5-11.9,34.4c-6,10.2-16.5,19.4-21.7,22.5c-1.9,1.1-3.3,1.2-3.5,1
	c-0.2-0.1-0.9-1.4-0.9-4.5c0.1-22.8,20.6-57.7,35.2-72.6c4-4.1,3.3-10.3,0.1-13.5c-2.7-2.7-7.5-8.1-9-10.7c-1.2-2-3-3.3-5.1-3.6
	c-2.4-0.4-5,0.4-7.4,2.4c-7.5,6.2-16.6,7.7-29.5,4.8c-9-2-13.9,0-15.8,6.8c-0.5,1.8-0.9,4.9-1.4,8c-0.2,1.8-0.5,3.5-0.7,4.5
	c-0.6,3.5-4.4,7.7-9.9,11.3c0.3-55.7-18.8-74.6-35.3-80.5c-14.6-5.2-29.3-3.9-41.5,3.7c-12.9,8.1-21.6,22.2-23.1,37.1
	c-21.1,21.5-35.2,53-37.8,84.7c-2.5,30.4,3.2,55.6,16.4,73.1c7.9,10.4,20.9,17.5,33.9,18.4c15,1.1,29.1-4.1,41.9-15.3
	c15.7-13.8,25.9-33.3,31.8-47.3c7-16.9,11.5-34.8,12.8-51c10.3-4.1,22.1-12.9,27.7-22.2c2.8,0.8,5.8,1,8.8,0.8
	c-18.6,24.6-29,58.3-28.1,74.1c0.3,4.7,1.1,19.1,13.7,23.9c7.1,2.7,17.9,1,25.5-4.1c4.6-3.1,14.8-10.6,24-21.9c4.9,9,14.1,9,17.6,9
	c15.7,0,36.3-14.6,49.7-34.5c4.8,6.5,11.7,10.4,20,11c17.6,1.3,34-10.5,41.8-22c8.2-12.2,14.3-24.5,17.2-44.7c1-0.6,2.3-1.4,3.7-2.4
	c-0.9,7.1-1.3,15-0.8,20.2c0.5,6.3,3.4,12.3,7.8,16.7c4.2,4.1,10,6.3,16.2,6.1c16.9-0.7,40.6-20.4,53.6-39.5
	c6.1,7.7,14.4,11.8,25.3,12.3c16.8,0.8,32.1-9.5,46.7-31.3c2.3-3.4,4.4-7.1,6.6-11.1c0.7,4.8,2.9,9.4,6.1,12.6
	c3.9,3.9,11.8,8.1,21,6.9c15.4-2,27.5-11.8,32.6-25.9c5,4.3,4.9,8.4,4.9,8.6c-0.3,9.2-10,16.2-17.3,20.7
	c-7.8,4.8-18.3,8.7-23.9,10.8c-20.8,7.7-164,58.8-290.3,103.9C155.3,404.4,75.7,432.8,56,439.9l-6.4,2.3l3.9,5.5l2.7,3.8l1.4,2
	l2.5,0.1c38.6,2.1,56.6,6.6,74,18.8l3.6,2.5l3-3.2c19.6-20.4,49.7-34.6,78.8-48.2l10.3-4.8c11.3-5.4,160.6-67.3,249.8-103.1
	c43.4-17.4,77.7-31.2,84.1-34.2c17.8-8.2,36-19.9,36-44.2C600,224.5,591.9,214.4,577,208.5 M80.1,219.2c4-2.7,8.7-3.1,13.5-1.1
	c9.5,3.9,13.7,28,10.7,59.3c-8.5-0.2-15.1-3.1-21.3-9.2c-7.6-7.4-12.3-18-12.3-27.8C70.6,231.2,74.2,223.1,80.1,219.2 M90.1,341
	c-6.6,16-14.4,27.5-21.8,32.5c-5.2,3.5-8.3,4.1-13.8,3c-18.4-3.9-21.2-39.3-18.6-60.7c1.6-13.6,6.9-27.5,14.7-38.8
	c12.9,15.3,29.4,22.1,51.1,21.1C99.8,311.8,95.3,328.6,90.1,341 M308.6,232.3c0.2-5.4,2.8-10.5,6.6-12.8c2.5-1.5,5.6-1.4,8.2,0.4
	c4.3,3,6.4,14.5,3.1,29.1c-6.1,1-10.1-2-13.5-5.5C310,240.6,308.4,236.6,308.6,232.3 M305.5,303.1c-1.3,0.8-2.9,1-3.7,0.9
	c-7-1.5-8.4-17.5-6.3-28.3l0.4-2.3c0.6-3.4,1.3-6.9,2.3-10.2c7.4,4.3,16,6.9,23.9,7.1C318.3,285.6,311.6,299.1,305.5,303.1
	 M427.3,151c0.9-0.8,1.6-1.4,2.1-1.7c0.2,1.6,0,4.3-1,7.5c-4.6,14.8-14.2,34-25.6,48.5C410.3,182.5,422.3,155.9,427.3,151
	 M474.6,192.8c2.1-1.4,4-1.7,4.6-1.6c1,0.9,1.1,3.2,0.5,6.6c-2,11.2-8,18.7-20.8,25.3C461.6,207.3,471.2,195,474.6,192.8
	 M527.1,207.2c3.3-7.1,6.6-14.3,9.7-19.9c2,5.8,4.9,11.8,7.5,16.5c-8.5,0.8-14.5,3.6-18.7,6.6c0.3-0.6,0.6-1.3,0.6-1.3L527.1,207.2
	L527.1,207.2z M545.4,232.1c-1.8,1.9-3.5,3-7.4,3c-2.4,0-4.2-1.1-4.9-3.1c-0.7-1.8-0.6-4.6,2-7.1c2.7-2.6,7.6-3.9,14.1-3.7
	C549.2,225.7,547.9,229.4,545.4,232.1"/>
<path id="Orange" class="st0" d="M43.3,233.1C20.6,255.5,8,287.8,5.7,316c-2.4,29.1,3,53.2,15.4,69.6c7.3,9.7,19.2,15.6,30.2,16.4
	c13.5,1,26.4-3.8,38.1-14.1c25.3-22.1,41.4-66.1,43-98.1c11.4-3.4,26.9-15.2,30.2-25.2c6.5,4.3,15.8,2,24.3,0.4
	c-23.7,23.6-36.9,64.7-35.9,81c0.4,7.5,2.1,16.2,10.5,19.4c5.7,2.2,14.7,0.5,20.8-3.6c9.1-6.1,20.8-16.4,28.9-29.2
	c1.4,14.9,10,15.4,15.6,15.4c14.7,0,37.4-16.3,49.9-39.7c3.8,10.5,11.3,15.6,20.1,16.3c15.3,1.2,30-9.2,37.2-19.8
	c8.6-12.8,14.2-25.1,16.7-44.9c0,0,9.4-5.8,15.9-10.9c-2.3,6.6-3.9,22.9-3.2,31.3c0.5,5.4,2.9,10.2,6.3,13.5
	c3.2,3.1,7.5,4.8,12.4,4.6c16.5-0.6,42.8-23.5,53.7-44.1c6.1,12.4,15.3,16.5,25.6,16.9c15.1,0.7,28.8-9,42.2-29.1
	c6.6-9.8,12.7-23.5,18.1-35.2c6-13.1,12-26.3,17.7-31.8c-0.1,9.1,10.2,28.4,13.9,33.8c-24.4-1.6-33.5,12.8-34,20.6
	c-0.3,5.3,2,10.6,4.8,13.3c3,3,9.4,6.4,16.8,5.5c14.3-1.8,27.2-12.1,30.1-28.9c11,5.5,13.4,13.1,13.2,16.9
	c-0.4,11.7-11.4,19.8-19.7,24.9c-8.3,5.1-19,9.1-24.8,11.2c-20.8,7.7-164,58.8-290.4,103.9C157.8,409,77.5,437.6,57.8,444.8l2.7,3.8
	c41.1,2.2,59.3,7.5,76.7,19.7c22.7-23.7,59-39.2,90.6-54.2c12.1-5.7,162.2-67.9,250.1-103.2c43.3-17.4,77.5-31.2,83.9-34.1
	c17.2-7.9,33.1-18.2,33.1-39.5c0-13.8-11.9-21.4-23.1-25.1c1.7-7.1-8.6-26.8-13.1-35.1c-1.4-2.6-2.5-4.7-3.1-6.1
	c-2.2-4.7-2.6-10-1.2-15.2L533,161c-4.5,5.2-9.9,16.7-14.5,27c-3.8,8.6-9.9,20.6-15,30.8c-11.6,22.9-20.8,35.7-33.8,36.2
	c-7.9,0.3-11.9-3.9-16.2-12.4c14.9-5.9,25.7-14.5,32.6-23.5c8.8-11.5,11.2-24.7,8.5-34.2c-2.6-9.2-12.1-15.9-21.8-13.4
	c-10.6,2.8-20.5,11.3-27.9,23.6c-6.9,11.4-13.6,29.4-12.1,46.8c-5.7,8.5-17.6,24.1-26.6,29.8c-5.2,3.3-10.6,5-13.9,3.3
	c-3-1.6-4.8-4-5.5-8.6c-1-6.9,0.4-15.8,3.2-28.7c35.5-27.1,51.8-57.5,55-87.4c0.7-6.8-0.3-14-5.8-18.5c-3-2.5-9.7-1.8-12.7-0.6
	c-21.1,8-42.6,49-50.8,76c-3.5,11.3-5.6,19.7-7.6,28.7c0,0-12.3,9.9-16.6,10.9c0-13.6-2.8-20.9-5.8-27.7c-4.4-9.9-11-13.4-16.8-15.6
	c-9.4-3.4-19.9-1-28.7,5.1c-6.4,4.5-12.9,13.1-11.4,24.8c-8.1,9.7-15.1,27.3-16.2,41c-0.7,8.5-0.7,17.1,0.7,24
	c-4.2,7.9-16.3,24.6-26,26c-3.6,0.5-7.1,0.1-9-2.3c-2-2.5-2.4-6-1.4-10.3c3.8-15.5,20.6-64.8,30.4-90.4c-2.8,0.8-21.1,6.7-24.2,7.6
	c-8.5,21.1-22.6,65.2-30.6,87.1c-6.3,10.9-17.5,21.1-23.8,24.7c-5.2,3.1-12.2,3.3-12.1-7.9c0.1-25,21.6-60.8,36.7-76.2
	c2.1-2.1,1.3-5.1,0.1-6.3c-2.4-2.3-7.8-8.4-9.8-11.7c-0.3-0.5-0.8-1.1-1.6-1.2c-0.9-0.2-2.1,0.3-3.2,1.3c-8.7,7.3-19.5,9.1-34,5.8
	c-8.3-1.9-9,0.7-9.7,3.2c-0.7,2.5-1.3,9-1.9,12.1c-1.5,8.2-11.8,15.4-20.3,19.1c1.9-47.3-9.6-76.4-31.7-84.3
	c-12.9-4.7-26-3.7-37,3.2C52.6,205.4,44.1,218.7,43.3,233.1 M255.7,216.5c7.2,0,15-6.7,17.4-14.9c2.4-8.2-1.5-14.9-8.7-14.9
	c-7.2,0-15,6.7-17.4,14.9C244.6,209.9,248.5,216.5,255.7,216.5 M423.8,147.3c10.2-9.7,12.7,0.9,9.6,11c-7,22.6-23.6,51.3-40.9,64.9
	C397.1,201.1,415.6,155.2,423.8,147.3 M50.6,268.4c13.8,19.7,31.5,26.8,57.1,24c-1.4,15.2-6.6,35.7-12.8,50.5
	c-5,12-13.1,27.7-23.7,34.8c-6.5,4.3-11,5.2-17.7,3.7c-22-4.6-25.6-41.8-22.6-66.3C32.9,298.5,40,281.4,50.6,268.4 M108.9,282.3
	c-13.2,0.9-22.1-3.2-29.5-10.5c-8.6-8.3-13.9-20.3-13.9-31.4c0-10.9,4.5-20.7,11.8-25.5c5.5-3.7,12-4.2,18.3-1.6
	C110.9,219.7,112.1,254.8,108.9,282.3 M328.6,264.7c-3.3,17.4-11.1,36.7-20.3,42.7c-2.3,1.5-5.3,2.1-7.5,1.6
	c-11.6-2.4-12.6-22.3-10.3-34.3c1.2-6.3,2.2-13.3,5.3-19.3C306.1,263.4,319.4,266.4,328.6,264.7 M330.7,253.3
	c-10.4,3.4-17-1.6-21.4-6.2c-3.9-4-5.9-9.3-5.8-15c0.2-7.1,3.8-13.8,9-17c4.1-2.5,9.4-2.5,13.8,0.6
	C333.7,221.1,334.9,237.3,330.7,253.3 M453,231.3c0-20.5,12.9-39,18.8-42.9c3.4-2.2,8-3.5,10.6-1.4c2.8,2.3,3.4,6.1,2.4,11.6
	C482,214.1,472.4,223.4,453,231.3 M553.9,216.4c1.5,9.2-1.2,15.4-4.7,19.2c-2.9,3.2-6.2,4.6-11.2,4.6c-10,0-14.2-11.6-6.5-18.9
	C536.1,216.8,544.1,215.4,553.9,216.4"/>
</svg>
