<svg version="1.1" id="Layer_1" xmlns="http://www.w3.org/2000/svg" xmlns:xlink="http://www.w3.org/1999/xlink" x="0px" y="0px"
	 viewBox="0 0 600 600" style="enable-background:new 0 0 600 600;" xml:space="preserve">
<style type="text/css">
	.st0{fill:#FFFFFF;}
	.st1{fill-rule:evenodd;clip-rule:evenodd;fill:#51407F;}
	.st2{fill-rule:evenodd;clip-rule:evenodd;}
	.st3{fill-rule:evenodd;clip-rule:evenodd;fill:#BEC1C8;}
</style>
<path class="st0" d="M0,489.4h24.7v15.4h551v-14.7H600l-0.4-167.5c0,0-16.6-0.3-21.6-0.4c-3.1-17.4-10.5-42-23.8-68
	c-20.2-39.8-48.5-73.4-83.9-99.7c-47.6-37.4-104.4-57.4-168.8-59.4l-0.4,0l0,0l-0.4,0c-87.7,3.1-125,27.2-161.2,50.5
	c-1.6,1-3.1,2-4.7,3l-0.2,0.1l-0.2,0.1c-22.9,16.2-43.1,35.9-60,58.5c-13.5,18-25,38-34.1,59.3c-10.1,23.6-15.1,43.5-17.3,54.9H2.3
	L0,489.4z"/>
<path id="Purple" class="st1" d="M489,360.6l-38.6-51.3l-15.4,2.3l-15-25.9l-77.1-69.5L300,176.9l-52.1,66.4l-28.9-8.9l-48.2,76.8
	l-13.1-2.3l-5.8,10l-9.6-1.2L121.4,361h49l136.9-104.2L192.4,360.6h8.5l108.8-77.9L222.1,361h9.6l89.5-59.8L253,360.6l9.6,0.4
	l80.2-47.5L283,360.6l9.3,0.8l78.3-42.1l-57.5,41.3H489z M332.6,236.4l-7.9-5.1l-8.9,8.1l-4.6-20.1L300,232.9l-5.8-8.5L247.9,263
	l-9.3-7.7L214.4,285l-4.2-3.9l-20.8,20.8l33.5-55.2l28.9,7.7l47.8-62.5l34.5,40.2L332.6,236.4z M412.8,292.6l10.2,19
	c0,0-6.2-4.6-8.1-5.8c-1.9-1.2-9.2-9-9.2-9L412.8,292.6z"/>
<path id="Black" class="st2" d="M475.3,342.4h112.8V334c0,0-20.1-0.4-20.1,0c-2.7-29.6-26.6-112.3-104.7-170.2
	c-40-31.4-93.1-54.9-162.2-57.1c-88.3,3.1-123.4,28.2-160,51.7c-96,67.9-108.4,174.8-108.4,174.8H13.9v8.9h116.7l4.2-8.5h-24.9
	c0,0,21.2-134.3,178.6-150.9c-0.4,0.4,12.3-13.9,12.3-13.9l13.9,13.9c0,0,21.2,2.3,35.1,6.6c13.9,4.2,27,10,27,10
	s-45.9,4.3-47.8,53.2c3.4,42.6,39.7,50.2,49.8,50.2c10,0,49.4-1.2,54.4-50.2c0-11.2-2.7-18.1-2.7-18.1s19.7,14.3,37.4,43.2
	c17.7,28.9,22,55.6,22,55.6h-21.3L475.3,342.4z M389.1,375.8v-6.9h40.7v7.9c0,0-7.3-1.5-9.4,3.5c-2.1,5-1.5,33.4-1.5,33.4
	s-0.6,27.6,0.4,29.9c1,2.3,1.7,7.5,6,8.1c4.2,0.6,4.8,1.3,4.8,1.3v6.2h-40.7v-6.7c0,0,6.2-0.4,8.1-3.7c1.9-3.3,1.5-6.6,1.5-6.6
	v-29.5l-0.4-28.2c0,0,0.6-3.3-1.3-5.2C395.3,377.4,392.6,375.8,389.1,375.8L389.1,375.8z M165.8,366c25.1,0,43.4,17,43.4,47.6
	s-18.3,46.7-45.7,48.2c-27-1.5-42-18.3-42-48.6C121.4,383,141.5,367.5,165.8,366L165.8,366z M142.7,415.9c3.5,37.2,18.5,38,26,38
	s23.5-11.2,18.7-44.9c-4.8-33.8-18.7-35.1-25.6-35.1C156.2,374.7,139.2,378.7,142.7,415.9z M78.1,451.1v7.7H28.3v-7.5
	c0,0,10.2-0.8,12-5.2c1.7-4.4,1.3-5.8,1.3-5.8v-68.7c0-4.1-3.7-6.4-7.1-7.3c-3.5-1-6-1-6-1v-8.1c0,0,5.6,0.4,12,0s17.7-1.5,28.9-1.5
	c11.2,0,46.3,0.2,46.3,28.7C117,404.6,95.2,410,95.2,410s-0.6,2.5,1.5,3.7c2.1,1.2,2.7,2.3,2.7,2.3s7.9,14.3,9.1,16.4
	c1.2,2.1,6.2,13.3,9.1,15.4c2.9,2.1,10.2,3.5,10.2,3.5v7.7H97.7l-25.8-42.6c0,0-2.9-1.2-4-1.2c-1.2,0-3.1,0.6-3.1,0.6l-0.4,23.7
	c0,0-0.6,6.4,2.5,8.9C70,450.9,78.1,451.1,78.1,451.1L78.1,451.1z M73.6,406.1c3.1-0.4,17.5-3.9,16.2-23.3
	c0-20.3-14.8-21.4-20.1-21.4c-5.2,0-5.4,0.8-5.4,0.8v44.4C64.4,406.5,70.5,406.5,73.6,406.1z M11.5,469h576.9v9.6h-24.3v14.7H36.2
	v-15.4H11.5V469z M215.5,415c0-27,17-48.4,48.4-48.4c12,0,19.5,4.4,19.5,4.4s4.4-2.9,5.6-2.9c1.2,0,1.2,1.5,1.2,1.5l1.2,29.5h-5.4
	c0,0-4.6-24.1-23.3-24.1c-18.7,0-26.4,19.9-26.4,39.5c0,19.7,10.8,38.6,27,38.6c16.2,0,25.5-21.4,25.5-21.4s0.6-1.4,1.9-1.4
	c1.3,0,3.1,0.6,3.1,0.6l0.2,1.9l-6.9,27.6c0,0-6.9-0.8-10-0.8c-3.1,0-20.1,1.9-22.8,1.9C251.4,461.7,215.5,457.8,215.5,415
	L215.5,415z M295.6,375.8l0.4-6.9h40.7v7.1c0,0-9.1-0.2-9.6,4.8c-0.6,5-0.8,28.7-0.8,28.7l24.9-28.2c0,0,1.2-1.3,0.8-2.7
	c0-2.5-4.2-3.1-4.2-3.1v-6.9h33.2v7.5c0,0-9.8-0.4-13.7,2.9c-5.4,2.7-23.1,24.3-23.1,24.3s7.7,9.6,12.2,16.2
	c4.4,6.6,15.6,24.9,17.4,26.2c1.7,1.4,2.5,4.2,7.1,5.6c4.6,1.3,5.4,0.8,5.4,0.8v7.1h-43.6v-7.5c0,0,6.9,0.8,6.9-2.5
	c0-3.3-2.7-9.8-7.5-15.4c-4.8-5.6-11.8-15-15-15.4c-0.2,3.5,0,26.6,0,26.6s0.4,3.9,3.3,5.8c2.9,1.9,6.8,1.4,6.8,1.4v7.1h-41.1v-6.9
	c0,0,8.7,0,9.4-5.2c0.8-5.2,0.8-6.4,0.8-6.4v-57.5c0,0,0-4.6-3.7-6C298.7,376,295.6,375.8,295.6,375.8L295.6,375.8z M436.3,376.4
	v-7.3h67.5l1.4,21.8h-6.4c0,0,1.7-12.1-6.9-12.1h-24.3V409c0,0,6.8,0.8,9.3,0.8c2.5,0,10.2-1,10.6-4.2c0.4-3.3,1.7-6.9,1.7-6.9h4.6
	v30.7h-5c0,0-0.7-8.9-5.8-9.8c-4.4-0.8-6.4-1-8.1-1c-1.7,0-7.1,1.2-7.1,1.2v26.8c0,0,1,3.5,5,3.5h18.3c1.4,0,6.4-1.2,7.7-3.3
	c1.3-2.1,4.8-11.8,4.8-11.8h5.6l-2.1,24.5h-71.9v-7.5c0,0,7.3,0.6,9.8-1.3c2.5-1.9,3.1-2.7,3.1-2.7l-0.4-62.1c0,0,0.6-6-3.7-8.1
	C439.8,375.4,436.3,376.4,436.3,376.4L436.3,376.4z M539.3,353.6c13.3,0,21.4,3.3,21.4,3.3s1.4,0.6,2.1,0c0.8-0.6,2.5-2.3,2.5-2.3
	h3.9l1.7,30.5l-6.7-0.6c0,0-3.1-22-22.8-22c-15.6,1.9-11.8,16.4-6.8,18.9c10.6,11.2,40.5,21.4,40.5,49c0,27.6-25.1,32.2-30.7,32.2
	s-20.8-4.1-22.9-4.2c-2.1-0.2-3.9,2.9-3.9,2.9h-3.3l-3.5-32.6l5.6-0.2c0,0,4.6,12,7.7,14.9c3.1,2.9,6.6,9.6,16.6,9.6
	c10,0,13.5-8.3,13.5-15.6c0-7.3-12.3-17.4-17-20.3c-4.6-2.9-25.5-11.8-25.5-34.7C511.9,359.4,526,353.6,539.3,353.6z"/>
<path id="Letters_Gray" class="st3" d="M47.4,362.3h11v88.5h-11L47.4,362.3z M88.9,362.3c0,0,19.7,2.3,19.7,21
	c0,18.7-19.3,22.4-19.3,22.4s6-5.4,6-22.6S88.9,362.3,88.9,362.3L88.9,362.3z M77.3,415.9c0,0,6.2-2.1,8.1-2.1h5
	c0,0,5.6,5.6,6.9,8.5c1.4,2.9,16.2,28,16.2,28H97.3L77.3,415.9z M144.4,377.6c0,0-8.5,12.5-6.9,34.9c0,24.5,11,38,11,38
	s-22.4,0.2-22.4-35.5C126.5,385.1,144.4,377.6,144.4,377.6L144.4,377.6z M181.8,375.6c0,0,22.6,5.4,22.6,35.3s-17,38.8-17,38.8
	s5.4-7.1,5.4-38C190.3,385.1,181.8,375.6,181.8,375.6L181.8,375.6z M231.4,415c0,21,11,34.9,11,34.9s-22.4-3.7-22.4-34
	c0-30.3,19.7-37.4,19.7-37.4s1.2,0.4,0.4,1.9C239.3,382,231.4,394,231.4,415z M404.2,376.3h10.2v74.9h-10.2V376.3z M452.8,375.9H463
	v76h-10.2V375.9z M522.7,369.3c0,0-0.4,7.7,5.8,14.3c9.6,13.1,40.7,21,40.7,44.9c-1.4,17.6-9.8,21.6-9.8,21.6s1-3.7,1-13.3
	c0-13.1-19.5-23.9-19.5-23.9s-23.1-13.1-23.1-28.9C517.7,370.8,522.7,369.3,522.7,369.3L522.7,369.3z M310.9,375.9h10.2v75.4h-10.2
	V375.9z M332.8,415.8l7.3-7.7c0,0,7.1,6.6,14.1,17.4c6.9,10.8,16.2,25.5,16.2,25.5h-15c0,0,0.6-6.2-6.6-14.9
	C342.4,426.4,332.8,415.8,332.8,415.8L332.8,415.8z"/>
<path id="Stitches" class="st0" d="M162.3,317.8l9.6,1.9l-17.7,10.4L162.3,317.8z M361.3,281.7c0,0-2.3-0.2-2.1-1.9
	c0.2-1.7,2.9-2.1,2.9-2.1l3.1-0.4c0,0,0.8-1,1-1.9c0.2-1-2.7-0.8-2.7-0.8s-2.9-0.4-2.1-2.5c0.8-2.1,5.6-1,5.6-1s0.6,0,1.9-1.2
	c1.4-1.2-0.8-1.4-1.5-1.4c-0.8,0-2.1-1.5-2.1-1.5s0-2.5,1-2.9c1-0.4,3.9,0.6,3.9,0.6l1.9-0.6l0.6-1.5l-3.1-1.7c0,0,0.4-2.1,1.2-2.9
	c0.8-0.8,4.6,1.5,4.6,1.5l3.1-1.9l-2.7-1.9c0,0-1.2-1.2-0.6-2.3c0.6-1.2,2.3-0.2,3.1,0.4c0.8,0.6,3.5,1,3.5,1l1.5-1.2l-1.4-1.9
	c0,0-1.9-1.5-0.6-3.1c1.4-1.5,5.2,2.5,5.2,2.5l1.9-0.6c0,0,1.4-0.4,1.4-1.4c0-1-1.4-1.7-2.7-2.5c-1.3-0.8,0.8-2.3,1.7-2.3
	c1,0,5.2,3.5,5.2,3.5l2.3-1l-1.5-3.1c0,0-0.2-1.3,1-2.3c1.2-1,2.3,1.9,2.3,1.9s1.9,2.5,4,2.5c2.1,0,0.2-3.1,0.2-3.1
	s-1.3-0.8,0.6-2.5c1.9-1.7,4.4,4.4,4.4,4.4l2.7,0.2l0.2-3.5c0,0-0.8-2.1,1.4-2.1c2.1,0,3.3,5.2,3.3,5.2h3.3l-1-3.5
	c0,0,0.2-1.2,1.7-1.2c1.5,0,3.5,5.8,3.5,5.8l2.7-0.4c0,0,3.9-14.3-17-30.1c-8.9-7.7-25.8-8.5-25.8-8.5h0c0,0,0.2,1.4,1,1.7
	c0.8,0.4,3.5,0.2,3.5,0.2s0,1.7-0.2,2.5c-0.2,0.8-2.9,0.8-4.2,0.8c-1.3,0-2.9,0-2.9,1.4c0,1.4,1.9,1.7,2.7,1.7
	c0.8,0,1.5,1.4,1.5,1.4l-1.4,2.3l-3.9-0.2c0,0-2.7-0.6-2.9,1.2c-0.2,1.7,1,1,2.5,1.9c1.5,1,1.9,2.7,0.8,3.1
	c-1.2,0.4-1.3,0.2-2.7-0.4c-1.3-0.6-2.3,0-3.3,0c-1,0-1.2,2.1-1.2,2.1l1.7,0.8c0,0,1.4,0.6,1.4,2.3c0,1.7-3.1,1-4.6,0.2
	c-1.5-0.8-3.3-0.2-3.3-0.2l-0.8,2.1c0,0,1.3,0,2.3,1.4c1,1.3-0.6,3.1-1.5,3.1c-1,0-2.9-2.3-2.9-2.3s-1.2-1.4-2.9,0
	c-1.7,1.3,0,1.9,0.6,2.9c0.6,1,0.4,2.1,0.4,2.1s-0.8,1.2-1.7,1.2c-1,0-4-3.3-4-3.3l-2.9,1l1.9,3.3c0,0,0.4,1.5-0.4,1.9
	c-0.8,0.4-2.1-0.4-2.9-1.2c-0.8-0.8-2.3-2.7-2.3-2.7l-2.9,1.2c0,0,0.8,1.2,1.2,1.9c0.4,0.8,0.6,2.3,0.6,2.3s-1.5,1.2-2.7,1.2
	s-2.9-4.8-3.9-4.8c-1,0-1.9,0.8-1.9,0.8l0.4,2.3c0,0,0.4,2.9-0.8,2.9c-1.2,0-1.3-0.2-2.7-2.1c-1.3-1.9-1.9,0.4-1.9,0.4
	s-0.2,5.2,0.2,9.8c0,26.8,25.8,37.2,25.8,37.2s1.7,0.2,2.1-1.5c0.4-1.7-4-1.4-4-1.4s-1.2-0.8-1.2-2.3c0-1.5,2.5-1.5,2.5-1.5
	s3.1-0.2,3.7-2.1C364.6,281.1,361.3,281.7,361.3,281.7z M445,320.1l-11.2,2.7l18.9,7.7L445,320.1z M425.7,248.9
	c-1.2-0.4-2.1,1.5-2.1,1.5s-1.7,2.5-3.1,2.1c-1.4-0.4-1.5-2.1-1.5-2.1s2.5-3.3,0.4-3.5c-2.1-0.2-3.1,4.8-3.1,4.8s-1.4,0.4-2.9,0
	c-1.5-0.4-0.2-2.3,0-3.5c0.2-1.2-0.4-1.2-0.4-1.2s-1.9,0.2-2.5,1c-0.6,0.8-1.2,3.3-1.2,3.3s-1.3,0.6-2.3,0.4c-1-0.2-0.2-4.2-0.2-4.2
	h-2.1l-1.5,4.4c0,0-1,1-1.7,1.4c-0.8,0.4-1.7-1.4-1.7-1.4s1.2-3.9-0.2-3.7c-1.3,0.2-1.9,1.9-1.9,3.5c0,1.5-1.2,3.3-2.1,3.5
	c-1,0.2-1-2.1-1-2.1s-0.8-2.5-1.9-2.5c-1.2,0-0.4,0.6-1,1.7c-0.6,1.2,0.2,2.7,0.2,2.7s-0.2,0.6-0.4,1.5c-0.2,1-2.5,1-2.7,0.4
	c-0.2-0.6-0.2-2.5-0.4-3.7c-0.2-1.2-1.7,0.8-1.7,0.8s-0.8,0.6-0.8,1.9c0,1.4,0.8,2.7,0.8,2.7s-0.6,1.7-1.3,2.7
	c-0.8,1-1.7-1.2-2.1-1.9c-0.4-0.8-0.4-2.3-1.9-1.5c-1.5,0.8-0.2,2.5-0.2,2.5s0.6,1.9,0.6,3.7s-2.1,1-2.1,1s-1.9-3.1-2.9-3.1
	c-1,0-1.2,1.5-1.2,1.5s1.5,2.5,2.1,3.7c0.6,1.2-0.8,2.9-1.9,2.9s-2.3-2.9-2.3-2.9s-1.4-0.2-1.7,1c-0.4,1.2,1.3,2.9,1.3,2.9
	s1,1.2,1.2,2.5c0.2,1.4-1.5,2.1-1.5,2.1s-1.2-2.5-2.7-2.5c-1.5,0-1.2,2.1-1.2,2.1l3.1,2.9c0,0,0.2,0.8,0.2,1.7c0,1-1.5,1.4-1.5,1.4
	l-3.1-2.1c0,0-1,0-1,1.5c0,1.5,3.1,2.7,3.1,2.7v4.1l-2.5-1.2c0,0-1.7-1.5-2.1,0.6c-0.4,2.1,2.3,2.1,2.3,2.1l2.5,1.5
	c0,0,0.2,2.1-0.2,2.9c-0.4,0.8-4.4-1.2-4.4-1.2l-0.4,1.4l0,0c0,0,23.1,9.5,42.2-5.2c17.9-12.2,20.1-31.1,20.1-32
	c0-1-2.3-4.1-2.3-4.1S426.9,249.2,425.7,248.9z M339.1,238.3L339.1,238.3c0.8-1,0.2-3.1,0.2-3.1s1-1.7,1.9-1.7c1,0,1.5,0.4,1.9,1.4
	c0.4,1-0.2,3.5-0.2,3.5l2.7-0.6l0.6-4.1c0,0,0-1.7,1.4-2.3c1.4-0.6,1.7,2.5,1.7,2.5s-1.2,3.1,1.4,3.1c2.5,0,1.4-4.6,1.4-4.6
	s0.2-2.1,1.5-2.9c1.3-0.8,1.2,3.3,1.2,3.3s0.4,1.4,2.1,1.4c1.7,0,1-3.7,1-3.7s-0.8-2.1,0.4-3.5c1.2-1.4,2.3,1.4,2.3,1.4
	s0.4,3.5,2.5,2.1c2.1-1.4-0.4-3.9-0.4-4.8c0-1,2.1-3.1,2.1-3.1s1,4.1,3.1,3.9c2.1-0.2-0.6-4.4-0.6-4.4s-0.6-1.9,0.6-3.1
	c1.2-1.2,2.1,1,2.1,1s1.2,2.5,2.5,1.2c1.3-1.4-1.5-3.9-1.5-3.9s-1.2-2.1,0.4-3.7c1.5-1.5,1.5,0.8,1.5,0.8s1.9,2.1,3.3,0.8
	c1.4-1.3-1.9-3.3-1.9-3.3l-0.6-1.7l1.3-2.9c0,0-7.9,0.4-20.2,7.5c-12.3,7.1-18.5,23.9-18.5,23.9l1,0.6
	C337.2,239,338.4,239.2,339.1,238.3z"/>
<path id="Colorado" class="st3" d="M529.5,261.2c-6.2-11-20.6-15.6-33.2-8.9c-16.2,12-10.4,25.9-6,34.9c4.4,9.1,20.1,20.1,34.9,10.2
	C540.1,287.7,535.6,272.2,529.5,261.2z M519.6,287.3c-14.9,11-25.8,2.1-27.2-1.7c-1.4-3.9-5.8-15.2,9.8-23.7
	c15.6-8.5,23.3-0.6,25.1,2.3v0C529.1,267,534.5,276.3,519.6,287.3z M479.7,195.4c-3.3-3.3-14.7-13.3-14.7-13.3l-1.9,1.2
	c0,0,1.5,2.1,1.5,3.1c0,1,0.4,3.7-1,5.2S440.4,213,440.4,213s-1.9,0.2-2.7,0c-0.8-0.2-3.7-2.5-3.7-2.5l-1.5,2.1c0,0,4.8,4.2,6.6,6
	c1.7,1.7,4.8,5.2,6.9,7.5c2.1,2.3,23.5,25.1,40.7,7.9C503.8,216.9,483,198.7,479.7,195.4z M484.9,214.5
	c-1.2,9.5-10.6,19.7-21.4,18.1s-15.4-8.9-15.4-8.9s-2.3-1.5,0-4.6v0l23.3-21.6c0,0,1.7-2.9,3.9-1
	C477.4,198.5,486.1,205.1,484.9,214.5z M413.8,196.8c-1.2-1.4-1.4-2.7-1.5-3.7c-0.2-1,3.7-41.9,3.7-41.9l-8.3-5
	c0,0-26.4,25.3-30.5,28.7c-4,3.5-7.1,0.6-7.1,0.6l-1.5,2.3l17,7.7l0.8-2.3c0,0-3.1-1.5-4.2-2.9c-1.2-1.4,0.6-3.7,0.6-3.7l7.9-7.1
	l13.3,7.1c0,0-0.2,7.9-0.6,11c-0.4,3.1-3.7,2.1-3.7,2.1l-3.7-1.9l-1.2,2.5l20.4,9.1l0.4-1.4C415.5,198.1,414.9,198.1,413.8,196.8z
	 M404.1,171.5l-10.4-5l11-10.2L404.1,171.5z M351.5,170.2c-1.9-1.2-5.6-3.7-8.1-10.6c-3.1-5.6-5.6-9.8-5.6-9.8s10.8-1.7,11.8-9.8
	c1-8.1-4.5-13.1-13.7-15c-10-2.1-16.2-2.1-16.2-2.1l-11.6-1l-1,2.1l6.2,2.9c0,0-3.3,34.1-3.7,35.1c-0.4,1-3.9,2.1-5,2.1
	c-1.2,0-2.7-0.2-2.7-0.2l-0.2,1.9L326,169l0.4-2.1l-3.9-1.2c0,0-3.1,0-2.7-4.4c0.4-4.4,1.7-11.4,1.7-11.4l4.4,0.6
	c0,0,0.8,0.6,1.5,1.9c0.8,1.4,7.3,15,7.3,15s2.7,3.5,6.6,4.1c3.9,0.6,11.6,1.2,11.6,1.2S353.4,171.3,351.5,170.2z M328.7,147.6
	c-6.6-0.4-6.6-1.2-6.6-1.2l2.5-19.3c0,0,2.9-0.4,5.8,0.4c2.9,0.8,10,3.7,8.7,10.2C337.8,144.3,335.3,148,328.7,147.6z M277.4,136.6
	c-5-12.2-24.9-13.5-35.3-8.1c-12,6.2-16.8,18.9-13.3,29.7c3.5,10.8,20.1,18.5,36.1,11.2C280.9,162.1,282.5,148.8,277.4,136.6z
	 M262,167.5c-7.7,2.5-18.5,1.5-23.5-15.8c-3.7-15.4,3.7-20.6,9.3-22.2c5.6-1.5,15.8,0.8,20.2,12.9C272.4,154.5,269.7,165,262,167.5z
	 M146.5,194.9c-10.2-7.9-23.5-5.8-34.5,6.9c-9.8,14.5-6,28.4,2.9,34.9c11.8,7.1,24.7,5.4,34.9-7.1C160,217,156.7,202.8,146.5,194.9z
	 M146.9,228.2c-7.3,7.5-17.4,6-25.5-0.6c-8.1-6.6-12.5-14.9-6.7-23.9c3.8-5.9,13.1-8.5,23.7-1.7C149,208.8,154.2,220.7,146.9,228.2z
	 M214.4,182.9L180.7,202l-1-2.5c0,0,5-2.1,3.7-5.8c-1.3-3.7-14.8-27.4-14.8-27.4s-1-2.5-2.9-2.5c-1.9,0-3.9,1.2-3.9,1.2l-1.9-1.7
	l21-11.2l0.8,1.7c0,0-2.7,1.2-3.5,2.7c-0.8,1.5-1.3,2.3-1.3,2.3l16.8,31.4l12.7-7.1c0,0,3.1-2.1,3.3-3.7c0.2-1.5,1.3-8.3,1.3-8.3
	l1.5,0.4L214.4,182.9z M78.6,298.3c-11.1-3.9-16.2-19.5-10-33.8c5.4-10,7.7-9.8,9.3-11.6c0.2-1.4,0-2.1,0.4-3.1
	c0.4-1,11.4,4.6,11.4,4.6l-1,1.4c0,0-1,0.2-2.7,0.2c-1.7,0-8.1-1.4-13.9,9.5c-5.8,10.8,4.6,20.1,10.2,22.8
	c5.6,2.7,20.3,6.6,26.6-7.9c3.6-8.3-0.4-13.9-0.4-13.9l-2.3-3.3l1.3-2.5l8.9,8.3c0,0-1.9,3.1-2.3,4.6c-0.4,1.5-2.5,9.8-3.5,11.6
	C109.7,286.9,99.9,306,78.6,298.3L78.6,298.3z"/>
</svg>
