<svg version="1.1" id="Layer_1" xmlns="http://www.w3.org/2000/svg" xmlns:xlink="http://www.w3.org/1999/xlink" x="0px" y="0px"
	 viewBox="0 0 600 600" style="enable-background:new 0 0 600 600;" xml:space="preserve">
<style type="text/css">
	.st0{fill:#FFC52F;}
	.st1{fill:#12284B;}
	.st2{fill:#003EA0;}
	.st3{fill:#FFFFFF;}
</style>
<path id="Yellow_Circle" class="st0" d="M300,0C134.7,0,0,134.7,0,300s134.7,300,300,300s300-134.7,300-300S465.3,0,300,0"/>
<path id="Blue_Circle" class="st1" d="M300,13.9C142.4,13.9,13.9,142.4,13.9,300S142.4,586.1,300,586.1S586.1,457.6,586.1,300
	S457.6,13.9,300,13.9"/>
<path id="Light_Blue_Ring" class="st2" d="M300,572.9C149.3,572.9,27.1,450.7,27.1,300S149.3,27.1,300,27.1S572.9,149.3,572.9,300
	S450.7,572.9,300,572.9 M300,34C153.5,34,34,153.5,34,300s119.4,266,266,266s266-119.4,266-266S446.5,34,300,34"/>
<path id="Glove_Yellow" class="st0" d="M434.7,240.3v40.3c0,33.3-5.6,53.5-31.9,109.7C375,448.6,341,466,300,466
	c-27.1,0-52.1-9-72.2-25l0,0l-4.9-4.2l-0.7-0.7c-5.6-4.9-10.4-10.4-15.3-16.7c-0.7-0.7-0.7-0.7-1.4-1.4l0,0c0-0.7-0.7-0.7-0.7-1.4
	c-2.8-3.5-4.9-6.9-6.9-10.4c0-0.7-0.7-0.7-0.7-1.4c-6.9-11.8-11.1-24.3-14.6-34c-1.4-2.8-2.1-5.6-2.8-8.3
	c-7.6-20.1-22.9-58.3-29.9-77.8c-7.6-20.8-9-34.7-4.2-48.6c4.9-14.6,16.7-25.7,32.6-38.9s29.2-23.6,47.9-36.8
	c11.8-8.3,24.3-13.2,36.1-13.2c4.9,0,9.7,0.7,14.6,2.1c0.7,0,1.4,0.7,2.8,1.4c4.2,1.4,7.6,3.5,10.4,6.2l0.7-0.7
	c8.3-4.9,18.1-7.6,27.8-7.6c7.6,0,15.3,1.4,21.5,4.9c1.4,0.7,2.1,1.4,3.5,1.4c0.7,0,0.7,0.7,1.4,0.7c4.9,2.8,9.7,6.2,13.2,9.7
	c5.6-2.1,11.1-2.8,16.7-2.8c8.3,0,15.3,2.1,22.2,6.2l1.4,0.7c2.8,2.1,4.9,2.8,6.9,4.9C425,188.2,434.7,202.1,434.7,240.3"/>
<path id="Glove_Blue" class="st1" d="M399.3,185.4c-2.8-2.1-4.2-2.8-8.3-5.6c-8.3-5.6-18.8-6.9-34,0c-0.7,0-1.4,0.7-2.8,0.7
	c-3.5-6.9-9-11.1-13.9-13.9c-2.1-1.4-2.8-1.4-4.9-2.1c-10.4-4.9-25-5.6-38.2,2.8c-2.8,1.4-6.2,3.5-9.7,5.6
	c-3.5-5.6-7.6-8.3-12.5-10.4c-1.4-0.7-2.1-0.7-2.8-0.7c-9.7-3.5-25-1.4-39.6,9c-17.4,12.5-30.6,22.9-47.2,36.8
	c-30.6,25-37.5,39.6-25,73.6c6.9,18.8,21.5,56.2,29.9,77.8c4.9,12.5,9.7,28.5,18.8,43.8l0,0c0.7,1.4,1.4,2.8,2.8,4.2
	c0,0.7,0.7,0.7,0.7,1.4c4.2,6.3,9,12.5,14.6,18.1c0.7,0.7,0.7,0.7,1.4,1.4l0.7,0.7l0,0c18.8,16.7,43.1,27.1,70.1,27.1
	c50,0,91-41,91-91l0,0c0-47.9-38.9-86.8-86.8-86.8c-25.7,0-52.1,15.3-67.4,38.9c-6.3-16-20.8-50.7-31.2-76.4
	c-5.6-13.9-4.2-20.8,4.2-29.2c4.2-4.2,9.7-8.3,16-12.5c6.2-4.2,13.2-1.4,13.2,6.2v85.4c13.9-13.9,31.2-23.6,52.8-27.1v-70.8
	c1.4-0.7,2.8-2.1,4.2-2.8c5.6-3.5,9.7,0.7,9.7,5.6v66c0.7,0,0.7,0,1.4,0c18.8,0,36.1,4.9,50.7,13.9v-74.3c1.4-0.7,2.8-1.4,3.5-1.4
	c5.6-2.1,9.7,1.4,9.7,6.2s-0.7,78.5-0.7,78.5c20.8,16.7,34,42.4,36.1,70.1c9.7-20.8,16.7-40.3,16.7-73.6v-40.3
	C422.9,206.9,415.3,196.5,399.3,185.4 M303.5,311.8c29.2,0,52.1,23.6,52.1,52.1c0,29.2-23.6,52.1-52.1,52.1
	c-29.2,0-52.1-23.6-52.1-52.1S275,311.8,303.5,311.8"/>
<path id="Ball" class="st3" d="M263.9,363.9c0-9.7,3.5-18.1,9-25c11.1,14.6,11.1,35.4,0,50C267.4,382.6,263.9,373.6,263.9,363.9
	 M279.9,395.8c14.6-18.8,14.6-45.1,0-63.2c6.9-4.9,14.6-7.6,23.6-7.6c9,0,17.4,2.8,23.6,7.6c-14.6,18.8-14.6,45.1,0,63.2
	c-6.9,4.9-14.6,8.3-23.6,8.3C294.4,404.2,286.1,400.7,279.9,395.8 M334.7,389.6c-11.1-14.6-11.1-35.4,0-50c5.6,6.9,9,15.3,9,25
	C343.1,373.6,340.3,382.6,334.7,389.6"/>
<path id="White_Letters" class="st3" d="M108.3,216.7H93.1l21.5,9.7l-4.2,9l-6.2-2.8l1.4-2.1l-28.5-13.2l-0.7,2.1l-6.2-2.8l3.5-8.3
	l3.5,1.4h22.2l-14.6-16.7l-2.8-2.1l3.5-8.3l6.2,2.8l-0.7,2.1l27.8,12.5l1.4-2.1l6.3,2.8l-4.2,9l-21.5-9.7l10.4,11.8L108.3,216.7z
	 M118.8,136.8l5.6,4.9l-1.4,1.4l22.9,20.1l2.1-1.4l4.9,4.2l-8.3,9.7l-4.9-4.9l1.4-2.1l-22.9-20.1l-2.1,2.1l-4.9-4.2L118.8,136.8z
	 M184.7,126.4l6.2-4.2l5.6,7.6l-20.8,14.6l-4.2-5.6l2.1-1.4l-17.4-25.7l-2.1,1.4l-4.2-5.6l10.4-6.9l4.2,5.6l-2.1,1.4l17.4,25.7
	l6.2-4.9L184.7,126.4z M245.8,61.8l2.1,6.3l-2.1,0.7l4.2,34.7l0.7,3.5l-6.9,2.1l-0.7-2.8l-12.5-20.1l2.1,22.9l0.7,3.5l-6.9,2.1
	l-0.7-2.8l-17.4-30.6l-2.1,0.7l-2.1-6.9l8.3-2.8l1.4,3.5L225,95.8l-2.1-22.9l6.2-2.1L241,90.3l-2.8-22.2l-0.7-3.5L245.8,61.8z
	 M315.3,94.4h2.1v6.9h-9.7V89.6h-11.1v11.8h-9.7v-6.9h2.1l0.7-23.6l6.9-13.9h13.2l6.3,13.9L315.3,94.4z M307.6,72.2l-3.5-8.3H300
	l-4.2,8.3v10.4h11.8L307.6,72.2z M388.9,72.9l-2.1,6.2l-2.8-0.7l-8.3,27.1l-6.9,7.6l-16-4.9l-1.4-10.4l8.3-27.1l-2.1-0.7l2.1-6.9
	l9,3.5L359,98.6l0.7,4.2l6.3,2.1l2.8-2.8l10.4-32.6L388.9,72.9z M444.4,104.2l5.6,3.5l-3.5,5.6l-2.1-1.4l-14.6,9l-2.8,16.7l2.1,1.4
	l-4.2,5.6l-5.6-3.5l3.5-20.8l-2.8-2.1l-10.4,16l-8.3-5.6l3.5-6.2l2.1,1.4l17.4-25l-1.4-1.4l3.5-5.6l8.3,5.6l-10.4,15.3l2.8,2.1
	L444.4,104.2z M485.4,156.2l2.1-1.4l-4.9-5.6l-9.7,6.9l7.6,9l-5.6,4.2l-6.9-8.3l-9.7,7.6l4.9,5.6l2.1-1.4l4.9,5.6l-7.6,6.2
	l-15.3-19.4l4.9-4.9l1.4,2.1l24.3-19.4l-1.4-2.1l4.9-4.2l16,19.4l-6.9,6.2L485.4,156.2z M517.4,211.8l2.8-0.7l-3.5-6.9l-11.1,4.9
	l4.9,10.4l-6.2,2.8l-4.9-10.4l-11.1,4.9l3.5,6.9l2.1-1.4l2.8,6.9l-8.3,3.5l-9.7-22.9l6.2-2.8l0.7,2.8l28.5-12.5l-1.4-2.1l6.9-2.8
	l9.7,22.9l-8.3,3.5L517.4,211.8z M113.9,459l-15.3-19.4l5.6-4.2l1.4,2.1l24.3-18.8l-1.4-2.1l5.6-4.2l15.3,19.4l-3.5,6.9l-7.6,5.6
	l-6.2,1.4l-2.8,5.6l-7.6,6.2L113.9,459z M125,445.1l1.4-2.1l-6.2-7.6l-9.7,7.6l5.6,7.6l2.8-0.7L125,445.1z M134.7,424.3l-9.7,7.6
	l6.2,7.6l2.1-0.7l6.2-4.9l1.4-2.1L134.7,424.3z M174.3,502.8l2.1,1.4l-4.2,5.6l-5.6-4.2l3.5-18.1l-3.5-2.8l-9.7,13.9l-8.3-5.6
	l4.2-5.6l2.1,1.4l17.4-25.7l-2.1-1.4l4.2-5.6l19.4,13.9l-2.1,9.7l-5.6,7.6l-8.3,4.9l-1.4-0.7L174.3,502.8z M170.1,479.2l7.6,5.6
	l2.1-1.4l5.6-7.6l0.7-2.8l-7.6-5.6L170.1,479.2z M240.3,500.7l0.7-2.1l-6.9-2.1l-4.2,11.1l11.1,3.5l-2.1,6.2l-11.1-3.5l-3.5,11.8
	l6.9,2.1l1.4-2.1l6.9,2.1l-2.8,9l-24.3-7.6l2.1-6.9l2.8,0.7l9.7-29.2l-2.8-0.7l2.1-6.2l24.3,7.6l-3.5,9L240.3,500.7z M323.6,500v6.9
	h-2.1l-6.2,34v3.5h-7.6V541l-5.6-22.2l-4.9,22.9v3.5h-7.6v-3.5l-6.9-34h-2.8v-6.9h9v2.8l4.9,22.2l4.9-22.2h6.2l5.6,22.2l4.2-22.2
	V500H323.6z M372.9,496.5l-0.7-2.1l-6.9,2.1l3.5,11.8l11.1-4.2l2.1,6.9l-11.1,3.5l4.2,11.1l6.9-2.1l-0.7-2.8l7.6-2.1l2.8,8.3
	l-23.6,8.3l-2.1-6.2l2.1-0.7l-10.4-29.2l-2.1,0.7l-2.1-6.3l23.6-8.3l2.8,8.3L372.9,496.5z M449.3,486.1l2.1-1.4l4.2,5.6l-5.6,4.2
	l-16-9l-4.2,2.8l9.7,13.9l-8.3,4.9l-4.2-5.6l2.1-1.4l-18.1-25l-2.1,1.4l-4.2-5.6l19.4-13.9l9,4.9l5.6,7.6l2.1,9.7l-1.4,0.7
	L449.3,486.1z M425,481.9l7.6-5.6l-0.7-2.1l-5.6-7.6l-1.4-1.4l-7.6,5.6L425,481.9z M500.7,440.3l-11.8,15.3l-7.6-1.4l-3.5-2.8
	l4.2-6.2l2.1,1.4l2.8,0.7l4.9-6.9l-0.7-2.1l-4.9-3.5l-20.1,7.6l-9-6.9l-3.5-6.9l11.8-15.3l6.9,2.1l4.2,2.8l-4.9,5.6l-2.1-1.4
	l-2.1-0.7l-5.6,6.9l1.4,2.1l4.2,3.5l20.8-6.9l9,6.3L500.7,440.3z"/>
</svg>
