<svg version="1.1" id="Layer_1" xmlns="http://www.w3.org/2000/svg" xmlns:xlink="http://www.w3.org/1999/xlink" x="0px" y="0px"
	 viewBox="0 0 600 600" style="enable-background:new 0 0 600 600;" xml:space="preserve">
<style type="text/css">
	.st0{fill:#FFFFFF;}
	.st1{fill:#003087;}
	.st2{fill:#E4002B;}
</style>
<path id="Sox" class="st0" d="M300,0C150.6,0,29,121.6,29,271c0,103.9,57.8,196.9,150.9,243c-0.4,0.8-1.3,2.5-1.3,2.5
	c-4.3,8.4-13.3,26-16.1,27.3l-5.1,1.6c-2.5,0.6-5.1,1.2-7.4,3c-2.5,1.9-6.2,9-6.2,12.7l-0.2,1.3c-0.2,1.1-0.5,2.7-0.5,4.5
	c0,6,3,15.5,21,25.5l3.7,1.9c24.6,11.6,33.1,2.5,36.4-0.9l0.9-0.9c3-2.2,6.6-9.4,6.7-12.5c0-0.1,0-0.2,0-0.3c0-2.7-1-5.1-1.9-7.4
	l-1.7-5.1c0-0.1,0-0.2,0-0.2c0-3.4,9.4-21.6,14-30.4c0,0,2-3.9,2.6-5.1c24.3,7,49.6,10.6,75.1,10.6c149.4,0,271-121.6,271-271
	S449.4,0,300,0"/>
<path id="Red" class="st1" d="M391.3,294.3c-4.8,9.2-21.3,9-41.4,2.3c1.9-2.7,3.8-5.2,5.6-7.6c0.4-0.6,1.6-2.5,2.2-4c0,0,0,0,0-0.1
	c3.1-8-4.8-20.3-15.9-25.5c-11-5.2-22.9-4.1-26.4,1.2c-0.9,1.3-1.9,3-2.2,3.7c-0.3,0.9-0.6,1.9-0.9,2.8c-0.6,1.2-0.8,2.6-1.3,4
	c-0.6,1.8-1.2,3.6-1.9,5.4c-17.5-11.7-27.8-24.2-23-33.3c8.8-16.8,36.4-14,65.1,0.1C380,257.4,399.4,278.8,391.3,294.3z
	 M342.7,307.1h-0.2c-0.8,1.2-1.7,2.5-2.6,3.7c0,0.1,0.1,0.1,0.1,0.1c10.4,3.6,29.5,16.8,35.8,23.4c0.2,0.2,0.5,0.5,0.6,0.6
	c0.1,0,0.1,0,0.2,0.1c1.6-1,3.2-1.9,4.9-2.8c1-0.5,1.9-1,2.9-1.4l-0.2-0.2C380,326.9,353.7,311.6,342.7,307.1z M439.9,274
	c-1.6-3.2-3.2-6.2-5-8.8c-2.4-3.6-4.9-6.6-7.3-8.8c-10.8-10.1-5.6-2.6-2.1,2.1c2.5,3.3,3.8,5.2,4.8,7.3c1.9,3.6,2.8,5.7,2.9,6.8
	c-0.1,0.3-0.1,0.5-0.2,0.8c-0.8,0.3-3.3-1.9-7.2-5.9c-14.7-15-40.2-34-63.7-45.8c-28.9-14.4-63.5-22-86.1-22.9
	c-2.5-0.1-4.9-0.1-7-0.1c3.7-1.7,6.8-2.8,9.7-3.5c4.1-1,8-1.4,13.4-2c8.2-0.8,5-2.4,0-2.1c-3,0.2-6.6,0.4-10.6,0.8
	c-3,0.3-6.2,0.6-9.5,1.1c-17.8,2.6-38.1,9.3-42.4,30.6c-4.3,21.5,9.5,40.4,26,50.7c2.7,1.7,5.5,3.1,8.2,4.4c0.7,0.3,1.4,0.6,2.1,0.9
	c17.5,6.8,36,14.9,36.4,15.1l0,0l0.2-0.8c0.6-1.6,1.2-3.2,1.8-4.8c-10.4-5.5-28.7-11.7-38.2-15.4c-1.4-0.5-2.9-1.2-4.4-2.1
	c-2.5-1.3-5.2-3-7.9-5c-10.8-8.1-21.5-21.6-19.5-38.2c1.9-14.7,13.5-22,30-24c2.6-0.3,5.3-0.5,8.2-0.6c26.1-0.6,60.6,9.3,87.6,22.9
	c20.9,10.5,48.9,30.8,62.6,44.1c3.4,3.3,6.1,6,8.4,8.6c1.9,2.2,3.6,4.2,4.9,6.1c4.4,6.3,5.7,12.1,6.3,21.8c0,9.8-2.7,18.7-6,25.7
	c0,0.1-0.1,0.2-0.1,0.3c2.9-1.8,6-3.3,9.1-4.6c0-0.1,0.1-0.2,0.1-0.2c0.2-0.9,0.3-2.7,0.3-2.7C450.3,305.2,446.3,287.1,439.9,274z
	 M302.6,174.6l-0.3-3.6c15.7-10.9,53.7-20.2,87.7-1.9c25,13.5,43.2,35.7,48.4,68.2l-3,1.7l-16,9.1c-18-20.4-34.2-32.5-46.6-38.7
	s-41.4-18.7-69.1-20L302.6,174.6z M411.7,229.6l5.2,3.7l-0.4,6.5l5.4-3.6l5.8,2.3l-1.6-6.1l3.8-5.2h-6.2l-3.7-5.3l-2,5.8
	L411.7,229.6z M385.6,195.2l-8.1,7l10.4,2l4,10.1l5.5-9.2l10.3-0.5l-6.7-8l2.1-10.4l-9.4,4.3l-9.3-5.4L385.6,195.2z M339.8,175.7
	l5.7,6.6l-2.3,8.9l8.3-3.7l7.7,5.1l-0.6-9.1l7-5.4l-8.6-2.3l-3.6-8.3L349,175L339.8,175.7z M309.6,177.3l4.6,3.4l-0.2,6l4.8-3.6
	l5.7,2.2l-1.7-5.8l3.7-4.5l-5.9-0.2l-3.5-4.9l-1.8,5.5L309.6,177.3z"/>
<path id="Go" class="st2" d="M197.2,351.1c-0.6,0.7-0.4,1.6,0.2,2.2l3.8,3.1c0.7,0.5,1.6,0.4,2.2-0.2c0.5-0.7,0.4-1.7-0.2-2.2
	l-3.8-3.1C198.7,350.3,197.7,350.4,197.2,351.1 M213.5,364.9c0.7,0.5,1.7,0.2,2.1-0.5c0.5-0.7,0.2-1.7-0.5-2.2l-3.5-2.2
	c-0.7-0.5-1.7-0.2-2.1,0.5c-0.5,0.7-0.2,1.7,0.5,2.1C210.1,362.7,213.5,364.9,213.5,364.9z M207.5,382.5c0.6-0.6,0.5-1.6-0.1-2.2
	l-7.3-6.6c-0.6-0.6-1.6-0.5-2.2,0.1c-0.6,0.6-0.5,1.6,0.1,2.2l7.3,6.6C205.9,383.2,206.9,383.1,207.5,382.5 M408.9,367.1
	c-0.9,0.1-1.5,0.8-1.4,1.7c0.1,0.9,0.8,1.5,1.7,1.4l6.9-0.7c0.8-0.1,1.5-0.8,1.4-1.7s-0.8-1.5-1.7-1.4L408.9,367.1z M313.4,351.7
	h-0.3c2.2-3.4,4.3-6.8,6.5-10.2c0.7-1,1.3-2,1.9-3l0.3-0.1c1.7-0.7,3.8-1.3,5.8-1.7c5.1-1,10.5-1,11.7,1.6c0,0.1,0,0.2,0.1,0.3
	c0.7,2.1-0.5,4.4-2.9,6.4C331.8,349.1,322.2,352.3,313.4,351.7 M222.1,497.1c-0.4-0.1-0.7-0.2-1.1-0.4
	c19.5-35.4,59.1-104.8,90.9-158.1c1.2-2,2.3-3.9,3.5-5.9c5.2-8.7,10.2-16.9,14.8-24.4c9.8-15.3,21.2-33.6,22.2-35.2
	c0.6,0.5,1.7,2.3,1.6,3.9c-0.1,1.4-20.4,31.5-21.6,33.5c-4.7,7.1-9.7,14.9-14.8,23.1c-1.2,1.9-2.4,3.8-3.6,5.8
	C281.2,392.3,242.4,460.7,222.1,497.1 M281.8,378.7c1.9-3.6,12.6-21.9,24.8-42.5c1.1-1.9,2.3-3.8,3.4-5.8
	c15.3-25.6,31.8-53.1,36.2-59.7c0.4-2-2-3.4-2-3.4c-3.1,5.4-18.5,31.6-36.3,62c-1.1,1.9-2.2,3.9-3.4,5.8
	c-28,47.7-60.5,103.3-62.3,106.7c3.9-7.2,30.1-60.1,39.8-78.8c3.2-6.2,8.7-18.4,14.7-32.4c0.9-2,1.8-4.1,2.7-6.2
	c12.5-29.3,26.2-63.2,26.7-65.5c9.2-0.3,19.2,3.8,24.6,11.2c0.1-0.2-2,3.4-2,3.4c-1.7,2.7-26.3,42.4-35.9,58.1
	c-1.7,2.8-2.9,4.8-3.5,5.8c0,0.1-0.1,0.2-0.1,0.3c-3.1,5.6-82.5,140.8-82.5,140.8C246.2,440.5,277.5,387.1,281.8,378.7 M294,329
	c0.9-2.2,1.8-4.3,2.7-6.3c13.6-32.1,20.6-54.5,21.6-58.4l2-0.4c-6.1,18.4-14.6,39.7-23.1,59.3c-0.9,2.1-1.8,4.2-2.8,6.3
	c-12.1,27.4-23.5,50.3-27.1,55.2C278,364.5,286.9,345.6,294,329 M216,493.6c0,0.1-0.2,0.4-0.5,0.9c-0.1,0-0.2-0.1-0.2-0.1
	c0.3-0.5,0.5-1.1,0.7-1.4C217.6,490.3,216.2,493,216,493.6 M208.5,521.8l-0.3,0.5v0.3c-0.1-0.1,0,0.2-0.2,0.1c0.1,0.2,0,0.4-0.1,0.5
	c-0.2,0.2-0.2,0.4-0.4,0.6c0,0,0.1,0.1,0,0.1c-0.2,0.2-0.1,0.4-0.3,0.7s-0.9,0.5-1.1,0.9c0.5-0.9,0.9-1.8,1.4-2.5
	c0.4-0.5,0-0.2,0.3-0.7c0.1-0.4,1.1-3,1.2-3.4c0.4-0.9,1.3-2.6,2.6-5.1c0.3,0.1,0.6,0.2,1,0.3C210.5,518,209.1,520.7,208.5,521.8
	 M205.8,528.1c0,0-0.7,0.1-0.7,0.2c-0.1,0.2,0,0.4-0.1,0.6c-0.5,0.8-0.5,1.5-0.8,2.4c0,0.1-0.3,0.1-0.3,0.2c0.1,0.8-0.9,1.4-1.1,2.2
	c-0.3,1.4-0.9,2.5-1.5,3.8c0,0.1-0.3,0.1-0.3,0.2c-0.1,0.5-0.7,0.7-0.8,1.2c0,0.1,0,0.3,0,0.4c-0.3,0.2-0.5,0.6-0.7,0.9
	c-0.1,0.1,0,0.4,0,0.6c-0.1,0.4-0.5,0.7-0.5,1c-0.3,1.7-0.8,3.2-1.5,4.6c-0.2,0.4-0.4,0.9-0.3,1.4c-0.5,0,0.1,0.7-0.4,0.6
	c0,0.4,0.1,0.8,0,1.2c-0.4,1.1-0.5,2.1-0.8,3.2c0,0.2-0.3,0.4-0.3,0.6c0.1,0.9-0.9,1.5-0.9,2.4c0,0.7-0.4,1.2-0.8,2
	c-0.2,0.4-0.5,0.8-0.9,1.3c-0.5,0.7-1.2,1.3-1.6,2c-0.1,0.2,0.4,0.6,0.2,0.7c-0.2,0.1-0.3,0.1-0.4,0.2c-0.3,0.5,0.3,1.3-0.4,1.6
	c-0.4,1.5-2,2.8-2.5,4.2c-0.2,0.5,0.5,1.1,0.3,1.5c-0.5,1.1-0.5,1.9-0.9,3c-0.1,0.2-0.2,0.3-0.4,0.2s-0.2-0.3-0.2-0.6
	c0-0.2-0.4-0.2-0.4-0.6c0.2-1.5,1.1-2.1,1.5-3.5c0.5-1.9,0.8-3.5,1.1-5.3c0.1-0.5,0.3-0.9,0.3-1.4c0-0.2-0.1-0.3-0.1-0.4
	c0.1-0.6,0.6-1,0.4-1.6c0.8-1.1,0.6-2.5,1.5-3.6c0.1-0.2,0.6-0.5,0.7-0.7c0.7-1.2,0.5-2.5,1.2-3.7c0.1-0.1,0.2-0.1,0.2-0.2
	c0.1-0.3,0.8-0.8,0.9-1.1c0.1-0.2-0.3-0.5-0.1-0.8c0.1-0.1,0-0.2,0-0.4c0.2-0.6,0.7-1,0.9-1.6c0.2-0.7,0.5-1.4,1-2
	c0.1-0.1,0.3-0.3,0.3-0.5s-0.2-0.4,0.4-0.6c0-0.8,0.7-1.2,0.9-2c0.1-0.3,0.5-0.7,0.6-1c0.2-0.4,0.3-0.9,0.5-1.4
	c0-0.2,0.2-0.3,0.4-0.2c0-0.2,0-0.4,0-0.6c0.6-1.2,1.6-2.1,2-3.4c0-0.1,0.3-0.1,0.3-0.2c0.1-0.2,0-0.4,0-0.6
	c0.7-0.9,0.9-1.9,1.5-2.8c0.1-0.2,0-0.4,0-0.6c0.2-0.5,0.5-0.9,0.7-1.4c0.1-0.2,0-0.4,0.1-0.6c0.2-0.4,0.5-0.7,0.7-1.1
	c0.4-0.7,0.9-1.6,1.3-2.5C205.9,526.3,206.2,527.4,205.8,528.1 M183.5,561.1c-0.6,1.6-1,2.8-1.2,3.4c-0.8,2.7-1.7,6.7-2.5,10.2
	c-0.5,2.2-1.6,2.6-2.8,2.2c-0.8-0.3-1.5-0.8-2.2-1.3c-0.4-0.3-0.9-0.4-1.5-0.7c-0.2-0.1-0.4,0.2-0.5,0.1c-0.3-0.2-0.6-0.8-0.9-1
	c-0.5-0.2-1.2-0.6-1.7-0.9c-0.5-0.2-0.8-0.8-1.2-1c-0.3-0.1-0.6,0.1-0.9,0c-0.8-0.4-1.3-1-2-1.3c-0.4-0.2-1.1-0.6-1.4-0.8
	c-0.5-0.4-0.4-0.8-0.2-1.1c0.3-0.4,1.2-0.6,1.6-0.7c0.5-0.1,2,0.5,3.7,1.3c1.4,0.7,2.9,1.6,4,1.9c1,0.3,2.1,0,2.7-0.5
	c0.4-0.4,0.2-0.9,0.2-1.4c0-0.7,0.6-1.4,0.3-1.9c-0.5-0.6-0.9-0.8-1.4-1.1s-1.1-0.7-1.7-0.9c-1-0.4-1.4-2-0.2-2.2
	c0,0,1.1-0.4,1.7-1.1c0.4-0.4,0.2-0.8,0.7-1.3c0.2-0.2,0.7-0.5,0.9-0.7c0.1-0.2-0.2-0.4,0-0.6c0.2-0.2,0.1-0.5,0.4-0.8
	c0.3-0.3,1-0.6,1.2-1c0.3-0.3,0.5-0.6,0.8-1c5.4-7.1,14.5-22.8,22.2-37.1c-3.6,6.7-6.8,12.8-8.2,15.9c-3,6.5-7.8,17.9-10.1,24.3
	C183.3,560.5,183.6,560.8,183.5,561.1 M169.6,559.6c2.9-0.7,8.3-7.6,8.6-8.3c0.3-0.6,1.1-1.2,0.7,0.1c-0.6,3-2.7,5.9-4.4,7.8
	c-1,1.1-1.7,1.9-2.5,2.1c-2,0.5-2.8-0.3-3-0.9C169,559.5,169.2,559.7,169.6,559.6 M137.7,445.5L137.7,445.5c0.2,0.1,0.2,0.2,0.3,0.3
	C137.8,445.7,137.7,445.6,137.7,445.5 M135.2,443.3c-0.6-0.6-1.3-1.2-1.9-1.8c1.2,0.5,2.3,0.9,2.5,1c0,0,0.1,0.2,0.2,0.2
	C135.7,442.9,135.5,443.1,135.2,443.3 M61,272.7c-1.9-26.8,5.9-44,12.2-55.7c6.5-12,20.4-27.8,32.7-25.4c19,3.7,6.8,28.6-9.4,56.8
	C80.7,276,61.5,305,77,321.6c12.5,13.5,38,10.4,53.6-5.1l-38.4,72C72.5,354.4,61,314.9,61,272.7 M153.5,368.1
	c-7.1-7.8,20.4-34.9,26.9-26.8C185.2,349.1,161.4,376.8,153.5,368.1 M386.1,337.6c3-2.4,6-4,8.4-4.2c1.7-0.2,3,0.3,3.6,1.7
	c1.9,4.4-9.6,14-21.2,15.6C378,345.9,381.9,341,386.1,337.6 M458.9,331.9c3.4,4.7-8.4,15.2-21.6,15.8
	C438.2,339.5,454.7,326,458.9,331.9 M479.7,356.7c0.5,0.5,9.6,0.1,9.6-8.7c2.8-2,5.9-4.3,8.6-6.9c0.1,0.8,0.2,1.5,0.4,2.3
	c1.7,6.4,1.9,23.5-11.1,22.9C479.3,365.8,478.1,358.4,479.7,356.7 M457,98c1.3-1.6,2.7-3.1,3.9-4.5c3.3,3,6.5,6,9.6,9.1
	C467,101.5,460.4,99.1,457,98 M321.5,377.1c5.1,3.9,20.5-0.9,35-13.8l1.3-1.1c0.2,1.1,0.5,2.3,1,3.4c6.4,14,36.4,8.8,59.1-7.5
	c0.2,1.7,0.6,3.3,1.5,5c6.2,12.1,31.7,8.7,52.2-3.6c0.5,1.5,1.1,3.1,2.1,4.7c2.4,3.9,8.2,7.4,13.4,8.2c8.1,1.4,17.9,0.3,23.6-7.4
	c1.5-2,2.4-4.2,3-6.4c8.1-6.9,27.9-28.5,40.4-54.3c3.6-7.4,4.6-26.6,4.5-33.3l-0.2-0.4c0-142.6-115.7-258.3-258.3-258.3
	C173.2,12.3,67.5,104.1,46,225l25-26.5c11.4-35.6,31-67.6,56.4-93.8c0.7,0.6,1.5,1.2,2.2,1.8l-6,18.2c-0.3,0.8,0.2,1.7,1,2
	s1.7-0.2,2-1c0,0,4.2-12.7,5.6-17c2.4,2.1,4.6,4.2,6.9,6.3l-7.4,17.5c-0.3,0.8,0,1.7,0.8,2s1.7,0,2-0.8l6.9-16.4
	c2.2,2.1,4.3,4.3,6.4,6.5l-7.2,17.7c-0.3,0.8,0.1,1.7,0.9,2c0.8,0.3,1.7-0.1,2-0.9l6.7-16.4c1.1,1.2,2.1,2.3,3.2,3.5v0.1
	c0.1,0.6,0.5,0.9,1,1.1c0.1,0.2,0.3,0.3,0.4,0.5l-9.2,17.5c-0.4,0.8-0.1,1.7,0.7,2.1c0.8,0.4,1.7,0.1,2.1-0.7l8.6-16.4
	c1.4,1.7,2.8,3.3,4.1,5c0.2,0.3,0.4,0.6,0.6,0.9c0.4,0.5,0.8,1,1.2,1.6l-10.7,16c-0.5,0.7-0.3,1.7,0.4,2.2s1.7,0.3,2.2-0.4
	l10.1-15.1c2.3,3.2,4.6,6.4,6.7,9.6c-0.1,0-0.2,0-0.2,0.1L159,167.3c-0.6,0.6-0.6,1.6,0.1,2.2c0.6,0.6,1.6,0.5,2.2-0.1l12.1-13.1
	c2.7,4.2,5.3,8.5,7.7,12.8l-13.7,14.4c-0.6,0.6-0.6,1.6,0,2.2c0.6,0.6,1.6,0.6,2.2-0.1c0,0,9.7-10.2,13-13.6c2.1,3.9,4.1,8,5.9,12
	l-14.6,14.3c-0.6,0.6-0.6,1.6,0,2.2c0.6,0.6,1.6,0.6,2.2,0c0,0,10.5-10.3,13.8-13.5c2.2,5.1,4.3,10.2,6.2,15.4L180.3,218
	c-0.6,0.6-0.6,1.6,0,2.2c0.6,0.6,1.6,0.6,2.2,0l14.4-14.4c1.7,5,3.2,10.1,4.5,15.3l-5.9,6c-0.6,0.6-0.6,1.6,0,2.2
	c0.6,0.6,1.6,0.6,2.2,0l4.7-4.7c1.4,5.7,2.5,11.5,3.5,17.3l-15.5,15.5c-0.6,0.6-0.6,1.6,0,2.2s1.6,0.6,2.2,0l13.8-13.8
	c1.1,7.4,1.8,14.9,2.1,22.5l-18,14.2c-0.7,0.5-0.8,1.5-0.2,2.2c0.5,0.7,1.5,0.8,2.2,0.2c0,0,11.9-9.4,16.1-12.8
	c0,1.8,0.2,3.6,0.2,5.3c0,5.1-0.2,10-0.5,14.8L191,303.8c-0.7,0.5-0.9,1.4-0.4,2.1s1.4,0.9,2.2,0.4c0,0,10.8-7.2,15.2-10.1
	c-0.6,6.4-1.4,12.8-2.5,19.2l-19.3,7.9c-0.8,0.3-1.2,1.2-0.9,2s1.2,1.2,2,0.9c0,0,12.2-5,17.5-7.1c-0.8,3.9-1.6,7.8-2.6,11.9
	c0,0.1,0,0.2,0,0.3c0,0.2,0,0.4,0.1,0.5c0.1,0.2,0.1,0.4,0.3,0.5c0.1,0.1,0.1,0.2,0.1,0.2l10.7,9c0.7,0.6,1.7,0.5,2.2-0.2
	s0.5-1.6-0.2-2.2l-10-8.4c1-4.1,1.9-8.2,2.7-12.2c4.1,1.7,19.8,8.3,19.8,8.3c0.8,0.3,1.7,0,2-0.8s0-1.7-0.8-2l-20.5-8.6
	c1.2-6.6,2-13.2,2.5-19.8c4.7,1.9,19.2,7.8,19.2,7.8c0.8,0.3,1.7,0,2-0.8s-0.1-1.7-0.9-2l-20.1-8.1c0.3-4.9,0.5-9.8,0.5-15
	c0-1.9-0.1-3.9-0.2-5.8c5.2,2.2,20.3,8.6,20.3,8.6c0.8,0.3,1.7,0,2-0.8s0-1.7-0.8-2l-21.6-9.2c-0.3-7.4-1-14.8-2-22.1l18.6,6.5
	c0.8,0.3,1.7-0.1,2-1c0.3-0.8-0.1-1.7-1-2l-20.1-7.1v-0.1c0.1-0.4,0-0.7-0.2-1.1c-0.9-5.8-2-11.5-3.4-17.2l20,5.3
	c0.8,0.2,1.7-0.3,1.9-1.1s-0.3-1.7-1.1-1.9l-21.7-5.7c-1.4-5.4-2.9-10.7-4.6-15.9c5.9,0.5,22,1.8,22,1.8c0.9,0.1,1.6-0.6,1.7-1.4
	c0.1-0.9-0.6-1.6-1.4-1.7l-23.3-1.9c-1.8-5.3-3.9-10.4-6.2-15.5c5.6,0.3,20.3,1.2,20.3,1.2c0.9,0.1,1.6-0.6,1.7-1.5
	c0-0.9-0.6-1.6-1.5-1.7l-21.9-1.3c-1.9-4.1-3.9-8.2-6-12.2c5.6-0.2,21.7-0.6,21.7-0.6c0.8,0,1.5-0.7,1.5-1.5l0,0
	c0-0.9-0.7-1.5-1.6-1.5l-23.2,0.6c-2.4-4.4-5-8.7-7.7-12.9l22.1-1.9c0.9-0.1,1.5-0.8,1.4-1.7s-0.8-1.5-1.7-1.4l-23.8,2.1
	c-2.7-4.1-5.6-8.2-8.7-12.2l19-2.7c0.8-0.1,1.4-0.9,1.3-1.8c-0.1-0.9-0.9-1.4-1.7-1.3l-20.7,3c-1.7-2.1-3.4-4.2-5.1-6.2l19-3
	c0.8-0.1,1.4-0.9,1.3-1.8c-0.1-0.8-0.9-1.4-1.8-1.3l-20.9,3.3c-1.7-1.9-3.5-3.9-5.3-5.8l15.1-4.9c0.8-0.2,1.3-1.1,1-1.9
	s-1.1-1.3-1.9-1l-16.6,5.3c-1.2-1.2-2.3-2.5-3.6-3.7l14.9-5.6c0.8-0.3,1.2-1.2,0.9-2s-1.2-1.2-2-0.9l-16.3,6.1
	c-2.5-2.4-4.9-4.7-7.5-7c4.7-1.7,16-5.9,16-5.9c0.6-0.2,1-0.8,1-1.5c0-0.2,0-0.4-0.1-0.5c-0.3-0.8-1.2-1.2-2-0.9l-17.6,6.5
	c-0.7-0.6-1.5-1.3-2.3-1.9c43.5-43.7,103.7-70.8,170.3-70.8c60.8,0,116.3,22.6,158.6,59.8c-1.3,1.5-2.7,3.2-4.2,4.9
	c-2.1-3.1-8.7-12.5-8.7-12.5c-0.5-0.7-1.5-0.9-2.2-0.4s-0.9,1.5-0.4,2.2l9.2,13.2c-1.8,2.2-3.6,4.4-5.3,6.5
	c-2.7-2.8-11.9-12-11.9-12c-0.6-0.6-1.6-0.6-2.2,0s-0.6,1.6,0,2.2l12.3,12.3c-1.2,1.5-2.3,2.9-3.2,4c-20.3-13.9-44.5-22.3-70.5-22.3
	c-26.9,0-51.8,8.5-72.3,23c-0.3,0.2,2.2,40.7,3.1,54.5c3.7-2,7.6-3.7,11.5-5.3l-1-49.5c5-4,11.8-7.3,17.1-9.2l-1.1,54.2
	c6.1-1.2,12.5-1.9,19-1.9c2,0,3.9,0.2,5.9,0.3l9.9-59.7c12.8-1.2,25.6,0.2,36.8,3.8L377.2,160c10.7,3.5,20.5,8.8,29.1,15.6
	l41.1-52.3c8.9,7.8,16,15.2,22.9,26.1l-48,42.1c5,6.3,9.3,13.3,12.6,20.8l49.4-34.2c1,1.9,3.8,13.8,3.4,17.3l-48,31
	c0.8,3.2,1.5,6.4,2,9.6c12-6.8,55.7-31.6,55.7-32c-3.7-36.8-24-69.5-53-90.5c0.9-1.1,2-2.5,3.2-4.1c3.9,1.9,13.2,6.3,13.2,6.3
	c0.8,0.4,1.7,0,2.1-0.7c0.1-0.2,0.1-0.5,0.1-0.7c0-0.6-0.3-1.1-0.9-1.4c0,0-8.7-4.2-12.6-6c1.7-2.1,3.4-4.3,5.3-6.5l16.6,5.7
	c0.7,0.2,1.4-0.1,1.8-0.7c41.5,43.2,67.1,101.8,67.1,166.4l0.1,0.2c-1.5,44.5-10.2,63.7-26,75.4c-0.7-4.5-2.2-8.4-3.4-10.8
	c-2.4-5-1.3-5.2,0.3-6.8c8.9-7.7,10.7-15.5,7.4-17.8c-4.8-3.4-18.4,7.5-20.2,18c-0.2,1.6-0.5,3.2-0.7,4.9c-2.9,3.4-6.7,6.6-10.3,9.2
	c-5.1-4.6-15.8,0.6-16.5,10.1c-9.9,5.5-17.9,8.5-25.2,8.6c-9,0.1-11.3-5.2-9.7-10.1v-0.1c0,0,0.1,0.1,0.6,0.1
	c17.6-1.4,38.3-11.5,34.9-23.3c-2-6.9-14-6-26.1-0.9c-3.1,1.3-6.2,2.9-9.1,4.6c-8,4.8-14.9,11.2-17.4,18.1
	c-12.3,10.5-25.1,14-33.8,14.1c-9,0.1-11.3-5.2-9.7-10.1c0.1-0.2-0.2,0,0.6,0c19.2-0.2,42.4-11.4,37.5-23.9
	c-1.2-3.2-4.2-4.8-8.1-5.3c-5-0.6-11.7,0.9-18.4,3.6c-0.9,0.4-1.8,0.7-2.7,1.2c-1,0.5-2,0.9-2.9,1.4c-1.6,0.9-3.3,1.8-4.9,2.8
	c-4.2,2.6-8,5.6-11.2,8.9c-2.8,2.9-5,6-6.3,9.2c-6.2,8.2-17.4,16.3-21.4,15.7c-9-1.2-0.3-11-9.1-12.6c6.8-1.1,15.3-5.1,20.4-10.7
	c2-2.1,3.5-4.4,4.2-6.9c0.6-2.1,0.7-4.3,0-6.6c-2.5-8.5-17.4-6-26.5-1.3l-0.4,0.2c4.6-7.1,9.1-13.8,13.4-20.2
	c0.9-1.3,1.7-2.5,2.6-3.7c2.5-3.7,5-7.2,7.3-10.5l0.1-0.1c1.9-2.7,3.8-5.2,5.6-7.6c0.4-0.6,1.6-2.5,2.2-4v-0.1
	c3.1-8-4.8-20.3-15.9-25.5c-11-5.2-22.9-4.1-26.4,1.2c-0.9,1.3-1.9,3-2.2,3.7c-0.3,0.9-0.6,1.9-0.9,2.8c-0.4,1.3-0.8,2.6-1.3,4
	c-0.6,1.9-1.2,3.8-1.9,5.8c-1.4,4-2.9,8.2-4.5,12.4c-0.6,1.6-1.2,3.2-1.8,4.8l-0.2,0.8l0,0c-3.1,8.1-6.5,16.4-10.1,24.7
	c-0.9,2.1-1.8,4.2-2.7,6.3c-5.5,12.7-11.2,25.3-16.8,37.2c-2.6,1.7-7.3,4.6-9.2,3.4c-4.7-3,16.7-24.6,9.7-31.9
	c-5.8-6-23.7,2.5-32.2,11.4c1-2.6,1.2-7.4-2.5-11c-12-11.8-47.2,42.2-53.3,37.8c-3.5-2.5,10.2-18.6,16.8-36.4l-14.6,0.1l-2.2,3.4
	c0.1-0.9-0.4-2-1.6-3.2c-16.1-14.8-56,28-41.3,40.7c6.9,5.9,23.1-1.2,29.8-10c-4.5,9.6-1.1,13.4,0.1,14.4
	c15,10.9,46.8-40.5,52.2-35.8c3.8,3.4-15.9,32.2-15,32.9l14.8-0.1c6.3-11.1,10.9-20,10.9-20c8.3-9.5,18.5-17.2,20.9-14.3
	c4.1,4.9-17.5,22.3-10.5,33.3c3.4,5.3,16.7-1.2,23.1-6.1c-13,27.4-24.3,49.6-27.9,56.8c-6.6,13.6-19.9,38.5-33.3,63.2
	c-22.6-9.7-43.7-23-62.5-39.1c0-0.3,0-0.6-0.2-0.9l-5-8l0.1-0.1c2.4-2.2,4.6-4.6,6.9-6.9c3,3.4,7.9,9,7.9,9c0.6,0.6,1.5,0.7,2.2,0.1
	c0.6-0.6,0.7-1.6,0.1-2.2l-8-9.1c1.9-2,3.8-3.9,5.7-6c3.4,3.6,9,9.6,9,9.6c0.6,0.6,1.6,0.7,2.2,0.1c0.6-0.6,0.7-1.6,0.1-2.2
	l-9.3-9.8c2.8-3.2,5.6-6.4,8.2-9.7c3.1,4.4,8.4,11.8,8.4,11.8c0.5,0.7,1.5,0.9,2.2,0.4s0.9-1.5,0.4-2.2l-9-12.7
	c2.6-3.4,5.1-6.8,7.4-10.4c2.9,3.6,10.2,12.9,10.2,12.9c0.5,0.7,1.5,0.8,2.2,0.3s0.8-1.5,0.3-2.2l-10.9-13.8
	c2.3-3.6,4.5-7.3,6.6-11.1l11.7,10.7c0.6,0.6,1.6,0.5,2.2-0.1c0.6-0.6,0.5-1.6-0.1-2.2l-12.1-11.2c0.1-0.1,0.2-0.3,0.2-0.4
	c0.4-0.8,0.1-1.7-0.6-2.1c-0.7-0.4-1.7-0.1-2.1,0.6c-0.2,0.4-0.4,0.7-0.6,1c0,0,0,0-0.1,0c0,0,0,0.1-0.1,0.2c-0.2,0.3-0.4,0.7-0.6,1
	l-14.6-1.4c-0.9-0.1-1.6,0.5-1.7,1.4c-0.1,0.9,0.6,1.6,1.4,1.7l13.1,1.2c-1.7,2.9-3.4,5.9-5.2,8.7l-17-2c-0.8-0.1-1.6,0.5-1.7,1.4
	c0,0.1,0,0.1,0,0.2c0,0.8,0.6,1.4,1.4,1.5c0,0,11.2,1.3,15.4,1.8c-2.1,3.2-4.4,6.3-6.6,9.4l-0.1-0.2c-0.3-0.4-0.7-0.6-1.1-0.7
	l-16.6-1.7c-0.8-0.1-1.6,0.5-1.7,1.4c0,0,0,0.1,0,0.2c0,0.8,0.6,1.5,1.4,1.5c0,0,14.6,1.5,15.9,1.7c0,0.1,0.2,0.3,0.3,0.5
	c-2.7,3.5-5.5,6.8-8.4,10.1l-0.3-0.3c-0.2-0.2-0.4-0.3-0.7-0.4l-15.9-4.8c-0.8-0.2-1.7,0.2-1.9,1c0,0.1-0.1,0.3-0.1,0.5
	c0,0.7,0.4,1.3,1.1,1.5c0,0,14.7,4.5,15.5,4.7l0.3,0.3c-1.8,2-3.7,4-5.6,5.9l-0.3-0.3c-0.2-0.2-0.4-0.4-0.7-0.5l-14.2-4.1
	c-0.8-0.2-1.7,0.2-1.9,1c0,0.2-0.1,0.3-0.1,0.4c0,0.7,0.4,1.3,1.1,1.5c0,0,12.9,3.8,13.7,4l0.1,0.1c-2.2,2.2-4.4,4.5-6.7,6.7
	l-0.2-0.3c-0.2-0.3-0.5-0.5-0.8-0.6l-9-3.4c-0.1,0-0.2,0-0.2,0c-8.8-9.1-17-18.9-24.3-29.4l92.9-175.4l-21.5,0.6L137,303
	c-12.3,11.5-32.2,22-43.6,14.2C71.1,301.5,159.6,217,127,189.5c-26-21.9-54.3,10.8-63.2,26.4c-7.3,12.7-21,32.1-21.5,56
	c0.2,106.1,64.4,197.1,156,236.6c-8.7,15.7-16.8,30.1-22.6,40c-4.1,7-6.8,10.1-11.7,9.8c-0.9-0.1-3,0.2-3.6,0.4
	c-2.4,1-3.4,5.2-3.3,7.1c0.2,3.7,3.3,10.6,15.5,16.2c12.2,5.6,19,5.1,22.2,3c1.5-1,4.4-4.3,3.7-6.8c-0.2-0.7-1.1-2.5-1.8-3.2
	c-3.2-3.7-2.4-7.1,0.8-14.5c4.6-10.6,12.5-26.7,21.4-44.1c25.7,8.6,53.1,13.3,81.7,13.3c121.6,0,223.6-84.1,251.1-197.2
	c1-4.1,2.1-9.2,2.1-9.2c-7.3,11.4-26.4,28.4-26.4,28.4c-10.2,29.3-25.9,55.8-45.9,78.3l3.6-7.2c0.4-0.8,0.1-1.7-0.7-2.1
	c-0.7-0.4-1.7-0.1-2.1,0.7c0,0-4.1,8.1-4.6,9.2c-2.2-1.4-4.6-3.2-7.1-5.3c2.9-3.5,8.1-9.8,8.1-9.8c0.5-0.7,0.5-1.6-0.2-2.2
	c-0.7-0.5-1.7-0.5-2.2,0.2c0,0-5.3,6.4-8.1,9.8c-1.2-1-2.4-2.1-3.6-3.2l9.9-13.7c0.5-0.7,0.4-1.7-0.3-2.2c-0.7-0.5-1.7-0.3-2.2,0.4
	l-9.7,13.3c-1.9-1.9-3.9-3.8-5.8-5.9c2.9-3.5,9-11.1,9-11.1c0.5-0.7,0.4-1.7-0.2-2.2c-0.7-0.5-1.6-0.4-2.2,0.2c0,0-6,7.5-8.7,10.8
	c-2.1-2.3-4.2-4.6-6.3-7l9.1-10.8c0.6-0.7,0.5-1.6-0.2-2.2s-1.6-0.5-2.2,0.2c0,0-5.7,6.8-8.8,10.5c-2.5-2.9-5-5.9-7.3-8.7l9.5-10.7
	c0.6-0.6,0.5-1.6-0.2-2.2c-0.6-0.6-1.6-0.5-2.2,0.1l-9.1,10.3c-2.9-3.7-5.6-7.2-7.8-10.4l4-4c0.6-0.6,0.6-1.6,0-2.2s-1.6-0.6-2.2,0
	c0,0-2.1,2.1-3.6,3.6c-1.8-2.7-3.3-4.9-4.3-6.7c-0.4-0.7-1.4-1-2.1-0.6s-1,1.4-0.6,2.1c1,1.8,2.5,4.2,4.4,7
	c-3.3,0.6-13.7,2.5-13.7,2.5c-0.7,0.1-1.3,0.8-1.3,1.5c0,0.1,0,0.2,0,0.3c0.2,0.9,1,1.4,1.8,1.3l15.1-2.8c2.5,3.5,5.5,7.4,8.8,11.5
	l-18,0.6c-0.9,0-1.5,0.7-1.5,1.6s0.7,1.5,1.6,1.5l20.3-0.7c2,2.5,4.1,5,6.3,7.5c-1.1,0.3-16.1,4.7-16.1,4.7
	c-0.7,0.2-1.1,0.8-1.1,1.5c0,0.1,0,0.3,0,0.4c0.2,0.8,1.1,1.3,1.9,1.1l16.6-4.8c0.3-0.1,0.5-0.2,0.7-0.5c2,2.2,4,4.5,6.1,6.6
	c-3.7,1.5-16.8,7.5-16.8,7.5c-0.8,0.4-1.1,1.3-0.8,2.1c0.4,0.8,1.3,1.1,2.1,0.8l17.7-8c1.5,1.6,3,3.1,4.5,4.6h-0.1l-15.2,9
	c-0.7,0.4-1,1.4-0.6,2.1s1.4,1,2.1,0.6l15.2-9c0.3-0.2,0.4-0.4,0.5-0.7c0,0.5,0.1,1,0.6,1.3c0.4,0.2,0.8,0.3,1.2,0.3
	c1.2,1.2,2.4,2.2,3.6,3.3c-2.2,1.4-13.7,9.1-13.7,9.1c-0.7,0.5-0.9,1.4-0.4,2.2c0.5,0.7,1.4,0.9,2.2,0.4l14.4-9.6
	c2.2,1.9,4.4,3.5,6.4,4.9c-3.7,2.6-10.2,7-10.2,7c-0.4,0.3-0.7,0.8-0.7,1.3c0,0.3,0.1,0.6,0.3,0.9c0.5,0.7,1.5,0.9,2.2,0.4l9.6-6.6
	c-43.9,46.3-106.4,74.6-176,75.2c-24.9,0.2-49.3-3.8-72.4-11.4c12.6-24.2,25.6-48.2,33-61c9.7-16.9,28.8-49,48.8-80.7h0.2
	c3.3-0.2,5.3,0,6.5,1.1C320.7,361.9,312.8,370.5,321.5,377.1"/>
</svg>
