<svg version="1.1" id="Layer_1" xmlns="http://www.w3.org/2000/svg" xmlns:xlink="http://www.w3.org/1999/xlink" x="0px" y="0px"
	 viewBox="0 0 600 600" style="enable-background:new 0 0 600 600;" xml:space="preserve">
<style type="text/css">
	.st0{fill:#FFFFFF;}
	.st1{fill-rule:evenodd;clip-rule:evenodd;fill:#C81E3B;}
	.st2{fill:#013B73;}
</style>
<path id="Outline" class="st0" d="M600,355.2c-0.2-4.1-0.7-6.9-1.8-10.2c-0.6-1.8-2.1-5.7-3.6-8.2c-1.1-2.3-3-5.5-4.3-7.3
	c-1.2-1.7-3.8-5-5.8-7.5l-0.1-0.1l-0.1-0.1c-2.2-2.5-6.1-6.3-8.8-8.8l-0.1-0.1l-0.1-0.1c-0.5-0.4-1.1-0.9-1.8-1.5
	c-2.8-2.3-6.7-5.5-9.9-7.7c-4.5-3.3-7.6-5.9-8.2-6.6c-0.7-0.8-1.4-1.5-2-2.2c-0.5-0.5-1.2-1.3-1.4-1.5l-0.2-0.3l-0.2-0.2
	c-1.7-1.7-3.3-2.5-4.8-2.5c-1.3,0-2.1,0.2-8.6,4.7c-2.5,1.7-5.2,3.8-6.6,4.9l-0.9,0.7l-0.2,0.2l-0.2,0.2l-1.7,1.7l-1.2,1.2l0.1,1.7
	c0.5,11.1,0.4,13.8-0.2,17.2c-0.5,2.8-1.4,6.8-2,8.9l-0.5,1.3c-0.8,1.9-1.6,4.1-2.1,5.1c-0.6,1.2-2.1,3.9-3.4,5.8
	c-0.7,1.1-1.8,2.5-2.8,3.8c-0.6,0.7-1.1,1.4-1.5,2c-0.8,1-2.8,2.8-5.2,4.9c-1.6,1.4-4.6,3.4-6.3,4.2l-0.1,0l-0.1,0
	c-1.9,1.1-4.9,2.3-6.4,2.7l-0.1,0l-0.1,0c-2.6,0.8-4,1-8.6,1c-0.3,0-0.6,0-0.9,0c1.6-0.8,3.1-1.6,4-2.2l0.1,0l0.1,0
	c2.1-1.3,5.1-3.6,6.8-5c1.8-1.4,4.3-3.6,5.9-5.4c1.4-1.5,3.4-4,4.6-5.9c1.3-1.9,3-5,3.8-7.1c1.1-2.1,2.4-5.6,2.9-8.2
	c0.5-2.2,1-6.1,1-8.6c0-2.4-0.3-5.5-0.5-7l0-0.3l-0.1-0.3c-0.1-0.3-0.2-0.7-0.3-1c-0.5-1.5-1.1-3.6-2-5.4c-1.2-2.4-3.1-5-5-6.9
	l-0.1-0.1l-0.1-0.1c-2.7-2.3-4.9-3.9-6.7-4.8c-2.2-1.1-5.3-2.1-7.4-2.7l-0.2-0.1l-0.2,0c-0.5-0.1-1.1-0.1-1.7-0.2
	c-1.8-0.3-3.7-0.5-5-0.5c-1.3,0-3.1,0.2-5,0.4c-0.8,0.1-1.7,0.2-2.4,0.3l-0.2,0l-0.2,0c-2.6,0.5-6.3,1.5-8.7,2.5
	c-2.3,0.8-6.1,2.6-8.6,4.2c-2.4,1.6-5.9,4.6-7.9,6.6c-1.9,1.9-4.7,5.2-6.1,7.1l-0.1,0.1l-0.1,0.1c-1.5,2.5-3.2,5.3-4.2,7.7
	c-0.3,0.6-0.6,1.3-1,2c0-2-0.1-4-0.1-6c-0.1-4-0.1-7.9-0.2-11.6c0,0,0.2-28.1-0.2-32.2s-0.3-4.1-0.3-4.1c-0.5-5.8-1-10.5-1.4-14
	c-0.5-3.3-1.5-8.2-2.3-10.7c-0.7-2.6-2.2-6.8-3.4-9.8l0-0.1l0-0.1c-0.3-0.8-0.7-1.6-1.1-2.5c-1-2.3-2.1-4.8-3-6.4
	c-0.9-1.8-2.4-4-3.8-6.1c-0.7-1-1.3-1.9-1.8-2.7l0-0.1l0-0.1c-2-2.9-6.4-7.7-8.1-9.6l-0.1-0.1l-0.1-0.1c-2.9-2.9-7.2-6.9-9.9-8.9
	c-2.8-2.1-7.6-5.2-11.1-6.8c-4.6-2.1-7.4-3.2-9.2-3.6c-2.3-0.8-5.6-1.1-11.9-1.1l-4.2,0.1l0.2-13.9c2.3-0.4,4.2-1,5.7-1.7
	c2.2-1,4.3-2.5,5.8-4.3c1.3-1.6,2.6-4,3.2-5.5c40.6,0,50.1,0.3,52.1,0.5l0.1,0l0.1,0l2.6,0.1l14.1,42.6l0.9,2.6l2.7,0l68.3,0.2
	l3.8,0l0-3.8l-0.2-57.1l0-3.7l-3.7-0.1l-5.8-0.1V68.2v-1.6l-1.2-1.1l-0.7-0.6c-19-18-19-18-22.7-18.4l0,0
	c-3.6-0.4-31.7-0.4-32.9-0.4c-8.2,0-16.6,0-24.9,0.1h-53.7l-21.6-12.5l-0.9-0.5h-1h-68.7h-1.1l-0.9,0.5l-9.5,5.7
	c-2.4,1.4-4.8,2.8-6.7,3.9c-2,1.1-3.2,1.8-3.8,2.2c-2.5,0.4-15.2,0.4-50.5,0.6l-6.7,0h-56.9h-1.5l-1.1,1.1l-4.1,3.9
	c-3.7,3.6-6.7,6.4-9,8.7l-5.9,5.6l-1.2,1.1l0,1.6l-0.7,73.1c-4.2,0.1-5.8,0.4-7.1,1.3c-2.4,1.6-2.4,1.6-2.4,31.6l0.2,26.9
	c-1-0.5-1.9-1-2.7-1.3c-2.6-1.5-7.3-3.2-9.9-4.1c-2.8-0.9-8.7-2.4-12.4-3c-5.6-0.8-9.7-1.2-12.2-1.2c-0.9-0.1-2-0.1-3.3-0.1
	c-3.8,0-7.8,0.3-8.9,0.3c-3,0.2-8.6,0.7-11.9,1.5c-3.1,0.5-8.1,1.7-11.2,2.7c-3.3,1-8.8,3.4-12.6,5.2c-3.7,1.7-8.6,4.7-11.2,6.5
	l-0.1,0.1l-0.1,0.1c-2.2,1.7-5.9,4.9-7.9,6.9c-1.9,1.9-4.6,4.8-6,6.7c-1.2,1.4-2.6,3.6-3.8,5.5c-0.4,0.6-0.7,1.1-1.1,1.6l-0.1,0.1
	l-0.1,0.1c-1,1.9-2.9,5.3-3.7,7.2c-0.8,1.8-1.8,4.8-2.3,6.9c-0.5,1.6-1.3,5.2-1.3,7.9c-0.2,1.9-0.3,5.3,0.3,8.5
	c0.5,2.4,1.5,5.8,2.7,7.9c1.1,2.2,3,4.9,4.5,6.3l0.1,0.1l0.1,0.1c1.6,1.4,4,3,5.7,3.8c1.9,1,4.8,1.8,6.4,2.2
	c1.7,0.5,3.4,0.8,5.1,0.8c0.8,0,1.6-0.1,2.4-0.2c2.8-0.1,5.5-1.1,7.3-2.1c2.2-1.1,4.4-2.7,6.4-4.7l0.1-0.1l0.1-0.1
	c1.3-1.5,3-3.9,4-5.5l0.1-0.1l0-0.1c1-1.6,2.3-4.9,2.9-6.5l0.1-0.2l0.1-0.2c0.3-1,0.6-2.2,0.9-3.1c0.2-0.8,0.4-1.4,0.5-1.9l0-0.2
	l0-0.2c0.5-3.6-1-5.2-2.3-5.8L47,249h-0.6c-0.3-0.1-0.7-0.2-1.1-0.4c-0.3-0.1-0.7-0.2-1.1-0.4c-0.4-0.2-0.6-0.3-0.7-0.3
	c0,0-0.1-0.1-0.1-0.2c-0.2-0.5-0.2-1-0.2-1.3c0.2-0.7,0.8-2.2,1.3-3.3c0.4-0.8,2.1-3,4.3-5.2c1.1-1.1,2.4-2.1,3.5-3v110.6
	c-4.1,5.1-6.9,8.7-8.4,11.2l0,0.1l0,0.1c-0.4,0.7-2.6,4.6-3.6,7.2c-0.7,2-1.7,5.2-2.3,7.3l-0.1,0.3l0,0.3c-0.3,2.8-0.3,4.8,0,7.2
	l0,0.1l0,0.1c0.3,1.5,0.8,3.2,1.2,4.2l0.1,0.4l0.2,0.5l0.3,0.4c0.2,0.3,1.7,2.5,3.1,3.9l0.1,0.1l0.2,0.1c1.4,1.1,3.5,2.4,4.7,3.1
	l0.3,0.2l0.3,0.1c1.3,0.5,4.4,1.4,7.4,1.5c1.2,0.1,2.2,0.1,3.1,0.1c2,0,3.8-0.2,5.8-0.7c2-0.4,5.9-1.7,8.4-3.2
	c2.4-1.1,5.6-3.3,7.4-5.1c1.9-1.6,4.2-4.2,5.3-5.9c0.8-1.1,2.2-3.4,2.8-4.7l0.1-0.2l0.1-0.3c0.1-0.2,0.1-0.4,0.2-0.6
	c0.3-0.9,0.8-2.1,1-3.3c0.5-2.3,0.8-8.2,1-35.4c0.1-7.1,0.3-24.3,0.5-30.2c1.1-0.5,2.9-1.2,5.8-2.3c4.4-1.8,10.7-4.6,14.3-6.5
	c4-1.9,9-4.8,11.8-6.6c3.3-2.3,6.7-5.2,10.1-8.5l0.1-0.1l0.1-0.1c1.1-1.2,2.5-2.8,3.9-4.5c0.3,100.6,0.5,105,1.1,106.8
	c0.4,1.5,1.3,3,2.1,4.2c0.2,0.3,0.3,0.5,0.5,0.7l0.1,0.2l0.2,0.2c1.4,1.8,3.8,3.4,5.4,4.3c1.6,0.9,3.8,1.4,5.8,1.8l0.4,0.1h0.4
	c2.2,0,4.4-0.3,6.2-0.9c1.5-0.5,3.9-1.6,5.7-3l0.2-0.1l0.1-0.1c0.6-0.6,2.7-2.7,3.8-5l0.1-0.1l0.1-0.1c1.2-3,1.2-3,1.7-31.8l0-0.4
	c0.2-15.5,0.3-26.4,0.7-28.5c0.3-0.5,0.8-1.1,1-1.4l0.3-0.3l0.2-0.3c0.1-0.1,0.3-0.3,0.5-0.3l0.5-0.1l0.4-0.3c0.3-0.1,1.3-0.4,2-0.4
	c0.9,0,1.9,0.2,2.3,0.4l0.4,0.3l0.5,0.1c0.3,0.2,0.8,0.7,1,0.9c0.2,0.2,0.6,0.7,0.7,0.9l0.1,0.5l0.2,0.3c0.5,1.9,0.6,11.6,0.8,21.5
	c0.1,5,0.2,9.8,0.3,13.7c0.1,5.1,0.2,9.2,0.2,9.7v0.5l0.1,0.5c0.3,1.3,1.3,4.1,2.7,6.5c1.5,3.2,2.9,5.6,5.8,8.1
	c1.4,1.4,3.6,3.2,5.3,4.5c-0.8,0.9-1.7,2.2-2.6,4c-1.1,2-3.6,6.1-5.5,9l0,0.1l0,0.1c-1.6,2.6-5,6.9-7.7,10.2c-1.3,1.4-3,3.3-4.7,5.2
	c-1.7,1.9-3.4,3.7-4.7,5.1c-3,3-7.2,7.9-9.5,11l0,0.1l0,0.1l-1.5,2c-2.1,3-4.3,6-5.5,7.8c-1.6,2.3-3.7,6.6-5.2,9.6
	c-1.9,3.8-3.4,6.8-4,8.7c-0.8,1.9-2,5.7-2.7,8.3c-1.3,4.7-1.3,7.1-1.3,14l-0.2,7.7l-0.1,3.8l3.8,0.1c13.2,0.4,46.4,0.7,88.8,0.7
	c38.9-0.2,70.9-0.5,70.9-0.5l1.6,0l2.9,0.9c-2.7,2.1-4.6,4-6,5.4l-0.1,0.1l-0.1,0.1c-1.6,1.9-4,5-5.2,7l-0.2,0.3l-0.1,0.3
	c-0.7,1.9-1.7,4.5-2.2,6.1l-0.1,0.3l0,0.3c0,0.2-0.6,3.8-0.3,6.4c0.1,1.4,0.5,3.4,1.3,6.4l0.1,0.2l0.1,0.2c0.7,1.6,1.9,4.4,2.7,5.9
	l0.1,0.2l0.1,0.2c1.2,1.9,4.7,5.8,6.5,7.8l0.1,0.1l0.1,0.1l3.6,3.6v15v3.8h3.8c26,0,26.2-0.2,27.6-1.6l1.1-1.1v-1.6c0,0,0-0.1,0-0.2
	c0.2-0.5,0.4-1.1,0.5-1.9c0.2-1.5,0.3-3.5,0-5.1c0-0.1,0-0.1,0-0.2l0-0.5l0.2-6.5c4.2-4.6,7.3-8.2,9.1-10.7l0.1-0.2l0.1-0.2l0.2-0.4
	c1.4-2.4,2.6-4.5,3.1-6c1-2.4,1.5-5.5,1.7-7.6c0.3-3.9,0-5.5-1.1-8.8c-0.6-2.4-2.4-6-4.1-8.3c-1.8-2.5-4.3-5.3-6.7-7.5l-0.1-0.1
	l-0.1-0.1l-2.1-1.7v-0.1c79.6,0,119.9,0,141.1-0.1c24.9-0.1,24.9-0.1,26.3-2.9c0.6-1.2,0.6-2.4,0.6-8.6c0-4.9-0.4-8.7-1-11.3
	c-0.5-2.5-1.5-6.4-2.2-8.9l-0.1-0.2l-0.1-0.2c-0.8-2.1-2.8-6.9-4.4-10c-1.4-3-4-7.8-5.8-10.9l-0.1-0.1l-0.1-0.1c-2-3-5.7-8.1-8-11.1
	l-0.1-0.1l-0.1-0.1c-2.9-3.5-7.6-8.9-11-12.5c-3.8-4-7.3-8.1-8.5-9.6l-0.2-0.2l-0.2-0.2c-1.2-1.2-4.1-5.1-6.3-8.7l0-0.1l-0.1-0.1
	c-2.4-3.5-5.4-9-6.9-11.7c-0.4-0.8-0.7-1.6-1.1-2.4c-0.5-1.2-1-2.1-1.4-2.9v-2.7l-0.6,0c0.2-0.3,0.4-0.5,0.6-0.8
	c0-0.1,0.1-0.1,0.1-0.2c3.9,3.6,7,6,9.5,7.3c2.2,1.2,5.6,2.9,7.9,3.9l0.2,0.1l0.2,0.1c1.8,0.6,5.7,1.7,8.7,2.1
	c2.7,0.5,6.3,0.5,10,0.5h0.1l0.1,0c4.5-0.3,7.8-0.8,11.1-1.8c2.7-0.8,7.2-2.6,9.7-3.7l0.1,0l0.1,0c2.4-1.2,6.4-3.4,8.7-5l0.1-0.1
	l0.1-0.1c1.8-1.4,5.4-4.2,7.9-6.9c1,1.2,2.7,2.9,5.6,5.8c3.9,4.1,6.8,6.6,9.7,8c1.8,1,4.9,2.3,6.8,2.9c2.5,0.8,5.1,1.1,9.7,1.1
	c4.2,0,7-0.2,10.7-1.3c2.5-0.6,5.8-1.9,7.8-2.9l0.1,0l0.1-0.1c2.9-1.7,5.1-3,6.5-4c2.1-1.5,4.7-4.4,6.1-6.1c1.5-1.8,3.9-5.1,5-7.4
	c1.1-2.2,2.1-5.5,2.6-7.3c0.9-2.9,0.9-5.3,0.9-9.8v-0.1L600,355.2z M114.2,249.7c-0.1,0.4-0.2,0.8-0.2,1.2c-0.1,0.7-0.8,2.9-1.7,4.6
	l-0.1,0.1l-0.1,0.1c-0.4,0.9-1.8,3-3.2,4.6c-1.3,1.3-3.7,3.2-5.2,4.1l-0.1,0l-0.1,0c-1.9,1.1-4.8,2.4-7,3.1
	c-1.2,0.4-2.5,0.7-3.8,0.9l0.2-14.6c0-9.2,0-18.7,0.1-26.3c1.3,0,2.5,0.1,3.5,0.2l0.2,0h0.2c2.2,0,4.8,0.4,6,0.7
	c1.9,0.8,3.6,1.6,4.4,2.2c2.2,1.9,2.7,2.5,2.8,2.7l0.1,0.2l0.1,0.2c0.6,0.8,1.5,2.3,1.8,2.9c0.3,0.8,0.9,3,1.4,5.2l0,0.1l0,0.1
	c0.5,1.9,0.8,4,0.8,4.8C114.6,247.3,114.4,248.7,114.2,249.7z M282.4,185.1v0.8l-14.7,0.2l-0.7,0l-0.6,0.3c-5.4,2.1-9.4,3.9-12,5.4
	c-2.1,1.1-5.5,3.3-8,5l-0.1,0.1l-0.1,0.1c-2.4,1.8-6.7,5.8-9.4,8.4c-2.8,2.8-6.2,7-8.2,9.5l-0.4,0.5l-0.1,0.1l-0.1,0.1
	c-2,2.8-5,8-6.9,11.6l0,0.1l0,0.1c-1.8,3.8-3.9,9-4.9,12c-0.9,2.6-2.4,7.5-3,10.5l-0.1,0.7c-0.5,2.7-1.1,6-1.3,8.4
	c-0.2,2.5-0.5,5.6-0.5,7.3v2.6v3.8c0.1,8.4-0.2,11.3-0.2,15.6c-0.1,3.4-0.2,9.5-0.3,16.5c-0.1-0.2-0.2-0.5-0.3-0.7l-0.1-0.2
	l-0.1-0.2c-0.8-1.2-2.9-4.2-5.2-6.3c-2.3-2.5-5-4.4-7.8-5.7c-2.6-1.4-5.4-2.3-9-2.9c-1.8-0.4-3.3-0.6-4.9-0.6c-1.6,0-3,0.2-5.1,0.6
	l-0.2,0l-0.1,0c-1.9,0.5-4.3,1.2-6.5,2c-0.2-12.4-0.4-23.1-0.4-32.5c0-23.4-0.3-25-1.3-27.3c-0.6-1.6-2.3-4-4.4-5.5
	c-1.7-1.7-3.8-2.9-6-3.5c-0.5-0.2-3.5-1.1-4.9-1.1h-0.6l-0.6,0.2c-0.2,0-0.4,0.1-0.6,0.1c-1,0.2-2.4,0.5-3.7,1.1
	c-1.8,0.6-3.2,1.3-4.2,2c-0.1-0.3-0.3-0.6-0.4-0.9c-0.9-2.3-2.6-5.2-3.9-7.1c-1.4-1.9-4-4.5-6.1-6.6l-0.1-0.1l-0.1-0.1
	c-1.1-1-2.6-2.2-3.9-3.3l64.6,0.2l2.7,0l0.9-2.6c9-27.2,13-38.9,14.4-43c3-0.2,10.5-0.2,23.9-0.4l3.7,0c15.8,0,24.3,0,27.3,0.2
	c0.3,0.6,0.6,1.3,0.9,2l0,0.1l0,0.1c1.1,2.3,3.2,4.4,3.8,5l0.2,0.2l0.2,0.2c1.2,0.9,3.2,2,4.1,2.5l0.4,0.2l0.4,0.1l0.5,0.1
	c1.1,0.3,2.7,0.7,4.3,0.9C282.4,179.1,282.4,183,282.4,185.1z M330.3,295.7c0,29.3-0.3,50.9-0.4,52.8c-0.2,1.8-0.8,4.2-1.1,4.9
	c-0.2,0.5-1.2,2.1-2.3,3.5c-0.6,0.7-2.1,1.7-3.2,2.2l-0.2,0.1l-0.2,0.1c-1.2,0.7-1.5,0.8-4.8,0.8c-3.1,0-3.6-0.1-5.1-0.8
	c-1-0.5-2.7-1.7-3.7-2.7c-1.2-1.5-2.1-2.8-2.3-3.2c-0.3-0.6-0.8-2-1-2.9l-0.1-0.4l-0.1-0.4c-0.2-0.6-0.5-3.1-0.5-6.1v-3.2
	c2.9-3.3,5.1-6.1,6.7-8.5c1.9-2.5,4.6-6.7,5.9-8.8c2-3.2,4.6-8.8,5.8-11.5c1.6-3.9,3.5-9.5,4.4-12.6c0.8-2.6,1.7-6.5,2.3-9.6
	C330.3,291.6,330.3,293.6,330.3,295.7z M487.2,323.2c-0.2,1.3-0.8,3.3-1.3,4.3l-0.1,0.2l-0.1,0.2c-0.6,1.4-1.7,3.2-2.3,3.7l-0.2,0.2
	l-0.2,0.2c-0.3,0.3-1.5,1.5-4.2,3.5c-1.6,1-4.6,2.4-6.8,3.4c-0.4,0.2-0.9,0.4-1.3,0.5c0.2-3.5,0.4-4.2,1.5-6.6
	c0.9-2.2,2-3.9,3.5-5.4l0.1-0.1l0.1-0.1c1.1-1.3,3.1-2.9,3.8-3.3l0,0c1.1-0.7,2.4-1.2,2.8-1.3l0.6-0.1l0.4-0.2
	c0.4-0.1,1.5-0.3,2.5-0.3c0.3,0,0.5,0,0.6,0c0.1,0.1,0.3,0.3,0.5,0.5l0.1,0.1l0.1,0C487.3,322.9,487.3,323,487.2,323.2z
	 M567.8,358.6l-0.1,0.2l-0.1,0.2c-0.2,0.5-0.5,1.1-0.7,1.4l-0.4,0.3l-0.4,0.6c-0.2,0.1-0.6,0.5-1.6,1.1c-0.5,0.2-1.2,0.4-3.4,0.4
	c-2.5,0-3.1-0.2-4.4-0.7c-1.3-0.7-3.7-2.4-6-4.8l0,0l0,0l-4.5-4.3l-0.1-0.1c1.6-3.5,3.8-8.5,4.8-11.1l0.1-0.3l0.1-0.3
	c0.3-1.2,0.9-2.8,1.4-4.4c0.5-1.4,0.9-2.8,1.3-4.1c1.7,1,3.8,2.6,5.1,3.8c1.4,1.2,3.2,3.3,3.9,4.2l0.3,0.4l0.3,0.3
	c0.6,0.6,1.7,2.3,2.3,3.7l0.1,0.2l0.1,0.2c0.7,1.2,1.5,3.4,1.9,4.9c0.3,1.1,0.5,3.4,0.5,4.9C568.2,357.4,567.9,358.3,567.8,358.6z"
	/>
<path id="Red" class="st1" d="M85.7,195.2c3.1,0,8.5,0.7,11.8,1.2c3.3,0.5,8.8,1.9,11.8,2.8c3.1,0.9,7.3,2.6,9.2,3.8
	c2.1,0.9,5.2,2.6,6.9,3.8c1.4,1.2,4.3,3.6,6.2,5.2c1.9,1.9,4.5,4.5,5.7,6.2s2.8,4.5,3.6,6.4c0.9,1.9,1.9,5,2.6,7.1
	c0.9,3.3,0.9,5,0.9,11.1c0,6.4-0.2,8.3-1.2,12.1c-0.7,2.6-1.7,5.9-2.4,7.6c-0.5,1.4-1.9,4.3-3.1,6.4c-1.4,2.4-4.3,5.9-6.9,8.8
	c-3.1,3.1-6.4,5.9-9.5,8.1c-2.8,1.9-7.8,4.7-11.4,6.4c-3.6,1.9-10,4.7-14,6.4c-4.3,1.7-7.8,3.1-8.1,3.3s-0.5,14.9-0.7,32.7
	c-0.2,25.1-0.5,32.7-0.9,34.6c-0.2,1.2-0.9,2.8-1.2,3.6c-0.5,0.9-1.7,2.8-2.6,4.3c-0.9,1.4-3.1,3.8-4.7,5.2
	c-1.4,1.4-4.5,3.6-6.6,4.5c-1.9,1.2-5.5,2.4-7.6,2.8c-2.8,0.7-5,0.7-7.8,0.5c-2.4,0-5-0.7-6.2-1.2c-1.2-0.7-3.1-1.9-4.3-2.8
	c-0.9-0.9-2.1-2.6-2.6-3.3c-0.2-0.7-0.9-2.6-1.2-4c-0.2-2.1-0.2-3.8,0-6.4c0.5-1.9,1.4-5,2.1-6.9c0.7-1.9,2.4-5,3.3-6.6
	c1.2-1.9,3.6-5.2,9-11.8V228.4l-3.1,1.7c-1.9,0.9-4.7,3.1-6.9,5.2c-2.1,2.1-4.3,4.7-5,6.2s-1.4,3.3-1.7,4.3c-0.2,1.1,0,2.3,0.5,3.6
	c0.7,1.4,1.2,1.9,3.1,2.6c1.4,0.5,2.6,0.9,3.1,0.9c0.3,0.2,0.4,0.8,0.2,1.9c-0.2,0.9-0.9,3.1-1.4,5c-0.7,1.9-1.9,4.7-2.6,5.9
	c-0.9,1.4-2.6,3.8-3.8,5.2c-1.7,1.7-3.6,3.1-5.5,4c-1.9,0.9-4,1.7-5.9,1.7c-2.1,0.3-4.1,0.2-6.2-0.5c-1.9-0.5-4.3-1.2-5.7-1.9
	s-3.6-2.1-5-3.3c-1.2-1.2-2.8-3.6-3.8-5.5c-0.9-1.7-1.9-4.7-2.4-6.9c-0.5-2.4-0.5-5.2-0.2-7.6c0-2.1,0.7-5.5,1.2-7.1
	c0.5-1.9,1.4-4.7,2.1-6.4s2.4-4.7,3.6-6.9c1.4-2.1,3.3-5.2,4.7-6.9c1.2-1.7,3.8-4.5,5.7-6.4c1.9-1.9,5.5-5,7.6-6.6
	c2.4-1.7,7.1-4.5,10.7-6.2s9-4,12.1-5c3.1-0.9,8.1-2.1,10.9-2.6c2.8-0.7,8.1-1.2,11.4-1.4C77.2,195.2,82.6,195,85.7,195.2z
	 M88.6,223c-0.2,8.3-0.2,19.7-0.2,30.8l-0.2,20.1c4.5-0.5,7.6-1.2,10-1.9s5.7-2.1,8.1-3.6c2.1-1.2,5-3.6,6.4-5
	c1.4-1.7,3.3-4.3,4-5.9c0.9-1.9,1.9-4.5,2.1-5.9c0.2-1.4,0.7-3.6,0.7-5c0-1.4-0.5-4-0.9-5.9c-0.5-2.1-1.2-4.7-1.7-5.9
	c-0.5-1.2-1.7-3.1-2.4-4c-0.7-1.2-2.6-2.8-4-4c-1.4-0.9-4-2.1-5.7-2.8c-1.7-0.5-5-0.9-7.6-0.9c-2.6-0.2-5.7-0.2-6.6-0.2L88.6,223z
	 M154.4,224.4c0.5,0,2.4,0.5,3.8,0.9c1.7,0.5,3.3,1.4,4.7,2.8c1.4,0.9,2.8,2.8,3.3,4c0.7,1.7,0.9,4,0.9,25.8
	c0,13.3,0.2,27.3,0.5,38.4l3.3-1.7c2.1-0.9,5.2-1.9,7.8-2.6c3.8-0.7,5-0.7,8.5,0c2.8,0.5,5.5,1.2,8.1,2.6c2.5,1.1,4.8,2.8,6.9,5
	c1.9,1.7,3.8,4.3,4.7,5.7c0.7,1.4,1.9,4.3,2.6,6.2c0.7,3.1,0.9,5.5,1.4,47.4l1.2,2.1c0.9,1.2,2.1,2.6,3.6,3.3
	c1.4,0.7,3.3,1.4,4.3,1.7c0.9,0,2.8-0.2,4-0.7c1.4-0.5,3.3-1.4,4-2.4c0.9-0.9,2.1-2.4,2.4-3.3c0.7-1.7,0.9-4,0.9-11.8
	c0-5.7,0-15.6,0.5-34.8l1.7-2.1c0.7-1.2,2.6-2.8,3.8-3.8c2.1-1.2,3.1-1.4,5.9-1.4c2.6,0,4,0.2,5.2,0.9c0.9,0.5,2.4,1.4,3.3,2.1
	c0.7,0.7,1.9,2.4,2.4,3.3c0.9,1.9,1.2,2.6,1.7,46.9l1.7,2.4c0.9,1.7,2.1,2.6,4,3.6c1.4,0.7,3.3,1.2,4,1.2c0.9,0,2.4-0.2,3.6-0.7
	c0.9-0.2,2.6-1.2,3.6-1.9c0.9-0.9,2.1-2.1,2.6-3.1c0.7-1.2,0.7-7.3,0.9-58.5c0.2-44.8,0.5-57.4,0.9-58.8c0.5-1.2,1.4-3.3,2.1-5
	c0.9-1.7,2.8-4.3,4.5-5.9c1.9-2.1,4.3-3.8,6.9-5c2.6-1.2,4.7-1.9,7.6-2.4c2.8-0.2,4.7-0.2,7.1,0c1.7,0.5,4.5,1.4,6.2,2.1
	c1.7,0.7,4,2.4,5.5,3.6c1.4,1.2,3.3,3.6,4.5,5c0.9,1.7,2.4,4.3,2.8,5.7c0.7,1.7,1.7,4.5,1.9,6.4c0.5,2.1,1.2,7.1,1.4,11.4
	c0.5,5.9,0.5,9.5,0,15.2c-0.5,4-0.9,9.7-1.7,12.6c-0.5,2.8-1.7,7.8-2.6,11.1c-0.9,3.1-2.8,8.5-4.3,12.1c-1.4,3.3-3.8,8.3-5.5,10.9
	c-1.4,2.4-4,6.4-5.7,8.5c-1.4,2.1-3.8,5.2-7.6,9.5v5c0,2.8,0.2,6.2,0.7,7.6c0.2,1.4,0.9,3.3,1.4,4.3c0.5,0.9,1.9,2.8,3.1,4.3
	c1.4,1.4,3.8,3.1,5.2,3.8c2.4,0.9,3.3,1.2,7.1,1.2s5-0.2,7.1-1.4c1.7-0.7,3.8-2.1,5-3.6c1.2-1.4,2.6-3.6,3.1-4.7s1.2-4,1.4-6.2
	c0.2-2.1,0.5-26.1,0.5-53.3c0-43.1,0-49.5,0.7-52.1c0.5-1.7,1.4-4.3,2.1-5.5c0.7-1.4,2.8-4,4.5-5.9c2.4-2.4,4.3-3.6,6.9-5
	c2.1-0.9,5.5-1.9,7.3-2.4c2.6-0.5,4.3-0.5,6.9,0c1.9,0.2,5,1.2,6.9,2.4c2.4,1.2,4.5,2.6,6.6,5c2.4,2.4,4,4.5,5.2,7.1
	c0.9,2.1,2.1,5,2.4,6.6c0.5,1.7,0.9,5.2,1.4,8.1c0.2,2.8,0.5,8.5,0.5,12.6c0,4.3-0.2,9.7-0.5,12.3c-0.5,2.4-1.2,7.3-1.9,10.7
	c-0.7,3.3-2.1,8.8-3.1,12.1c-1.2,3.3-3.6,9-5.2,12.3c-1.7,3.6-4.7,8.8-6.6,11.6c-1.9,2.8-4.7,7.1-10,13.3v4.3c0,2.6,0.2,5.7,0.7,6.9
	c0.2,1.4,1.2,3.6,1.9,4.7c0.5,1.2,2.1,3.3,3.6,4.7c1.4,1.4,4,3.1,5.7,3.8c2.4,1.2,4.3,1.7,6.9,1.9c2.8,0,4.5,0,7.1-0.9
	c2.1-0.5,4.5-1.7,5.9-2.6c1.2-1.2,3.1-2.6,3.8-3.6c0.7-0.7,2.1-3.1,4.7-8.1l0.2-18c0.2-14.7,0.5-18.2,1.2-19.4
	c0.2-0.7,1.2-2.1,2.1-3.1c0.7-0.9,2.4-2.1,3.8-2.8c1.7-0.7,3.3-1.2,5-1.2c1.4,0,3.3,0.5,4.7,0.9c1.2,0.7,2.8,1.7,3.6,2.4
	s1.9,2.4,3.8,6.2v43.6l1.4,2.1c0.7,1.2,1.9,2.8,2.8,3.3c0.7,0.7,2.6,1.4,3.8,1.7c2.1,0.5,3.1,0.5,4.7,0c1.2-0.2,3.1-1.2,3.8-1.7
	c0.9-0.7,2.1-1.9,2.6-2.8c0.7-0.9,0.9-2.4,0.9-3.3c0-0.9-0.2-3.6-0.7-5.7c-0.7-3.1-0.7-5.7-0.5-11.6c0.2-5.9,0.5-8.5,1.2-11.4
	c0.7-2.1,1.9-5.5,3.1-7.6c0.9-2.4,2.8-5.5,4-7.3c1.2-1.7,3.8-4.7,5.7-6.6c1.9-1.9,5.2-4.7,7.3-6.2c2.1-1.4,5.7-3.1,7.8-3.8
	c2.1-0.9,5.7-1.9,8.1-2.4c2.4-0.2,5.5-0.7,7.1-0.7c1.4,0,4.3,0.5,6.2,0.7c1.9,0.5,4.7,1.4,6.6,2.4c1.9,0.9,4.3,2.8,5.9,4.3
	c1.7,1.7,3.3,4,4.3,5.9s1.7,4.5,2.1,5.9c0.2,1.4,0.5,4.3,0.5,6.4c0,2.1-0.5,5.7-0.9,7.8c-0.5,2.4-1.7,5.7-2.6,7.3
	c-0.7,1.9-2.4,5-3.6,6.6c-1.2,1.9-3.1,4.3-4.3,5.5c-1.2,1.4-3.6,3.6-5.5,5c-1.7,1.4-4.5,3.6-6.4,4.7c-1.7,0.9-5.2,2.8-7.8,4
	s-4.7,2.1-5,2.4c-0.2,0,1.2,0.7,2.6,1.4c2.8,1.4,3.6,1.4,9,1.4c4.7,0,6.6-0.2,9.7-1.2c1.9-0.5,5.2-1.9,7.3-3.1
	c1.9-0.9,5.2-3.1,7.1-4.7s4.5-4,5.7-5.5c1.2-1.7,3.3-4.3,4.5-6.2s2.8-4.7,3.6-6.2c0.7-1.4,1.9-4.5,2.8-6.9c0.7-2.4,1.7-6.6,2.1-9.5
	c0.7-3.8,0.7-6.9,0.2-18l1.7-1.7c0.9-0.7,4.3-3.3,7.3-5.5c3.1-2.1,5.9-4,6.4-4s1.4,0.7,2.1,1.4c0.5,0.7,2.1,2.4,3.6,4
	c1.2,1.4,5.5,4.7,9,7.3c3.8,2.6,8.8,6.9,11.4,9c2.6,2.4,6.4,6.2,8.5,8.5c1.9,2.4,4.5,5.7,5.7,7.3c1.2,1.7,3.1,4.7,4,6.9
	c1.2,1.9,2.6,5.5,3.3,7.6c0.9,2.8,1.4,5.2,1.7,9.2c0,4.3,0,6.4-0.7,8.8c-0.5,1.7-1.4,4.7-2.4,6.6c-0.9,1.9-3.1,5-4.5,6.6
	c-1.4,1.7-3.8,4.3-5.5,5.5c-1.7,1.2-4.5,2.8-6.2,3.8c-1.9,0.9-5,2.1-7.1,2.6c-3.1,0.9-5.5,1.2-9.7,1.2c-4,0-6.4-0.2-8.5-0.9
	c-1.7-0.5-4.5-1.7-6.2-2.6c-2.4-1.2-5-3.3-8.8-7.3c-3.1-3.1-5.7-5.7-5.7-6.2c0-0.2,0.9-1.7,2.4-3.3c1.2-1.4,3.8-5.2,9.5-14l4.5,4.3
	c2.6,2.6,5.5,4.7,7.3,5.7c2.1,0.9,3.3,1.2,6.4,1.2c2.8,0,4.3-0.2,5.7-0.9c1.2-0.7,2.6-1.7,3.1-2.4c0.7-0.5,1.7-2.1,2.1-3.3
	c0.7-1.4,0.9-3.3,0.9-5.5c0-1.7-0.2-4.5-0.7-6.2c-0.5-1.7-1.4-4.3-2.4-5.9c-0.7-1.7-2.1-4-3.3-5.2c-0.9-1.4-3.1-3.8-4.7-5.2
	c-1.7-1.4-4.5-3.6-6.6-4.7c-1.9-1.4-3.8-2.1-4-2.1s-1.2,2.1-1.9,4.7c-0.7,2.6-2.1,6.6-2.8,9.2c-0.9,2.4-3.1,7.3-4.7,10.9
	c-1.7,3.3-5,9-7.1,12.3c-2.4,3.6-5.5,7.6-8.3,10.2c-2.4,2.6-6.2,5.7-8.1,7.1c-2.1,1.4-5.9,3.6-8.3,4.7c-2.6,1.2-6.9,2.8-9.2,3.6
	c-3.1,0.9-6.2,1.4-10.2,1.7c-3.6,0-7.1,0-9.5-0.5c-2.4-0.2-5.9-1.2-8.1-1.9c-2.1-0.9-5.5-2.6-7.6-3.8c-2.1-1.2-5.7-3.8-12.1-10
	l-1.4,2.6c-0.9,1.2-2.6,3.6-4,5c-1.4,1.4-4.3,3.6-5.9,4.5c-1.9,1.2-4.7,2.4-6.2,2.8c-1.4,0.5-4.3,0.9-6.4,0.9
	c-2.1,0.2-5.2,0.2-7.1-0.2c-1.9-0.2-4.7-1.2-6.4-1.9c-1.7-0.7-4.3-2.4-5.7-3.3c-1.4-1.2-3.6-3.6-6.9-8.1l-2.1,2.4
	c-1.2,1.2-3.3,3.1-5,4.3c-1.4,1.2-3.8,2.6-5.2,3.3c-1.2,0.7-4,1.9-6.2,2.4c-3.1,1.2-4.5,1.2-10.9,1.2c-6.6,0-7.8-0.2-11.4-1.4
	c-2.4-0.7-5.5-2.1-7.1-3.1c-1.9-0.9-4.7-3.3-6.4-4.7c-1.7-1.7-3.6-3.8-5.5-6.4l-2.4,3.3c-1.4,1.7-3.8,4-5.2,5.2
	c-1.4,1.2-4.5,3.1-6.6,4c-2.4,1.2-5.7,2.1-8.1,2.6c-3.1,0.7-5.7,0.7-9.7,0.7c-3.6-0.2-6.6-0.7-8.8-1.4c-1.9-0.7-5-1.9-6.9-2.8
	c-1.7-0.9-4.3-2.8-5.9-4c-1.4-1.4-3.3-3.3-4.3-4.7c-0.9-1.2-1.9-2.1-2.1-2.1s-0.9,0.9-1.7,2.4c-0.7,1.2-2.8,3.6-4.5,5.2
	c-1.7,1.7-4.3,3.6-6.2,4.5c-1.7,0.9-4.7,2.1-6.9,2.4c-2.6,0.7-5,0.7-7.6,0.7c-2.4-0.2-5.5-0.9-7.3-1.7c-1.9-0.7-4.7-2.1-6.2-3.1
	c-1.4-0.9-3.8-3.1-7.1-6.9l-2.1,2.6c-1.2,1.2-3.3,3.3-5,4.5c-1.7,0.9-4.5,2.4-6.4,3.1c-2.8,0.9-4.5,1.2-8.8,1.2
	c-4,0-6.2-0.2-8.3-0.9c-1.4-0.5-3.8-1.7-5.5-2.4c-1.4-0.9-4-3.1-5.7-4.7c-2.4-2.1-3.6-4-5-7.1c-1.2-2.1-2.1-4.7-2.4-5.7
	c0-0.9-0.2-11.6-0.5-23.5c-0.2-18-0.5-22-1.2-23.2c-0.2-0.9-1.2-2.1-1.7-2.6c-0.7-0.7-1.7-1.7-2.6-1.9c-0.7-0.5-2.6-0.9-4.3-0.9
	c-1.4,0-3.3,0.5-4,0.9c-0.9,0.2-2.1,1.2-2.6,1.9c-0.5,0.5-1.4,1.7-1.9,2.6c-0.5,1.2-0.7,5.7-0.9,29.9c-0.5,28.2-0.5,28.4-1.4,30.8
	c-0.7,1.4-2.1,3.1-3.1,4c-1.2,0.9-3.1,1.9-4.5,2.4c-1.4,0.5-3.3,0.7-5,0.7c-1.2-0.2-3.6-0.7-4.7-1.4c-1.4-0.7-3.3-2.1-4.3-3.3
	c-0.7-1.2-1.9-2.8-2.1-4c-0.5-1.4-0.7-15.4-0.9-111.9l1.9-4.3c0.9-2.1,2.4-6.2,3.1-8.8c0.7-3.3,1.2-6.9,1.4-11.1
	c0.2-5.2,0-7.6-0.7-12.1c-0.7-4.7-0.9-5.5-0.2-6.2c0.5-0.5,2.1-1.2,3.6-1.7C151.8,224.9,153.7,224.6,154.4,224.4L154.4,224.4z
	 M300.9,250.7c-0.2,1.2-0.5,14-0.5,28.7c0,14.5,0.2,26.8,0.5,27.3c0.2,0.7,0.7-0.2,2.4-3.6c1.2-2.4,2.6-6.4,3.3-8.8
	c0.7-2.4,1.9-6.9,2.4-10c0.7-4.3,0.9-8.1,1.2-19c0.2-9,0.1-14.1-0.2-15.4c-0.2-0.9-1.2-2.4-1.9-2.8c-0.7-0.5-1.9-0.9-2.6-0.9
	s-1.9,0.5-2.6,1.2C301.9,248.1,301.1,249.3,300.9,250.7z M360.2,248.6c-0.9,1.2-0.9,3.8-0.9,30.6v28.9c3.1-5.7,4.5-9.2,5.5-11.8
	c0.7-2.4,1.9-6.6,2.4-9.5c0.5-2.8,1.2-8.1,1.7-11.4c0.2-3.3,0.5-10.4,0.2-15.6c0-8.3-0.2-9.5-0.9-10.9c-0.7-0.9-1.7-1.9-2.1-2.1
	c-0.7-0.2-1.7-0.5-2.4-0.5c-0.5,0-1.4,0.2-1.9,0.7C361.3,247.1,360.6,248.1,360.2,248.6L360.2,248.6z M477.2,319.9
	c-1.2,0.7-3.6,2.6-5,4.3c-2.1,2.1-3.6,4.5-4.5,6.9c-1.4,3.3-1.7,4.5-1.9,9.2v5.5c3.1-0.7,5.9-1.4,8.1-2.4c2.1-0.9,5.7-2.6,7.6-3.8
	c1.9-1.4,4.3-3.3,5.2-4.5c1.2-1.2,2.6-3.6,3.3-5.2c0.9-1.7,1.7-4.3,1.9-5.9c0.5-3.1,0.5-3.1-1.4-4.7c-1.7-1.7-2.1-1.9-4.5-1.9
	c-1.4,0-3.6,0.2-4.5,0.7C480.3,318.2,478.4,319.2,477.2,319.9L477.2,319.9z M339.3,556c0.2,0.9,0.2,2.8,0,4.3c0,1.2-0.2,0.2-0.2-2.1
	C339.1,556,339.3,554.8,339.3,556L339.3,556z"/>
<path id="Blue" class="st2" d="M291.9,36.9h68.7l22.5,13h54.7c30.1-0.2,55.9,0,57.4,0.2c2.4,0.2,2.8,0.7,21.1,18V145l9.5,0.2
	l0.2,57.1l-68.3-0.2l-14.9-45l-5.2-0.2c-2.8-0.2-16.4-0.5-55.2-0.5l-0.7,2.4c-0.5,1.2-1.7,3.3-2.6,4.5c-1.2,1.4-2.8,2.6-4.5,3.3
	c-1.4,0.7-3.8,1.4-7.8,1.9l-0.2,21.1l8.1-0.2c5.7,0,9,0.2,10.9,0.9c1.7,0.2,5.5,1.9,8.5,3.3c3.1,1.4,7.6,4.3,10.4,6.4
	c2.6,1.9,6.9,5.9,9.5,8.5c2.6,2.8,6.2,6.9,7.8,9.2c1.7,2.6,4.3,6.2,5.5,8.5c1.2,2.1,2.8,6.2,4,8.8c1.2,2.8,2.6,6.9,3.3,9.5
	c0.7,2.4,1.7,7.1,2.1,10.2c0.5,3.3,0.9,7.8,1.4,13.7h-9c-9,0-9.2,0-9.5-1.2c-0.2-0.7-1.9-5.9-3.8-11.6c-1.9-5.9-3.6-11.1-3.8-11.4
	c-0.2-0.7-1.4,2.6-4.3,10.7c-2.1,6.4-4,12.1-4.3,12.6c-0.2,0.7-1.2,0.9-13.3,0.9l-0.2-2.6c0-1.4-0.5-5.9-0.7-10
	c-0.2-4.3-0.7-9-1.2-10.7c-0.5-1.9-1.7-4.7-2.4-6.6c-0.9-1.9-2.6-4.7-3.8-6.2c-1.2-1.7-3.1-3.8-4.5-5c-1.4-1.2-4-2.8-5.7-3.6
	c-1.7-0.7-4.5-1.7-6.6-2.1c-3.1-0.7-4.5-0.7-8.1-0.5c-2.6,0.2-5.7,1.2-7.3,1.7c-1.4,0.7-3.8,1.9-5,2.8c-1.4,0.7-3.6,2.4-4.7,3.6
	s-3.1,3.6-4,5.2c-1.2,1.7-2.4,4.5-3.1,6.2c-0.5,1.9-1.2,4.7-1.2,6.9c-0.2,1.9-0.5,3.6-0.7,3.6c-0.2,0-0.5-0.5-0.7-1.2
	c0-0.5-0.5-2.4-0.7-4c-0.2-1.7-1.2-4.5-1.9-6.2c-0.7-1.9-2.4-4.7-3.6-6.4c-1.2-1.9-3.3-4.3-4.7-5.5c-1.4-1.2-3.6-2.6-5-3.6
	c-1.2-0.7-4-1.9-6.4-2.4c-3.1-0.9-4.7-0.9-7.8-0.7c-2.1,0-5.5,0.7-7.1,1.2c-1.9,0.5-4.7,1.9-6.4,2.8c-1.7,0.9-4.5,3.3-5.9,5
	c-1.7,1.7-3.8,4.5-4.7,6.4c-0.9,1.9-2.1,5.2-2.4,7.1c-0.7,2.4-0.9,6.4-0.9,24.6l-20.9-0.2l-4-12.1c-2.1-6.4-4-12.1-4.3-12.3
	c-0.2-0.2-2.1,5.2-8.3,24.6h-20.1v-2.6c0-1.4,0.2-4.5,0.5-6.9s0.9-6.2,1.4-8.8c0.5-2.6,1.9-7.1,2.8-10c0.9-2.8,3.1-8.1,4.7-11.6
	c1.9-3.6,4.7-8.5,6.6-11.1c1.9-2.4,5.5-6.9,8.3-9.7c2.6-2.6,6.9-6.4,9-8.1c2.4-1.7,5.7-3.8,7.6-4.7c1.7-0.9,5-2.6,11.6-5.2l18.5-0.2
	v-4.5c0-2.4,0-7.1,0.5-16.6l-2.8-0.5c-1.7,0-4-0.7-5-0.9c-0.9-0.5-2.6-1.4-3.6-2.1c-0.9-0.9-2.4-2.6-3.1-4c-0.7-1.7-1.4-3.1-1.7-3.6
	c-0.2-0.9-2.1-0.9-30.1-0.9c-26.1,0.2-30.1,0.2-30.3,0.9c-0.2,0.5-3.8,10.7-15.2,45l-68-0.2l-0.2-28c0-26.1,0-28,0.7-28.4
	c0.7-0.5,2.6-0.7,8.8-0.7l0.7-76.8l5.9-5.7c3.1-3.1,7.3-7.1,13-12.6h56.9c50-0.2,57.4-0.2,58.8-0.9c0.7-0.5,5.7-3.3,10.9-6.4
	L291.9,36.9z M343.8,380.8c0.2,0,1.4,0.9,2.4,2.1c1.2,0.9,3.3,2.8,5,4c1.7,0.9,4.3,2.6,5.9,3.3c1.7,0.7,5,1.9,7.6,2.4
	c2.6,0.5,6.6,0.9,9,0.9s5.7-0.2,7.3-0.5c1.9-0.2,5-0.9,6.9-1.7c2.1-0.7,5.2-2.1,6.9-3.1c1.7-0.9,4.3-2.8,8.1-6.2l3.6,3.3
	c1.9,1.7,5.2,4,7.1,5c1.9,0.9,5,2.1,7.1,2.4c2.6,0.7,5,0.7,8.3,0.7c2.6-0.2,5.9-0.7,7.3-1.2c1.7-0.5,4.3-1.4,5.7-2.4
	c1.7-0.7,4.3-2.4,5.7-3.6c1.4-0.9,2.6-1.9,2.6-1.7c0.2,0,1.4,2.8,2.8,5.9c1.7,3.1,4.7,8.5,7.1,12.1c2.1,3.6,5.2,7.8,6.9,9.5
	c1.4,1.9,5.5,6.4,8.8,10c3.6,3.8,8.3,9.2,10.9,12.3c2.4,3.1,5.9,8.1,7.8,10.9c1.7,2.8,4.3,7.6,5.7,10.7c1.4,2.8,3.3,7.3,4.3,9.7
	c0.7,2.6,1.7,6.4,2.1,8.8c0.7,2.6,0.9,6.6,0.9,10.4c0,3.3,0,6.4-0.2,6.9c-0.5,0.9-4.7,0.9-167.8,0.9v5.7l3.6,2.8
	c2.1,1.9,4.5,4.5,6.2,6.9c1.4,1.9,3.1,5.2,3.6,7.1c0.9,2.8,1.2,4,0.9,7.3c-0.2,2.6-0.7,5-1.4,6.6c-0.5,1.4-2.1,4.3-3.1,5.9
	c-1.2,1.7-3.8,5-9.7,11.4l-0.2,7.8c-0.2,4.3-0.5,7.8-0.5,8.1c-0.2,0.2-5.9,0.5-24.9,0.5v-16.6l-4.7-4.7c-2.4-2.6-5.2-5.9-6.2-7.3
	c-0.7-1.4-1.9-4-2.6-5.7c-0.5-1.7-1.2-4.3-1.2-5.7c-0.2-1.4,0-4,0.2-5.5c0.5-1.4,1.4-4,2.1-5.9c0.9-1.7,3.1-4.5,4.7-6.4
	c1.7-1.7,3.8-3.8,7.1-6.2v-3.8c0-2.6-0.5-5.9-1.7-10.2c-1.4-5.9-1.7-6.4-9.2-18.2l-8.1-32.9l-9.5-14.2l-0.2-23.9h-6.9l0.2,5.7
	c0,3.3,0.2,10.4,0.7,26.5l5,7.3c2.6,4,5,7.3,5,7.6c0,0.2,1.4,6.9,3.3,14.7s3.6,15.2,4,16.1c0.2,0.9,2.1,4.3,4,7.1
	c2.6,3.8,4,6.6,4.5,8.5c0.5,1.4,0.7,2.8,0.5,3.1c0,0-32,0.2-70.9,0.5c-38.9,0-74.7-0.2-88.6-0.7l0.2-7.8c0-6.9,0-8.8,1.2-13
	c0.7-2.6,1.9-6.4,2.6-8.1c0.5-1.7,2.4-5.5,3.8-8.3c1.4-2.8,3.6-7.1,5-9.2c1.4-2.1,4.5-6.4,6.9-9.7c2.4-3.1,6.4-7.8,9.2-10.7
	c2.6-2.8,6.9-7.6,9.5-10.4c2.4-2.8,6.2-7.6,8.1-10.7c1.9-2.8,4.5-7.1,5.7-9.2s2.4-3.8,2.8-3.8c0.2,0,2.1,0.5,3.8,0.9
	c1.7,0.7,5,1.2,7.8,1.4c3.3,0.2,5.7,0,8.3-0.5c2.1-0.5,5.2-1.7,7.1-2.6c1.9-1.2,4.5-2.8,5.9-3.8c1.4-1.2,2.8-1.9,3.1-1.9
	c0.2,0,0.7,0.2,1.2,0.7c0.5,0.5,2.4,1.9,4.3,3.1c1.9,1.4,4.7,2.8,6.6,3.6c2.1,0.7,4.7,1.2,8.3,1.4c4,0.2,6.2,0,8.8-0.7
	c1.9-0.5,5.2-1.7,7.3-2.8c2.7-1.3,5.1-3.1,7.3-5.5c1.9-1.7,3.3-3.3,3.6-3.3c0,0,1.4,1.2,3.1,2.6c1.4,1.4,4.3,3.3,5.9,4.5
	c1.9,0.9,4.7,2.4,6.6,3.1s5.2,1.4,7.3,1.7c2.1,0.5,5.9,0.5,9.2,0.5c3.8-0.2,6.9-0.6,9.2-1.4c1.9-0.5,4.7-1.7,6.4-2.6
	c1.7-0.7,4.3-2.6,5.9-3.8c1.7-1.2,3.6-2.8,4-3.6C342.6,381.5,343.3,380.8,343.8,380.8L343.8,380.8z M243.8,256.6
	c0.2,0,1.4,3.6,5.2,15.6h8.3c4.5,0,8.3,0.2,8.3,0.5c0.2,0.2-2.4,2.4-5.5,4.7c-3.3,2.4-6.2,4.5-6.6,5c-0.9,0.9-0.7,1.4,1.4,8.3
	c1.4,4.3,2.6,7.8,2.4,8.1c0,0.5-3.1-1.7-6.9-4.3c-4-2.8-7.1-4.7-7.3-4.5c-0.5,0-3.3,2.1-6.6,4.5c-3.3,2.6-6.4,4.5-6.6,4.5
	c-0.2,0-0.2-0.5-0.2-0.9c0.2-0.5,1.4-4,2.6-7.8s2.1-7.1,2.1-7.3c0,0-2.8-2.4-6.4-5c-3.6-2.6-6.4-4.7-6.4-5c0-0.2,3.6-0.5,16.6-0.9
	l1.7-5.7c1.2-3.1,2.4-6.6,2.6-7.6C242.8,257.6,243.6,256.6,243.8,256.6L243.8,256.6z M412.1,256.6c0.2,0,0.5,0.2,0.7,0.7
	c0,0.5,0.9,3.6,2.1,6.9c0.9,3.3,1.9,6.4,2.4,7.1c0.5,0.9,0.5,0.9,8.8,0.9c8.1,0,8.5,0,7.6,0.9c-0.5,0.5-3.3,2.8-6.4,5
	c-4,2.8-5.7,4.5-5.7,5.2c-0.2,0.7,0.9,4.3,2.1,8.1c1.2,3.8,2.1,7.1,2.1,7.3c0,0,0,0.2-0.2,0.2c-0.2,0-3.1-1.9-6.4-4.3
	s-6.4-4.5-6.9-4.7c-0.5-0.2-2.1,0.5-7.1,4.3c-3.6,2.6-6.6,4.7-6.9,4.5c-0.2,0,0.5-3.6,1.9-8.1c1.4-4.3,2.4-7.8,2.4-7.8
	c0-0.2-2.8-2.4-6.6-5c-3.6-2.6-6.4-5-6.2-5.2s4-0.5,16.6-0.7l2.4-7.1c1.2-3.8,2.4-7.3,2.6-7.8C411.3,256.9,411.8,256.6,412.1,256.6z
	 M272,273.5l0.2,3.1c0.2,1.7,0.5,20.6,0.5,41.9c0,38.2,0,39.1-0.9,40.5c-0.5,0.9-1.4,2.1-2.4,2.6c-0.7,0.5-2.1,0.7-3.3,0.7
	c-0.9,0-2.6-0.2-3.3-0.7c-0.9-0.5-1.9-1.4-2.4-2.1c-0.9-1.4-0.9-2.8-1.4-45.5l-1.2-2.6c-0.7-1.4-2.1-3.6-3.1-4.7
	c-0.9-0.9-3.1-2.4-4.3-3.1c-2.1-1.2-3.1-1.4-6.6-1.4s-4.7,0.2-7.1,1.4c-1.4,0.7-3.6,2.1-4.5,3.3c-1.2,1.2-2.4,3.3-3.1,4.5
	c-0.9,2.1-0.9,3.1-1.2,24.4c-0.2,20.1-0.5,22.3-1.2,23.7c-0.5,0.7-1.4,1.7-2.1,2.1c-0.7,0.5-2.4,0.7-3.3,0.7c-1.2,0-2.8-0.2-3.6-0.7
	c-0.7-0.2-1.7-1.4-2.4-2.4c-0.9-1.7-0.9-1.9-0.9-29.6c0-15.4,0.2-34.1,0.5-41.7c0-8.5,0.2-13.5,0.7-13.5c0.2,0,3.1,1.9,6.2,4
	c3.3,2.4,6.4,4.7,8.3,5.9l-3.8,11.8c-2.1,6.6-4,12.3-4,12.6c-0.2,0.2,0,0.7,0,0.7c0.2-0.2,5-3.3,10.4-7.3c5.5-4,10.2-7.3,10.4-7.3
	c0.5-0.2,1.9,0.5,3.1,1.4c1.2,0.7,5.9,4,10.2,7.3c4.5,3.3,8.3,5.7,8.3,5.7c0.2,0-1.4-5.5-3.6-12.1c-2.1-6.9-3.8-12.3-3.8-12.8
	c0.2-0.2,3.6-2.8,7.3-5.7L272,273.5z M437.4,275.8c0.2,0,0.5,1.7,0.7,3.6c0.2,2.1,0.5,13.3,0.5,25.1c0.2,11.8,0.5,27.3,0.7,34.6
	c0.2,7.1,0.7,14,0.9,14.9c0.2,1.2,0.5,2.6,0.5,3.3c0.2,0.9-0.5,1.9-1.4,3.1c-1.2,0.9-2.4,1.7-3.6,1.9c-1.2,0.2-2.4,0-4-0.7
	c-1.4-0.5-2.6-1.4-3.1-2.4c-0.7-1.7-0.9-4-1.4-46.2l-1.2-2.4c-0.7-1.4-2.4-3.3-3.3-4.3c-1.2-1.2-3.1-2.4-4.3-3.1
	c-1.7-0.9-2.8-0.9-6.2-0.9c-3.6,0-4.7,0-6.9,1.2c-1.7,0.7-3.6,2.1-4.7,3.3c-0.9,1.2-2.4,3.1-2.8,4.3c-0.9,1.9-0.9,3.1-1.7,37.9
	l-1.4,2.8c-0.7,1.4-2.4,3.8-3.8,5c-1.4,1.4-3.6,2.8-4.7,3.6c-1.9,0.7-3.3,0.9-6.6,0.9c-3.6,0-4.5,0-6.9-1.2c-1.4-0.7-3.8-2.1-5-3.3
	c-1.2-1.4-2.6-3.6-3.3-5c-0.9-2.1-1.4-3.6-1.7-11.6l3.1-3.8c1.7-1.9,4.7-5.9,6.4-8.8c1.9-2.8,5-8.1,6.6-11.6c1.7-3.6,4-9,5.2-12.1
	c0.9-3.1,2.4-8.3,3.1-11.4c0.7-3.1,1.7-7.6,1.9-9.7c0.2-2.1,0.7-4,0.9-4.3c0-0.2,1.9,0.9,4.3,2.6c2.1,1.7,4,3.1,4,3.1
	s-1.7,5.7-3.8,12.6c-2.1,6.6-3.8,12.3-3.8,12.6c0.2,0,2.6-1.4,5.2-3.6c2.8-2.1,7.6-5.5,10.4-7.6c3.1-2.1,5.7-3.6,5.9-3.6
	c0.5,0.2,5.2,3.6,10.7,7.3c5.5,4,10.2,7.3,10.2,7.1c0.2,0-1.4-5.5-3.6-12.1s-3.8-12.3-3.8-12.6c0.2-0.5,2.8-2.4,5.9-4.7
	C434.6,277.7,437.4,275.8,437.4,275.8L437.4,275.8z M331.2,282.2c0.2,0,0.5,11.1,0.5,24.6s-0.2,29.4-0.5,35.1
	c-0.2,10.2-0.2,10.7-1.4,12.8c-0.7,1.2-2.4,3.1-3.3,3.8c-0.9,0.9-3.1,2.1-4.5,2.6c-1.7,0.5-3.1,0.7-5.2,0.5
	c-1.7-0.2-3.8-0.7-4.7-1.4c-1.2-0.5-2.8-1.7-3.8-2.8c-0.9-0.9-2.4-2.8-2.8-4c-0.7-1.7-0.9-3.8-1.4-12.6l3.3-4.3
	c1.9-2.1,4.7-6.2,6.4-8.8c1.7-2.6,4.3-7.1,5.9-10.2c1.4-2.8,3.1-6.6,3.8-8.3c0.7-1.7,1.9-5.2,2.8-7.8c0.7-2.4,1.9-7.1,2.6-10.2
	c0.7-3.1,1.4-6.4,1.2-7.1c0-0.7,0.2-1.4,0.5-1.4C330.8,282.5,331,282.2,331.2,282.2L331.2,282.2z M305.4,250.2
	c0.2,0,0.9,0.5,1.2,1.4c0.5,0.7,0.5,5.5,0.2,14c0,7.1-0.5,14.7-0.7,16.6c-0.5,2.1-0.9,4-1.4,4.5c-0.5,0.7-0.7-1.9-0.7-16.8
	c0-9.7,0.2-18,0.5-18.5C304.5,250.7,304.9,250.2,305.4,250.2z M364.2,250.2c0.2,0,0.9,0.5,1.2,1.4c0.5,0.7,0.5,5.2,0.2,13.5
	c0,6.9-0.5,14-0.7,15.6c-0.2,1.7-0.7,3.6-0.9,4c0,0.5-0.2,0.9-0.7,0.9c-0.2,0-0.5-6.2-0.5-17.1c0-9.5,0.2-17.3,0.5-17.8
	C363.2,250.5,363.7,250.2,364.2,250.2z"/>
</svg>
