<svg version="1.1" id="Layer_1" xmlns="http://www.w3.org/2000/svg" xmlns:xlink="http://www.w3.org/1999/xlink" x="0px" y="0px"
	 viewBox="0 0 600 600" style="enable-background:new 0 0 600 600;" xml:space="preserve">
<style type="text/css">
	.st0{fill:#FFFFFF;}
	.st1{fill:#FDB827;}
</style>
<path class="st0" d="M404.6,0l-25.5,24.9c-13.1,12.8-24.7,16.5-51.5,16.5l-195.1-0.3l-14.6,0l-5.4,13.6l-26.6,66.4l-7.8,19.5
	l19.2,8.3c8.5,3.7,13.6,11.4,13.6,20.6v304.2c0,9.3-5.1,17-13.5,20.6l-19.5,8.4l8.1,19.6l26.6,64.4l5.5,13.3h14.4h74.5h14.4
	l5.5-13.3l26.6-64.4l8.2-19.9l-19.9-8.2c-8.1-3.3-13.3-11.4-13.3-20.5v-98.4l99.1,0c23.6,0,36.6,4.9,51.5,19.5L404,419l10.7-33
	c9.5-29.1,39.9-53.3,79.3-63.1l27.9-6.9l-14.4-24.8c-14.6-25-21-47.3-21-72.4c0-31,5.6-54.4,18.1-75.9l14.4-24.8l-27.9-6.9
	c-37.7-9.4-66.9-45.9-76.3-77.2L404.6,0L404.6,0z M229,148.3h132.9c5.5,0,18.3,1.4,18.3,14.3v92c0,2.4-0.3,6.8-2.1,8.3
	c-0.9,0.8-4.7,3.3-16.2,3.3H229V148.3L229,148.3z"/>
<path class="st1" d="M394.2,40.3c-18.8,18.4-37.3,22.7-66.5,22.7l-195.1-0.3l-26.6,66.4c16,6.9,26.6,22.1,26.6,40.4v304.2
	c0,18.3-10.5,33.5-26.6,40.4l26.6,64.4h74.5l26.6-64.4c-16-6.6-26.6-22.4-26.6-40.4V353.8l120.6,0.1c29.2,0,47.7,7.2,66.5,25.6
	c12.3-37.8,49.2-66,94.6-77.3c-17.2-29.6-24-55.8-24-83.2c0-27.4,3.8-57.2,21.1-86.8C440.6,120.9,405.6,78.1,394.2,40.3z
	 M207.5,126.8h154.4c24.5,0,39.8,15.4,39.8,35.8v92c0,21.5-12.1,33.2-39.8,33.2H207.5V126.8z"/>
</svg>
