<svg version="1.1" id="Layer_1" xmlns="http://www.w3.org/2000/svg" xmlns:xlink="http://www.w3.org/1999/xlink" x="0px" y="0px"
	 viewBox="0 0 600 600" style="enable-background:new 0 0 600 600;" xml:space="preserve">
<style type="text/css">
	.st0{fill:#FFFFFF;}
	.st1{fill:#2F241D;}
</style>
<path class="st0" d="M336.2,0H146.7c-41.4,0-75.1,33.7-75.1,75.1v132.1c0,41.4,33.7,75.1,75.1,75.1H203v11.3v122.9h-41.3
	c-5.5,0-9.9-4.4-9.9-9.9v-11.4c0-27.7,5.8-37.1,6.7-38.5l23-19.8h-31.1H87H75.4v11.5v64.8c0,41.4,33.7,75.1,75.1,75.1H203v41.8
	c0,32.7-11.3,50.7-11.9,51.6L178,600l22.6-0.2h233.3c52.1,0,94.4-42.4,94.4-94.4V217.2c0-52.1-42.4-94.4-94.4-94.4l-233.3,0l-22.5,0
	l13,18.1c0.6,1,11.9,18.9,11.9,51.6v18h-37.8c-5.5,0-9.9-4.5-9.9-9.9v-120c0-5.5,4.5-9.9,9.9-9.9h160c1.9,0,3.6,0.9,4.9,2.5
	c2,2.3,2.9,5.8,2.5,9c-1,7.5-4.7,12.4-5.1,13l-17.8,19.3l26.6-0.2h63.5h11.5v-11.5V75.1C411.3,33.7,377.6,0,336.2,0L336.2,0z
	 M286.6,194.8h137c11.7,0,21.2,9.5,21.2,21.2v290.6c0,11.7-9.5,21.2-21.2,21.2h-137v-39.5H340c41.4,0,75.1-33.7,75.1-75.1V285.5
	c0-41.4-33.7-75.1-75.1-75.1h-53.4V194.8L286.6,194.8z M286.6,282.2h35c5.5,0,9.9,4.5,9.9,9.9v114.4c0,5.5-4.4,9.9-9.9,9.9h-35
	V293.6V282.2L286.6,282.2z"/>
<path class="st1" d="M433.9,134.3l-233.3,0c0,0,13.9,20.1,13.9,58.2V222h-49.4c-11.9,0-21.5-9.6-21.5-21.5v-120
	c0-11.8,9.7-21.5,21.5-21.5h160.1c12.3,0.2,20.4,12.4,18.7,24.6c-1.6,11.8-7.8,18.9-7.8,18.9h63.5V75.1c0-35.1-28.4-63.6-63.6-63.6
	H146.7c-35.1,0-63.5,28.4-63.5,63.6v132.1c0,35.1,28.4,63.5,63.5,63.5h174.8c11.9,0,21.5,9.6,21.5,21.5v114.4
	c0,11.8-9.7,21.4-21.4,21.4H275V293.6h-60.5V428h-52.8c-11.8,0-21.4-9.6-21.4-21.4v-11.4c0-38,10.2-46.8,10.2-46.8H87v64.8
	c0,35.1,28.4,63.5,63.5,63.5h64v53.4c0,38.1-13.9,58.2-13.9,58.2h233.3c45.8,0,82.9-37.1,82.9-82.9V217.2
	C516.8,171.4,479.7,134.3,433.9,134.3z M456.3,506.6c0,18.1-14.7,32.7-32.7,32.7H275v-62.6H340c35.1,0,63.5-28.4,63.5-63.5V285.5
	c0-35.1-28.4-63.6-63.6-63.6H275v-38.7h148.5c18.1,0,32.7,14.6,32.7,32.7V506.6z"/>
</svg>
