<svg version="1.1" id="Layer_1" xmlns="http://www.w3.org/2000/svg" xmlns:xlink="http://www.w3.org/1999/xlink" x="0px" y="0px"
	 viewBox="0 0 600 600" style="enable-background:new 0 0 600 600;" xml:space="preserve">
<style type="text/css">
	.st0{fill:#FFFFFF;}
	.st1{fill:#14264B;}
	.st2{fill:#B72126;}
	.st3{fill:#FEE60E;}
</style>
<path id="Outline" class="st0" d="M121.1,543.6c-19.3,3.5-39.3,7.1-56.4-1.4c-12.2-6-22-22.6-22.3-37.8c-0.3-13.7,1.5-28,6.5-43
	c1.4,1.5,3.1,2.3,4.8,3c3.8,1.4,9.3,1.3,13.9-0.2c7.1-2.4,14-4.7,20.8-7c-0.4,0.4-0.8,0.8-1.2,1.2c-14.4,16.2-20.4,35.4-16.8,53.1
	c-2.1,1.3-5,2.9-8.1,4.3c0,0-8,3.8-8.3,4l-2.2,1.3v2.5c0,2.5,0,2.5,9.6,8.3c0,0,4,2.6,6.2,7.2l2.6,5.4l6-0.1
	c5.4-0.1,9.8-3.1,12.4-5.4c9.2,4,18.9,3.1,27.5-2.7c7.2,4.3,14.7,5.1,18.6,5.3C130.1,542,125.6,542.8,121.1,543.6 M460.3,443.5
	h-24.3l-0.2,0.8c-3.2-0.5-6.7-0.4-10.3,0.2c-13.5,2.5-23.8,10.7-31,24.3c0.8-7.1,0-12.6-3.4-16.9c-3.9-5-9.4-7.7-15.8-8
	c-2.4-0.1-4.8,0.2-7.3,0.7l0.2-0.8h-36.3l0-0.1H327c6.6-3.2,11.1-9.9,11.1-17.7c0-10.9-8.9-19.7-19.7-19.7
	c-8.3,0-15.4,5.2-18.3,12.4l5.5-21.4l-42.5,16.7l-6.9,30.4c-14.7-2.1-24.7,5.6-31,13.4c1.1-2,2.9-5.3,2.7-5l4.3-6.9l-41.9,0l1.2-4.5
	h-33.7c0,0-6.3,25.3-9.2,34.3c1.5-6.5,7.4-32,7.4-32h-29c62-21.5,105.7-37.7,130.3-48.6c11.5-5.1,69.4-26.1,88.8-33.1
	c14.6-5.3,32.2-11.4,52.4-18.1c13.3,20.3,47.4,71.9,67.9,99.5C465.1,443.6,463.2,443.6,460.3,443.5 M322.9,313.3l2.6,1.1l-19,18.3
	c-7.6,0-10.2,7.6-10.2,7.6l-13.6,3.8c-0.6-0.6-3.9-0.9-3.9-0.9l17.1-14.8C309.7,324.2,322.9,313.3,322.9,313.3 M339.3,319.6
	l16.5,5.6L333,331c0,0-1.9-1.2-4.3-1.4L339.3,319.6L339.3,319.6z M585.7,507.5c-4.4-2.2-9.1-3.5-14.1-3.7
	c-0.4-6.4-2.5-12.5-4.3-17.7c-0.8-2.2-1.5-4.4-1.9-6.1c-2.2-8.4-2.8-11.8-0.8-17.2c4.2-11.6-10.5-18.2-16.4-20.9
	c0,0-1.8-0.8-1.8-0.8c-1.7-0.8-2.7-0.4-5.3,0.6c-2.1,0.8-4.6,2.5-7.8,5.4c2.7-4.4,4.4-9.9,4.8-15.8c1.7-1.3,3.3-3.2,4.6-5.8
	c4.4-8.8,4.6-23.4-8-38c-5.1-6-41.1-37.1-72.7-64.2l-0.1-0.1c11.1-3.6,28.1-9.1,28-9c2.4-0.6,6.2-2.4,9.8,0.8
	c3.1,3,9.2,4.1,14.5,0.4c9.2-6.4,4.1-20.6,2.2-25.9c-3.3-9.3-8-12.8-11.3-14.1c-3.2-1.3-6.6-1.3-9.6,0.2c-4.6,2.4-5.7,6.4-6.2,9.6
	c-0.6,3.5-6.1,4.3-16,6.8c0,0-33.9,9.2-36.3,9.9l-0.2-0.1l-8.2-7c-1.6-2.6-4.7-7.4-8.4-10.4c-0.7-10.6-8.9-23.2-15.6-28.4
	c-0.4-7.4-6.3-18.1-12.6-22c-28.3-49.9-53.6-82-77.3-97.9l-0.8-0.5c-4.2-2.8-4.6-3.2-4.8-5.5c-1.5-19.7-6.7-38.6-13.4-48.7
	c2.6-4.2,6.6-11.8,9.4-22.3c0,0,3-11.3,3-11.3l-3.4,2.3c0.9-2.9,1.7-6.3,2.6-10.4l0.1-0.5c0.3-3.4-2-4.7-2.8-5
	c-0.3-0.1-0.6-0.2-0.9-0.3c0.3-3.8-0.1-8.3-2.1-13.3l-2.6-6.8l-4.8,5.4c-9.9,11-25,16.8-38.3,21.9c-3,1.2-5.9,2.3-8.7,3.4
	c-21.7,9-35.1,18.6-47.8,45.7c-0.3,0.3-0.6,0.5-1,0.8c-5.7,4.8-17.7,14.9-24.5,34.8l-1.1,3.3l2.9,1.9c7,4.5,14.5,7.6,24.1,10.9
	c-35.8,80,32.3,127.4,89.3,156.5c-3.3,6.1-5.9,11.8-6.6,18.4l-25.5,26.9c-2.4,0.6-7.1,2.2-9.8,5c-0.9,1-1.8,2.3-2.6,3.9
	c-0.7,0.2-1.3,0.3-1.9,0.4c-16,3.2-41.5,9-109.2,27.8c-9.8-9-26.1-14.7-42.1-14.7c-25.4,0-41.8,13.6-58.6,34.1
	C8.7,430-18.7,511,17.6,553.8c6.2,7.3,29.6,31,69.6,27.9c10.7-0.8,18.7-2.6,25.8-4.1c14-3.1,20.4-4.5,34.3,4.9l5.6,3.7l5.3-4.2
	c7.9-6.3,21.4-4.2,32.2-1.6l21,4.9l-11-18.5c-14.7-24.7-35.5-28.3-56.5-26.5c11.8-3.3,19.7-13.8,25.4-26.2
	c-0.8,8.2,0.7,16.9,8.4,22.4c12.5,8.9,28.1,5,39.7-2.2c5.5,4.7,12.8,7.4,19.6,7.1c5.9-0.1,10.9-1.3,15.7-3.6
	c3.1,2.2,6.6,3.5,10.5,3.9c6.3,0.6,13.1-1.4,20.2-6.1c3.7,3.7,8.5,5.7,14,5.7c2.6,0,5.2-0.3,8-1l-0.3,1h38.2l5.1-18.8
	c0.5,3.7,1.6,7.3,3.7,10.4c2.4,3.4,7,7.7,15.5,8.4c9.1,0.8,20-2.7,28.8-8.9c9.6,9.4,21.6,11,36,4.5c2.8,2.4,7.7,5.3,15.1,4.3
	c5-0.3,10.1-2.5,15.4-6.5c4.3,4.3,10,6.6,16.2,6.5c10.3-0.2,19-6.3,25.8-12.7c7.5,7.7,18.9,15.5,36.4,12.6c3-0.5,5.5-1.2,7.7-1.8
	c5.8-1.5,6.5-1.7,11.1,2.2l13.7,11.6l1.4-17.5c0.3-0.9,2.2-6.2,11.4-12.3l13.3-8.8L585.7,507.5L585.7,507.5z"/>
<path id="Blue" class="st1" d="M333.7,426.2c0-8.4-6.9-15.3-15.3-15.3c-8.4,0-15.3,6.9-15.3,15.3c0,8.4,6.9,15.3,15.3,15.3
	C326.8,441.4,333.7,434.6,333.7,426.2 M583.7,511.5c-6-3-11.9-3.6-16.5-3.3c0.5-7-2-14.4-4.1-20.7c-0.8-2.3-1.5-4.5-2-6.4
	c-2.2-8.3-3.2-13-0.7-19.9c2.8-7.7-8.8-12.9-13.7-15.2l-2.1-0.9c0,0-1.9,0.7-1.9,0.7c-6.5,2.5-19.6,18.2-43.3,48.2
	c-2.8,3.5-5.6,7.1-7.8,9.9c1.5-6.7,6.2-28.2,8.5-38.5c9.1,0.8,16.1-4.9,17.8-13.6c7.6,1.9,15.9-9.2,15.9-23.4
	c4,0.3,15.4-17.4-2.4-38.1c-5.4-6.3-48.7-43.6-78.3-68.9l-0.1-0.1l35.8-11.5c2.2-0.6,6.3-1.5,8.3-1.4c1.3,0.1,4.1,2,5.4,3.5
	c1.3,1.3,4.9,2.9,9.1-0.2c5.7-4.2,3.1-13.9,0.6-20.8c-2.7-7.7-6.1-11-8.6-12c-2-0.8-4.3-1-6.6,0.1c-5.1,2.7-2.8,8.2-5.6,10.3
	c0,0-0.8,2.5-16.8,6.4l-36.7,10.4l-2.2,0.6l-0.2-0.1c-6.5-5.6-10.6-9-10.6-9c-2.6-4.4-6.2-9.2-9.5-11c0.7-10.8-10.2-25.8-15.8-28.4
	c1.5-4.7-4.9-18.2-11.2-21c-20.2-35.7-47.5-78-76.5-97.6c-4.6-3.1-7.1-4.5-7.5-9.4c-1.6-22-7.9-41.1-14.4-48.9
	c2.4-3.4,7.3-11.5,10.5-23.5c0,0-3.7,2.4-6.5,3.4c1.5-1.7,5.3-6,8.6-22.5c0.1-2-1.5,1.7-5.6,4.1c0.7-2.9,4.1-10.6,0.2-20.6
	c-13,14.4-33.8,20.3-48.6,26.4c-22.4,9.3-34.2,18.9-45.8,44.3c-4.1,3.7-17.7,13.2-24.9,34.3c7.2,4.6,15,7.7,26.1,11.5
	c0,0,0.1,3.5,0.1,3.9c-33.6,73.5,21.8,119.3,90.9,153.9c-4.5,8-8.1,14.4-8.5,22.3l-27.5,29c0,0-6.3,1.3-8.9,4.1
	c-1.1,1.2-2.1,3.3-2.6,4.7c-1.6,0.4-3,0.7-4.2,0.9c-16.7,3.4-43.7,9.6-111.3,28.4c-0.2-0.2-0.4-0.5-0.7-0.7
	c-8.8-8.8-24.6-14.5-40.1-14.5c-23.6,0-39.2,13-55.2,32.5C12.9,431.9-13.8,509.9,21,550.9c5.9,6.9,27.9,29.2,65.9,26.4
	c10.4-0.8,18.3-2.5,25.2-4.1c14.3-3.2,22.2-4.9,37.7,5.5l2.9,1.9l2.7-2.1c9.4-7.4,24.2-5.2,36-2.5l10.8,2.5l-5.7-9.6
	c-18.5-31.1-47-25.9-74.6-21c-20.1,3.6-40.8,7.3-59.2-1.8c-13.8-6.8-24.5-24.7-24.8-41.7c-0.3-16.7,3.4-35.2,9.2-51.2
	c4.6,5.9,10.3,9,15.6,7.6c0.7-0.2,1.4-0.4,2-0.7c0.5-0.1,1-0.2,1.5-0.3c93.9-31.6,157.6-54.7,189.3-68.7c11.6-5.1,69.6-26.2,89-33.2
	c17.2-6.2,36.7-12.9,55.7-19.3c11.5,17.5,56.6,86.1,76.3,110.9c-3.9,22.8-10.6,50-22,57c-0.5,0.3-1.1,0.7-1.6,1
	c2.5-13.3,10.7-48.5,12-53.8l1.4-5.9l-26.9,0l-0.5,1.8c-3.5-1.4-7.8-1.7-12.7-0.8c-20.8,3.9-33.5,23.1-37.6,57.1
	c-0.1,0.6-0.1,1.2-0.2,1.7c-4.1,4.7-7.3,5.6-8.2,5.2c-0.3-0.1-0.4-0.9-0.4-1.3c0.1-4,2.3-11.6,4.5-18.9c5.4-18.6,8.5-31.3,3.3-38
	c-3.1-3.9-7.4-6.1-12.5-6.3c-4.5-0.2-9.1,1.1-13.3,3.2l0.8-3.3h-27.9l-0.8,3.8c-3.2,15.4-12.4,48-18.8,55.4
	c-1.3,1.5-3.7,2.4-5.4,2.6c1.8-8.4,9.7-37.6,14.8-55.9l1.7-6h-28.3l-0.8,3.7c-0.1,0.4-9.3,41.4-16.5,54c-2.1,3.6-4,4.6-4.7,4.4
	c-0.5-0.1-1-0.9-0.9-1.9c0.7-9.6,16.2-71.6,22.1-94.7l2.3-9l-32.2,12.7l-7.4,32.4c-1-0.3-2-0.6-3.2-0.8
	c-20.7-3.5-30.8,15.4-34.6,22.5c-4.9,9.1-9.8,24.1-10.2,36c-3,3.5-6.7,6.2-7.9,6.1c-1-0.1-1.3-0.5-1.5-1
	c-3.9-7.7,8.4-36.9,18.3-55.2l3.8-7l-39.6,0l1.2-4.5h-24.4l-0.8,3.7c-5,21.4-13.9,49.4-21.7,60.4c-0.9,1.3-1.8,2-2.3,2.4
	c0.5-5.1,6.7-33.3,12.6-58.2l1.4-5.8h-27.9l-1.2,4.5c-9-3.3-20.9-2.7-30.7,8.4c-14.4,16.2-19.8,35-15.1,52.1
	c-2.1,1.6-6.7,4.2-11.2,6.3l-8,3.8l7.6,4.5c0,0,5,3.2,7.8,9l1.3,2.8l3.1-0.1c5.1-0.1,9.1-3.7,11.7-6.4c9.4,5.3,19.6,4.3,28.2-2.7
	c7.7,5.7,16.8,6.2,19.7,6.2c23.9,0,33.1-31.7,39.8-54.8c0.9-3.1,1.7-6,2.6-8.7h9.2c-0.6,1.4-1.2,2.8-1.8,4.3
	c-2.7,6.4-5.7,13.7-8,20.7c-2.6,7.9-8.7,26.3,2.7,34.4c11.2,8,26.5,3.7,37.6-4.2c5.3,6,13.1,8.6,19,8.3c6.2-0.1,11.4-1.5,16.2-4.4
	c3,2.8,6.5,4.4,10.4,4.8c7.3,0.7,14.7-3.1,20.6-7.7c3,4.7,7.5,7.3,13.2,7.3c4.7,0,9.7-1.3,14.5-3.7l-1,3.7h29l9.4-34.4
	c5.4-21.9,10.9-24.4,11.9-24.7c0.5-0.1,0.8,0,1.1,0.1c0,1.4-1.2,5.1-2.3,8.4c-1,3-2.2,6.7-3.4,11.1l-0.4,1.3
	c-2.4,8.6-6.5,22.9-0.4,31.7c1.8,2.7,5.4,5.9,12.2,6.5c9.3,0.8,20.8-3.5,29-10.4c11.6,14.2,25.6,10.7,36.4,5.2c3,3.3,7,6.2,13.9,5.2
	c6-0.4,11.6-4.1,16.3-8.2c3.7,5.4,9.2,8.4,15.6,8.3c10.5-0.1,19.2-7.6,26.1-14.6c8.4,9.8,18.9,17.4,35.5,14.6
	c2.8-0.5,5.2-1.1,7.3-1.7c6.2-1.7,8.8-2.4,15.2,3.1l7,6l0.8-9.2c0,0,1.1-7.2,13.4-15.3l6.9-4.5L583.7,511.5L583.7,511.5z
	 M309.4,335.8c-3.3,0.6-4.9,1.1-7.1,3.2c-1.6,1.4-2.6,3.5-3.2,5c-6.2,1.6-12.6,3.2-18.8,4.8c-1.4-0.8-4.1-1.9-8.3-1.6
	c-0.4,0-1.5-0.2-1.4-1.4c0.1-1,23.1-21.9,23.1-21.9c6.4-1.3,30.1-15,30.1-15l7.2,3l-0.5,1.2l-1,1.8l-18.7,19.9
	C310.3,335.1,309.9,335.7,309.4,335.8 M331,335.5c-1.6-1.2-3.4-1.9-4.9-1.9c-6,0.1-4-2.1-2.6-3.6l16-15c0,0,12.6,5.3,27.8,10.6
	C345.3,331.7,333.4,334.9,331,335.5 M103.4,511.2c-0.1,0-0.1,0-0.4-0.3c-0.3-0.4-2.9-4.3,0.5-17.8c2.5-10,6.2-16.7,10.4-18.9
	c0.8-0.4,1.9-0.8,3.5-0.8C115.2,492.1,109.3,511.2,103.4,511.2 M251.1,493.1c-1.2,4.8-2.4,9.7-3.5,14.8c-0.2,0.7-2.1,2.3-4.7,2.5
	c-1,0.1-2.7,0-3.1-0.9c-2.4-5.5,0.9-23.3,8.7-32.5c2.3-2.7,4.5-4.1,6.7-4.2C255.2,476.7,252.9,486.1,251.1,493.1 M418.9,511.4
	c-0.1,0-0.2,0-0.4-0.3c-0.3-0.4-2.9-4.2,0.5-17.8c2.6-10.2,6-16.5,10.1-18.6c1.4-0.7,3-0.9,4.8-0.7
	C431.4,492.7,425.2,511.4,418.9,511.4 M541,512.3c-1.1,1.1-3.2,1.8-5.4,1.8c-2.8,0.1-5.4-0.8-7.1-2.5c-8.6-8.1-8.6-8.1-4.5-13.5
	c2.7-3.5,5-6.7,7.3-9.9c2-2.8,3.9-5.4,5.8-7.8c0.7,4.8,2,9.3,3.3,13.5C543.2,502.7,544.5,507.8,541,512.3"/>
<path id="White" class="st0" d="M240.7,111.7c-1.5,2.4-4.2,3.9-7.2,3.7c-4.3-0.3-7.5-4-7.2-8.3c0.3-4.3,4-7.5,8.3-7.2
	c2.8,0.2,5.2,1.9,6.4,4.2c-5.3-0.6-6.5,4.6-6.5,4.6c-3.5-4.2,1-6.7,1-6.7c-3-0.4-5.8,1.9-6,5.3c-0.2,3.4,2.3,6.4,5.7,6.6
	C237.5,114.1,239.5,113.4,240.7,111.7"/>
<path id="Red" class="st2" d="M294.2,32c-11.3,11.9-29.3,15.8-44.7,22.2c-22.5,9.5-34.2,24.1-40,38.2c2.2,3.7,15.8,4.1,17.9,2.9
	c3.5-2.1,8.2-3.1,12-0.9c2.8,1.6,4.2,3.2,5.5,4c3.3,1.4,8,2.6,11.4,1.8c-15.2,15.2-17,35.3-15.5,38.6c-17.9,0-35.8,24.2-39.1,30.7
	c-19.1,72,90.1,119.5,100.9,124.6c-6.3,10.1-11.6,18.1-11.2,21.9c0.4,3,2.1,3.1,5.6,2.4c8-4.5,22.1-10.9,27-16.7
	c3-3.5-0.1-8.6-1.6-10.2c-1.6-1.8-0.7-3.4,3-1.1c3.5,2.9,4.1,4.6,5.2,7.1c1.6,3.7-2.9,7.7-2.9,7.7c12.3,5.6,54.3,22.1,67.3,24.7
	L380.9,307c-25.6-10.2-61.6-25.7-82.1-35.8c-31.7-15.7-84.1-48.5-58-98.7c7.6-12.8,10.5-13,11.6-10.1c0.1,0.3-0.2,1.2-0.5,1.3
	c-0.5,0.5-3.9,3.8-7.1,10.6c-24.6,45.7,26.3,78.4,56.3,93c43.4,21,83.6,37.2,110.1,46.1c4.1,1.4,7.7,2.7,10.6,3.6
	c8,2.4-2.3-25.5-12.4-28.3c-53.7-15.8-105.4-39.3-119.7-53.5c-8.6-1-31.5-8-35.2-39.1c-0.1-0.8-0.1-1.6,0.9-1.8
	c1-0.2,1.4,0.5,1.5,0.9c6.6,28.2,25.8,35.7,33.9,35.9c4.5,0.1,11.6-4.4,9.7-5.5c-13.9-8.1-21.8-24.4-22.3-26.1
	c-0.4-1.1,0-1.4,0.7-1.8c0.6-0.3,1.4-0.1,2.1,1c3.6,5.6,16.8,27.4,36.4,28c5.2,0.2,10.9,0,12-4.7c0,0-16.6-7.6-24.7-21.1
	c-0.3-0.4-0.5-1.2,0.5-1.9c1.1-0.6,1.9,0.5,2.4,0.9c15.8,16.2,28.5,22.8,36.2,22c3.1-0.2,5.3-2.4,5.4-4c0.4-5.9-5.6-9.5-7.1-10.6
	c-0.2-0.1-0.3-0.7-0.1-1c0.2-0.3,0.8-0.5,1.6-0.1c3.1,1.5,9.2,5.8,8.7,12.7c-0.1,1.2-0.3,2-1.2,3c9,4.7,24.3,10.8,31.3,13
	c-21.8-36.5-45.8-74.9-77.2-94c-0.8,2.7,1.8,8.9-1.3,7.4c-2.2-1-4.1-10.1-4.1-14.1c-0.4-21.1-6.2-38.6-13.9-48.8
	c-4.3,3.3-12,5-12,5.1c15.4-13.7,17.4-23.3,17.4-23.3c-4.5,3.5-15.3,8.3-20.9,9.3c0,0,17.6-10.3,24.7-28.6c0-0.2-11.2,11-27.7,14.7
	C267.4,62.8,294.7,50.4,294.2,32L294.2,32z M333,223.5c-0.3,2-0.9,3.9-4,5.3c28.6,17,59.2,26.3,65.9,28.2c1.4-1-2.1-14.1-11.7-17.5
	c-14.3-5.1-26.2-10.1-34.7-15.4C345.5,225.8,341,226.7,333,223.5z M304.8,227.9c-0.3,2.4-6.6,6-9.5,6.5
	c20.6,17.5,93.1,44.5,113.8,49.3c3.3,0.8-1.5-14.1-10.6-20.2c-6.7-4.5-48.5-14.2-75.1-33.3C318.9,230.9,313.3,231.1,304.8,227.9z
	 M428.2,306.1c0.9,1.9,1.3,4.3,1.7,6.5c3.6,17.3-9.4,7.7-42.7-3.5c26.7,42.2,67.4,104.5,90.4,133.6c1.3-8.6,2.2-16.1,2.8-21l0.5-4.2
	l4.8-1.9L423,335.2h5.6c0,0,35.8,46.2,61.7,78.7l18-7c-26.3-27.8-70.1-73.1-70.1-73.1l5.7,0.1c0-0.5,84.8,87.7,84.8,87.7
	c4.7,5.2,12.6-12.5-0.2-26.7C521.5,383.7,428.2,306.1,428.2,306.1L428.2,306.1z M91.5,375.5c-20.3,0-34.7,10.3-51.5,30.8
	C15.8,435.8-7.5,510.1,24.6,547.9c10.7,12.7,32.5,26.9,61.9,24.7c32.2-2.5,40.9-14.6,65.9,2.2c11.8-9.3,29.7-5.8,40-3.4
	c-29.4-49.5-85.7,1.9-131.8-20.9c-16-7.9-27.1-27.7-27.4-45.9c-0.4-18.3,4-38.7,10.8-56.1c-1.5-2.7-2.7-5.8-3.5-9
	c-3.5-13.5,0.9-26.9,8.8-30c0.4-0.2,0.9-0.4,1.4-0.5c8-2.3,15.6-4.3,22.9-6.4c2.6-2.3,5.2-4.2,7.8-5.8c9.2-5.4,26.9-5.6,37.2,1.9
	c-4.8,5.6-8.9,13.3-2.1,19.6c5.3,5.1,14,3,17.6-3.1c5.5-9.4,1-19.9-5.5-26.7C120.5,380.8,106,375.5,91.5,375.5L91.5,375.5z
	 M511.9,410.7l-5.1,23.6c5.3,6.3,8.9,10.4,9.7,10.7c8.2,3.6,14.1-12.6,10.9-17.2C526.3,426.3,520.3,419.7,511.9,410.7z M292.2,412.6
	l-21.2,8.4l-8.6,37.5c0,0-0.1-3.5-6.9-4.7c-15.1-2.5-23.5,8.6-29.6,20.1c-4.6,8.6-9.7,24.1-9.7,35.5c0,0-7.4,9.8-13.2,9
	c-19.8-2.6,13.2-63.2,13.2-63.2h-37.8l1.2-4.5H165c-4,17.2-13.2,49-22.5,62.1c-5,7.1-10.8,5.1-10.9,0.2c-0.2-5,12.7-59.9,12.7-59.9
	h-18.2l-1.7,6.6c-5.1-3.3-18.5-8.6-30.3,4.7c-15.5,17.4-18.1,35.9-13.4,49.8c0.6,2.6-14.4,9.8-14.4,9.8s6.2,3.7,9.7,11
	c5.7-0.2,10.6-8.1,11.2-7.7c8.9,6.7,19.7,6.6,28.7-3c5.5,5.8,13.7,7.9,19.8,7.9c24.6,0,32-43.3,38.9-63.5h19.6
	c-2.9,7.8-8.5,19.9-12.2,31.2c-3.9,11.9-6.3,23.8,1,29c11.2,7.9,27,0.7,35.9-7.2c3.7,7.2,11.5,10.7,17.8,10.5
	c6.9-0.1,12.1-1.9,17.2-6c9.5,13.1,24.1,3.1,32.1-4.3c1.4,5.5,4.9,10.3,11.4,10.3c7.8,0,16.1-4.3,22.5-10.5l-2.8,10.5h19.2l8.4-30.9
	c9.3-37.4,20.8-27.5,21.7-26c2.1,3.3-1.4,9.6-5.2,23.4c-2.7,9.6-9.8,32.1,7.3,33.5c9.8,0.8,22.6-5.2,29.2-12.9
	c9.8,15.7,21.5,15.2,36.9,6.4c3.4,4.3,5.9,7.4,12.1,6.6c7.2-0.3,14.3-7.4,18.2-11.4c2.2,6.2,6.7,11.6,14.2,11.4
	c10.4-0.2,19.7-9.9,26.5-17c9.2,11.9,18.4,19.7,34.4,17c11.1-1.9,15.5-6.7,26.3,2.4c0,0,0.8-9.1,15.5-18.9c-8.1-4.1-16.3-3-20.9-1.6
	c5.1-9.4-1.7-22.6-4.2-31.9c-2.2-8.4-3.6-14.3-0.6-22.7c1.4-3.8-9.7-8.6-11.5-9.4c-9.4,3.6-49.9,58.9-54.1,62.4
	c-1.9,1.7-6.6,4.3-3.8-7.8c0,0,20.3-92.1,20.2-92.2l-21.4,8.4c-2.4,20.4-8.8,77.8-28.3,89.8c-1.8,1.1-7.7,5.5-9.4,2
	c-1-1.9,12.6-59.4,12.7-60H443l-1.3,5.2c-2.8-5.2-10-5.2-14.6-4.4c-32.7,6.1-33.2,54.6-34.3,56.3c-9.5,11.7-18,8.7-17.7,1.5
	c0.4-12.4,15.3-45.4,8.8-53.8c-7.2-9.3-22.2-2.6-29.7,5.4l2.3-9.9h-18.1c-2.6,12.6-12,48.4-19.8,57.6c-4.1,4.8-14.6,6.2-14.1,1.1
	c0.5-5.9,15.3-58.7,15.3-58.7h-18.3c0,0-9.4,42-17,55.3c-6.5,11.4-14.9,6.4-14.5-0.2C270.8,496,292.2,412.6,292.2,412.6L292.2,412.6
	z M318.4,415.6c-5.8,0-10.5,4.7-10.5,10.5c0,5.8,4.7,10.5,10.5,10.5c5.8,0,10.5-4.7,10.5-10.5C328.9,420.3,324.2,415.6,318.4,415.6z
	 M505.4,440.9l-4.2,19.2c6.9-0.2,13.7-6.2,10.3-11.3C511.5,448.8,505.4,440.9,505.4,440.9z M542.4,467.6
	c-4.9,19.6,12.4,35.3,2.2,47.9c-4.1,4.3-13.8,4.9-19.3-0.4c-11.2-10.5-11-12-4.9-19.8C528.9,484,534.6,474.5,542.4,467.6
	L542.4,467.6z M254.7,468.1c1,0,2,0,3,0.3c5.6,1.4-1.2,20.7-5.5,40.5c-1.3,6.2-13.9,9.2-16.8,2.5
	C230.9,501.1,240.3,468.9,254.7,468.1z M117.7,468.8c1.5,0.1,3.1,0.4,4.8,1.1c0,0-3.9,46.1-19.1,46.1c-4.8,0-8.9-6.4-4.5-24
	C101.6,480.9,107.2,468.2,117.7,468.8z M433.8,469.2c1.6,0.1,3.4,0.5,5.3,1.3c0,0-4.6,45.7-20.2,45.7c-4.7,0-8.9-6.4-4.5-24
	C417.1,481,422.4,468.2,433.8,469.2z"/>
<path id="Yellow" class="st3" d="M204.9,99.3c-14.8,9.1-21.4,25.9-21.4,25.9c13-2.8,15-6.5,24.9-5.7c3.5,0.3,5.2,1.9,8,4
	c-4.3-1-7.6-1.2-11.2-1.3c-5-0.1-15,3.4-20,3.9c0,0,16.6,7.1,21.7,7.9c0,0,10.7,4.2,13.8-9.3c1.7-7.4-3.9-18-11-15
	C209.6,109.8,210.9,102,204.9,99.3z M501,281.9c-0.4,0-0.7,0-1.1,0.1c-3.4,0.6-3.6,4.6-3.6,4.6s0.6,3.5-3.4,6.4
	c-1.9,1.5-7.9,4.1-17.4,6L439,309.3l11.1,9.4l37.6-12.1c0,0,13.9-3.5,13.9-10c0-10.1,5.3,9.1,3.1,12.9c0,0,1.8,1.7,4.9-0.5
	c3-2.2,2.5-8.4-0.6-17C506.4,284.4,503.5,282,501,281.9z M373.2,327.7l-38.4,10.5c-0.3,0.1-0.6,0.2-0.9,0.3
	c4.3,5.3,6.5,13.8,0.7,19.5c3.5-1.3,8.1-2.9,8.1-2.9c15.4-5.5,34-12,55.2-19.1c0,0,0.1,0,0.2-0.1c-0.5-0.7-0.7-1.1-0.7-1.1
	C390.1,333,381.5,330.4,373.2,327.7z M325.6,341c-1.5,0.4-2.7,0.6-3.4,0.6c-2.3,0.6-31.7,8.2-38.2,9.9c6.8,6,7.9,18.1-0.1,25.1
	c16.5-6.1,35.2-13,45.4-16.7l2.1-0.8c2.4-4.3,2.2-12.9-2.1-16.4C328.3,341.9,326.9,341.4,325.6,341z M272.6,354.5
	c-0.2,0-0.5,0-0.8,0c-2.9,0.7-5.3,1.3-5.3,1.3c-10.9,2.7-18.5,4.5-22.6,5.3c-22.2,4.5-55.9,13.1-109.1,27.8
	c5.7,7.6,9.1,18.5,3.1,28.7c-2.6,4.4-7.2,7.4-12.3,8.1c-4.7,0.6-9.3-0.8-12.6-4c-3.8-3.5-8.4-10.7-1.6-21.6
	c-2.7-1.2-5.8-1.9-8.9-2.2L51,412.8c-0.3,0.1-0.5,0.1-0.8,0.2c-6.6,2.4-9.6,14.2-6.6,25.4c3,11.6,10.8,20.4,17.9,18.5
	c7-1.9,9.8-13.5,6.7-25c-1.2-4.5-2.1-7.5-4.4-10.7c0,0,4.8,4,7.1,13.9c1.9,8.4,1.6,15.2-0.7,19.8c90.7-30.6,152.4-53,183.4-66.7
	c3.6-1.6,11.9-4.8,24.5-9.6c0,0,1.3-0.5,2.2-0.8c2.9-5,3.5-17.1-2.5-21.3C276.4,355.6,274.3,354.9,272.6,354.5L272.6,354.5z"/>
</svg>
