<svg version="1.1" id="Layer_1" xmlns="http://www.w3.org/2000/svg" xmlns:xlink="http://www.w3.org/1999/xlink" x="0px" y="0px"
	 viewBox="0 0 600 600" style="enable-background:new 0 0 600 600;" xml:space="preserve">
<style type="text/css">
	.st0{fill:#FFFFFF;}
</style>
<path id="Yellow" class="st0" d="M594.7,251c0,0,5.3-19.8,5.3-45.5c0-91.5-71.3-161.4-174.5-161.4C351.1,44.1,288,99.3,254,99.3
	c-14.5,0-32.4-24.8-32.4-24.8S201.8,87.8,216,118c0,0-23.4-19-58.8-19c-52,0-68.5,41.6-68.5,41.6c-39.5,13.8-36.6,36-68.6,38.5
	c0,0,3.5,35,46.7,36.3c-16.5,30.5-66.8,35-66.8,35s14.3,26.7,58.4,26.7c28.5,0,48.3-11,48.3-11c-44.2,23.8-15.7,56.8-59.3,78.3
	c0,0,9.6,5.4,21.2,7.3c0,0,0.8,27.4,9.7,53.6c0,0-12.2-10-36.3-5.8c0,0,16.2,18.4,17.5,41.7c2,37.4,22.1,76.1,60.7,76.1
	c21.4,0,33.1-10.3,33.1-10.3c-5.2,19.5-38.5,32.3-38.5,32.3s17.6,16.5,43.9,16.5c40.9,0,46.8-43.3,90.5-43.3
	c33.5,0,62.4,28.9,115.7,28.9c134.6,0,212-141.7,218.3-196H440c0,0-18.6,56.7-60.2,56.7c-37.5,0-57.9-28.2-57.9-71.8
	c0-55.3,44.5-149.6,113.2-149.6c25.1,0,32.2,20.5,32.2,37.1c0,18.1-5.7,33.1-5.7,33.1L594.7,251z M92.3,349.3
	c9.6-2.1,15.3-17.8,24.5-17.8c10,0,10.8,14.2,51.2,27.6c-3.7,1.7-16.7,12.5-35.8,12.5C103.2,371.6,92.3,349.3,92.3,349.3L92.3,349.3
	z"/>
<path id="Red" d="M583.5,236.7c0,0,3.3-11.8,3.3-31.1c0-81.5-68.9-148-160.9-148c-71.2,0-127.4,55.6-172.9,55.6
	c-17.1,0-28.1-15.7-28.1-15.7s1.3,35.4,47.4,54.2c-55.9-2.6-70.5-39.9-113.7-39.9c-42.8,0-58.9,33.7-58.9,33.7s11.2-10.8,27.9-10.8
	c41.5,0,39,41.6,90,77.8c-29.3,0-40.6-15.8-76.5-15.8c-71.5,0-55.9,47.2-111.9,60.3c0,0,10.7,8,27.4,8c39.3,0,39.6-19.3,67.7-19.3
	c28.8,0,24.5,20.7,58.7,44.9c-7.9,2.4-31.5-15.4-55.1-15.4c-23.5,0-36.1,16.4-39.9,38.1c-3.8,21.8-15.3,27.4-15.3,27.4
	c23.5,1.4,25.3-23.8,42.2-23.8c16,0,26.2,22,46.9,26.2c16.6,3.4,36.4,7.9,43.8,20c-35.1,3.4-42.1,21.2-73.4,21.2
	c-35.5,0-50.5-27.8-50.5-27.8c-1.9,41.5,25.3,97.1,73.4,97.1c25.2,0,43.3-8.9,61.5,1c-58.8,16.8-35.2,67-75.4,85.8
	c0,0,6.8,3.3,17,3.3c34,0,40.2-45.5,90.9-45.5c37.5,0,65.8,29.3,115.9,29.3c110.2,0,190.3-112.8,199.7-166.9H450.8
	c0,0-21.2,57.7-70.8,57.7c-48.3,0-73.5-36.7-73.5-87.4c0-72.3,56.5-165.5,128.9-165.5c31.6,0,48.4,27.2,48.4,51.2
	c0,12.4-3.2,20.2-3.2,20.2h102.9V236.7z M162.4,178.1c0,0-19.9-26.9-51.4-26.9c-39.7,0-51.8,32.7-75.6,35.3c0,0,8,14.7,32.8,14.7
	C120.2,201.2,113.9,163.4,162.4,178.1 M188.8,459.3c-23.5-8.6-38.2,8.5-59.2,8.5c-37.5,0-38.6-44.8-64.4-53.1c0,0,6,12.9,6,20.9
	c0,14.4,8.6,69.4,48.8,69.4C153.6,505.1,152.7,478.3,188.8,459.3"/>
</svg>
