<svg version="1.1" id="Layer_1" xmlns="http://www.w3.org/2000/svg" xmlns:xlink="http://www.w3.org/1999/xlink" x="0px" y="0px"
	 viewBox="0 0 600 600" style="enable-background:new 0 0 600 600;" xml:space="preserve">
<style type="text/css">
	.st0{fill:#FFFFFF;}
</style>
<path id="Blue" d="M544.6,341.5c20.6-28.2,32.5-58,32.5-87.4c0-67-66.7-118-182.9-118c-4.2,0-8.4,0.1-12.7,0.2
	c-10.8-21.1-35-31-51.2-33.9l-30.2-47.8l-68.4,111.8c-122.3,44.9-221.2,133-221.2,217.8c0,30.5,13.9,57.7,40,78.3L0,545.2
	c0,0,104.4-15.1,224.7-21.6l8.8-23.3c47.9-4.6,95.8-17.1,140.1-35.3c-0.3,1.8-1.1,9.1,2,15.2l7.9,15.9
	c12.6,25.1,35.4,48.7,74.6,48.7c109.6,0,141.9-91.2,141.9-91.2C600,402.7,576.6,365.7,544.6,341.5"/>
<path id="Black" d="M566.5,424.7c-7,10.6-18.4,23.1-21.8,26.7l-0.1,31.9l-2.1,0.2l-4.3,0.4l-11-17c-79.7,56-139.5,21.5-139.5,21.5
	l18,27.6c32,41,136.5,26.2,181.1-49.7l-6-0.2C579.6,448.9,566.5,424.7,566.5,424.7"/>
<path id="Silver_1_" class="st0" d="M449.2,306.2l-96.9-153.3c-3.3-0.7-6.9-1.1-10.7-1.1l97.3,153.9
	C442.3,305.8,445.7,305.9,449.2,306.2 M154,326.1L300.4,86.9l9.5,15c3.9,0.4,7.5,0.9,11,1.5l-20.6-32.5L152.7,312
	C152.7,314.9,152.9,320,154,326.1 M316.6,422.4c-55.6,0-92.8,27.8-143.5,27.8c-70.5,0-92.1-49.8-92.1-84.2
	c0-106,125.1-170,125.1-170l2.5-4c-0.4,0.2-1.5,0.7-3.1,1.5c-20.8,10.2-133,70.3-133,172.6c0,16.4,3.8,31.2,10.4,43.8
	c1.5,2.8,3.1,5.6,4.9,8.3L16.6,534.3c0,0,87.7-12.5,202-18.9l26.5-70.1c23.2-6.8,45.8-13.7,75-13.7c61.9,0,101.6,33.1,101.6,33.1
	S399.2,422.4,316.6,422.4"/>
<path id="Red" d="M341.6,151.9c-25.4,0.1-60.2,16-97,42l16.7-27.3l11.5-9.3l8.7-31.7l14.2-4.4l4.2-20.2c3.5,0.2,6.8,0.4,10,0.8
	l-9.5-15L154,326.1c3.1,17.1,13.4,41.4,46.7,41.4c66.7,0,163.2-61.7,236.5-61.7c0.5,0,1.1,0,1.6,0L341.6,151.9z M93.2,425.5
	l-60,98.1c0,0,74.8-10,179.5-16.2l22.3-59.1c-19.9,5.7-40.9,10.6-67.5,10.6C137.7,458.8,110.7,446.5,93.2,425.5"/>
<path id="White" class="st0" d="M205.4,193.5C111.6,230,38.9,295.3,38.9,360.9c0,28.4,12.7,50.5,32.8,67.3l11.2-18.3
	c-6.6-12.7-10.4-27.5-10.4-43.8C72.4,263.8,184.7,203.7,205.4,193.5 M532.1,333c11.2-18.5,17.5-37.7,17.5-56.9
	c0-73.2-84.5-104.7-162.7-110.9c-0.5,6.1-1.9,12.6-4.3,19.8L460,307.4C484.1,310.6,509.6,319,532.1,333 M352.2,152.9
	c11,2.4,19.5,8.7,24.6,19.8c6.3-24.2-1.6-59.8-56-69.4c-3.6-0.6-7.3-1.1-11-1.5c-3.3-0.3-6.7-0.6-10-0.8l-4.2,20.2l-14.2,4.4
	l-8.7,31.7l-11.5,9.3l-16.7,27.3c36.8-26,71.6-41.9,97-42C345.3,151.9,348.9,152.2,352.2,152.9 M437.4,312.4
	c-80.4,0-168.7,62.6-238,62.6c-20.6,0-26.8-7.6-26.8-7.6l-3,4.7c0,0-85-40.8,31.1-167.1c0,0-99.9,52.1-107.9,157.5l6-5
	c0,0-3.1,70.9,77.2,70.9c64.6,0,87.5-24,147.5-24c127.9,0,148.4,72.9,148.4,72.9s-83.8,24.7-89.3-21.6c0,0-12.8,54.2,94.6,26.9
	c0,0,6.8-10.6,6-24.5c0,0,9.9,10,11.6,17.6c0,0,8.1-9.3-4.9-34.4c0,0,11.1,10.2,18.4,25l4.5-3.8c0,0,0.3-10.8-21.2-40l-14.7,9.2
	c0,0-34.2-64.6-161.3-56.3c0,0,105.8-37.5,167.4,38.9l13.3-9.1c0,0,36.9,35.9,46.4,77.9l2.1-0.2l0.1-31.9l0.1-38.1l10.7,12.5
	c0,0,5.2-9.4-1-29.1c0,0,24.9,24.3,32.3,69.6l1.9-25.2C588.6,419.4,552.5,312.4,437.4,312.4 M529.9,384.9l-3.7,27.4L509,394.2
	l-8.4,4.4c-11.5-14.6-56-51.7-108.1-51.7c-74.7,0-138.7,54-202.7,54c-69.9,0-72.7-41.7-72.7-58.2c0-30.6,17.9-64.1,17.9-64.1
	c-6.1,18.7-32.3,111.1,59.6,111.1c72.3,0,111.1-49.9,195.4-49.9c81.1,0,113.9,46.2,113.9,46.2l6.3-4l12,12.9l0.9-13.3l7.4-12.9
	c-17-33.6-55.1-45.4-55.1-45.4c49.9,9.4,64.8,45.8,64.8,45.8L529.9,384.9z M251,454l-7.1,18.8c42.1-1.5,84.7-10.1,124.2-23.8
	C324.8,428.9,257.8,451.6,251,454"/>
<path id="Silver" class="st0" d="M487.8,508.2l4.9-8.1c-66.4,22-93.8-0.8-93.8-0.8C421.4,524.6,469.6,513.5,487.8,508.2
	 M408.9,512.8c19.1,23.4,77.3,21,122.9-6.3l3.4-9C506.6,517.2,443.1,535.3,408.9,512.8 M301.3,259.3l-30.1,80
	c0,0-41.9,15.8-69.5,20.3c55.4,4.2,151.7-58.5,214.6-58.5c-28.3-8.8-96.3,18-96.3,18L301.3,259.3z M263.1,174.9
	c67.9-37.9,95.6-27.7,106.1-18.6c-32.3-33.9-100.4,10-100.4,10L263.1,174.9z"/>
<path id="Blue_1_" d="M300.6,285.4c-5.7,15.2-12.2,32.5-18.4,48.9L312,322C308.2,309.8,304.4,297.6,300.6,285.4 M365,145.6
	c-22.9-21.8-77.1-4-77.1-4l-1.5,5.8C341,127,365,145.6,365,145.6"/>
</svg>
