<svg version="1.1" id="Layer_1" xmlns="http://www.w3.org/2000/svg" xmlns:xlink="http://www.w3.org/1999/xlink" x="0px" y="0px"
	 viewBox="0 0 600 600" style="enable-background:new 0 0 600 600;" xml:space="preserve">
<style type="text/css">
	.st0{fill:#FFFFFF;}
</style>
<path id="Green" class="st0" d="M403.4,353.1c2.6-4.5,5-9.1,7.1-13.7L600,238H400.7c-14.9-15.7-36.6-25.2-63.1-27.9L321.8,53.5
	l-94.1,155.8H177L159.9,238H0l107.9,87l-67,112.1h49.2L24,546.5l204.3-109.4c6.1,0,12.1-0.2,18.1-0.5l124,99.9l-13.3-132.1
	C375.7,391.5,390.8,374.7,403.4,353.1L403.4,353.1z"/>
<path id="Black" d="M402.6,332l156.2-83.7H396.1c-14.6-17.5-38-27.3-67.9-28.5L314.6,85.4l-81.1,134.3h-50.6l-17.1,28.7H29.3
	l92.1,74.2L59.1,426.7h49.3l-56.1,92.8l173.3-92.8c8.1,0,16.1-0.2,24.1-0.7l107.8,86.9L346,399.2c19.5-12.4,35.4-29.2,48.3-51.3
	C397.6,342.6,400.3,337.3,402.6,332"/>
<path class="st0" d="M476.3,268.9l-0.4,0.1h-90.7c-9.8-17.9-31.9-28.7-63.8-28.7h-12l-9.2-91.2l-55.1,91.2h-50.5L177.5,269H88
	l60.5,48.7l-52.7,88.2l-0.3,0.1H182l-11.1,3l-0.2,0.2l-32.8,8.8l-28.6,47.4l-0.4,0.3l0.2-0.1l-0.1,0.2l0.4-0.4l111-59.4h4.7
	c11.2,0,21.6-0.4,31.3-1.3l75.5,60.9l0.1,0.1v-0.1l0.2,0.2l-0.2-0.4l-6.5-63.2c-2.2,0.2-4.4,0.4-6.6,0.6c-0.2,0-0.3,0-0.5,0
	c-2.1,0.1-4.2,0.2-6.3,0.3c-0.2,0-0.4,0-0.5,0c-2.1,0.1-4.2,0.1-6.2,0.1h-0.3c-2.1,0-4.1,0-6.1,0l0.1,0.1c-9.7-0.1-18-0.8-23.1-1
	c3.7-0.6,7.4-1.3,11-2.1c36.4-7.8,59.9-23.3,77.1-44.6c4.6-5.7,8.7-11.8,12.5-18.3c5.3-9.1,9.1-17.9,11.4-26.1
	c3.5-11.8,3.7-22.9,1.1-32.5c2.8,3.4,5.1,6.9,6.9,10.4h0.1c0.7,1.4,1.4,2.9,2,4.4c0.1,0.3,0.2,0.6,0.3,0.9c0.5,1.2,0.9,2.4,1.2,3.6
	c0.1,0.4,0.3,0.9,0.4,1.3c0.3,1.2,0.6,2.4,0.9,3.6c0.1,0.4,0.2,0.8,0.3,1.2c0.3,1.6,0.6,3.3,0.8,5l48.3-26.1l25.7-13.9l0.3-0.1h-0.2
	L476.3,268.9z M293.6,348.8c-15.9,9.3-35,10-51.6,10h-49.7v-0.1l27.6-45.1l8.5-13.8l-6.3-5l-12.5-10.1h74.9c1.5,0,3,0,4.4,0.1
	c1.2,0,2.4,0.1,3.5,0.1c0.4,0,0.7,0,1.1,0.1c0.8,0.1,1.7,0.1,2.5,0.2c0.5,0,0.9,0.1,1.4,0.1l2,0.2c0.5,0.1,1,0.2,1.5,0.2
	c0.6,0.1,1.1,0.2,1.6,0.3s1,0.2,1.5,0.3s0.9,0.2,1.4,0.3s1,0.3,1.5,0.4c0.4,0.1,0.8,0.2,1.2,0.3c0.5,0.2,1,0.3,1.5,0.5
	c0.3,0.1,0.7,0.2,1,0.4c0.5,0.2,1,0.4,1.4,0.6l0.8,0.4c0.7,0.4,1.4,0.7,2,1.1c0.4,0.3,0.8,0.5,1.2,0.8c0.2,0.1,0.4,0.3,0.6,0.4
	c0.4,0.3,0.8,0.6,1.1,1c0.1,0.1,0.3,0.3,0.4,0.4c0.4,0.4,0.7,0.7,1,1.1c0.1,0.1,0.2,0.3,0.3,0.4c0.3,0.4,0.6,0.9,0.9,1.3
	c0.1,0.1,0.1,0.2,0.2,0.3c0.3,0.5,0.6,1,0.8,1.6c0,0,0,0.1,0.1,0.1c0.3,0.6,0.5,1.2,0.7,1.9l0.2,0.2c0.2,0.6,0.3,1.2,0.5,1.9
	C325.6,316.2,313.7,337,293.6,348.8z"/>
</svg>
