<?xml version="1.0" encoding="utf-8"?>
<svg version="1.1" id="Layer_1" xmlns="http://www.w3.org/2000/svg" xmlns:xlink="http://www.w3.org/1999/xlink" x="0px" y="0px"
	 viewBox="0 0 600 600" style="enable-background:new 0 0 600 600;" xml:space="preserve">
<style type="text/css">
	.st0{fill:#FFFFFF;}
</style>
<path id="Green" d="M403.4,353.1c2.6-4.5,5-9.1,7.1-13.7L600,238H400.7c-14.9-15.7-36.6-25.2-63.1-27.9L321.8,53.5l-94.1,155.8H177
	L159.9,238H0l107.9,87l-67,112.1h49.2L24,546.5l204.3-109.4c6.1,0,12.1-0.2,18.1-0.5l124,99.9l-13.3-132.1
	C375.7,391.5,390.8,374.7,403.4,353.1L403.4,353.1z"/>
<path id="Black" d="M402.6,332l156.2-83.7H396.1c-14.6-17.5-38-27.3-67.9-28.5L314.6,85.4l-81.1,134.3h-50.6l-17.1,28.7H29.3
	l92.1,74.2L59.1,426.7h49.3l-56.1,92.8l173.3-92.8c8.1,0,16.1-0.2,24.1-0.7l107.8,86.9L346,399.2c19.5-12.4,35.4-29.2,48.3-51.3
	C397.6,342.6,400.3,337.3,402.6,332"/>
<path id="Silver" class="st0" d="M389.1,278.6c0,0-1.6-5.1-3.9-9.6l-31.7,15.5c2.1,5.4,5,18.3-2.9,37.4
	c-9,21.8-35.8,60.4-108.8,60.4h-98L95.5,406H182l-11.1,3l-62,56.7L220.4,406h4.7c11.2,0,21.6-0.4,31.3-1.3l19.6-2.4
	c3.7-0.6,7.4-1.3,11-2.1c36.4-7.8,59.9-23.3,77.1-44.6c4.6-5.7,8.7-11.8,12.5-18.3c5.3-9.1,9.1-17.9,11.4-26.1
	C391.5,299.3,391.7,288.2,389.1,278.6L389.1,278.6z M163.4,292.5L88,269l0,0l60.4,48.7L163.4,292.5z M278.6,240.3h30.8l-9.2-91.2
	L278.6,240.3z M396.1,289.1c0.7,1.4,1.4,2.9,2,4.4c0.1,0.3,0.2,0.6,0.3,0.9c0.5,1.2,0.9,2.4,1.2,3.6c0.1,0.4,0.3,0.9,0.4,1.3
	c0.3,1.2,0.6,2.4,0.9,3.6c0.1,0.4,0.2,0.8,0.3,1.2c0.3,1.6,0.6,3.3,0.8,5l0,0l48.3-26.1l26-14.1L396.1,289.1z M325.5,402.2
	c-2.2,0.2-4.4,0.4-6.6,0.6c-0.2,0-0.3,0-0.5,0c-2.1,0.1-4.2,0.2-6.3,0.3c-0.2,0-0.4,0-0.5,0c-2.1,0.1-4.2,0.1-6.2,0.1h-0.3
	c-2.1,0-4.1,0-6.1,0l0,0l33,62.5L325.5,402.2z M305.4,262.5h-89.8l-0.2-0.1l-71.5,119.9l48.4-23.6l27.6-45.1l8.5-13.8l-6.3-5
	l-12.5-10.1l0,0h74.9c1.5,0,3,0,4.4,0.1c1.2,0,2.4,0.1,3.5,0.1c0.4,0,0.7,0,1.1,0.1c0.8,0.1,1.7,0.1,2.5,0.2c0.5,0,0.9,0.1,1.4,0.1
	l2,0.2c0.5,0.1,1,0.2,1.5,0.2c0.6,0.1,1.1,0.2,1.6,0.3c0.5,0.1,1,0.2,1.5,0.3c0.5,0.1,0.9,0.2,1.4,0.3c0.5,0.1,1,0.3,1.5,0.4
	c0.4,0.1,0.8,0.2,1.2,0.3c0.5,0.2,1,0.3,1.5,0.5c0.3,0.1,0.7,0.2,1,0.4c0.5,0.2,1,0.4,1.4,0.6l0.8,0.4c0.7,0.4,1.4,0.7,2,1.1
	c0.4,0.3,0.8,0.5,1.2,0.8c0.2,0.1,0.4,0.3,0.6,0.4c0.4,0.3,0.8,0.6,1.1,1c0.1,0.1,0.3,0.3,0.4,0.4c0.4,0.4,0.7,0.7,1,1.1
	c0.1,0.1,0.2,0.3,0.3,0.4c0.3,0.4,0.6,0.9,0.9,1.3c0.1,0.1,0.1,0.2,0.2,0.3c0.3,0.5,0.6,1,0.8,1.6c0,0,0,0.1,0.1,0.1
	c0.3,0.6,0.5,1.2,0.7,1.9l0,0l31.3-15.3C345,264.7,320.6,262.5,305.4,262.5L305.4,262.5z"/>
<path id="White" class="st0" d="M256.5,404.8l75.7,61l-33-62.5c-9.8-0.1-18-0.7-23.1-0.9L256.5,404.8 M137.9,418L109,465.8l62-56.7
	 M192.3,358.7l-48.4,23.6h98c73,0,99.8-38.6,108.8-60.4c7.9-19.2,4.9-32,2.9-37.4l-31.3,15.3c0.2,0.6,0.3,1.2,0.5,1.9
	c2.8,14.5-9.1,35.3-29.2,47.1c-15.9,9.3-35,10-51.6,10h-49.7 M215.4,262.5l0.2,0.1h89.8c15.2,0,39.6,2.2,48.1,22l31.7-15.5
	c2.3,4.5,3.9,9.6,3.9,9.6c2.8,3.4,5.1,6.9,6.9,10.4l80.3-20.1h-91.1c-9.8-17.9-31.9-28.7-63.8-28.7h-42.8l21.6-91.2l0,0l-55.1,91.2
	h-50.5L177.5,269H88l0,0l75.5,23.5l-15,25.2L95.7,406l48.3-23.7L215.4,262.5L215.4,262.5z"/>
</svg>
