<?xml version="1.0" encoding="utf-8"?>
<svg version="1.1" id="Layer_1" xmlns="http://www.w3.org/2000/svg" xmlns:xlink="http://www.w3.org/1999/xlink" x="0px" y="0px"
	 viewBox="0 0 600 600" style="enable-background:new 0 0 600 600;" xml:space="preserve">
<style type="text/css">
	.st0{fill:#FFFFFF;}
</style>
<path id="Red_1_" d="M550.3,213.4c25.2-21.6,49.7-56.3,49.7-96.1c0-5.8-7-7.4-9.9-3.5c-26,35.5-50.5,48.9-65.3,54.1
	c24.6-18.6,48.8-49.1,54.9-83.6c0.7-6.3-6.2-8.1-9.3-4.8c-30.1,30.1-71.7,62.3-183.2,62.3c-27,0-57.8-0.8-77.7-0.8
	c-90.6,0-123.9,56-131.4,71.6c-7.5-1.1-15-1.7-22.5-1.7C69.8,210.8,0,280.6,0,366.5c0,85.8,69.8,155.7,155.7,155.7
	c63.2,0,119-37.3,143.4-95.3c1.7,0.2,3.5,0.5,5.1,0.5c19.7,0,23.9-5.8,23.9-10.6c0-2.6-2.6-5.7-3.9-7.6c28.9-0.2,37.4-1.5,49.9-5.8
	c2-0.6,3.2-2.5,3.2-4.5c0-4.3-8.8-11.3-15.1-16.8c40.5-0.7,70.3-7.9,70.3-17.4c0-1.8-0.2-4.2-10.9-12.6c22.8-6.2,63-21.6,63-31.6
	c0-3.9-3.4-6.3-7.3-9c35.5-13.4,65.4-37,65.4-45.5c0-6.8-10-7.4-15-7.8c17.7-11.3,42.4-30.7,42.4-39
	C570,210.4,556.5,213.8,550.3,213.4L550.3,213.4z"/>
<path id="White" class="st0" d="M539.9,215.6c28.3-21.2,55.2-57.9,55.2-98.3c0-0.9-0.8-1-1.2-0.6c-43.8,59.8-83.6,59.2-83.6,59.2
	c-1.7,0-2.2-2.4-0.8-3.4c28.3-16.6,58.6-50.9,65.4-89c0.1-0.5-0.7-1.1-1.2-0.6c-32.2,32.2-76.3,63.7-186.6,63.7
	c-35.3,0-53.7-0.8-77.7-0.8c-95.6,0-125,63.5-128.5,72c-8.4-1.4-16.9-2.1-25.4-2.1c-83.3,0-150.9,67.5-150.9,150.9
	s67.5,150.9,150.9,150.9c63.8,0,118.3-39.6,140.4-95.6c2.8,0.5,5.5,0.8,8.1,0.8c15.4,0,19.1-3.4,19.1-5.8c0-1.6-9.8-12.4-4.9-12.4
	c34.1,0,41.8-1.3,54.3-5.6c-6-9.4-27.8-21.6-16.6-21.6c54,0,71.7-10.4,71.7-12.6c0-2.6-17.2-15-17.2-15c24.9-4.1,69.3-24,69.3-29.3
	c0-3.1-12.7-8.3-10.6-11.2c39.5-13.1,68.8-38.6,68.8-43.3c0-3.7-23.1-3.3-23.1-3.3v-2.5c20-10.4,50.5-35.5,50.5-41.1
	C565.2,215.5,536.6,221.4,539.9,215.6"/>
<g id="Red">
	<path d="M192.7,338c-4.9-6.4-11.4-11.4-18.8-14.6l-1.2,1.2l2.5,17.2c0.8,0.6,1.5,1.3,2.3,2l12.6,0.1C191,341.9,191.8,340,192.7,338
		 M138.1,324.9l14,10.4c1-0.1,2-0.2,3-0.2l12.4-12.2l-0.3-1.7c-3.8-1-7.6-1.4-11.5-1.4c-6,0-12,1.2-17.6,3.4L138.1,324.9z
		 M168.3,328.9l-6.8,6.7c2.9,0.5,5.6,1.5,8.2,2.8L168.3,328.9z M173.4,392.4c-2.4,1.6-5,2.9-7.8,3.9l7.7,5.7L173.4,392.4z
		 M111,435.5l22.2-21.9c-8.7-4.1-16.1-10.6-21.3-18.6l-18.6,25C98.5,426,104.4,431.2,111,435.5 M181.6,348.8
		c1.2,1.8,2.3,3.7,3.1,5.7c1-1.9,2-3.7,3-5.6L181.6,348.8z M139.8,416.2c-0.5-0.2-1.1-0.4-1.6-0.6l-22.8,22.5
		c9,5.1,18.8,8.4,29.1,9.8L139.8,416.2z M181.4,385.8l-1.1,0.2c-0.6,0.8-1.3,1.5-2,2.2l-0.2,17.4l1.4,1c4.2-2.5,8-5.7,11.2-9.3
		C186.1,393.1,182.8,389.1,181.4,385.8 M137.9,340.5c2.4-1.6,5-2.9,7.8-3.9l-7.7-5.7L137.9,340.5z M109.3,390.5
		c-0.3-0.5-0.5-1-0.8-1.5l-32-0.3c2.8,9.9,7.4,19.2,13.7,27.5L109.3,390.5z M173.3,408.1l-14-10.4c-1,0.1-2,0.2-3,0.2l-12.4,12.2
		l0.2,1.7c3.8,1,7.6,1.4,11.5,1.4c6,0,12-1.2,17.6-3.4L173.3,408.1z M143,404.1l6.8-6.7c-2.9-0.5-5.6-1.5-8.2-2.8L143,404.1z
		 M178.1,413.6l-0.3,32c9.9-2.8,19.2-7.4,27.5-13.7l-25.7-19.1C179.1,413.1,178.6,413.4,178.1,413.6 M129.7,384.2
		c-1.6-2.4-2.9-5-3.8-7.8l-5.7,7.7L129.7,384.2 M133.9,389.1l-17.4-0.1l-1,1.4c5.1,8.5,12.8,15.3,22,19.2l1.2-1.2l-2.5-17.2
		C135.4,390.5,134.6,389.8,133.9,389.1 M133,344.7l0.1-17.4l-1.4-1c-8.5,5.1-15.3,12.8-19.2,22l1.2,1.2L131,347
		C131.6,346.2,132.3,345.4,133,344.7 M118.1,353.8l6.7,6.8c0.5-2.9,1.5-5.6,2.8-8.2L118.1,353.8z M110.4,355
		c-0.9,3.8-1.4,7.6-1.4,11.5c0,6,1.2,12,3.4,17.6h1.7l10.4-14c-0.1-1-0.2-2-0.2-3L112,354.7L110.4,355z M145,417.6l4.5,30.9
		c7.9,0.6,15.7,0.1,23.4-1.6l0.3-31.2c-5.6,2-11.6,3-17.5,3C152,418.7,148.4,418.3,145,417.6 M201.3,304.5c0-2.1,0-4.3-0.1-6.4
		c-0.3-0.2-0.6-0.4-0.9-0.6l-22.2,21.9c6.5,3.1,12.3,7.5,17,12.9C198.5,323.2,201.3,313.1,201.3,304.5L201.3,304.5z M131.7,320.1
		c0.5-0.3,1-0.5,1.5-0.8l0.3-32c-9.9,2.8-19.2,7.4-27.5,13.7L131.7,320.1z M166.3,315.4l-4.5-30.9c-2.1-0.2-4.1-0.2-6.2-0.2
		c-5.9,0-11.7,0.6-17.3,1.8l-0.3,31.2c5.6-2,11.6-3,17.5-3C159.3,314.3,162.9,314.6,166.3,315.4 M220.4,417.2
		c-9.5-4.9-18.4-10.7-25.4-16.3c-3.1,3.6-6.7,6.7-10.7,9.3l25,18.6C213.3,425.3,217,421.4,220.4,417.2 M196,294.8
		c-9-5.1-18.9-8.4-29.1-9.8l4.6,31.7c0.5,0.2,1.1,0.4,1.6,0.5L196,294.8z M73.5,366.5c0,5.9,0.6,11.7,1.8,17.3l31.2,0.3
		c-2-5.6-3-11.6-3-17.5c0-3.7,0.4-7.2,1.1-10.7l-30.8,4.5C73.5,362.4,73.5,364.4,73.5,366.5 M74.2,355.3l31.7-4.6
		c0.2-0.5,0.4-1.1,0.6-1.6L84,326.2C78.9,335.2,75.6,345,74.2,355.3 M86.6,321.9l21.9,22.2c4.1-8.7,10.6-16,18.6-21.3l-25-18.6
		C96.1,309.3,90.9,315.2,86.6,321.9 M155.7,383.4c9.4,0,17-7.6,17-17s-7.6-17-17-17s-17,7.6-17,17S146.3,383.4,155.7,383.4"/>
	<path d="M155.7,264.8C99.5,264.8,54,310.3,54,366.5s45.5,101.7,101.7,101.7c34.3,0,64.6-17,83-43c-4-1.4-7.9-3-11.7-4.8
		C210.7,442,184.8,456,155.7,456c-49.4,0-89.5-40.1-89.5-89.5s40.1-89.5,89.5-89.5c16.5,0,32,4.5,45.3,12.3c-0.1-4.4-0.1-9,0.2-13.8
		C187.4,268.6,172,264.8,155.7,264.8"/>
	<path d="M268.7,429.2c-6.6,1.6-15,0.6-24.1-2.1c-19.4,28.4-52,47-88.9,47c-59.4,0-107.6-48.2-107.6-107.6c0-1.9,0.1-3.8,0.1-5.7
		c-3.3,5-2.4,13.4-8.3,13.4c-4.7,0-2.1-6.4-5.5-6.4c-2.1,0-2.4,2.9-5.1,2.9c-0.3,0-0.6-0.1-0.8-0.1c-0.6,0-0.8,1.2-1.9,1.2
		c-1.4,0-2.3-1.6-3.4-1.6c-1.2,0-1.6,2.4-3.3,2.4c-1.7,0-3.3-2.8-4-4.1c1.1,76.2,63.2,137.7,139.6,137.7c58.5,0,108.6-36,129.4-87
		c-15.7-4.7-30.6-12.7-30.6-12.7C255.4,415.7,268.7,429.2,268.7,429.2 M29.9,313.1c3.2,2.7,0.7,7.3,3,10.5
		c17.7-50.8,66-87.2,122.8-87.2c18.6,0,36.2,3.9,52.2,10.9c1.2-3,2.6-5.9,4.1-8.7c-17.2-7.6-36.3-11.8-56.3-11.8
		C97,226.8,46.8,263,26.1,314.3C27.2,315,28.5,312,29.9,313.1 M326.2,169.5h76.9c98.2,0,141.2-35.1,158.1-66.2
		c1-1.9-0.2-2.3-2.1-0.6c-21.4,19.2-53.3,52.6-183.5,52.6h-54.9c-86.4,0-119,39-127.5,65c4.3,1.1,8.6,2.4,12.7,3.9
		C221.3,196.5,250.6,169.5,326.2,169.5"/>
	<path d="M324.4,189.3c-76.9,0-121.2,52.8-116.1,103.3c3.8,37.6-17.3,68.1-17.3,68.1s29.3-13.3,29.3-66.8c0-50.8,50.5-87.7,93-87.7
		c41.1,0,88.9,0.3,112.6,0.3c125.5,0,155.9-58,160.2-69.3c0.8-1.7-0.3-1.4-0.7-0.6c-26.2,35.3-62.9,55.5-162.5,55.5
		C359,192.2,338.8,189.3,324.4,189.3"/>
	<path d="M353.1,233.3c-20.8,0-22.9,5.8-22.9,5.8c-0.7,0.8-0.3,2.7-1.8,3.3c-4.7,1.8-10-2.1-14.1,3.2c-2.5,3.2-8.4-0.7-12.3,1.5
		c-0.9,0.5,0,2.7,0.7,3c1.8,0.8,4.8,0.6,5.9,1.5c1.2,1,1.1,2.4,2.2,3.2c1.4,1,3.9,1.5,5.1,3c0.9,1.2,1.2,3.6,2.5,3.7
		c31.2,1.8,63.2,1.8,92.8-9.7C414.6,246.5,382.2,233.3,353.1,233.3 M230.6,302c0.4,3-0.4,7.6,0.2,7.7c21.7,2.4,43.7-1.5,63.8-10.7
		c5.6-2.4-21.8-16.6-44.6-16.6c-7.4,0-12.4,3.2-12.4,3.2c-1.3,0.7-2.3,3.7-3.8,5.9c-1.1,1.6,1,4.2,0.1,5.3
		C232.3,298.7,230.3,299.9,230.6,302L230.6,302z M260.2,249.2c-1,0.2-1.8,1.9-2.6,3c-2,2.8-8.2,2.2-8.2,5.3
		c0.1,5.8-6.3,6.8-7.4,10.9c-0.8,3.2-2.5,5.7-2.8,9.2c23,0.1,46.7-1.4,67.1-13.1C311.8,262.2,278.3,246.6,260.2,249.2 M333.5,229.5
		c-1.7-6.7-9.8-7.9-15.3-11.2c-2.2-1.3-4.8-0.7-7.3,0.4c-5.5,2.4-12.5-1.6-18.2,2.4c-1.6,1.2-2.5,3.3-4.6,3.9
		c-2.6,0.7-5.2,0.8-7.8,1.1c-1,0.1-2.8,0.8-2.7,1.9c0.5,4.7-3.8,5.7-7.3,6.9c-3.4,1.2-2.2,5.7-2.3,9
		C290.5,244.1,313.9,241,333.5,229.5 M219.2,340.2c5.8,3,33.7-1,48.2-10.1c-14.9-12.7-38.8-17.3-38.8-17.3
		C225.2,321.9,221.8,330.9,219.2,340.2"/>
	<path d="M215,345.5c-2.7,1.4-5.8,5.6-3.4,7.2c4.4,3,11.8,9.7,45.6,9.7c33,0,45.5-10.2,51.8-16.5c0-4.1-29-12.4-32.9-10.2
		c-1.2,0.6-1.3,1.8-1.5,2.3c-1.3,0.5-5.3,0.6-6.3,1.3c-2.2,1.7-1.8,4.3-2.4,4.5c-5.1,1.3-11.5-2-16.4,0.3c-1.3,0.6-1.2,4.2-2.9,4.4
		c-3.5,0.3-7.4-1.8-10.8-0.8c-0.6,0.2-2.4,0.5-3.6,1.2c-1.8-0.9-2.8-1.2-5.2-1.8c-1.8-0.4-3.5,0.8-5.7,0.4
		C219.2,347.2,216.9,344.5,215,345.5 M348.7,321.7c6.1-3.2,13.4-3.5,17.9-9.5c-27.3-14.3-59.3-12.8-63.2-10.5
		c-1,0.6-2.1,2.6-3.3,3.3c-1.9,1.2-3.6,0.6-4.9,1.9c-0.7,0.7,0.1,2.7-0.5,3.4c-0.7,1-2.2,1.1-3.1,1.6c-1,0.5-3-0.3-4.5,0.3
		c-1.5,0.6-1.6,2-2.5,2.5c-3.7,1.9-9-0.3-11.5-0.3c-1.3,0-1,2.1-0.5,2.5c1.6,1.6,6.4,2.1,6.2,4.5c0,0.5-1.2,2.2-1.9,2.3
		c2.5,5.4,25.8,12.4,56.5,2.3C338.5,324.5,343.8,324.3,348.7,321.7L348.7,321.7z M383.6,282.3c2.5-1.7,5.7-1.7,7.2-4.1
		c3.3-4.3-28.6-11.4-41.6-11.4c-12.9,0-36.7,3.2-40.7,4.7c-1.7,0.7-1.8,4.2-3.8,4.4c-3.8,0.5-7.6,0.9-11.4,1.3
		c-1.3,0.1-0.9,2.1-0.6,2.4c2.5,2,3.3,3.3,4.3,6.4c0.1,0.3,2.7,0,3.3,0.5c2.5,2.2,4.3,5.2,7.4,6c15.1,3.6,29.7,4.6,45.2,1
		c1.7-0.4,2.9-1.7,4.4-1.9c5.4-0.7,11.1-1,15.3-5C375.6,283.7,380.3,284.5,383.6,282.3 M420.3,216.9c0.9-0.6,0.2-3.4-0.6-3.5
		c-3.5-0.5-7.2-1.9-11,1.4c-1.3,1.1-3.6-1.3-5.4-0.3c-1.4,0.8-2.8,3.1-4.1,3.7c-3.6,1.6-7.1-2.1-11.1-1.7c-1.2,0.1-0.9,2.7-2,3
		c-3.4,0.8-6.4-2.9-8.3-1.7c-3,1.9-5.4,4.3-9,2.7c-3.4-1.6-8-4.8-10.3-2.8c-4.1,3.6-9-1.6-12.6-0.2c-3,1.2-11.2,3.1-5.6,6.3
		C357.6,234.5,393.7,232.4,420.3,216.9L420.3,216.9z M249,413.1c-0.9-1.6-3.2-0.8-4.8-1.7c-1.2-0.7-1.7-3.1-2.9-4.1
		c-0.9-0.7-3,0.9-4.1,0.3c-1.6-0.9-2.7-2.9-4-4.2c-1.4-1.5-2.6-3.1-3.9-4.6c-1.2-1.4-2.6-2.7-4.2-3.6c-0.9-0.5-2.5,0.6-3.5,0.3
		c-1.8-0.5-2.9-3.7-4.4-5c-0.9-0.8-2.2-0.9-3-1.6c-0.8-0.8-0.9-2.1-1.8-3c-1.1-1.2-2.7-1.6-3.8-2.6c-1.6-1.3-2.8-4.6-4-6.4
		s-3-2-4.2-3.6c-1.5-2-2.3-5.3-4.1-7.3s-6.3,1.2-7.7,3.9c-2.3,4.5-2.1,10.2,1.3,14c16.9,18.9,38.9,34.6,64.1,38.7
		C252.1,419.9,250.1,415.2,249,413.1 M304.7,406.8c-2.6-0.7-4.8-2.1-7.2-3.1c-1.4-0.6-2.8,1.7-4.4,0.7c-3.2-1.9-5.9-4.6-8.4-6.6
		c-2-1.6-6-5.6-7.7-4.8c-0.7,0.3-1.6,4-3.3,2.8c-3.9-2.9-6.5-6.1-10.2-9.3c-1.7-1.5-3.3,3.4-5.4,2.4c-4.9-2.4-6.9-7.7-10.7-11.5
		c-4.4-4.4-8.6-9.5-14.7-11.1c-1-0.3-0.5,1.2-1.4,1.9c-4.6,3.6-9.7-2.6-14.2-4.6c-4.1-1.9-7.8-4.9-12.4-5.2c-1-0.1-0.9,1.4-0.6,1.9
		c26.4,31.3,63.1,54.7,103.4,53.8c0.9,0,2.8,0.1,1.3-1.9C307.7,410.6,306.2,407.2,304.7,406.8 M342.1,384c-1.2-0.2-3,1.4-4,1.2
		c-3.1-0.6-5.6-3.4-9.4-5.4c-1.6-0.8-2.4,2.9-3.6,2.8c-6.3-0.4-15.4-7-21-10.4c-1-0.6-7,0.6-8,0.8c-3.6,0.7-8.2-5.6-11-6.9
		c-2.1-1-5.1-2.1-7.2-0.5c-2.8,2.1-6.1,1-9.1,0.9c-1.2,0-2.2,2.5-3.7,2.9c-4.1,1.3-8.7-1.5-12.8,0.5c-0.1,0.1-0.7,0.9-0.6,1.2
		c0.3,2.5,3.1,3,5,4.1c29,18.4,73.9,24.4,98.9,18.8c0.6-0.2-0.3-2.3-2-3.6c-1.7-1.3-4.3-1.8-5.4-2.6
		C345.7,386.1,344.4,384.4,342.1,384L342.1,384z M400.5,357.2c-3.1,0.9-5.5-1.3-8-0.4c-0.6,0.2-1,1.2-1.5,1.2
		c-4.8,0.1-8-5.1-12.9-4.7c-1.2,0.1-1.2,2.2-2.2,2.5c-3,0.7-5.7-2.9-8.4-1.6c-1.9,0.9-3.3,0.9-5.2,0.3c-2.4-0.7-4.2-2.9-6.5-3.2
		c-2.1-0.3-4.1,1.7-6.4,1c-5.8-1.7-10.3-7.2-16.5-5.9c-3.1,0.6-5.7-1.4-7.8-0.2c-2.3,1.4-3,3-5.3,4.4c-1.6,1-5.3,0.8-7,1.9
		c-1.3,0.8-1.6,2.7-3,3.3c-2.7,1.1-5.9,0.3-8.5,1.8c-0.3,0.2-0.5,1.6,0.6,1.9c23.7,8,62,16.9,107.8,5c1.4-0.4,1.7-1.3,0.6-2.6
		C407.8,359.1,404.3,356.1,400.5,357.2 M455.4,317.1c-4,1.9-8.7-0.2-13.2,0.9c-1.2,0.3-0.3,1.9-1.4,2.1c-4.4,0.6-9-0.5-13.1,1.1
		c-3.2,1.3-7.1-0.2-10.6-0.1c-1.4,0-1.4,1.8-1.6,3.3c-0.2,1.2-2.1,2-2.6,1.8c-4.4-1.3-8.6-1.8-13.1-2.4c-11.2-1.7-22.3-5.2-32.8-2.1
		c-3.4,1-8,1.9-10.6,4.6c-1,1-2.1,3.1-3.4,3.6c-6.4,2.3-13.5,2.8-19.9,5.1c-1.9,0.7-5.6,3.4-4.3,3.8c0,0,19.8,5.7,41.4,5.7
		c41.6,0,73.3-10.2,96.5-22.9C465.2,319.9,458.4,315.7,455.4,317.1 M501,271.5c-2.5,0.8-6-1.6-8.2,0c-3.3,2.4-7.1,2-10.4,1.6
		c-1.6-0.2-4.1-0.7-5.5,0.4c-0.9,0.7,0.4,1.9,1.3,2.6c-8.4,2.9-17.7,0.2-25.7,3.4c-0.6,0.2-1,3.2-2.4,3.5
		c-7.3,1.5-14.2-1.4-21.4-0.1c-1.8,0.3-1,4.3-3,4.3c-6.5,0.3-12.9-0.2-19.4-0.5c-7.8-0.3-14.9,2.5-22.2,4.7
		c-2.2,0.7-2.8,4.1-5.2,4.5c-6.3,1-12.8-0.1-18.5,2.7c-0.4,0.2-0.4,2.1,0,2.4c7.1,4,15.2,6.8,20,13.2c49.2-0.5,102.1-6.9,143-40.5
		c0.8-0.7-4-1.7-6.7-2.3c-2.5-0.6-4.6-0.6-7.7-1.6C506.2,269.1,503.7,270.7,501,271.5 M552,225.3c-0.5-0.3-7.9-1.6-12.1-0.7
		c-0.9,0.2-1.4,1.6-2.2,1.8c-5.3,0.9-9.1,3.4-14.5,3.6c-1.1,0-3.6,0.8-5,1.5c-2,0.9-4.6-1.4-6.2,0.4c-1,1.1,0.7,3.8-1.1,4.6
		c-4.7,2.2-10.2-1.8-14.8,1.2c-1.3,0.9,1.4,3.8-0.3,4.3c-6.6,2.1-18.1-8.2-22.4,2.5c-0.7,1.7-2.7,0.9-4,0.6c-1.3-0.3-3-0.9-3.8-0.3
		c-4.1,3.3-6.4,4.6-12.1,3c-1.4-0.4-1.5,3.9-4.3,3.2c-3.2-0.8-6.3-3.1-9.2-1.8c-1.4,0.6-0.4,4.2-2.3,4.4c-8,0.8-16.2-0.4-23.5,2.9
		c-1.8,0.8-2,4.1-4.5,4.5c-5.6,0.9-11.2,0.3-16.4,2c-0.8,0.3-0.6,2.8,0.6,2.9c3.3,0.5,7.2,0,9.7,1.5c3.2,1.9,5.2,7.2,8.3,7.3
		c63.2,1.2,108.8-21.4,140.1-47.5C553.3,226.1,552.6,225.7,552,225.3 M536.6,188.2c-0.9,0.4-0.6,3.6-2.5,4.4
		c-3.1,1.4-6.6,1.4-10,2.4c-1.3,0.4-1.2,2.1-2.2,2.7c-1.8,1.1-4.2,0.2-5.4,1.1c-8,5.8-17.5,3.2-26.3,4.7c0.1,6.7-10.4,2.6-14.7,5.5
		c-4.7,3.2-4.1,2.3-11.1,2.4c-2.2,0-1,3.2-2.8,3.3c-5.6,0.1-12.8-1.7-17-0.5c-0.8,0.2-1,3.7-2.5,4.1c-3,0.8-6.2,1.1-9.2,2.1
		c-2.3,0.7,0.7,5-2.3,5.9c-5.1,1.6-10.8,0.4-16,3.4c-2,1.2-5,0.1-7.7,0.6c-2.2,0.4-3.1,2.8-1.3,3.8c1.7,0.9,4.4,0.7,6.1,1.5
		c3.8,1.9,6.9,4.6,11,4.8c66.7,4.1,153-43.3,166.6-100.8c0.5-2.3-0.6-1.9-1.1-0.6C573.8,173.6,536.6,188.2,536.6,188.2"/>
</g>
</svg>
