<svg version="1.1" id="Layer_1" xmlns="http://www.w3.org/2000/svg" xmlns:xlink="http://www.w3.org/1999/xlink" x="0px" y="0px"
	 viewBox="0 0 600 600" style="enable-background:new 0 0 600 600;" xml:space="preserve">
<style type="text/css">
	.st0{fill:#FFFFFF;}
</style>
<path id="Blue" d="M32,61v113.7c0,31,4.4,112.7,45.5,201.7C127.5,484.8,201.2,548.7,300,600c98-50.9,172.2-114.4,222.5-223.6
	c41.1-88.9,45.5-170.7,45.5-201.7V61C485.2,17.9,390.4,0,300,0S115.4,17.6,32,61"/>
<path id="Gold" class="st0" d="M46.6,174.7c0,30.1,4.3,109.3,44.1,195.6c46.6,100.8,117.2,165.5,209.4,213.3
	c92.5-48.1,163-112.8,209.4-213.3c39.9-86.3,44.1-165.5,44.1-195.6V69.8c-73.4-38.2-169.5-55.3-253.5-55.3S119.8,31.7,46.6,69.8
	V174.7z M508.1,326.6c-8.7-10.9-29.8-36.4-45.9-48.1c0,0-25.8,7.9-43.2,10.1c0,0,17.4-11.2,27.5-23.6c0,0,12.9-35.9,17-67.9
	c0,0-1.7-7.7-8.8-15.2c0,0-9.9-3.6-20.8-5.3c-30,6.4-35.8,20.8-91.2,39.6c0,0,6.8-7.7,11.8-14.9c0,0-20.6-7.6-54.1-6.4
	c-24.7,0.8-52.6,8.3-52.6,8.3s11-8.3,23.7-12.4c-2.5-3.3-8.6-11.8-9.1-17.2c-2.4-0.3-6.9,0.4-6.9,0.4c-2.2,1.9-10.9,15.2-16.1,31.5
	c0,0-7.7,4.1-15.5,8.7c-7,4.2-18.6,13.5-18.6,13.5s0.2-3.1,1.9-7.5c-6.8,3.7-14.5,8.3-22.8,13.8c0,0-0.4,5.6,5.6,12.7
	c0,0-32.9,11.9-53.1,41.9c0,0,8.2,5.6,16.8,7.8c0,0,16.8-2.6,28.8-7.5c0,0,6.1-6.8,11.6-12.3c5.1-5.1,9.7-8.9,9.7-8.9l-6.7,27.3
	c0,0,15.9-1.2,35.9-2.1c9.1,6.6,18,14.8,26.2,23.5c-1.3,9.8-8.4,31.5-20.5,52.8c0,0,10.9-2.4,19.9-3.4c10.7-1.1,19.9-0.6,19.9-0.6
	s18.1,12.8,42.4,21.1c28,9.5,44.1,11.5,64.3,9.3c0,0,22.5-18.5,35-46.2c0,0-2.4-23.4-6.3-44.7c0,0,19.7,16.2,31,62.7
	c0,0-1.4,79.8-53,133.1c-0.4,0.4-0.9,0.8-1.4,1.2c-16,14.2-33.6,27.7-53.1,40.2c-12,7.8-24.5,14.9-37.2,21.5c0,0,6.7-14.1,7.8-26.8
	c0,0-1.6-26-17-44.6c-7.7,13.7-20.8,31.3-40.3,41.8C104.6,433.1,69.2,278.8,64.8,193.3c7.3-3.7,98.2-48.1,235.2-48.1
	s227.9,44.3,235.2,48.1C533.4,228.8,526.3,276.1,508.1,326.6L508.1,326.6z M398,237.9c0,0,9.3-17.6,11.9-24.3c0,0-13.1,2.4-20.6,2.4
	c14.4-11.3,32.5-24.9,46.4-27.2c0,0,9.4,1.4,13.5,3.5c0,0,4.1,5.4,4.1,8.8c0,0-7.4,34.1-16.1,59.5c0,0-16.1,14.9-28.1,21.7
	l-6.7-16.1c0,0,8.6-16.8,13.1-30.7c0,0-11.6,2.6-17.6,2.2L398,237.9z M293.3,238.7c0.2,3.4,0,6,0,6c-5.6,9.7-16.3,21.3-23.1,27.7
	c-14.3,3.4-28.2,3.6-40.1,3l-16.5-7.7l22.6-31c0,0,31-12.3,57.1-7.8c0,0,4.8,1.7,10.3,3.9c1.8,0.7,3.8,1.5,5.7,2.3
	C302.7,236.4,298.6,237.2,293.3,238.7c-0.2,0.3-1.2,1.4-2.7,3.2C291.5,240.8,292.4,239.7,293.3,238.7L293.3,238.7z M322.3,261.8
	c1.1-4.6,0.3-19.1,0.3-19.1s8.2,2.7,21,12.8c0,0-1.7,9.3-4.2,18.8l-44.2,20.3C295.1,294.6,309.8,278.7,322.3,261.8L322.3,261.8z
	 M64.3,80.6c0,0,92.8-48.3,235.7-48.3s235.7,48.3,235.7,48.3v93.6C465,142,377.4,127.5,300,127.5s-165.1,14.6-235.7,46.7V80.6z"/>
<path id="Red" d="M535.8,174.2V80.6c0,0-92.8-48.3-235.7-48.3S64.3,80.6,64.3,80.6v93.6c70.6-32.1,158-46.7,235.7-46.7
	S465.1,142.1,535.8,174.2"/>
<path id="White" class="st0" d="M356,51.9c4.2,0.4,8.3,0.8,12.4,1.3v61.1c-4.2-0.5-8.3-0.9-12.4-1.3V51.9z M130.1,86.4
	c-6.6,1.9-13.1,4.1-19.7,6.2v12.1c4.7-1.6,9.3-3.1,14-4.5v12.3c-4.7,1.4-9.4,2.9-14,4.5v24.4c-4,1.3-8,2.7-12,4.2V84.4
	c10.5-3.8,21-7.2,31.7-10.4V86.4z M191,120.5c-10.8,2-21.6,4.3-32.3,6.9V66.3c4.1-1,8.2-2,12.3-2.9v48.8c6.7-1.5,13.3-2.8,20.1-4.1
	v12.4H191z M326.7,76.1V60.4c-1.9-3.6-3.9-7.2-5.8-10.8c-11-0.4-21.9-0.5-32.9-0.2h0.1v61.1c4.2-0.1,8.3-0.1,12.5-0.1V86.1h2.9
	c3.3,8.2,6.6,16.3,9.9,24.6c4.4,0.1,8.8,0.2,13.3,0.4c-3.3-8.3-6.6-16.6-9.9-24.8c1.4,0,2.7,0.1,4.1,0.1L326.7,76.1z M314.2,73.8
	c-4.6-0.1-9.1-0.2-13.7-0.2v-12c4.6,0,9.1,0.1,13.7,0.2V73.8z M496.1,82.5c-8.6-3.1-17.3-5.8-26.1-8.4c-1.9,2.9-3.8,5.9-5.7,8.9
	v50.6c4.1,1.2,8.1,2.4,12.1,3.6v-24.4c4.4,1.4,8.8,2.8,13.2,4.3v24.4c4,1.3,8,2.7,12,4.2V95.1C499.8,90.8,497.9,86.7,496.1,82.5z
	 M489.6,104.7c-4.4-1.5-8.8-2.9-13.2-4.3V88.3c4.4,1.4,8.8,2.8,13.2,4.3V104.7z M430,63.7c-10.8-2.4-21.6-4.5-32.5-6.3v61.2
	c10.9,1.8,21.7,3.9,32.5,6.3c1.9-3.1,3.8-6.2,5.7-9.3v-40C433.8,71.6,431.9,67.6,430,63.7z M423.4,111c-4.4-0.9-8.9-1.8-13.5-2.7
	V71.9c4.5,0.8,9,1.7,13.5,2.7V111z M252.8,51.2c-9,0.7-18,1.7-27,2.8c-1.9,3.8-3.8,7.6-5.8,11.3v40c1.9,3.2,3.8,6.5,5.8,9.8
	c8.9-1.2,18-2.1,27-2.8l5.8-11v-40C256.7,57.9,254.8,54.6,252.8,51.2z M246.1,100.6c-4.6,0.4-9.1,0.9-13.6,1.4V65.5
	c4.5-0.5,9.1-1,13.6-1.4V100.6z M146.3,360.2c0,0,7.3-11.5,12.8-16.8l-7.8-21.9c-2.9-2.7-5.5-5.4-7.8-8.5c-2.2-2.8-4.1-5.6-5.6-8
	l-7.7,20.1C130.2,325.1,137.3,344.9,146.3,360.2L146.3,360.2z M156.7,371.8c0,0,4.5,15.5,18,26.2c0,0,20.2-8.4,49.4-11.2
	c0,0-37.4-15.3-61.7-32.6C162.3,354.2,157.1,360.9,156.7,371.8L156.7,371.8z M265.4,266.9c0,0-12.9,2.5-29,2.6
	c-7.3,0-15.2-0.4-22.9-1.9l16.5,7.7c11.9,0.6,25.8,0.4,40.1-3c6.8-6.3,17.5-17.9,23.1-27.7c0,0,0.2-2.6,0-6
	c-0.3,0.3-1.2,1.4-2.7,3.2c-1.4,1.6-2.8,3.2-4.3,4.8C281.2,252.1,273.8,259.8,265.4,266.9L265.4,266.9z M218.1,364.7
	c0,0,1.3-2.1,3.2-5.7c-7.1-6.6-15-11.4-15-11.4c8.6-0.2,16,1.1,19.3,1.7c0.6-1.4,1.1-2.9,1.6-4.3c-8.5-6.8-18.7-11.6-18.7-11.6
	c9.4-1.4,18.6-0.7,21.8-0.4c0.2-1.3,0.4-2.7,0.6-4c-10.1-6.9-24.9-11-24.9-11c6.6-2.2,12.8-3.1,16.7-3.6l-7.4-8.7
	c0,0-8.3-0.4-17.3,0.3c-11.6,0.8-22.2,2.3-22.2,2.3c-1.8,1.3-4.4,3.4-6.4,5c-3.6,3.2-4.9,5-7.2,7.9l0.3,21.4
	C169.3,345.9,196.3,358.3,218.1,364.7L218.1,364.7z M332.6,426c0,0,3.9,9.3,6.4,22.4c2.2,11.3,1.1,18.2,1.1,18.2
	c-35.9-41.1-88-66.4-88-66.4s72.2,59.4,55.7,136.5c-1.1,12.7-7.8,26.8-7.8,26.8c12.7-6.6,25.1-13.8,37.2-21.5
	c19.5-12.6,37.2-26.1,53.1-40.2C370.1,456.5,332.5,426,332.6,426L332.6,426z M240.1,244.7c17.5-7.9,30.7-11.8,39.7-13.8
	c1.9-0.4,3.9-0.8,5.8-1.2c5.1-0.8,7.6-0.9,7.6-0.9c-26.1-4.6-57.1,7.8-57.1,7.8l2.3,4.6L240.1,244.7L240.1,244.7z"/>
<path id="White_1_" class="st0" d="M250.1,257.4c-3.8,1.6-9-0.5-10.8-2.4c-1.4,2.4-3,5.1-3,5.1s10.8,5.1,23.6-1.1
	c7.8-3.8,9.7-10.7,9.7-10.7c-4.8,0.4-9.5,0.9-13.7,1.8C255.4,251.9,253.9,255.8,250.1,257.4"/>
</svg>
