<svg version="1.1" id="Layer_1" xmlns="http://www.w3.org/2000/svg" xmlns:xlink="http://www.w3.org/1999/xlink" x="0px" y="0px"
	 viewBox="0 0 600 600" style="enable-background:new 0 0 600 600;" xml:space="preserve">
<style type="text/css">
	.st0{fill:#FFFFFF;}
</style>
<path id="Beige" class="st0" d="M600,195.2c0,0-21.4-7.1-39.9-10.7c0.2,0,20.7-16.4,20.7-16.4s-82.4-21.8-180.5-15.3
	c0,0-14.3-46.7-80.2-46.7c-49.1,0-77.1,30.8-85.8,54.7c-92.5,20.7-163,68.1-163,68.1l17,12.8c-43.5,23.2-88.3,60-88.3,60
	s4.4,22.1,31.1,57.3c0,0,17.9,13.7,65.1,31.5c0,0,9-2.3,13.5-4.6c6.5,2.2,13.1,4,19.7,5.2c-0.3,5.9-2,14.4,9,24.5l-8,4.2
	c0,0,9.8,24.4,64.1,37.2c20.7-5,115-22.8,147.5,36.5l164-161.2h-35L600,195.2z"/>
<path id="Green" d="M568.7,202.1c-20-7.6-46.6-13.1-46.6-13.1l16.6-12.8c-89.6-18-151-12.3-151-12.3s-12.3-46.6-72-46.6
	c-57.7,0-75,51.5-75,51.5c-79,15.6-153.3,61-153.3,61l18.1,13.7c-46.6,22.9-94.9,62-94.9,62c6.8,21.3,26.8,47.1,26.8,47.1
	c18.6,12.9,59.3,28.7,59.3,28.7c5.9-1.3,12.2-4.9,12.2-4.9s20.2,8,41.8,8c7.9,0,16.7-0.9,16.7-4c0-5.3-16.2-6.9-16.2-12.9
	c0-4.3,9.7-10.4,46.7-10.4c22.1,0,47.2,1.5,47.2,1.5c-18.2,0-54,4.6-54,13.1c0,6.6,24.3,6.9,24.3,15.8c0,12.8-19,17.2-41.2,17.2
	c-19.9,0-29.3-5.7-33.8-5.7c-1.7,0-2.8,0.9-2.8,2c0,4.6,8.8,13.9,15.9,16.5l-9.6,5.6c10.7,14.2,50.7,24.9,50.7,24.9
	c114.1-24.9,149.2,32,149.2,32l133.7-138.4H446L568.7,202.1z"/>
<path id="White_1_" class="st0" d="M363.7,165.7c-75.8,7.7-103.6,20.2-103.6,20.2c3.4-27.4,26.8-48.7,55.1-48.7
	C336,137.2,354.2,148.7,363.7,165.7z M369.1,179.5L369.1,179.5c-36.8-1.2-73.7,1-109,6.4c-51.6,7.9-99.7,22.7-138.7,43.8
	c0,0,60.3-21.1,138.8-29.5c34.4-3.7,72.2-4.9,110.1-0.9c24.1,2.5,48.2,7.2,71.3,14.7c-26.1,0.9-52.8,3.3-78.5,6.6c0,0,0,0.1-0.1,0.1
	c-30,3.9-58.9,8.9-84.1,13.9c0,0-0.1-0.1-0.1-0.1c-53.6,10.7-91.3,21.5-91.3,21.5c26.5,1.2,41.5,7.3,41.5,7.3
	c-68.5,14-132.3,40.5-153,49.5c4.9,7.9,11.4,17.1,11.4,17.1l-10.2,12.7c18.3,3.3,41,1.4,41,1.4l34-20.8l26.7,8l8-11h-8.8l17.6-28.3
	l14.8,28.3h-6.6l4.5,9.8l18.4-3.3l7.9-10h-7l10.5-16.1h-7.9l16.6-28.1l14.2,29h-6.3l9.5,16.9h-7.5l15.4,28l15.3-21.5H277l15.9-23.9
	h-10.2l22.9-39.3l19.8,39.8H317l13.5,23.4H321l13.1,29l22.2-36.3H344l18.1-29.5H351l24.3-49.3l25.5,51.7h-9l16.4,27.2H397l12.6,26.9
	l20.5-31.2h-11l23.8-34.3h-12.8l38.2-52.7l20.1,36.2l42.8-52.6C481.9,191.2,425.7,181.4,369.1,179.5z"/>
<path id="White" class="st0" d="M321.6,212.8c-72.4,2.3-137.6,20.4-137.6,20.4c-0.5-3.2-1-6.4-1.5-9.6c-2.2,3.8-4.4,7.4-6.6,11.2
	c0,0-32.8,12-54.4,23.4c27.7-9.6,50.2-15.4,50.2-15.4c-2.2,4.8-4.5,9.5-6.7,14.3c4.2-3.7,8.1-7.3,12.3-11c3,1.6,5.8,3.1,8.8,4.8
	c-0.4-3.5-0.8-7-1.2-10.6C184.9,240.1,258,219.8,321.6,212.8"/>
</svg>
