<?xml version="1.0" encoding="utf-8"?>
<svg version="1.1" id="Layer_1" xmlns="http://www.w3.org/2000/svg" xmlns:xlink="http://www.w3.org/1999/xlink" x="0px" y="0px"
	 viewBox="0 0 600 600" style="enable-background:new 0 0 600 600;" xml:space="preserve">
<style type="text/css">
	.st0{fill:#010101;}
	.st1{fill:#FFFFFF;}
</style>
<path id="Black_1_" class="st0" d="M408.9,89.7H0V109c0,29.9,11.7,57.9,31.7,78.3H0v19.3c0,29.9,11.7,57.9,31.7,78.3H0v19.3
	C0,334,11.7,362,31.7,382.4H0v19.3c0,59.9,45.9,108.6,102.2,108.6H197l64.4-108.8c36.2,44.1,90.5,70.5,147.5,70.5
	C514.3,472,600,386.2,600,280.8S514.3,89.7,408.9,89.7"/>
<path id="White" class="st1" d="M408.9,96.3H6.6V109c0,35.3,16.9,66.5,42.6,84.8H6.6v12.7c0,35.3,16.9,66.5,42.6,84.8H6.6V304
	c0,35.3,16.9,66.5,42.6,84.8H6.6v12.7c0,56.3,42.9,102.1,95.7,102.1h91.1L260.6,390c34.8,47.1,89.7,75.2,148.4,75.2
	c101.8,0,184.6-82.8,184.6-184.6S510.6,96.3,408.9,96.3"/>
<path id="Black" class="st0" d="M408.9,109H23c0,49.3,37.1,89.3,82.9,89.3h145.4c2.3,0,4.1,1.8,4.1,4.1s-1.8,4.1-4.1,4.1H23
	c0,49.3,37.1,89.3,82.9,89.3h87.6c2.3,0,4.1,1.8,4.1,4.1c0,2.3-1.8,4.1-4.1,4.1H23c0,49.3,37.1,89.3,82.9,89.3h29.9
	c2.3,0,4.1,1.8,4.1,4.1c0,2.3-1.8,4.1-4.1,4.1H23C23,451,60.1,491,105.9,491H186l149.8-253.3c14.8-24.9,41.9-41.7,73-41.7
	c46.8,0,84.8,38,84.8,84.8s-38,84.8-84.8,84.8c-46.2,0-83.8-37-84.7-83l-56.7,95.9c31,44.8,82.8,74.2,141.4,74.2
	c94.9,0,171.8-76.9,171.8-171.8S503.8,109,408.9,109"/>
<path id="Orange" d="M408.9,232.1c-26.9,0-48.8,21.8-48.8,48.8s21.8,48.8,48.8,48.8s48.8-21.8,48.8-48.8S435.8,232.1,408.9,232.1"/>
</svg>
