<?xml version="1.0" encoding="utf-8"?>
<svg version="1.1" id="Layer_1" xmlns="http://www.w3.org/2000/svg" xmlns:xlink="http://www.w3.org/1999/xlink" x="0px" y="0px"
	 viewBox="0 0 600 600" style="enable-background:new 0 0 600 600;" xml:space="preserve">
<style type="text/css">
	.st0{fill:#010101;}
	.st1{fill:#FFFFFF;}
</style>
<path id="Black" class="st0" d="M487.2,227.9l13.8,4.6l-0.1,8.8c-7.3-0.2-13.2-1.7-13.2,19.7c0,15.9,3.1,21.1,3.1,25.7
	c0,7.7-0.7,9.4-24.7,9.4c0,0-3.8-4.6-17-9.6c0,0-0.2-1.3-0.8-3.4L550.1,106h-30.9c2.3-4.4,0-11.7-5.7-17.4c-6.5-6.5-15-8.5-19-4.6
	c-1.8,1.8-2.4,4.6-1.8,7.6L480,104.9c0.3-2,1-12.5-18.8-18.2c-6-11.8-11-26.7-22.9-26.7c-9.8,0-18.1,7.3-18.1,7.3
	s-36.4-33.8-71.7-33.8c-30.8,0-73.1,30.2-91.7,30.2c-19.9,0-37.4-48.2-65.4-48.2c-15,0-32.8,12-51.9,23.8
	c-19,11.6-22.6,25.8-27.3,37.4c-3.1,7.7-12.9,18-24.2,29.4H0l178.8,311c-1.4,0.2-2.6,0.5-3.9,0.5H41.5L17,461.7h157.8
	c6.7,0,15.9-4,20.4-9l2.5-2.8L275,584.6l71.5-124.4h60.4v-12.5h-14.5l-2.5-8h2.2l10.4-4.8c0-12-14.5-29-14.5-29l-2.4-13.5l19.9-34.4
	l92.4-34.1c16.4-6.1,18.2-29.9,18.2-29.9s15,7.1,23.3-11.2c0,0,16.6,5.3,25.7,5.3c7.9,0,18.8-4.2,18.8-16.1c0,0,12.2-7.2,16.1-19.7
	l-108.9-36L487.2,227.9z"/>
<path id="White" class="st1" d="M496.3,96.8c3.8,0,6,1.5,6,3.6s-7.7,12.2-17.4,12.2c-2.1,0-2.5-1.1-2.5-1.7
	C482.4,107.7,492.5,96.8,496.3,96.8L496.3,96.8z M488.1,117.7c9,10.8,9.3,22.7,9.3,22.7l-11.9-20.9
	C485.5,117.3,488.1,117.7,488.1,117.7 M482.6,124.8c0,0,13.1,14.5,13.1,22.7c0,4.5-3.6,2.6-3.6,2.6l-12.7-19L482.6,124.8z
	 M484.7,159.9c-6.2,0-12.2-16.9-12.2-16.9s0.6-3.4,3.9-3.4C487.1,148.7,484.7,159.9,484.7,159.9 M463.5,150.9
	c10.6,0,14.7,19.3,13.8,22.7C467,173.7,463.5,150.9,463.5,150.9 M467.2,185.6c-14.9,0-22.5-27-22.5-27s0.3-3.8,10.9-2.9
	C455.5,155.7,470.6,170.9,467.2,185.6 M477.1,117.9c0,13.5-15.7,30.2-23.5,30.2c-4.1,0-4.7-3.2-4.7-3.2s9.8-20.7,24.1-29.8
	C473,115,477.1,115.1,477.1,117.9 M463.2,97c6.5-3.7,16.1,8.3,6.9,13c-13.5,6.7-28.1,34.7-28.1,34.7c-6.5,1.1-9-2.9-9-2.9
	S436,114.7,463.2,97 M298.1,331.8c-5,5.7-19.2-4.1-13.9-9.8l148-155.6c5.5-5.5,12.7,1.3,7.6,7.1L298.1,331.8z M308.2,349.9l-1.3,4.2
	l-5-0.8l0.8-7.5C305.7,345.1,306.8,349.1,308.2,349.9 M292.9,342.7c5,0,4.9,7.3,4.9,19.4c0,8-3.1,11.4-5.2,11.4
	c-3.8,0-3.7-5.9-4.8-7.9c0,0,1.6-2.1,1.6-6.2C289.5,355.2,287.3,342.7,292.9,342.7 M223.9,328.2c-3.3,3.3-9.3,2.9-9.3,2.9
	s-16.3-14.3-6.3-28C218.7,309.5,223.9,328.2,223.9,328.2L223.9,328.2z M216.1,298.3c0-6.2,13.1-10.4,13.1,1
	c0,14.6,2.9,14.3,2.9,16.4c0,2.8-5.3,0.8-5.3,0.8C226.7,312,216.1,304.5,216.1,298.3L216.1,298.3z M243.5,326.4
	c6.3,0,4.1,8.1,4.1,8.1c-11.4-2.8-28.3,13.4-28.3,13.4s-1.1-2.5-1.1-5.4C218.1,337.2,230.6,326.4,243.5,326.4L243.5,326.4z
	 M234.4,297.2c0-8.4,7.9-12.4,7.9,10.9C239.6,310.9,234.4,306.5,234.4,297.2L234.4,297.2z M228.8,348.8c10.6,34,20.2,52.3,20.2,52.3
	l-3.8,2c0,0-19.2-13.5-21.9-45.6L228.8,348.8z M236.5,344.6c18.6-10.2,25.9,20.9,25.9,20.9c0,29.7-2.9,34.7-2.9,34.7
	C255.2,399,245,378.9,236.5,344.6 M255.9,318.9c-2.1,1.1-6.5,1.4-6.5-5.4c0-6.5-2.2-15.9,0.8-22.4
	C260.2,296,253.2,313.8,255.9,318.9 M254.7,333.5c0-2.2,2.8-5.9,8-5.9s10.2,0.9,10.2,6.5c0,6.9-8.3,11.5-9.8,11.5
	C260.7,345.7,254.7,339.2,254.7,333.5 M260.4,294.6c0,0,8-0.8,8,9.1c0,3.9,0,10.4,0.3,13.3c-1.8,2.8-7.1,0.6-7.1,0.6
	S259,302.9,260.4,294.6 M269.9,357.5c0,0,10.9-10.9,10.9,15.4c0,22.1-14.9,33.4-14.9,24.6C265.7,392.1,271.4,392.7,269.9,357.5
	L269.9,357.5z M275.2,302.3c0,0,5.2-2.4,5.2,8.4c0,10.9-1.1,10.2-2.8,11.1C277.6,321.8,273.1,315.1,275.2,302.3 M280.3,350.7
	c-1.6,0-4.4-1.7-4.4-3.9c0-6.8,1.8-10.7,5.2-10.7c2,0,2.9,2.2,2.9,4.5C283.9,348.2,281.5,350.7,280.3,350.7 M429.6,152.6
	c0,0,5.2-2.3,8.1,7c-4.7-0.2-7.5,1.8-7.5,1.8S427.5,155.7,429.6,152.6 M444.3,66.4l5.7,12.4c-6.1,0-10.3-9.2-10.3-11
	C439.7,65.5,443.7,65.2,444.3,66.4 M431.4,67.1l18.2,24.8c0,0-1.4,3-3.9,0.2L425.9,71C425.9,71.1,426.9,67.1,431.4,67.1 M422.3,76.4
	l21.7,24.9c1.1,1.1-2.8,4.4-5,2.2l-24.6-24.1C414.3,79.2,419.4,73,422.3,76.4 M409.3,84.7c3.7,0,27.1,18,27.1,23.4
	c0,0.6-1.7,3-2.8,2.3L404,89.3C404,89.3,405.6,84.7,409.3,84.7 M399.1,96.4c11.5,5.2,21.6,11.6,31.9,18.5c1.7,1.1-1,6.5-2.6,5.6
	l-31.2-16.9C397.1,103.7,396.2,100.2,399.1,96.4 M395.5,110.4c6.3,1.8,27.2,13.3,29.8,15.1c2.3,1.5-1,4.9-2.1,4.5l-29.4-13.8
	C393.9,116.3,392,114.1,395.5,110.4 M389.9,122.4c11.7,3.3,26.5,11.1,26.5,11.1c-20.8,1-27.2-8.7-27.2-8.7L389.9,122.4z
	 M258.3,119.4c44.3,0,93.4,42.1,127,88.8l-92,96.7c-51.4-27.2-101.2-70.2-101.2-125.6C192.2,148.4,218.8,119.4,258.3,119.4
	 M138.4,53.1c7.3-3.6,12.6,3.6,12.6,3.6c-1,2.8-9.1,8.5-9.1,14.1c0,3.1,15.3,3.3,15.3,15c0,5.2-2.6,7.7-2.6,7.7l-6,0.5
	c0,0,2.6-2.5,2.6-7.3c0-4.1-4.1-7.7-7.1-7.7c-8.6,0-6.7,12.5-12.6,7.6C133.1,76.7,137.2,69.1,138.4,53.1 M109.4,95
	c16.1,16.1,23.4,33.8,23.4,33.8c-3.2,8-38.7,24.2-38.7,24.2l20.9-38.7l-52.3,45c0,0,0.8-21,7.2-28.2C76.3,124,109.4,95,109.4,95
	 M47.8,456.3H26.3L44.8,423h21.5L47.8,456.3z M191,449.1c-3.6,3.8-11.1,7.2-16.4,7.2h-15.8l15-33.3h0.8c8.1,0,18.9-4.5,24.7-10.3
	l25.5-25.7l10,14.2L191,449.1z M358.3,439.6H375l-2.3,8h-18.9L358.3,439.6z M306.5,432c-1.4-1.7,0.1-5.2,3.2-7.6
	c3.2-2.5,6.9-3.1,8.1-1.3c1.4,1.7-0.1,5.2-3.2,7.7C311.5,433.2,307.9,433.8,306.5,432 M389.3,451.9h13.3v4H296.8
	c1.6-9,6.8-15,7.9-16.4h3.7l7,12.3h11.5l3.9-12.3h6.4l4.5,12.3h34.2l3.6-12.3h6L389.3,451.9z M393.6,337.5c-15,0-43.6-7.1-74.7-20.4
	l79.7-88.9c17.1,28,27.8,55.8,27.8,75.5C426.5,333.6,407.6,337.5,393.6,337.5L393.6,337.5z M515.2,245.3l4.5-6.5l26.6,8.8l0.2,8.1
	L515.2,245.3z M566,280.8c-3.9,0.9-7.5,0-8-2.2c-0.6-2.2,2.2-4.7,6.1-5.6c3.9-0.9,7.5,0.1,8,2.3C572.7,277.4,569.9,279.9,566,280.8
	 M561.4,260.6l4.7-6.5l5.6,1.8l1.7,8.6L561.4,260.6z M493.9,221.4l100.5,33.3c-3.6,6.9-9.6,11.5-11.8,13l-4.5-1.5l-2.6-13.4
	l-10.9-3.7l-7.3,10.1l-6.4-2.1l-0.3-12.6L518,233.7l-7,10.2l-5.9-2l0.1-12.5l-12.6-4.2L493.9,221.4z"/>
<path id="Yellow" class="st1" d="M216.4,355.1c-5.7-13.8-3.2-16.9-3.2-16.9s-18.4-15-12.9-33.8c0,0-47.3-68.4-47.3-109
	c0-21,10.2-18.9,10.2-36.1c0-14.1-9.6-24.7-16.5-24.7c-7.9,0-32.6,16.3-68.8,37.6l13.7-31.4l-33,33.8c0,0-6.4-33,11.4-50.8
	c2.9-2.9,5.9-5.7,8.7-8.6h-63l171.9,298.9c3.1-1.5,6-3.3,8-5.4l27.1-27.3C218.4,371.4,216.4,360.8,216.4,355.1L216.4,355.1z
	 M423.4,145.7l-3.2-7.2c-16.6,2.8-31.6-5.6-35.8-7.8c-4.2-2.2,0.3-11.5,0.3-11.5s-1.1-2.1-3.8-3.8h-17.4c-3.3,3-4,7.5-1.4,10.2
	c18.5,19.2,33.3,39.8,45.2,59.7l19.3-20.3L423.4,145.7z M494.1,118c10.1,11.9,6,24.2,6,24.2c0,9.3-4.9,9.1-4.9,9.1
	c0,21.5-11.2,17.8-11.2,17.8c0,28.3-31.2,16.9-31.2,16.9c-5-0.7-9.3-2.1-12.7-3.8L419,205.7c13.7,26.6,21.9,50.4,26.3,65.1
	l89.4-155.5h-37.9L494.1,118z M349.3,343.8c0-2-28.3-9.4-39.5-13.7c-10.2,4,3,6.1,3,19.3c0,7.8-3.8,17-3.8,17l-5.6,1.6
	c0,0-11.2,20.8-18.5,17.7c-10.3,18.1-14.6,22.4-31,22.4c-5.3,0-9.9-1.5-14-4.1l-35.8,39L275,566.3l61-106.1h-43.8
	c0-11.2,7.2-20.7,7.2-20.7c0-18,11.1-21.8,19.3-22.5c17.6-1.5,24.7,0,24.7-8.6c0-6.1-0.6-13.2-0.6-13.2h6.4
	c0-23.5-6.5-29.3-6.5-41.3C342.7,349.5,349.3,347.4,349.3,343.8 M344.1,446.1l3.7-6.5h-6.1L344.1,446.1z M317.8,447.7h6l2.5-8h-13.1
	L317.8,447.7z M377.4,388.4l13.8-23.9l-15.4,7.6L377.4,388.4z"/>
</svg>
