<?xml version="1.0" encoding="utf-8"?>
<svg version="1.1" id="Layer_1" xmlns="http://www.w3.org/2000/svg" xmlns:xlink="http://www.w3.org/1999/xlink" x="0px" y="0px"
	 viewBox="0 0 600 600" style="enable-background:new 0 0 600 600;" xml:space="preserve">
<style type="text/css">
	.st0{fill:#FFFFFF;}
</style>
<path id="Blue" d="M61,488.6c116.9,10.2,191.1,43.2,227.2,111.4c123.6-20,237.9-99.3,237.9-201.4c0-136.1-164.9-157.5-169.3-197.1
	c69.4,25.1,145.7-1.3,182.2-87.9C431.2,105.6,352.3,66.3,318.2,0C186,23.5,80.3,109,80.3,201.4c0,134.9,173.5,170.6,192.9,199.3
	C178.5,364.8,96.9,405.7,61,488.6L61,488.6z"/>
<path id="Teal" class="st0" d="M266.1,194.4c-14.8-15-21-26.8-21-42.3c0-17.8,8.6-26.5,8.6-36.4c0-8.6-5.4-15.3-15.7-17.3
	c6.1-6.6,14.4-10.6,22.1-10.6c44.1,0,57.1,97.5,149.2,94c32.8-3.1,63.8-19.1,83.3-47C412.2,124.4,338.8,90.2,303,32.2
	c-37.2,6.8-193.2,60.6-189.2,173C118,322.5,291.4,355.1,340,405.4c38.3,39.7,11.3,79.7-13.4,94.3c-38.1-99.1-163.3-106.1-213.2-34.6
	c80.4,10.4,153.8,44.6,189.6,102.6c88.7-18.6,131.4-96.3,115.1-152.4c-26.9-92.8-201.9-109.1-248.3-196
	c-24.8-48.9-4.4-101.1,40.9-131.5c-17.8,22.9-26.3,49.4-25.9,74.1c4,4.4,5.7,14.7,5.8,14.9c0.6,3.6,1.6,11.2-0.2,15.8
	c2,5.2,4.5,10.2,7.6,14.9c6.1,1.5,12.9,9.4,13,9.6c6.7,7.7,7.7,12.5,7.9,14.4c4.1,3.7,8.6,7.2,13.2,10.7c3.9-0.5,9.9,1.4,15.9,5.3
	c7,4.6,10.4,9.1,11.4,12.5c4.9,2.9,9.9,5.6,14.9,8.4c3.9-1.1,10.3,0.2,16.8,3.5s11.2,7.9,12.6,11.7c5.1,2.5,10.3,5.1,15.4,7.6
	c3.9-1.1,10.4,0,16.9,3.3c6.4,3.2,11,7.7,12.5,11.5c5.3,2.7,10.5,5.5,15.6,8.3c4.8-1,12.4,1.9,16.6,4.4c6.1,3.7,10.4,8.4,11.6,12.3
	c5.1,3.3,10.2,6.8,15,10.4c4.1-0.2,10.1,2.1,15.6,6.9c6,5.2,9.1,11,9.3,15c4.2,4.5,8,9.1,11.4,13.9c4.9,1.2,9.9,6.9,12.7,12.7
	c3.8,8.4,3.3,14.2,2.2,17.3c6.6,20.8,8.4,46.9-2.3,77c-0.1,0.3-0.3,0.7-0.4,1.1c22.4-24.4,37.5-54.4,36.3-90.4
	C488.1,277.4,314.6,244.8,266.1,194.4L266.1,194.4z"/>
<path id="Red" class="st0" d="M332.7,206.8c-19.8-22.8-32.5-63.2-54.3-79C268.6,162.6,289,200.6,332.7,206.8"/>
</svg>
