<svg version="1.1" id="Layer_1" xmlns="http://www.w3.org/2000/svg" xmlns:xlink="http://www.w3.org/1999/xlink" x="0px" y="0px"
	 viewBox="0 0 600 600" style="enable-background:new 0 0 600 600;" xml:space="preserve">
<style type="text/css">
	.st0{fill:#FFFFFF;}
</style>
<path id="Outline" class="st0" d="M594.9,240.9c-5.5-2-11.7-3-18.5-3c-7.9,0-14,1.4-14.2,1.5l-3.3,0.8l-1.7,3l-6.1,10.9l-1.3,2.4
	l0.4,2.7l1,5.9c-19.9,38.9-41.4,75.2-51.3,91.5c-2.9-5.1-6.9-8.8-13-12.4c14.4-26.8,25.5-53.7,31-67.8c1.4-3.6,13.8-35.7,13.8-43.9
	c0-6.3-4.6-9.6-8.9-9.6c-1.4,0-2.8,0.3-4.2,1l0,0l0,0c-13,6.6-26.6,13.1-39.2,19l41.3-66.8l9.7-15.6l-18,3.9
	c-0.9,0.2-87.8,19-165.9,27c-17.2-26.1-37-50.8-58.5-73c-29.2-30.1-60-54.1-86.8-67.5l-11.3-5.7v12.6c0,4.7,3.1,11.2,12.1,29.2
	c13,25.8,34,67.8,40.9,105.9c-82.2-7-181.8-28.7-182.9-28.9l-18-3.9l9.7,15.6l86.4,139.7C67.9,319.5,8.2,321,7.6,321L0,321.1v7.6
	c0,4.8,3.9,7.8,7.5,10.1c2.9,1.9,7,4.2,12.2,6.8c7.9,4,22,10.5,43.9,19c28.4,11,72.7,26.4,129.9,40.6l1.2,2l15.4,24.8
	c-16.2,12.6-59.9,49.4-93,103.7l-2.4,3.8l2.2,4l2.9,5.4l2.4,4.3l4.9-0.3c0.3,0,32.2-1.9,58.9-2.7l5.4-0.2l1.8-5.1
	c0.1-0.3,10.9-29.8,46.6-65l39.8,64.3l6.6,10.7l6.6-10.7l52.4-84.7c1.4-0.2,2.9-0.3,4.3-0.5c0.2,0.1,0.4,0.2,0.6,0.4l-2.8,5.2
	l5.5,3.8c0.1,0.1,0.2,0.2,0.2,0.4l0.3,6.4l6.4,0.9c0.3,0,1.3,0.2,2.8,0.2c2.1,0,4.1-0.3,5.9-0.8l2.8-0.8l1.5-2.2
	c0.1,0.4,0.1,0.6,0.1,0.7l1,4.5l4.4,1.3c0.6,0.2,1.8,0.5,3.5,0.5c2.1,0,5-0.4,8.1-2.2c7.2,1.4,14.2,2.1,20.9,2.1
	c7.4,0,12.8-0.9,15.7-1.5c6.7,1.8,13.2,2.7,19.3,2.7c8.3,0,14.3-1.7,17.9-3.1c10,4,20.1,5.8,43.6,5.8c7.4,0,12.9-0.5,16.7-1.4
	c8.9-2.2,10-7.9,10-10.4c0.2-11.3-9.5-50.5-20.6-76.9c2.6,1.4,5.6,2.7,8.3,3.5l3.6,1l3-2.2l4.6-3.3l7.2-5.2l-5.6-5.8
	c-0.2-0.3-0.5-1.1-0.3-2.1l0.9-5.2l-4.5-2.8c-1-0.7-2.2-1.2-3.3-1.6c11.5-13.7,32.3-41.6,56.9-88.5c7.1-1.4,13.6-6.2,14.5-14.9
	c0.9-9.4,1.5-15.4,1.5-19.4v-5.5L594.9,240.9z"/>
<path id="Black" d="M494.3,185.5l-48.2,77.1c5.5-2.5,10.9-5.1,16.4-7.5l51.5-83.3c0,0-87.6,19.1-167.3,27.2c1.9,2.9,3.8,5.9,5.6,9
	C406.9,202.1,464.1,191.5,494.3,185.5 M502,389.1c-6.6-27.7-7.8-32.7-22.5-40.2l-2.4-3.1c27.1-48.6,46.8-106.6,46.8-113.5
	c0-1.7-0.8-2.1-1.8-1.7c-43.2,21.9-90.5,41.4-101,48.7l-2.8,3.9c-23.2-20.7-43.2-35.2-50.9-40.6C319.3,148,245.2,81.5,197.6,57.6
	c0,9.8,47.2,82.5,54.5,143.6c-85.3-5.8-193.7-29.5-193.7-29.5l93.2,150.8c-76.7,4.8-143.8,6.3-143.8,6.3c0,5.4,85.5,46.2,211.7,74.7
	c27.6,6.2,48.1,5.3,61.6,5.3c-2.4-2.7-5-5.5-7.5-8.1c18.3,11.2,35,22.3,50,32.2c-3.8,0.1-7.9,0.1-12.4,0.1
	c-30.4,0-53.3-1.6-67.8-2.6c-3.6-0.3-6.7-0.5-9.3-0.7c-1.3-0.1-2.4-0.1-3.4-0.2l-14.3-22.8c-5.7-1.3-11.3-2.6-15.1-3.5l19.1,30.9
	c-17.8,12.9-63.6,51.6-96.7,105.8l2.9,5.4c0,0,32.1-1.9,59.1-2.7c0,0,12.2-34.7,55.5-74.7l44.8,72.5l54.4-88
	c3.6-0.4,7.1-0.8,10.7-1.3c3.8,2.3,7.4,4.6,10.8,6.5c-1.9,1.1-3.4,2.5-4.6,4.7c0,0,3.1,2.1,3.3,6.3c0,0,2.7,0.4,5.5-0.4
	c0,0,1.9-2.9,3.6-6.4c3.6,1.9,6.9,3.4,10,4.7c0,3,0.5,5.3,0.5,5.3s3.5,1.1,7.6-2.6c24.1,5.5,38.5,0.9,38.5,0.9
	c24.5,7.2,36.9-0.9,36.9-0.9c9.5,4.2,17.6,6.5,43.8,6.5c14.2,0,18.9-1.8,18.9-4.1C526.3,460.1,514.2,413.2,502,389.1L502,389.1z
	 M286.1,498.2l-25.6-40.6c9.9-0.2,28.8-0.8,53-2.7L286.1,498.2z M509.1,380.6l0.9,3.2c0,0,7.9,5.4,13.5,6.9l4.6-3.3
	c0,0-2.6-3.3-1.8-8.2C520.3,375.4,509.1,380.6,509.1,380.6 M564.1,246.9l-6.1,10.9l1.4,8.4C531.7,320.4,501,369.5,501,369.5l3.8,9.2
	l4.5-3.1l3,0.3c0,0,29.3-28.1,66.7-100.6c0,0,10.8,0.4,11.7-8.4c0.9-8.9,1.5-15,1.5-18.6C578.9,243.3,564.1,246.9,564.1,246.9
	L564.1,246.9z"/>
<path id="Orange" class="st0" d="M252,458.2c-0.8,0.6-1.4,1.3-2.1,1.9l36.2,57.9l40.2-64.3c-1.2,0.1-2.3,0.2-3.5,0.3l-36.7,58.8
	L252,458.2z M488.4,189.5l-47.1,75.2c1.6-0.8,3.1-1.5,4.8-2.2l48.2-77.1c-30.2,6-87.4,16.7-142.1,22.4c0.6,0.9,1.1,1.9,1.7,2.7
	C405.4,205,458.6,195.4,488.4,189.5 M234.2,429.7l-13.9-22.1c-1.3-0.3-2.5-0.6-3.8-0.9l14.3,22.8
	C231.8,429.6,232.8,429.6,234.2,429.7 M362.7,466.4c3.7-5,6.2-8.2,6.8-10.2c-3.3,1.5-7.5,2.2-9.7,5.7
	C359.7,461.9,361.4,463.6,362.7,466.4 M381.8,469.9c0,0,2.4-0.3,4.7-2.5c0,0-2.3-3.6-3.7-6.9C381.1,464.7,381.8,469.9,381.8,469.9
	L381.8,469.9z M370.3,382.1c1.9,15.8,5.7,22.5,5.7,22.5s5.9,4.7,17.2,9.3C381.9,392.8,370.3,382.1,370.3,382.1 M246.4,452.6l4.6-2.5
	c0,0,18.7,3,130.8-8.6c-2.6-1.9-4-1.6-4-6c0-1.5,0.2-1.7-2.2-1.7s-3.5-0.7-6.3-0.7c-3.6,0-9,3.6-63.9,3.6c-43.7,0-74.3-3.7-76.4-3.7
	c-1.9,0-5.9,3.7-17.6,13.2C211.3,446.2,234.3,446,246.4,452.6L246.4,452.6z M189.2,522.8c-16.9-3.2-51.6,2.6-51.6,2.6l-9.4,13.4
	l54.5-2.5L189.2,522.8z M563.9,264.4c-18.2,32.7-38,76.1-59.7,102.9l6.2-3.9l1.4-1.4l-1.2,3.7l2.6-1.3l-4,7l3.7-3
	c0,0,18.5-20.8,65.4-105.5C568,261.3,563.9,264.4,563.9,264.4 M565.8,251.7l-3.8,6c0,0,9.2-1.8,21.4-0.7l4.4-6.2
	C574.4,248.2,565.8,251.7,565.8,251.7L565.8,251.7z M508,367.8c0,0-1.8,1.4-4.4,2.1l2.2,4.9l1.4-1.1l-0.6-1.8l2.3-4.5L508,367.8z
	 M524.2,380.4c-3.8-1.9-11.2,1-11.2,1s7.5,1.8,11.8,3.7C524.8,385.1,524,383.3,524.2,380.4"/>
<path id="Teal" class="st0" d="M252.9,216c0-3.3-0.2-6.7-0.5-10.1c-29.3,3.1-46.9,10-53.5,13.2C209.2,216.2,227.5,215.4,252.9,216
	 M475.8,351.4c0,0-35.7-50.1-104.3-100.6c5.8,12.1,11.3,24.5,16.2,37.4c0.7,1.9,0.6,3.4-1,3.4c-15,0-68.1-29.2-120.2-24
	c27.1,25.8,54,62,27.9,48.8c0,0,27.3,16.9,59.2,50.6c23.9,0,28.5,4,30,7.3c2.7,6.4,6.6,17.8,22.3,36.2c7.2,0,8.5-0.5,11.1-6.9
	c0,0,1.9,8.2-1.7,14.2c32.5,25.7,95.7,51.6,105.3,51.6c3.9,0-4.1-35.4-22.4-77.8C492.3,364.6,489,357,475.8,351.4z M179.3,320.7
	c0,0,9.4,5.5,24.5,17c-3.7-6.5-13.6-13.5-24.5-20.2l-23.8,1.8l1.8,2.8C164.6,321.7,171.9,321.2,179.3,320.7L179.3,320.7z
	 M319.3,362.4c-3.8,20.4,0.2,36.6,0.2,36.6c-0.7-6.8,4.7-29.6,4.7-29.6L319.3,362.4z M307.4,350.8c-3.7,23.4,1.6,42,1.6,42
	c-1.2-8.6,3.3-33.8,3.3-33.8L307.4,350.8z M295.6,340.2c-3.9,24.9,2.1,44.9,2.1,44.9c-1.2-11.4,2.7-37.8,2.7-37.8L295.6,340.2z
	 M268.7,299c0,0-45.9-38-102.9-47.5c-2,0-6.1,8.7-6.1,8.7s6-5.5,7.9-5.5C216.3,264.1,268.7,299,268.7,299"/>
<path id="White" class="st0" d="M399.4,461.4c6.6-3.9,11.5-7.7,11.5-7.7c-21.9,1-30.2-1.8-30.2-1.8c3.9-3.9,8.9-7.3,11.9-10.4
	c-2.3,0.4-4.8,0.6-7.1,0.9c0,1.1-1.2,2.2-4.6,4.3c-6.4,1.1-12.9,1.9-19.4,2.8c1.8,1.9,3.7,3.8,5.8,5.6c1.5-0.5,3-1,4.8-1.6
	c0,1.4-0.4,2.9-0.9,4.5c2.8,1.9,5.7,3.5,8.9,4.8c0.4-2.1,1-4.4,2.3-6.4c1.1,0.3,1.8,3.5,2.3,4.5c1.7,2.3,3.8,2.7,4.2,4.7
	c9.2,2.1,20.8,2.7,36.2,0.8l4.3-3.4C407,463.3,399.4,461.4,399.4,461.4L399.4,461.4z M363,428.5c-9.8,3.1-14,1-14,1
	c1.9-1.9,3.2-5.7,3.2-5.7c-8.7,2.4-11.4,0-11.4,0c1.4-0.9,2.7-4.2,2.7-4.2c-11.3,0-17.4,1.9-17.4,1.9c9.4,1.2,15.5,5.3,20.8,10.6
	c7.3-0.5,11.9-1.2,15-1.7L363,428.5z M344,422.8c0,0,4.8,0.3,10.3-1.7c0,0,0.3,3.7-2.2,7c0,0,4.7,0,14.2-2.2c0,0-0.8,1.9-1.9,4.1
	c1.8-0.3,3-0.5,4.4-0.5c3.1,0,3.4,0.7,6.1,0.7c5.1,0,5.7,1.1,6.5,7c1.1,1.6,2.2,2.5,3,3.4c3.8-0.3,8.1-0.7,12.5-1.4
	c0,0-4.9,6.7-12.2,11.7c0,0,20.4,1.9,31,0.6c0,0-4.6,5.6-10.8,8.8c0,0,14.1,0.9,29.2,0.7c0,0-2.9,3.3-5.9,5.7c0,0,18.7,4.2,32.1,1.1
	c-48-19.1-74.5-48-114.7-48C344.9,421.3,344,422.8,344,422.8 M150.1,509.3l-10.8,13.8c0,0,31.8-5,50.9-2l5.3-9.1
	C185.1,506.6,150.1,509.3,150.1,509.3L150.1,509.3z M155.1,503.1l-3.3,4.2c0,0,32.8-2.5,44.8,3l7.8-11.7
	C193.7,496.9,155.1,503.1,155.1,503.1 M160.7,496.1l-3.8,4.7c0,0,39.3-6.1,48.6-3.9l0.7-1C196.5,492.8,160.7,496.1,160.7,496.1
	L160.7,496.1z M174,480.9L162.5,494c0,0,31.9-3.3,44.9,0.4l13.2-15.3C207.3,476.9,174,480.9,174,480.9 M191.1,463.8l-15.1,15
	c0,0,27.9-3.8,46.2-1.4l7.2-8C222.6,463.5,191.1,463.8,191.1,463.8 M194,461.1l-0.8,0.7c0,0,27.2-0.4,37.6,6.1l1.6-1.7
	C223.9,461.5,194,461.1,194,461.1 M209,448.2l-13,11.1c0,0,30.3,0.6,37.7,5.6l11.1-11C235.1,448.3,209,448.2,209,448.2 M191.6,522.3
	l0.4,2.7l4.3-7.6l-0.4-2.6L191.6,522.3z M197.4,512.4l0.5,2.6l7.3-10.6l-0.5-3L197.4,512.4z M206.1,499.2l0.5,3.1l0.7-0.9l-0.6-3.1
	L206.1,499.2z M208.3,496.4l0.6,3.2l12.4-13.9l-0.5-3.8L208.3,496.4z M222.4,480l0.6,3.8l7.5-8l-1-3.7L222.4,480z M231,470.5l1,3.7
	l1.5-1.6l-0.5-4.3L231,470.5z M234.5,466.8l0.5,4.3l9.8-9.6l-0.1-5L234.5,466.8z"/>
<path d="M234.2,429.7c2.5,0.2,5.7,0.4,9.3,0.7l-13.2-20.8c-3.1-0.5-6.4-1.3-9.9-1.9L234.2,429.7z M260.5,457.5
	c-5,0.1-7.7,0.1-7.7,0.1c-0.3,0.2-0.5,0.5-0.8,0.7l34.1,54.6l36.7-58.7c-3.2,0.3-6.3,0.6-9.4,0.8l-27.3,43.4L260.5,457.5z
	 M474.9,198.7l-45.1,71.5c3.4-1.7,7.3-3.6,11.5-5.6l47.1-75.2c-29.7,5.8-83,15.5-134.5,21c1.3,2,2.4,4.1,3.7,6.1
	C399.8,212.1,443.3,204.7,474.9,198.7L474.9,198.7z"/>
</svg>
