<svg version="1.1" id="Layer_1" xmlns="http://www.w3.org/2000/svg" xmlns:xlink="http://www.w3.org/1999/xlink" x="0px" y="0px"
	 viewBox="0 0 600 600" style="enable-background:new 0 0 600 600;" xml:space="preserve">
<style type="text/css">
	.st0{fill:#FFFFFF;}
</style>
<path class="st0" d="M150.2,475.5c3.3,1.5,6.6,2.9,10,4.2l13.3,4.5c31.8,10.7,66.4,16.2,102.7,16.2c42.1,0,83.7-6.8,123.6-20.2
	c38-12.7,72.6-30.7,102.9-53.5c61.8-46.5,97.3-107,97.3-166.1c0-29-9-58.1-26.1-84.2c-17.3-26.4-42.8-49.3-73.6-66.2l-4.3-2.3
	l-3.8,3l-23.5,18.6l-8.1,6.4l8.7,5.5c4.2,2.6,8.2,5.4,12,8.3l-63.8,8.6L572.7,35L600,13.3l-33.7,8.9L362.5,75.8
	c-2.5-0.1-4.8-0.1-7.3-0.1c-41.5,0-82.5,6.8-121.7,20.1c-37.4,12.7-71.3,30.7-101,53.5C72,195.9,37.4,257.1,37.4,317.5
	c0,55.7,27.4,104.4,77.3,138l-70.1,80.2L0,586.7l54.4-40.3L150.2,475.5z"/>
<path id="Blue" d="M592.6,260.5c0-55.5-34.5-110.3-95.9-144l-23.5,18.6c41.9,26.4,66.6,65.8,66.6,110.5
	c0,104.4-129,198.9-272.5,198.9c-14.7,0-29.1-1.1-43.1-3.1l-48.4,35.8c30.6,10.3,64.8,15.8,100.4,15.8
	C446.5,493,592.6,378,592.6,260.5 M375.9,299.3l-87.7,17.2l194.4-159.7l-90.5,12.1l176-139.6L363.3,83.1c-2.7-0.1-5.4-0.1-8.1-0.1
	C187.3,83,44.7,197.1,44.7,317.4c0,59.1,31.8,106,81.1,136.4l-75.7,86.6L375.9,299.3z M68,299.7c0-108,135.1-198.9,272.5-198.9
	c0.9,0,1.9,0,2.8,0L210.5,249.5l76.4-12.1L136.4,383l61.1-11.1l-42.7,48.8C102.9,396.2,68,353.9,68,299.7"/>
</svg>
