<?xml version="1.0" encoding="utf-8"?>
<svg version="1.1" id="Layer_1" xmlns="http://www.w3.org/2000/svg" xmlns:xlink="http://www.w3.org/1999/xlink" x="0px" y="0px"
	 viewBox="0 0 600 600" style="enable-background:new 0 0 600 600;" xml:space="preserve">
<path id="Blue" d="M600,273.3c0-60.8-37.8-120.8-105-157.7L469.3,136c45.9,28.9,72.9,72,72.9,121c0,114.3-141.2,217.8-298.4,217.8
	c-16.1,0-31.9-1.2-47.2-3.4l-53,39.2c33.5,11.3,70.9,17.3,109.9,17.3C440,527.9,600,401.9,600,273.3 M362.7,315.8l-96,18.8
	l212.9-174.9L380.5,173L573.2,20.1l-224.3,59c-3-0.1-5.9-0.1-8.9-0.1C156.2,79,0,203.9,0,335.7c0,64.7,34.8,116.1,88.8,149.4
	L5.9,579.9L362.7,315.8z M25.6,316.2C25.6,198,173.5,98.4,324,98.4c1,0,2.1,0,3.1,0L181.6,261.2l83.7-13.2L100.4,407.4l66.9-12.1
	l-46.7,53.4C63.8,421.9,25.6,375.6,25.6,316.2"/>
</svg>
