<?xml version="1.0" encoding="utf-8"?>
<svg version="1.1" id="Layer_1" xmlns="http://www.w3.org/2000/svg" xmlns:xlink="http://www.w3.org/1999/xlink" x="0px" y="0px"
	 viewBox="0 0 600 600" style="enable-background:new 0 0 600 600;" xml:space="preserve">
<style type="text/css">
	.st0{fill:#FFFFFF;}
</style>
<path id="Blue" d="M568.5,235.2c0.3-0.5,0.1-1.1-0.4-1.3c0,0-0.1,0-0.1-0.1c-8.1-3-15.7-5.1-23.4-6.2c-0.6-0.1-1-0.7-0.7-1.3
	c6.3-12.7,10.4-27.3,13.5-43c0.1-0.7-0.5-1.3-1.2-1.1c-14.2,3.7-30.5,10.4-44.1,16.8c-0.4,0.2-1,0-1.2-0.4c0-0.1-0.1-0.1-0.1-0.2
	c-2-8.8-4.4-18.7-9.2-27.2c-0.3-0.5-0.9-0.6-1.4-0.3c-14.3,10.4-27.1,21.8-38.3,34.3c-0.3,0.4-0.9,0.4-1.3,0.1
	c-0.1-0.1-0.1-0.1-0.2-0.2c-3-4.9-6.9-9.2-11.6-12.5c-0.4-0.3-0.9-0.2-1.2,0.2c-18.4,22.7-41.6,48.6-71.5,70
	c-0.6,0.4-1.5-0.2-1.2-0.9c6.8-22.2,17-43.3,27-62.7c0.3-0.5,0-1.2-0.6-1.3c-4.2-0.9-9.8-1.5-15.1-1.8c-0.5,0-0.9-0.4-0.8-0.9
	c0-0.2,0.1-0.3,0.2-0.5c12.6-18.7,22.2-41.4,28.3-61.8c0.2-0.6-0.3-1.2-0.9-1.1c-10.5,0.5-23.3,2.8-33.8,6.5c-0.5,0.2-1-0.1-1.1-0.5
	c0-0.1-0.1-0.3,0-0.4c3.1-17.6,1.6-37.4-1.7-55.8c-0.1-0.5-0.6-0.8-1.1-0.7h-0.1c-7.4,2.8-16,7.1-23.7,11.8c-0.4,0.3-1,0.1-1.2-0.3
	c-0.1-0.2-0.1-0.3-0.1-0.5c1.2-16.6-0.7-34.9-4.2-49.7c-0.1-0.5-0.6-0.8-1.1-0.6c0,0,0,0-0.1,0c-5.4,1.9-11.8,5.2-17.8,8.8
	c-0.5,0.3-1.2,0.1-1.3-0.5c-5.7-16.7-14.9-33-24.8-49.1c-0.3-0.4-0.9-0.6-1.3-0.3c-0.1,0.1-0.2,0.2-0.3,0.3
	c-9.9,16.1-19,32.4-24.8,49.1c-0.2,0.5-0.7,0.7-1.1,0.6c-0.1,0-0.1,0-0.2-0.1c-6.1-3.6-12.4-6.9-17.8-8.8c-0.5-0.2-1,0.1-1.1,0.6
	c0,0,0,0,0,0.1c-3.6,14.8-5.4,33.1-4.2,49.7c0,0.5-0.3,0.9-0.8,1c-0.2,0-0.4,0-0.6-0.1c-7.7-4.7-16.3-9-23.7-11.8
	c-0.5-0.2-1,0.1-1.2,0.5c0,0.1,0,0.1,0,0.2c-3.4,18.3-4.8,38.1-1.7,55.8c0.1,0.5-0.2,0.9-0.7,1c-0.1,0-0.3,0-0.4,0
	c-10.5-3.7-23.3-6-33.8-6.5c-0.6,0-1.1,0.6-0.9,1.1c6.1,20.4,15.7,43.1,28.3,61.8c0.4,0.6,0,1.4-0.7,1.4c-5.3,0.3-10.9,0.8-15.1,1.8
	c-0.5,0.1-0.8,0.6-0.7,1.1c0,0.1,0,0.2,0.1,0.2c10,19.5,20.2,40.6,27,62.8c0.2,0.7-0.6,1.3-1.2,0.9c-26.5-18.5-51.9-45.7-71.5-70.1
	c-0.3-0.4-0.8-0.5-1.2-0.2c-4.9,3.5-8.7,7.8-11.6,12.5c-0.3,0.5-1.1,0.6-1.5,0.2c-11.2-12.5-24-23.9-38.3-34.3
	c-0.4-0.3-1.1-0.2-1.4,0.3c-4.9,8.6-7.2,18.5-9.2,27.2c-0.1,0.5-0.6,0.8-1.1,0.7c-0.1,0-0.1,0-0.2-0.1
	c-13.5-6.5-29.8-13.1-44.1-16.8c-0.7-0.2-1.3,0.4-1.2,1.1c3.1,15.8,7.1,30.4,13.5,43c0.2,0.4,0,1-0.4,1.2c-0.1,0-0.2,0.1-0.3,0.1
	c-7.7,1.1-15.4,3.2-23.4,6.2c-0.5,0.2-0.7,0.8-0.6,1.3c0,0,0,0.1,0.1,0.1c9.4,15.9,20.4,29.4,33,39.9c0.4,0.3,0.4,0.9,0.1,1.3
	c-0.1,0.1-0.2,0.2-0.3,0.2c-5.1,3-9.7,6.6-14,10.7c-0.4,0.4-0.4,0.9,0,1.3l0,0c16,15.7,33.6,29.9,52.4,42.1c0.4,0.3,0.6,0.9,0.3,1.3
	c-0.1,0.1-0.1,0.2-0.2,0.2c-7,5.4-13.1,11-18.4,17.3c-0.3,0.4-0.3,1,0.1,1.3c13.7,12.1,29.5,22,47.7,29.4c0.7,0.3,0.8,1.2,0.2,1.6
	c-6.5,4.9-11.8,10.3-16.6,16.1c-0.4,0.5-0.2,1.2,0.3,1.4c13,6.7,28.9,11,45.3,14c0.7,0.1,0.8,1.2,0.1,1.4
	c-21,6.5-40.2,14.9-58.7,25.1c-0.6,0.3-0.6,1.2-0.1,1.6c13.5,10,27.3,18.8,43.4,25c0.5,0.2,0.7,0.7,0.5,1.2
	c-0.1,0.1-0.2,0.3-0.3,0.4c-21.9,17.9-39.8,38.4-55.5,60.8c-0.5,0.7,0.1,1.6,0.9,1.5c22.4-2.8,43.1-6.3,61.1-11.2
	c0.8-0.2,1.4,0.6,1,1.3c-3.8,7.7-7.3,15.8-10.5,24.3c-0.2,0.5,0.1,1.1,0.6,1.2c0.1,0,0.3,0.1,0.4,0c20.1-2.2,38.5-4.7,53.1-8.1
	c0.8-0.2,1.4,0.7,1,1.4c-6.2,9.4-10.6,19.6-14.1,30.8c-0.2,0.7,0.4,1.3,1.1,1.2c35.3-6.7,67.5-16.8,96-30.5c0.6-0.3,1.3,0,1.6,0.6
	c0.1,0.1,0.1,0.3,0.1,0.4c1.7,25.3,11.3,42.9,24.5,57.1c0.5,0.5,1.3,0.6,1.8,0.1l18.5-17c0.6-0.5,0.6-1.4,0.1-1.9
	c-3.7-4.2-20.4-23.2-17.5-37.7c0.4-1.7,2.3-2.7,3.9-1.9c21.3,9.6,65.4,24.3,100,31c0.5,0.1,1-0.2,1.1-0.8c0-0.1,0-0.3,0-0.4
	c-3.5-11.2-7.9-21.4-14.1-30.8c-0.5-0.7,0.1-1.6,1-1.4c14.6,3.3,32.9,5.9,53.1,8.1c0.7,0.1,1.2-0.6,1-1.3
	c-3.2-8.6-6.6-16.7-10.5-24.3c-0.4-0.7,0.3-1.5,1-1.3c17.9,4.9,38.7,8.4,61.1,11.2c0.8,0.1,1.4-0.8,0.9-1.5
	c-15.7-22.4-33.6-42.9-55.5-60.8c-0.4-0.3-0.5-0.9-0.1-1.3c0.1-0.1,0.2-0.2,0.4-0.3c16-6.2,29.8-15,43.4-25c0.4-0.3,0.5-0.9,0.2-1.3
	c-0.1-0.1-0.2-0.2-0.3-0.3c-18.4-10.3-37.7-18.6-58.7-25.1c-0.7-0.2-0.7-1.3,0.1-1.4c16.4-3,32.3-7.3,45.3-14
	c0.5-0.2,0.6-0.8,0.4-1.3c0-0.1-0.1-0.1-0.1-0.2c-4.9-5.8-10.1-11.2-16.6-16.1c-0.4-0.3-0.5-0.9-0.2-1.3c0.1-0.1,0.2-0.3,0.4-0.3
	c18.3-7.4,34-17.3,47.7-29.4c0.4-0.3,0.4-0.9,0.1-1.3c-5.3-6.3-11.4-11.9-18.4-17.3c-0.5-0.4-0.5-1.2,0.1-1.5
	c18.8-12.3,36.4-26.4,52.4-42.1c0.4-0.4,0.4-0.9,0-1.3l0,0c-4.2-4.1-8.9-7.7-14-10.7c-0.4-0.2-0.6-0.8-0.3-1.2
	c0.1-0.1,0.1-0.2,0.2-0.3C548.1,265,559,251.5,568.5,235.2L568.5,235.2z"/>
<path id="White" class="st0" d="M296.5,236c0.2,0.1,0.3,0.3,0.3,0.5c0.1,6.6,0.3,13.2,0.5,19.8c0,0.2,0.2,0.4,0.4,0.4h5l0,0
	c0.1,0,0.2,0,0.3-0.1c0.1-0.1,0.1-0.2,0.1-0.3c-0.2-4.4-0.4-8.8-0.5-13.3c0-0.2,0.1-0.5,0.3-0.6c23.7-18,42.5-38.9,51.5-57.6
	l-0.3-0.1c-11,18.4-28.3,36.1-51.3,52.5c-0.1,0.1-0.4,0-0.4-0.2c-0.9-28.2-0.9-51.4,0-71c0.1-2.6,0.1-5.4,0.2-8.5
	c0-0.3,0.2-0.6,0.5-0.8c10.1-5.7,19.4-13.1,28.3-22.7l-0.2-0.2c-9.8,8.6-19,14.9-28.1,19.4c-0.1,0-0.2,0-0.3,0
	c0-0.1-0.1-0.1-0.1-0.2c0.6-34.8-0.2-75.4-1.9-94.4h-0.3c0.2,20.2-0.1,40.9-0.7,61.6c0,0.1-0.1,0.2-0.2,0.2c0,0-0.1,0-0.1-0.1
	c-8.4-8.8-16.1-18.7-22.9-29.3l-0.3,0.1c5.6,10.8,13.1,21.8,22.8,33.4c0.3,0.4,0.5,0.8,0.5,1.3c-0.5,13.4-1.1,26.7-1.9,39.4
	c-0.2,4.9-0.4,9.7-0.6,14.6c0,0.2-0.2,0.3-0.3,0.2c-10.7-7.6-20.5-18-28.5-30.2l-0.3,0.1c7,13.2,16.5,24.4,28.3,33.4
	c0.4,0.3,0.6,0.8,0.6,1.3c-0.5,15.3-0.6,30.6-0.4,46v0.1c0,0-0.1,0-0.2,0c-21-12.8-38.5-29.5-51.8-49.5l-0.3,0.1
	c12,21.2,31,41,52.1,54.4L296.5,236z M144.7,291.5c0,0,0.1,0,0.2,0l3.4-1.6c0.1-0.1,0.2-0.1,0.2-0.3s0-0.3-0.1-0.3
	c-1.2-1.3-2.5-2.6-3.8-3.9c-0.3-0.3-0.4-0.6-0.4-1c-0.2-13.3-4.7-25.1-13.2-35l-0.2,0.2c6.4,9.7,9.5,19.9,9.5,31.4l0,0
	c-8.5-8.5-17.4-16.7-26.4-24.7c-0.3-0.3-0.4-0.6-0.4-1c0.8-9.8-0.8-19-4.9-27.5l-0.3,0.1c2.9,8.2,3.6,16.4,2.1,25.2h-0.1
	c-10.4-9.5-21.8-20.8-35-34.6l-0.2,0.2c11.1,13.2,24.1,27.1,40,42.5c2.6,2.4,5.1,4.8,7.5,7.3c-1.6,0.1-3.1,0.2-4.7,0.2
	c-10.9,0-21.9-2.7-33.6-8.3l-0.1,0.3c12.4,7.6,25.5,11.3,40,11.3h1.5c0.2,0,0.4,0.1,0.6,0.2c5.3,5.3,11.2,11.6,18.1,19.2
	C144.4,291.5,144.5,291.5,144.7,291.5L144.7,291.5z M487.6,256.9c12-12.1,23.4-24.5,33.8-36.7l-0.2-0.2
	c-12.7,12.7-25.5,25.2-38.5,37.6h-0.1c0,0-0.1,0-0.1-0.1c-1.3-8.6-1-18,0.8-27.2l-0.3-0.1c-3.2,8.9-4.4,18.6-3.6,29.6
	c0,0.4-0.1,0.8-0.5,1.1c-10.3,9.2-20,18.5-28.8,27.6c-0.1,0.1-0.1,0.2-0.1,0.3c0,0.1,0.1,0.2,0.2,0.3l3.5,1.8l0.2,0.1
	c0.2,0,0.3-0.1,0.4-0.2c3.3-3.6,6.9-7.4,11.1-11.8c0.3-0.3,0.8-0.5,1.2-0.5c14.6-0.2,27.1-3.6,38.3-10.4l-0.1-0.3
	c-10.9,4.8-20.6,7-30.6,7c-1.4,0-2.9,0-4.3-0.1c-0.1,0-0.1-0.1-0.1-0.1v-0.1C475.6,268.5,481.6,262.7,487.6,256.9L487.6,256.9z
	 M312.8,501.4c-10.3,0-20.1,2.8-24.8,9.8c-0.1,0.1-0.1,0.1-0.2,0.1c-3.1-2-13.3-8.2-25.2-8.2c-6.4,0-13.4,3.1-20.4,7.1
	c-0.1,0-0.2,0.1-0.3,0c-18.8-2.8-36.7,0.9-54.4,7.7c18.4-4.7,35.7-7.6,49.5-4.9c0.1,0,0.1,0.1,0,0.2c-8.2,5-16.3,10.4-23.5,12.8
	c14.9-1.7,34.4-18.7,49.5-18.7c10.1,0,20.2,6.3,22.9,8.1c0.1,0.1,0.1,0.1,0.1,0.3c-0.7,2.4-1,5.1-0.8,8.1
	C290,510.2,300,507,313.7,507c10.5,0,21,3.7,33.3,6.5c0.1,0,0.2,0.1,0.3,0.1c7.5,6.5,21.3,13.1,27.9,14.2l2.8,0.5l-2.7-1
	c-5.6-2.2-15.6-7.2-20.6-12c-0.1-0.1,0-0.1,0.1-0.1c5.1,0.9,10.5,1.4,16.4,1.4c21.9,0,31.7-3.9,37.9-6.4c-6.6,1.4-12.8,3.4-34.8,3.4
	C354.3,513.5,329.2,501.4,312.8,501.4L312.8,501.4z M160.3,319.9c3.7-1.9,7.4-3.7,11.1-5.5l-4.3-8.4c-10.8,5.2-21.7,10.8-32.2,16.7
	l4.3,8.4c3.6-2,7.3-4,10.9-5.9l0.7-0.3l21.7,41.9c2.9-1.5,5.8-3.1,8.8-4.6l-21.7-41.9L160.3,319.9z M204.3,351.3
	c1.2,0,2.4-0.2,3.6-0.6c4.4-1.5,8.7-3,13.1-4.4c2.8-0.9,5-2.8,6.3-5.3s1.4-5.3,0.5-8l-11.3-33.2c-1.5-4.4-5.8-7.5-10.4-7.5
	c-1.1,0-2.2,0.2-3.3,0.5c-4.4,1.4-8.8,2.9-13.1,4.4c-5.6,2-8.6,8.2-6.7,13.9l11.3,33.2C195.8,348.5,199.8,351.3,204.3,351.3
	 M196.2,304.8c2-0.7,4-1.4,6.1-2.1c2.2-0.7,4.7,0.5,5.4,2.7l9.4,27.6c0.4,1.1,0.3,2.2-0.2,3.2s-1.4,1.8-2.5,2.1
	c-2,0.7-4,1.4-6.1,2.1c-2.2,0.8-4.6-0.4-5.4-2.6c0,0,0,0,0-0.1l-9.4-27.6C192.8,308,194,305.6,196.2,304.8 M308.2,334.2
	c6.1,0,10.7-4.6,10.7-10.5v-35.1c0-6-4.8-10.9-10.7-11c-2.3,0-4.6,0-6.9,0s-4.6,0-6.9,0c-5.9,0.1-10.7,5-10.7,11v35.1
	c0,5.9,4.7,10.5,10.6,10.5C295.3,334.2,300.6,334.1,308.2,334.2L308.2,334.2z M293.7,291.3c0-2.4,1.9-4.3,4.3-4.3h6.4
	c2.4,0,4.3,1.9,4.3,4.3v29.2c0,2.3-1.9,4.2-4.3,4.2H298c-2.4,0-4.3-1.9-4.3-4.2V291.3L293.7,291.3z M291.3,468.2h15.2l2.4,9.3h10
	l-13.3-49.2h-13.3L279,477.5h10L291.3,468.2z M298.9,438.4l5.2,20.5h-10.5L298.9,438.4L298.9,438.4z M324.7,388.8v-15.4
	c0-5.4-4.4-9.7-9.7-9.7h-21.3v49.2h9.6v-14.4H315C320.4,398.5,324.7,394.2,324.7,388.8 M315.1,386.3c0,1.7-1.3,3-3,3h-8.7V373h8.7
	c1.7,0,3,1.3,3,3V386.3z M194.6,428.2v49.2h28.8v-9.2h-19.1v-40H194.6z M231.4,363.7h-7.7L213,388.4l-10.7-24.7h-7.7v49.2h9.7v-22.7
	l8.7,19.7l8.7-19.7v22.7h9.6L231.4,363.7L231.4,363.7z M251.2,338.8l-2.7-16.8l0.7-0.1c1.4-0.2,2.7-0.5,4.1-0.7l0.4-0.1l0.3,0.4
	c3.6,5,7.1,10,10.7,15.1c3.2-0.5,6.4-0.9,9.6-1.3c-3.5-5-7-10-10.5-15l-0.5-0.7l0.9-0.4c4.4-1.9,7-6.5,6.3-11.3l-2.9-17.9
	c-0.9-5.3-5.5-9.2-10.8-9.2c-0.5,0-1.1,0-1.6,0.1c-7.6,1.1-15.2,2.4-22.7,3.9l9,55.9C244.7,339.9,248,339.3,251.2,338.8L251.2,338.8
	z M244.4,292.1c3-0.5,5.9-1,8.9-1.5c2.3-0.4,4.5,1.3,4.9,3.6l1.9,12.1c0.2,1.1-0.1,2.3-0.7,3.2c-0.7,0.9-1.7,1.5-2.8,1.7
	c-3,0.5-5.9,0.9-8.9,1.5l-0.7,0.1l-3.3-20.5L244.4,292.1L244.4,292.1z M271.3,412.9h9.9l-12.1-49.2H256l-12.1,49.2h9.9l2.1-9.3h13.4
	L271.3,412.9L271.3,412.9z M257.9,394.4l4.6-20.5l4.6,20.5H257.9z M361.4,437.5v-9.2h-30.9v49.2h9.7v-20h15.1v-9.3h-15.1v-10.7
	H361.4z M338.3,279.5l-9.5,55.8c3.3,0.4,6.5,0.9,9.8,1.4l5.4-32l0.9,2.8c3.7,10.7,7.3,21.5,11,32.2c2.6,0.5,5.2,1,7.7,1.5l9.5-55.8
	c-3.2-0.6-6.5-1.3-9.7-1.9l-5.4,32.1l-0.9-2.8c-3.6-10.7-7.3-21.4-11-32.2C343.5,280.2,340.9,279.8,338.3,279.5 M384.1,477.4H398
	c5.4,0,9.8-4.4,9.8-9.7v-7.1c0-3.7-1.4-7-4.7-8.7c0,0-17.2-7.7-17.5-7.8c-0.8-0.5-1.6-1.5-1.6-2.7v-1.1c0-1.6,1.3-3,3-3h8
	c1.7,0,3,1.3,3,3v2.1h9.8v-4.6c0-5.4-4.4-9.7-9.8-9.7h-13.9c-5.4,0-9.8,4.4-9.8,9.7v5.1c0,3.7,1.4,7,4.7,8.7c0,0,17.2,7.7,17.5,7.8
	c0.8,0.4,1.6,1.5,1.6,2.6v3.1c0,1.6-1.3,3-3,3h-8c-1.7,0-3-1.3-3-3V463h-9.8v4.6C374.3,473,378.7,477.4,384.1,477.4L384.1,477.4z
	 M407.8,403.7H389v-10.8h12.8v-9.2H389V373h18.8v-9.3h-28.4v49.2h28.4V403.7z M366.8,403.7H349v-40h-9.6v49.2h27.5v-9.2H366.8z
	 M392,349.8l15-44.7l0.7,0.2c3.9,1.4,7.8,2.8,11.7,4.2l3-8.9c-11.3-4.2-22.8-8-34.4-11.5l-3,8.9c4,1.2,7.9,2.4,11.9,3.7l0.7,0.2
	l-15,44.7C385.7,347.7,388.9,348.7,392,349.8 M267.2,437.5v-9.2h-30.9v49.2h30.9v-9.2H246v-10.7h15.1v-9.3H246v-10.7L267.2,437.5z
	 M457.4,317.2c-4.1-2.2-8.2-4.3-12.3-6.3c-1.5-0.7-3.1-1.1-4.8-1.1c-4.1,0-7.9,2.3-9.8,6L414.4,347c-1.3,2.5-1.5,5.4-0.7,8
	c0.9,2.7,2.8,4.9,5.4,6.2c4.1,2.1,8.2,4.2,12.3,6.4c1.6,0.8,3.3,1.3,5,1.3c3.9,0,7.5-2.2,9.3-5.7l16.1-31.2
	C464.6,326.6,462.6,320,457.4,317.2L457.4,317.2z M451.6,329.7l-13.4,25.9c-0.7,1.4-2.2,2.3-3.8,2.3c-0.7,0-1.4-0.2-2-0.5
	c-1.9-1-3.8-2-5.7-2.9c-1-0.5-1.8-1.4-2.1-2.5c-0.3-1.1-0.2-2.2,0.3-3.2l13.4-25.9c0.7-1.4,2.2-2.3,3.8-2.3c0.7,0,1.3,0.2,1.9,0.5
	c1.9,1,3.8,1.9,5.7,3C451.8,325,452.6,327.5,451.6,329.7L451.6,329.7z"/>
</svg>
