<svg version="1.1" id="Layer_1" xmlns="http://www.w3.org/2000/svg" xmlns:xlink="http://www.w3.org/1999/xlink" x="0px" y="0px"
	 viewBox="0 0 600 600" style="enable-background:new 0 0 600 600;" xml:space="preserve">
<style type="text/css">
	.st0{fill:#FFFFFF;}
</style>
<path id="Outline" class="st0" d="M300,0c-1.9,0-3.6,0.6-5.1,1.7L294.4,2L294,2.4l-0.3,0.3l-0.6,0.6l-0.5,0.8
	c-7.5,12.3-15.8,26.5-22,41.7c-4.3-2.3-8.1-4-11.5-5.2c-1-0.4-2-0.5-3-0.5c-4.1,0-7.6,2.9-8.4,6.9l-0.1,0.4
	c-2.8,11.9-4.4,25.2-4.5,37.8c-4.7-2.4-9.3-4.5-13.5-6.1c-1-0.4-2-0.6-3.1-0.6c-3.3,0-6.4,1.9-7.8,4.9l-0.8,1.6v1.3
	c-3,16.7-4,31.9-2.9,45.6c-8-2-16.7-3.3-24.6-3.7h-0.2H190c-2.9,0-5.6,1.4-7.2,3.9c-1.5,2.2-1.9,4.9-1.1,7.4
	c5.7,18.9,13.5,37.2,22.5,52.5c-1.7,0.3-3.2,0.5-4.6,0.9c-2.2,0.5-4.2,1.9-5.4,3.9c-1.1,1.7-1.5,3.7-1.3,5.6
	c0.1,1.4,0.6,2.7,1.3,3.7c6,11.6,12,23.9,17.2,36.5c-19.5-16.9-36.8-36.7-49.1-51.9c-1.6-2.1-4.2-3.3-6.8-3.3
	c-1.8,0-3.6,0.6-5.1,1.7c-3,2.1-5.7,4.6-8.1,7.3c-9.7-10.1-20.8-19.6-32.8-28.4c-1.5-1.1-3.3-1.7-5.1-1.7c-3.1,0-6,1.6-7.5,4.2v0.1
	v0.1c-3.7,6.6-6.1,13.7-7.8,20.4c-9.7-4.3-23.3-9.8-36.7-13.3c-0.7-0.2-1.5-0.3-2.3-0.3c-2.5,0-4.9,1.1-6.6,3
	c-1.7,1.9-2.4,4.5-2.1,7v0.2v0.2c2.8,14.3,6.1,25.9,10.1,35.7c-5,1.2-10.1,2.8-15.5,4.8h-0.1h-0.1c-3.8,1.5-6,5.5-5.4,9.6
	c0.2,1.3,0.7,2.6,1.5,3.6c7.9,13.3,16.9,24.7,26.7,34.2c-2.5,1.9-5,4-7.4,6.4l-0.1,0.1l-0.1,0.1c-3.4,3.4-3.4,8.9,0,12.3l0,0l0,0
	c13.9,13.6,28.8,26,44.5,36.8c-4.4,3.9-8.3,7.9-11.8,12l-0.1,0.2l-0.1,0.2c-2.8,3.7-2.2,9,1.3,11.9c11.5,10.1,24.4,18.6,38.4,25.4
	c-3,2.9-5.9,6-8.9,9.6l0,0v0.1c-1.7,2.2-2.3,5-1.6,7.7c0.6,2.4,2.3,4.5,4.6,5.6c6.5,3.3,13.9,6.2,22.3,8.7
	c-12,4.8-23.8,10.4-35.6,16.9c-2.5,1.3-4.2,3.8-4.5,6.7c-0.3,3,0.9,5.9,3.2,7.8l0.1,0.1l0.1,0.1c8.8,6.5,20.2,14.4,33.7,20.9
	c-17,15.1-32.4,32.7-47.1,53.6c-1.9,2.7-2.1,6.1-0.6,9s4.5,4.7,7.8,4.7c0.4,0,0.7,0,1.1-0.1c17.9-2.2,33.2-4.8,46.6-7.7
	c-1.6,3.7-3.1,7.4-4.5,11.2c-0.9,2.4-0.7,5,0.5,7.3s3.4,3.8,5.9,4.3l0.8,0.2h0.2c0.3,0,0.5,0,0.8,0c0.5,0,1.1-0.1,1.6-0.2
	c15.1-1.7,27.1-3.3,37.2-5c-2.7,5.6-5,11.7-7.1,18.5v0.1v0.1c-0.8,2.7-0.2,5.4,1.4,7.6c1.6,2.2,4.3,3.5,7,3.5c0.4,0,0.8,0,1.3-0.1
	h0.2h0.2c31.9-6.1,61.2-14.9,87.1-26.5c3,19.6,11,36,24.9,51l0.1,0.1l0.1,0.1c1.7,1.7,4.1,2.7,6.5,2.7c2.3,0,4.5-0.9,6.1-2.4
	l17.9-16.4c1.8-1.6,2.9-3.9,3-6.4c0.1-2.4-0.8-4.8-2.4-6.5c-9.2-10.4-13-17.9-14.5-22.9c23.5,9.6,61.1,21.6,91.5,27.5
	c0.5,0.1,1.1,0.2,1.7,0.2c4.3,0,7.9-3.1,8.6-7.3l0.1-0.6v-0.6V564v-1.2l-0.4-1.1c-2.1-6.8-4.5-12.9-7.1-18.5
	c10.6,1.8,23.1,3.5,37.8,5.1c0.3,0,0.7,0.1,1,0.1c2.7,0,5.3-1.3,6.9-3.5c1.7-2.2,2.2-5.1,1.4-7.8l-0.1-0.3l-0.1-0.3
	c-1.5-4-3-7.7-4.4-11.2c13.2,2.9,28.6,5.4,46.5,7.7c0.4,0,0.7,0.1,1.1,0.1c3.3,0,6.3-1.8,7.8-4.7c1.5-2.9,1.2-6.3-0.6-9
	c-14.6-20.9-30.1-38.5-47-53.6c13.5-6.5,24.9-14.4,33.8-20.9l0,0l0,0c3.8-2.9,4.6-8.4,1.8-12.2l-0.3-0.4l-0.4-0.4l-0.3-0.3l-0.8-0.8
	l-0.9-0.5c-11.6-6.5-23.3-12.1-35.6-17c8.4-2.5,15.8-5.4,22.2-8.7c3.6-1.7,5.5-5.7,4.7-9.7V393l-1.8-2.2c-3-3.6-5.9-6.7-8.8-9.5
	c14-6.7,26.7-15.1,38.4-25.5c1.8-1.5,2.9-3.7,3-6.1c0.1-2.1-0.5-4.1-1.8-5.8l-0.1-0.2l-0.1-0.2c-3.5-4.1-7.4-8.1-11.8-12
	c16-11.1,30.9-23.4,44.6-36.8l0,0l0,0c3.4-3.4,3.4-8.9,0-12.3l0,0l0,0c-2.3-2.3-4.8-4.4-7.5-6.4c10-9.7,19-21.5,27.1-35.2
	c1.3-2.2,1.6-4.8,0.8-7.2c-0.1-0.2-0.1-0.3-0.2-0.5V230l-5.1-1.9c-5.4-2-10.6-3.6-15.5-4.8c4.1-10,7.3-21.6,10.1-35.7v-0.2v-0.2
	c0.4-2.5-0.4-5.1-2.1-7c-1.7-1.9-4-3-6.6-3c-0.8,0-1.5,0.1-2.3,0.3c-12.5,3.3-25.9,8.6-36.7,13.4c-1.8-7-4.2-14-7.8-20.4l-0.1-0.1
	l-0.1-0.1c-1.6-2.7-4.4-4.2-7.5-4.2c-1.6,0-3.2,0.4-4.6,1.3l-0.3,0.2l-0.3,0.2c-12.1,8.8-23.1,18.3-32.9,28.4
	c-2.4-2.8-5.2-5.2-8.1-7.3c-1.5-1.1-3.2-1.6-5-1.6l0,0c-2.6,0-5.1,1.2-6.8,3.3c-12.5,15.4-28.7,34.2-49.1,51.8
	c5.3-12.9,11.4-25.2,17.5-37c1.3-2.4,1.4-5.3,0.2-7.7c-1.2-2.5-3.5-4.3-6.2-4.9c-1.4-0.3-2.9-0.6-4.3-0.8
	c9-15.4,16.9-33.7,22.5-52.7c0.8-2.6,0.3-5.4-1.2-7.6c-1.6-2.2-4.2-3.6-7-3.6c-0.2,0-0.5,0-0.7,0c-7.9,0.4-16.4,1.7-24.4,3.6
	c1.1-13.6,0-29.1-3-46.2v-0.1v-0.1c-0.8-4-4.4-7-8.5-7c-0.2,0-0.4,0-0.6,0h-1.1l-1.3,0.5c-4.2,1.6-8.8,3.7-13.5,6
	c-0.1-12.6-1.7-26-4.6-38.2c-0.9-3.9-4.4-6.7-8.4-6.7l0,0c-0.3,0-0.7,0-1,0.1h-0.7l-1.3,0.4c-3.9,1.4-7.9,3.3-11.6,5.2
	c-6-14.9-14.4-29.3-22-41.7l-0.2-0.3L307,3.3C305.4,1.3,302.8,0,300,0L300,0L300,0L300,0z"/>
<path id="Blue_3_" d="M561.8,236.8c0.3-0.5,0.1-1.1-0.4-1.3c0,0-0.1,0-0.1-0.1c-7.9-2.9-15.3-5-22.8-6c-0.6-0.1-1-0.7-0.7-1.3
	c6.1-12.4,10.1-26.6,13.2-41.9c0.1-0.7-0.5-1.3-1.2-1.1c-13.8,3.6-29.7,10.1-43,16.4c-0.4,0.2-1,0-1.2-0.4c0-0.1-0.1-0.1-0.1-0.2
	c-2-8.6-4.3-18.2-9-26.5c-0.3-0.5-0.9-0.6-1.4-0.3c-13.9,10.1-26.4,21.3-37.3,33.4c-0.3,0.4-0.9,0.4-1.3,0.1
	c-0.1-0.1-0.1-0.1-0.2-0.2c-2.9-4.8-6.7-9-11.3-12.2c-0.4-0.3-0.9-0.2-1.2,0.2c-17.9,22.1-40.6,47.4-69.7,68.3
	c-0.6,0.4-1.5-0.2-1.2-0.9c6.6-21.6,16.6-42.2,26.3-61.1c0.3-0.5,0-1.2-0.6-1.3c-4.1-0.9-9.6-1.5-14.7-1.8c-0.5,0-0.9-0.4-0.8-0.9
	c0-0.2,0.1-0.3,0.2-0.5c12.3-18.2,21.6-40.4,27.6-60.3c0.2-0.6-0.3-1.2-0.9-1.1c-10.2,0.5-22.7,2.7-33,6.3c-0.5,0.2-1-0.1-1.1-0.5
	c0-0.1-0.1-0.3,0-0.4c3-17.2,1.6-36.5-1.7-54.4c-0.1-0.5-0.6-0.8-1.1-0.7H373c-7.2,2.7-15.6,6.9-23.1,11.5c-0.4,0.3-1,0.1-1.2-0.3
	c-0.1-0.2-0.1-0.3-0.1-0.5c1.2-16.2-0.7-34-4.1-48.5c-0.1-0.5-0.6-0.8-1.1-0.6c0,0,0,0-0.1,0c-5.3,1.9-11.5,5.1-17.4,8.6
	c-0.5,0.3-1.2,0.1-1.3-0.5c-5.6-16.3-14.5-32.2-24.2-47.9c-0.3-0.4-0.9-0.6-1.3-0.3c-0.1,0.1-0.2,0.2-0.3,0.3
	c-9.7,15.7-18.5,31.6-24.2,47.9c-0.2,0.5-0.7,0.7-1.1,0.6c-0.1,0-0.1,0-0.2-0.1c-5.9-3.5-12.1-6.7-17.4-8.6c-0.5-0.2-1,0.1-1.1,0.6
	c0,0,0,0,0,0.1c-3.5,14.4-5.3,32.3-4.1,48.5c0,0.5-0.3,0.9-0.8,1c-0.2,0-0.4,0-0.6-0.1c-7.5-4.6-15.9-8.8-23.1-11.5
	c-0.5-0.2-1,0.1-1.2,0.5c0,0.1,0,0.1,0,0.2c-3.3,17.8-4.7,37.2-1.7,54.4c0.1,0.5-0.2,0.9-0.7,1c-0.1,0-0.3,0-0.4,0
	c-10.2-3.6-22.7-5.9-33-6.3c-0.6,0-1.1,0.6-0.9,1.1c5.9,19.9,15.3,42,27.6,60.3c0.4,0.6,0,1.4-0.7,1.4c-5.2,0.3-10.6,0.8-14.7,1.8
	c-0.5,0.1-0.8,0.6-0.7,1.1c0,0.1,0,0.2,0.1,0.2c9.8,19,19.7,39.6,26.3,61.2c0.2,0.7-0.6,1.3-1.2,0.9c-25.8-18-50.6-44.6-69.7-68.4
	c-0.3-0.4-0.8-0.5-1.2-0.2c-4.8,3.4-8.5,7.6-11.3,12.2c-0.3,0.5-1.1,0.6-1.5,0.2c-10.9-12.2-23.4-23.3-37.3-33.4
	c-0.4-0.3-1.1-0.2-1.4,0.3c-4.8,8.4-7,18-9,26.5c-0.1,0.5-0.6,0.8-1.1,0.7c-0.1,0-0.1,0-0.2-0.1c-13.2-6.3-29.1-12.8-43-16.4
	c-0.7-0.2-1.3,0.4-1.2,1.1c3,15.4,6.9,29.6,13.2,41.9c0.2,0.4,0,1-0.4,1.2c-0.1,0-0.2,0.1-0.3,0.1c-7.5,1.1-15,3.1-22.8,6
	c-0.5,0.2-0.7,0.8-0.6,1.3c0,0,0,0.1,0.1,0.1c9.2,15.5,19.9,28.7,32.2,38.9c0.4,0.3,0.4,0.9,0.1,1.3c-0.1,0.1-0.2,0.2-0.3,0.2
	c-5,2.9-9.5,6.4-13.7,10.4c-0.4,0.4-0.4,0.9,0,1.3l0,0c15.6,15.3,32.8,29.2,51.1,41.1c0.4,0.3,0.6,0.9,0.3,1.3
	c-0.1,0.1-0.1,0.2-0.2,0.2c-6.8,5.3-12.8,10.7-17.9,16.9c-0.3,0.4-0.3,1,0.1,1.3c13.4,11.8,28.8,21.5,46.5,28.7
	c0.7,0.3,0.8,1.2,0.2,1.6c-6.3,4.8-11.5,10-16.2,15.7c-0.4,0.5-0.2,1.2,0.3,1.4c12.7,6.5,28.2,10.7,44.2,13.7
	c0.7,0.1,0.8,1.2,0.1,1.4c-20.5,6.3-39.2,14.5-57.2,24.5c-0.6,0.3-0.6,1.2-0.1,1.6c13.2,9.8,26.6,18.3,42.3,24.4
	c0.5,0.2,0.7,0.7,0.5,1.2c-0.1,0.1-0.2,0.3-0.3,0.4c-21.4,17.5-38.8,37.4-54.1,59.3c-0.5,0.7,0.1,1.6,0.9,1.5
	c21.8-2.7,42-6.1,59.6-10.9c0.8-0.2,1.4,0.6,1,1.3c-3.7,7.5-7.1,15.4-10.2,23.7c-0.2,0.5,0.1,1.1,0.6,1.2c0.1,0,0.3,0.1,0.4,0
	c19.6-2.1,37.5-4.6,51.8-7.9c0.8-0.2,1.4,0.7,1,1.4c-6,9.2-10.3,19.1-13.8,30c-0.2,0.7,0.4,1.3,1.1,1.2
	c34.4-6.5,65.8-16.4,93.6-29.7c0.6-0.3,1.3,0,1.6,0.6c0.1,0.1,0.1,0.3,0.1,0.4c1.7,24.7,11,41.8,23.9,55.7c0.5,0.5,1.3,0.6,1.8,0.1
	l18-16.6c0.6-0.5,0.6-1.4,0.1-1.9c-3.6-4.1-19.9-22.6-17.1-36.8c0.4-1.7,2.2-2.6,3.8-1.9c20.8,9.4,63.8,23.7,97.5,30.2
	c0.5,0.1,1-0.2,1.1-0.8c0-0.1,0-0.3,0-0.4c-3.4-10.9-7.7-20.9-13.8-30c-0.5-0.7,0.1-1.6,1-1.4c14.2,3.2,32.1,5.8,51.8,7.9
	c0.7,0.1,1.2-0.6,1-1.3c-3.1-8.4-6.4-16.3-10.2-23.7c-0.4-0.7,0.3-1.5,1-1.3c17.5,4.8,37.7,8.2,59.6,10.9c0.8,0.1,1.4-0.8,0.9-1.5
	c-15.3-21.8-32.8-41.8-54.1-59.3c-0.4-0.3-0.5-0.9-0.1-1.3c0.1-0.1,0.2-0.2,0.4-0.3c15.6-6,29.1-14.6,42.3-24.4
	c0.4-0.3,0.5-0.9,0.2-1.3c-0.1-0.1-0.2-0.2-0.3-0.3c-17.9-10-36.8-18.1-57.2-24.5c-0.7-0.2-0.7-1.3,0.1-1.4
	c16-2.9,31.5-7.1,44.2-13.7c0.5-0.2,0.6-0.8,0.4-1.3c0-0.1-0.1-0.1-0.1-0.2c-4.8-5.7-9.8-10.9-16.2-15.7c-0.4-0.3-0.5-0.9-0.2-1.3
	c0.1-0.1,0.2-0.3,0.4-0.3c17.8-7.2,33.2-16.9,46.5-28.7c0.4-0.3,0.4-0.9,0.1-1.3c-5.2-6.1-11.1-11.6-17.9-16.9
	c-0.5-0.4-0.5-1.2,0.1-1.5c18.3-12,35.5-25.7,51.1-41.1c0.4-0.4,0.4-0.9,0-1.3l0,0c-4.1-4-8.7-7.5-13.7-10.4
	c-0.4-0.2-0.6-0.8-0.3-1.2c0.1-0.1,0.1-0.2,0.2-0.3C541.9,265.9,552.5,252.7,561.8,236.8L561.8,236.8z"/>
<path id="White" class="st0" d="M296.5,237.6c0.2,0.1,0.3,0.3,0.3,0.5c0.1,6.4,0.3,12.9,0.5,19.3c0,0.2,0.2,0.4,0.4,0.4h4.9l0,0
	c0.1,0,0.2,0,0.3-0.1c0.1-0.1,0.1-0.2,0.1-0.3c-0.2-4.3-0.4-8.6-0.5-13c0-0.2,0.1-0.5,0.3-0.6c23.1-17.6,41.4-37.9,50.2-56.2
	l-0.3-0.1c-10.7,17.9-27.6,35.2-50,51.2c-0.1,0.1-0.4,0-0.4-0.2c-0.9-27.5-0.9-50.1,0-69.2c0.1-2.5,0.1-5.3,0.2-8.3
	c0-0.3,0.2-0.6,0.5-0.8c9.8-5.6,18.9-12.8,27.6-22.1l-0.2-0.2c-9.6,8.4-18.5,14.5-27.4,18.9c-0.1,0-0.2,0-0.3,0
	c0-0.1-0.1-0.1-0.1-0.2c0.6-33.9-0.2-73.5-1.9-92.1h-0.3c0.2,19.7-0.1,39.9-0.7,60.1c0,0.1-0.1,0.2-0.2,0.2c0,0-0.1,0-0.1-0.1
	c-8.2-8.6-15.7-18.2-22.3-28.6l-0.3,0.1c5.5,10.5,12.8,21.3,22.2,32.6c0.3,0.4,0.5,0.8,0.5,1.3c-0.5,13.1-1.1,26-1.9,38.4
	c-0.2,4.8-0.4,9.5-0.6,14.2c0,0.2-0.2,0.3-0.3,0.2c-10.4-7.4-20-17.6-27.8-29.5l-0.3,0.1c6.8,12.9,16.1,23.8,27.6,32.6
	c0.4,0.3,0.6,0.8,0.6,1.3c-0.5,14.9-0.6,29.8-0.4,44.9v0.1c0,0-0.1,0-0.2,0c-20.5-12.5-37.5-28.8-50.5-48.3l-0.3,0.1
	c11.7,20.7,30.2,40,50.8,53L296.5,237.6z M148.5,291.7c0,0,0.1,0,0.2,0l3.3-1.6c0.1-0.1,0.2-0.1,0.2-0.3c0-0.2,0-0.3-0.1-0.3
	c-1.2-1.3-2.4-2.5-3.7-3.8c-0.3-0.3-0.4-0.6-0.4-1c-0.2-13-4.6-24.5-12.9-34.1l-0.2,0.2c6.2,9.5,9.3,19.4,9.3,30.6l0,0
	c-8.3-8.3-17-16.3-25.7-24.1c-0.3-0.3-0.4-0.6-0.4-1c0.8-9.6-0.8-18.5-4.8-26.8l-0.3,0.1c2.8,8,3.5,16,2,24.6h0
	c-10.1-9.3-21.3-20.3-34.1-33.7l-0.2,0.2c10.8,12.9,23.5,26.4,39,41.4c2.5,2.3,5,4.7,7.3,7.1c-1.6,0.1-3,0.2-4.6,0.2
	c-10.6,0-21.4-2.6-32.8-8.1l-0.1,0.3c12.1,7.4,24.9,11,39,11h1.5c0.2,0,0.4,0.1,0.6,0.2c5.2,5.2,10.9,11.3,17.7,18.7
	C148.2,291.7,148.3,291.7,148.5,291.7L148.5,291.7z M482.9,258c11.7-11.8,22.8-23.9,33-35.8l-0.2-0.2
	c-12.4,12.4-24.9,24.6-37.5,36.7H478c0,0-0.1,0-0.1-0.1c-1.3-8.4-1-17.6,0.8-26.5l-0.3-0.1c-3.1,8.7-4.3,18.1-3.5,28.9
	c0,0.4-0.1,0.8-0.5,1.1c-10,9-19.5,18-28.1,26.9c-0.1,0.1-0.1,0.2-0.1,0.3c0,0.1,0.1,0.2,0.2,0.3l3.4,1.8l0.2,0.1
	c0.2,0,0.3-0.1,0.4-0.2c3.2-3.5,6.7-7.2,10.8-11.5c0.3-0.3,0.8-0.5,1.2-0.5c14.2-0.2,26.4-3.5,37.3-10.1l-0.1-0.3
	c-10.6,4.7-20.1,6.8-29.8,6.8c-1.4,0-2.8,0-4.2-0.1c-0.1,0-0.1-0.1-0.1-0.1v-0.1C471.2,269.3,477,263.6,482.9,258L482.9,258z
	 M312.4,496.4c-10,0-19.6,2.7-24.2,9.6c-0.1,0.1-0.1,0.1-0.2,0.1c-3-2-13-8-24.6-8c-6.2,0-13.1,3-19.9,6.9c-0.1,0-0.2,0.1-0.3,0
	c-18.3-2.7-35.8,0.9-53,7.5c17.9-4.6,34.8-7.4,48.3-4.8c0.1,0,0.1,0.1,0,0.2c-8,4.9-15.9,10.1-22.9,12.5
	c14.5-1.7,33.5-18.2,48.3-18.2c9.8,0,19.7,6.1,22.3,7.9c0.1,0.1,0.1,0.1,0.1,0.3c-0.7,2.3-1,5-0.8,7.9c4.7-13.3,14.4-16.4,27.8-16.4
	c10.2,0,20.5,3.6,32.5,6.3c0.1,0,0.2,0.1,0.3,0.1c7.3,6.3,20.8,12.8,27.2,13.8l2.7,0.5l-2.6-1c-5.5-2.1-15.2-7-20.1-11.7
	c-0.1-0.1,0-0.1,0.1-0.1c5,0.9,10.2,1.4,16,1.4c21.4,0,30.9-3.8,37-6.2c-6.4,1.4-12.5,3.3-33.9,3.3
	C352.9,508.2,328.4,496.4,312.4,496.4L312.4,496.4z M163.7,319.4c3.6-1.9,7.2-3.6,10.8-5.4l-4.2-8.2c-10.5,5.1-21.2,10.5-31.4,16.3
	l4.2,8.2c3.5-2,7.1-3.9,10.6-5.8l0.7-0.3l21.2,40.9c2.8-1.5,5.7-3,8.6-4.5L163,319.8L163.7,319.4z M206.6,350c1.2,0,2.3-0.2,3.5-0.6
	c4.3-1.5,8.5-2.9,12.8-4.3c2.7-0.9,4.9-2.7,6.1-5.2c1.3-2.4,1.4-5.2,0.5-7.8l-11-32.4c-1.5-4.3-5.7-7.3-10.1-7.3
	c-1.1,0-2.1,0.2-3.2,0.5c-4.3,1.4-8.6,2.8-12.8,4.3c-5.5,2-8.4,8-6.5,13.6l11,32.4C198.3,347.3,202.2,350,206.6,350 M198.7,304.7
	c2-0.7,3.9-1.4,5.9-2c2.1-0.7,4.6,0.5,5.3,2.6l9.2,26.9c0.4,1.1,0.3,2.1-0.2,3.1s-1.4,1.8-2.4,2c-2,0.7-3.9,1.4-5.9,2
	c-2.1,0.8-4.5-0.4-5.3-2.5c0,0,0,0,0-0.1l-9.2-26.9C195.4,307.8,196.6,305.5,198.7,304.7 M307.9,333.4c5.9,0,10.4-4.5,10.4-10.2V289
	c0-5.9-4.7-10.6-10.4-10.7c-2.2,0-4.5,0-6.7,0s-4.5,0-6.7,0c-5.8,0.1-10.4,4.9-10.4,10.7v34.2c0,5.8,4.6,10.2,10.3,10.2
	C295.4,333.4,300.5,333.3,307.9,333.4L307.9,333.4z M293.8,291.5c0-2.3,1.9-4.2,4.2-4.2h6.2c2.3,0,4.2,1.9,4.2,4.2V320
	c0,2.2-1.9,4.1-4.2,4.1H298c-2.3,0-4.2-1.9-4.2-4.1V291.5L293.8,291.5z M291.5,464h14.8l2.3,9.1h9.8l-13-48h-13l-13,48h9.8
	L291.5,464z M298.9,435l5.1,20h-10.2L298.9,435L298.9,435z M324,386.6v-15c0-5.3-4.3-9.5-9.5-9.5h-20.8v48h9.4v-14h11.4
	C319.8,396.1,324,391.9,324,386.6 M314.7,384.2c0,1.7-1.3,2.9-2.9,2.9h-8.5v-15.9h8.5c1.7,0,2.9,1.3,2.9,2.9V384.2z M197.2,425v48
	h28.1v-9h-18.6v-39H197.2z M233,362.1h-7.5l-10.4,24.1l-10.4-24.1h-7.5v48h9.5V388l8.5,19.2l8.5-19.2v22.1h9.4L233,362.1L233,362.1z
	 M252.4,337.8l-2.6-16.4l0.7-0.1c1.4-0.2,2.6-0.5,4-0.7l0.4-0.1l0.3,0.4c3.5,4.9,6.9,9.8,10.4,14.7c3.1-0.5,6.2-0.9,9.4-1.3
	c-3.4-4.9-6.8-9.8-10.2-14.6l-0.5-0.7l0.9-0.4c4.3-1.9,6.8-6.3,6.1-11l-2.8-17.5c-0.9-5.2-5.4-9-10.5-9c-0.5,0-1.1,0-1.6,0.1
	c-7.4,1.1-14.8,2.3-22.1,3.8l8.8,54.5C246,338.9,249.2,338.3,252.4,337.8L252.4,337.8z M245.7,292.3c2.9-0.5,5.8-1,8.7-1.5
	c2.2-0.4,4.4,1.3,4.8,3.5l1.9,11.8c0.2,1.1-0.1,2.2-0.7,3.1c-0.7,0.9-1.7,1.5-2.7,1.7c-2.9,0.5-5.8,0.9-8.7,1.5l-0.7,0.1l-3.2-20
	L245.7,292.3L245.7,292.3z M272,410.1h9.7l-11.8-48H257l-11.8,48h9.7l2-9.1H270L272,410.1L272,410.1z M258.9,392.1l4.5-20l4.5,20
	H258.9z M359.8,434.1v-9h-30.1v48h9.5v-19.5h14.7v-9.1h-14.7v-10.4H359.8z M337.3,280l-9.3,54.4c3.2,0.4,6.3,0.9,9.6,1.4l5.3-31.2
	l0.9,2.7c3.6,10.4,7.1,21,10.7,31.4c2.5,0.5,5.1,1,7.5,1.5l9.3-54.4c-3.1-0.6-6.3-1.3-9.5-1.9l-5.3,31.3l-0.9-2.7
	c-3.5-10.4-7.1-20.9-10.7-31.4C342.4,280.7,339.8,280.3,337.3,280 M382,473h13.6c5.3,0,9.6-4.3,9.6-9.5v-6.9c0-3.6-1.4-6.8-4.6-8.5
	c0,0-16.8-7.5-17.1-7.6c-0.8-0.5-1.6-1.5-1.6-2.6v-1.1c0-1.6,1.3-2.9,2.9-2.9h7.8c1.7,0,2.9,1.3,2.9,2.9v2h9.6v-4.5
	c0-5.3-4.3-9.5-9.6-9.5H382c-5.3,0-9.6,4.3-9.6,9.5v5c0,3.6,1.4,6.8,4.6,8.5c0,0,16.8,7.5,17.1,7.6c0.8,0.4,1.6,1.5,1.6,2.5v3
	c0,1.6-1.3,2.9-2.9,2.9H385c-1.7,0-2.9-1.3-2.9-2.9v-2h-9.6v4.5C372.4,468.7,376.7,473,382,473L382,473z M405.1,401.1h-18.3v-10.5
	h12.5v-9h-12.5v-10.4h18.3v-9.1h-27.7v48h27.7V401.1z M365.1,401.1h-17.4v-39h-9.4v48h26.8V401.1L365.1,401.1z M389.7,348.6
	l14.6-43.6l0.7,0.2c3.8,1.4,7.6,2.7,11.4,4.1l2.9-8.7c-11-4.1-22.2-7.8-33.5-11.2l-2.9,8.7c3.9,1.2,7.7,2.3,11.6,3.6l0.7,0.2
	l-14.6,43.6C383.5,346.5,386.6,347.5,389.7,348.6 M268,434.1v-9h-30.1v48H268v-9h-20.7v-10.4H262v-9.1h-14.7v-10.4L268,434.1z
	 M453.4,316.8c-4-2.1-8-4.2-12-6.1c-1.5-0.7-3-1.1-4.7-1.1c-4,0-7.7,2.2-9.6,5.9l-15.7,30.4c-1.3,2.4-1.5,5.3-0.7,7.8
	c0.9,2.6,2.7,4.8,5.3,6c4,2,8,4.1,12,6.2c1.6,0.8,3.2,1.3,4.9,1.3c3.8,0,7.3-2.1,9.1-5.6l15.7-30.4
	C460.5,325.9,458.5,319.5,453.4,316.8L453.4,316.8z M447.8,329l-13.1,25.3c-0.7,1.4-2.1,2.2-3.7,2.2c-0.7,0-1.4-0.2-2-0.5
	c-1.9-1-3.7-2-5.6-2.8c-1-0.5-1.8-1.4-2-2.4c-0.3-1.1-0.2-2.1,0.3-3.1l13.1-25.3c0.7-1.4,2.1-2.2,3.7-2.2c0.7,0,1.3,0.2,1.9,0.5
	c1.9,1,3.7,1.9,5.6,2.9C448,324.4,448.8,326.8,447.8,329L447.8,329z"/>
</svg>
