<svg version="1.1" id="Layer_1" xmlns="http://www.w3.org/2000/svg" xmlns:xlink="http://www.w3.org/1999/xlink" x="0px" y="0px"
	 viewBox="0 0 600 600" style="enable-background:new 0 0 600 600;" xml:space="preserve">
<style type="text/css">
	.st0{fill:#FFFFFF;}
</style>
<path id="Grey" class="st0" d="M298.1,369.1l127.6-63.7C513.1,330,539,363.1,539,363.1l50-56.5c2.7-2.9,11-13.1,11-31.7
	c0-20-20.9-35.6-35.6-46.1c-24.9-65.3-162.6-84.3-172.8-107C388.1,113.9,368,46,368,46c-12-35.1-47.4-35.1-60.7-35.1
	c-13.4,0-42.1,4.5-42.1,4.5c0,49-6.6,108.7-13.6,119.7c0,0-24.9,13-54.1,23.6l-69.8-47l18.3,63.2C28.6,239.4,0,352,0,352
	s30.2,237.2,327.5,237.2c157.2,0,248-76,248-76L524.9,400c0,0-77.4,40.2-176.2,40.2c-91.1,0-126.7-42.5-139.8-67.2
	C286,375.2,298.1,369.1,298.1,369.1"/>
<path id="Blue" d="M553,237.1c-24.3-65.6-158.3-77.5-173-108.5c-6-12.4-13.6-42-24.6-78.2c-8.9-26.1-35.1-26.1-48.1-26.1
	c-12.5,0-28.7,2.5-28.7,2.5c0,26.7-5.1,104.4-17.5,117.8c-3.1,3.8-25.9,13-50.7,22.6l7.4,5l-7.6,7.6l-14.3,14.3l-15.7,49.1
	l-20.5-10.7l7.2,18.2l-36.5,6.1L151,264l-59.4,45.7l16,1.3l-21.2,38.3c30.5-13.9,39.9-16.5,39.9-16.5l-8.8-9.1l61.6-24.8
	c0,0-4.6,12.3-4.6,36.2c0,3.4,0.5,8.5,1.7,14.4c7.6,37.2,43.9,114.1,172.3,114.1c92.9,0,164.5-32.4,164.5-32.4l33.2,74.5
	c0,0-87.2,60.3-219,60.3C57.9,566,23.7,354.2,23.7,354.2c37.1-99.4,99.7-142.9,139.4-161.3l-12.4-1.4l-1.1-3.7
	C44.7,245.6,13.6,353,13.6,353s32,222.9,313.9,222.9C471.7,575.9,559,509,559,509l-40.8-91.2c0,0-76.2,35.7-169.6,35.7
	c-139.1,0-159.6-94.9-159.6-94.9s79.2,4.7,104.5-2.1l130.9-65.4c88.7,25,114.2,52.1,114.2,52.1l40.6-45.7c0,0,7.4-7,7.4-22.6
	C586.6,260.2,564.7,245.5,553,237.1 M267.9,261.4l-66.4-9l33.4-18.7L267.9,261.4z M256.8,171.9l-41.2,65.9l-14.5-34.6L256.8,171.9z
	 M120.5,296.7l77.1-51.9l-5.8,41.2L120.5,296.7z M186.5,282.1l4.9-28l-52.2,35.4L186.5,282.1z M212.8,250.6l43.3,5.3L230.7,241
	L212.8,250.6z M209.5,205l4.8,21.4l30.5-41.3L209.5,205z M93.8,314.3l-15.4,0.4l64.3-47.9l-27.9-11.1l45.7-8.8l-15.9-32.1l28.2,16
	l11.2-35C150.1,207.7,77.4,245,35.1,355.1C40.2,380.4,84.3,555,327.5,555c105,0,181.6-39.8,205.2-53.7L507.6,445
	c-23.3,9-84.1,29.3-158.9,29.3c-147.8,0.1-185-101.2-185-139.2c0-8.4,0.5-15.6,1.3-21.4l-34,11.2l4.4,9.6l-26.5,9.6l-22.8,15
	l46.4,8.6l-9.6,33.2l19.9-5.9l19.1,48.6l22.8-2.9l7.6,34.2c0,0,43,29.8,116,36.3c96.3,8.6,182.5-24.3,182.5-24.3
	S388,527.3,294.5,517.4c-71.4-7.5-117.9-36.6-117.9-36.6l-0.5-30.8l-28.2,0.4l-13.2-47.2L109.6,415l11.1-42.2l-48.1-5.9l9.8-29.4
	L93.8,314.3z M192.7,193.9l14-18.8l-67.9-46.8l19.4,57.2L192.7,193.9z"/>
<path id="Black" d="M520,241.6c-55.5-4.5-77.1-22.7-77.1-37.1c0-6.9,6.3-8.2,10.6-8.2c22.6,0,57.7,17.9,63.4,33.2
	c-10-10.7-27.4-20-40.6-20c-2.8,0-5.8,0.8-5.8,4.3c0,9,15.9,23,74.2,29.5C522.4,179,399.4,174.4,371.8,134
	c-7.7-11.2-20.4-83-33.2-92.9c-14-10.8-50.1-5.9-50.1-5.9c0,10-2.4,98-20.7,116.4c-12.3,10.3-33,14.9-57.7,27.9l-14.3,14.3
	l-15.7,49.1l-20.5-10.7l7.2,18.2l-36.5,6.1l20.7,7.2l-59.4,45.7l16,1.3L86.4,349c30.5-13.9,39.9-16.5,39.9-16.5l-8.8-9.1l61.6-24.8
	c0,0-4.6,12.3-4.6,36.2c0,3.4,0.5,8.5,1.7,14.4c2.6-5.1,51.1-94.5,154.9-100.6l-43.5,33.6l-86.2,66.6c0,0,71,3,88.4-2
	c54.9-25.5,98.8-49.4,133.3-66.7c33.1-16.6,57.4-27,74.3-27c20.8,0,49.7,20.1,74.5,37.1c0,0,1.5-1.3,2.8-4
	C580.7,265.3,549.8,248.6,520,241.6 M191.8,286l-71.3,10.7l77.1-51.9L191.8,286z M256.8,171.9l-41.2,65.9l-14.5-34.6L256.8,171.9z
	 M201.5,252.4l33.4-18.7l33,27.6L201.5,252.4z M322,142.4c-10.2,0.6-31,7.3-31,7.3s18.7-10.8,22.5-16.6s4.8-71.1,4.8-71.1
	s6,64,11.1,70.4c5.1,6.4,23.9,14.4,23.9,14.4S329.5,141.9,322,142.4"/>
<path id="White" class="st0" d="M329.4,132.4C324.3,126,318.3,62,318.3,62s-1,65.3-4.8,71.1S291,149.7,291,149.7s20.7-6.8,31-7.3
	c7.5-0.5,31.3,4.4,31.3,4.4S334.5,138.8,329.4,132.4 M176.2,349.5c2.6-2.6,55.7-55.5,111.5-66.9l43.5-33.6
	C227.4,255.1,178.9,344.5,176.2,349.5 M576.9,277.4c0-13.2-17.4-22.2-32.2-34c-58.3-6.5-74.2-20.6-74.2-29.5c0-3.5,3-4.4,5.8-4.4
	c13.2,0,30.6,9.3,40.6,20c-5.8-15.2-40.8-33.2-63.4-33.2c-4.3,0-10.6,1.4-10.6,8.2c0,14.3,21.6,32.5,77.1,37.1
	c29.8,7.1,60.7,23.6,54.7,45.1C575.9,284.5,576.9,281.5,576.9,277.4 M467.6,277.4l21.7,7.7c4-1.7,8.3-3.8,8.7-4.3
	c0.3-0.6,0.3-1.1-0.6-1.9c-0.6-0.6-10.3-4.2-16.3-6.4L467.6,277.4z M485.9,270.5c5.8,2.3,13.8,5.5,14.4,5.6c0.9,0.2,2.4,0.3,3.4,0
	c0.7-0.2,5.4-2.5,8.9-4.3c-3.4-1.6-10.1-4.8-14.7-4.8C493.5,267,485.9,270.5,485.9,270.5 M507.2,278c-0.2,0.5,0,0.8,0.7,1.4
	c0.8,0.6,12,6.4,13,6.5c0.9,0.1,1.6,0.1,2.5-0.1c0.6-0.2,4.5-2.6,7.2-4.4l-14.9-8.1C511.8,275.2,507.6,277.4,507.2,278L507.2,278z
	 M517.8,289.9c0.3-0.5,0.4-0.9,0.2-1.4c-0.7-0.8-11.9-6.6-13-6.8c-1.3-0.2-2-0.2-3.1,0.4c-1,0.5-6.6,3.6-8.7,4.7l17.4,7.9
	C513.9,292.6,517.6,290.3,517.8,289.9 M539.2,296c0.5,0.1,1.5-0.2,2.7-0.6c0.6-0.3,3.2-2.4,4.9-3.8l-13.4-8.5
	c-3.3,2.1-6.6,4.3-7,4.8c0,0.1,0.1,0.5,0.7,1.4L539.2,296z M544.7,297.4c-0.4,0.8-0.5,1.1-0.3,1.3c0.5,0.5,7.4,5.1,12.1,8.2l5.4-5.4
	l-12.4-8C547.4,295,544.9,296.9,544.7,297.4 M537,299.6c0.3-0.5,0.1-1-0.4-1.5c-0.7-0.6-11.4-6.4-12.2-6.6c-0.9-0.2-2.5,0.1-3.4,0.4
	c-0.5,0.2-3.6,2.4-6.5,4.4l16.4,7.6C533.8,302.1,536.8,300,537,299.6 M539.9,301.8c-0.5,0.2-3.5,2.5-5.9,4.3l14.9,9.2l5.5-6.1
	c-4.5-3.1-11.1-7.6-11.6-7.8S540.7,301.5,539.9,301.8 M423.3,280.5c80.1,21.3,114.2,49,114.2,49l8.5-9.6c-4-3-33.5-23.3-91.3-42.2
	c17.2-6.8,38-14.9,43.7-14.9c12.8,0,39,16.6,67.2,35.1l6.4-7.2c-24.6-17-53.5-37.1-74.5-37.1C480.6,253.5,456.2,263.9,423.3,280.5"
	/>
</svg>
