<?xml version="1.0" encoding="utf-8"?>
<svg version="1.1" id="Layer_1" xmlns="http://www.w3.org/2000/svg" xmlns:xlink="http://www.w3.org/1999/xlink" x="0px" y="0px"
	 viewBox="0 0 600 600" style="enable-background:new 0 0 600 600;" xml:space="preserve">
<style type="text/css">
	.st0{fill:#FFFFFF;}
	.st1{fill:#010101;}
</style>
<path id="Gold" class="st0" d="M333,31c-0.3-0.3-33-31-33-31s-32.6,30.6-33,31H79v412.4C146.5,518.1,206.6,557,300,600
	c93.2-42.9,153.3-81.6,221-156.6V31H333z"/>
<path id="Black" class="st1" d="M505,46.9v390.3c-61.6,68.3-126.1,108.9-205,145.2c-78.9-36.3-143.4-76.9-205-145.2V46.9h137.9
	c-54.3,31.6-90.1,86.6-90.1,160.9v210.1c37.1,38.4,87.1,77.1,134.6,99.5L173,216.4l98.3,47.2l-11.8,11.9l35.3,114h10.5l35.3-114
	l-11.9-11.8l98.3-47.2l-104.4,301c47.1-22.3,97.3-60.8,134.6-99.5V207.8c0-74.3-35.7-129.3-90.1-160.9L505,46.9z"/>
<path id="Grey" d="M327.4,45.9c2.8-12,5.6-14.9,5.6-14.9c-11-10.3-22-20.7-33-31v301.1l21.9-70.4l116.6-56.1
	C428,114.3,388.8,68.3,327.4,45.9 M449.2,237.9l-86.7,251l15-19.4c0,0,39.5-30.3,63.7-58.1V283.2L449.2,237.9z M150.8,237.9
	L223,446.8l-40.1-94.6l-24.1-69.1L150.8,237.9z M270.2,217.4l-92.8-35.2l100.7,48.5V83.1L270.2,217.4z"/>
<path id="White" class="st0" d="M150.8,207.8V426c-2.7-2.7-5.3-5.3-8-8.1V207.8C142.8,118.9,194,57.6,267,31
	c0.9,0.6,2.5,4.5,2.8,5.5c1.1,3,2.1,6.3,2.8,9.4c0,0-4-3.3-8-5.2C186.7,73.2,150.8,133.3,150.8,207.8L150.8,207.8z M294.8,389.5
	l-35.3-114l11.8-11.8l-2.8,14.1L300,379.5L294.8,389.5z M336.6,501.3l-14,16.1l104.4-301l10.1-4.9L336.6,501.3z"/>
</svg>
