<?xml version="1.0" encoding="utf-8"?>
<!-- Generator: Adobe Illustrator 25.2.3, SVG Export Plug-In . SVG Version: 6.00 Build 0)  -->
<svg version="1.1" id="Layer_1" xmlns="http://www.w3.org/2000/svg" xmlns:xlink="http://www.w3.org/1999/xlink" x="0px" y="0px"
	 viewBox="0 0 600 600" style="enable-background:new 0 0 600 600;" xml:space="preserve">
<style type="text/css">
	.st0{fill:#010101;}
	.st1{fill:#FFFFFF;}
	.st2{fill:#CF4520;}
	.st3{fill:#89734C;}
</style>
<path id="Outline" class="st0" d="M455.7,426.3c-9.5,0.4-14.7-0.7-18.6-2.5c-4.2-2-8.7-5.9-15.3-14.8c-0.7-1-2.2-3-4.5-6
	c44.1-34.4,72.8-87.5,73.9-147.3l73.5-113.8c0,0-38.5-18.5-100.9-33.8l41.9-56.8c0,0-34.2-9-40.1-10.1c-3.3-0.5-8-1-13,1.1
	c-4.1,1.6-7.1,4.5-9.3,7.4C443.1,50,430,67.6,409.8,95c-31.1-21.8-69-34.7-109.7-34.7S221.4,73.2,190.3,95
	c-20.2-27.4-33.2-45-33.4-45.3c-2.2-3-5.2-5.7-9.3-7.4c-5-2-9.8-1.6-13-1.1c-6,1-40.1,10.1-40.1,10.1l41.9,56.8
	C74,123.4,35.5,141.9,35.5,141.9l73.5,113.8c0.2,8,0.9,16.1,2,23.8c-1.4-0.1-56.7-3.7-56.7,38.1c0,26.5,26.7,50,58.6,59
	c14.5,4.1,29.5,5.1,44.9,2.8c7.7,8.5,16.1,16.5,25.2,23.6c-1.5,2-3,4-4.4,6c-6.6,8.9-11.1,12.8-15.3,14.8c-3.9,1.9-9.1,2.9-18.6,2.5
	l-132-5.8l23.5,55.9c1.9,4.5,4.8,9.3,9.8,12.5c5.3,3.4,10.9,4.1,15.3,4.1h87.8c9.8,0,18.9-0.7,27.4-5c9.4-4.7,16.5-12.9,24.1-23.3
	c7.7-10.3,15.3-20.7,23-31L300,552.2l76.4-118.5c7.7,10.3,15.3,20.7,23,31c7.7,10.3,14.7,18.6,24.1,23.3c8.5,4.3,17.6,5,27.4,5h87.8
	c4.5,0,10.2-0.6,15.3-4.1c5.1-3.4,7.9-8.1,9.8-12.5l23.5-55.9L455.7,426.3z"/>
<path id="Black_1_" class="st1" d="M139.6,40.8c2.5,0,5.2,0.4,8.1,1.5c4.1,1.6,7.1,4.4,9.3,7.4c0.2,0.3,13.2,17.9,33.4,45.3
	c31-21.8,69-34.7,109.7-34.7c40.8,0,78.6,12.8,109.7,34.7c20.2-27.4,33.2-45,33.4-45.3c2.2-2.9,5.2-5.7,9.3-7.4
	c2.8-1.1,5.5-1.5,8-1.5c1.9,0,3.6,0.2,5.1,0.4c5.9,1.1,40.1,10.1,40.1,10.1l-41.9,56.8c62.4,15.3,100.9,33.8,100.9,33.8l-73.5,113.8
	c-1.1,59.8-29.9,112.9-73.9,147.3c2.3,3.1,3.8,5.1,4.5,6c6.6,8.9,11.1,12.8,15.3,14.8c3.4,1.6,7.7,2.6,14.9,2.6c1.2,0,2.4,0,3.7-0.1
	l131.6-5.9l-23.5,55.9c-1.8,4.4-4.7,9.2-9.8,12.5c-5.2,3.5-10.8,4.1-15.3,4.1h-87.8c-9.8,0-18.9-0.7-27.4-5
	c-9.5-4.7-16.5-12.9-24.1-23.3c-7.7-10.3-15.3-20.7-23-31L300,552.2l-76.4-118.4c-7.7,10.3-15.3,20.7-23,31
	c-7.7,10.3-14.7,18.6-24.1,23.3c-8.5,4.3-17.6,5-27.4,5H61.3c-4.4,0-10.1-0.7-15.3-4.1c-5-3.3-7.9-8-9.8-12.5l-23.5-55.9l132,5.8
	c1.4,0.1,2.7,0.1,3.9,0.1c7.1,0,11.3-0.9,14.7-2.6c4.2-2,8.7-5.9,15.3-14.8c1.4-2,2.9-4,4.4-6c-9.1-7.1-17.5-15-25.2-23.6
	c-5.5,0.8-10.9,1.2-16.3,1.2c-9.8,0-19.3-1.3-28.7-4c-31.9-9-58.6-32.5-58.6-59c0-35.3,39.3-38.2,52.5-38.2c2.5,0,4,0.1,4.2,0.1
	c-1.1-7.8-1.8-15.8-2-23.8L35.5,141.9c0,0,38.5-18.5,100.9-33.8L94.5,51.3c0,0,34.1-9.1,40.1-10.1C136,41,137.7,40.8,139.6,40.8
	 M139.6,32.5L139.6,32.5c-2,0-4.1,0.2-6.3,0.6c-6.4,1-37.4,9.3-40.9,10.2l-11.8,3.1l7.2,9.8l34.6,46.9c-55.4,14.6-89,30.6-90.5,31.3
	l-8.5,4.1l5.1,7.9l72.2,111.8c0.2,4.4,0.4,8.7,0.9,13c-7.9,0.4-19.2,1.9-29.4,6.5C55,285.4,46,299.2,46,317.7
	c0,28.7,26.6,56.2,64.6,67c10,2.9,20.4,4.3,30.9,4.3c4.3,0,8.7-0.2,13.1-0.7c5.4,5.8,11.1,11.2,17,16.2c-6.5,8.7-9.9,11-12,11.9l0,0
	l0,0c-1.7,0.8-4.4,1.7-11.1,1.7c-1.1,0-2.3,0-3.5-0.1l-131.9-5.8L0,411.6l5.1,12.1l23.5,55.9c3.1,7.3,7.3,12.6,12.9,16.3
	c5.6,3.7,12.1,5.5,19.9,5.5h87.8c10.1,0,20.9-0.7,31.1-5.9c10.5-5.3,18.4-14.1,27.1-25.7l8.4-11.3l7.5-10.1L293,556.7l7,10.8l7-10.8
	l69.9-108.4l15.9,21.4c7.3,9.9,15.4,20,27.1,25.7c10.2,5.1,21,5.9,31.1,5.9h87.8c5.1,0,12.7-0.6,19.9-5.5c5.6-3.7,9.8-9.1,12.8-16.3
	l23.4-55.9l5.1-12.1l-13.1,0.6l-131.6,5.9c-1.1,0-2.3,0.1-3.3,0.1c-6.6,0-9.6-0.9-11.4-1.8c-2-1-5.5-3.3-12-12
	c20.2-17.1,37-38.3,49-61.8c13.5-26.4,20.8-54.8,21.7-84.4l72.2-111.8l5.1-7.9l-8.5-4.1c-1.5-0.7-35.1-16.7-90.5-31.3l34.6-46.9
	l7.3-9.8l-11.8-3.1c-3.5-0.9-34.7-9.1-40.8-10.2l-0.1,0l-0.1,0c-1.6-0.2-3.8-0.5-6.3-0.5c-3.9,0-7.6,0.7-11,2.1
	c-4.9,1.9-9.2,5.3-12.8,10l-0.2,0.2l-0.1,0.1c-0.6,0.9-4.9,6.7-11.3,15.4c-4.6,6.2-10.4,14.1-17.2,23.4C375.7,63,338.6,52,300.1,52
	c-38.6,0-75.7,10.9-107.8,31.6c-6.8-9.2-12.6-17.1-17.2-23.3c-6.4-8.7-10.7-14.5-11.3-15.4l0-0.1l-0.1-0.2
	c-3.5-4.7-7.8-8.1-12.9-10.1C147.2,33.2,143.5,32.5,139.6,32.5L139.6,32.5z"/>
<path id="Orange" class="st2" d="M392.5,141.1c35-47.5,60.7-82.3,61.5-83.3c2.5-3.4,5.3-3.9,9.4-3.3c5,0.8,13.9,3.1,19.9,4.7
	c0,0-34.3,46.5-79.6,107.8C400.4,157.8,396.5,149.2,392.5,141.1 M211.7,146.7c-37.2-50.4-64.8-87.9-65.7-89
	c-2.5-3.4-5.3-3.9-9.4-3.3c-5,0.8-13.9,3.1-19.9,4.7c0,0,37.3,50.6,85.3,115.7C204.3,165.1,207.7,155.7,211.7,146.7 M456.3,439.7
	c-21.5,0.9-31.4-4.2-45.1-22.8c-2.5-3.4-9.3-12.5-19.2-25.9c-5.8,5.6-12.4,10.3-19.7,14.6c20.1,27.2,34.2,46.3,37.9,51.3
	c14.5,19.4,20.9,22.9,40.8,22.9h87.8c6.6,0,10.1-1.9,12.8-8.5c2.8-6.6,15.3-36.4,15.3-36.4S482.2,438.7,456.3,439.7L456.3,439.7z
	 M207.1,392.2l-18.2,24.7c-13.7,18.6-23.6,23.6-45.1,22.8c-26-1-110.5-4.9-110.5-4.9s12.4,29.8,15.3,36.4c2.8,6.6,6.2,8.5,12.8,8.5
	h87.8c19.9,0,26.3-3.4,40.8-22.9c3.7-5.1,18.1-24.5,38.6-52.2C221.6,401.1,214.5,396.9,207.1,392.2 M307.5,250
	c-7.2,3-14.5,2.2-19.7-1.3c11.4-7.7,22.6-17.9,35.4-25.4C325.2,233.8,318.5,245.4,307.5,250"/>
<path id="White" class="st1" d="M455,120c30.2,7.2,59.5,16.7,87.6,28.7l-52.4,81.2c-0.8-6.6-1.8-13.1-3.3-19.6l35.7-55.4
	c-23.3-9.1-47.6-16.6-73-22.5c-0.7-0.9-1.3-1.7-2-2.5C450.2,126.6,452.6,123.3,455,120L455,120z M339.3,439.2L300,500.1l-39.3-60.9
	c-6.5-1.3-12.9-3.1-19.2-5.1l58.5,90.6l58.5-90.6C352.2,436.1,345.8,437.8,339.3,439.2L339.3,439.2z M113.1,210.4L77.3,155
	c23.3-9.1,47.6-16.6,73-22.5c0.7-0.9,1.3-1.7,2-2.5c-2.5-3.4-5-6.8-7.4-10.1c-30.2,7.2-59.5,16.7-87.6,28.7l52.4,81.2
	C110.5,223.4,111.6,216.9,113.1,210.4L113.1,210.4z M140.8,66.7l-24.1-7.6c6-1.6,14.9-3.8,19.9-4.7c4.2-0.7,6.9-0.1,9.4,3.3
	c0.9,1.1,28.4,38.6,65.7,89c-1.5,3.4-3,6.8-4.2,10.3L140.8,66.7z M397.1,150.8c35.9-48.6,62.1-84.2,62.1-84.2l24.1-7.6
	c-6-1.6-14.9-3.8-19.9-4.7c-4.2-0.7-6.9-0.1-9.4,3.3c-0.8,1.1-26.4,35.8-61.5,83.3C394.1,144.3,395.7,147.6,397.1,150.8L397.1,150.8
	z M207.1,392.2c2.7,1.7,5.5,3.4,8.2,5.1c-10.4,14.1-17.3,23.5-19.2,25.9c-14.9,19.9-27.5,26.3-48.6,25.9c-4.5-0.1-11.5-0.3-19.5-0.6
	c1.1,5.9,3.1,17.9,4.9,31.2h-29.6c-0.8-4.8-3.3-19.1-5.3-26c-0.7-2.3-1.1-3.5-2.5-3.3c-1.4,0.3-1.1,2.1-0.9,4.9
	c0.7,8.5,1.1,15.8,1.1,24.4H68.6c-4.4-16.5-7.9-27.6-10-33.7l-25.5-11.2c0.1,0,84.7,3.9,110.5,4.9c21.5,0.8,31.4-4.2,45.1-22.8
	L207.1,392.2z M82,468.8c-0.2-7.9-1.7-17-2.7-22c-2.3-0.1-4.4-0.2-6.4-0.2c0.8,2.2,3.5,10.4,6.4,22.4c0.5,1.8,1,2.4,1.7,2.3
	C81.7,471.2,82,470.7,82,468.8z M116,448.1c-1.9-0.1-3.9-0.1-5.8-0.2l0,0c0,0,2,7,4.2,21.6c0.3,2.1,0.7,3.3,1.8,3.2
	c0.7-0.1,1.1-1.6,1.2-4.3C117.7,460.2,116.6,452.1,116,448.1z M541.3,446C541.3,446,541.2,446,541.3,446c-2,6.1-5.6,17.2-10,33.7
	h-27.2c0.1-8.6,0.6-15.9,1.1-24.4c0.2-2.8,0.6-4.7-0.9-4.9c-1.3-0.3-1.8,1-2.5,3.3c-2,7-4.5,21.2-5.3,26h-29.6
	c1.8-13.3,3.8-25.2,4.9-31.2c-8,0.3-15,0.5-19.5,0.6c-21.1,0.5-33.6-5.9-48.6-25.9c-1.8-2.5-8.7-11.8-19.2-25.9c2.6-2,5-4,7.4-6.2
	c9.9,13.3,16.6,22.5,19.2,25.9c13.7,18.6,23.6,23.7,45.1,22.8l0,0c26-1,110.4-4.9,110.5-4.9L541.3,446z M485.7,469.4
	c2.3-14.6,4.2-21.5,4.2-21.6c-2,0.1-3.9,0.1-5.8,0.2c-0.7,4-1.6,12.1-1.3,20.2c0.1,2.7,0.5,4.3,1.2,4.3
	C484.9,472.8,485.3,471.6,485.7,469.4z M527.1,446.6c-2,0.1-4.1,0.2-6.4,0.2c-1,4.9-2.5,14.1-2.7,21.9c-0.1,1.9,0.2,2.4,1,2.5
	s1.2-0.5,1.7-2.3C523.6,457,526.4,448.8,527.1,446.6z M301.2,409c-90.9,0-138.6-89.8-204.4-89c17.4,6.8,35.2,18.1,64.1,41.1
	c-22.8,7-51.3,0.6-70.3-12.2c-12.4-8.9-20.5-20.3-20.5-31.3c0-13.9,12.9-22.3,36-22.3c30.9,0,68.4,15.1,128.2,54.7
	c-11-18-29.6-34.8-51.5-47.2c25.2-13.4,44.9-32.5,57.8-50.2c4.4,4,10.5,6.5,18.5,6.5c5.1,0,9.9-1.1,14.5-3
	c27.4,22.5,75.7,3.4,69.3-41.3c4.1-1,8.3-1.5,12.8-1.5c12.7,0,18.3,2.9,18.3,2.9c-4.7-8-15.1-12.9-26.7-12.9
	c-39.9,0-61.7,37.8-86.9,39.1c-14.7,0.7-23.9-10.9-20.8-25.9c-6.4,6.3-8.4,15.9-6.2,24.3c-14.5,3.5-23-8.3-23-32.8
	c0-58.8,49.8-126.8,94.6-126.8l0,0c54.8,0,106.8,101.9,106.8,207.4c0,36.7-6.5,63.3-20.8,81.8C373,394.3,338.1,409,301.2,409z
	 M238.2,178c-3.9-0.4-7.7,4.4-8.2,10.7c-0.6,6.3,2.2,11.7,6.1,12.1c3.9,0.4,7.7-4.4,8.2-10.7C244.9,183.8,242.2,178.4,238.2,178z
	 M255.6,137.1c-3.6-1.9-9,1.1-11.9,6.7c-2.9,5.6-2.3,11.7,1.4,13.6c3.6,1.9,9-1.1,11.9-6.7C259.9,145.2,259.2,139.1,255.6,137.1z
	 M272.2,185.6c-3.7-1.6-8.8,1.7-11.3,7.5c-2.5,5.7-1.5,11.8,2.2,13.4c3.7,1.6,8.8-1.7,11.3-7.5l0,0
	C276.9,193.3,276,187.2,272.2,185.6z M286.5,105.5c-2.8-3.1-8.8-2-13.5,2.2c-4.6,4.3-6.1,10.2-3.3,13.3c2.8,3.1,8.8,2,13.5-2.2
	C287.8,114.5,289.3,108.6,286.5,105.5z M302.1,151.6c-2.9-3-8.9-1.8-13.4,2.6c-4.5,4.4-5.8,10.3-3,13.3c2.9,3,8.9,1.8,13.4-2.6
	C303.6,160.6,305,154.6,302.1,151.6z M341.6,130.6c-1.7-3.8-7.8-4.8-13.5-2.1c-5.7,2.6-9,7.8-7.3,11.6c1.7,3.8,7.8,4.8,13.5,2.1
	S343.3,134.4,341.6,130.6z M245.2,293.7c-1.6-6.1-6.1-10.2-10.2-9.1c-4,1.1-6,6.9-4.4,12.9c1.6,6.1,6.1,10.2,10.2,9.1
	C244.8,305.6,246.8,299.7,245.2,293.7z M259.7,328.9c-3.4-5.4-8.9-7.9-12.4-5.7c-3.5,2.2-3.6,8.3-0.3,13.6c3.4,5.4,8.9,7.9,12.4,5.7
	l0,0C262.9,340.3,263,334.1,259.7,328.9z M272.4,290c3.6-1.9,4.3-8,1.3-13.6c-3-5.6-8.3-8.5-12-6.6c-3.6,1.9-4.3,8-1.3,13.6
	C263.4,289,268.8,291.9,272.4,290z M285.6,359.3c-4.9-4-10.9-4.7-13.5-1.5c-2.6,3.2-0.8,8.9,4.1,12.9c4.9,4,10.9,4.7,13.5,1.5
	C292.3,369.2,290.5,363.3,285.6,359.3z M293.8,304.2c-4.5-4.4-10.5-5.7-13.4-2.7c-2.9,3-1.6,8.9,2.9,13.4c4.5,4.4,10.5,5.7,13.4,2.7
	S298.3,308.7,293.8,304.2z M322.5,326.6c-5.7-2.8-11.8-1.9-13.7,1.9c-1.9,3.9,1.1,9.3,6.7,12.1s11.8,1.9,13.7-1.9l0,0
	C331.1,334.7,328.2,329.3,322.5,326.6z M343.6,282.3c-1.7-3.9-7.9-5.2-13.6-2.7c-5.7,2.5-9.1,7.8-7.4,11.7s7.8,5.2,13.6,2.7l0,0
	C342,291.5,345.3,286.2,343.6,282.3z M358.8,341.4c-6.1-1.5-11.9,0.7-12.9,4.9c-1.1,4.2,3.1,8.8,9.2,10.3s11.9-0.7,12.9-4.9
	C369,347.5,364.9,342.9,358.8,341.4z M386.7,271.4c-0.8-4.3-6.4-6.9-12.6-5.7c-6.2,1.1-10.6,5.6-9.8,9.9c0.8,4.3,6.4,6.9,12.6,5.7
	C383,280.1,387.4,275.7,386.7,271.4z M190.8,281.9c12.1-8.1,22.2-17.1,30.6-27.1c-7.5-0.8-13.4-5.2-17.4-12.8
	C190.3,251.5,186.6,264.6,190.8,281.9z"/>
<path id="Gold" class="st3" d="M449.7,132.5c25.4,5.9,49.7,13.4,73,22.5l-35.7,55.4C480.5,181.5,467.6,155,449.7,132.5 M300,443.3
	c-13.4,0-26.6-1.4-39.3-4l39.3,60.9l39.3-60.9C326.3,441.9,313.2,443.3,300,443.3 M150.3,132.5c-25.4,5.9-49.7,13.4-73,22.5
	l35.7,55.4C119.5,181.5,132.4,155,150.3,132.5 M90.8,349c19.1,12.7,47.5,19.2,70.3,12.2c-28.8-23-46.6-34.4-64.1-41.1
	c-12.7,0.3-21.5,7.3-16.5,19.9C83.4,343.1,86.8,346.2,90.8,349L90.8,349z M301.3,409c36.9,0,71.7-14.7,90-38.2
	c14.4-18.5,20.8-45.1,20.8-81.8c0-55.4-14.4-109.9-35.9-149.1c1.6,3.8,3.4,7.6,5.1,11.4c24.2,53.1,39,163.7-0.4,212
	c-31.7,38.9-118,52.8-196.9-3.2C217,383.7,253.1,409,301.3,409L301.3,409z M338.8,193c-35.7,1-60.4,35.6-80,37.7
	c-9.7,1.1-16.8-4.5-18.9-13.9c-3.2,14.9,5.9,26.6,20.8,25.9c25.2-1.2,46.9-39.1,86.9-39.1c11.5,0,22,4.9,26.7,12.9
	C370.4,204.5,358,192.4,338.8,193L338.8,193z M233.7,241c-14,3.4-22.4-7.5-23-30.3c2,18.4,14.5,21.1,22.6,18.2
	C232.6,233,232.7,237.1,233.7,241"/>
</svg>
