<?xml version="1.0" encoding="utf-8"?>
<svg version="1.1" id="Layer_1" xmlns="http://www.w3.org/2000/svg" xmlns:xlink="http://www.w3.org/1999/xlink" x="0px" y="0px"
	 viewBox="0 0 600 600" style="enable-background:new 0 0 600 600;" xml:space="preserve">
<style type="text/css">
	.st0{fill:#010101;}
	.st1{fill:#CF4520;}
	.st2{fill:#FFFFFF;}
	.st3{fill:#89734C;}
</style>
<path id="Black" class="st0" d="M462.6,435.6c-9.9,0.4-15.3-0.7-19.4-2.6c-4.4-2.1-9.1-6.2-16-15.5c-0.7-1-2.3-3.1-4.7-6.3
	c46-35.9,76-91.4,77.2-153.8l76.7-118.8c0,0-40.2-19.3-105.4-35.3l43.8-59.3c0,0-35.7-9.4-41.9-10.5c-3.4-0.5-8.4-1-13.6,1.1
	c-4.3,1.7-7.4,4.7-9.7,7.7c-0.2,0.3-13.8,18.7-34.9,47.3c-32.5-22.8-72-36.2-114.6-36.2s-82.2,13.4-114.6,36.2
	c-21.1-28.6-34.7-47-34.9-47.3c-2.3-3.1-5.4-6-9.7-7.7c-5.2-2.1-10.2-1.7-13.6-1.1c-6.3,1-41.9,10.5-41.9,10.5l43.8,59.3
	c-65.2,16-105.4,35.3-105.4,35.3l76.7,118.8c0.2,8.4,0.9,16.8,2.1,24.9c-1.5-0.1-59.2-3.9-59.2,39.8c0,27.7,27.9,52.2,61.2,61.6
	c15.1,4.3,30.8,5.3,46.9,2.9c8,8.9,16.8,17.2,26.3,24.6c-1.6,2.1-3.1,4.2-4.6,6.3c-6.9,9.3-11.6,13.4-16,15.5c-4.1,2-9.5,3-19.4,2.6
	L0,429.5l24.5,58.4c2,4.7,5,9.7,10.2,13.1c5.5,3.6,11.4,4.3,16,4.3h91.7c10.2,0,19.7-0.7,28.6-5.2c9.8-4.9,17.2-13.5,25.2-24.3
	c8-10.8,16-21.6,24-32.4L300,567l79.8-123.7c8,10.8,16,21.6,24,32.4c8,10.8,15.3,19.4,25.2,24.3c8.9,4.5,18.4,5.2,28.6,5.2h91.7
	c4.7,0,10.6-0.6,16-4.3c5.3-3.5,8.3-8.5,10.2-13.1l24.5-58.4L462.6,435.6z"/>
<path id="Orange" class="st1" d="M396.6,137.7c36.6-49.6,63.4-85.9,64.2-87c2.6-3.6,5.5-4.1,9.8-3.4c5.2,0.8,14.5,3.2,20.8,4.9
	c0,0-35.8,48.6-83.1,112.6C404.8,155.2,400.8,146.2,396.6,137.7 M207.8,143.6C169,91,140.1,51.8,139.2,50.7
	c-2.6-3.6-5.5-4.1-9.8-3.4c-5.2,0.8-14.5,3.2-20.8,4.9c0,0,38.9,52.8,89.1,120.8C200.1,162.8,203.6,153,207.8,143.6 M463.2,449.5
	c-22.5,0.9-32.8-4.4-47.1-23.8c-2.6-3.5-9.7-13.1-20-27c-6.1,5.8-13,10.8-20.6,15.2c21,28.4,35.7,48.3,39.6,53.6
	c15.1,20.3,21.8,23.9,42.6,23.9h91.7c6.9,0,10.5-2,13.4-8.9c2.9-6.9,16-38,16-38S490.3,448.5,463.2,449.5L463.2,449.5z M203,399.9
	L184,425.7c-14.3,19.4-24.6,24.6-47.1,23.8c-27.1-1-115.4-5.1-115.4-5.1s13,31.1,16,38c2.9,6.9,6.5,8.9,13.4,8.9h91.7
	c20.8,0,27.5-3.6,42.6-23.9c3.9-5.3,18.9-25.6,40.3-54.5C218.1,409.2,210.7,404.9,203,399.9 M307.8,251.5
	c-7.5,3.1-15.1,2.3-20.6-1.4c11.9-8,23.6-18.7,37-26.5C326.3,234.5,319.3,246.7,307.8,251.5"/>
<path id="White" class="st2" d="M461.9,115.7c31.5,7.5,62.1,17.4,91.5,30l-54.7,84.8c-0.8-6.9-1.9-13.7-3.4-20.5l37.3-57.8
	c-24.3-9.5-49.7-17.3-76.2-23.5c-0.7-0.9-1.4-1.8-2.1-2.6C456.8,122.6,459.4,119.1,461.9,115.7L461.9,115.7z M341,449l-41,63.6
	L259,449c-6.8-1.4-13.5-3.2-20.1-5.3l61.1,94.6l61.1-94.6C354.5,445.8,347.8,447.6,341,449L341,449z M104.8,210.1l-37.3-57.8
	c24.3-9.5,49.7-17.3,76.2-23.5c0.7-0.9,1.4-1.8,2.1-2.6c-2.6-3.6-5.2-7.1-7.7-10.5c-31.5,7.5-62.1,17.4-91.5,30l54.7,84.8
	C102.1,223.7,103.3,216.9,104.8,210.1L104.8,210.1z M133.8,60l-25.2-7.9c6.3-1.7,15.6-4,20.8-4.9c4.4-0.7,7.2-0.1,9.8,3.4
	c0.9,1.1,29.7,40.3,68.6,92.9c-1.6,3.5-3.1,7.1-4.4,10.8L133.8,60z M401.4,147.9C438.9,97.1,466.2,60,466.2,60l25.2-7.9
	c-6.3-1.7-15.6-4-20.8-4.9c-4.4-0.7-7.2-0.1-9.8,3.4c-0.8,1.1-27.6,37.4-64.2,87C398.3,141.1,399.9,144.5,401.4,147.9L401.4,147.9z
	 M203,399.9c2.8,1.8,5.7,3.6,8.6,5.3c-10.9,14.7-18.1,24.5-20,27c-15.6,20.8-28.7,27.5-50.8,27c-4.7-0.1-12-0.3-20.4-0.6
	c1.1,6.2,3.2,18.7,5.1,32.6H94.6c-0.8-5-3.4-19.9-5.5-27.2c-0.7-2.4-1.2-3.7-2.6-3.4c-1.5,0.3-1.1,2.2-0.9,5.1
	c0.7,8.9,1.1,16.5,1.2,25.5H58.4c-4.6-17.2-8.2-28.8-10.4-35.2l-26.6-11.7c0.1,0,88.4,4.1,115.4,5.1c22.5,0.8,32.8-4.4,47.1-23.8
	L203,399.9z M72.4,479.9c-0.2-8.3-1.8-17.8-2.8-23c-2.4-0.1-4.6-0.2-6.7-0.2c0.8,2.3,3.7,10.9,6.7,23.4c0.5,1.9,1,2.5,1.8,2.4
	C72.1,482.4,72.4,481.9,72.4,479.9z M107.9,458.3c-2-0.1-4.1-0.1-6.1-0.2l0,0c0,0,2.1,7.3,4.4,22.6c0.3,2.2,0.7,3.4,1.9,3.3
	c0.7-0.1,1.2-1.7,1.3-4.5C109.6,470.9,108.5,462.5,107.9,458.3z M552,456.1C552,456.1,551.9,456.1,552,456.1
	c-2.1,6.4-5.8,18-10.4,35.2h-28.4c0.1-9,0.6-16.6,1.2-25.5c0.2-2.9,0.6-4.9-0.9-5.1c-1.4-0.3-1.9,1-2.6,3.4
	c-2.1,7.3-4.7,22.1-5.5,27.2h-30.9c1.9-13.9,4-26.3,5.1-32.6c-8.4,0.3-15.7,0.5-20.4,0.6c-22,0.5-35.1-6.2-50.8-27
	c-1.9-2.6-9.1-12.3-20-27c2.7-2.1,5.2-4.2,7.7-6.5c10.3,13.9,17.3,23.5,20,27c14.3,19.4,24.6,24.7,47.1,23.8h0
	c27.1-1,115.3-5.1,115.4-5.1L552,456.1z M493.9,480.6c2.4-15.2,4.4-22.5,4.4-22.6c-2.1,0.1-4.1,0.1-6.1,0.2
	c-0.7,4.2-1.7,12.6-1.4,21.1c0.1,2.8,0.5,4.5,1.3,4.5C493.1,484.1,493.5,482.8,493.9,480.6z M537.1,456.7c-2.1,0.1-4.3,0.2-6.7,0.2
	c-1,5.1-2.6,14.7-2.8,22.9c-0.1,2,0.2,2.5,1,2.6c0.8,0.1,1.3-0.5,1.8-2.4C533.5,467.6,536.4,459,537.1,456.7z M301.3,417.5
	c-94.9,0-144.7-93.8-213.4-92.9c18.2,7.1,36.8,18.9,66.9,42.9c-23.8,7.3-53.6,0.6-73.4-12.7c-12.9-9.3-21.4-21.2-21.4-32.7
	c0-14.5,13.5-23.3,37.6-23.3c32.3,0,71.4,15.8,133.9,57.1c-11.5-18.8-30.9-36.3-53.8-49.3c26.3-14,46.9-33.9,60.4-52.4
	c4.6,4.2,11,6.8,19.3,6.8c5.3,0,10.3-1.1,15.1-3.1c28.6,23.5,79,3.5,72.4-43.1c4.3-1,8.7-1.6,13.4-1.6c13.3,0,19.1,3,19.1,3
	c-4.9-8.4-15.8-13.5-27.9-13.5c-41.7,0-64.4,39.5-90.7,40.8c-15.4,0.7-25-11.4-21.7-27c-6.7,6.6-8.8,16.6-6.5,25.4
	c-15.1,3.7-24-8.7-24-34.2c0-61.4,52-132.4,98.8-132.4v0c57.2,0,111.5,106.4,111.5,216.6c0,38.3-6.8,66.1-21.7,85.4
	C376.2,402.1,339.8,417.5,301.3,417.5z M235.5,176.3c-4.1-0.4-8,4.6-8.6,11.2c-0.6,6.6,2.3,12.2,6.4,12.6c4.1,0.4,8-4.6,8.6-11.2
	C242.5,182.3,239.6,176.7,235.5,176.3z M253.6,133.6c-3.8-2-9.4,1.1-12.4,7c-3,5.8-2.4,12.2,1.5,14.2c3.8,2,9.4-1.1,12.4-7
	C258.1,142,257.4,135.6,253.6,133.6z M271,184.2c-3.9-1.7-9.2,1.8-11.8,7.8c-2.6,6-1.6,12.3,2.3,14c3.9,1.7,9.2-1.8,11.8-7.8h0
	C275.9,192.2,274.9,185.9,271,184.2z M285.9,100.6c-2.9-3.2-9.2-2.1-14.1,2.3c-4.8,4.5-6.4,10.7-3.4,13.9c2.9,3.2,9.2,2.1,14.1-2.3
	C287.3,110,288.8,103.8,285.9,100.6z M302.2,148.7c-3-3.1-9.3-1.9-14,2.7c-4.7,4.6-6.1,10.8-3.1,13.9c3,3.1,9.3,1.9,14-2.7
	C303.8,158.1,305.2,151.8,302.2,148.7z M343.4,126.8c-1.8-4-8.1-5-14.1-2.2c-6,2.7-9.4,8.1-7.6,12.1c1.8,4,8.1,5,14.1,2.2
	C341.8,136.1,345.2,130.7,343.4,126.8z M242.8,297.1c-1.7-6.4-6.4-10.6-10.6-9.5c-4.2,1.1-6.3,7.2-4.6,13.5
	c1.7,6.4,6.4,10.6,10.6,9.5C242.4,309.5,244.5,303.4,242.8,297.1z M257.9,333.8c-3.5-5.6-9.3-8.2-13-5.9c-3.7,2.3-3.8,8.7-0.3,14.2
	c3.5,5.6,9.3,8.2,13,5.9h0C261.3,345.7,261.4,339.3,257.9,333.8z M271.2,293.2c3.8-2,4.5-8.4,1.4-14.2c-3.1-5.8-8.7-8.9-12.5-6.9
	s-4.5,8.4-1.4,14.2C261.8,292.2,267.4,295.2,271.2,293.2z M285,365.6c-5.1-4.2-11.4-4.9-14.1-1.6c-2.7,3.3-0.8,9.3,4.3,13.5
	c5.1,4.2,11.4,4.9,14.1,1.6C292,375.9,290.1,369.8,285,365.6z M293.5,308c-4.7-4.6-11-5.9-14-2.8c-3,3.1-1.7,9.3,3,14
	c4.7,4.6,11,5.9,14,2.8C299.5,318.9,298.2,312.7,293.5,308z M323.5,331.4c-5.9-2.9-12.3-2-14.3,2c-2,4.1,1.1,9.7,7,12.6
	c5.9,2.9,12.3,2,14.3-2h0C332.5,339.9,329.4,334.3,323.5,331.4z M345.5,285.2c-1.8-4.1-8.2-5.4-14.2-2.8c-6,2.6-9.5,8.1-7.7,12.2
	c1.8,4.1,8.1,5.4,14.2,2.8h0C343.9,294.8,347.3,289.3,345.5,285.2z M361.4,346.9c-6.4-1.6-12.4,0.7-13.5,5.1
	c-1.1,4.4,3.2,9.2,9.6,10.8c6.4,1.6,12.4-0.7,13.5-5.1C372.1,353.3,367.8,348.5,361.4,346.9z M390.5,273.8c-0.8-4.5-6.7-7.2-13.2-6
	c-6.5,1.2-11.1,5.8-10.2,10.3c0.8,4.5,6.7,7.2,13.2,6C386.7,282.9,391.3,278.3,390.5,273.8z M186,284.8c12.6-8.5,23.2-17.9,32-28.3
	c-7.8-0.8-14-5.4-18.2-13.4C185.5,253,181.6,266.7,186,284.8z"/>
<path id="Gold" class="st3" d="M456.3,128.8c26.5,6.2,51.9,14,76.2,23.5l-37.3,57.8C488.5,179.9,475,152.2,456.3,128.8 M300,453.3
	c-14,0-27.8-1.5-41-4.2l41,63.6l41-63.6C327.5,451.8,313.8,453.3,300,453.3 M143.7,128.8c-26.5,6.2-51.9,14-76.2,23.5l37.3,57.8
	C111.5,179.9,125,152.2,143.7,128.8 M81.5,354.8c19.9,13.3,49.6,20,73.4,12.7c-30.1-24-48.7-35.9-66.9-42.9
	c-13.3,0.3-22.4,7.6-17.2,20.8C73.8,348.7,77.4,351.9,81.5,354.8L81.5,354.8z M301.4,417.5c38.5,0,74.9-15.4,94-39.9
	c15-19.3,21.7-47.1,21.7-85.4c0-57.9-15-114.8-37.5-155.7c1.7,4,3.5,7.9,5.3,11.9c25.3,55.5,40.7,170.9-0.4,221.4
	c-33.1,40.6-123.2,55.1-205.6-3.3C213.3,391.1,251,417.5,301.4,417.5L301.4,417.5z M340.5,191.9c-37.3,1-63.1,37.2-83.5,39.4
	c-10.1,1.1-17.5-4.7-19.7-14.5c-3.3,15.6,6.2,27.8,21.7,27c26.3-1.3,49-40.8,90.7-40.8c12,0,23,5.1,27.9,13.5
	C373.5,203.9,360.6,191.3,340.5,191.9L340.5,191.9z M230.8,242.1c-14.6,3.5-23.4-7.8-24-31.6c2.1,19.2,15.1,22,23.6,19
	C229.6,233.7,229.7,238,230.8,242.1"/>
</svg>
