<?xml version="1.0" encoding="utf-8"?>
<svg version="1.1" id="Layer_1" xmlns="http://www.w3.org/2000/svg" xmlns:xlink="http://www.w3.org/1999/xlink" x="0px" y="0px"
	 viewBox="0 0 600 600" style="enable-background:new 0 0 600 600;" xml:space="preserve">
<style type="text/css">
	.st0{fill:#FFB81C;}
	.st1{fill:#003087;}
	.st2{fill:#FFFFFF;}
	.st3{fill:#C8102E;}
</style>
<path id="Gold_1_" class="st0" d="M300,600C134.3,600,0,465.7,0,300S134.3,0,300,0s300,134.3,300,300S465.7,600,300,600"/>
<path id="Blue" class="st1" d="M299.8,582.7c-156.1,0-282.6-126.5-282.6-282.6S143.7,17.5,299.8,17.5S582.4,144,582.4,300.1
	S455.9,582.7,299.8,582.7"/>
<path id="Gold" class="st0" d="M461.4,488.6c-5.4,0-9.3,4.4-12.7,8.7c-10.2,12.7-20.5,19.7-36.7,19.7c-24.9,0-49.1-21.1-49.1-47
	c0-15.8,7.1-33.3,7.1-46.4c0-10.1-6.3-15.4-13.2-15.4c-3.2,0-5.5,1.8-5.5,3.1c0,2.3,7.5-0.7,7.5,10c0,12.4-8.4,31-8.4,50.5
	c0,31.3,29.4,56.5,59.9,56.5c18.2,0,31.9-8.7,41.9-22c1.4,3.1,4.7,5.5,8.9,5.5c6.1,0,10.7-5.1,10.7-11.7
	C471.9,494.3,467.4,488.6,461.4,488.6 M375.2,438.6c4,3.9,18.9,14.9,35.8,25.9c16.9,11,33,20.1,38.3,22.2c1.1,0.5,1.9,0.6,2,0.3
	c0.2-0.3,0.1-0.6-1.3-1.4c-11.9-7.3-24.7-15.6-37.3-23.7c-12.3-8-24.6-16.1-36.8-24.4c-1.4-0.9-1.7-0.9-1.9-0.7
	C373.9,437.1,374.3,437.7,375.2,438.6 M375.8,461.4c-0.1,0.5-0.1,1-0.2,1.6c-0.1,0.6-0.1,1-0.2,1.6c-0.1,3.3,5,6.2,7.8,1.5
	c-0.2,1.2-0.3,2.4-0.5,3.6c-0.1,3.2,5,6.2,7.8,1.4c-0.2,1.2-0.3,2.4-0.5,3.6c-0.1,3.2,5.1,6.1,7.9,1.4c-0.1,1.2-0.3,2.4-0.4,3.6
	c-0.1,3.2,5.1,6.1,7.9,1.3c-0.1,1.2-0.3,2.4-0.4,3.6c-0.4,3.2,5.1,6,7.9,1.3l-0.4,3.6c-0.1,3.2,5.1,6,8,1.3l-0.4,3.6
	c-0.1,3.6,5.7,5.6,8.3,1.4c-0.1,0.9-0.2,1.5-0.3,2.4c-0.6,5,5,7.8,8.7,5c2.4-1.9,5.7-5.1,7.8-7.7c3.2-4-2.4-7.5-5.5-5
	c-0.8,0.7-1.6,1.3-2.4,2c0.1-1.4,0.1-2.8,0.2-4.2c0.1-2.9-5.1-6.2-7.8,0.4c0.1-1.7,0.1-3.4,0.2-5.1c0.1-2.9-5.1-6.2-7.8,0.4
	c0.1-1.7,0.2-3.4,0.2-5.1c0.1-3-5.1-6.2-7.7,0.3c0.1-1.7,0.2-3.4,0.2-5.2c0.1-2.9-5-6.3-7.7,0.3c0.1-1.7,0.2-3.4,0.2-5.2
	c0.1-3-5-6.3-7.7,0.2c0.1-1.7,0.2-3.5,0.3-5.2c0.1-3-5-6.4-7.7,0.2c0.1-1.7,0.2-3.5,0.3-5.2c0.1-3-5-6.4-7.6,0.2
	c0.1-1.7,0.2-3.5,0.3-5.2c0.1-2.9-4.5-5.6-6.7-1.7c-0.3,0.4-0.5,0.9-0.7,1.3c0.1-1.5,0.2-3.1,0.3-4.6c0.1-3.8-6.1-5.4-7.4-1.6
	c-0.8,2.4-1.6,8.7-1.7,12.2C368.4,463,373.5,465.5,375.8,461.4 M241.1,421.2c0-10.7,7.5-7.7,7.5-10c0-1.3-2.3-3.1-5.5-3.1
	c-7,0-13.2,5.4-13.2,15.4c0,13.2,7.1,30.6,7.1,46.4c0,26-24.2,47.1-49.1,47.1c-16.2,0-26.5-7-36.7-19.7c-3.4-4.2-7.3-8.7-12.7-8.7
	c-5.9,0-10.4,5.6-10.4,11.4c0,6.6,4.6,11.7,10.7,11.7c4.1,0,7.4-2.4,8.9-5.5c10,13.3,23.6,22,41.9,22c30.5,0,59.9-25.2,59.9-56.5
	C249.5,452.2,241.1,433.7,241.1,421.2 M150.7,486.7c5.2-2.2,21.3-11.2,38.3-22.2c16.9-11,31.8-22,35.8-26c0.9-0.8,1.2-1.5,1-1.7
	c-0.2-0.3-0.5-0.3-1.9,0.7c-12.2,8.2-24.5,16.3-36.8,24.4c-12.4,8.1-25.4,16.3-37.3,23.7c-1.4,0.8-1.5,1.1-1.3,1.4
	C148.8,487.2,149.6,487.2,150.7,486.7 M222.6,448.9c0.1,1.5,0.2,3.1,0.3,4.6l-0.7-1.3c-2.3-3.9-6.9-1.1-6.7,1.7
	c0.1,1.7,0.2,3.5,0.3,5.2c-2.7-6.6-7.7-3.1-7.6-0.2c0.1,1.7,0.2,3.5,0.3,5.2c-2.7-6.6-7.8-3.2-7.7-0.2c0.1,1.7,0.2,3.5,0.3,5.2
	c-2.7-6.6-7.8-3.2-7.7-0.2c0.1,1.7,0.2,3.4,0.2,5.2c-2.7-6.6-7.8-3.2-7.7-0.3c0.1,1.7,0.2,3.4,0.2,5.2c-2.6-6.5-7.8-3.3-7.7-0.3
	c0.1,1.7,0.1,3.4,0.2,5.1c-2.7-6.6-7.8-3.3-7.8-0.3c0.1,1.7,0.1,3.4,0.2,5.1c-2.7-6.5-7.8-3.3-7.8-0.4c0.1,1.4,0.1,2.8,0.2,4.2
	c-0.8-0.7-1.6-1.3-2.4-2c-3.1-2.5-8.7,0.9-5.5,5c2.1,2.6,5.4,5.8,7.8,7.7c3.7,2.8,9.3,0,8.7-5c-0.1-0.9-0.2-1.5-0.3-2.4
	c2.5,4.2,8.4,2.2,8.3-1.4c-0.1-1.1-0.3-2.4-0.4-3.5c2.9,4.8,8.1,2,8-1.3l-0.4-3.6c2.8,4.7,8.3,1.9,7.9-1.3c-0.1-1.2-0.3-2.4-0.4-3.6
	c2.8,4.8,8,1.9,7.9-1.3l-0.5-3.6c2.8,4.8,8,1.9,7.9-1.4c-0.2-1.2-0.3-2.4-0.5-3.6c2.9,4.8,8,1.8,7.8-1.4c-0.2-1.2-0.3-2.4-0.5-3.6
	c2.8,4.8,7.9,1.8,7.8-1.5l-0.2-1.6c-0.1-0.6-0.1-1-0.2-1.6c2.4,4,7.5,1.5,7.4-1.9c0-3.6-0.8-9.9-1.7-12.2
	C228.7,443.6,222.4,445.2,222.6,448.9"/>
<path id="White" class="st2" d="M405.9,68.5c23.5,7.7,42.8,15,42,17c-0.8,2.2-20.8-3.5-44.3-11.3c-35.5-11.7-79.1-27.9-78.6-29.1
	C325.4,44,370.5,56.8,405.9,68.5 M423.7,265.6c1,1.4-46.9,21-86.5,35.1c-26.2,9.3-48.7,16.2-50.6,13.6c-1.9-2.5,19.4-11.2,45.6-20.5
	C371.7,279.7,422.7,264.2,423.7,265.6 M107.1,187.8c-2.4-4.5-4.9-16-4.9-27.8c0-33.2,22.4-44.2,55.2-50.6c5.5-1,6.4-1.7,10.2-7.2
	c24.9-36.2,56.3-54.3,91.1-54.3c21.5,0,35.6,5,101.3,28.3c17.8,6.3,39,14.1,65.4,23.5c12.6,4.5,26.4,9.3,41.6,14.6
	c20.6,7.2,27.1,10.4,27.1,14.2c0,4.4-7.9,5.4-7.9,8.9c0,2.8,10.6,6,20.5,7c-9.4,7.5-39,3-39-4.2c0-3.9,6-5.8,6-8.8
	c0-4.5-18.2-13.5-37.3-15.5c7.5,25.3,1,34.9,1,40.5c0,5.4,8.4,8.1,18.9,5.9c5.3,6.1,13.5,11.5,20,13.7c-1,1.7-1.6,4.9-0.9,6.8
	c2.7-1,6.9-2,9.7-2c5.6,6.3,8.2,18.9,7.1,26.8c-6.6-2.3-15.1-3.5-20.6-3.7c-5.7-8.6-15.1-16.6-24.5-21.4
	c-16.4-2.4-41.8,2.4-56.3,7.7c7.6,1.1,22.6,0.8,29.8-0.2c3.3,2.8,9.7,6.2,13.5,8c-1.1,2-1.1,4.9-0.5,6.6c2.9-1.7,6.4-3,9.2-3.4
	c6.2,4.7,11.7,15.4,12.9,24.6c-6-1.1-13.5-1.5-18.7-1.2c-9.9-9.6-25.2-18.8-36.2-18.8c-11.9,0-23,6.1-30.5,6.1
	c-11.6,0-23.1-12.8-41.4-12.8c-5.1,0-10,0.9-15,2.7c1,10.4,7.2,21.8,11.2,27.4c-3.3,0.4-8.5,0.3-11.7,0c2.8,4.1,6.8,6.7,9.2,7.3
	c-7.1,4.2-11.4,8.5-13.8,16.5c5.6,1.4,11.5,0.8,14.8-0.8c2.3-2.9,5.8-5.5,9.3-6.5c9.7,5.5,15.1,14.3,15.9,20.4
	c-7,0.7-13.7,3.2-17.2,5.4c-6.4-2-11.4-2.6-15.6-2.6c-7.7,0-14,2.4-19.8,2.4c-5.8,0-9.8-3.3-10.7-6.6c1.7-5.3,3.2-13.6,3.2-20.5
	c0-18.9-17-34.4-44.8-36.4c6.5,3.1,14.2,8.5,16.8,12.6c-5.6,2.5-11.8,9.4-11.8,15.3c0,4.9,4,9.5,8.1,10.9c2.3-1.7,5.8-3.4,8.5-4.1
	c7.1,6.3,11.3,15.9,11.4,23.1c-5.1-0.6-13.7,0.7-18.7,1.7c-4.6-3.9-8.5-6.1-11.9-7.6c-6.9-2.8-12.3-1.9-17.7-3.4
	c-4.4-1.1-7.6-4.1-8-6.6c5.5-5.1,11.2-14.7,11.2-24.4c0-13.5-8.1-21.4-15.3-21.4c-5.7,0-10.3,4.8-10.3,11.7
	c0,7.7,6.4,15.4,16.1,16.2c-5.6,5.8-12.4,10-20.6,10c-5,0-8.7-1.5-10.8-1.5c-3.7,0-7.8,1.6-9.6,1.6c-0.8,0-1.3-0.5-1.3-1.3
	c0-2.9,5.4-9.7,8.6-12.7c-5.5-0.5-9.2,0.4-12.9,3.3c-5.2,4-7.4,10.3-13.8,10.3c-6,0-8.6-7.2-13.4-11.7c-3.4-3.2-5.8-3.2-11.2-8.1
	c-8.5-7.8-10.4-16.1-11.9-18C122.6,200.6,111.1,195.5,107.1,187.8 M159.8,200.5c0-4.2-2.6-7.9-6.6-9.2c0.4-4.3,2.4-8.5,4.7-10.3
	c-2.1-0.9-5.8-0.6-7.9,1.9c-1.9,2.2-2.6,5.7-3.2,9.5c-0.5,2.9-0.8,5.9-1.5,8.7c-1.1,4.6-3.2,7-4.9,7.3c1.5,0.9,4,1.6,5.9,0.8
	c3.3-1.5,4.9-5,5.5-9.5c1.5,0.8,2.9,2.5,2.9,4.5c0,2.7-2.2,4.8-5.2,5.6C155.3,210.1,159.8,205.8,159.8,200.5 M113.8,139.9
	c14.5-4.3,24.7-1.7,24.7,5.7c0,4.6-3.5,7.1-3.5,11.8c0,4.2,3.7,6.3,7.8,6.3c9.7,0,17.8-8.1,17.8-18.4c0-9.9-7.4-18.1-20.8-18.1
	C129.6,127.1,118.9,132.8,113.8,139.9 M300,385.5C217.5,324,121.5,243.7,62.8,173.8c0.9,11,9.2,34.1,28.4,55.1
	c50.9,55.6,125,116.7,192.8,168.4c-12.8,9.3-25.1,18.2-36.8,26.3c-0.5,2.6,0,8.7,0.6,11.5c0.9,2.6,4,6.9,6,8.6
	c15.5-11.3,30.9-22.7,46.2-34.2c16,12.1,31.6,23.6,46.2,34.2c2.2-1.7,5.1-5.9,6-8.6c0.5-2.7,0.9-8.7,0.6-11.5
	c-11.7-8.2-24-17-36.8-26.3c67.7-51.7,141.9-112.8,192.8-168.4c19.3-21.1,27.6-44.1,28.4-55.1C478.5,243.7,382.5,324,300,385.5"/>
<path id="Red" class="st3" d="M149.6,209.8c2.9-0.8,5.1-2.9,5.1-5.6c0-2-1.4-3.8-2.8-4.5c-0.6,4.5-2.2,8-5.5,9.5
	C146.9,209.3,148.2,209.7,149.6,209.8"/>
</svg>
