<?xml version="1.0" encoding="utf-8"?>
<svg version="1.1" id="Layer_1" xmlns="http://www.w3.org/2000/svg" xmlns:xlink="http://www.w3.org/1999/xlink" x="0px" y="0px"
	 viewBox="0 0 600 600" style="enable-background:new 0 0 600 600;" xml:space="preserve">
<style type="text/css">
	.st0{fill:#00205B;}
	.st1{fill:#CF4520;}
</style>
<g id="Blue">
	<path id="_x3C_Path_x3E_" class="st0" d="M317.5,0.3c35.9,56.3,52.1,77,52.1,108.5c0,37.8-31.8,68.5-69.6,68.5
		s-69.6-30.7-69.6-68.5c0-31.5,16.2-52.3,52.1-108.5C125,9.3,0,139.9,0,299.7c0,165.7,134.3,300,300,300s300-134.3,300-300
		C600,139.9,475,9.3,317.5,0.3 M300,572.4c-150.6,0-272.7-122.1-272.7-272.7c0-126.3,85.9-232.6,202.5-263.6
		c-6.2,7.7-26.8,36.1-26.8,72.6c0,52.8,43.5,95.8,96.9,95.8s96.9-43,96.9-95.8c0-36.6-20.6-64.9-26.8-72.6
		c116.6,31,202.5,137.2,202.5,263.6C572.7,450.3,450.6,572.4,300,572.4"/>
	<path class="st0" d="M356.8,332.4h-19.6v31.2c0,6.3-5.1,11.3-11.3,11.3c-6.2,0-11.3-5.1-11.3-11.3v-39.8h22.7v-29.5h-22.7v-23
		c0-6.3,5.1-11.3,11.3-11.3c6.3,0,11.3,5.1,11.3,11.3v14.3h19.6v-66.2H274V260c8,0,14.5,6.5,14.5,14.5v92.2c0,4.6-3.7,8.3-8.3,8.3
		v167.1c0,11.9-6.2,17.4-9.2,19.3c9.6,1.2,19.3,1.8,29,1.8c12,0,23.8-0.9,35.2-2.6c0,0,21.5-4.3,21.5-23.2L356.8,332.4z"/>
	<path class="st0" d="M274.1,332.4h-19.6v34.3c0.1,4.6-3.6,8.3-8.2,8.4c-4.6,0.1-8.3-3.6-8.4-8.2c0-0.1,0-0.1,0-0.2v-98.4
		c0-3.4,2-6.4,5.1-7.7c1-0.4,2.1-0.6,3.2-0.6v-40.5h-42.6V260c4.6,0,8.3,3.7,8.3,8.3c0,0,0,0,0,0v98.4c0,4.6-3.7,8.3-8.3,8.3v145.6
		c0,12.2-6.7,16.1-9.8,17.4c18.8,9.6,39.1,16.7,60.6,20.9c0,0,19.6,3,19.6-16.7L274.1,332.4z"/>
	<path class="st0" d="M197.5,520.6V375c-4.6,0-8.3-3.7-8.3-8.3v-98.4c0-3.4,2-6.4,5.1-7.7c1-0.4,2.1-0.6,3.2-0.6v-40.5h-42.6V260
		c4.6,0,8.3,3.7,8.3,8.3c0,0,0,0,0,0v98.4c0,4.6-3.7,8.3-8.3,8.3v99.2c0,20.7-10.6,24-16.2,24.3c13.2,12.9,28,24.1,44,33.4
		C182.8,531.9,197.5,537.4,197.5,520.6"/>
	<path class="st0" d="M526,285.7v-44.6c0-11.9-9.7-21.6-21.6-21.6h-25.5c-11.9,0-21.6,9.7-21.6,21.6v59.5c0,3.2,1.9,7.5,4.3,9.6
		l34.1,30.5c2.4,2.1,4.3,6.4,4.3,9.6v13.1c0,6.4-5.2,11.6-11.6,11.6s-11.6-5.2-11.6-11.6v-31h-19.6v169.7
		C499.6,462.9,526,407.9,526,347v-8.8c0-3.2-1.9-7.5-4.3-9.6l-34.1-30.5c-2.4-2.1-4.3-6.4-4.3-9.6v-20.2c0-4.6,3.8-8.4,8.4-8.4
		c4.6,0,8.4,3.7,8.4,8.4v17.3L526,285.7L526,285.7z"/>
	<path class="st0" d="M127.2,219.5H95.6c-11.9,0-21.6,9.7-21.6,21.6V347c0,53.1,20,101.7,53.2,139.3c6.5,8.5,21.5,10.9,21.5-12.1
		V241.1C148.7,229.2,139,219.5,127.2,219.5z M122.8,271.4l0,92.2c0,6.3-5.1,11.4-11.4,11.4c-6.3,0-11.4-5.1-11.4-11.4v-92.2
		c0-6.3,5.1-11.4,11.4-11.4c0,0,0,0,0,0C117.7,260,122.8,265.1,122.8,271.4C122.8,271.4,122.8,271.4,122.8,271.4z"/>
	<path class="st0" d="M445.3,372.6c-0.8-0.8-1.4-1.7-1.8-2.7c-0.4-1-0.6-2.1-0.6-3.2v0v-48.3c0-8.3-9.3-12.1-9.3-12.1
		s9.3-3.8,9.3-12v-53.3c0-11.9-9.7-21.6-21.6-21.6H363l0,40.5c4.6,0,8.3,3.7,8.3,8.3c0,0,0,0,0,0v98.4c0,4.6-3.7,8.3-8.3,8.3
		c0,0,0,0,0,0v162.3c0,8.4-3.4,14.8-8,19.4c15.3-3.7,30-8.8,43.9-15.2c0,0,10-4.8,10-23V375c-6.4,0-11.6-5.2-11.6-11.6v-36
		c0-4.9,4-8.9,8.9-8.9c0,0,0,0,0,0c2.4,0,4.6,0.9,6.3,2.6c1.7,1.7,2.6,3.9,2.6,6.3v193c0,5.5-0.8,10-1.9,13.9
		c11.5-6.4,22.4-13.8,32.6-22c0,0,5.4-4.4,5.4-25.5V375C448.9,375,446.8,374.1,445.3,372.6z M416.9,284.5c0,5.4-4.4,9.8-9.8,9.8
		c-5.4,0-9.8-4.4-9.8-9.8v-14.7c0-4,2.4-7.6,6.1-9.1c2.4-1,5.1-1,7.5,0c3.7,1.5,6.1,5.1,6.1,9.1V284.5z"/>
</g>
<path id="Orange" class="st1" d="M350.7,109.8c0-35.5-30.8-54.5-50.7-104.1c-19.9,49.6-50.7,68.6-50.7,104.1
	c0,24.3,20.1,47.9,50.7,47.9S350.7,134.1,350.7,109.8"/>
</svg>
