<?xml version="1.0" encoding="utf-8"?>
<!-- Generator: Adobe Illustrator 25.2.3, SVG Export Plug-In . SVG Version: 6.00 Build 0)  -->
<svg version="1.1" id="Layer_1" xmlns="http://www.w3.org/2000/svg" xmlns:xlink="http://www.w3.org/1999/xlink" x="0px" y="0px"
	 viewBox="0 0 600 600" style="enable-background:new 0 0 600 600;" xml:space="preserve">
<style type="text/css">
	.st0{fill:#FFFFFF;}
	.st1{fill:#00205B;}
	.st2{fill:#CF4520;}
</style>
<path id="_x3C_Path_x3E__2_" class="st0" d="M297.7,0L297.7,0l-15.2,0.9C124.1,9.9,0,141.4,0,300.1c0,40.5,7.9,79.8,23.6,116.7
	c15.1,35.7,36.7,67.8,64.3,95.3c27.5,27.5,59.6,49.2,95.4,64.3c37,15.6,76.3,23.6,116.8,23.6s79.8-7.9,116.8-23.6
	c35.7-15.1,67.8-36.7,95.4-64.3c27.5-27.5,49.2-59.6,64.3-95.3c15.6-37,23.6-76.2,23.6-116.7C600,141.4,475.9,9.9,317.5,0.9L302.3,0
	L297.7,0z"/>
<g id="Blue">
	<path id="_x3C_Path_x3E_" class="st1" d="M317,8.5c35,54.8,50.7,75,50.7,105.7c0,36.8-31,66.7-67.8,66.7s-67.8-29.9-67.8-66.7
		c0-30.7,15.8-50.9,50.7-105.7C129.5,17.3,7.8,144.5,7.8,300.1c0,161.4,130.8,292.2,292.2,292.2s292.2-130.8,292.2-292.2
		C592.2,144.5,470.5,17.3,317,8.5 M300,565.8c-146.7,0-265.6-118.9-265.6-265.6c0-123,83.7-226.6,197.2-256.8
		c-6,7.5-26.1,35.2-26.1,70.7c0,51.4,42.4,93.3,94.4,93.3s94.4-41.9,94.4-93.3c0-35.6-20.1-63.2-26.1-70.7
		C481.8,73.6,565.4,177,565.4,300.1C565.6,446.8,446.7,565.8,300,565.8"/>
	<path class="st1" d="M355.3,332h-19.1v30.4c0,6.1-5,11-11,11c-6,0-11-5-11-11v-38.8h22.1v-28.7h-22.1v-22.4c0-6.1,5-11,11-11
		c6.1,0,11,5,11,11v13.9h19.1v-64.5h-80.6v39.5c7.8,0,14.1,6.3,14.1,14.1v89.8c0,4.5-3.6,8.1-8.1,8.1v162.8c0,11.6-6,16.9-9,18.8
		c9.4,1.2,18.8,1.8,28.2,1.8c11.7,0,23.2-0.9,34.3-2.5c0,0,20.9-4.2,20.9-22.6L355.3,332z"/>
	<path class="st1" d="M274.8,332h-19.1v33.4c0.1,4.5-3.5,8.1-8,8.2c-4.5,0.1-8.1-3.5-8.2-8c0-0.1,0-0.1,0-0.2v-95.8
		c0-3.3,1.9-6.2,5-7.5c1-0.4,2-0.6,3.1-0.6V222h-41.5v39.4c4.5,0,8.1,3.6,8.1,8.1l0,0v95.8c0,4.5-3.6,8.1-8.1,8.1v141.8
		c0,11.9-6.5,15.7-9.5,16.9c18.3,9.4,38.1,16.3,59,20.4c0,0,19.1,2.9,19.1-16.3L274.8,332z"/>
	<path class="st1" d="M200.2,515.3V373.5c-4.5,0-8.1-3.6-8.1-8.1v-95.8c0-3.3,1.9-6.2,5-7.5c1-0.4,2-0.6,3.1-0.6V222h-41.5v39.4
		c4.5,0,8.1,3.6,8.1,8.1l0,0v95.8c0,4.5-3.6,8.1-8.1,8.1v96.6c0,20.2-10.3,23.4-15.8,23.7c12.9,12.6,27.3,23.5,42.9,32.5
		C185.8,526.3,200.2,531.7,200.2,515.3"/>
	<path class="st1" d="M520.1,286.5v-43.4c0-11.6-9.4-21-21-21h-24.8c-11.6,0-21,9.4-21,21v58c0,3.1,1.9,7.3,4.2,9.4l33.2,29.7
		c2.3,2,4.2,6.2,4.2,9.4v12.8c0,6.2-5.1,11.3-11.3,11.3c-6.2,0-11.3-5.1-11.3-11.3V332h-19.1v165.3c41.3-38.2,67-91.8,67-151.1v-8.6
		c0-3.1-1.9-7.3-4.2-9.4l-33.2-29.7c-2.3-2-4.2-6.2-4.2-9.4v-19.7c0-4.5,3.7-8.2,8.2-8.2s8.2,3.6,8.2,8.2v16.9L520.1,286.5
		L520.1,286.5z"/>
	<path class="st1" d="M131.7,222h-30.8c-11.6,0-21,9.4-21,21v103.1c0,51.7,19.5,99.1,51.8,135.7c6.3,8.3,20.9,10.6,20.9-11.8v-227
		C152.6,231.5,143.2,222,131.7,222z M127.4,272.6v89.8c0,6.1-5,11.1-11.1,11.1c-6.1,0-11.1-5-11.1-11.1v-89.8
		c0-6.1,5-11.1,11.1-11.1l0,0C122.4,261.5,127.4,266.4,127.4,272.6L127.4,272.6z"/>
	<path class="st1" d="M441.5,371.1c-0.8-0.8-1.4-1.7-1.8-2.6c-0.4-1-0.6-2-0.6-3.1l0,0v-47c0-8.1-9.1-11.8-9.1-11.8
		s9.1-3.7,9.1-11.7V243c0-11.6-9.4-21-21-21h-56.8v39.4c4.5,0,8.1,3.6,8.1,8.1l0,0v95.8c0,4.5-3.6,8.1-8.1,8.1l0,0v158.1
		c0,8.2-3.3,14.4-7.8,18.9c14.9-3.6,29.2-8.6,42.8-14.8c0,0,9.7-4.7,9.7-22.4V373.5c-6.2,0-11.3-5.1-11.3-11.3v-35.1
		c0-4.8,3.9-8.7,8.7-8.7l0,0c2.3,0,4.5,0.9,6.1,2.5c1.7,1.7,2.5,3.8,2.5,6.1v188c0,5.4-0.8,9.7-1.9,13.5
		c11.2-6.2,21.8-13.4,31.8-21.4c0,0,5.3-4.3,5.3-24.8V373.5C445,373.5,443,372.6,441.5,371.1z M413.9,285.3c0,5.3-4.3,9.5-9.5,9.5
		s-9.5-4.3-9.5-9.5V271c0-3.9,2.3-7.4,5.9-8.9c2.3-1,5-1,7.3,0c3.6,1.5,5.9,5,5.9,8.9L413.9,285.3L413.9,285.3z"/>
</g>
<path id="Orange" class="st2" d="M349.4,115.2c0-34.6-30-53.1-49.4-101.4c-19.4,48.3-49.4,66.8-49.4,101.4
	c0,23.7,19.6,46.7,49.4,46.7S349.4,138.8,349.4,115.2"/>
</svg>
