<?xml version="1.0" encoding="utf-8"?>
<svg version="1.1" id="Layer_1" xmlns="http://www.w3.org/2000/svg" xmlns:xlink="http://www.w3.org/1999/xlink" x="0px" y="0px"
	 viewBox="0 0 600 600" style="enable-background:new 0 0 600 600;" xml:space="preserve">
<style type="text/css">
	.st0{fill:#010101;}
	.st1{fill:#FFFFFF;}
	.st2{fill:#CD001A;}
</style>
<path id="Black" class="st0" d="M554.7,114.2c0-45.5-41.7-65.4-83.7-63.8c0,0,17.3,16.7,17.3,29.1c0,6.6-4.9,13.6-18.7,13.6h-62.1
	c-14,0-22.3-4.8-22.3-12.9c0-13.2,20.7-28.6,20.7-28.6s-42.1,2.5-70.2,24.6c-8.5-1-17.1-1.6-25.9-1.6
	c-121.4,0-219.9,98.5-219.9,219.9c0,41.9,11.7,81,32,114.3c-3.3,1.7-6.6,2.9-11.2,2.9c-15.4,0-15.5-34.1-15.5-34.1
	S56.3,423,56.3,483.5c0,37.3,15.7,69.3,15.7,69.3s43.6-52.5,131.2-52.5c0,0-41.6-16.7-41.6-36.9c0,0,0.2-2.1,1.6-4.8
	c38.9,34.8,90.2,55.9,146.5,55.9c121.5,0,219.9-98.5,219.9-219.9c0-43.6-12.7-84.1-34.6-118.3C516.3,172.9,554.7,158.4,554.7,114.2"
	/>
<path id="White" class="st1" d="M113,294.6C113,186,201.1,97.8,309.7,97.8c2.6,0,5.1,0.1,7.6,0.2c-4.1,8-6.5,17.4-6.5,28.5
	c0,50.6,56,51,56,51l-27.3,72.2L292,189.6c-16.9-21.4-34.3-25.8-46-25.8c-23.9,0-42.4,16.9-55,50.2l-60.9,161
	C119.1,350.5,113,323.3,113,294.6L113,294.6z M137.5,389.9c12.7-4.1,32.2-9,53.8-9c27.7,0,52.7,6.8,52.7,6.8l24.2-63.9l22.9,41.6
	l-20.8,21.8c-12.6,13.2-44.2,5-79,5c-24.2,0-38.9,2.7-48.8,6.2C140.8,395.5,139.1,392.7,137.5,389.9 M506.5,294.6
	c0,108.7-88.1,196.8-196.8,196.8c-46.1,0-88.5-15.9-122.1-42.5c32.4,1.4,50.1,22.4,95.8,22.4c67.1,0,106.3-40.6,120.7-78.7l75-198.1
	C496.5,223.8,506.5,258,506.5,294.6"/>
<path id="Red" class="st2" d="M489.6,60.1c0,0,8.1,7.6,8.1,19.4s-9.2,23.1-28.2,23.1h-62.1c-24.1,0-31.8-12.3-31.8-22.3
	s5.7-15.3,5.7-15.3s-61,11.9-61,61.5c0,41.7,46.7,41.6,46.7,41.6h13.6l-38.1,100.6l-57.8-73.3c-3.6-4.5-17.7-22.2-38.6-22.2
	c-29.1,0-41.8,32.7-46.1,44.1l-61.5,162.4c0,0,22.7-8.3,52.9-8.3c25.4,0,46.8,5.1,46.8,5.1l28.5-75.3l36.2,65.6l-25.6,26.8
	c-16.8,17.6-52,7.9-85.8,7.9c-63.2,0-57.1,19.7-80.7,19.7c-16.7,0-21.1-20.3-21.1-20.3s-23.8,39.5-23.8,82.5c0,28,9.8,52.5,9.8,52.5
	s49.2-41.9,98.8-41.9c0,0-22.1-10.6-22.1-30.7c0-5.7,7.6-24,32-24c37.8,0,53.5,22.4,99.2,22.4c63.9,0,99.4-39.6,111.9-72.6
	L479,168.1c0,0,66.2,0.1,66.2-53.9C545.2,64.6,489.6,60.1,489.6,60.1"/>
</svg>
