<?xml version="1.0" encoding="utf-8"?>
<!-- Generator: Adobe Illustrator 25.2.3, SVG Export Plug-In . SVG Version: 6.00 Build 0)  -->
<svg version="1.1" id="Layer_1" xmlns="http://www.w3.org/2000/svg" xmlns:xlink="http://www.w3.org/1999/xlink" x="0px" y="0px"
	 viewBox="0 0 600 600" style="enable-background:new 0 0 600 600;" xml:space="preserve">
<style type="text/css">
	.st0{fill:#010101;}
	.st1{fill:#FFFFFF;}
	.st2{fill:#CD001A;}
</style>
<path id="Black" class="st0" d="M597.6,76.3c0-54.3-49.8-78.1-99.9-76.2c0,0,20.7,19.9,20.7,34.7c0,7.9-5.9,16.2-22.3,16.2h-74.2
	c-16.7,0-26.6-5.7-26.6-15.4c0-15.8,24.7-34.1,24.7-34.1s-50.3,3-83.8,29.4c-10.1-1.2-20.4-1.9-30.9-1.9
	c-145,0-262.6,117.6-262.6,262.6c0,50,14,96.7,38.2,136.5c-3.9,2-7.9,3.5-13.4,3.5c-18.4,0-18.5-40.7-18.5-40.7S2.4,445,2.4,517.3
	c0,44.5,18.7,82.7,18.7,82.7s52.1-62.7,156.7-62.7c0,0-49.7-19.9-49.7-44.1c0,0,0.2-2.5,1.9-5.7c46.4,41.6,107.7,66.7,174.9,66.7
	c145.1,0,262.6-117.6,262.6-262.6c0-52.1-15.2-100.4-41.3-141.3C551.7,146.4,597.6,129.1,597.6,76.3"/>
<path id="White" class="st1" d="M70.1,291.7c0-129.7,105.2-235,234.9-235c3.1,0,6.1,0.1,9.1,0.2c-4.9,9.6-7.8,20.8-7.8,34
	c0,60.4,66.9,60.9,66.9,60.9l-32.6,86.2l-56.7-71.8c-20.2-25.6-41-30.8-54.9-30.8c-28.5,0-50.6,20.2-65.7,59.9L90.6,387.7
	C77.4,358.4,70.1,326,70.1,291.7L70.1,291.7z M99.4,405.5c15.2-4.9,38.4-10.7,64.2-10.7c33.1,0,62.9,8.1,62.9,8.1l28.9-76.3
	l27.3,49.7l-24.8,26c-15,15.8-52.8,6-94.3,6c-28.9,0-46.4,3.2-58.3,7.4C103.3,412.2,101.3,408.8,99.4,405.5 M540,291.7
	c0,129.8-105.2,235-235,235c-55,0-105.7-19-145.8-50.7c38.7,1.7,59.8,26.7,114.4,26.7c80.1,0,126.9-48.5,144.1-94l89.6-236.5
	C528.1,207.2,540,248,540,291.7"/>
<path id="Red" class="st2" d="M519.8,11.7c0,0,9.7,9.1,9.7,23.2s-11,27.6-33.7,27.6h-74.2c-28.8,0-38-14.7-38-26.6
	s6.8-18.3,6.8-18.3S317.7,31.7,317.7,91c0,49.8,55.8,49.7,55.8,49.7h16.2l-45.5,120.1l-69-87.5c-4.3-5.4-21.1-26.5-46.1-26.5
	c-34.7,0-49.9,39-55,52.7l-73.4,193.9c0,0,27.1-9.9,63.2-9.9c30.3,0,55.9,6.1,55.9,6.1l34-89.9l43.2,78.3l-30.6,32
	c-20.1,21-62.1,9.4-102.4,9.4c-75.5,0-68.2,23.5-96.4,23.5c-19.9,0-25.2-24.2-25.2-24.2s-28.4,47.2-28.4,98.5
	c0,33.4,11.7,62.7,11.7,62.7s58.7-50,118-50c0,0-26.4-12.7-26.4-36.7c0-6.8,9.1-28.7,38.2-28.7c45.1,0,63.9,26.7,118.5,26.7
	c76.3,0,118.7-47.3,133.6-86.7l99.7-263.9c0,0,79,0.1,79-64.4C586.2,17.1,519.8,11.7,519.8,11.7"/>
</svg>
