<?xml version="1.0" encoding="utf-8"?>
<svg version="1.1" id="Layer_1" xmlns="http://www.w3.org/2000/svg" xmlns:xlink="http://www.w3.org/1999/xlink" x="0px" y="0px"
	 viewBox="0 0 600 600" style="enable-background:new 0 0 600 600;" xml:space="preserve">
<style type="text/css">
	.st0{fill:#FFB81C;}
	.st1{fill:#041E42;}
	.st2{fill:#FFFFFF;}
</style>
<path id="Yellow" class="st0" d="M583.1,262.8c-0.7-1.7-2-3.1-3.6-3.9l-31.5-15.2l-9.7-7.5L524,218.7l-4.7-20.9
	c-0.5-2-1.7-3.8-3.6-4.8l-22.2-12.6l-13.9-14c-0.7-0.7-1.4-1.2-2.3-1.6L390.6,127c-1.4-0.6-2.9-0.8-4.4-0.5L268,150.1
	c-32.2-2.5-60.4,1.5-61.6,1.7c-7.3,1.2-7.3,9-4.8,11.6l-177,35.4c-1.8,0.4-3.3,1.3-4.4,2.8L1.5,226.2c-3.3,4.4-0.8,11.1,4.9,11.8
	c1.3,0.2,129.3,17.7,129.3,95.3c0,28.6-19.6,56.7-19.8,57c-2.8,4-1.1,10.5,4.7,11.5l72.3,13.1c5.5,4.4,23.9,17.3,50.7,17.3
	c31.7,0,40.7-12,42.7-21.8c15.7-6.7,35.5-22.5,35.5-35.3c0-8-7.2-13.3-13.9-13.3c-0.8,0-1.4,0.3-2.2,0.4c0,0-3.4-6.2-11.5-6.2
	c-3.5,0-7.3,1.7-10.2,3c7.2-8.3,19.2-18.3,38.4-24.6c29.6-9.8,68.1-18.1,87.4-22c-29.3,85.2-129.8,130-130.8,130.5
	c-6,2.6-4.9,10.2-2.4,11.7l-11,4.9c-7.8,3.4-4.5,14.8,3.6,14.1c106-9,184-46.1,238.3-113.2h21.8c1.3,0,2.5-0.3,3.6-0.9
	c21.4-11.9,35.7-11.4,35.8-11.4c2.9,0.1,5.7-1.5,7-4.1c10.6-21.5,22-32.9,22.1-33c1.6-1.6,3.1-4.6,1.7-8.1L583.1,262.8L583.1,262.8z
	"/>
<path id="Blue" class="st1" d="M544,250l-11-8.5L517.2,222l-5-22.6l-23-13.1l-14.6-14.7l-86.8-37.7l-119.2,23.8
	c-32.2-2.7-61,1.6-61,1.6l10,8.6L26.1,206L7.4,230.6c0,0,135.8,17.5,135.8,102.7c0,31.4-21.2,61.3-21.2,61.3l74.2,13.4
	c0,0,18.5,16.8,47.5,16.8c33.7,0,35.9-14.1,35.9-19.6c14.8-4.8,34.9-21.1,34.9-30.1c0-3.6-3.8-5.9-6.5-5.9c-2.2,0-5.3,1.8-7.7,2.8
	c1.4-3.1-0.6-8.7-6-8.7c-4.5,0-12.1,6.4-26.8,7.7c0,0,11.3-30,52.7-43.8c41.8-13.8,100.5-24.6,100.5-24.6
	c-24.9,97.5-138.7,146.9-138.7,146.9l42-9.5c-19.5,10.3-55.4,26.1-55.4,26.1c105.9-9,183-45.5,237-115.2l3.7,2h20
	c23.9-13.3,39.8-12.4,39.8-12.4c11.4-23.1,23.5-35,23.5-35l-16.3-40L544,250z"/>
<path id="White" class="st2" d="M107.5,249c4,2.4,8,5,11.8,7.8c4-1.3,8.1-2.6,12.2-3.9c7.2-27.4,21.8-45.5,21.8-45.5
	C122.8,218.8,110,243.6,107.5,249 M233.5,186.6c0,0,12.1,20.7,33.8,20.7l22.5-1.6l18.5-19.3l25.2-3.9c-9.3-5.7-19.9-9.7-30.6-12.6
	l-21.1,29.4l13.4-31.3c-3.9-0.8-7.8-1.6-11.7-2.2l-18.2,25.3l11.2-26.3c-4.6-0.6-9.2-1-13.8-1.3L248.8,183l8.4-19.7
	c-19.6-0.8-33.9,0.8-33.9,0.8l4.8,4.2L233.5,186.6z M261.9,380.6c2.7,12,10.7,15.4,11.4,19.9c0,0,20.8-4.3,34.7-24.9
	C281,389.1,261.9,380.6,261.9,380.6 M505.7,330.9c0-11.7-19.4-23-28.6-23c-37.7,0-37.2,80.2-170.2,148.1
	C420.1,439.6,505.7,362.5,505.7,330.9 M242.3,214l-0.3,3.4c-8.4,1.7-21.6,7.1-34.2,17l62.7-8.9l5.4-12.6
	c-33.4,4.9-48.4-23.5-48.4-23.5l-2.6-8.7L31.3,224c20.9,1.4,43.9,8.1,64.9,18.8c5-16.7,17.4-29.7,17.4-29.7L220,189.3
	C220,189.3,224.2,203,242.3,214 M528.8,278.9l16.5-5.8c0,0,19.6,12.4,28.4-3.5l-29.9-14.1c-8.4,4.8-16.6,7.4-24.2,8.5v0
	c-22.5,3.2-39.6-6.2-39.6-6.2c-18.6,0-31.3,3-42.3,8.4h0c-8.9,4.4-16.6,10.5-25.3,17.9l26.2-28.8l4.1-23.9L368,223
	c4.8,17,16.7,26.2,16.7,26.2l-14.1,15.5L354,282.9c-6.2-1.9-12.7-2.9-19.5-3.1c-0.4-9.2,3.2-19.7,11.3-29.8
	c-10.7,8.1-17.2,18.5-18.6,30c-4.7,0.4-9.3,1.2-13.8,2.4c-2.3-7.7-2.1-17.1,1.5-27.4c-6.3,9.5-8.8,19.6-7.5,29.3
	c-4.4,1.7-8.7,3.8-12.7,6.3c-3.9-5.9-6.3-13.9-6.5-23.3c-2.3,9.7-1.6,18.7,1.8,26.5c-14.2,10.6-20.5,23.3-20.5,23.3
	c-45-8.1-72.2,29.5-73.2,56c-2.9-18.3,3-50.8,39.2-66.2l12-28.1c0.7-1.7,1.7-3.3,2.9-4.8l0,0c2.8-3.4,7-5.7,12.9-7.3
	c29-7.5,58.6-23.9,74.3-44.6l-42.2,1.2c-19,14.3-27.1,33.8-27.1,33.8l-12.9,3l14.9-34.8l-62.7,8.9c-17.9,14-34.6,37.1-34.6,71.4
	c0,17.1,5.7,31.1,5.7,31.3l0,0c0,0-7.1-9.7-11.3-26.1l0,0c-2-7.8-3-15.9-3-24c0-16.9,4.9-32.9,10.3-45.7v0
	c7.1-16.5,15.2-27.4,15.2-27.4s-23.2,9.4-39.2,33.5h0c-5.4,8.2-9.5,17.3-11.9,26.9c11.5,12.2,20.1,26.1,23.9,41.4
	c1.5,5.9,2.3,11.9,2.3,18c0,29.5-12.3,48-12.3,48l41.2,8.4c0,0,15.6,22.7,49.1,22.7c10.6,0,24.5-1.2,24.5-7.9
	c0-5.1-12.5-12-12.5-26.8c0-24,30.1-48.9,62.4-59.5c37.8-12.4,95.5-26.9,124.5-26.9c82.3,0,79.6,54.4,79.6,54.4l4-0.2
	c18.3-10.3,34.5-12.3,39.3-12.6c0.5,0,0.9-0.1,1.4-0.1c0,0,8.1-15.2,17.5-26.2C584,306.7,571.7,281,528.8,278.9 M295.5,223.4
	l42.2-1.2c7.1-9.4,11.3-19.6,11.3-30.3c0-18.5-9.5-29.3-9.5-29.3l45.8-10.2l14.2,7c0,0-33.7,12.9-33.7,49.4c0,5.2,0.8,9.9,2,14.2
	l74.7,8.5c0,0,8.2,20,30.9,20c11,0,19.3-6.1,19.3-6.1c24.5,18.6,47,8.3,47,8.3l-8.4-7l-8,4.3l5-7.5l-3.1-3.5l-10.9,5.6l6.8-10.3
	l-2.4-2.7l-9.2,4l5.3-8.9l-3.7-5.7c-3.4,15.1-16.9,16.9-28.5,16l-0.6-6.7c-2.6,1.6-5.6,2.5-8.7,2.5c-9,0-16.4-7.3-16.4-16.4
	c0-5.2-25.5-28-25.5-28l33,10.2c27.7,8.5,26.4,22.3,26.8,29.7c4.7,2.1,15.1,3.6,19.9-7.4l-3.5-18.2l-22-10.7L470.8,179l-84.5-34.2
	l-83.2,18.5c19.6,4.7,35.8,14.9,35.8,14.9s6.2,14.3-1.9,30.3C319.6,209.3,306,215.6,295.5,223.4 M502.6,211.3l-4.1,15.9
	c0-12-7.1-18.9-28.2-31.3L502.6,211.3z"/>
<path id="Yellow_2_" class="st0" d="M545.4,273.1c0,0-11.3-5.2-25.8-9.1c-22.5,3.2-39.6-6.2-39.6-6.2c-18.6,0-31.3,3-42.3,8.4
	C557.9,276.8,573,303.4,565,332.9c0.5,0,0.9-0.1,1.4-0.1c0,0,8.1-15.2,17.5-26.2c0,0-12.2-25.6-55.2-27.8L545.4,273.1z M174.9,241.2
	c-8,1.9-16,3.9-23.9,6.1c-5.4,8.2-9.5,17.3-11.9,26.9c11.5,12.2,20.1,26.1,23.9,41.4c1.5-1.6,3-3.1,4.5-4.6c-2-7.8-3-15.9-3-24
	C164.5,270,169.4,254,174.9,241.2 M442.7,231.5c-25.4-4.6-50.5-7.3-74.7-8.5c4.8,17,16.7,26.2,16.7,26.2l-14.1,15.5
	c25.4-0.5,51.9,0.6,51.9,0.6l-10,18.9l26.2-28.8L442.7,231.5z M268.5,257.3l-12.9,3l14.9-34.8c-21,2.1-42,5-62.7,8.9
	c-17.9,14-34.6,37.1-34.6,71.4c0,17.2,5.7,31.3,5.7,31.3c-4.7-19.9,6.2-39.4,6.2-39.4s25.1-16,65.5-23.5c2.8-3.4,7-5.7,12.9-7.3
	c29-7.5,58.6-23.9,74.3-44.6c-14.1,0-28.2,0.4-42.2,1.2C276.5,237.8,268.5,257.3,268.5,257.3 M129,264.5c0.6-3.9,1.4-7.8,2.4-11.6
	c-4.1,1.3-8.1,2.5-12.2,3.9C122.6,259.3,125.8,261.8,129,264.5"/>
<path id="Yellow_1_" class="st0" d="M475.8,228.7c3.4,0,6-1.6,6-1.6c-0.2-1.2-0.5-2.3-0.8-3.5c-0.8,0.5-2,1.1-3.5,1.1
	c-3.7,0-6-2.9-6-6c0-2.7,1.8-5.1,4.5-5.8c-3.3-4.7-6.6-6.6-6.6-6.6s-5.7,3.2-5.7,10.3C463.7,223.6,469.6,228.7,475.8,228.7"/>
</svg>
