<?xml version="1.0" encoding="utf-8"?>
<svg version="1.1" id="Layer_1" xmlns="http://www.w3.org/2000/svg" xmlns:xlink="http://www.w3.org/1999/xlink" x="0px" y="0px"
	 viewBox="0 0 600 600" style="enable-background:new 0 0 600 600;" xml:space="preserve">
<style type="text/css">
	.st0{fill:#0033A0;}
	.st1{fill:#C8102E;}
	.st2{fill:#FFFFFF;}
</style>
<path id="Blue" class="st0" d="M554.8,91.7L600,11.6H449l-21.7,21.1l-21.7-21.1H194.3l-21.7,21.1L151,11.6H0l45.2,80.2v389.3
	c0,7.8,0,69,73.9,69h116.9c42,0,62.4,38.4,62.4,38.4h3.4c0,0,20.5-38.4,62.4-38.4H481c73.9,0,73.9-61.1,73.9-69V91.7z"/>
<path id="Red" class="st1" d="M259.9,205.2l261,189v-189H259.9z"/>
<path id="White" class="st2" d="M79.1,178.6h441.8v10.7H79.1V178.6z M79.1,481.1c0,31,21.3,35,39.9,35h116.9
	c26.6,0,48.1,14,64.1,26.8c16-12.8,37.5-26.8,64.1-26.8h42.3L79.1,279.1V481.1z M79.1,257.1l357.6,259h15.2l-372.8-270L79.1,257.1z
	 M214.4,205.2l306.5,222v-11l-291.3-211L214.4,205.2z M340.8,415.6l25.9,18.7l7.5-10.4l-15.3-11.1l12.2-16.8l15.3,11.1l7.5-10.4
	l-15.3-11.1l12.2-16.8l15.3,11.1l7.5-10.4l-25.9-18.7L340.8,415.6z M211.3,223l-23.9-17.3l-47,64.8l10.6,7.7l21-29l5.9,4.3
	l-9.9,37.1l10.6,7.7l10-37.5c6.6,2.7,14.5,0.7,18.9-5.4l7.3-10.1C220,238,218.4,228.1,211.3,223L211.3,223z M202.8,239.5l-4.5,6.2
	c-1.3,1.8-3.6,2.6-5.7,2.1c-0.7-0.2-1.4-0.5-1.9-0.9l-11.2-8.1l10.9-15l11.2,8.1C204.1,233.6,204.6,237,202.8,239.5 M420.5,473.4
	l10-37.5c6.6,2.7,14.5,0.7,18.9-5.4l7.3-10.1c5.1-7.1,3.5-17-3.5-22.2l-23.9-17.3l-47,64.8l10.6,7.7l21-29l5.9,4.3l-9.9,37.1
	L420.5,473.4z M432.4,399l11.2,8.1c2.5,1.8,3,5.2,1.2,7.7l-4.5,6.1c-1.8,2.5-5.2,3-7.6,1.2c0,0,0,0,0,0l-11.2-8.1L432.4,399z
	 M285.9,277l-47,64.9l10.6,7.7l28.2-38.9l-11.2,51.2l10.6,7.7l47-64.9l-10.6-7.7l-28.2,38.9l11.2-51.2L285.9,277z M185.7,303.3
	l10.6,7.7l13.4-10.7l17.6,12.8l-6,16l10.6,7.7L261,259l-10.6-7.7L185.7,303.3L185.7,303.3z M231.3,302.4l-12.8-9.2l23.3-18.7
	L231.3,302.4z M360.4,330.9l-8.9-6.4c-7.1-5.1-17-3.6-22.2,3.5L301,367.2c-5.1,7.1-3.6,17,3.5,22.1l8.9,6.4c2.2,1.6,4.7,2.6,7.4,2.9
	l-0.2,2.3l5.6,4.1l25.1-34.7l-20.6-14.9l-6.4,8.9l10,7.3l-8,11c-1.3,1.8-3.5,2.6-5.7,2.1c-0.7-0.2-1.4-0.5-1.9-0.9l-4.5-3.3
	c-2.4-1.8-3-5.2-1.2-7.6l25.5-35.2c1.8-2.4,5.2-3,7.7-1.2l4.5,3.3c2.4,1.8,3,5.2,1.2,7.6l-6.2,8.6l10.6,7.7l7.7-10.6
	C369,346,367.4,336.1,360.4,330.9 M492.7,426.8c-9.7-7-23.2-4.9-30.2,4.8c-12.7,17.6,11.8,38.9,5.1,48.1c-3.1,4.3-9.2,5.3-13.5,2.2
	c0,0,0,0,0,0c-4.3-3.1-5.3-9.2-2.2-13.5l3.1-4.2l-10.6-7.7l-2.9,4c-7.4,10.2-5.1,24.4,5.1,31.7c10.2,7.4,24.4,5.1,31.7-5.1
	c12.6-17.4-11.9-38.7-5.1-48.1c1.3-1.8,3.3-3.1,5.6-3.4c2.2-0.4,4.5,0.2,6.4,1.5c3.8,2.8,4.7,8.1,1.9,12l-2.5,3.5l10.6,7.7l2.4-3.3
	C504.5,447.3,502.4,433.8,492.7,426.8 M179.5,152.4h-18.9v-20.8h18.9v-12.8h-18.9V98h18.9V85.2h-31.9v80.1h31.9V152.4z M417.5,129.4
	h7.3l13.7,35.9h13.1L437.7,129c7-1.7,12.2-7.9,12.2-15.4v-12.5c0-8.8-7.1-15.9-15.9-15.9h-29.5v80.1h13.1V129.4z M417.5,98h13.8
	c3,0,5.5,2.4,5.5,5.5c0,0,0,0,0,0v7.6c0,3-2.5,5.5-5.5,5.5h-13.8V98z M96.3,117.2l21,48.1h13.1V85.2h-13.1v48.1l-21-48.1H83.3v80.1
	h13.1V117.2z M366.4,165.3h10.9c8.8,0,15.9-7.1,15.9-15.9v-48.3c0-8.8-7.1-15.9-15.9-15.9h-10.9c-8.8,0-15.9,7.1-15.9,15.9v48.3
	C350.5,158.2,357.6,165.3,366.4,165.3 M363.5,103.5c0-3,2.5-5.5,5.5-5.5c0,0,0,0,0,0h5.6c2.2,0,4.2,1.3,5.1,3.4
	c0.3,0.7,0.4,1.4,0.4,2.1V147c0,3-2.5,5.5-5.5,5.5H369c-3,0-5.5-2.5-5.5-5.5V103.5z M479,132.1l5.9-9.4l18.8,42.6h13.1l-24.2-54.8
	l15.8-25.3h-13.1l-16.2,26v-26h-13.1v80.1H479L479,132.1z M313,165.3h13.1v-33.2l17.2-46.9h-13.1l-10.7,29.2l-10.7-29.2h-13.1
	l17.3,46.9L313,165.3z M220.6,165.3l6.8-42l6.8,42h15.6L263,85.2h-13.1l-7.8,47.9l-7.8-47.9h-13.7l-7.8,47.9L205,85.2h-13.1
	l13.1,80.1L220.6,165.3z M450.5,15.3l-23.2,22.6l-23.2-22.6H195.9l-23.2,22.6l-23.2-22.6H6.5l42.5,75.4v390.3
	c0,19.6,6.8,65.2,70.1,65.2h116.9c37.5,0,58.4,28.8,64.1,38c5.7-9.1,26.6-38,64.1-38H481c63.3,0,70.1-45.6,70.1-65.2V90.7l42.5-75.4
	L450.5,15.3z M533.8,86.2v394.9c0,21.9-9.2,48-52.9,48H364.1c-29.7,0-50.8,16.7-64.1,30c-13.2-13.3-34.4-30-64.1-30H119
	c-43.7,0-52.9-26.1-52.9-48V86.2L35.9,32.6h106.6l30.2,29.3l30.2-29.3h194.3l30.2,29.3l30.2-29.3h106.6L533.8,86.2z"/>
</svg>
