<?xml version="1.0" encoding="utf-8"?>
<svg version="1.1" id="Layer_1" xmlns="http://www.w3.org/2000/svg" xmlns:xlink="http://www.w3.org/1999/xlink" x="0px" y="0px"
	 viewBox="0 0 600 600" style="enable-background:new 0 0 600 600;" xml:space="preserve">
<style type="text/css">
	.st0{fill:#010101;}
	.st1{fill:#E57200;}
	.st2{fill:#00778B;}
	.st3{fill:#FFFFFF;}
</style>
<path id="Black" class="st0" d="M499.4,181l-49.5,79.1c5.6-2.6,11.2-5.2,16.8-7.7l52.9-85.5c0,0-89.9,19.6-171.7,27.9
	c1.9,3,3.9,6.1,5.7,9.2C409.7,198.1,468.4,187.2,499.4,181 M507.3,390c-6.8-28.4-8-33.6-23.1-41.3l-2.5-3.2
	c27.8-49.9,48-109.4,48-116.5c0-1.7-0.8-2.2-1.8-1.7c-44.3,22.5-92.9,42.5-103.7,50l-2.9,4c-23.8-21.2-44.3-36.1-52.2-41.7
	C319.7,142.5,243.7,74.2,194.8,49.7c0,10.1,48.4,84.7,55.9,147.4c-87.6-6-198.8-30.3-198.8-30.3l95.7,154.8
	C68.9,326.5,0,328.1,0,328.1c0,5.5,87.8,47.4,217.3,76.7c28.3,6.4,49.4,5.4,63.2,5.4c-2.5-2.8-5.1-5.6-7.7-8.3
	c18.8,11.5,35.9,22.9,51.3,33.1c-3.9,0.1-8.1,0.1-12.7,0.1c-31.2,0-54.7-1.6-69.6-2.7c-3.7-0.3-6.9-0.5-9.5-0.7
	c-1.3-0.1-2.5-0.1-3.5-0.2l-14.7-23.4c-5.9-1.3-11.6-2.7-15.5-3.6l19.6,31.7c-18.3,13.2-65.3,53-99.3,108.6l3,5.5
	c0,0,32.9-2,60.7-2.8c0,0,12.5-35.6,57-76.7l46,74.4l55.8-90.3c3.7-0.4,7.3-0.8,11-1.3c3.9,2.4,7.6,4.7,11.1,6.7
	c-1.9,1.1-3.5,2.6-4.7,4.8c0,0,3.2,2.2,3.4,6.5c0,0,2.8,0.4,5.6-0.4c0,0,2-3,3.7-6.6c3.7,1.9,7.1,3.5,10.3,4.8
	c0,3.1,0.5,5.4,0.5,5.4s3.6,1.1,7.8-2.7c24.7,5.6,39.5,0.9,39.5,0.9c25.1,7.4,37.9-0.9,37.9-0.9c9.8,4.3,18.1,6.7,45,6.7
	c14.6,0,19.4-1.8,19.4-4.2C532.2,462.9,519.8,414.8,507.3,390L507.3,390z M285.7,502l-26.3-41.7c10.2-0.2,29.6-0.8,54.4-2.8
	L285.7,502z M514.6,381.3l0.9,3.3c0,0,8.1,5.5,13.9,7.1l4.7-3.4c0,0-2.7-3.4-1.8-8.4C526.1,376,514.6,381.3,514.6,381.3 M571,244.1
	l-6.3,11.2l1.4,8.6c-28.3,55.6-59.8,106-59.8,106l3.9,9.4l4.6-3.2l3.1,0.3c0,0,30.1-28.8,68.5-103.3c0,0,11.1,0.4,12-8.6
	c0.9-9.1,1.5-15.4,1.5-19.1C586.2,240.4,571,244.1,571,244.1L571,244.1z"/>
<path id="Orange" class="st1" d="M250.7,461c-0.8,0.6-1.4,1.3-2.2,1.9l37.2,59.4l41.3-66c-1.2,0.1-2.4,0.2-3.6,0.3L285.7,517
	L250.7,461z M493.3,185.2L445,262.4c1.6-0.8,3.2-1.5,4.9-2.3l49.5-79.1c-31,6.2-89.7,17.1-145.9,23c0.6,0.9,1.1,1.9,1.7,2.8
	C408.1,201.1,462.8,191.2,493.3,185.2 M232.4,431.7L218.1,409c-1.3-0.3-2.6-0.6-3.9-0.9l14.7,23.4
	C229.9,431.6,231,431.6,232.4,431.7 M364.3,469.4c3.8-5.1,6.4-8.4,7-10.5c-3.4,1.5-7.7,2.3-10,5.8
	C361.2,464.8,363,466.5,364.3,469.4 M383.9,473c0,0,2.5-0.3,4.8-2.6c0,0-2.4-3.7-3.8-7.1C383.2,467.6,383.9,473,383.9,473L383.9,473
	z M372.1,382.9c2,16.2,5.9,23.1,5.9,23.1s6.1,4.8,17.7,9.5C384,393.8,372.1,382.9,372.1,382.9 M244.9,455.2l4.7-2.6
	c0,0,19.2,3.1,134.3-8.8c-2.7-2-4.1-1.6-4.1-6.2c0-1.5,0.2-1.7-2.3-1.7c-2.5,0-3.6-0.7-6.5-0.7c-3.7,0-9.2,3.7-65.6,3.7
	c-44.9,0-76.3-3.8-78.4-3.8c-2,0-6.1,3.8-18.1,13.5C208.9,448.7,232.5,448.4,244.9,455.2L244.9,455.2z M186.2,527.3
	c-17.3-3.3-53,2.7-53,2.7l-9.6,13.8l55.9-2.6L186.2,527.3z M570.8,262c-18.7,33.6-39,78.1-61.3,105.6l6.4-4l1.4-1.4l-1.2,3.8
	l2.7-1.3l-4.1,7.2l3.8-3.1c0,0,19-21.4,67.1-108.3C575.1,258.9,570.8,262,570.8,262 M572.8,249l-3.9,6.2c0,0,9.4-1.8,22-0.7l4.5-6.4
	C581.6,245.4,572.8,249,572.8,249L572.8,249z M513.5,368.2c0,0-1.8,1.4-4.5,2.2l2.3,5l1.4-1.1l-0.6-1.8l2.4-4.6L513.5,368.2z
	 M530.1,381.1c-3.9-2-11.5,1-11.5,1s7.7,1.8,12.1,3.8C530.7,385.9,529.9,384.1,530.1,381.1"/>
<path id="Teal" class="st2" d="M232.4,431.7c2.6,0.2,5.8,0.4,9.5,0.7L228.3,411c-3.2-0.5-6.6-1.3-10.2-2L232.4,431.7z M259.4,460.3
	c-5.1,0.1-7.9,0.1-7.9,0.1c-0.3,0.2-0.5,0.5-0.8,0.7l35,56l37.7-60.3c-3.3,0.3-6.5,0.6-9.7,0.8l-28,44.5L259.4,460.3z M479.5,194.6
	L433.2,268c3.5-1.7,7.5-3.7,11.8-5.7l48.3-77.2c-30.5,6-85.2,15.9-138.1,21.6c1.3,2.1,2.5,4.2,3.8,6.3
	C402.4,208.3,447,200.8,479.5,194.6L479.5,194.6z M251.6,212.4c0-3.4-0.2-6.9-0.5-10.4c-30.1,3.2-48.1,10.3-54.9,13.5
	C206.7,212.6,225.5,211.7,251.6,212.4 M480.4,351.3c0,0-36.6-51.4-107.1-103.3c6,12.4,11.6,25.2,16.6,38.4c0.7,1.9,0.6,3.5-1,3.5
	c-15.4,0-69.9-30-123.4-24.6c27.8,26.5,55.4,63.6,28.6,50.1c0,0,28,17.3,60.8,51.9c24.5,0,29.3,4.1,30.8,7.5
	c2.8,6.6,6.8,18.3,22.9,37.2c7.4,0,8.7-0.5,11.4-7.1c0,0,2,8.4-1.7,14.6c33.4,26.4,98.2,53,108.1,53c4,0-4.2-36.3-23-79.9
	C497.3,364.9,494,357.1,480.4,351.3z M176.1,319.8c0,0,9.6,5.6,25.2,17.5c-3.8-6.7-14-13.9-25.1-20.7l-24.4,1.8l1.8,2.9
	C161,320.9,168.5,320.3,176.1,319.8L176.1,319.8z M319.8,362.6c-3.9,20.9,0.2,37.6,0.2,37.6c-0.7-7,4.8-30.4,4.8-30.4L319.8,362.6z
	 M307.5,350.7c-3.8,24,1.6,43.1,1.6,43.1c-1.2-8.8,3.4-34.7,3.4-34.7L307.5,350.7z M295.4,339.8c-4,25.6,2.2,46.1,2.2,46.1
	c-1.2-11.7,2.8-38.8,2.8-38.8L295.4,339.8z M267.8,297.6c0,0-47.1-39-105.6-48.8c-2.1,0-6.3,8.9-6.3,8.9s6.2-5.6,8.1-5.6
	C214,261.7,267.8,297.6,267.8,297.6"/>
<path id="White" class="st3" d="M402,464.3c6.8-4,11.8-7.9,11.8-7.9c-22.5,1-31-1.8-31-1.8c4-4,9.1-7.5,12.2-10.7
	c-2.4,0.4-4.9,0.6-7.3,0.9c0,1.1-1.2,2.3-4.7,4.4c-6.6,1.1-13.2,2-19.9,2.9c1.8,2,3.8,3.9,6,5.7c1.5-0.5,3.1-1,4.9-1.6
	c0,1.4-0.4,3-0.9,4.6c2.9,1.9,5.9,3.6,9.1,4.9c0.4-2.2,1-4.5,2.4-6.6c1.1,0.3,1.8,3.6,2.4,4.6c1.7,2.4,3.9,2.8,4.3,4.8
	c9.4,2.2,21.4,2.8,37.2,0.8l4.4-3.5C409.8,466.2,402,464.3,402,464.3L402,464.3z M364.6,430.5c-10.1,3.2-14.4,1-14.4,1
	c2-2,3.3-5.8,3.3-5.8c-8.9,2.5-11.7,0-11.7,0c1.4-0.9,2.8-4.3,2.8-4.3c-11.6,0-17.9,1.9-17.9,1.9c9.6,1.2,15.9,5.4,21.3,10.9
	c7.5-0.5,12.2-1.2,15.4-1.7L364.6,430.5z M345.1,424.6c0,0,4.9,0.3,10.6-1.7c0,0,0.3,3.8-2.3,7.2c0,0,4.8,0,14.6-2.3
	c0,0-0.8,2-2,4.2c1.8-0.3,3.1-0.5,4.5-0.5c3.2,0,3.5,0.7,6.3,0.7c5.2,0,5.9,1.1,6.7,7.2c1.1,1.6,2.3,2.6,3.1,3.5
	c3.9-0.3,8.3-0.7,12.8-1.4c0,0-5,6.9-12.5,12c0,0,20.9,2,31.8,0.6c0,0-4.7,5.7-11.1,9c0,0,14.5,0.9,30,0.7c0,0-3,3.4-6.1,5.8
	c0,0,19.2,4.3,32.9,1.1c-49.3-19.6-76.5-49.3-117.7-49.3C346,423.1,345.1,424.6,345.1,424.6 M146.1,513.4L135,527.6
	c0,0,32.6-5.1,52.2-2.1l5.4-9.3C182,510.7,146.1,513.4,146.1,513.4L146.1,513.4z M151.2,507.1l-3.4,4.3c0,0,33.7-2.6,46,3.1l8-12
	C190.8,500.7,151.2,507.1,151.2,507.1 M157,499.9l-3.9,4.8c0,0,40.3-6.3,49.9-4l0.7-1C193.7,496.5,157,499.9,157,499.9L157,499.9z
	 M170.6,484.3l-11.8,13.4c0,0,32.7-3.4,46.1,0.4l13.6-15.7C204.8,480.2,170.6,484.3,170.6,484.3 M188.2,466.7l-15.5,15.4
	c0,0,28.6-3.9,47.4-1.4l7.4-8.2C220.5,466.4,188.2,466.7,188.2,466.7 M191.1,464l-0.8,0.7c0,0,27.9-0.4,38.6,6.3l1.6-1.7
	C221.8,464.4,191.1,464,191.1,464 M206.5,450.7l-13.3,11.4c0,0,31.1,0.6,38.7,5.7l11.4-11.3C233.3,450.8,206.5,450.7,206.5,450.7
	 M188.7,526.8l0.4,2.8l4.4-7.8l-0.4-2.7L188.7,526.8z M194.6,516.6l0.5,2.7l7.5-10.9l-0.5-3.1L194.6,516.6z M203.6,503.1l0.5,3.2
	l0.7-0.9l-0.6-3.2L203.6,503.1z M205.8,500.2l0.6,3.3l12.7-14.3l-0.5-3.9L205.8,500.2z M220.3,483.4l0.6,3.9l7.7-8.2l-1-3.8
	L220.3,483.4z M229.1,473.6l1,3.8l1.5-1.6l-0.5-4.4L229.1,473.6z M232.7,469.8l0.5,4.4l10.1-9.9l-0.1-5.1L232.7,469.8z"/>
</svg>
