<?xml version="1.0" encoding="utf-8"?>
<svg version="1.1" id="Layer_1" xmlns="http://www.w3.org/2000/svg" xmlns:xlink="http://www.w3.org/1999/xlink" x="0px" y="0px"
	 viewBox="0 0 600 600" style="enable-background:new 0 0 600 600;" xml:space="preserve">
<style type="text/css">
	.st0{fill:#041E42;}
	.st1{fill:#FFFFFF;}
	.st2{fill:#C8102E;}
</style>
<path id="Blue" class="st0" d="M380.7,267l-26,70l-24.4-58c0,0,7.1-5.5,16.4,5.1c0,0,8.4-12.2,8.4-23.4c0-20.1-20.1-21.8-20.1-21.8
	s-6.5-11.5-34.9-11.5c-23.3,0-31.3,7.8-34.3,19.6L244,333.5L219.4,267C192.8,195.5,42.5,183.9,8.3,76.3
	c-36.9,86.9,61.5,164,61.5,164c-54-36.2-60-63.1-60-63.1c-14.3,61.4,27.8,109.3,27.8,109.3C27,371.8,132.6,422.9,162.3,446.7
	c29.7,23.8,61.7,76.9,61.7,76.9c2.7-8.9,8.2-13.3,11.1-15.1c3.5-22.6,19-58.8,47.6-68.2c0.5-2.7,2.2-6.8,6.5-9.9l10.7-72.5
	l10.7,72.5c4.4,3.1,6,7.2,6.5,9.9c28.7,9.4,44.2,45.6,47.6,68.2c2.9,1.8,8.5,6.2,11.1,15.1c0,0,31.9-53.1,61.7-76.9
	c29.7-23.8,135.3-74.9,124.8-160.3c0,0,42-47.9,27.8-109.3c0,0-6,26.9-60,63.1c0,0,98.4-77.1,61.5-164
	C557.5,183.9,407.2,195.5,380.7,267L380.7,267z"/>
<path id="White" class="st1" d="M344.3,273.2C344.3,273.2,344.4,273.2,344.3,273.2C344.4,273.2,344.4,273.2,344.3,273.2L344.3,273.2
	z M356.8,368.3l-59.5-78l-53.1,78l30.1-119.8c1.1-4.2,3.3-12,25.6-12c22.4,0,29,6.9,29,10.9c0,0,17.2-1.3,17.2,14.2
	c0,4.6-1.8,11.3-1.9,11.6c-9.6-10.8-25.3,1.4-25.3,1.4L356.8,368.3z M318,252C318,252,318,252,318,252c-13.5-6.3-25.3-3.9-25.3-3.9
	l0.1,0c-0.1,0-0.1,0-0.1,0l12.6,2.8C305.4,250.9,309.5,259.3,318,252C318,252,318,252,318,252z"/>
<path id="Red" class="st2" d="M8.4,107.2c1.9,61.5,41.3,103.8,83.3,136.3l-34.8-85.5C33.8,142.3,15.8,125.6,8.4,107.2L8.4,107.2z
	 M84.5,243.4l9.1,22.3c-35.5-20.5-68.1-42.4-78.2-67.4c2.4,79,72.3,124,121.7,158l-29.8-73.1c52.8,29.7,106,58,126.2,88.2
	C202.9,320.7,159.6,296.8,84.5,243.4L84.5,243.4z M45,298.1c2.5,78.6,97.2,113.3,126.5,142.5l-20.7-50.9
	c24.8,14.6,47.4,29.1,63.5,43.9C156.4,353.7,66.4,345.1,45,298.1z M543.2,158.1l-34.8,85.5c42.1-32.5,81.5-74.8,83.3-136.3
	C584.3,125.6,566.3,142.3,543.2,158.1L543.2,158.1z M366.5,371.4c20.2-30.2,73.4-58.4,126.2-88.2l-29.8,73.1
	c49.4-34.1,119.3-79,121.7-158c-10,25.1-42.6,46.8-78.2,67.4l9.1-22.3C440.5,296.7,397.2,320.6,366.5,371.4L366.5,371.4z
	 M555.1,298.1c-21.4,47-111.4,55.5-169.3,135.5c16.2-14.8,38.7-29.3,63.5-43.9l-20.7,50.9C457.9,411.4,552.6,376.8,555.1,298.1z"/>
</svg>
