<svg version="1.1" id="Layer_1" xmlns="http://www.w3.org/2000/svg" xmlns:xlink="http://www.w3.org/1999/xlink" x="0px" y="0px"
	 viewBox="0 0 600 600" style="enable-background:new 0 0 600 600;" xml:space="preserve">
<style type="text/css">
	.st0{fill:#FFFFFF;}
	.st1{fill:#97233F;}
	.st2{fill:#FFB612;}
</style>
<path id="Outline" class="st0" d="M0,20.2l5.3,28.9c2.5,13.9,8.5,32.3,17.1,49.9L7,94l13.1,27.7c6.5,13.7,14.7,27.1,23.2,39
	l-4.7-1.5l10.5,25.9c22,54.1,61,89.5,74.2,100.4c7.7,53.2,33.4,83.2,54.2,107.4c16.3,19.1,29.2,34.1,31.3,55.8l1,10.2l10.1,1.6
	c85,13.2,177.7,106.2,178.7,107.1l12.1,12.2l8.6-14.8c35.4-60.9,85.3-91.8,148.2-91.8c5.9,0,12.1,0.3,18.2,0.8l14,1.2l0.3-14.1
	c0.6-31.2-9.2-63.6-28.4-93.5c-10.3-16-20.7-27.4-26-32.8c-3.1-21.4-9-48.7-24.9-76.8c-19-33.6-48.9-61.9-88.9-84
	c-57.4-31.7-104.2-38.9-153.7-46.5c-64.5-9.9-137.5-21.2-253.1-92L0,20.2L0,20.2z"/>
<path id="Black" d="M586.8,460.9c1.3-70-53.7-119.7-53.7-119.7c-5.9-44.3-22-108.3-107.7-155.5C295.3,113.9,223.3,172.5,18.2,46.8
	c4.3,23.5,17.8,56,35,76.2L32,116c15.4,32.5,40.1,62,53,71.5l-23.8-7.5c25.2,61.8,74.4,98.4,74.4,98.4
	c11.2,94.6,80.6,110.7,86.2,168.9c90.4,14,186,110.8,186,110.8C457.9,472.3,527.7,455.6,586.8,460.9z"/>
<path id="Red" class="st1" d="M414.6,197.4c-94.3-51.7-209.5-18.1-356.7-109.3c14.6,43.6,105.7,94.6,105.7,94.6L83,156.5
	c20.5,35.6,104.6,80.3,104.6,80.3l-75.2-24.3c31.1,51.7,101.8,86.6,101.8,86.6l-43.4-3.1c5.6,48.6,72.8,90.5,76.4,128.1
	c30.4,11.6,69.6,31.9,100.1,58.1c58.4-28.7,42.3-125.8-69-263.5c153.1,9.2,148.9,122.7,236.7,106.4
	C508.5,294.7,504.3,246.7,414.6,197.4"/>
<path id="White" class="st0" d="M471,339.1c-19.7,31.7-52.9,22.8-64.8-16.6l24,1.5c-21-12.6-40.1-31.1-54.9-49.3
	c-4.3,87.2,77.7,126.3,104.8,65.1C477.2,339.7,474.1,339.5,471,339.1"/>
<path id="Yellow" class="st2" d="M515.4,350.1c-10.9,22.3-37.4,36.6-60.7,43c54.8,6.6,99.8,28.3,121.2,49.7
	C570.9,406.8,538.6,364.8,515.4,350.1z M460.3,413.4c-3,0.1-6,0.3-9,0.6c0,0,16.4,27.9,7.4,58.6c35.6-20,81.5-29.7,115-22.9
	C553.5,432.7,505.7,412,460.3,413.4L460.3,413.4z"/>
</svg>
