<svg version="1.1" id="Layer_1" xmlns="http://www.w3.org/2000/svg" xmlns:xlink="http://www.w3.org/1999/xlink" x="0px" y="0px"
	 viewBox="0 0 600 600" style="enable-background:new 0 0 600 600;" xml:space="preserve">
<style type="text/css">
	.st0{fill:#FFFFFF;}
	.st1{fill:#FB4F14;}
</style>
<path id="White_Outline" class="st0" d="M538.4,293.1c-3.2-1.6-2.8-4.5-0.5-6.2c26.9-20,45.3-45.7,45.3-85.2
	c0-46.8-33.6-112.6-164.6-112.6H80.6L4.2,222.5h56.1c6.3,0,11.3,5.1,11.3,11.3v133c0,6.3-5.1,11.3-11.3,11.3H0l77.3,132.8l357.7,0
	c115.2,0,165-60.1,165-124.7c0-42.7-30.4-77.5-61.3-93.1"/>
<path id="Orange_B" class="st1" d="M338.8,271.3h-55.5V218c0.1-5.6,4.6-10.1,10.2-10.1h45.3c26.7,0,36.4,13.6,36.4,31.2
	C375.1,257.8,365.2,271.3,338.8,271.3L338.8,271.3z M338.8,394.2h-45.3c-5.6,0-10.2-4.6-10.2-10.2v-53.4h55.5
	c26.7,0,36.4,13,36.4,31.2C375.3,380.7,365.4,394.2,338.8,394.2L338.8,394.2z M497.3,297c-4.1-1-3.4-5.9-0.4-7.1
	c36.6-13.9,58.1-38.5,58.1-82c0.5-58.3-51-98.4-134.8-98.4H102l-55.7,98.4h38.3c7.6,0,13.7,6.1,13.7,13.7v158.9
	c0,7.6-6.1,13.7-13.7,13.7H46.7l56.1,98l332,0c94.9,0,133.8-63,133.8-109.3c0-40.7-30-75.9-71.7-86"/>
<path id="Black_Stripes" d="M401.5,465c-16.4-116.6,20.3-244.2,87.7-344.2c42.1,15.8,66.2,47.2,65.8,87.2c0,1.6,0,3.1-0.1,4.7
	C473.7,277.8,421.6,367.7,401.5,465z M289.8,492.3l41.6,0c-5.9-32.8-8.8-65.5-9.2-97.4l0-0.7h-28.7c-5.6,0-10.2-4.6-10.2-10.2v-53.4
	h41.2c1.7-20.1,4.2-39.7,7.3-58.6c0,0,0-0.3,0.1-0.8h-48.7V218c0.1-5.6,4.6-10.1,10.2-10.1h45.3c2.2,0,4.4,0.1,6.4,0.3
	c9.3-37.3,20.6-71.1,31.1-98.6H256.9C212.4,281,257.2,413.4,289.8,492.3z M209.8,464c-58.4-110.4-73.7-236.3-51.9-354.5H102
	l-55.7,98.4h38.3c7.6,0,13.7,6.1,13.7,13.7v121l0.2,0.7C127.2,389.6,168.3,434,209.8,464z M210.3,464.3c-0.1-0.1-0.3-0.2-0.4-0.3
	c0.2,0.3,0.4,0.7,0.5,1L210.3,464.3z"/>
</svg>
