<svg version="1.1" id="Layer_1" xmlns="http://www.w3.org/2000/svg" xmlns:xlink="http://www.w3.org/1999/xlink" x="0px" y="0px"
	 viewBox="0 0 600 600" style="enable-background:new 0 0 600 600;" xml:space="preserve">
<style type="text/css">
	.st0{fill:#311D00;}
	.st1{fill:#FF3C00;}
	.st2{fill:#FFFFFF;}
</style>
<path id="Brown" class="st0" d="M438.2,187.9C311.1-38.5-79.6,87.1,14.5,387c5.9,18.7,13.5,36.9,22.6,54.3c0,0,0,0,0,0
	c-1.2,4.8-1.2,9.8-0.1,14.5c2.6,9.6,4.7,15.5,12.4,32.5c-3.1,11.5,7.7,28.5,33.8,23.4c30.5-4.3,44.2-14.7,45.5-15.7
	c0.1-0.1,0.3-0.2,0.3-0.2c-0.8-0.8-5.2-10.8,4.9-3.7c1.3,0.9,2.5,1.9,3.7,2.8c55.2,43,145.4,46.4,178.7-4.5c0,0,0,0,0,0
	c13.3,2.7,29.9,0.5,29.9,0.5c17.4-1.1,31.3-5.8,42.2-13c13.4,21,34.3,36,61.1,43.1c27.8,7.3,59.3,6.6,89.7-2.3
	c3,1.4,6.6,1.2,9.5-0.5c0.6-0.4,1.2-0.8,1.8-1.3c0,0,0,0,0,0c32.9-7.5,38.4-10.2,40.5-12c0.7-0.4,1.4-0.9,2-1.4
	c7.5-5.8,7.1-18.6,7.1-19.2c-2.8-37.6-11.2-75.1-25.5-114.9v0l-1.7-4.1c-3.6-9.4-10.1-11.1-20.4-9.8l-8.9,1
	c-17.9,1.6-46.8,4.5-70.9,0.5l0,0l-32.8-78.5c0.1,0,0.2,0,0.3,0c7.6-1.1,14.2-5.8,17.9-12.6c2.2-4,2.8-9.4,2.8-13.9
	c-0.2-0.3,3.3-1.7,4.2-2.2c2.9,1.2,6.1,1.6,9.2,1.2c6.5-0.3,12.2-4.5,14.3-10.6c0.1-0.3,2.1-6.3-3.3-15.3L460.5,180l-1.3,0.5
	l-18,7.6L438.2,187.9z M539.5,411c-3.1-10.4-6.7-20.6-10.9-30.6h0c17.3-3.2,24.5-5.3,26.4-6c2.9,7.4,5.4,14.9,7.4,22.6L565,407
	C556.6,408.9,548.1,410.3,539.5,411z M546,436c7.6-1.4,21.7-4.9,26.8-6.2l0,0l0.4,2.2c2.6,14.3,6.6,35.8,8.1,49
	c0.1,1.1,0,2.2-0.2,3.2c0,0,0,0,0,0c-1.6-0.3-3.2-0.5-4.9-0.7c-8.1-1.3-16-3.6-23.5-6.8C551.3,463.1,549,449.5,546,436L546,436z
	 M553.8,497.6c0-0.5,0-1,0-1.5c0,0,0,0,0,0c1.1,0.3,2.3,0.7,3.4,1C556.2,497.3,555,497.4,553.8,497.6z M415.4,378.2
	c-0.9-3.7-1.9-7.5-3.1-11.2c-2.2-9.6-3.3-19.4-3.3-29.2l0,0c13.2,16.2,30.7,28.4,50.4,35.1C445.4,374.8,430.2,376.7,415.4,378.2z
	 M423,286.7c2.1,4.9,13.8,32.7,26.7,63.1h0c-1.4-0.7-2.8-1.5-4-2.5c-6.4-4-21.8-15.8-34.3-33.9v0c0,0,0,0,0,0
	c2-9.7,5.4-18.8,11.1-25.9C422.6,287.2,422.8,287,423,286.7L423,286.7z M507,362.1c-1.8,0.2-3.3,1.6-3.5,3.5v0
	c-7.8,2-25.5,3.9-25.5,3.9l-3.7-8.5C485.2,362.6,496.2,362.9,507,362.1z M510.6,442.8c5.3-1.1,10.4-2.1,15-3.2
	c1.2-0.3,1.7,0,1.8,0.1c0.7,0.7,1.1,1.7,1.2,2.7v0.2l0.1,0.2c1.9,7.4,3.3,15,4.1,22.6C524.1,459.2,516.6,451.5,510.6,442.8z
	 M534.9,488.6c0.3,4.6,0.5,7.6,0.5,7.7c0.2,2.1-0.7,4.1-2.5,5.3c-48.4,13.1-104.8,6.2-130.2-36.6l0,0c1.8-2.3,3.5-4.6,5-7.1
	c26.1-2.8,57.2-7,84-11.6C503,464.9,518.3,479.6,534.9,488.6z M492.6,412.6C492.6,412.6,492.6,412.6,492.6,412.6 M485.3,387.4
	c7.7-1.3,14.7-2.6,20.6-3.9c0,0,2.6-0.5,3.5,0.2c1.4,1.1,1.5,1.9,1.5,1.9c2.5,6.2,7,19.7,9.3,26.7c-9.2,0.4-17.7,0.4-24.4,0.3l0,0
	c0,0,0,0,0,0L485.3,387.4z M466.8,390.3c3.2,7.5,6.2,14.6,8.8,20.8l-56.5-9.9c-0.1-1.6-0.3-3.3-0.5-4.9
	C434.5,394.5,451.3,392.5,466.8,390.3z M479.5,411.8L479.5,411.8 M419.2,418.5l61.4,10.3c-20.4,3.5-41.7,6.7-64.5,9.1
	C417.8,431.6,418.8,425.1,419.2,418.5z"/>
<path id="Orange" class="st1" d="M332.4,265c-6.3,2.5-12.2,5.6-17.7,9.5c1.6,3.5,3.6,7.6,5.8,12.3c3.8-3.7,8-6.9,12.5-9.8
	c0.7-0.6,4.1-2.7,4.1-2.7h0c13.2-7.1,24.4-11,42.2-13.7c-0.1,0,5.2-0.7,5.2-0.7c3.6-0.5,10.4-1.9,12.3-5.5c1.1-2.5,1.6-5.2,1.3-7.9
	C375.8,251.2,352.5,256.8,332.4,265z M162.2,87.1c30.8-5.4,62.5-4.3,92.8,3.4c61.7,15.8,108.2,56.9,131.9,97.1l0.1,0
	c-1,0.6-1.9,1.4-2.7,2.4c-3.4,5.4,0.9,14.3,1.2,15.1c0,0,6.3,18.2,8.3,23.9c-28.4,5.7-56.2,13.2-71.8,19.7c-7.2,2.7-13.9,6.4-20,11
	l0,0c-0.2,0.2-0.4,0.4-0.4,0.6c-2.4,0.7-4.5,2.2-6,4.2c-1.9,1.4-3.6,2.9-5.3,4.6c-3.3,3.8-6.1,7.1-9.8,12.2
	c-3.2,4.8-14.7,23-25,39.6c-0.9,0.4-1.8,0.8-2.5,1.4c-2.9,2.3-4.4,6-3.8,9.6c-8.4,13.6-13.3,21.5-15.3,24.6
	c-2.9,0.3-5.5,1.9-7.1,4.3c-2,4-10.8,18.4-12.3,20c-1.9,2.6-2.7,5.9-2.1,9l-0.8,1.6c0,0-19.2,28.7-19.2,28.6c-1.6,2.1-1.9,5-0.7,7.4
	c1.9,3.6,5.6,5.9,9.6,6.1c2,0.2,4-0.4,5.7-1.5c7.1,1.2,61.9,10.5,102.3,17.3c-5.1,43-50.9,63.6-91.2,59.8
	c-22.2-0.9-48.3-10.2-67-19.8c-9.1-5.2-30.9-16.6-39.6-17.1c10,2.2,30.9,13.9,38.3,18.9c16.1,8.8,43,21,68.3,22
	c60.4,3.8,94.2-28.9,96.2-62.9c2.8,0.5,5.5,0.9,8.1,1.4c0.4,8-0.7,15.9-3.2,23.5c-0.3,0.9-0.6,1.8-1,2.7c0,0.1,0,0.1-0.1,0.2
	c-13,29.5-41.4,43.2-73,45.7c-36.4,2.7-77.1-9.6-103.5-30.2c-19.9-15.5-34.3-16-54.9-9.4c-21.6,6.9-22-6.3-22-6.3
	c-19.2-27.3-36.8-56.4-51.9-111.3C-23.6,221.9,57.9,120.4,162.2,87.1z M248.6,463.9c0.4,1,1,1.8,1.8,2.5c3.1,2.9,8,2.7,10.8-0.5
	c4.4-1.9,7.3-6.2,7.3-11c0-6.6-5.4-12-12-12h0c-3.5,0-6.8,1.5-9.1,4.1C243.1,451.9,243.6,459.5,248.6,463.9z M162.4,464.6
	c-4-5.6-10.9-7.6-15.4-4.4c-3,2.1-4.2,6.3-3.6,10.6c-1.4,2.6-0.7,6.5,2.1,9.4c2.9,3.1,7,3.9,9.7,2.4c2.4,0.3,4.8-0.3,6.7-1.8v0
	C166.2,477.3,166.4,470.2,162.4,464.6z M156.6,415.5c5.3,5.7,12.6,9,20.4,9.2c2.6,0,5.3-0.4,7.8-1.2v0l16.4-24.1
	c-0.2-7.7-3.3-15-8.6-20.5c-5.3-5.7-12.6-9-20.4-9.2c-6.4-0.1-12.6,2.4-17.1,7C145.1,386.7,145.8,404.1,156.6,415.5z M138.3,440.6
	c22.7,29.1,62.7,29.3,82.9,7.9C212.6,452.7,176.7,476.3,138.3,440.6z M319.9,432.7c-0.8-3.9-1.6-7.4-2.3-10.4
	c-1.3-6.2-6.8-19.4-11.7-35.4c-7.9-4.7-15.1-10.5-21.3-17.3c-0.1-0.1-12-11.4-22.3-21.7c-5.3,8.5-8.7,14-10.8,17.4l23,15.1h0
	c4.9,3.2,10.5,7.1,10.7,14.3c0.2,7.4-6.2,16-8.3,18.8c-2.7,3.6-11.2,13.7-22.3,6.7c0,0-16-9.9-27.3-16.7l-8.1,11.9
	c14.9,2.6,55.4,9.5,89.7,15.4c-1.9-14.3-6.6-27.4-9.5-38.8c5.9,12.6,10.3,25.8,13,39.4C314.9,431.8,317.4,432.2,319.9,432.7z
	 M293,298.1c0,0-9.9,15.8-20.4,32.8h0c7.4,8,18.2,19.8,26.8,28.3c-1.9-12-2.3-24.4,0.2-35.9c1.5-6.7,3.9-13.2,7.3-19.2l-7.4-16
	C297.8,290.7,295.3,294.4,293,298.1z"/>
<path id="White" class="st2" d="M153.1,465.9c-1.8-0.6-2.3,1.8-0.9,2c2.1,0.8,3.8,2.3,4.8,4.2c0.7,1.5,2.4,0.2,0.8-2.5
	C156.6,468,155,466.7,153.1,465.9z M145.3,467.4c6.2-9.7,21.8,2.5,13.8,12.9C171.2,471.4,150.4,451.7,145.3,467.4z M154.3,471.7
	c-2.8-3-6.9-3.7-9.1-1.6s-1.7,6.2,1.1,9.2c2.8,3,6.9,3.6,9.1,1.6C157.6,478.7,157.1,474.6,154.3,471.7L154.3,471.7z M154.2,480.2
	c-1.8,1.4-4.9,0.3-7.2-1.9c-2.5-2.2-2.7-5.7-1-7.3c1.9-1.8,5.2-0.7,7.3,1.6C154.9,474.5,156.3,478.6,154.2,480.2L154.2,480.2z
	 M148.1,473c-0.2-1.3-1.2,0.1-1.2,0.1c-1.4,2,2,6.6,5.7,6.3c1.1-0.2,1-1,0.4-1.2C150.6,477.4,148.7,475.5,148.1,473L148.1,473z
	 M251.5,451c-1.4,1.4-0.3,2.3,0.8,1.7c2.8-1.4,6.1-1,8.4,1.1c0.9,1.4,2.2,0.2,1-1.6c-2.3-3.1-6.8-3.8-9.9-1.4
	C251.7,450.8,251.6,450.9,251.5,451z M256.7,447.6c7.5,0.3,9.8,8.1,7,14.2c3.8-3.9,3.8-10.1-0.1-13.9c-1.8-1.8-4.2-2.8-6.7-2.9
	c-10.9,0-11.8,11.7-9.2,14.2C246.3,455.1,248.9,447.3,256.7,447.6L256.7,447.6z M262.1,460.4c0-3.6-3-6.5-6.6-6.5s-6.5,3-6.5,6.6
	c0,3.6,3,6.5,6.5,6.5C259.2,467,262.1,464,262.1,460.4C262.1,460.4,262.1,460.4,262.1,460.4z M250.3,460.4c0-2.9,2.3-5.2,5.2-5.2
	c2.9,0,5.2,2.3,5.2,5.2c0,2.9-2.3,5.2-5.2,5.2C252.6,465.6,250.3,463.2,250.3,460.4L250.3,460.4z M259.4,461.7c0,0,0-1.2-0.6-0.3
	c-1.2,1.8-5.2,1.6-6.6-0.7c-0.2-0.5-0.4-0.8-0.6-0.2C251.3,463.5,257,466.6,259.4,461.7L259.4,461.7z M423.3,183.6
	c-2.7-1.1-9.3-0.5-7.6,7.1c0.1,0.6,0.3,1.2,0.6,1.8l1.3,3.3l5.1,12.4l0.2,0.4l8.5,19.8c0.9,2.3,1.5,4.7,2,7.2h14.5
	c0,0-0.3-3.7-3.6-12c-2.5-6.3-10.9-25.6-12.7-29.6C429.6,189.5,427,185.1,423.3,183.6L423.3,183.6z M429.9,201.4
	c2.3,2.3,4.7,4.3,5.9,9.6c1.4,6-3.5,8.9-7.9,3.9c-1.6-1.9-2.7-4.1-3.2-6.5l-0.1-0.4c-0.5-1.9-0.7-3.8-0.6-5.8c-2.2-2-3.9-4.3-5.1-7
	c-0.3-0.7-0.6-1.5-0.6-1.5c-1.8-6.5,2-7.4,2-7.4C424.5,185.1,430.3,192,429.9,201.4L429.9,201.4z M419.7,190
	c0.1,3.4,2.9,8.8,5.1,10.2C426.4,197.6,424.9,190.1,419.7,190z M426,204.6c0.1,3.6,1.6,7.1,4.2,9.6c1.8-3.1,0.7-7.1-2.4-8.9
	C427.3,205,426.6,204.7,426,204.6z M586.4,489.2c0,0,3.1,9.2-30.5,13.5c0,0,20-2.8,25.5-9.6c0,0,5.2-4.4-5.4-6.8
	c-10.4-2.3-12-1.1-22-5.4c0,0,0.6,9.8,0.4,12.2c3.3,1,6.8,1.6,10.2,1.7c0,0,0.2-3-8.3-5.7c0,0,36.6,3.5-1.9,11.8
	c0.1,4.2-0.2,8.3-0.9,12.4c0,0,20-5.2,26.1-7C586.6,504.4,600.1,498.1,586.4,489.2L586.4,489.2z M507.3,443.9c0,0-9.4,1.8-11.8,2.2
	c0,0,15.4,26.5,39.1,38.7c0,0,0.1,0,0.1,0.1c0,0-0.7-10.9-1.1-14.8c0,0-0.3-0.2-0.4-0.3C523.1,462.7,514.4,453.9,507.3,443.9
	L507.3,443.9z M579.9,411.3c4.3,6.2,2.6,15.6-3.9,17.7c0,0,6.4,32.2,8.1,49.9c0.1,2,0.2,4,0.1,6c7,1.4,11,6.3,11,8.9
	c3.4-20.3-8.5-79.1-23.8-122c-4.2-15.8-13.4-13.9-13.4-13.9c5,1.5,7.7,9.9,0.3,15.4c4.1,10.6,7.3,21.4,9.8,32.4
	c0.4,0,0.8,0.2,1.2,0.2C573.6,406,577.5,408,579.9,411.3L579.9,411.3z M515.8,361.2c1.8,0.1,3.4,0.8,4.8,1.9c0,0,14.3-2.1,18.5-3.3
	C539,359.9,521.4,361.7,515.8,361.2L515.8,361.2z M501.4,424.9l16.8-3.5c0,0,4.6,0.3,2.8-5.6c0,0-9.2,0.1-23.7-0.1L501.4,424.9
	L501.4,424.9z M419.6,404.3c0.2,3.8,0.1,7.6-0.3,11.3l62.5,10.4c0,0-3.5-8-4.6-11.2L419.6,404.3z M486.4,427.6c0,0,9.8-1.3,11.8-2.2
	c0,0-2.3-5.2-5.6-12.8c-2.9-6.9-6.7-15.8-10.2-24.7c-0.1-0.1-0.1-0.3-0.2-0.4c0,0-10.2,1.5-12.2,1.8c0,0,0.1,0.2,0.2,0.5
	c1,2.4,5.3,12.7,9.2,22C482.6,419.2,485.5,425.9,486.4,427.6L486.4,427.6z M523.2,366.5c2.7,5.3,3.8,8.6,4.7,10.6
	c-0.4,0.2,4.1-0.7,8.5-1.5c6.2-1.2,10.6-2.3,14.5-3.3c1.8-0.4,3.6-1,5.3-1.8c0.6-0.2,1.2-0.5,1.7-1c1.3-1.2,1.8-3,1.4-4.8
	c-0.2-2.6-2.3-4.7-4.9-4.9c0,0-0.9,0.1-2.1,0.3c-1.4,0.2-2.9,0.5-4.3,0.9C540.4,363,531.6,364.9,523.2,366.5L523.2,366.5z
	 M542.2,417.8c4.6-0.4,24.4-5.4,24.4-5.4c3.8-0.1,3.9,2.5,3.9,2.5c-7.6,2.8-27.2,6.9-27.2,6.9c0.9,3.7,2.8,10.9,2.8,10.9
	c23.1-4.1,28.1-6.7,28.1-6.7c6.8-2.8,4.1-10.7,4.1-10.7c-2.6-9.1-14.6-5-14.6-5c-5.7,1.3-22.7,4.6-22.7,4.6L542.2,417.8L542.2,417.8
	z M326.5,433.8c21,3.6,36.5,6.3,36.5,6.3c2.4,0.4,4.6,0.6,6.6,0.8l-17.9-39.1C346.8,414,337.9,426.8,326.5,433.8z M390.2,440.3
	c6-0.4,11.8-0.9,17.6-1.5c4-13.1,4.6-27.7,2.9-41.8c-13.4,1.3-25.9,2.4-36,3c0,0-0.8,0-2-0.1c7.6,17.2,13.8,31.7,17.4,40.3
	C390.1,440.4,390.1,440.4,390.2,440.3L390.2,440.3z M320.2,483.5l2,0.3c28.2,2.3,48.3-2.7,62.2-12.2c-1.8-3.3-3.4-6.8-4.8-10.3
	l-0.8-1.1c-0.2,0-0.5,0-0.7,0c-8.5-0.6-16.9-1.6-25.3-3.1c0,0-10.7-1.8-26.2-4.4C326.9,463.2,324.6,473.8,320.2,483.5L320.2,483.5z
	 M386.3,440.3l-17.7-40c0,0-7.6-1.4-11.5,4.7c11.4,24.8,13.9,30.9,16.1,35.7C377.6,441.2,382,441,386.3,440.3L386.3,440.3z
	 M215.1,421.2c-0.6,2.1-0.7,4.3-0.2,6.3c0.4,1.5,1.4,2.7,2.7,3.3c0.1,0,138.2,22.7,138.2,22.7c10.3,2,20.8,2.8,31.2,2.5l4.2-0.1
	c2.8-0.1,5.6-0.3,8.3-0.7c39.2-4,88.8-10.3,120.8-17.9c0,0,6.3-0.4,6.9-5.3c0.1-1.1,1.1,4.9,1.1,4.9c2.2,0.7,3.4,4.3,3.5,5
	c5.7,20.6,6.3,51.1,6.4,52.5c0,0-0.1,10-1.6,13.1c-1.8-2.6-5.4-1.9-5.4-1.9c-52,13.3-112.1,4.5-135.6-45.9c0,0-7.3,0.1-11,5.1
	c15.2,33.6,42.5,46.9,65.5,53c25.5,6.7,55.6,6.3,83.9-1c4.6-1.5,3.5-4.4,3.5-4.4c4.1,6.5,9.3,2.8,9.3,2.8c2-1.1,3.2-3.3,3.2-5.5
	c2.9-46.2-13.9-110-32.2-143.7c-2.3-1.9-5.5-2.3-8.1-1.1c-1.1,0.5-2,1.2-2.8,2.1l-0.1,1.1l0.9,3.8c0,0-3-3-6.3-2.6
	c-27.2,4.8-93.2,14.7-135.4,15.3c-0.6,0-14-0.1-23.2-1.3c-18.2-2.3-29-7.4-42.1-17.5c-11.5-12-33.9-35.6-38.1-41.2
	c-2-2.3-5.9-1-7.6,0.4c-2.9,2.1-3.5,6.1-1.4,9c0,0,0,0,0,0c9.5,10.4,33,32.8,33.2,33c21.3,23.1,43.2,27.6,62.5,28.6
	c11.4,0.8,26.4,0.9,26.6,0.9c35.4-2.1,93.6-9.3,128.3-16.3c2.3-0.6,4.1-2.6,4.4-5c0.5,1.4,0.7,3,0.4,4.5c3.3,0.7,5.1,4.5,5.2,4.9
	l-0.1-0.2c3.4,8.6,10.3,30.3,10.4,30.6c0,0,2.6,10.7,1.5,12.5c0,0-1.9-2.9-4.8-2.5l-0.1,0l-0.1,0l-7.8,1.4
	c-37.8,6.8-77,13.9-122.7,17.1c-0.3,0.1-12,2-33.4-1.2c0,0-130.7-22.4-140.2-24.1c-0.4-0.1-0.6-0.1-0.6-0.1
	C216.3,418.3,215.6,419.6,215.1,421.2L215.1,421.2z M314.7,391.3c-1.2-0.5-2.5-1.1-3.7-1.7c4.6,14,9.6,26.4,11.7,35.5
	C321,414.5,317.8,403.1,314.7,391.3L314.7,391.3z M280.1,400.6c0,0,4.9-8.2-4.2-15c-5-3.8-16.6-11.4-25.5-17.1l-2.1,2
	c0,0,19.6,13,24.6,16.4C278.8,390.7,281,395.6,280.1,400.6z M233,370.8c8.4,5.3,36,21.5,36,21.5s7.4,4.7,7.8,10.7
	c2.2-6.4-1.5-11.1-5.4-13.9L245.8,372c-4.8,1.3-14.9-4-14.5-10.6C228.7,363.6,228.2,367.8,233,370.8L233,370.8z M213.7,394.1
	L195.4,422c-0.9,1.1-1.1,2.7-0.5,4c1.4,2.4,3.9,4,6.7,4.1c1.9,0.2,3.7-0.6,4.8-2.1c0,0,13.8-20.4,17.6-26.1
	C224,401.8,214.9,396.3,213.7,394.1L213.7,394.1z M235.7,360.2l-0.1,0.1c-1.6,1.9,1.1,4.8,1.7,5.3c2.5,2.4,6.4,3.9,8.3,2.4l1.9-3
	l12.1-19.2c-3.3-3-6.3-6.3-9.1-9.8c-9.1,14.8-12.9,21-14.2,23.1c-0.3,0.6-0.5,0.9-0.6,1L235.7,360.2L235.7,360.2z M343.1,275.8
	c-4.8,2.2-9.3,5-13.3,8.4c-2.6,2-5.2,4.3-7.5,6.6c0.2,0.5,0.5,1.1,0.7,1.6C329,286,335.7,280.4,343.1,275.8L343.1,275.8z
	 M353.5,357.9c3.7,8,7.3,16,10.8,23.7h1.8c11.3-0.1,25.8-1.1,41.3-2.5c-1.7-6.9-4-13.7-6.7-20.3
	C387.9,328.8,354.5,340.3,353.5,357.9L353.5,357.9z M304,363.7c1.7,1.5,3.4,2.9,5.1,4.2c-3.6-18.3-4.6-36.9,1.9-54.7l-2-4.3
	C300.3,326.2,300.5,345.4,304,363.7L304,363.7z M260.1,320.1c2.4-0.2,5.1,2.1,5.1,2.1l5.2,5.7l19.5-31.8c2.9-4.6,7.2-10.2,8-11.3
	c0.1-0.2,0.2-0.2,0.1-0.2c0,0-2.4-5-3.7-7.7c-0.2-0.4-0.4-0.9-0.6-1.2c-0.1-0.1-0.1-0.2-0.1-0.3c-0.1-0.3-0.3-0.7-0.4-1.1
	c-0.4-1.3-0.4-2.7,0-4.1c0.1-0.1,0.1-0.1,0,0c-3.6,4.1-7,8.4-10,12.9C280.1,288.2,270.7,303,260.1,320.1L260.1,320.1z M360.4,381.1
	L306,264.2c-0.4-0.6-1.1-0.9-1.9-0.8c-2.6,0.2-5,1.6-6.4,3.9c-1.4,1.9-1.8,4.4-0.9,6.7c0,0.1,27.2,56.9,49.8,106.3
	C351.2,381,355.8,381.3,360.4,381.1L360.4,381.1z M417.1,286.3c-18.2,2.2-23.3,47.9-13,59.3C400.3,328.1,404.3,295.6,417.1,286.3z
	 M474.4,361l3.7,8.5c0,0,17.6-1.9,25.5-3.9c0.2-1.8,1.6-3.3,3.5-3.5C496.2,363,485.2,362.6,474.4,361L474.4,361z M410.3,317.8
	c-0.9,4.8-1.4,9.7-1.4,14.6c0,0,20.2,26.9,48.7,36.2h0l-5.9-14.4c-0.1,0-0.2-0.1-0.3-0.1C448.9,353,428.7,343.1,410.3,317.8
	L410.3,317.8z M425.4,283.6l37.7,88.3c0,0,6.4-0.7,11.8-1.7c0,0-36.4-86.2-38.8-91.2C436.1,279,429.5,279.2,425.4,283.6L425.4,283.6
	z M416.4,239.2l2.1-0.4c4.5-0.7,5.7-3.5,5.4-5.8c-0.8-3.2-3.9-5.2-7.1-4.7c-34.6,5.6-74.6,15.9-93.9,24c-5.6,2.1-10.9,4.8-16,8
	c1.2,0.7,2,0.6,3.2,3.6c0.7,1.7,3.3,7.1,3.3,7.1c5.4-4,11.3-7.1,17.7-9.2C357.3,251,388.7,244.7,416.4,239.2L416.4,239.2z
	 M401.8,245.8c0.6,11.1-4.9,15.3-14.6,17.3c-6.3,1.3-11.5,1.5-14.1,2.4l6,0.2c5.5-0.2,11-1.3,16.2-3.2c6.1-2.2,10.5-6.4,8.6-17.2
	C403.2,245.4,402.5,245.6,401.8,245.8L401.8,245.8z M450.9,239.9c-1.1,4.7-4.8,8.3-13.2,9.7l-16.3,0.2c0,0-5.8,0.5-8.6-6.3
	c-1.9,0.4-3.8,0.8-5.7,1.2c1.6,10.4,0.1,20.4-20,22.3c3.4,2.4,34.9-3.4,53.8,0.9c0.7,0.3,8.2,3-0.7,6.9
	c17.6-3.9,18.4-21.4,15.1-34.4l-2.8-0.3L450.9,239.9L450.9,239.9z M429.2,246.8c14.5,1,17.1-5.2,17.1-5.2
	c-4.6-0.1-13.3-0.1-13.3-0.1C432.7,244.3,429.2,246.8,429.2,246.8L429.2,246.8z M389.2,199.3c-1-2.9-1.2-6-0.4-9c0,0-4.1,3.3-0.4,12
	l9.4,26c0.7-0.1,1.3-0.3,2-0.4c-0.5-1.6-1.1-3.2-1.8-4.9C394.5,214.4,390.4,203.1,389.2,199.3L389.2,199.3z M451.4,236.6
	c6.8,0.1,13.6,0.9,20.2,2.4c4.5,0,5.3-3,5.4-4.3c0.2-2.4-1.1-5.4-3.4-5.7l-0.2,0l-0.2-0.1c-3.2-1.1-18.7-2.9-24.7-3.4
	C448.6,225.5,451.4,232,451.4,236.6L451.4,236.6z M439,191.7l-5-0.4c0,0,9.2,20.9,13.4,31.2l2.3,0.1
	C446.3,212.4,442,199.3,439,191.7L439,191.7z M401.3,210.9l-1.6-4.7c0,0-3.6-7.3-1.3-13.8c0.2-0.8,0.6-1.6,1-2.3
	c-1.4-0.2-2.9-0.3-4.3-0.2c-2.6,0.2-5,0.3-3.3,6.5c1.3,4.6,1.8,5.7,2.8,8.5c1.2,3.4,5.2,13.6,8.1,22.3c1.4-0.3,2.7-0.5,4.1-0.7
	l-3-8.4C403,216.1,402.2,213.6,401.3,210.9L401.3,210.9z M428.5,229.8c-1.4-3.6-12.2-28.5-14.8-34.6c-1.2-2.4-1.8-5-1.7-7.7
	c0.1-0.9,0.2-0.8,0.2-0.8l-4.6,2.4c-3.3,4.1,1.1,15,1.1,15s3.3,10.2,7.4,20.5c10.9-2.8,20.4,16.9-0.5,18.7
	C417.5,251.2,435.5,247.9,428.5,229.8z M409.2,225.9l3.9-0.7l-7.5-20.8c0,0-3.2-7.3-1.2-13.8l-3.3,1.6c0,0-2.1,4.1,0.2,11.1
	C404.4,212.5,409.2,225.9,409.2,225.9z M470.2,242.3c-1.5-0.5-3.1-0.8-4.7-1c-1.3-0.2-2.7-0.3-4.1-0.3c9.1,12.4,32.8,5.1,20-15.2
	l-22.4-41.2l-9.1,3.9l15.7,35.3c3.2,0.3,6.5,0.8,9.6,1.7c5.9,1.7,7.3,10,3.3,14.2C476.3,242,473.2,243,470.2,242.3L470.2,242.3z
	 M461.9,223.6l-14.8-34l-4.1,1.8l11.1,31.1C454.1,222.6,459.7,223.2,461.9,223.6L461.9,223.6z M221.1,395.8L221.1,395.8l0.1,0.1
	l24,14.7l2.8,1.7v0l7.7,4.7c5.7,3.8,12.5,0.7,16.1-4c3.2-4.2,4.4-10.3-2.1-16.4c0,0-1.1-1.5-6.7-4.6c-5.2-2.9-23.1-13.7-31.6-19
	c-1.8-1.1-3.4-2.6-4.5-4.4c-1.1,1.9-3.6,6-8.6,13.1c-2.2,3.1-3,6-2.3,8.4C216.9,392.7,218.7,394.7,221.1,395.8L221.1,395.8z
	 M235.7,393c0.8-2.1,2.3-5.7,9-6.2h0.1l0.1,0c5.5-0.4,10.5,3.2,11.9,8.5c3.6-0.3,7.1,0.8,9.8,3.1c6.7,6.6,2.1,12.6,2.1,12.7
	c0,0.1-5.6,7.7-15.7,1.7c-1.4-0.8-2.5-2-3.3-3.4v0c-0.5-0.9-0.9-1.7-1.2-2.7c-8.6,1.3-11.8-5.1-11.9-5.2
	C235,399,234.7,395.9,235.7,393L235.7,393z M265.5,410.1l1.4-0.2c3.8-5.5-2.1-13.1-9.7-12.8c-0.3,2.1-1.4,4.1-3.1,5.5
	C255.2,408.4,258.9,411,265.5,410.1L265.5,410.1z M249.7,404.5c1,5.7,6.5,9.4,12.2,8.4c1.1-0.2,2.1-0.6,3.1-1.1
	c-3.7,0.6-11.4,0.4-12.6-8.4c-5.6,2-15.5,0.5-14.6-10.4C234.7,400.9,242.7,406.6,249.7,404.5L249.7,404.5z M249.4,399
	c-1,0-1.9-0.1-2.9-0.4c0,1.1,0.1,2.2,0.4,3.3c5.3,0.8,7.9-2.5,8.2-5l-0.4-0.1c0.2-3.4-2.5-6.7-6.3-7.9c-1.2,2.3-1.8,4.9-1.8,7.6
	c0.9,0.5,1.9,0.7,3,0.9C249.5,397.9,249.4,398.4,249.4,399L249.4,399z M243.1,400.7c0.4,0.2,0.6,0.5,0.9,0.6
	c-0.3-1.3-0.4-2.6-0.4-3.9c-0.7-0.5-1.2-0.6-1.5-1.2v-1.8c0.5,0.4,0.9,0.7,1.4,1c0-2.3,0.5-4.6,1.6-6.7c-2-0.2-4.1,0.5-5.6,1.9
	C239.6,390.6,237.9,397.8,243.1,400.7L243.1,400.7z M133.8,492.2c-2.6,2.1-4.3,3.3-4.9,3.7c-0.8-0.8-1.7-1.5-2.5-2.2
	c-14.5,8.1-30.5,13.3-47,15.1c-19.5,3.1-30.3-10.5-26.5-20.9c0,0,0,0-1.1-2.6c-1.1-2.6-14.3-29.7-11.9-40c0,0,0,0,0,0c0,0,0,0,0,0
	c0-0.1,0-0.2,0.1-0.3c6.1,11.3,12.9,22.2,20.4,32.6c0.4,0.5,0.7,1,1.1,1.6c0.4,3.4,2.3,6.5,5.2,8.4l0,0c0,0,0,0,0,0c0,0,0,0,0,0
	c1.1,0.7,2.3,1.3,3.6,1.6c0,0,0.1,0,0.1,0c0.4,0.1,1,0.1,1.4,0.1c0,0,0,0,0,0c1.1,0.2,2.2,0.3,3.4,0.3c0.8-0.1,2.7-0.2,3.4-0.4v0
	c-4.7,9.6-23.1,4.4-19.6-8.1c-2.6-3.3-9-13.6-9-13.6c-0.3,0.1,0.3,3.1,0.3,2.9c2.1,4.5,5.9,12.2,5.9,12.2
	c-2.9,18.2,23.2,19.5,25.1,6.2c1.5-0.3,1.5-0.1,2.4-0.5c-1.1,5.4-3.7,8.4-6.8,10c-5.6,2.8-7.2,7.8,1.3,7.2
	c8.6-0.6,23.9-3.5,41.7-12.1c0,0,1.5-0.9,3.1-1.8c-6.2-3.8-13.3-5.7-20.5-5.6c-4.7,0.2-9.4,0.7-14.1,1.5c0,0,0,0,0,0c0,0,0,0,0.1,0
	c0.2-0.1,0.4-0.1,0.6-0.2C109.4,479.8,123.7,485.1,133.8,492.2z M433.4,187.6l-1.2-0.1c-2.4-4.9-7.5-8-13-7.6c0,0-3.1,0.8-5.7,1.5
	l-0.6,0.3c-12.3-20.3-28.1-38.4-46.5-53.4C320.7,91,256.7,71,179.9,82.2c86.3-20.7,184.2,4.2,243.1,88.2
	C426.1,175.5,428.8,178.4,433.4,187.6z"/>
</svg>
