<svg version="1.1" id="Layer_1" xmlns="http://www.w3.org/2000/svg" xmlns:xlink="http://www.w3.org/1999/xlink" x="0px" y="0px"
	 viewBox="0 0 600 600" style="enable-background:new 0 0 600 600;" xml:space="preserve">
<style type="text/css">
	.st0{fill:#002244;}
	.st1{fill:#FFFFFF;}
</style>
<polygon id="Outer_Blue_Star" class="st0" points="414.6,367.4 600,232.6 370.8,232.6 300,14.7 229.2,232.6 0,232.6 185.4,367.4 
	114.6,585.3 300,450.6 485.4,585.3 "/>
<polygon id="White_Star" class="st1" points="395.4,361.1 549.9,248.9 359,248.9 300,67.4 241,248.9 50.1,248.9 204.6,361.1 
	145.6,542.7 300,430.5 454.4,542.7 "/>
<polygon id="Inner_Blue_Star" class="st0" points="380.6,356.3 511,261.6 349.8,261.6 300,108.3 250.2,261.6 89,261.6 219.4,356.3 
	169.6,509.6 300,414.8 430.4,509.6 "/>
</svg>
