<svg version="1.1" id="Layer_1" xmlns="http://www.w3.org/2000/svg" xmlns:xlink="http://www.w3.org/1999/xlink" x="0px" y="0px"
	 viewBox="0 0 600 600" style="enable-background:new 0 0 600 600;" xml:space="preserve">
<style type="text/css">
	.st0{fill:#B0B7BC;}
	.st1{fill:#FFFFFF;}
	.st2{fill:#0076B6;}
</style>
<path id="Silver_Outline" class="st0" d="M532.2,216.3c0,0,7.5-6.4,15.4-6.3c7.9,0.1,13.3,2.8,16.3,5.9c0,0,6.3-0.9,13.1,1
	c6.8,1.9,16.4,7.5,20.1,14c3.7,6.5,4.2,14,0.3,21.1c0,0,1.3,4.8-1.9,10.8c-3.2,6-8.4,9.1-8.4,9.1s-3.6,8.9-12.9,13
	c-9.3,4.1-21.6-0.5-21.6-0.5s-6.9,1.4-12.2,1.4c-5.3,0-12.6-2.3-14.9-3.3c0,0-6.3,9.2-8,11.4c0,0,8.5,7.4,17.9,10.3
	c9.3,2.9,16.6,4.3,20.9,7.3c4.2,3.1,5.9,6.1,5.9,6.1s6.5-1,12.8,0.5c6.3,1.5,13.6,6.4,18.4,12.9c4.8,6.5,7.7,14.9,5.7,22.9
	c-2,8-6.6,10.9-6.6,10.9s-2.2,7.4-6.8,11.9c-4.5,4.6-11,4.8-11,4.8s-3.5,4.8-12.7,6.2c-9.2,1.5-15.8-3.6-15.8-3.6s-7.3,0.8-17.1-2.2
	c-9.9-3.1-16.6-13.2-16.6-13.2s-6.4-3.1-18.3-3.6c-11.9-0.5-38.3-5.9-50.1-12.7c0,0-6.9,3.3-28,4.4c0,0-3.1-9.5-9.2-14.2
	c0,0-18.1,10-23.8,12.7c-5.7,2.7-16.3,7.3-25.6,7.8c0,0-2.4,15.1-6.8,23.2c-4.4,8.1-12.8,14.2-20,16.5c0,0,10.4,3.7,15.9,11.8
	c5.4,8.1,7.3,17.1,3.6,24.2c-3.7,7.2-7.9,9.1-7.9,9.1s-2.1,7.3-10.5,11c-8.4,3.8-19,1.8-19,1.8s-5.9,3.1-13.9,3
	c-8-0.1-18.1-6.9-18.1-6.9s-26.3,2.4-34.2,1.8c-7.8-0.6-17.1-3.9-21.5-15.5c0,0-4.8,4-12,7.5c-7.2,3.5-20.8,10.1-30.6,17.1l0.3,5.2
	c0,0,14.3,5.4,15.2,20c0.9,14.7-7.1,20.1-9.3,21.6c0,0-3,6.6-9.6,9.9c-6.5,3.3-13.7,1.8-13.7,1.8s-16.1,7.1-28.3-4.6
	c-12.3-11.7-8.8-24.4-8.7-27.4c0.1-3.1,1-29.9,0.9-31.1c0,0-6.1-8.1-4.8-17.3c1.3-9.2,8.4-14.9,11.7-17.7c3.3-2.8,7.3-7.4,9.3-14.5
	c2-7.1,2.1-21.5,2.8-26.8c0.7-5.3,1-14.3,1-14.3s-24.1-6.6-36.6-20.6c-12.5-14-16-24.1-19.2-38c-3.2-13.9-5.4-27.8-18.2-35.7
	c0,0-8.3,2.4-17.9-1.5c-9.6-3.9-15.5-11.6-21.6-19.2c-6.1-7.6-28-11.1-35.7-11.5c0,0,16.4-18.1,38.5-25.8c22.1-7.7,32.6-4.7,40-0.5
	c7.3,4.1,13.1,11.1,15.8,20.5c0,0,14.4,6.2,24.3,17.8c9.9,11.6,14.5,21.8,17.7,34.5c3.2,12.7,7.2,28,32.6,33.6
	c0,0,15.1-15.1,20.8-18.8c5.7-3.7,12.9-5.8,15-6.4c2.1-0.6,11.7-3.8,11.7-3.8s15.2-12.4,17.7-14.9c0,0,5.7-10.1,9.3-15.9
	c3.6-5.9,9.2-11.7,9.2-11.7s-7.4-13.7-7-28.7c0,0,3.6,1.7,6.9,2.1c0,0-0.2-11.1,7-21.4c7.2-10.3,14.4-16.7,14.4-16.7
	s-0.5-13.5,7.6-26.3c0,0-6.2-10-6.8-16.4c0,0,10.4-0.9,18.2-3.2c7.9-2.3,11.7-3.9,15.7-8.7c4-4.8,13.6-16.5,25.7-22.2
	c12.1-5.7,25.6-7.8,35.2-7c0,0-5.9-5.1-12.5-7.2c0,0,11.2-8.2,33.2-10.6c0,0,0.2-11.1,2.5-17c0,0,29.2,20,43.8,25.7
	c14.7,5.7,25.3,7.6,32.9,11.3c7.6,3.7,12.9,10.6,14.2,14.8c0,0,8.2,3.1,14.4,7.5c6.3,4.4,9.9,15,9.9,15s11.8,4.7,24.1,12.2
	c12.2,7.5,27.3,23.2,27.3,23.2s-9.5,4.2-17.5,15.8C542,197,538.3,209.9,532.2,216.3"/>
<path id="White_Outline" class="st1" d="M515.1,221.7c0,0,5.5-0.1,10.3,1.2c4.9,1.4,7.9,2.9,7.9,2.9s3.6-2.3,5.4-3.8
	c1.8-1.6,7.2-4.4,12-3.6c4.9,0.8,8.3,4.2,9.2,5.7c0,0,4.1,0.3,8,0c3.8-0.2,10.9,1.1,16.6,5.6c5.7,4.5,10.8,11.2,3.9,20
	c0,0,1.5,5.6-0.6,9.7c-2,4.1-7.3,6.3-7.3,6.3s-3.2,9.6-10.8,12.1c-7.5,2.5-17-2.2-17-2.2s-8.9,2.2-15.3,1.7
	c-6.4-0.5-13.4-5.9-13.4-5.9s-1.5,0.9-3,3c-1.5,2.2-12.5,17.6-15.1,20.4c0,0,10.8,10.5,21.5,14.9c10.7,4.4,16.1,5.1,18.9,5.9
	c2.8,0.8,9,4.3,11.3,11.1c0,0,6.9-1.7,11.4-1.4c4.5,0.3,8.9,1.2,16.8,9.3c7.9,8.1,6.1,15.4,4.8,18.8c-1.2,3.4-5.9,6.3-5.9,6.3
	s-0.4,6.8-4.5,10.4c-4.1,3.6-9.6,3-9.6,3s-2.2,4.1-7.8,5.8c-5.6,1.7-11.7-1.3-14.6-3.5c0,0-11.6,1-19.1-2.7
	c-7.5-3.7-11.1-11-11.1-11s-12.8-5.2-26.1-5.3c-13.3-0.1-39-7.3-47.5-13.4c0,0-12.8,5.8-23.1,6c0,0-3.2-9.7-14.3-16.4
	c0,0-23.9,13.2-32.5,17.2c-8.6,3.9-23.6,5.4-25.8,5.6c0,0,0.9,3.6-0.2,9.5c-1.2,5.9-4.7,17.4-7.8,21.2c-3.1,3.8-11.5,8.6-16.5,10.4
	c-5,1.8-11.1,3.4-16.4,6c-5.2,2.6-11.5,7.9-14.2,10.4c0,0,8,2,10.4,1.9c2.4-0.1,6.7-2.5,9.9-3.7c3.2-1.3,12-2.9,19.1,2.4
	c7.1,5.3,10.8,12.2,10.6,17.4c-0.2,5.2-3.6,8.9-8.5,11.5c0,0-1.5,7.3-7.7,9.6c-6.2,2.2-16.5,0.2-16.5,0.2s-4.9,3.2-10.8,3.5
	c-5.9,0.3-13.7-4.7-15-5.4c-1.3-0.7-2.5-1.3-4.6-1.3c-2.2,0-25.3,1.9-32.5,1.9c-7.2,0-12.2-3.5-15.2-9.1c-3-5.6,1.2-14.7,3.9-18.2
	c2.7-3.6,7-8.6,7.5-9.6c0.6-1,0.7-2.7-0.8-3.7c-1.5-1-6.2-3.3-6.2-3.3s-7.1,14.3-9.8,19.1c-2.7,4.8-6.2,10.2-13,14.4
	c-6.8,4.2-21.1,10.5-28.6,15.1c-7.6,4.6-12,8.9-12,8.9s0.1,13.6,0.5,15.2c0,0,6.8,1.3,9.5,3.7c2.7,2.4,5.4,6.2,5.3,11.5
	c-0.1,5.3-0.8,11.5-7.4,14c0,0-1.8,6.9-7,8.9c-5.2,2-10.5,0.2-10.5,0.2s-7.1,3.6-14.5,2c-7.4-1.6-13.6-9.2-13.7-17
	c-0.1-7.8,1.2-35.9,1.2-37.8c0-1.8,0-3.7-1.3-6.2c-1.4-2.5-4.5-8.7-3.7-12.6c0.8-3.9,4.8-8.6,8.6-11.7c3.7-3.1,8.2-6.3,10.5-12.6
	c2.2-6.3,4.2-15,4.4-21.6c0.2-6.6,1-28.3,2.5-34.1c0,0-28-6.2-40.6-20.6c-12.6-14.4-14.8-25.9-18.4-41.3
	c-3.6-15.4-8.2-27.2-22.9-34.9c0,0-7.9,3.8-18-0.6c-10.1-4.4-15.7-15.9-21.1-20c-5.4-4-20.1-6.4-23.1-6.3c0,0,17.5-12.2,29.6-15.8
	c12-3.6,25.1-4.7,33.3,1.8c8.2,6.5,9.5,17.8,9.5,17.8s16.9,7,26.7,19c9.8,12.1,12.7,23.3,14.6,30.9c1.9,7.5,7.9,22.6,17.4,29.3
	c9.5,6.7,20.7,9.5,26.5,9.9c0,0,16.4-17.2,22.1-20.9c5.6-3.7,11.9-5.2,14.6-6c2.7-0.8,12.1-3.9,12.1-3.9s16.6-14.3,19.8-16.7
	c0,0,9.6-16.7,12.3-20.6c2.7-3.9,10-13.2,10-13.2s-6.6-7.6-6.6-17.4c0,0,3.9,0.8,6.4,0.5c0,0-3.3-5.5-1.7-13.3
	c1.6-7.8,10-20.4,21.3-30.1c0,0-0.4-8.2,1.9-16c2.4-7.8,7.2-14,7.2-14s-5.1-6.4-6-11.3c0,0,9.7-0.9,16.5-3.2
	c6.8-2.3,12.2-7.1,12.2-7.1s12.9-17.9,28.7-23.5c15.8-5.6,31.9-3.9,31.9-3.9s8-5.2,11.3-6.3c0,0-6.3-7-11.5-9.2
	c0,0,12.2-3.7,23.4-2.8c0,0,0.2-7.8,1.5-12.3c0,0,19.5,14.1,28.4,18c8.9,3.9,25.9,9.6,31.7,11.4c5.7,1.8,15.5,5.5,17.5,15.9
	c0,0,9.5,4,13.2,6c3.7,2,7.6,6.9,8.3,8.9c0.8,2,1.6,4.5,2.5,6.1c1,1.6,2.6,2.7,4.2,3.2c1.6,0.6,17.2,7.6,24.5,13
	c7.2,5.4,17,14.8,17,14.8s-9.8,7.8-12.2,11.4c0,0-2.9,9.8-7.7,16.8c-4.7,7-11.8,9.7-11.8,9.7L515.1,221.7"/>
<path id="Blue_Lion" class="st2" d="M406.2,97.8c-0.6,5.1,3.3,9.6,3.3,9.6c-5.7-2.7-21.3-3.3-21.3-3.3c7.2,2.7,12.3,8.7,12.3,8.7
	c-6,0-15.6,5.7-15.6,5.7c7.8,0,11.1,4.2,11.1,4.2c-7.2,3.3-22.8-1.5-40.4,1.2c-17.6,2.7-29,16.5-29,16.5c7.5-2.7,12.3-0.3,12.3-0.3
	c-6,0.3-21.5,10.2-27.5,13.4c-6,3.3-14.7,3-14.7,3c2.1,4.5,7.8,5.7,7.8,5.7c-7.8,5.4-12,17.9-12,17.9c4.5-5.1,11.1-4.8,12.6-1.8
	c1.5,3-0.6,8.5-6.6,12.9c-4.9,3.5-16.7,13.5-23,22.4c-6.3,9-7.3,16.1-7.3,16.1c7.5-3.1,10.1-0.4,9.5,3.3c-1,6.3-12.1,11.2-12.1,11.2
	c2.7,4.5,12.8,4.8,12.8,4.8s-12,13.1-16.8,20.3c-4.8,7.2-12.9,21.6-14.4,23.6c-1.5,2.1-19.1,16.2-21.2,18.3
	c-2.1,2.1-20.1,6.6-24.6,8.7c-4.5,2.1-19.7,16.4-24.8,23c-0.3,0.4-0.6,0.8-0.9,1.2c-7.3-0.5-24.2-2.7-35.6-12.2
	c-14.9-12.4-18.4-27-21-37.1c-2.6-10-6.8-17.6-12.6-25.1c-5.8-7.5-23.8-16.4-26.8-18.2c0,0-2.2-12.6-8.4-16.8
	c-6.6-4.5-15.4-3.6-19.1-2.6c-1.1,0.3-2.6,0.8-4.3,1.4c3.5,0.3,6.6,1.1,9.2,1.8c8.5,2.2,9,8.1,9,8.1s-10.9-11.8-32.8-3.2
	c1.7,0.3,8.1,1.6,11.4,5.8c3.7,4.8,4.8,8.4,15.2,14.2c9.4,5.2,16.5-0.5,16.5-0.5s16,8.3,21.2,17.5c5,8.9,10,22.8,12.3,35.2
	c2.3,12.3,7.2,21.9,18.2,31.4c9.7,8.5,30.5,14.2,40.3,16.1c-0.3,0.9-0.6,1.8-0.9,2.8c-2.4,7.8-2.4,21.8-3.3,37.1
	c-0.9,15.2-4.2,23.9-7.8,30.5c-3.6,6.6-14.6,12.9-15.5,16.8c-0.9,3.9,4.2,8.1,4.8,14.1c0.6,6-0.9,31.1-0.9,34.7
	c0,3.6-0.9,8.1,1.2,11.4c2.1,3.3,5.4,5.1,9.9,4.5c4.5-0.6,6.3-3.3,6.3-3.3s6.6,2.7,9.6,0.9c3-1.8,2.7-7.8,2.7-7.8s4.5,0,5.7-1.5
	c1.2-1.5,1.5-6.9-0.6-9.6c-2.1-2.7-12.6-3.6-12.6-3.6c-0.6-1.2-2.4-21.5-0.9-26c1.5-4.5,13.5-11.4,22.8-16.8
	c9.3-5.4,21.8-9.9,26.3-14.7c3.7-3.9,13.3-23.2,16.8-30.3c0.2-0.4,11.7-28.8,39.3-41.4l0.2-0.1c-20.2,17.9-21.9,24.7-21.9,24.7
	s13.4-12.8,36.8-22.7c15.5-6.6,27.4-9.4,35.2-10.2c-19.3,6.1-35.7,15.4-52.3,25.4c-16.9,10.2-27.7,23.5-28.3,24.3
	c14.9,5.9,13.8,12.3,12.5,16c-1.5,4.2-10.8,13.5-12.3,17.7c-1.5,4.2-0.9,8.7,6.6,9.3c7.5,0.6,28.1-2.1,34.7-1.8
	c6.6,0.3,10.8,6.9,17.1,6.9c6.3,0,9.3-4.2,9.3-4.2c4.5,1.5,12.6,2.4,15.9,0.9c3.3-1.5,2.7-7.8,2.7-7.8c5.4-0.9,8.7-3.6,7.8-6.6
	c-0.9-3-3-6.9-7.5-9.6c-4.5-2.7-8.7-1.8-12-0.3c-3.3,1.5-7.8,4.2-12.6,3.6c-4.8-0.6-22.7-4.5-22.7-4.5c4.8-13.2,20.1-22.7,26.9-25.1
	c6.9-2.4,20-6.6,25.1-10.8c5.1-4.2,8.1-19.2,8.4-22.1c0.3-3-2.4-12.6-2.4-12.6c5.4-0.9,19.5-0.6,30.2-4.8
	c6.3-2.5,18.3-8.9,27.1-13.7c-19.2-11.1-57.6-8.3-57.6-8.3c40.3-8.4,68.2,2.3,68.2,2.3c13.2,3.9,19.7,16.5,19.7,16.5
	c8.4-1.2,19.2-6.3,19.2-6.3c23.1-12.5,48.8-38.3,48.8-38.3c9.3-8.4,18.6-25.4,23-29.3c4.5-3.9,10.2-3,10.2-3s4.2,5.7,11.7,6
	c7.5,0.3,14.1-2.1,14.1-2.1s11.1,4.5,15,2.4c3.9-2.1,6-10.2,6-10.2s6.3-1.2,6.6-4.2c0.3-3-2.1-7.8-2.1-7.8s4.2-2.7,4.8-4.5
	c0.6-1.8-1.5-4.2-3.3-5.7c-1.8-1.5-8.4-5.1-11.7-4.5c-3.3,0.6-13.5-0.3-13.5-0.3s-1.5-4.2-4.2-5.1c-2.7-0.9-5.7,0.3-7.5,2.1
	c-1.8,1.8-7.2,5.4-9.8,5.4c-2.7,0-4.8-2.7-13.2-4.2c-8.4-1.5-13.5,2.4-13.5,2.4s0.8-6.2,0.3-10.5c0-0.4-1.8,0.1-1.8-0.3
	c-0.2-4.1,0-10.2,0-10.2c-0.9,2.4-8.8,13.2-15.7,9.6c-6.9-3.6-4.9-16.5-4.9-16.5c10.8-6.6,26.1-5.7,26.1-5.7
	c3,6.6-0.9,13.2-0.9,13.2c12.9-4.2,15.9-20,17.4-23.3c1.5-3.3,8.4-7.2,8.4-7.2s-6.9-6.3-14.1-10.8c-7.2-4.5-20.3-10.2-22.7-11.1
	c-2.4-0.9-5.4-6-6-7.8c-0.6-1.8-2.4-7.2-6.9-9.6c-4.5-2.4-17.4-7.8-17.4-7.8s1.8-2.7-1.2-7.5c-3-4.8-13.8-6.9-31.4-12.9
	C418.2,108.6,406.2,97.8,406.2,97.8L406.2,97.8z M476.6,158.9c2.7,0,8.2,3.6,12.1,3.8c0,0-3.4,4.6-3.9,5.8c-0.5,1.2,1.5,3.6,1.5,3.6
	s-7.7-5.8-10.1-7.5c-2.4-1.7-11.6-3.6-11.6-3.6S474,158.9,476.6,158.9L476.6,158.9z M377.1,186.4c3,0,6.2,0.3,9.5,0.9
	c26.6,4.9,38.4,24.8,38.4,24.8s-20-16.1-41.3-18.4c-21.4-2.2-41.4,5.8-41.4,5.8S355.9,186.4,377.1,186.4L377.1,186.4z M380.1,210.9
	c14.1,0,24.7,4.4,24.7,4.4c-19-2.8-33.4,2.1-44.2,7.4c-9.4,4.6-20.6,14.7-38.4,18.9c-18.7,4.4-33.4-2.3-33.4-2.3
	c25.8-0.9,38-8.2,63.5-21.7C361.8,212.5,371.6,210.9,380.1,210.9z M405,230.4c11.4,0.1,21.1,2.8,27.6,6.2
	c12.5,6.4,11.4,16.7,11.2,18.1c0,0,0,0.1,0,0.2c0,0,9.1-1.8,15.5-5.7c0.5-8.6,5.4-17.3,13.4-16.8c8.9,0.5,21.2,7.1,21.2,7.1
	c-17.1,13.8-48.3,25.2-59.4,27.5c0,0,7.6-10.4-3-21.9c-8.5-9.2-37.4-14.9-64.9-4.5C380.3,233,393.5,230.4,405,230.4L405,230.4z
	 M500.2,301.1c-4.8,5-12.2,12.2-20.4,19c-8.5,7-19.4,13.9-26.8,18.2c17.8,8.5,38.8,9.6,48.6,10.6c11.4,1.2,23,6.6,23,6.6
	s1.5,6.6,8.7,9.9c7.2,3.3,17.6,1.5,17.6,1.5s5.4,5.4,9.9,3.9c4.5-1.5,4.8-7.5,4.8-7.5s5.7,3,8.7,0.9c3-2.1,2.1-10.5,2.1-10.5
	c3.6,0,7.8-2.4,6.9-6.3c-0.9-3.9-5.4-9.6-10.2-12.3c-4.8-2.7-10.2-0.3-14.4,0c-4.2,0.3-7.8-3-8.7-5.1c-0.9-2.1-3.6-6-7.2-6.6
	c-3.6-0.6-11.7-2.7-22.7-7.8C513.6,312.6,505.6,306,500.2,301.1L500.2,301.1z"/>
</svg>
