<svg version="1.1" id="Layer_1" xmlns="http://www.w3.org/2000/svg" xmlns:xlink="http://www.w3.org/1999/xlink" x="0px" y="0px"
	 viewBox="0 0 600 600" style="enable-background:new 0 0 600 600;" xml:space="preserve">
<style type="text/css">
	.st0{fill:#FFB612;}
	.st1{fill:#203731;}
	.st2{fill:#FFFFFF;}
</style>
<path id="Yellow_Oval" class="st0" d="M298.4,103.1C136.7,103.1,0,193.7,0,301c0,111.7,128.3,195.9,298.4,195.9
	c99.3,0,193.4-34.9,251.8-93.3C582.4,371.4,600,335,600,301c0-52.9-31.2-102.6-87.6-139.9C455.7,123.7,379.8,103.1,298.4,103.1"/>
<path id="Green_Oval" class="st1" d="M89.7,432.2C37.8,397.6,9.2,351,9.2,301c0-100.5,135.1-188.7,289.2-188.7
	c161.1,0,292.3,84.7,292.4,188.7c0,31.5-16.7,65.6-47.1,96.1c-56.7,56.7-148.4,90.6-245.3,90.6C217.5,487.7,143.3,468,89.7,432.2"/>
<path id="White_G" class="st2" d="M427.9,249.1c-23.2-34.6-74.1-58.6-134-58.6c-82.2,0-148.9,45.2-148.9,101
	c0,55.8,47.1,104.7,148.9,104.7c61.1,0,110.3-26.4,133.3-61.1l-173.7,0.3l-0.5-45.1l301.5-0.1c0.4,3.6,0.8,7.1,0.8,10.8
	c0,86.8-115,157.2-256.8,157.2c-141.8,0-256.8-70.4-256.8-157.2c0-86.8,121.8-159.9,256.8-160.4c112.4-0.4,207.9,46,242.7,108.5
	L427.9,249.1"/>
</svg>
