<svg version="1.1" id="Layer_1" xmlns="http://www.w3.org/2000/svg" xmlns:xlink="http://www.w3.org/1999/xlink" x="0px" y="0px"
	 viewBox="0 0 600 600" style="enable-background:new 0 0 600 600;" xml:space="preserve">
<style type="text/css">
	.st0{fill:#FFFFFF;}
	.st1{fill:#021018;}
	.st2{fill:#EA0028;}
</style>
<path id="White_Outline" class="st0" d="M442.7,119.5c128.4,97.7,30.7,112.3-69.6,126.6c0,0-42.3-11.7-115.6-48.1
	C91.2,115.5,143.5,76.5,274.2,53C65.1-38.1-109.3,120.5,83.1,274.8l-52.8,37.7c43.3,26.6,133.2,82.3,120.1,167.7l-44.6,31.9
	L242,573.7l107.4-48.7c0.8-47.3,85.3-71.8,121.6-168C671.1,311.2,620.2,135.1,442.7,119.5"/>
<path id="Blue_Half" class="st1" d="M287.9,411.4l-38.6-43.9l-44.3,6.6l20.5-33.7l-38.6-43.9l51.3,23.1l20.4-33.7l11.2,48l51.2,23
	l-44.3,6.6L287.9,411.4z M351.2,255.2C100,158.1,83.3,78.5,240.1,51C44-2.3-70.4,139.9,123.7,275.4l-52.1,37.2
	c55.3,36.9,113.9,91.6,94,177.7l-26.2,18.7l100.8,45.7C333.9,452.1,383,352.3,351.2,255.2"/>
<path id="Red_Half" class="st2" d="M478.7,134.8c86.2,67.5,26.4,110.6-78.8,122.3c26.6,112.1-54.9,214.8-141.3,294.3l79.2-35.9
	c5.9-45.6,86.2-69.3,124.2-170.3C640.8,305.3,611.6,177.1,478.7,134.8"/>
</svg>
