<svg version="1.1" id="Layer_1" xmlns="http://www.w3.org/2000/svg" xmlns:xlink="http://www.w3.org/1999/xlink" x="0px" y="0px"
	 viewBox="0 0 600 600" style="enable-background:new 0 0 600 600;" xml:space="preserve">
<style type="text/css">
	.st0{fill:#D7A22A;}
	.st1{fill:#9F792C;}
	.st2{fill:#FFFFFF;}
	.st3{fill:#006778;}
</style>
<path id="Black_Outline" d="M578.1,235.4c0,0-9.8-21.4-37.5-39.6c7-8.9,9.7-19.6,6.4-28.1c-3.3-8.8-26.7-24.9-35.5-29.4
	c-8.8-4.5-21-11.2-21-11.2s-31.2-18.9-55.8-29.6C405.2,84.4,352,67.3,294,79.5c0,0-34.8-11.4-97.6,8c-22,6-59.3,16-80.3,19.5
	c-31,5.2-62.5,5.7-86.9,8.3c-12.8,1.4-21.4-1.5-25.6,5.8c-18.4,31.8,36.4,85.6,56.2,94.1c-5.9,33.1,1.6,72.2,36.3,111.3
	c37.7,42.5,90,50.6,120.6,73.2c34.4,25.4,41.5,57.4,70.2,87.4c26.4,27.6,78,51.1,124.3,28.6c50.2-24.4,59.3-65.3,61.1-72.9
	c0.6-3.9-1.7-7.9-6.7-10.3c-0.8-0.4-2.5-1.2-4.7-2.4c2-8,7.1-32,2.1-53c0,0-14.2,20.8-24.9,32.2c-3-2.8-16.8-16.7-14.5-33.3
	c6.3-2.5,13.6-5.9,19.2-10.1c3.2-2.4,6.1-4.8,8.6-7.2C479.6,350.7,486,339,486,339c1,2.9,4.6,6.5,4.6,6.5c4.2-2.3,9.7-6.5,9.7-6.5
	c0.5,3.4,0.5,9.4,0.5,9.4c2.1-0.8,4.1-1,4.1-1c-2.1,10.4-14.3,28.1-14.3,28.1c42.8-12.3,60.8-43.9,60.8-43.9l0-0.2
	c1.6-0.3,2.7-0.8,2.7-0.8s28.7-8.2,41.9-36.3C609.3,266.2,585.4,238.9,578.1,235.4L578.1,235.4z"/>
<path id="Face_Gold" class="st0" d="M552.4,224.3c0,0-8.5,10.5-12.7,7.2c-4.2-3.2,2.2-7.5,0.9-15.9c-1.3-8.4-28.7-36.5-63.4-57.3
	c0,0,16,6.6,31.5,14.8c0,0,0,0,0,0c0.1,0.1,0.2,0.1,0.4,0.2c3.4,1.7,7,3.8,10.4,5.9c4.6,2.8,8.8,5.7,11.9,8.4c0,0,6.3-7.7,2.5-16.6
	c-0.2-0.5-0.5-1-0.7-1.5c0-0.1-0.1-0.1-0.1-0.2c0,0,0,0,0,0c-0.6-1-1.3-2-2.1-3.1c-0.7-0.5-1.7-1-2.8-1.5c-2.2-0.8-4.2-1.2-5.7-1.9
	c0,0-3.3-3.4-4.4-5c0,0-0.4,1.5,0.6,3.2c0,0-2.6-2.3-4.9-2.7c-2.3-0.5-5.2-1.4-5.9-2c-0.7-0.5-2.2-1.8-2.2-1.8s0.1,1.1,0.4,2
	c0,0-2.4-0.2-2.8-2.7c-0.4-2.5,1.6-3.6,1.6-3.6s-0.2-0.7,0-1.6c0,0,2.2,2.4,3.2,3c0,0,0.5-1.5-0.4-4.2c-0.3-0.1-0.5-0.3-0.8-0.5
	c-0.8-0.4-1.6-0.8-2.3-1.2c-0.6-0.3-36.3-20.5-53.2-29c-1.2-0.1-3-0.4-4.8-1c0,0-2.8-1.3-3.3-2.7c0,0-0.2,0.7,0.2,1.5
	c0.7,1.3,2.2,2.7,2.7,4.5c0,0-2.8-1.7-5.1-2.9c-2-1-6.3-2.3-8.7-4.1c-0.5-0.4-0.9-0.7-1.1-1.1c-0.1-0.1-0.2-0.2-0.3-0.3
	c-0.3-0.4-0.4-0.7-0.5-1c-0.1-0.1-0.1-0.3-0.1-0.4c0-0.1,0-0.1,0-0.2c0-0.2,0-0.3,0-0.4c0-0.2,0-0.3,0-0.3c0.1,0,0.1,0.1,0.1,0.1
	c0,0,0.1,0.1,0.1,0.1c0,0,0.1,0.1,0.2,0.1c1,0.9,2.1,1.8,3.3,2.2c0.1,0,0.2,0.1,0.3,0.1c0-0.1-0.1-0.1-0.1-0.1c0,0-0.1-0.1-0.1-0.2
	c-0.1-0.1-0.2-0.2-0.3-0.4c-0.6-0.7-1.5-1.9-2.3-3.3c-13.8-6.8-30.3-14.1-52.6-18.5c-12-2.4-22.6-3.1-31.1-3.1l-0.1,0
	c-14.2,0-22.6,2.1-22.6,2.1s6.3,0.4,19.6,5c0.8-0.3,1.9-0.7,2.9-1.4c1.9-1.4,3.1-1.6,3.9-1.6c0.8,0,4.3,4.2,4.3,4.2s-0.4-3.2-1.1-6
	c0,0,3.5-0.3,4.8,0c1.9,0.5,3.5,1.1,4.2,1.1c0.7,0,1-0.8,1-0.8s1.2,0.8,1.2,1.8c0,0,2.7,1.9,2.7,3.7c0,1.8-0.4,4.1,0,5.2
	c0,0-0.7,0.4-1.8-1.4c0,0-1.8,1.5-3.5,1.5c-0.8,0-1.6,0.2-2.2,0.4c6.1,2.7,13,6.1,20.7,10.2c0,0,0.9,0.6,1.5,1.1c0,0,0.6-2.6,1.1-3
	c0,0,0.8,0.7,1,1.1c0,0,0.1-1.1-0.1-2.4c0,0,2.2-1.8,3.8-1.9c1.7-0.2,2.4-0.2,2.9-0.5c0,0,0.4-1.3-0.2-2.8c0,0,2.8,1.6,3.4,3.7
	c0,0,0.2-1.3,0.2-2.6c0,0,3-0.5,5.1,0.1c2.2,0.6,3.6,1.3,4.1,2.1c0.5,0.8,1.8,3.5,1.1,4.1c-0.8,0.6-2.1,0.8-2.5,1.5
	c-0.4,0.6-0.6,1.2-1.1,1.6c-0.5,0.4-1.3,0.5-1.3,0.5s-0.1,2.2,0.4,3.4c0,0-1.2-0.2-1.7-1.5c0,0,0.3,1.3-0.5,2.2
	c-0.8,0.9-1.4,1.4-2.2,1.7c0,0-2-1.9-2.1-2.6c0,0,0.2,4.4-0.5,3.6c0,0-4.2-3.7-5-4.1c0,0-1.8,0.3-2.5,0.2c-0.7-0.1-3.2-1-3.7-1.8
	c0,0-0.1,1,1.3,1.9c0,0-1.2-0.2-1.7-0.4c0,0-0.7,0.8-2,1.1c0,0,1.3,1.5,1.9,2c0,0-2.5-0.5-3.7-1.7c0,0-1.5,0.1-3.1-0.4
	c-1.6-0.5-2.6-0.3-4-0.1c-1.4,0.2-1.7,0.1-2.7-0.2c-1.1-0.2-3.9-1.8-3.9-1.8s0.5,1.3,1,1.7c0,0-0.2,1-2.6,0.4
	c-2.3-0.7-2.4-1.4-3.6-2.1c-1.2-0.7-2-1.8-1.8-2.7c0.2-0.9,1-1.5,1-1.5s0.7,0.7,2,1.2c0,0-2.2-2.7-2.4-3.7c0,0,1.1,0.2,1.7,0.3
	c0,0,0.4-1.5,3.8-2.2c1.1-0.2,2.1-0.4,2.9-0.5c-9.3-2.9-22.3-6.5-37.3-9.5c-0.3,0.3-0.5,0.6-0.6,0.9c-0.2,0.3-0.4,0.7-0.6,1.1
	c-0.5,1.1-1,2.3-1.8,3c0,0-7-2.2-9.2-3.3c0,0,3.5,2.9,6,4.2c0,0-2.1,3.5-9.5,2.7c0,0-3.4,1.5-6.1,1.2c-2.7-0.3-6.7-2-7.5-3.4
	c-0.8-1.4-0.7-4.2,2.1-5.9c0,0,3.9,2.4,5.8,3.5c0,0-3.4-4.3-3.2-5.7c0,0,1.2-1,2.7-1.9c-1.7-0.2-3.4-0.5-5.2-0.6
	c-15.8-1.8-29.8-2-42.4-1.3c1,1.4,0.8,2.8,1.6,4.2c1,1.8-0.4,2.6-0.4,2.6c-1.1-0.9-5.4-2.7-5.4-2.7c1.7,1.6,3.1,3.8,3.1,3.8
	c-1.1,0.6-3.8,1.2-6.9,1.3c-3,0.1-7.3,2.6-7.3,2.6c-1.8-0.5-3.3-2.4-4.8-3.8c-0.3-0.2-0.5-0.5-0.7-0.7c-0.1-0.1-0.2-0.1-0.2-0.2
	c0,0-0.1-0.1-0.1-0.1c0,0-0.1-0.1-0.2-0.1c0.1,0.1,0.1,0.3,0.2,0.5c0,0,0,0,0,0c0,0,0,0,0,0.1c0.1,0.3,0.2,0.5,0.3,0.8
	c0.2,0.5,0.5,1,0.7,1.5c0.8,1.5,1.7,2.8,2.6,4.2c0,0,0,0.1,0,0.1c0.4,0.6,0.7,1.2,1,1.7c0.1,0.2,0.2,0.3,0.3,0.5
	c0,0.1,0,0.1,0.1,0.1c0,0.1,0.1,0.1,0.1,0.2c0.1,0.1,0.1,0.2,0.1,0.2c0,0,0.1,0.1,0.1,0.1c0,0,0.1,0.1,0.1,0.1
	c-0.4-0.5-1.6-0.7-2.2-0.9c0,0-0.1,0-0.1,0c-1-0.4-1.9-0.9-2.8-1.5c0,0,0,0,0,0c-0.4-0.3-1.6-1.4-2.1-1.2c0,0-0.1,0-0.3,0.1
	c-0.1,0-0.1,0-0.2,0.1c-0.1,0-0.2,0.1-0.4,0.1c-0.2,0-0.3,0.1-0.5,0.1c-0.1,0-0.3,0.1-0.5,0.1c-0.2,0-0.5,0.1-0.7,0.1
	c-0.4,0.1-0.9,0.1-1.3,0.2H233c-0.5,0-1.1,0-1.7,0c-3.1-0.2-6.9-2.8-9.5-5.5c-0.9-0.9-1.2-2-1.3-2.9c-2.7,0.6-5.4,1.3-8.1,2
	c-3.9,0.9-25.3,5.7-47.1,10.6c0.1,1.5-0.5,3.2-0.5,4c0,1.5,1.2,2.7,1.2,2.7c-2.5,0.2-6.9-1.5-6.9-1.5c1.2,1.8,4.8,3.8,4.8,3.8
	s-0.5,2-2.2,2.7c-1.6,0.7-2.9,0.4-4.9,0.3c-2.1-0.1-3.8,0.8-6.5,1c-2.6,0.1-5.8-1.5-5.8-1.5c2.9,0.3,5-1.7,5-1.7
	c-3.7-0.4-4.8-1.8-5.3-2.6c-0.3-0.6-1.2-1.4-2-2c-16,3.6-28.4,6.4-28.4,6.4c-10.2,1.4-18.4,2.4-18.4,2.4c0,0,0,0,0,0
	c-3,0.2-6,0.4-9.1,0.6c-16.6,0.9-33.2,0.5-49.8,1.5c-2.5,0.2-4.9,0.2-7.4,0.2h-0.1c1.3,0.3,2.7,0.7,4,1c1.8,0.5,3.6,1,5.4,1.5
	c6.1,1.8,12.1,3.9,18,6.1c2.9,1.1,5.8,2.3,8.7,3.6c3.1,1.3,6.1,2.8,9.1,4.3c0.8-1.2,4.5-1.3,4.5-1.3l-0.5-1c0,0,1,0.6,2.3,0.6
	c0.1,0,0.2,0,0.3,0c0.3-0.1,0.7-0.2,0.9-0.3c0.4-0.3,0.8-0.6,1.6-0.9c1.4-0.5,3.3-0.3,3.3-0.3c0.5-0.9,2.8-1.8,2.8-1.8
	c-0.4-0.4-1-0.9-1-0.9c0.9-0.1,3,0.3,3.9,0.4c0.6-0.1,1.1-0.1,1.3-0.2c0,0,0.1,0,0.1,0c0.2-0.2,0.4-0.6,0.2-1
	c-0.4-0.4-1.4-0.7-2.1-1c-0.8-0.3-0.8-0.8-0.9-1c0,0,0-0.1,0-0.1c-0.8,0.1-2.6-0.6-2.6-0.6s1.5-0.1,1.9-0.3c0.2-0.1,0.5-0.3,1-0.5
	l0,0c0.6-0.2,1.3-0.5,1.9-0.6c1.2-0.2,2.7,1,2.7,1s1.3,0.2,2.6-0.2c1.3-0.5,4-0.4,3.9-0.4c-0.8,0.1-1.7,0.7-2.5,0.7
	c0.6,0,1.5,0.4,2,0.8c2.4,1.6-0.6,3.7-2.2,4.5c-2.4-0.3-3.8,0.7-3.8,0.7s3,0,2.9,0.9c-0.2,0.9-1.5,1.4-3,1.8
	c-1.4,0.3-2.6,1.8-2.6,1.8c0.6,0.1,1.2,0.7,1.2,0.7s-1.5,0.2-1.8,0.3c-0.3,0.1-1.1,1.9-1.7,2.7c-0.6,0.8-2.9,1.4-2.9,1.4
	c1,0.6,4.3,1,4.3,1c-1.8,0.7-3.9,0.8-4.7,0.8c0.5,0.3,5.5,3.5,5.7,3.6c0.3,0.2,4.4,2.8,5.8,3.6c6,3.5,12.1,6.7,18.6,9.1
	c2,0.6,3.9,1.4,5.9,2c2.2,0.7,4.4,1.3,6.7,1.8c2,0.5,4.1,0.8,6.2,1.1c3.7,0.5,7.5,0.8,11.2,0.7c3.8-0.1,7.5-0.6,11.2-1.3
	c4.3-0.8,8.6-1.7,12.7-2.9c0.7-0.2,1.4-0.4,2.1-0.6c5.8-1.8,11.4-4.3,16.8-7.1c1.4-0.7,2.8-1.4,4.2-2.2c0,0,0.1,0,0.1-0.1
	c0,0,0.1,0,0.1,0c-0.1,0.1-10.1,8.4-14.9,11.4c-1.1,0.6-2.1,1.3-3.2,1.9c-1.8,1-3.6,2-5.4,2.9c-1.6,0.8-3.1,1.6-4.7,2.3
	c-0.8,0.4-1.7,0.7-2.5,1c0,0-0.1,0.1-0.1,0.1c0,0,0,0,0,0c-10.4,4.1-21,5.5-32.1,6.3c-9.6,0.7-23.6,1.1-38-0.7
	C70.5,177.9,58,170,58,170c21.5,3.8,32.9,3.1,38.1,2.2c-7.9-5-14.6-11.3-23.4-16.8c-18.4-11.5-35.9-19.2-54.3-19.6l0,0
	c-2.6-0.1-5.3,0-8,0.3c0,0,7,1.7,12,8.4c-1.6,6.5,6.9,21,19.6,32.1c2.2,1.9,4.6,4,7.2,6.1c-2.3,0-9.6-0.2-9.6-0.2
	c6.8,4.4,24.7,10.3,24.7,10.3c-3.9,1.3-10.7,2.4-10.7,2.4c0.4,0.5,13.4,7.2,37.5,8.2c13.2,0.5,26.4-1.8,38.5-6.9
	c0.1-0.1,0.2-0.1,0.3-0.1c0.2-0.1,0.3-0.2,0.4-0.2c0,0,0,0,0,0c0,0,0.1,0,0.1,0c0,0-0.3,0.4-1,0.9c-7.3,6.7-16.7,10.8-26.2,13.4
	c-5.1,1.4-10.4,2.4-15.6,3.1c-0.8,0.1-1.6,0.2-2.4,0.3c-0.3,0.1-0.6,0.3-0.7,0.5c-2.6,8.1-2.7,16.9-2.2,25.3c0.2,4.5,0.8,9,1.6,13.5
	c0,0,0,0.1,0,0.1c0.6-0.6,1.3-1.2,2.1-1.9c0,0,2.4-2,6.6-2.6c0,0-0.1-0.1-0.2-0.2c0,0-0.1-0.1-0.2-0.2c-0.9-0.8-2.3-1.1-3.5-1.3
	c-0.3-0.1-0.6-0.1-0.9-0.1c0.1,0,0.4-0.1,0.8-0.1c2.6-0.5,5.7-1,8.3-0.5c0.1,0,0.1,0,0.2,0c1.5,0.3,2.9,1.4,3.7,2.7
	c0.1,0.1,0.1,0.3,0.2,0.4c0.1,0.2,0.2,0.4,0.3,0.5c0,0,0,0.1,0,0.1c0.1,0.2,0.1,0.4,0.2,0.6c0,0.2,0.1,0.4,0.1,0.6c0,0,0,0.1,0,0.1
	c0,0.2,0,0.4,0,0.6c0,0.7-0.1,1.4-0.4,2c-1,2.2-2.8,6.4-2.8,8c0,0.7-3.8,3.4-4.8,4.4c-0.1,0.1-0.1,0.1-0.2,0.2c0.1,0,0.2,0,0.3,0
	c0.1,0,0.2,0,0.2,0c1.1-0.1,2.2-0.3,3.3-0.4c0.6,0,1.2-0.1,1.6-0.1h0.1c0,0,2.6,4.8,4.6,6.4c2,1.6,3.8,5,4.4,7.6c0,0,0.1,0,0.1,0
	c0.2,0,0.5-0.1,0.8-0.2c0,0,0.1,0,0.1,0c0.1,0,0.2-0.1,0.3-0.1c0.3-0.1,0.6-0.3,0.7-0.3c0.4-0.1,0.8-0.3,1.1-0.5
	c0.3-0.1,0.7-0.3,1.1-0.5c0,0,0.1,0,0.1,0c0,0-3.8,5.6-8.2,8.2c0.3,0,3.8,0.6,5.6-0.2c0,0,0,0,0,0c0,0,0.3,6.7-6.2,13.9
	c-0.4,0.5,4.8,6.8,8.1,10.5c0.1,0.1,0.3,0.3,0.4,0.4c0.1,0.1,0.2,0.2,0.3,0.3c0.2,0.3,0.5,0.5,0.7,0.7c0.2,0.2,0.3,0.4,0.4,0.5
	c0,0,0,0,0,0c0.3,0.3,0.5,0.5,0.6,0.6c8.4,9.1,18.3,17,28.4,24c4.8,3.3,9.7,6.4,14.6,9.4c17.7,10.5,36.4,19.5,55.2,27.7
	c11.7,5.1,22.7,11.7,32.4,20.1c6.2,5.3,11.8,11.3,16.7,17.8c5.7,7.7,9.8,16.3,14.9,24.3c8.5,13.3,18.5,25.7,30.5,36
	c6.8,5.9,14.3,11.2,22.4,15.1c2.2,1.1,4.4,2.1,6.8,2.9c0.9,0.3,1.9,0.7,2.8,0.8c-0.2,2.2-2.5,4-4.1,5.2c13.5,2.7,27.5,2.3,41-0.1
	c-2.4,2.6-4.9,5.2-7.3,7.8c13.7-0.5,27.8-4.7,40.1-10.5c11.9-5.6,22.7-13.3,31.5-23.1c5.2-5.7,9.6-12.1,13.2-18.9
	c0.4-0.8,0.5-0.9-0.3-1.2c-5.1-2.7-11.1-3.8-16.8-4.4c-17.1-1.8-33.8,4-49.8,9.5c-6.8,2.3-13.7,5.2-20.8,6.3
	c-10.1,1.5-20.5,1.6-29.9-3.2c-8.8-4.5-16.1-11.8-22.4-19.2c-6-7.1-11.3-14.7-16.2-22.6c-9.8-15.9-17.7-32.9-23.8-50.5
	c-5.2-14.9-9.2-30.6-8.6-46.5c0.5-12.7,3.7-26.2,10.5-37.2c3.4-5.4,7.8-10.2,13.3-13.6c2.9-1.8,6.1-3.1,9.4-4c1.7-0.4,3.4-0.8,5.2-1
	c-16.1-3.7-33.8-7.1-53.1-10.1c-12.6-2-24.3-3.5-35.2-4.6c11,0.7,23,1.7,35.9,3.1c109.8,12.1,169.7,41.3,169.7,41.3s4.9,3.2,2.2,7.2
	c-1.3,1.9-3.9,1.7-5.8,1.2c-2.1-1-6.2-3-12.3-5.6c-6.9-3-16.4-7-28.5-11.3c2.3,4.6,5.1,9,8.3,13c4.4,5.7,9.7,10.8,15.7,14.8
	c8,5.2,17.3,7.9,26.8,8.7c9.2,0.7,18.4-0.7,27.1-3.6c6.2-2.1,11.9-5.1,18-7.3c8.4-3.1,16.6-6.4,25.4-8.2c4.9-1,10-1.5,15-1.4
	c0.6,0,1.3,0,1.9,0.1c0.5,0,0.2-6.9,0.1-7.6c-0.3-2.1-0.8-4.1-1.5-6.1c-1.5-4-3.9-7.9-7.4-10.6c-0.1-0.1-0.1-0.1-0.2-0.2
	c-1.7-1.6-3.5-3-5.5-4.4c-8.8-6-18.7-10.5-28.5-14.8c-0.9-0.4-1.8-0.8-2.7-1.1c-11.7-5-35.8-13.9-35.8-13.9c0,0,0.1,0,0.1,0
	c0,0,14.5-0.3,21.7-0.1c0.8,0,7.8,0.3,8.2,0.4c2.1,0.1,4.1,0.3,6.2,0.5c4.4,0.4,8.9,0.9,13.3,1.5c1.1,0.1,2.2,0.3,3.3,0.5
	c5.6,0.8,11.2,1.9,16.7,3.2c0,0,0.1,0,0.2,0c3,1,6.4,1.5,9.5,2.3c1.8,0.5,3.5,0.9,5.2,1.4c3.8,1,7.6,2.2,11.4,3.4
	c2.4,0.8,4.8,1.6,7.2,2.4c0.6,0.2,3.6,1.7,4.1,1.4c1.2-0.8,7.9-5.5,13.2-6.5c5.8-1.1,11.2-3.3,11.2-9.8
	C563.6,236.1,558.2,229,552.4,224.3z M445.9,283.6c0,0.2-0.1,0.4-0.1,0.7c0,0.1-0.1,0.3-0.1,0.4c-0.1,0.3-0.4,0.7-0.6,1.1
	c-1.3,1.9-3.9,1.6-5.8,1.1c-2.1-1.1-6.2-3.1-12.1-5.9c-22.6-10.7-74.7-32-153.5-46c-12.3-2.2-23.5-4-34.1-5.4c0,0-0.1,0-0.1,0
	c-0.1,0-0.2,0-0.3,0c0,0,0,0,0,0c0,0-0.1,0-0.1,0c2,0.2,4,0.4,6,0.6c0.3,0,0.6,0.1,1,0.1c11.5,1.2,23,2.5,34.4,4.1
	c14.4,2,28.8,4.4,43.1,7.3c13,2.6,26,5.8,38.8,9c5.4,1.4,10.8,2.8,16.2,4.3c0,0,0,0,0,0c0.8,0.2,1.7,0.5,2.5,0.7
	c5.2,1.5,10.4,3,15.6,4.7c8.6,2.8,17.1,5.8,25.4,9.1c0.5,0.2,1,0.4,1.5,0.6c0.7,0.3,1.4,0.6,2.1,0.8c3.6,1.5,7.3,3,10.8,4.6
	c2.1,0.9,4.1,1.9,6.2,2.8c0,0,0.1,0,0.1,0c0.1,0,0.2,0.1,0.3,0.1c0.1,0,0.1,0,0.1,0S446.2,280.7,445.9,283.6z M442.6,261.2
	c0,0,4.8,3.4,2,7.3c-1.3,1.9-4,1.6-5.8,1c-2.1-1.1-6.1-3.2-12.1-6c-16.8-8.1-49.8-22.3-98-35.1c-16.6-4.4-34.9-8.7-55.1-12.5
	c-12.6-2.4-24.2-4.3-35-5.8c11,1,22.9,2.4,35.7,4.3c16.7,2.4,32.2,5.2,46.6,8.1c0,0,0,0,0,0C400.3,238.8,442.6,261.2,442.6,261.2z
	 M575.6,285.2c-0.2,0-0.3,0.1-0.4,0.1c-1.7,0.3-5.1-0.2-4.6-2.7c0.3-1.5,2.3-2.8,3.6-3.3c3.7-1.5,7.3-2.9,10.6-5.1
	c1.2-0.8,2.3-1.7,3.4-2.7c0.3-0.3,1.8-1.5,1.7-1.9c-0.5-3.7-1.4-7-2.6-9.8c-0.4,0.9-1,2.2-2,3.6c-2,3.5-4.5,5.1-5.4,5.6
	c-1.3,0.7-3.9,1.5-5.1-0.8c-1.2-2.3,2.1-4.2,2.1-4.2c4.9-3.5,6.8-7.1,7.6-9.4c-2.6-4-5.1-6.2-5.1-6.2c0,0-7,17.5-25.3,26.4
	c-13.1,6.4-25.2,13.8-32.9,22.6c-1.1,1.3-2.1,2.6-3,3.9l0.1,0c18.6,2.1,27.7,9.9,30.7,13.7c0.2,0.3,0.4,0.5,0.5,0.7c0,0,0,0,0.1,0
	c1.1-0.2,19.8-3.6,31.3-16.3c-0.4,0-0.8,0-1.3,0c-2.8-0.1-13.7,0.2-11-5.3c0.9-1.8,4.2-1.3,5.8-1.2c2.8,0.2,5.6,0.5,8.4,0.3
	c3.9-0.2,4.6-3.7,5.5-6.9c0.9-3.1,1.5-6,1.7-8.8C585.7,282.9,578.1,284.7,575.6,285.2z"/>
<path id="Face_Dark" class="st1" d="M255.3,140.4c2.6,1.1,4.8,3.4,6.2,5.9c-3.8-0.3-7.7-0.5-11.5-0.7c1.8,0.6,3,1.2,3.3,1.4
	c0,0-3.2-0.5-5.4-0.5c0,0,1.1,0.6,1.7,1.3c0,0,0.1,1.3-0.1,2c-0.2,0.7-0.5,1.8-0.1,3c0.4,1.2,1.6,3.9,1.8,4.9c0,0-3.7-0.3-5.9-0.3
	c0,0,6,2.9,7.8,4c0,0-1.2-0.1-2,0c0,0-2.1,1.2-2.5,2c-0.4,0.8,0,4.3-2,5.9c-2,1.6-4.6,1.2-5.5,2.2c-0.8,1,0.5,2.3,0.5,2.3
	s-4.3-1-5.7-1.1c0,0,2.1,2.1,3.4,3c0,0-1.7-0.4-3.4-0.2c-1.7,0.2-7.2,0.7-10.1-1.6c-2.9-2.3-1.4-4.1-0.7-4.8
	c0.7-0.7,0.8-1.6-1.1-3.9c-1.9-2.2-1.6-2.2-1.3-3.4c0,0,6.7,0,9.2,0.7c0,0-6.6-3.7-9.2-4.3c0,0,0.1-0.8,1.6-1.9c1.4-1.1,3.4-2,4-4.7
	c0,0,4.9,0.9,7.6,1.3c-3-1.1-4.4-2.8-9.4-4.2c0,0,3.4-0.2,4.7-0.3c0,0,2.4-0.4,3.5-1.4c0.4-0.4,1-0.9,1.7-1.4
	c-9.6,0.2-19.1,1.1-28.5,3.3c-15,3.5-30,7.3-44.9,10.9c-0.1,0-0.3,0.1-0.4,0.1c2.5-1.6,4.7-3.8,6.7-6c-4.4,1.1-8.9,2-13.4,2.8
	c-7.4,1.3-14.9,2.4-22.4,2c-12.4-0.7-24.8-3.5-36.9-6.3l-3.2-0.7c0.3,0.2,4.4,2.7,5.8,3.6c6,3.5,12.1,6.7,18.6,9.1
	c2,0.6,3.9,1.4,5.9,2c2.2,0.7,4.4,1.3,6.7,1.8c2,0.5,4.1,0.8,6.2,1.1c3.7,0.5,7.5,0.8,11.2,0.7c3.8-0.1,7.5-0.6,11.2-1.3
	c4.3-0.8,8.6-1.7,12.7-2.9c0.7-0.2,1.4-0.4,2.1-0.6c5.8-1.8,11.4-4.3,16.8-7.1c1.4-0.7,2.8-1.4,4.2-2.2c0,0,0.1,0,0.1-0.1
	c0,0,0.1,0,0.1,0c-0.1,0.1-10.1,8.4-14.9,11.4c-1.1,0.6-2.1,1.3-3.2,1.9c-1.8,1-3.6,2-5.4,2.9c-1.6,0.8-3.1,1.6-4.7,2.3
	c-0.8,0.4-1.7,0.7-2.5,1c0,0-0.1,0.1-0.1,0.1c-0.4,0.2-0.9,0.4-1.3,0.7c-2.9,1.8-5.8,3.4-8.9,4.9c0,0-0.1,0-0.1,0.1
	c-1,0.5-2,0.9-3.1,1.4c0,0-0.1,0-0.1,0c0,0-0.1,0-0.1,0c-2.8,1.2-5.6,2.3-8.5,3.3c-2.2,0.8-4.5,1.5-6.8,2.2
	c-16.3,4.8-26.2,4.6-26.2,4.6c1.1,0.5,2.6,0.9,3.9,1.2c4.9,1.1,16.6,2.1,17.2,2.3c0,0,0.1,0,0.1,0c0,0-0.3,0.4-1,0.9
	c-7.3,6.7-16.7,10.8-26.2,13.4c-5.1,1.4-10.4,2.4-15.6,3.1c-0.8,0.1-1.6,0.2-2.4,0.3c-0.3,0.1-0.6,0.3-0.7,0.5
	c-2.6,8.1-2.7,16.9-2.2,25.3c0.2,4.5,0.8,9,1.6,13.5c0,0,0,0.1,0,0.1c0.6-0.6,1.3-1.2,2.1-1.9c0,0,2.4-2,6.6-2.6
	c0,0-0.1-0.1-0.2-0.2c0,0-0.1-0.1-0.2-0.2c-0.9-0.8-2.3-1.1-3.5-1.3c-0.3-0.1-0.6-0.1-0.9-0.1c0.1,0,0.4-0.1,0.8-0.1
	c2.6-0.5,5.7-1,8.3-0.5c0.1,0,0.1,0,0.2,0c1.5,0.3,2.9,1.4,3.7,2.7c0.1,0.1,0.1,0.3,0.2,0.4c0.1,0.2,0.2,0.4,0.3,0.5
	c0,0,0,0.1,0,0.1c0.1,0.2,0.1,0.4,0.2,0.6c0,0.2,0.1,0.4,0.1,0.6c0,0,0,0.1,0,0.1c0,0.2,0,0.4,0,0.6c0,0.7-0.1,1.4-0.4,2
	c-1,2.2-2.8,6.4-2.8,8c0,0.7-3.8,3.4-4.8,4.4c-0.1,0.1-0.1,0.1-0.2,0.2c0.1,0,0.2,0,0.3,0c0.1,0,0.2,0,0.2,0
	c1.1-0.1,2.2-0.3,3.3-0.4c0.6,0,1.2-0.1,1.6-0.1h0.1c0,0,2.6,4.8,4.6,6.4c2,1.6,3.8,5,4.4,7.6c0,0,0.1,0,0.1,0
	c0.2,0,0.5-0.1,0.8-0.2c0,0,0.1,0,0.1,0c0.1,0,0.2-0.1,0.3-0.1c0.3-0.1,0.6-0.3,0.7-0.3c0.4-0.1,0.8-0.3,1.1-0.5
	c0.3-0.1,0.7-0.3,1.1-0.5c0,0,0.1,0,0.1,0c0,0-3.8,5.6-8.2,8.2c0.3,0,3.8,0.6,5.6-0.2c0,0,0,0,0,0c0,0,0.3,6.7-6.2,13.9
	c-0.4,0.5,4.8,6.8,8.1,10.5c0.1,0.1,0.3,0.3,0.4,0.4c0.1,0.1,0.2,0.2,0.3,0.3c0.2,0.3,0.5,0.5,0.7,0.7c0.2,0.2,0.3,0.4,0.4,0.5
	c0.2-0.2,2-1.7,2.9-2.5c1.6-1.3,3.2-2.4,4.9-3.6c1.6-1.1,5.2-3,5.2-3c0,0,0,0,0,0c0.2-1.6,0.7-2.6,1.2-3.2c0.6-0.8,1.5-0.9,2.3-1.4
	c0.3-0.2,0.7-0.4,1-0.7c0.1-0.1,0.2-0.3,0.3-0.4c0.1-0.1,0.1-0.2,0.2-0.3c0.1-0.1,0.2-0.3,0.2-0.4c0.1-0.1,0.1-0.3,0.2-0.4
	c0.2-0.4,0.3-0.9,0.5-1.5c0.3-1,1.1-2,1.1-2c0,0,0,0,0,0c-1.2-0.4-2.3-0.8-3.5-1.2c-1.9-0.6-3.8-1.1-5.7-1.5
	c-1.3-0.3-2.5-0.6-3.8-0.8c10-6.6,21-11.5,32.4-15.4c3.8-1.3,11.8-3.6,11.8-3.6c-1.1-1-2.2-2.3-2.8-3.4c-1.4-2.8,1-7,2-8.6
	c1-1.6-0.8-2.6-0.8-2.6c1.6-1.2,2.8-3.2,2.8-3.2c0,0-0.1,0-0.1,0c-3.6,0.8-6.9,1-6.9,1l0,0c-2-1.6-2.8-5-2.4-6.8
	c0.4-1.8,1.2-4.6,1.2-4.6h-0.1c-0.7,0.1-1.4,0-2.1-0.1c-1.2-0.1-2.2-0.4-2.4-0.5l0,0c7.6-1,11.4-3.8,11.4-3.8c0,0-0.1,0-0.1,0
	c-2,0.4-5.5,0.6-5.5,0.6v0c0-0.2,0.3-2.2,1.8-3.3c0.6-0.4,1.7-0.4,3.2-0.2c0.8,0.1,1.7,0.3,2.5,0.5c0.4,0.1,0.8,0.2,1.3,0.3
	c1.5,0.4,3,0.9,4,1.2c0,0,0,0,0.1,0c3,1,4.4,5,4.4,5c0.8,2.6,2.1,4.5,3.6,5.9c0,0,0,0,0,0c0.7,0.6,1.4,1.1,2.2,1.6
	c0.3,0.2,0.6,0.4,1,0.5c0.3,0.1,0.6,0.3,1,0.4c1,0.4,1.9,0.7,2.9,1c0.6,0.2,1.2,0.3,1.8,0.4c0.3,0.1,0.6,0.1,0.9,0.2
	c0.5,0.1,1,0.3,1.5,0.6c1.3,0.8,2.3,2.2,3,3.5c5.3-0.6,10.7-1,16-1.3c-0.7-0.8-1.4-1.5-2.1-2.2c-5.3-4.9-12.8-8.1-19.5-10.2
	c13.3-1.8,26.8-2.3,40.3-2.8c7.7-0.3,15.4-0.5,23.1-0.6c-1.6-1.3-3.8-2.1-5.8-2.9c4.5-0.5,9.2-0.1,13.7,0.3c-3.8-1.9-8.2-3-12.3-4.2
	c-2.9-0.8-5.8-1.7-8.7-2.4c0,0,0.2,0,0.3,0c0,0-0.1,0-0.2,0c2,0.2,4,0.4,6,0.6c0.3,0,0.6,0.1,1,0.1c11.5,1.2,23,2.5,34.4,4.1
	c14.4,2,28.8,4.4,43.1,7.3c13,2.6,26,5.8,38.8,9c5.4,1.4,10.8,2.8,16.2,4.3c-8.8-2.5-18.4-5.1-28.8-7.6
	c-6.9-6.4-13.6-12.9-20.9-18.8c-16.6-4.4-34.9-8.7-55.1-12.5c-12.6-2.4-24.2-4.3-35-5.8c11,1,22.9,2.4,35.7,4.3
	c16.7,2.4,32.3,5.2,46.6,8.1c-7.8-5.6-16.1-10.2-24.2-15.2c-2.8-1.7-5.7-3.5-8.1-5.8c-1.2-1.1-2.5-2.6-2.7-4.4c0-0.3,0-0.7,0-1
	c0,0,0-0.1,0-0.1c0-0.2,0-0.4,0.1-0.7c0-0.1,0-0.1,0-0.2c0,0,0.1-0.1,0.1-0.1c0.1-0.2,0.1-0.4,0.2-0.6c0-0.1,0.1-0.2,0.1-0.3
	c0.7-1.7,2-3.2,3.3-4.2c0.2-0.1,0.4-0.3,0.6-0.5c0.1-0.1,0.3-0.2,0.4-0.3c0.2-0.1,0.3-0.3,0.5-0.4c0.2-0.1,0.4-0.3,0.5-0.5
	c0,0,0,0,0,0c0.1,0,0.1-0.1,0.2-0.2c0,0,0.1-0.1,0.1-0.1l0,0c0.1,0,0.1-0.1,0.1-0.1l0.4-0.9c11.1-19.9,38.8-24.9,38.8-24.9
	c-2.9-4-6.2-6.2-6.2-6.2c3.7-1.3,8.4-0.5,10.2-0.1c0-0.1,0-0.2,0-0.2c-0.6-2.4-0.3-3.8,0.3-4.3c0,0,4,0.1,5.2,0.6
	c-0.4-0.2-2.2-1.1-3.4-2.1c-4.7-1.1-9.4-2.2-14-3c-19-3.7-38.5-5.1-57.8-5.8C262.2,140.5,258.7,140.4,255.3,140.4L255.3,140.4z
	 M374.9,161.3c-0.8,0.5-1.9,1.4-3,2.5v0.3c0,3.1,2.2,9.5,6.9,13.3c6.1,5,17.5,10,17.5,10c-0.5-1.9-0.3-4.4-0.3-4.4
	c1.7,2.8,5.3,6.9,10.8,10c0.4,0.2,0.7,0.4,1.1,0.6c1.7,0.8,4,1.8,6.2,2.7c1.6,0.6,3.5,1.2,4.9,1.6c6,1.2,12.3,2.2,18.3,0.7
	c3.6-0.9,7.5-2.7,10.4-5.2l0,0c0,0,0,0,0,0c-6.2,2.3-12.9,3-19.3,0.8c-1.1-0.4-2.2-0.7-3.2-1.2c-0.4-0.2-0.8-0.4-1.2-0.6
	c-6.4-3.2-12.2-7.9-17.9-12.2C396.4,172.7,386.2,166.1,374.9,161.3L374.9,161.3z M452.2,168.5c19.6,20.3,5.8,37.7,5.8,37.7
	s-24.7-5.1-43.5-4.1c-9,0.5-19.5,4.6-28.2,8.7c0.1,0,0.2,0,0.2,0h0c1.8,0.1,3.5,0.3,5.1,0.6c1,0.2,2,0.4,2.9,0.7
	c2.8,0.8,5,2,6.8,3.4c0.6,0.5,1.2,0.9,1.7,1.4c0.3,0.2,0.5,0.5,0.8,0.7c4.3,4.4,5.2,9.2,5.2,9.2c0,0,0,0,0,0
	c0.2-0.1,0.3-0.3,0.5-0.4c1.6-1.2,3.4-2.2,5.2-3.1c1.5-0.7,3-1.4,4.5-2.1c5.4-2.3,11-4.2,16.7-5.5c6.8-3.2,26.4-5.1,30.2-4.8
	c3.9,0.3,9,1,9-1.3c0-2.2-2.2-10.3-8.4-22.5C462.8,179,456.2,172.2,452.2,168.5L452.2,168.5z M409.1,226.8
	c12.3-0.4,21.2,12.3,23.6,15.5h0.1h0.2h0c7.1,0,14.3-0.3,21.4-0.1c0.8,0,7.8,0.3,8.2,0.4c2.1,0.1,4.1,0.3,6.2,0.5
	c4.4,0.4,8.9,0.9,13.3,1.5c1.1,0.1,2.2,0.3,3.3,0.5c0,0-3.9-3.5-5.7-6.3c-1.8-2.9-1.7-5.9-1.7-5.9l0,0c4.6-0.3,7.3-2.4,8-5.1
	c0.8-3.3-2.8-5.9-2.8-5.9l-0.2-0.1c1.3,1.2,1.8,2.4,1.2,3.7c-3,6.1-18.7-2.1-35.6-3.6C431.8,220.3,409.1,226.8,409.1,226.8
	L409.1,226.8z M533,169.4c-1,2-5.4,7-24.4,3.8c0.1,0.1,0.2,0.1,0.4,0.2c3.4,1.7,7,3.8,10.4,5.9c4.6,2.8,8.8,5.7,11.9,8.4
	c0,0,6.3-7.7,2.5-16.6c-0.2-0.5-0.5-1-0.7-1.5C533.1,169.5,533.1,169.4,533,169.4L533,169.4z"/>
<path id="White_Face" class="st2" d="M95.5,121.5c-3,0.2-6,0.4-9.1,0.6c-16.6,0.9-33.2,0.5-49.8,1.5c-2.5,0.2-4.9,0.2-7.4,0.2h-0.1
	c1.3,0.3,2.7,0.7,4,1c1.8,0.5,3.6,1,5.4,1.5c6.1,1.8,12.1,3.9,18,6.1c2.9,1.1,5.8,2.3,8.7,3.6c3.1,1.3,6.1,2.8,9.1,4.3
	c0.8-1.2,4.5-1.3,4.5-1.3l-0.5-1c0,0,1,0.6,2.3,0.6c0.1,0,0.2,0,0.3,0c0.3-0.1,0.7-0.2,0.9-0.3c0.4-0.3,0.8-0.6,1.6-0.9
	c1.4-0.5,3.3-0.3,3.3-0.3c0.5-0.9,2.8-1.8,2.8-1.8c-0.4-0.4-1-0.9-1-0.9c0.9-0.1,3,0.3,3.9,0.4c0.6-0.1,1.1-0.1,1.3-0.2
	c0,0,0.1,0,0.1,0c0.2-0.2,0.4-0.6,0.2-1c-0.4-0.4-1.4-0.7-2.1-1c-0.8-0.3-0.8-0.8-0.9-1c0,0,0-0.1,0-0.1c-0.8,0.1-2.6-0.6-2.6-0.6
	s1.5-0.1,1.9-0.3c0.2-0.1,0.5-0.3,1-0.5l0.2-0.2c0,0,0.1,0,0.1-0.1c0,0,0.1-0.1,0.2-0.1c0,0,0.1-0.1,0.1-0.1s1.3-1.3,2.3-1.5
	c1-0.3,9.1-4,9.1-4s-2.2,0.1-4.2,0c-2.1-0.1-3.8-0.7-3.8-0.7C94.3,123.1,95,122.1,95.5,121.5L95.5,121.5z M18.4,135.8
	c-2.6-0.1-5.3,0-8,0.3c0,0,7,1.7,12,8.4c-1.6,6.5,6.9,21,19.6,32.1c2.2,1.9,4.6,4,7.2,6.1c-2.3,0-9.6-0.2-9.6-0.2
	c6.8,4.4,24.7,10.3,24.7,10.3c-3.9,1.3-10.7,2.4-10.7,2.4c0.4,0.5,13.4,7.2,37.5,8.2c13.2,0.5,26.4-1.8,38.5-6.9
	c0.1-0.1,0.2-0.1,0.3-0.1c0.2-0.1,0.3-0.2,0.4-0.2c-0.5-0.2-12.3-1.2-17.2-2.3c-1.3-0.3-2.8-0.8-3.9-1.3c0,0,9.9,0.1,26.2-4.6
	c2.3-0.6,4.6-1.4,6.8-2.2c2.8-1,5.7-2.1,8.5-3.3c0,0,0.1,0,0.1,0c0,0,0.1,0,0.1,0c1-0.4,2-0.9,3.1-1.4c0,0,0.1-0.1,0.1-0.1
	c3.1-1.4,6-3.1,8.9-4.9c0.5-0.2,0.9-0.5,1.3-0.7c-10.4,4.1-21,5.5-32.2,6.3c-9.6,0.7-23.6,1.1-38-0.7C70.5,177.9,58,170,58,170
	c21.5,3.8,32.9,3.1,38.1,2.2c-7.9-5-14.6-11.3-23.4-16.8C54.3,144,36.8,136.2,18.4,135.8L18.4,135.8z M368.5,147.3
	c-3.5-0.1-11.2,0.3-17.1,4.6l0.7,0.4c0.1,0,0.1,0.1,0.2,0.1c0.2,0.1,0.3,0.2,0.5,0.3c0.1,0,0.1,0.1,0.2,0.1c0.2,0.1,0.3,0.2,0.5,0.3
	c0.1,0,0.1,0.1,0.2,0.1c0.2,0.1,0.4,0.3,0.6,0.4c0,0,0,0,0,0c0.2,0.1,0.3,0.2,0.4,0.3c0.1,0,0.1,0.1,0.2,0.1c0.1,0,0.1,0.1,0.2,0.1
	c0,0,0.1,0.1,0.1,0.1c0,0,0,0,0,0c0.1,0,0.1,0.1,0.1,0.1c0,0,0,0,0,0c0.1,0,0.1,0.1,0.1,0.1c-1.5-0.4-4.6-0.8-6.1-1
	c-0.4,0.4-1.4,1.4-1.8,1.9c0,0-0.9,1.1-1.4,4.1c-0.2,1,0.4,3.1,1.3,4c1,0.8,4,3.6,4.5,4.9c0.5,1.3-0.4,3.4-0.2,4.3
	c0,0-2.3-1.5-3.6-1.9c0.3,0.3,2.9,3,1.4,3.3c0,0-1.3-1.5-3.7-2.6c-2.4-1.1-6.9-3.3-8.2-4.5c-1.2-1.1-2.1-3.5-2.1-3.8
	c0.1,0.2,0.9,1.2,1.5,1.3c0.7,0.1,2.6,1.4,2.9,1.5c-0.1-0.2-0.8-1.8-1.6-2.5c-0.8-0.7-2.9-1.7-4-3l1.2-0.4c0,0,0.3-2.4-0.2-4.7
	c-1.8-0.4-6.5-1.2-10.2,0.1c0,0,3.4,2.2,6.2,6.2c0,0-27.7,5.1-38.8,24.9l-0.5,0.9c0,0,0,0.1-0.1,0.2c0.1-0.1,0.2-0.2,0.2-0.2
	s0,0,0.1,0h0c0,0,0,0,0,0c0.4-0.4,4.8-4.1,7.5-5.6c3.9-2.2,8.2-3.5,12.4-4.8c4.4-1.3,9.5-2.3,14.1-2.8c15.5-1.5,30.7,1.1,45.1,6
	c14,4.7,26.8,12,41.1,15.8c1.8,0.5,3.7,0.9,5.5,1.3c0.3,0.1,0.7,0.1,1,0.2c-1.4-0.4-3.3-1-4.9-1.6c-2.2-0.9-4.5-1.8-6.2-2.7
	c-0.4-0.2-0.8-0.4-1.1-0.6c-5.5-3.1-9.2-7.2-10.8-10c0,0-0.3,2.5,0.3,4.4c0,0-11.4-5-17.5-10c-4.7-3.8-6.9-10.3-6.9-13.3v-0.3
	c-0.8,0.8-1.6,1.7-2.1,2.7c-1.7,3.1-1.6,5.4-1.6,5.4s-1.4-0.6-2.8-1.6c0,0,0.7,2.8,3,4c0,0,1.3,1.8,0.8,3.1c0,0-4.1-0.3-5.1-1.1
	c-1-0.8-4-1.9-4-1.9s1-0.2,2.1-0.1c0,0-1.1-2.7-2.2-3.6c-1.1-0.9-3.2-2.6-2.7-4.7c0,0,2.5,0.2,3.7,0.7c0,0-4-3.5-6.4-4l3.3-0.2
	c0,0-0.5-2.4,3.8-4.4c4.3-2.1,5.6-3.4,6.5-4.7c0.9-1.3,1.2-2.7,2.4-3.5c0,0,2.1,1.2,3.7,2.4c0,0-0.9-2.8-4-4.9
	C370.4,147.4,369.7,147.3,368.5,147.3L368.5,147.3z M314.2,184.3c-1.5,0-3,0-4.5,0.1c-0.1,0-1.8,0.2-1.8,0.2
	c1.3,4.3,7.1,10.6,7.1,10.6c-2.8,0.2-6.3-0.8-6.3-0.8c5.1,6.9,19.3,15.6,30.4,17.7c11,2.2,21.1,1.8,21.1,1.8
	c-1.6,0.8-4.1,1.8-4.1,1.8s4.3-0.2,10.2,1c0.8,0.1,1.6,0.4,2.5,0.6c3.9,1,8.8,2.6,11.6,3.6c0.3,0.1,0.6,0.2,0.9,0.3
	c-1.4-0.9-2.7-1.8-4.2-2.7c-2.9-1.8-6.9-4.2-10.6-6.1c-5.6-2.9-11.3-5.7-17.2-8c-3.7-1.9-7.3-3.8-10.8-5.9
	c-4.8-2.8-9.6-5.7-14.1-8.9c-2.1-1.5-4.6-2.8-6.5-4.6c-0.1-0.1-0.3-0.2-0.4-0.3C316.5,184.4,315.3,184.3,314.2,184.3L314.2,184.3z
	 M356.7,187.2c2.5,0.6,5.1,2.5,7,3.9c1.2,0.9,2.3,1.8,3.4,2.7c0.2,0.2,3.2,2,3.4,2c0.4,0.1,0.9,0.3,1.3,0.3c1.5,0,2.6-1,2.7-2.7h0
	c0.1-1.7-2-2.6-2-2.6c-1.6-0.4-3.2-0.9-4.9-1.3C364,188.7,358.2,187.5,356.7,187.2L356.7,187.2z M238.7,229.5
	c2.9,0.8,5.8,1.6,8.7,2.4c4.1,1.2,8.5,2.3,12.3,4.2c-4.5-0.3-9.2-0.8-13.7-0.3c1.9,0.8,4.2,1.5,5.8,2.9c-7.7,0.1-15.4,0.3-23.1,0.6
	c-13.4,0.5-26.9,1-40.3,2.8c6.7,2.1,14.2,5.3,19.5,10.2c0.8,0.7,1.5,1.4,2.1,2.2c-5.3,0.3-10.6,0.8-16,1.3l0,0
	c1,2.1,1.4,4.3,1.4,4.3c-1.4,2.4-5.2,4.6-5.2,4.6c1.8,0.4,4.2,0,4.2,0c-1,3.4-0.2,5-0.2,8.4c0,3.4-4.2,4.8-10.9,5.8
	c-6.6,1-9.4-1.2-9.4-1.2l1-2.2c-2.2,0.4-8.7,0.6-8.7,0.6c4.2-1.8,9.7-5.6,9.7-5.6c-2.6,1-8,2.3-8,2.3s-1.6-1.2-3.2-2.7
	c0,0-8.1,2.3-11.8,3.6c-11.4,3.8-22.4,8.8-32.4,15.4c1.3,0.2,2.6,0.5,3.8,0.8c1.9,0.4,3.8,0.9,5.7,1.5c1.2,0.4,2.4,0.7,3.5,1.2
	c0,0,0,0,0,0c1.8-2,4.9-3.4,4.9-3.4c-1.6,2-1.8,4.2-1.8,4.7c0,0,0,0,0,0c3.5-5.6,9.5-5.1,9.5-5.1c-1.2,0.3-2.8,1.2-2.8,1.2
	s2.6,0.9,5.2,1.7c2.6,0.8,8.4,1.2,11.8,1.2c3.4,0,9.7,1.2,9.7,1.2c2.8-0.9,11.2-3.1,11.2-3.1c-2.9,1.8-8.1,4.4-8.1,4.4
	c10.6,5.8,1.5,17.8,1.5,17.8s-1.9,0.5-5.7,3.4c-3.8,2.9-4.8,6.8-4.8,6.8c2-1.8,4.8-3.5,4.8-3.5c-0.8,1.2-0.5,1.8-2.2,5.7
	c-1.7,3.8-5.8,3.7-8.8,4c-2.9,0.3-7.7-3.2-7.7-3.2c-1.7,0.6-4.8,3.5-4.8,3.5c1.4-4.6,6.5-9.5,6.5-9.5c-2.1,0.9-6,3.7-6,3.7
	c-2.1-1.7-9.7-3.8-14.8-6.6c-5.1-2.8-4.5-8.1-4.5-8.1c0.3-3.2,3.1-7.5,3.1-7.5c-1.7,0.9-3.5,2.9-3.5,2.9c0-0.6,0-1.2,0-1.7v0
	c0,0,0,0,0,0c0,0-3.7,1.9-5.2,3c-1.7,1.1-3.3,2.3-4.9,3.6c-0.9,0.7-2.7,2.3-2.9,2.5c0.3,0.3,0.5,0.5,0.6,0.6
	c8.4,9.1,18.3,17,28.4,24c4.8,3.3,9.7,6.4,14.6,9.4c17.7,10.5,36.4,19.5,55.2,27.7c11.7,5.1,22.7,11.7,32.4,20.1
	c6.2,5.3,11.8,11.3,16.7,17.8c5.7,7.7,9.8,16.3,14.9,24.3c8.5,13.3,18.5,25.7,30.5,36c6.8,5.9,14.3,11.2,22.4,15.1
	c2.2,1.1,4.4,2.1,6.8,2.9c0.9,0.3,1.9,0.7,2.8,0.8c-0.2,2.2-2.5,4-4.1,5.2c13.5,2.7,27.5,2.3,41-0.1c-2.4,2.6-4.9,5.2-7.3,7.8
	c13.7-0.5,27.8-4.7,40.1-10.5c11.9-5.6,22.7-13.3,31.5-23.1c5.2-5.7,9.6-12.1,13.2-18.9c0.4-0.8,0.5-0.9-0.3-1.2
	c-5.1-2.7-11.1-3.8-16.8-4.4c-17.1-1.8-33.8,4-49.8,9.5c-6.8,2.3-13.7,5.2-20.8,6.3c-10.1,1.5-20.5,1.6-29.9-3.2
	c-8.8-4.5-16.1-11.8-22.4-19.2c-6-7.1-11.3-14.7-16.2-22.6c-9.8-15.9-17.7-32.9-23.8-50.5c-5.2-14.9-9.2-30.6-8.6-46.5
	c0.5-12.7,3.7-26.2,10.5-37.2c3.4-5.4,7.8-10.2,13.3-13.6c2.9-1.8,6.1-3.1,9.4-4c1.7-0.4,3.4-0.8,5.2-1
	c-16.1-3.7-33.8-7.1-53.1-10.1c-12.6-2-24.3-3.5-35.2-4.6c11,0.7,23,1.7,35.9,3.1c109.8,12.1,169.7,41.3,169.7,41.3s4.9,3.2,2.2,7.2
	c-1.3,1.9-3.9,1.7-5.8,1.2c-2.1-1-6.2-3-12.3-5.6c-6.9-3-16.4-7-28.5-11.3c2.3,4.6,5.1,9,8.3,13c4.4,5.7,9.7,10.8,15.7,14.8
	c8,5.2,17.3,7.9,26.8,8.7c9.2,0.7,18.4-0.7,27.1-3.6c6.2-2.1,11.9-5.1,18-7.3c8.4-3.1,16.6-6.4,25.4-8.2c4.9-1,10-1.5,15-1.4
	c0.6,0,1.3,0,1.9,0.1c0.5,0,0.2-6.9,0.1-7.6c-0.3-2.1-0.8-4.1-1.5-6.1c-1.5-4-3.9-7.9-7.4-10.6c-0.1-0.1-0.1-0.1-0.2-0.2
	c-1.7-1.6-3.5-3-5.5-4.4c-8.8-6-18.7-10.5-28.5-14.8c-0.9-0.4-1.8-0.8-2.7-1.1c-11.7-5-23.7-9.7-35.7-13.8c2,1,3.9,2.1,5.8,3.3
	c0.3,0.2,0.7,0.4,1,0.6c0.5,0.3,1,0.6,1.4,0.9c1.7,1,3.4,2,5,3c4.5,2.8,9.2,5.8,12.9,9.6c-0.7,0-1.4,0.1-2.1,0.3
	c-0.7,0.2-1.4,0.4-2,0.5c4.7,3.3,9,7.2,12.8,11.5c0.5,0.5,4.8,6.1,4.9,6.1c-2.6,1.2-5.2,2.3-7.9,3.2c-1.3,0.4-2.7,0.9-4,1.2
	c-4.8,1.3-9.6,1.8-14.6,2.1c-0.1,0-0.3,0-0.5,0l0,0c-0.1,0.3-0.3,0.7-0.6,1.1c-1.3,1.9-3.9,1.6-5.8,1.1c-2.1-1.1-6.2-3.1-12.1-5.9
	c-22.6-10.7-74.7-32-153.5-46c-12.3-2.2-23.5-4-34.1-5.4c0,0-0.1,0-0.1,0c-0.1,0-0.2,0-0.3,0C238.9,229.5,238.7,229.5,238.7,229.5
	L238.7,229.5z M579.3,248.3c0,0-7,17.5-25.3,26.4c-13.1,6.4-25.2,13.8-32.9,22.6c-1.1,1.3-2.1,2.6-3,3.9l0.1,0
	c18.6,2.1,27.7,9.9,30.7,13.7c0.2,0.3,0.4,0.5,0.5,0.7c0,0,0,0,0.1,0c1.1-0.2,19.8-3.6,31.3-16.3c-0.4,0-0.8,0-1.3,0
	c-2.8-0.1-13.7,0.2-11-5.3c0.9-1.8,4.2-1.3,5.8-1.2c2.8,0.2,5.6,0.5,8.4,0.3c3.9-0.2,4.6-3.7,5.5-6.9c0.9-3.1,1.5-6,1.7-8.8
	c-4.3,5.4-11.9,7.3-14.4,7.7c-0.2,0-0.3,0.1-0.4,0.1c-1.7,0.3-5.1-0.2-4.6-2.7c0.3-1.5,2.3-2.8,3.6-3.3c3.7-1.5,7.3-2.9,10.6-5.1
	c1.2-0.8,2.3-1.7,3.4-2.7c0.3-0.3,1.8-1.5,1.7-1.9c-0.5-3.7-1.4-7-2.6-9.8c-0.4,0.9-1,2.2-2,3.6c-2,3.5-4.5,5.1-5.4,5.6
	c-1.3,0.7-3.9,1.5-5.1-0.8c-1.2-2.3,2.1-4.2,2.1-4.2c4.9-3.5,6.8-7.1,7.6-9.4C581.8,250.4,579.3,248.3,579.3,248.3L579.3,248.3z
	 M532.9,315.2c-3.8-0.1-7.9,2.2-10.4,3.8c-0.5-1.1-1.6-2.1-3.5-2.8c-5.8-1.9-12.9,3.6-12.9,3.6c0.6-4.2-5.1-3-5.4-3
	c-1.7,0.1-8.8,2.4-13,4.8c-6.2,2.2-14.5,4.8-23.6,7c1.7,9.7,1.2,16.5,1.2,16.5c9.7-5,17.7-15.3,22.6-22.7c1.1,5,5.3,11.7,5.3,11.7
	c6.8-4.2,12.8-10.3,12.8-10.3c2.1,3.8,1.7,11.7,1.7,11.7c4.8-1.5,9-4.6,11.8-6.9c-3,16.1-12.8,31.8-12.8,31.8
	c11.4-4.3,33.2-27.5,34.6-33.8c1.4-6.3-0.7-9.7-6.8-11.1C534,315.2,533.4,315.2,532.9,315.2L532.9,315.2z M463.6,328.6
	c-10.6,2.5-22.3,4.5-33.4,4.3c1.9,19.8-15.6,37.6-15.6,37.6c28.4-8,43.4-30.9,48-39.1C463.1,330.3,463.4,329.3,463.6,328.6
	L463.6,328.6z M402.3,394.2c0,0-9.1,22.3-19.6,33.2c-10.5,10.9-16.2,13.7-16.9,15.2c-0.7,1.5-0.8,7,11.5,5.5
	c12.3-1.6,21-10.7,21-10.7s16.8-3.1,31.6-1.1c0,0,4.1,4.5,9.9,4c5.8-0.4,18-23.3,17.1-44.9c0,0-17.5,28-25.4,33.8
	c0,0-1.9-4.6-4.2-6.8c0,0-9.6,6.5-11.5,10c0.2-0.4-1.7-3-1.9-3.4c-1.1-1.8-2.2-3.5-3.5-5.1c-3.8,2.3-8.3,5.6-10.3,9.6
	c1.6-3.2,2.8-6.6,3.7-10.1c0.5-2.2,0.9-4.4,1.1-6.6C405.7,409.2,404.7,401.5,402.3,394.2L402.3,394.2z M414.6,370.6
	c28.4-8,43.4-30.9,48-39.1c0.5-1.2,0.8-2.2,1.1-2.9c-10.6,2.5-22.3,4.5-33.4,4.3C432.2,352.7,414.6,370.6,414.6,370.6z M431.5,429.2
	c0,0-1.9-4.6-4.2-6.8c0,0-9.6,6.5-11.5,10c0.2-0.4-1.7-3-1.9-3.4c-1.1-1.8-2.2-3.5-3.5-5.1c-3.8,2.3-8.3,5.6-10.3,9.6
	c1.6-3.2,2.8-6.6,3.7-10.1c0.5-2.2,0.9-4.4,1.1-6.6c0.8-7.6-0.2-15.4-2.7-22.6l0,0c0,0-9.1,22.3-19.6,33.2
	c-10.5,10.9-16.2,13.7-16.9,15.2c-0.7,1.5-0.8,7,11.5,5.5c12.3-1.6,21-10.7,21-10.7s16.8-3.1,31.6-1.1c0,0,4.1,4.5,9.9,4
	c5.8-0.4,18-23.3,17.1-44.9C456.9,395.4,439.4,423.4,431.5,429.2z"/>
<path id="Black_Spots" d="M452.2,168.5c-1.3-1.4-2.8-2.7-4.5-4.2c3.9,7.7,7.2,17.9,2.5,26v0c-20.4,22.3-55.9-3.2-78.8-9.9
	c-24.7-8.4-58.1-10.8-79.1,7.2c0,0,0,0,0,0h0c0.2-0.1,1.1-0.2,1.2-0.3c4.1-1.1,10.2-2.4,14.3-2.8c3.3-0.2,7-0.8,10.1,0.3
	c6.4,5.1,13.6,9.4,20.6,13.6c24.6,12.5,50.3,23.7,69.2,44.4c-3.9-12.1-11.8-23.9-21.4-32c20.4-13.7,61.6-7.2,71.7-4.6
	C458,206.2,471.9,188.8,452.2,168.5z M374.4,193.5c-0.1,1.6-1.2,2.7-2.7,2.7c-0.4,0-0.9-0.1-1.3-0.3c-0.1,0-3.1-1.8-3.4-2
	c-1.2-0.9-2.2-1.9-3.4-2.7c-2-1.4-4.6-3.3-7-3.9l0,0c1.5,0.3,7.4,1.4,10.8,2.3c1.7,0.5,3.4,0.9,4.9,1.3
	C372.4,190.9,374.5,191.9,374.4,193.5L374.4,193.5z M273.7,105.9c-0.7,2.9-0.1,11.1-0.1,11.1c-1.3-1.6-3.2-5.7-3.2-5.7
	s-1.5-0.7-3.1-0.3c-1.6,0.3-4.1,1.9-4.4,2.9c-0.2,1-1.5,2-1.5,2c0,2.2,1.5,5.8,1.5,5.8c-1.7-0.9-4-3.9-4-3.9
	c-0.5,0.8-0.9,3.1,0.2,5.9c1.1,2.8,7.9,4.2,7.9,4.2c4.1,0.3,6.8-3.5,9-3.1c2.2,0.3,3.1,0.3,3.1,0.3c0.7,0.9,3.8,3.7,3.8,3.7v-4.6
	c0,0,0.6-0.2,2.7-1c2.1-0.9,3.2-4.9,3.4-6.5c0.2-1.6-0.2-3.5-1.8-5c-1.6-1.5-3.9-1.8-6.6-1.3c-2.7,0.4-4.5,0.6-4.5,0.6
	C275.4,109.7,273.7,105.9,273.7,105.9L273.7,105.9z M210.3,113.4c-2.5-0.2-7.5,1.9-9,2.9c-1.4,1-4,2.1-6.1,2.2
	c-2.1,0.1-5.8,2.1-6.9,3.5c-1.1,1.4-1.2,2.3-1.2,2.3s-1.5,0.9-1.7,2.5c-0.1,1.6,0,2.4,0.4,3.2c0,0,3.2-0.5,6-1.7
	c0,0-4.5,4.9-9.8,7.1c0,0,5.5,0,8.1-1.2c0,0,0.6,0.1,1.8,2.3c1.3,2.3,5.5,2.7,9.3,2.8c3.7,0.1,4.9,0,6.1,0.1
	c1.2,0.1,4.5-0.6,5.5-1.4c0.9-0.7,3-2.4,3.3-2.6c-0.3,0.1-2.7,0.8-4.4,0.4c0,0,1.6-1.7,2.8-1.8c1.2-0.1,3.2-1.3,3.7-3.2
	c0.6-1.9,2.4-3.2,3.4-3.8c1-0.6,4.7-3.2,5-6.1c0.3-2.9-1.2-5.2-6.1-5.5c0,0-4.2,2-9,2.5c0,0,2.6-1.2,6.8-4.5c0,0-3.2,0.6-4.6,0.7
	C213.8,114,212.8,113.6,210.3,113.4L210.3,113.4z M334.2,115c0.4,0.5,2.2,1.5,2.2,1.5s-1.9,0.2-3.8,0.8c-1.8,0.6-2.6,2.2-3.5,2.8
	c-1,0.6-4.4,0.5-4.4,0.5c1.2,2,6.1,5.2,6.1,5.2c-3.7-0.9-10-3.9-10-3.9s-2.3-0.2-4.9,1c-2.6,1.2-2.9,4-2,6.3
	c0.9,2.4,5.7,4.7,5.7,4.7c-2.1,0-5.4-0.6-5.8-0.7c0.4,0.3,4,2.9,7.5,3.7c3.8,0.9,7.1-0.6,7.1-0.6c-0.7-1.1-0.4-3.2-0.4-3.2
	c2.8,2.9,9.6,5.8,10.1,6c-2-1.4-4.4-4.9-4.4-4.9s2.7-1.1,4-2c1.3-1,3.5-3.8,3.7-4.5c0.2-0.7,1.7-2.4,1.7-2.4c1.7,1,3.7,1.1,3.7,1.1
	c-1.1-1.1-1.3-2.9-1.3-2.9s2.2-0.9,4-2.3c1.8-1.5,2.7-4.4,0.5-5.1c-2.2-0.7-4.8,0.2-6.2,0c-1.4-0.2-4.6-0.4-4.6-0.4
	C337.8,116,334.2,115,334.2,115L334.2,115z M428.3,120.6c-0.9,0-1.7,0.1-2.2,0.3c-1,0.3-4.8,0.3-4.8,0.3c1.6,1.5,3.7,4.5,3.7,4.5
	c-2.4-1.8-7.5-4.5-9.5-4.5h-0.4c-2,0.1-4.6,0.8-5.5,1.9c-1,1.2-3,1.7-3,1.7c0.1,0.9,2.8,4,2.8,4c-1.6-0.4-4.6-1.8-4.6-1.8
	c0,0,1.9,2.6,3.7,3.3c1.8,0.8,3.5,1.7,6.1,2.7c2.6,1.1,6.3,0.7,6.3,0.7c-0.5-1.2-2.8-4.1-2.8-4.1c2.7,1.4,8.9,5.2,8.9,5.2
	c1-0.2,1.9-1.1,2.6-1.9c0.6-0.8,1.7-0.1,3.5-0.3c1.8-0.2,2.9-1.4,3-2.9c0.1-1.5-0.5-2.5-3.1-4.3c-2.6-1.8-2.6-3.1-2.6-3.1
	c1.2,0.3,2.8,1,3,1c-0.1-0.2-0.9-1.7-2.4-2.4C430.1,120.8,429.2,120.6,428.3,120.6L428.3,120.6z M385.6,125.2
	c1.6,0.6,2.2,1.5,2.2,1.5s-1,0.1-1.9,0c-1-0.1-1.2-0.5-2.7-0.7c-1.5-0.2-2.1-0.2-3.9,0.5c-1.8,0.8-3.5,0.6-3.5,0.6
	c-2.1-0.6-6.3-1.1-6.3-1.1c2.2,1.2,4.1,2.8,4.1,2.8c-0.8,0.5-3.7,1.7-4.4,2c-0.6,0.3-2,1.6-1.3,2.9c0.8,1.3,1,2.5,1,2.5
	c-1.9-0.6-5.1-1.2-5.1-1.2c1.6,1.2,6.2,5.4,6.2,5.4c-1.8-0.3-4.9-1.5-4.9-1.5s-0.9,1.1-0.7,2c0.1,0.9,1.5,1.7,3,2.1
	c1.5,0.4,5,0.4,5,0.4c3.9-0.6,6.2-1.7,6.2-1.7c-0.8-1.4-2.6-3.2-2.8-3.4c0.3,0.1,4.4,1.3,6.5,1.6c2.1,0.3,4.3-0.8,5.1-1.8
	c0.8-0.9,1.3-1.4,2.8-1.7c1.5-0.4,3.6-1.7,3.6-1.7c-0.3-1-1.6-2.9-1.8-3.2c0.9,0.3,3.1,0.8,3.1,0.8s1.7-2.1,0.1-3.7
	c-1.6-1.6-4.4-2-4.4-2C389,125.6,385.6,125.2,385.6,125.2L385.6,125.2z M456.5,125.3c0.3,1.1,1.1,2.1,1.1,2.1s-0.5,0.6-2.4-0.1
	c-1.9-0.7-3.4-0.4-3.4-0.4c0,1.8,2.1,4.8,2.1,4.8c-1.2-0.5-3.6-2.1-3.6-2.1c0.3,1.9,1.6,3.4,1.6,3.4s1,1.3,3.4,2.5
	c2.4,1.2,4.6,0.7,4.6,0.7c3.5,0.2,5.5,2.7,5.5,2.7c-0.7-0.1-1.5-0.2-1.5-0.2c-0.7,0,1.9,1.6,3.7,3c1.8,1.4,5.1,1.3,5.1,1.3
	c-0.3-0.9-2-4.9-2-4.9c1.2,1.1,4.7,4.1,4.7,4.1s0.7-0.7,0.7-1.7c0-1-1.9-3.5-1.9-3.5s1.5-1.5,1.2-2.4c-0.3-0.9-1.6-2.3-2.3-2.7
	c-0.7-0.3-2.2-1.3-2.3-1.4c0.3,1.2,1.5,2.8,1.7,3c-0.2-0.1-1.7-1.3-2.1-1.7c-0.4-0.5-3-3-5.2-3.9c-2.2-1-5.2,0-5.2,0
	C458.9,127.3,456.5,125.3,456.5,125.3L456.5,125.3z M137.5,130.9c-1.5,0.1-2.8,0.3-3.2,0.8c-0.9,1-2.7,2.7-4.9,4.5
	c-2.2,1.7-1.5,3.1-1.5,3.1c-1.7,0.6-7.3,1.5-7.3,1.5c1.7,0.6,6.5,1.8,6.5,1.8s0.3,0.3-0.9,1.5c-1.2,1.2-1.8,3.9-1.8,3.9
	c1.9,1.1,7.6,2.4,7.6,2.4c-3.2,0.4-7.6,1.2-7.6,1.2s0.9,1.5,4.6,2.1c3.7,0.5,8.6-2.4,8.6-2.4c4,1,6.9-1.4,6.9-1.4
	c-0.9-0.1-2.8-1.1-2.8-1.1c2.6,0.2,5.3-0.3,5.3-0.3c2.6-1.5,3.7-2.8,3.1-4.7c-0.7-1.9,0-3.1-0.1-5.8c-0.1-2.7-2.1-3.9-2.1-3.9
	c3.7-1,4.8-2.7,4.8-2.7s-5.6,0.5-6.9,0.5c-1.3,0-1.3,0-3.7-0.7C140.6,131,139,130.9,137.5,130.9L137.5,130.9z M437.7,140.9
	c1.5,0.9,3.8,2.3,3.8,2.3c-0.1,0-2.7,0-4,2.3c-1.3,2.3,0.5,2.1,1.1,5.3c0.5,3.2,3.7,2.3,3.7,2.3c-1-0.8-0.6-1.9-0.6-1.9
	c1.4,1.1,2.6,1.5,4.7,1.9c2,0.4,2.8,1.3,2.8,1.3c-1.7,0-3.8-0.1-3.8-0.1s2.3,1.8,4.7,2.3c2.4,0.5,3.4-1,3.4-1c2.2,0,4.8,1.1,4.8,1.1
	c-0.4-0.9-1.2-2.8-1.2-2.8c1.1-0.6,2.5-3.1,0.1-4.7c-2.3-1.6-2.5-3.5-5.5-5.6c-3.1-2.1-5.9-1.3-5.9-1.3c1,0.8,1.3,2.4,1.3,2.4
	C442.9,142.3,437.7,140.9,437.7,140.9L437.7,140.9z M240.9,144.1c-1.9,0.1-3.2,0.7-4.3,1.3c-0.7,0.5-1.3,1-1.7,1.4
	c-1.1,1-3.4,1.4-3.4,1.4c-1.3,0.1-4.7,0.3-4.7,0.3c4.9,1.4,6.3,3.1,9.3,4.2c-2.8-0.4-7.6-1.3-7.6-1.3c-0.7,2.7-2.6,3.6-4,4.7
	c-1.5,1.1-1.6,1.9-1.6,1.9c2.6,0.6,9.1,4.2,9.1,4.2c-2.4-0.7-9.1-0.7-9.1-0.7c-0.4,1.2-0.7,1.2,1.3,3.4c1.9,2.2,1.7,3.1,1.1,3.9
	c-0.7,0.7-2.2,2.5,0.7,4.8c2.9,2.3,8.3,1.9,10.1,1.6c1.7-0.2,3.4,0.1,3.4,0.1c-1.3-1-3.4-3-3.4-3c1.3,0.1,5.7,1.1,5.7,1.1
	s-1.3-1.3-0.5-2.3c0.8-1,3.5-0.6,5.5-2.2c2-1.6,1.6-5.1,2-5.9c0.4-0.8,2.5-2,2.5-2c0.8-0.1,2,0,2,0c-1.8-1.1-7.8-4-7.8-4
	c2.2,0,5.9,0.3,5.9,0.3c-0.2-1-1.4-3.7-1.8-4.9c-0.4-1.2-0.1-2.3,0.1-3c0.2-0.7,0.1-2,0.1-2c-0.6-0.7-1.7-1.3-1.7-1.3
	c2.2,0,5.4,0.5,5.4,0.5c-0.3-0.1-1.5-0.7-3.3-1.4C247.6,144.8,244.3,144,240.9,144.1L240.9,144.1z M481.1,145.7
	c0.7,0.7,0.6,1.6,0.6,1.6c-0.5-0.1-1.2-0.1-2.6,0.3c-1.4,0.4-2.5,1.6-2.5,1.6c1,1,4.3,4.9,4.3,4.9c-1.2-0.5-3.6-1.7-3.6-1.7
	c0,0.8,1.2,2.4,2.7,3.4c1.5,1,5.7,2,5.7,2c1,1.3,4.7,1.9,4.7,1.9c-0.3-0.8-2.5-4.2-2.5-4.2c1.1,0.6,5.5,3.1,5.5,3.1
	c0,0,0.7,0,1.2-0.7c0.5-0.7-0.7-3.1-1.1-3.9c-0.4-0.7-1.1-2.3-2.6-3.7c-1.4-1.4-4.6-2.2-4.6-2.2l0.5,1.7
	C485.1,148.1,481.1,145.7,481.1,145.7L481.1,145.7z M414.2,146.2c-1.3-0.1-2.5,0.2-3.4,0.9c-1.7,1.4-2.4,1.5-2.4,1.5
	c-1.8-0.7-3.3-0.6-3.3-0.6c2.4,2,4.9,4.5,4.9,4.5c-2.2-0.3-6-1.6-6-1.6c-1.1,1.2-0.8,2.1-0.7,3.2c0.1,1.1-1.1,1.8-1.1,1.8
	c0.8,1.3,4.9,4.3,4.9,4.3c-1.2,0-5.8-0.6-5.8-0.6c3.2,3.2,7.5,3.1,8.5,3.2c1.1,0,2.1,0.4,3.7,0.3c1.6-0.1,3.1-2,3.1-2
	c1.4-0.5,2.6-2.5,3.1-3.3c0.5-0.8,1.9-2,1.9-2c-0.7-1.4-3.5-3.9-3.5-3.9c3.1,0.4,6.9,3,6.9,3c-1.5-2.4-3.7-3.6-3.7-3.6
	s-1.8-2.6-3.7-3.8C416.8,146.7,415.5,146.3,414.2,146.2L414.2,146.2z M339.2,147c-1.1,0.2-1,1.4-1.2,1.9c-0.2,0.5-0.5,0.6-0.6,0.6
	c1.2,0.9,3,1.9,3.4,2.1c-1.2-0.4-5.2-0.6-5.2-0.6c-0.6,0.5-0.9,1.9-0.3,4.3c0,0.1,0,0.2,0,0.2c0.5,2.3,0.2,4.7,0.2,4.7l-1.2,0.4
	c1.1,1.3,3.1,2.3,4,3c0.8,0.7,1.5,2.3,1.6,2.5c-0.3-0.2-2.2-1.4-2.9-1.6c-0.7-0.1-1.4-1.1-1.5-1.3c0.1,0.3,0.9,2.7,2.1,3.8
	c1.3,1.2,5.8,3.4,8.2,4.5c2.4,1.1,3.7,2.6,3.7,2.6c1.5-0.3-1.2-3.1-1.4-3.3c1.3,0.4,3.6,1.9,3.6,1.9c-0.2-0.9,0.7-3,0.2-4.3
	c-0.5-1.3-3.5-4.1-4.5-4.9c-1-0.9-1.5-3-1.3-4c0.5-2.9,1.4-4.1,1.4-4.1c0.4-0.5,1.4-1.5,1.8-1.9c1.5,0.2,4.6,0.6,6.1,1
	c0,0,0,0-0.1-0.1c0,0,0,0,0,0c0,0-0.1-0.1-0.1-0.1c-2.5-0.8-5.1-1.5-7.7-2.2c-0.1-0.7-0.3-1.6-0.8-1.8c-0.9-0.4-3.6-2.1-4.1-2.4
	C342.2,147.7,340.3,146.8,339.2,147L339.2,147z M289.6,147.3c-0.8,0-1.6,0.2-2.3,0.8c-1.5,1.2-4.1,1.9-5.5,2.5
	c-1.5,0.7-1.8,1.7-1.8,1.7c1.1,0.4,2.9,3,2.9,3c-2-0.5-6.4-1.3-6.4-1.3s-0.1,1.2-0.7,2.2c-0.6,1-2.1,1.1-3.4,1.8
	c-1.3,0.7-2.5,2-2.4,3.6c0.1,2.7,3.5,4.8,3.9,5c-1.1-0.3-3.7-0.7-3.7-0.7c0.9,1.1,6.9,5.9,6.9,5.9c-0.9-0.1-3.9-0.3-3.9-0.3
	c1.2,0.4,5.4,2.1,7.2,2.5c1.8,0.4,3.7-0.3,3.7-0.3c-0.7-0.7-2.4-2.2-2.4-2.2c1.3,0.3,4.6,1.2,4.6,1.2c2.6-0.1,4.4-1.5,5.4-3
	c1-1.5,3.3-2.9,3.3-2.9c1.1,0.1,5.1,0.7,5.6,0.7c-2.1-1.2-4.2-2.1-4.2-2.1c1.6-0.7,3.1-1.7,3.6-2.9c0.5-1.2,1.1-1.5,1.4-3.3
	c0.3-1.8-1.3-3.5-1.3-3.5c1.5,0.3,2.7,0.7,2.7,0.7c-0.8-0.7-2.8-2-2.8-2.8c0-0.7,0.9-0.8,1.6-1.9c0.7-1.1-0.1-2.6-1.5-3.2
	c-1.4-0.6-4.2-0.8-4.2-0.8c0.4,1,1.8,2.1,1.8,2.1c-2.6-0.8-4.8-2.2-5.9-2.4C291.1,147.4,290.3,147.2,289.6,147.3L289.6,147.3z
	 M379.2,147.3c-1.9-0.2-4.4,1-4.4,1c-1.9-0.6-4.4-1-4.4-1c3,2.1,4,4.9,4,4.9c-1.6-1.2-3.7-2.4-3.7-2.4c-1.1,0.8-1.5,2.2-2.4,3.5
	c-0.9,1.3-2.2,2.6-6.5,4.7c-4.2,2.1-3.8,4.4-3.8,4.4l-3.3,0.2c2.4,0.5,6.4,4,6.4,4c-1.2-0.5-3.7-0.7-3.7-0.7
	c-0.5,2.1,1.7,3.7,2.7,4.6c1.1,0.9,2.2,3.6,2.2,3.6c-1.1-0.1-2.1,0.1-2.1,0.1s3.1,1.1,4,1.9c1,0.8,5.1,1.1,5.1,1.1
	c0.6-1.3-0.8-3.1-0.8-3.1c-2.4-1.2-3-4-3-4c1.3,1,2.8,1.6,2.8,1.6s-0.1-2.4,1.6-5.4c0.5-1,1.3-1.9,2.1-2.7c1.1-1,2.2-1.9,3-2.5
	c0.6-0.4,1-0.6,1-0.6c0-0.3-0.1-0.6-0.2-1c-0.1-0.4-0.2-0.8-0.3-1.2c0-0.1,0-0.2-0.1-0.3c0-0.1,0-0.2-0.1-0.3c0-0.1-0.1-0.2-0.1-0.3
	c0-0.1-0.1-0.3-0.1-0.3c1,0.7,1.6,1.5,2,2.1c0.1,0.1,0.1,0.2,0.2,0.3c0.1,0.2,0.2,0.4,0.2,0.4c1.9-0.7,5.3-2.7,5.9-4.1
	c0.6-1.3,1.5-4.7,1.2-5.8C384.5,149.3,381.1,147.5,379.2,147.3L379.2,147.3z M186.1,166.7c1,1.2,5.1,3.9,5.1,3.9
	c-3-0.6-4.8-1.4-4.8-1.4s-1.3,0-2.8,0.3c-1.5,0.3-3,1.9-3,1.9c-3.3,0-5.2,2.5-6.9,4c-1.8,1.4-3.7,1.4-3.7,1.4c1,2.2,3.9,4.6,3.9,4.6
	c-2.2-0.6-6.7-2.7-6.7-2.7c-0.7,1.3-0.2,3.5,0.1,5.1c0.3,1.6-1.4,2.7-1.4,2.7c1.5,1.8,6.6,3.4,6.6,3.4c-4.8,0.3-10.9-0.3-10.9-0.3
	c2.5,1.3,7,2.3,7,2.3s3.9,1.9,8.9,2.6c4.9,0.7,9.5-2.6,9.5-2.6s4.5,0.8,6.4-1.5c1.9-2.2,0.4-5.5,0.1-6.4c-0.3-0.9,0-2,1.5-2.1
	c1.5-0.1,2.9-1.4,2.9-1.4c2.2-0.3,5.9,0,6.5,0.1c-0.8-0.2-6.5-1.6-7.3-3c-0.9-1.5,1.6-3.9,1.6-5.6c0-1.8-1.8-3.9-4.6-4.6
	c-2.7-0.7-4.4-0.3-4.4-0.3C188,167.3,186.1,166.7,186.1,166.7L186.1,166.7z M253.1,188c-0.4,0-0.8,0.2-1.1,0.4
	c-1.3,0.8-1.5,2.3-2.2,2.8c-0.7,0.6-2.9,0.2-3.9,0.2c-1,0-1.4,0.5-1.8,1.3c0,0,4.3,1.7,6.5,3c0,0-6.7-1.5-8.8-1.7
	c0,0,2.2,1.2,2.9,1.5c0,0,4.3,2,5,3.2c0,0-1.8-0.3-3.3-0.4c0,0,3.4,1.8,5.7,3.8c0,0,0.7,4.6,2.9,4.9c2.2,0.3,3.9,0.7,4.9-0.1
	c1-0.8,1.4-2.1,1.4-2.1s1.4,0.3,2.4-0.6c1-0.9,1.8-2.5,2.7-2.7c1-0.1,2.1,0.6,2.7,0.5c0.6-0.1,1.1-0.5,1.1-0.5s-2.7-1-6.2-2.4
	c0,0,4.7,0.4,7.5,1c0,0,0.9-0.8-1.4-1.7c-2.3-0.9-1.2-2.5-4-4.3c-2.7-1.7-5.6-3.1-8.6-3.8c0,0,2.5,0,4.9-0.2c0,0-2.6-1-4.7-1.5
	C256.1,188.4,254.4,187.9,253.1,188L253.1,188z M205.5,200.7c-2.7,0.1-4.6,0.9-4.6,0.9c4,0.6,4.5,2,4.5,2s-6.3,1.1-7.6,1.5
	c-1.3,0.4-1.1,0.4-1.1,1.3c0,0.9-0.6,2.3-1.5,4.1c-0.9,1.8-0.7,6.1-0.7,6.1c2.3,1,6.5,0.9,6.5,0.9c-2.5,0.6-6,2-6,2
	c0.6,2.1,4,5.1,6.6,7.6c2.6,2.5,3.7,4.6,3.7,4.6c-1.8,0.3-3.6,1.2-3.6,1.2s5.9,2.2,9.1,2.6c3.2,0.4,8.9-2.1,8.9-2.1
	c3,0.4,8.7-0.4,10.1-2.5c1.4-2.1-1.4-4.8-3.4-6.5c-2-1.8-3.3-6.2-3.3-6.2c2.4,0.2,6.3-3.6,6.3-3.6s-6.1,1.5-7.7,0.3
	c-1.6-1.2-4.1-4-5.4-6.4c-1.3-2.5-4-7.2-7.9-7.8C207.3,200.6,206.4,200.6,205.5,200.7L205.5,200.7z M149.9,200.7
	c-0.5-0.1-0.9-0.1-1.1,0c-1,0.3-2.9,2.1-4.3,1.9c-1.4-0.1-4.9-0.6-5.6,1c-0.7,1.6-1.1,3.1-1.1,3.1s3.1,0.6,5.8,1.5
	c0,0-5.9-0.4-9-0.1c0,0,1,0.3,1.9,0.9c0,0-1.9,3.3-0.3,5.4c1.6,2.1,3.1,5.3,6,5.6c2.9,0.3,6.3-0.3,6.3-0.3s-3.3-1-5.7-1.7
	c0,0,4.9,0,8.6,1.3c0,0,6.2-0.3,7.2-1.6c1-1.3,1.1-2.2,2.4-3c1.3-0.8,2.3-3.3,1.7-5.1c-0.6-1.9-4.3-3.7-4.3-3.7l-5.6-1.6
	c0,0,2.3-0.4,3.9-0.3c0,0-0.2-1.3-1.9-1.9C153.5,201.6,151.4,200.9,149.9,200.7L149.9,200.7z M238.6,210.1c10.8,1.5,22.4,3.4,35,5.8
	c20.1,3.8,38.5,8.1,55.1,12.5c48.2,12.8,81.2,27,98,35.1c6,2.8,10,4.9,12.1,6c1.9,0.6,4.5,0.9,5.8-1h0c2.8-3.9-2-7.3-2-7.3
	s-42.3-22.3-121.6-38.7c-14.3-2.9-29.9-5.7-46.6-8.1C261.5,212.6,249.6,211.2,238.6,210.1L238.6,210.1z M449.2,213.9
	c-4.1,0-8.7,0.7-13.1,1.8h0c-5.7,1.3-11.3,3.2-16.7,5.5c-1.5,0.7-3,1.4-4.5,2.1c-1.8,0.9-3.6,1.9-5.2,3.1c-0.2,0.1-0.4,0.3-0.5,0.4
	c0,0,22.7-6.5,39.6-5c16.9,1.5,32.6,9.7,35.6,3.6c0.6-1.3,0.1-2.5-1.2-3.7C478,217.2,461.2,213.8,449.2,213.9L449.2,213.9z
	 M120.5,223.3c-1.5-0.1-2.8,0-3.5,0.5c-1.4,1-4.4,4.8-5.4,5.8c-1,1-1.8,3.8-1.4,5.8c0,0-2.6,1.4-4.4,1.4c0,0,3.4,0.8,10.1-0.2
	c0,0-3.4,1.8-4.8,3.2c0,0,2,3.6,2,7.4c0,3.8-0.2,8.6-0.3,10.2c0,0,4.3-0.8,7.7-0.8c0,0-6.4,3-7.8,5c0,0,0.8,7.8,6.2,9.2
	c5.4,1.4,8-1.6,10.4-4.4c2.4-2.8,7-6.6,8.8-8h0c1.8-1.4,3.6-8.4,0.8-11.3c-0.9-0.9-1.8-1.7-2.6-2.5c-4.1,1.4-8,1.5-8,1.5
	c2.2-0.8,4.9-2.3,6.5-3.2c-0.8-1-1.5-2.1-1.9-3.4c-0.8-3-2.4-8.8-2.4-8.8s-2.2,0-4.8-0.4c0,0,5.6-1.8,7.8-3.4c0,0-1.8,0.2-3.6-0.2
	c0,0-0.6-2.2-4.2-2.8C123.9,223.7,122,223.4,120.5,223.3L120.5,223.3z M238.9,229.5c0,0,0.1,0,0.1,0c0.1,0,0.3,0,0.3,0
	c0,0,0.1,0,0.1,0c10.6,1.4,21.8,3.2,34.1,5.4c78.9,14.1,130.9,35.3,153.5,46c6,2.7,10.1,4.8,12.1,5.9c1.9,0.5,4.5,0.8,5.8-1.1
	c0.2-0.3,0.4-0.7,0.6-1.1l0,0c0-0.1,0.1-0.2,0.1-0.4c0-0.2,0.1-0.5,0.1-0.7c0.3-3-2.9-5.2-2.9-5.2s0,0-0.1,0c-0.1,0-0.2-0.1-0.3-0.1
	c0,0-0.1,0-0.1,0c-2-1-4.1-1.9-6.2-2.8c-3.6-1.6-7.2-3.2-10.8-4.6c-0.7-0.3-1.4-0.5-2.1-0.8c-0.5-0.2-1-0.4-1.5-0.6
	c-8.4-3.3-16.9-6.3-25.4-9.1c-5.2-1.7-10.4-3.2-15.6-4.7c-0.8-0.2-1.7-0.5-2.5-0.7c-5.4-1.5-10.8-2.9-16.2-4.3
	c-12.8-3.2-25.8-6.4-38.8-9c-14.3-2.8-28.6-5.3-43-7.3c-11.4-1.6-22.9-2.9-34.4-4.1c-0.3,0-0.6-0.1-1-0.1
	C242.9,229.8,240.9,229.7,238.9,229.5L238.9,229.5z M162.1,234.6c-0.5,0-1,0.1-1.3,0.3c-1.5,1-1.8,3-1.8,3.3v0c0,0,3.5-0.2,5.5-0.6
	c0,0,0.1,0,0.1,0c0,0-3.8,2.8-11.4,3.8l0,0c0.3,0.1,1.3,0.3,2.4,0.5c0.7,0.1,1.4,0.2,2.1,0.1h0.1c0,0-0.8,2.8-1.2,4.6
	c-0.4,1.8,0.4,5.2,2.4,6.8l0,0c0,0,3.4-0.2,6.9-1c0,0,0,0,0.1,0c0,0-1.2,2-2.8,3.2c0,0,1.8,1,0.8,2.6c-1,1.6-3.4,5.8-2,8.6
	c0.6,1.1,1.7,2.4,2.8,3.4c1.6,1.5,3.2,2.7,3.2,2.7s5.4-1.3,8-2.3c0,0-5.4,3.8-9.7,5.6c0,0,6.4-0.2,8.7-0.6l-1,2.2
	c0,0,2.8,2.2,9.4,1.2c6.6-1,10.8-2.4,10.8-5.8c0-3.4-0.8-5,0.2-8.4c0,0-2.4,0.4-4.2,0c0,0,3.8-2.2,5.2-4.6c0,0-0.4-2.2-1.4-4.3l0,0
	c-0.7-1.4-1.6-2.8-3-3.5c-0.4-0.3-0.9-0.5-1.5-0.6c-0.3-0.1-0.6-0.1-0.9-0.2c-0.6-0.1-1.2-0.3-1.8-0.4c-0.9-0.2-1.9-0.6-2.9-1
	c-0.3-0.1-0.6-0.3-1-0.4c-0.3-0.1-0.7-0.3-1-0.5c-0.8-0.4-1.5-1-2.2-1.6c0,0,0,0-0.1,0c-1.5-1.4-2.8-3.3-3.6-5.9c0,0-1.4-4-4.4-5
	c0,0,0,0-0.1,0c-1-0.3-2.5-0.8-4-1.2c-0.4-0.1-0.8-0.2-1.2-0.3c-0.9-0.2-1.7-0.4-2.5-0.5C163.3,234.6,162.6,234.6,162.1,234.6
	L162.1,234.6z M224.8,284.4c-1.3,0.1-2.6,0.4-4,1c-3.7,1.6-9.1,3.1-9.1,3.1s-5,2.4-5.7,3.4c0.1-0.2,1-2.1,2.4-3.2c0,0-4.6,0-8,0.2
	c-3.3,0.1-7,0.5-7.5,3.7c-0.5,3.2,0.5,4.8,1.9,5.9c1.4,1.1,6.9,4.5,8,5.6c0,0,3.7-2.4,6.5-3c0,0-6.2,4.5-7.7,6.9
	c0,0,2.7-1.4,4.6-1.4c0,0,4.9,3,8.1,3c3.2,0,9.3-1,9.3-1s3.5-2.4,7.4-2.7c0,0-4,2.7-5,4c0,0,1.6-0.2,2.6,0.5c0.9,0.6,4.1,1.3,7,0.1
	c2.9-1.1,5.7-2.2,5.6-5.7c-0.2-3.5-2.2-7.7-2.2-7.7s3.8-3.1,5.8-4.1c-0.5,0.1-4.6,0.7-7.1,1.7c0,0-3.2-6.4-6.5-8.5
	C229.1,284.9,227,284.3,224.8,284.4L224.8,284.4z M146.3,289c0,0-6-0.5-9.5,5.1c0,0,0,0,0,0c0-0.4,0.2-2.6,1.8-4.7
	c0,0-3.1,1.4-4.9,3.4c0,0-0.9,0.9-1.1,2c-0.1,0.6-0.3,1.1-0.5,1.5c0,0.1-0.1,0.3-0.2,0.4c-0.1,0.2-0.1,0.3-0.2,0.4
	c-0.1,0.1-0.1,0.2-0.2,0.3c-0.1,0.2-0.2,0.3-0.3,0.4c-0.3,0.4-0.7,0.6-1,0.7c-0.8,0.4-1.7,0.6-2.3,1.4c-0.5,0.6-1,1.5-1.2,3.2v0
	c0,0.5-0.1,1.1,0,1.7c0,0,1.8-2,3.5-2.9c0,0-2.8,4.3-3.1,7.5c0,0-0.6,5.4,4.5,8.1c5.1,2.8,12.6,4.9,14.8,6.6c0,0,3.8-2.8,6-3.7
	c0,0-5.1,4.9-6.5,9.5c0,0,3.1-2.9,4.8-3.5c0,0,4.8,3.5,7.7,3.2c2.9-0.3,7.1-0.1,8.8-4c1.7-3.8,1.4-4.4,2.2-5.7c0,0-2.8,1.7-4.8,3.5
	c0,0,0.9-3.8,4.8-6.8c3.8-2.9,5.7-3.4,5.7-3.4s9.1-12-1.5-17.8c0,0,5.2-2.6,8.1-4.4c0,0-8.5,2.1-11.2,3.1c0,0-6.3-1.2-9.7-1.2
	c-3.4,0-9.2-0.4-11.8-1.2c-2.6-0.8-5.2-1.7-5.2-1.7S145.1,289.3,146.3,289L146.3,289z M190.2,325.5c-0.2,0-4,0-6.5,2.1
	c0,0-7.7,0.8-9.2,6c-1.5,5.2,2.3,8.9,3.4,9.7c0,0,1.6-2.4,4.7-4c0,0-1.8,2.9-1.7,5.3c0,0,6.6,3.5,19.7,5.3
	c13.1,1.8,12.2,0.8,16.8,3.7c0,0,4.9-3.4,7.6-4.3c0,0-3.8,5.4-4.1,7.4c0,0,6.1,5.2,11.1,5.6c5,0.4,9.4-1.6,8.8-6.7l1.8-2.2l-3.2,0.2
	l0.9-1.7c0,0-0.1-2.6-1.6-4.7c0.2,0.1,2.8,1.5,5.1,0.8l-0.7,1.3c0,0,2.7-0.3,4.8-3.8l-1.7-0.4c0,0-0.1-3.8-3.6-7.5
	c-3.5-3.6-6.9-4.8-9-2.8c0,0-1-3.9-3.4-4.9c-2.4-1.1-4-0.9-4-0.9s-9.3,1.8-13.1,4.2c0.7-0.5,6.9-4.4,9-5.8l-5.1,1.2
	c0,0-5.4,0-10.4-0.4c-5-0.4-16.6-1.6-18.7-1.2C187.8,327,189.3,326,190.2,325.5L190.2,325.5z"/>
<path id="Teal_Face" class="st3" d="M340.5,185.8c-3.7,0-5.7,0.3-5.7,0.3s21.3,16.8,33.7,20c12.4,3.2,29.5-7.6,29.5-7.6
	s-5.8-2-17.1-5.2c0.7,0.9,1.1,2.1,1.1,3.3c0,3.1-2.6,5.7-5.7,5.7c-3.2,0-5.7-2.6-5.7-5.7c0-0.2,0-0.5,0-0.7c-0.1,0-3.1-1.8-3.4-2
	c-1.2-0.9-2.2-1.9-3.4-2.7c-2-1.4-4.6-3.4-7-3.9c-0.1,0-0.2-0.1-0.3-0.1C349.6,186.1,344.2,185.8,340.5,185.8L340.5,185.8z
	 M490.1,252.3c-5.5,0.2-9.6,2.5-9.6,2.5s19.8,0,27,6.3c7.2,6.3,5.3,11.1,5.3,11.1s7.2,11.6,9.2,16.4c0,0,13.5-12.5,14.5-21.2
	c0,0-26.2-13.3-43.9-15C491.7,252.3,490.9,252.3,490.1,252.3L490.1,252.3z M297.7,293c-7.6,0-11.4,2.2-11.4,2.2s15.3,3.7,23.9,19.4
	c13,23.7,3.8,65.6,13.5,87.9c12,27.7,34.1,35.1,34.1,35.1c28.9-15.5,35.1-39.6,35.1-39.6c-24.7-12.8-12.8-48.4-20.2-71.6
	c-7.4-23.2-34.8-27.7-34.8-27.7s22.5,9.2,23.1,74.1c0.2,21.8,6.9,31.1,6.9,31.1c-11.3-6-14.3-28.3-15.3-45.6
	c-0.5-8.8-4.1-51.5-36.8-62.1C308.3,293.7,302.3,293,297.7,293L297.7,293z M410.4,406.3l1,11.2l7.8,5
	C421.4,413.5,410.4,406.3,410.4,406.3L410.4,406.3z"/>
</svg>
