<svg version="1.1" id="Layer_1" xmlns="http://www.w3.org/2000/svg" xmlns:xlink="http://www.w3.org/1999/xlink" x="0px" y="0px"
	 viewBox="0 0 600 600" style="enable-background:new 0 0 600 600;" xml:space="preserve">
<style type="text/css">
	.st0{fill:#FFFFFF;}
	.st1{fill:#0080C6;}
	.st2{fill:#FFC20E;}
</style>
<path id="White_Bolt" class="st0" d="M598.8,432.3c-33.3-44.8-91.3-99.5-160.5-130.3l14.1,32.6C393.6,305,328.2,283.7,254,284
	l15.8,17.1C132.9,306.5,52.6,374.4,0,432.3c1.2-78.4,57.4-149.2,131.4-192.4l-15.2-14.1c55.1-38.1,132.3-48.8,197.5-41.3l-9.3-16.7
	C520.4,183.8,611.9,345,598.8,432.3"/>
<path id="Blue_Bolt" class="st1" d="M253,294.5l-16.6-18c62.9-2.1,126.5,7.4,200.4,42.1l-13.6-31.4
	c55.7,21.6,117.4,61.8,169.1,124.3c-4.6-94.6-100.1-217.1-273.8-234.6l9.7,17.4c-70.2-11.9-149.1,0.5-199.3,32.5l15.7,14.6
	C69.1,282,19.4,346.4,8.8,411.6C71.1,346.4,152.2,301.4,253,294.5"/>
<path id="Gold_Bolt" class="st2" d="M565.2,360.8c-29.4-79.2-118-147.5-217.4-163.9l11.7,20.8c-59.9-18.5-146.8-17.4-204,12.4
	l16.4,15.2c-52.4,22.5-107.7,70.6-129.6,114.7c35.9-32.4,114-69.9,178.1-77.8l-15.9-17.2c61.6-12.2,143.6-0.1,202.1,23.6l-11.3-26.2
	C438.4,271.4,518.4,309.9,565.2,360.8"/>
</svg>
