<svg version="1.1" id="Layer_1" xmlns="http://www.w3.org/2000/svg" xmlns:xlink="http://www.w3.org/1999/xlink" x="0px" y="0px"
	 viewBox="0 0 600 600" style="enable-background:new 0 0 600 600;" xml:space="preserve">
<style type="text/css">
	.st0{fill:#003594;}
	.st1{fill:url(#Outer_Arc_1_);}
	.st2{fill:#FFD100;}
	.st3{fill:#FFA300;}
	.st4{fill:#FF8200;}
	.st5{fill:url(#Arc_Gradient_1_);}
	.st6{fill:#FFFFFF;}
	.st7{fill:#D7D2CB;}
</style>
<path id="Blue_1_" class="st0" d="M526.8,157.8C444.7,75.6,316.7,61,218.1,122.5l0,0c-27.2,18-50.7,41-69.4,67.8
	c-0.1,0.1-0.1,0.2-0.2,0.2H97.1L0,410.1h125.9c18.2,33.9,45.8,61.9,79.5,80.6c64.3,35.4,142.8,32.4,204.2-7.7
	c8.9-5.8,11.4-17.8,5.6-26.7c-3.5-5.4-9.5-8.7-15.9-8.7c-1.9,0-3.8,0.3-5.7,0.8c-12.6,3.8-25.6,5.7-38.7,5.7
	c-37.7,0.1-73.7-15.9-98.8-44h117.6l20.2-28.1l78.4,0c0,0-2.4,6.1-3.7,9l-8.4,19.1h128.3l2.7-10
	C614.8,313.6,590.2,221.2,526.8,157.8z M304.4,329.5h-79.6c0-0.3,0-0.5,0-0.8c0-66.7,54.1-121.8,123.2-125.2
	c2.3-0.1,4.6-0.2,6.9-0.2c12.2,0,24.4,1.6,36.2,4.7L304.4,329.5z M476.9,265.8c3.5,12,5.7,24.2,6.7,36.7h-32.8L476.9,265.8z"/>
<linearGradient id="Outer_Arc_1_" gradientUnits="userSpaceOnUse" x1="-234.4869" y1="156.8908" x2="-234.4869" y2="158.1953" gradientTransform="matrix(276.7725 0 0 228.6273 65305.4219 -35771.2617)">
	<stop  offset="0.217" style="stop-color:#FFD100"/>
	<stop  offset="0.296" style="stop-color:#FFD724"/>
	<stop  offset="0.474" style="stop-color:#FFE87F"/>
	<stop  offset="0.707" style="stop-color:#FFFFFF"/>
</linearGradient>
<path id="Outer_Arc" class="st1" d="M225.3,134c101-41.3,216.4,7.1,257.7,108.2c20.3,49.6,19.5,105.3-2,154.3h97
	c34.3-125.8-39.8-255.6-165.6-289.9C349,89.3,281.2,99.2,225.3,134"/>
<path id="Arc_Inner" class="st2" d="M402.2,471.7C345,509,271.9,511.8,212,478.8l0,0c-14.8-18.6-25.7-40-32.1-62.9
	c20.7-1,50.6,0.8,72.7,10.3c27.3,26.7,64.1,41.6,102.3,41.4c14.4,0,28.8-2.1,42.6-6.2c0.6-0.2,1.1-0.3,1.7-0.3
	c3.1,0.1,5.6,2.8,5.5,5.9C404.7,469,403.7,470.7,402.2,471.7L402.2,471.7z M212,343.1c-0.5-4.8-0.8-9.6-0.8-14.4
	c0-74.2,60.4-135,136.2-138.8c-87.8,3.6-159.7,69-172,153.3L212,343.1z"/>
<path id="Arc_Light_Orange" class="st3" d="M229.5,396.5h-53.8c1,6.6,2.5,13.1,4.2,19.5l0,0c20.7-1,50.6,0.8,72.7,10.3
	C243.6,417.5,235.8,407.4,229.5,396.5z"/>
<path id="Arc_Orange" class="st4" d="M134.3,396.5c6.7,14,15.2,27.1,25.1,39c5.2-8,12.2-14.7,20.5-19.6c-1.8-6.4-3.2-12.9-4.2-19.5
	L134.3,396.5z"/>
<linearGradient id="Arc_Gradient_1_" gradientUnits="userSpaceOnUse" x1="-235.188" y1="157.3595" x2="-233.8835" y2="157.3595" gradientTransform="matrix(266.1014 0 0 265.8454 62709.2305 -41527.8672)">
	<stop  offset="0" style="stop-color:#FFA300"/>
	<stop  offset="0.134" style="stop-color:#FFA800"/>
	<stop  offset="0.289" style="stop-color:#FFB600"/>
	<stop  offset="0.453" style="stop-color:#FFCD00"/>
	<stop  offset="0.478" style="stop-color:#FFD100"/>
</linearGradient>
<path id="Arc_Gradient" class="st5" d="M412.9,200.9c-18.4-7.5-38.1-11.3-58-11.2c-2.5,0-5.1,0.1-7.6,0.2
	c-87.8,3.6-159.7,69-172,153.3h-50l61.6-139h-31.9c34-44.2,86.3-70.7,142.1-72c1.3,0,2.7,0,4,0c78.6,0,144.6,47.1,171.3,116.3l0,0
	C457.5,227.2,436.9,210.8,412.9,200.9z M179.9,416L179.9,416c-8.3,4.9-15.3,11.6-20.5,19.6c14.7,17.5,32.5,32.2,52.6,43.3
	C197.2,460.2,186.3,438.8,179.9,416L179.9,416z"/>
<path id="LA_White" class="st6" d="M480.9,341c0,9.3-1.3,18.5-4,27.3h-90.1l-20.1,28.1h-93.4l107.5-150.6c1.6-0.1,3.2-0.1,4.8-0.1
	c25.7,0,50.3,10.3,68.2,28.8l-29.7,41.5h53.4C479.8,324.2,480.9,332.6,480.9,341L480.9,341z M105.9,204.1l-85,192.4h215.3
	c15.7,0,25.9-8.4,33.7-18.8l24.6-34.6H125.4l61.6-139H105.9z"/>
<path id="LA_Shadow" class="st7" d="M472.5,248.4l-18.7,26.2c-17.9-18.4-42.5-28.8-68.2-28.8c-1.6,0-3.2,0-4.8,0.1l32.1-45
	C436.9,210.8,457.5,227.2,472.5,248.4z M491,368.4c4.5-16.8,6.8-34.1,6.8-51.5v-0.8h-20.2c4.7,17.2,4.4,35.3-0.7,52.3L491,368.4z"/>
</svg>
