<svg version="1.1" id="Layer_1" xmlns="http://www.w3.org/2000/svg" xmlns:xlink="http://www.w3.org/1999/xlink" x="0px" y="0px"
	 viewBox="0 0 600 600" style="enable-background:new 0 0 600 600;" xml:space="preserve">
<style type="text/css">
	.st0{fill:#FFFFFF;}
	.st1{fill:#0A0A09;}
	.st2{fill:#C8C7C7;}
</style>
<path id="White_Shield" class="st0" d="M300.6,0C223.9,69.5,123.8,67.4,21,54.5C-1.2,306.4,85.1,555,299,600
	c215.9-43.3,301.2-291.4,280.4-543.4C483.6,66.2,384.4,70.1,300.6,0 M300.6,0C223.9,69.5,123.8,67.4,21,54.5
	C-1.2,306.4,85.1,555,299,600c215.9-43.3,301.2-291.4,280.4-543.4C483.6,66.2,384.4,70.1,300.6,0"/>
<path id="Black_Shield" class="st1" d="M300.3,24.6c-63.9,52-164.7,64.9-261,50.8c-14.4,229.7,60.6,454.1,259,505.9
	C497.1,530.6,574.1,307.1,561,77.4C462.8,88.4,363.9,76.9,300.3,24.6"/>
<path id="Silver_Helmet" class="st2" d="M283,181.7C283,181.7,283,181.7,283,181.7L283,181.7L283,181.7z M362.3,438.2
	c9.5,18.1,3.7,28.9,3.7,28.9c-1.2,9.4-11.2,14.2-16.7,17.8c-13.7,12.3-36.1,16.4-53.7,14.2c-2.2,3.8-8.2,6.1-8.2,6.1
	c-3.3,1.1-4.9-6.1-4.9-6.1c6-1.6,9.4-3.2,9.4-3.2c-11.7-13,18.1-20.6,26.2-25.4c8-3.5,12.8-7.8,15-12.3
	c5.9-12.8,18.1-21.3,21.5-23.1c4.1-3.7,5.8-11.5,5.8-11.5c11.7-36,15-80.9,10-103.4c-2.3-17.8-7.4-21.1-17.7-23.6
	c-25.2-4.6-92.5-3.1-120.7-1.3c-26.8,24.8-15.4,91.8-1.2,120.8c3.7,4.8,4.3,5.5,4,10c2.9,32.8,7.8,37.7,7.8,37.7
	c10.4,14.3,7.8,1.7,7.8,1.7c9.3,10.3,27.2,17.1,27.2,17.1c-1.3,0.6-13.5,8.4-13.5,8.4c-25.8-18.3-31.4-36.9-31.8-54.6
	c-2-18.2-4.9-6.1-4.9-6.1c-7.6-5-5.2-13.3-5.2-13.3c0.8-14.3-3.4-10-3.4-10l-4.6-0.2c-7.1-14.1-22.9-86.1-22.9-86.1
	c-4.4-40.1,10.3-47.2,17.6-49.4c-0.9-7.9,12.9-58.1,12.9-58.1c8.1-25,35.1-31.5,61.2-31.5l-4.2,104.4l38.3-0.1l-5.8-104.3
	c42.6,0.9,56.8,12.5,66.1,36.5l-1.3,0.9c-11-15-0.4,12.6-0.4,12.6c1.9,13.2,6.7,21.3,8.2,54.7c3.2,26.3-3.9,97.2-3.9,97.2
	c4.4,2.8,9.6-39.2,9.6-39.2c2-21.3-3.3-95.6-11.3-117.9l2.2-2.6c0,0,8.8,22.9,11.7,46.5c4.8,1.7,5.7,5.7,9.1,21.8
	c-0.6,10.9-2.4,0.9-3.2-3.6c-5.1-13.2-4.2-3.3-4.2-3.3c3.7,28.3,2.6,60,2.6,60c-3.1,20,2.6-0.9,2.6-0.9c2.7-13.6,3-18.3,3-18.3
	c-1.2-26.9,3,1.3,3,1.3c-3.7,47.8-34,82.6-34.4,83.1C371.7,419.7,365.9,431.8,362.3,438.2z M336.6,481.7l-0.1-0.2
	c0.8-3-0.2-4.1-1.8-5.3c-1.6-1.3-4.9-1.5-6.7,0.1c-3,2.9-4.8,3.3-7.4,5.6c-1.9,1.6-3.5,1-5.5,1.7c-1.7,0.7-4.1,2-4.7,4
	c-0.7,2.1,2.7,5.1,3.7,5.7C320.4,496.9,336.2,492.5,336.6,481.7L336.6,481.7L336.6,481.7C336.6,481.7,336.6,481.7,336.6,481.7z
	 M358.9,457c0.6-4-2.9-7.7-5.3-4.5c-1.3,1.7-1.4,4.8-3,6.5c-4.3,4.4-7,5.2-9.6,7.9c-2.7,2.9-3.6,4.8-1,8.7c0.2,0.3,0.6,4.3,3.5,6.4
	c3.5,2.6,8.5-0.1,13.7-6.7c1.2-1.5,1-3.5,1.2-5.2C359.1,465.7,358.3,461.3,358.9,457L358.9,457z"/>
<path id="White_Face" class="st0" d="M332.5,483.7c-0.1,0.5-0.5,1.8-1.3,2.8h0c-1.2,1-5.5,3.2-4.9,2.8c-2.9,1.6-6.2,2.5-9.4,1.9
	c-2.9-0.6-1.7-3.1-1.1-3.2c8.3-1.1,9.9-5.8,15.1-7.8C332.4,480.7,332.7,483.1,332.5,483.7z M346.2,421.7c0,0.1,0,0.2,0,0.3
	C346.2,422.3,346.3,422.2,346.2,421.7z M241.5,426.1C241.5,426.1,241.5,426.1,241.5,426.1C241.5,426.1,241.5,426.1,241.5,426.1
	L241.5,426.1z M347.1,434.4c0.7-1,2.1-1.2,2.9-1.9c2.2-2,3.9-4.7,4.4-7.8c0.2-1.1-0.7-1.6-1.4-2.4c0.2,0.9-1,0.6-1,1.3l0-0.7v0
	c-1,1.1-1.9,2.2-3,3.2c-0.4,0.4-0.7,1-1.2,1.4c-1.2,0.9-2.3,1.8-3.6,2.6c-1.3,0.8-2.3,3.2-1.1,4.2
	C344,435.3,345.9,436.2,347.1,434.4z M241.5,426.1c0.7,4.3-1.7,7.9,0,12.2c0.7,1.7,1,4.1,2.1,4.6c2.2,1.1,4-2.6,6.2-3.8
	c-1.3-2.1-2-4.4-3.3-6.6C245.7,431.1,242.8,429.6,241.5,426.1z M127.6,196.8c0,0-0.1,0.1-0.1,0.1c-3.1-1.5-5.2-4.8-5-8.5
	c0.3-4.9,4.4-8.7,9.3-8.4c4.9,0.3,8.7,4.4,8.4,9.3c0,0.5-0.1,1-0.2,1.4l-2.3,0l0,0L127.6,196.8z M131.1,193.4
	c3.5,0.8,8.2-7.1,2.8-10c0,0-3.1,0.5-1.4,1.2c4.5,1.9,1.2,7.6-2.3,7.1C130.2,191.7,127.3,192.5,131.1,193.4z M227.5,322.3
	c1.6-2.2,1.9-4.8,7-4.5l0,0c-0.2,0,8.6-1.5,8.4-1.5c9.4,0,31.7-0.1,36.5,1.8c2.5,1,6.8-1.3,8.9-2.1c8-3.2,9-3.9,17.5-8.9
	c1.4-0.8,11.3-6.8,9.5-7c-23.1-2.5-70.1-2.2-79.4,0.5c0,0-3.9,0.7-5,1.9c-4.4,4.9-3.5,5.3-6.5,12.1c2-4.4-1,5.6-1.3,6.5
	C222.2,323.7,226.6,323.5,227.5,322.3z M226.8,440c-2.5-1.5-9.8-12.9-9.8-12.9l0,0l-3.4,1.8c-14.4,13-66.5,33.5-66.5,33.5
	c21.6,8.5,64.2,3.2,81.6-9.8C229.9,442.8,226.8,440,226.8,440z M175.9,260.5c0,0,12.4,19.3,14,20c2.5-4.8,6.8-11.4,12.4-11.8l1-7.1
	L190,246.5L175.9,260.5z M169.8,258.8c-32.2,29-93.1-17.2-42.3-61.9c1,0.5,2.2,0.8,3.4,0.9l0,0c4.4,0.2,8.2-2.8,9.1-7l5.2,0
	c9.9,11,34.3,43,34.3,43l-3.7,9c9.6-8,15.1-13.3,18.6-18.3c6.9-7.5,13.2-1.6,7.7,3.3C198.5,234.9,181.1,249,169.8,258.8z M166,244.6
	c-5.1,2.6-9.7-2.6-7.5-7.3c1.5-3-2.9-6.5-4.9-5.5c-3.8,1.8-8.6-3.6-6.1-8.8c1-2-3-7.2-6.2-5.9c-4.1,1.6-10.4-5.2-7.1-8.2
	c4.5-4-0.6-7.9-6.2-1h0c-27.8,20.1,12.6,64.7,40.3,41.3C168.3,249.3,171.4,241.8,166,244.6z M354.3,465.5
	c-6.7,4.5-14.9,8.4-7.2,12.5c1.8,0.9,6.7-2.6,7.9-6.6C354.9,471.6,354.6,465.3,354.3,465.5z M376.7,420.5L376.7,420.5
	C376.7,420.5,376.7,420.5,376.7,420.5L376.7,420.5z M376.7,420.5c-2.3,7.1-6,14.1-8.1,17.2c0,0,3,5.4,4,10.7
	c15.4,11.9,32.5,23,75.8,12.5c-7.7-2.4-56.1-26.5-68.6-38.2L376.7,420.5z M366.6,336.1c0.3,12.9,1,17.4-0.7,26.1
	c0,0.1-1.4,3.2-1.8,3.2c-1.1,1.6-2.9,3.9-5.1,5.8c-0.7,0.6-0.4,2.5,0.1,2.2c1.4-0.9,4-1.4,6-2.3c-0.1,5.5-0.6,12.1-1.9,18.2l0,0
	c-1.1,5-1.7,10.1-3.4,14.9c-1.6,4.4-2.4,7.4-7.8,12c-1.1-9.5-3.8-14.3-3.3-17.8c-3.7,1.4-3.2,6.9-3.6,11.9c-0.5,6,0.6,10.8,1,11.8
	c-0.3,1.2-2.8,3.1-3.8,4.7c-3.4,5.4-7.2,10.4-11.8,14.8c-0.7,0.7-0.9,2-1.6,2.3c-2.6,1.1-3.2,2.8-4.7,4.5c-1.2,1.4-4.5,2.5-6.1,3.5
	c-1.1,0.6-4.3,1.5-5.1,1.6c-1.9,0.4-3.7,0.3-6.6,0.2c-2.8-0.1-6.7-3.6-9.7-4.4c-8.9-2.2-10.9,5.9-24.7,2.9c-5.7-1.2-6.8-5-10.4-9.1
	c-0.7-0.8-4.1-4.9-4.6-5.5c1.4,1.5-9.5-8.7-11.5-16.6c-2.3-8.8-1.1-9.5-0.1-17c0.4-2.8-0.1-9.8-2.7-10.3c-2.4,2.5-0.7,4.2-1.4,7.8
	c-0.7,3.5,2.5,3.6,0.1,11.4c-0.7,2.2-1.9,1.7-2.6,0.2c-2.6-5.6-1.2-17.6-7.1-22.3c-1.3-1.1-1.4-4.3-0.3-5.2c1.8-1.3,3.6,0.8,5.9,0.2
	c0.4-0.1,0.2-2.9-0.2-3.3c-1.9-2.2-6.2-1.3-6.1-1.6c0.6-4.5,0.5-8.6-1.1-10.8c-2.1-3-5.2-3.6-6.5-6.5c-2.7-6.3-1.8-9.9-2-11.5
	c-0.3-2.2-0.9-5.8-0.2-8.2c-0.6,0.1-0.4-5.2-0.4-5.6c0.4-3.9,1.1-3.7,1.7-7.4c0.1-2.3,5.7-3.6,5.8,1.6c-1.4,6.9,0.7,12.3,0.9,19.3
	c0,0.8,1.4,1.6,2.3,1.9c15.2,4.4,26.6,2.7,41.7,2.4c4-0.1,6.5-5.1,7.3-9.1c1.4-6.5,1.4-8.7,1.5-15.9c0.8-1.9,2.5-1.4,3.9,0.2
	c2.6,3,0.6,4.1,1.2,7.9c0.5,3-3.3,7.3-3.3,7.3c0.4,0-1.3,10.1-0.9,10.1c0.8,0-0.6,9-0.8,8.8c-0.6,4.9,2.8,3.1,2.3,6.7
	c-0.1,1.6-0.9,3.9-0.9,4.2c0.5,3.3-6.9,2.6-5.7,2.6c-1.6-0.1-2.9-0.8-2.8-2.1c0.1-1.9-0.4-3.2-0.4-4.9c-3.6-0.2-2.1,2.7-2.3,6.4
	c-0.1,1.6,1,3,3.7,3.5c2.9,0.5,3.2,0.8,4.6-0.1c0.7-0.5,3-1,3.4-2.1c1.4,5.3,2.9,6,6.9,5.9c1.7-0.1,5.5,0.6,7-3.2
	c0.4-1,3-0.8,3.4-1.8c6.8,1.3,2.6,4.1,10.9,1.5c2.5-0.8,4.5-4.4,2.4-7.2c-0.3-0.3-1.6-0.3-1.6-0.1c-0.9,7.1-3.7,5-6.3,4.8
	c-8.7-0.5-4-4.1-11.4,0c-0.9,0.5-3.5,4.1-6.9,1.3c-4.7-4.2,0.4-7.2,0.9-11.7c0.5-4.1,0.3-17.1,0.1-20.9c-0.5-8.9,1.8-3.5,3.3-7.3
	c-1.3,0.3-0.6-10.9-0.7-11.5c-0.8-4-5.4-2.4-6.7-3.9c0,0-0.5-3.1,0.2-3.3c5.3-1,12-3.9,16.8-6.3c11.1-5.5,17.4-8.9,22.7-12.2
	c1.6-1,2.2-3.1,3.1-3.1c10.1-0.1,19.9-2.2,28.9,2.8c6.3,3.5,7.8,6.9,9.5,12.9c-0.7,0.1,0.6,6.4,0.6,6.9
	C366.8,327,366.6,334.2,366.6,336.1z M306,336.8c-0.1-0.7,1.5-0.2,1.6-0.6c0.2-0.5,0.3-2.5,0.4-3.8h0
	C312.6,329.8,304.6,329,306,336.8z M306.3,360.1c0-18.6-1.3-13.5-2.7-9.9c1,5.3,0.1,4.6-0.5,9.4C302.5,364,306.3,365,306.3,360.1z
	 M309.7,368.9c0-0.6-0.5-1.2-1.1-1.2c-0.6,0-1.2,0.5-1.2,1.1c0,0.6,0.5,1.2,1.1,1.2v0C309.1,370.1,309.7,369.6,309.7,368.9z
	 M313.5,327.2c6.6-0.2,10.2-0.5,16.4-1.1c1.5-0.2,7.5-4.3,9-3.5c3.2,1.8,6.9,4.6,6.6,4.6l0,0c-0.2,0,2.7,1.8,2.5,1.8
	c0.4,0,3.3,1,3.6,0.8c0.2-0.2,0.8-2.1,0.8-2.6l0.1-1.6c-1.3-4.1-0.5-1.4-3.4-3.4c-1.6-1.1-3.1-5.3-4-4.5c1-0.9-10.5-1-18.3-0.6
	c-2.3,0.1-9.7,0.4-9.7,0.4c-2.4,6.5-6.3,2.1-8.3,4.7c-0.7,0.9-0.8,2.7-0.2,3.6C309.6,327.3,311.9,327.2,313.5,327.2z M319.1,343
	c0-0.2,0-0.4,0-0.7c0.1-0.5-0.9-0.4-0.6-1c-1.6-0.5-3.1,1-4.6,0.3c-0.9-0.3-1.4-1.2-2.2-1.7c-0.1,1.2-0.5,2.9,0.6,3.4
	C314.4,344.3,316.8,341.6,319.1,343z M312.1,386.2c2.3,0.4,4.1,1.6,6.4,2.1c0.6,0.1,1.3,0.8,1.9,1.2v0l-0.3,0
	c0.1,1.1,1.4,1.3,1.8,0.7c0.3-0.7-0.9-0.8-1.4-1.1c-1.6-1-1.9-3.3-3.8-3.9c-1.5-0.5-3-1.2-4.5-0.5
	C311.3,385.2,311.6,386.1,312.1,386.2z M312.7,417.3c0.1-2.6-5.2-0.3-5.2-0.9c-6.3,2.3-19.9-1.4-27.1-0.8l0,0
	c-5.5-0.9-9.3-0.7-8.8,0.5c1.7,4.7,7.7,3.7,8.3,3.7c13,0.4,15.3-1.6,21.6-0.2C303.8,420.2,312.5,420.9,312.7,417.3z M326.5,401.4
	c0.6-0.2-4.9,0.5-4.5-0.3c-1.6-0.3-2.6,0.6-4,0.8c-3.2,0.4-6.4,0.2-9.8-1c-4.9-1.7-10.4,0.8-15.6,0.8c-8.4,0-17.8-3.1-28.3-2
	c-1,0.1,8.6-7.7,7.9-6.8c2.4-3,3.2-7,3.7-6.9c0.1,0.1,0.2,0.2,0.2,0.3c-0.1-0.2-0.1-0.3-0.2-0.3c-0.7-0.8-3.2-2-6.8,2.5l0,0
	c-2.1,2.6,0,3-5,7.9c-1.4,1.4-4,2.4-5.3,4.2c-0.2,0.3-0.2,1.5-0.2,2.4c3.2,1,9-1.5,15.1-1.6c3.7-0.1,7.3,1.2,11,1.9
	c6.6,1.3,12.6-0.1,20.6-0.5c9.5-0.5,11.3,1.7,14.3,1.4C325.5,403.6,329.1,400.7,326.5,401.4z M323.3,393L323.3,393
	c-0.7,1.7,1,2.8,2,1.9c0.7-0.7,0.6-2.6-0.9-3.1C324.5,392.6,323.5,392.5,323.3,393z M343.3,348.5c-0.4-0.1-0.6-0.6-0.9-0.6
	c-3.8,0-7.2-1-10.7-2.5c-1.2-0.5-2.4,0.4-3.6,0.6c-1.6,0.2-3.4-0.5-4.8,0.1c-1,0.4-1.9,1.9-1.1,2.4c1.3,0.7,3.5,0.6,5.3-0.6
	c2-1.4,4.6-0.9,7-0.4c0.6,0.1,1.3,0.6,1.9,0.6C338.8,348,341,348.6,343.3,348.5L343.3,348.5z M351.9,336.7c-0.5-0.5-2.1-0.1-3-0.8
	c-0.3-0.2-0.3-0.9-0.7-1.2c-2-1.4-4.9-1-7-0.9c-6.7,0.2-11.8-2.9-18.3-0.6c-1.9,0.6-4.1,0.5-6,0.7c-0.3,0-1.1,0.3-1.3,0.7
	c-0.2,0.3,0.5,0.5,0.2,1c1.1,0.2,2.1-0.6,3.3,0.1c1.7,1.1,2.8,2.8,5.1,2.3l0.8-0.4c4,0,7.3,0.7,11,1.1c-0.1,0,0.3,0.1,1.4,0.2
	c-0.5,0-0.9-0.1-1.4-0.2c0.3-0.1,10.9,0.7,8.9,1.9c1.6-0.9,3.1-0.7,4.8-1.6h0C350.8,338.5,352.9,337.8,351.9,336.7z M355.4,376.8
	C355.4,376.8,355.4,376.8,355.4,376.8c-0.4,1-1.1,1.1-2,1.6c-0.6,0.4-1.4,1.4-1,2.1c0.2,0.4,0.9,0.7,1.5,0.7c0.6,0,1.1-0.7,1.3-1.2
	C355.5,379.1,355.3,377.9,355.4,376.8L355.4,376.8L355.4,376.8z M406.2,295c2.5-3.8,13.8-25.7,15.4-32.8
	c-2.9-1.8-14.4-12.2-16.3-13.3v0l-9.8,12.9l1.4,5.3C404.1,267.1,405.9,281.9,406.2,295z M424.7,260.1c-11.6-9.5-29.4-23.1-33.3-30
	c-5.6-4.8,0.4-10.8,7.6-3.6c3.7,4.9,9.4,10,19.2,17.7l-4-8.8c0,0,23.4-32.7,33-44l5.2-0.2c-0.1-0.4-0.2-0.9-0.3-1.4
	c-0.4-4.9,3.3-12,8.2-12.5c4.9-0.4,9.2,3.2,9.6,8.1c0.3,3.7-1.7,7-4.7,8.6C517.3,237.1,457.8,288.1,424.7,260.1z M461.5,190.6
	c3.8-1,0.8-1.7,0.8-1.7c-5,0.9-8.6-4.2-2.5-7c1.7-0.8-1.4-1.2-1.4-1.2h0C451.4,184.8,456.4,192,461.5,190.6z M465.9,204.3
	L465.9,204.3c-4.6-4.8-8.4-2.1-7.1,2c1.5,4.5-4.1,13.1-6.9,11.3c-3.7-2.4-7.4,3.9-6,6.1c2.3,3.7-2.1,11-5.8,9
	c-2-1.1-6.1,2.9-4.8,5.6c2.3,4.5-2.6,8.7-7.2,7.5c-5.9-1.5-2.2,4.8-2.2,4.8C454.3,273,494.4,223.5,465.9,204.3z"/>
<path id="White_Letters" class="st0" d="M327.2,399.2c0.5,0,0.9-0.5,0.9-1.2c0-0.7-0.4-1.2-0.9-1.2c-0.5,0-0.9,0.6-0.9,1.2
	C326.3,398.6,326.7,399.2,327.2,399.2 M470.6,131.9c5.1,3.5,9.2,5.5,13.2,5.5c2.7,0,4.2-1,4.2-2.7c0-2.4-2.7-2.7-7-3.7
	c-9-1.9-13.6-6.9-13.6-14.6c0-11.1,8.6-19.2,22.1-19.2c6.1,0,11.7,1.5,17.8,4.8l-5.8,13.8c-3.7-2.7-7.5-4.1-10.9-4.1
	c-2.7,0-4.1,1-4.1,2.5c0,2.6,3.5,3,9.8,4.4c7,1.5,11.7,6.8,11.7,14.2c0,11.3-9,19.9-22.8,19.9c-6.9,0-14-2-20.8-5.9L470.6,131.9
	 M113.4,122.3h3c3.6,0,5.6-1.8,5.6-5.1c0-3.3-1.9-5.2-5.6-5.2h-3L113.4,122.3L113.4,122.3z M94.8,98.4h23.9
	c14.1,0,21.3,6.5,21.3,17.8c0,7.5-4.1,12.8-10.2,13.5l14.1,21.5h-21.3l-9.2-17.4v17.4H94.8L94.8,98.4 M190.8,131.6l-1.6-6
	c-0.7-2.8-1.9-6.5-2.1-11.6h-0.4c-0.3,5.1-1.4,8.8-2.1,11.6l-1.6,6H190.8L190.8,131.6z M176.6,98h21.1l18.5,52.8h-20.4l-1.7-6.6
	h-14.3l-1.6,6.6h-20.4L176.6,98 M233.1,98.4h19.3v52.8h-19.3V98.4 M303.2,124.8c0-6.9-3.8-10.2-11.5-10.2h-0.8v20.5
	C299.3,134.9,303.2,132,303.2,124.8z M274.6,98.4H290c9.2,0,16,0.9,20.9,3.3c9.1,4.6,14.2,13.1,14.2,23.1c0,8.7-3.9,16.3-10.9,21.1
	c-6.9,4.7-15,5.2-25.6,5.2h-14L274.6,98.4 M343.1,98.4h35.3v14.3h-16.7v5.1h15.1v13.5h-15.1v5.5h17.1v14.3h-35.7V98.4 M418.8,122.3
	h3c3.6,0,5.6-1.8,5.6-5.1c0-3.3-1.9-5.2-5.6-5.2h-3V122.3L418.8,122.3z M400.2,98.4H424c14.1,0,21.3,6.5,21.3,17.8
	c0,7.5-4.1,12.8-10.2,13.5l14.1,21.5H428l-9.2-17.4v17.4h-18.6L400.2,98.4"/>
</svg>
