<svg version="1.1" id="Layer_1" xmlns="http://www.w3.org/2000/svg" xmlns:xlink="http://www.w3.org/1999/xlink" x="0px" y="0px"
	 viewBox="0 0 600 600" style="enable-background:new 0 0 600 600;" xml:space="preserve">
<style type="text/css">
	.st0{fill:#FFFFFF;}
	.st1{fill:#D3BC8D;}
</style>
<path id="Black_Outer" d="M494.5,237.6c-44.1-25.6-87.6-19.7-120.5-5c-1.5-10.8-4.3-22.7-9-36.6c-7-20.7-14.6-40.5-21.4-57.9
	c-8.9-22.9-15.6-42.6-19.3-55.7L300.2,0l-24.9,82.4c-3.8,13.1-10.4,32.8-19.2,55.8c-6.7,17.5-14.3,37.3-21.3,58
	c-4.7,13.9-7.5,25.8-8.9,36.7c-33-14.6-76.5-20.5-120.5,5.3c-36,21.1-55.3,57.7-50.4,95.6c4.5,34.5,28.1,61.5,61.5,70.7l24.9,6.8
	l6.1-25.1c0.9-3.4,9.8-34.8,38.1-34.2c19.6,0.4,35.9,17.7,44,28.9c-2.6,7.9-4,17.4-2.7,27.6l-11.1-14.8l-20,14.9
	c-18,13.4-44.2,46.6-28,85.7c7.1,17.1,22.2,28.7,42.7,32.8c12.5,2.5,26.7,1.9,39.9-1c5.2,16.6,14.6,36.8,31.8,54.8l18.1,19l18.1-19
	c17.2-18,26.6-38.2,31.7-54.9c13.2,2.8,27.4,3.4,39.9,0.9c20.5-4.1,35.6-15.8,42.6-32.9c16.1-39.2-10.2-72.3-28.2-85.7l-20.1-14.9
	l-11,14.8c1.3-10.2-0.1-19.7-2.8-27.6c8.1-11.2,24.3-28.6,43.9-29c28.3-0.6,37.3,30.7,38.2,34.3l6.1,25c0-0.2,24.8-7.1,24.8-7.1
	c33.4-9.2,56.9-36.4,61.3-70.9C550,295.2,530.6,258.6,494.5,237.6"/>
<path id="White_Outer" class="st0" d="M291.9,85.9c-3,14.3-10.9,34.7-20,58.4c-6.7,17.3-14.2,36.9-21,57.3
	c-6.5,19.5-9.2,34.1-9.2,47.7c0,4.3,0.5,8.6,1,12.9c-25.2-17.3-74.7-40.9-128.8-9.3c-30,17.6-46.2,47.7-42.1,78.7
	C75.4,359,94.3,380.7,121,388l7.9,2.2l2-8c0.5-2,12.4-48.1,55-47.2c34.3,0.7,56.7,34,62.8,44.3c-2.9,5.3-5.3,12.7-5.3,21.1
	c0,9,3.1,19.3,10.9,29.6c-3.1,4.2-8.3,9.4-14.2,9.9c-8.5,0.7-17.2-8.3-22.9-16l-4.8-6.4l-6.4,4.8c-13.1,9.8-34.7,36-22.5,65.6
	c4.9,11.8,15.4,19.6,30.3,22.6c15.4,3.1,34.9,0.3,48.7-6c2.7,15.6,10.3,42,32,64.7l5.8,6.1l5.8-6.1c21.7-22.8,29.2-49.2,31.9-64.8
	c13.9,6.3,33.4,9,48.8,5.9c14.9-3,25.3-10.8,30.2-22.7c12.1-29.6-9.5-55.8-22.6-65.6l-6.4-4.8l-4.8,6.4c-5.7,7.7-14.3,16.7-22.9,16
	c-6-0.5-11.1-5.7-14.3-9.9c7.8-10.3,10.8-20.5,10.8-29.6c0-8.5-2.4-15.9-5.3-21.2c6-10.3,28.4-43.7,62.7-44.4
	c42.6-1,54.6,45.1,55.1,47.1l2,8l7.9-2.2c26.7-7.4,45.4-29.1,49-56.7c4-31-12.2-61.1-42.3-78.6c-54.2-31.5-103.7-7.7-128.8,9.6
	c0.5-4.2,0.9-8.3,0.9-12.5c0-13.7-2.7-28.5-9.3-48.1c-6.9-20.3-14.4-39.9-21.1-57.2c-9.1-23.6-17-44-20.1-58.4l-7.9-36.7L291.9,85.9
	"/>
<path id="Black_Inner" d="M300.3,563.7c30.7-32.2,31-72.9,31-72.9c13.6,13.5,66.3,22.6,78.1-6.2c13-31.6-20-56.1-20-56.1
	c-31.9,42.8-53.4,0.9-53.4,0.9c24.3-26.3,6.1-50,6.1-50c1.6-4.8,28.6-51.8,71.7-52.8c49.8-1.1,63.1,53.2,63.1,53.2
	c52.2-14.5,62.3-87.2,4.8-120.6c-72.9-42.4-136.4,22.2-136.4,22.2c5.9-24.2,7.6-42.2-4.3-77.5c-16.2-47.8-35.9-90.6-41.5-116.4
	c-5.5,25.8-25.2,68.6-41.2,116.5c-11.8,35.3-10.1,53.4-4.1,77.5c0,0-63.6-64.4-136.4-21.9c-57.4,33.5-47.1,106.2,5.1,120.6
	c0,0,13.2-54.3,62.9-53.3c43.2,0.9,70.3,47.9,71.9,52.6c0,0-18.2,23.7,6.2,50c0,0-21.3,42-53.3-0.8c0,0-32.9,24.5-19.9,56.1
	c11.9,28.8,64.6,19.6,78.2,6.1c0,0,0.5,40.6,31.2,72.8"/>
<path id="Gold_Inner" class="st1" d="M299.8,121.4l-0.1,0.7v-0.7c0,0-4.6,23.9-27.4,83.2c-22.8,59.3,2.7,108.8,4.8,119.8
	c0,0-48.8-67.2-108.1-67.1c-59.3,0.1-108.7,67.5-53.9,107.4c0,0,16-49.8,71.3-49.9c40.6-0.1,81.4,43.5,83.1,65.1
	c0,0-18.6,26.3,7.3,48.3c0,0-28,58.8-66.7,16.4c0,0-29.8,37.3,9.2,46.3c30.9,7.2,61.4-24.2,61.4-24.2s-3.3,49.5,19.6,76.6v-0.2
	l0.1,0.2c22.8-27.1,19.4-76.7,19.4-76.7s30.5,31.3,61.4,24.1c38.9-9.1,9-46.3,9-46.3c-38.6,42.4-66.7-16.3-66.7-16.3
	c25.8-22.1,7.1-48.3,7.1-48.3c1.7-21.6,42.3-65.3,82.9-65.3c55.3,0,71.4,49.7,71.4,49.7c54.7-40,5.2-107.4-54.1-107.3
	c-59.3,0.1-107.9,67.4-107.9,67.4c2.1-11,27.5-60.6,4.5-119.9C304.5,145.3,299.8,121.4,299.8,121.4L299.8,121.4z"/>
</svg>
