<svg version="1.1" id="Layer_1" xmlns="http://www.w3.org/2000/svg" xmlns:xlink="http://www.w3.org/1999/xlink" x="0px" y="0px"
	 viewBox="0 0 600 600" style="enable-background:new 0 0 600 600;" xml:space="preserve">
<style type="text/css">
	.st0{fill:#A71930;}
	.st1{fill:#0B2265;}
</style>
<g transform="translate(1.0949 .90303)">
	<path class="st0" d="M202.4,66.5c-22.1,0.5-43.5,7.3-59.5,19.6V70.5H-1.1l0,82.3h33.5c6.9,0,12.5,5.6,12.5,12.5v233.5h98.1V180.6
		l0-2.3h0c0-13.1,11.1-23.7,24.7-23.7c13.5,0,24.4,10.3,24.7,23.2v178c0,5.2,1,10.1,2.7,14.7c6,16.1,21.5,27.7,39.7,27.7h92v-79
		l-1.9,0h-21.3h0c-6.9,0-12.5-5.6-12.5-12.5V305c0-0.2,0-0.3,0-0.5c0-2.9,0-5.9,0-8.9v-59.9c0-7.2,0-11.7,0-11.7l0-18.8V134
		c-0.1-2.1-0.5-5.2-1.3-9c-1.4-6.5-4.3-14.9-9.9-23.1C268,84.6,253,75.2,232.7,70C222.7,67.4,212.5,66.3,202.4,66.5L202.4,66.5z
		 M308.5,70.5v82.1H334c6.9,0,12.4,5.6,12.4,12.5v160.5c1.6,26.4,17.3,50.6,37.3,61.9c20.1,15.9,68.8,23.2,95.1,13.9
		c0,0,12.1-3.8,19-8.4v20.4c0,4.9-0.4,7.9-1.7,11.7c-3.3,7.2-10.7,11-22.3,11.3l-429.1,0v95.5h465c14.2-0.7,27.5-2.3,38.7-5.5
		c15.3-4.7,50.4-21.1,50.4-73c0-0.8,0-19.9,0-20.6h0l-0.2-362.1H498.2v210.8c0,2.5,0,5.1-0.2,7.6c0,1-0.1,2-0.2,2.9
		c-1,7.7-5.6,14.2-12.2,18c-3.9,2.2-8.3,3.5-13.1,3.5c-13.8,0-25.5-10.6-25.5-23.7l0.1-219.1L308.5,70.5L308.5,70.5z"/>
	<path class="st1" d="M203,80.3c-19.2,0.3-37.7,6.2-51.7,16.8l-22.3,17V84.3H12.8c0,15.3,0,39.3,0,54.6h19.6
		c14.5,0,26.3,11.8,26.3,26.3v219.7h70.4V180.5c0,0,0-2.3,0-2.2c0-20.7,17.3-37.5,38.6-37.5c20.8,0,38.1,16.5,38.5,37v178
		c0,3.3,0.6,6.7,1.8,9.9c4.1,11.1,14.9,18.6,26.7,18.6h78.1V333h-9.4c-14.5,0-26.3-11.8-26.3-26.3h0v-1.4c0-0.3,0-0.6,0-0.6l0-9.1
		v-59.8c0,0,0-11.7,0-11.8l0-18.8v-70.4c-0.1-0.6-1-6.8-1-6.8c-1.5-6.7-4.1-12.8-7.8-18.3c-9.4-13.8-21.2-21.7-39-26.3
		C220.7,81.2,211.7,80.2,203,80.3L203,80.3z M512,84.3v196.9l-0.2,8.3l-0.2,3.5l-0.1,0.4c-1.5,11.7-8.6,22.3-19,28.3
		c-6.1,3.5-13,5.3-20,5.3c-10.7,0-21.1-4.3-28.6-11.8c-7-7-10.8-16.1-10.8-25.6c0,0,0.1-181.1,0.1-205.4h-111v54.4H334
		c14.5,0,26.3,11.8,26.3,26.3v105.5v54.4c1.4,20.7,13.5,41,30.3,50.5v0l0.9,0.5l0.8,0.6c16.6,13.1,60.2,19.4,81.9,11.7l0.4-0.1
		c4-1.3,11.7-4.2,15.5-6.7l21.6-14.4v46.3c0,5.7-0.4,10.4-2.5,16.3l-0.2,0.6l-0.3,0.6c-3.9,8.5-13.1,18.8-34.9,19.3H58.7v67.7
		c26,0,449.8,0,450.7,0c13-0.7,25.2-2.1,35.1-4.9c15.1-4.7,40.6-18.6,40.6-59.8c0,0-0.2-343.3-0.3-368.9L512,84.3L512,84.3z"/>
</g>
</svg>
