<svg version="1.1" id="Layer_1" xmlns="http://www.w3.org/2000/svg" xmlns:xlink="http://www.w3.org/1999/xlink" x="0px" y="0px"
	 viewBox="0 0 600 600" style="enable-background:new 0 0 600 600;" xml:space="preserve">
<style type="text/css">
	.st0{fill:#FFFFFF;}
	.st1{fill:#115740;}
</style>
<path id="White_Oval" class="st0" d="M300,479.4c-42.1,0-112.4-11.1-171.7-42.4c-58.1-30.6-100.3-66.1-118.8-100
	C3.2,325.6-0.1,312.8,0,300c-0.1-12.8,3.2-25.6,9.5-37.1c18.6-33.9,60.8-69.4,118.8-100c59.3-31.3,129.5-42.4,171.7-42.4
	s112.3,11.1,171.7,42.4c58.1,30.6,100.3,66.1,118.8,100c6.3,11.5,9.6,24.3,9.5,37.1c0.1,12.8-3.2,25.6-9.5,37.1
	c-18.6,33.9-60.8,69.4-118.8,100C412.4,468.3,342.1,479.4,300,479.4"/>
<path id="Green_Oval" class="st1" d="M583.1,300c0.1-10.3-2.6-20.4-7.5-29.5c-16.7-30.5-57.1-64.4-112-93.3
	C407,147.4,340.3,136.8,300,136.8s-107,10.5-163.6,40.4c-54.9,29-95.3,62.8-112,93.3c-4.9,9-7.6,19.2-7.5,29.5
	c-0.1,10.3,2.6,20.4,7.5,29.5c16.7,30.5,57.1,64.4,112,93.3c56.6,29.8,123.3,40.4,163.6,40.4s107-10.5,163.6-40.4
	c54.9-29,95.3-62.8,112-93.3C580.5,320.4,583.2,310.3,583.1,300L583.1,300z"/>
<path id="White_Letters" class="st0" d="M414,283.2l9.3-16.1H320.6l-9.3,16.1H337l-35.2,61.1h51.3l35.2-61.1L414,283.2L414,283.2z
	 M434.2,270.3l-18.5,32.1c-2,3.4-0.4,7.8,3.2,9.2l33.7,13.3h-72.4l-11.1,19.3h108.6c2.3,0,4.4-1.2,5.6-3.2l18.5-32.1
	c2-3.4,0.4-7.8-3.2-9.2l-41.9-16.6h59.9l9.3-16.1h-86.1C437.5,267.1,435.4,268.4,434.2,270.3L434.2,270.3L434.2,270.3z M298.5,283.2
	l9.3-16.1h-83.4l-44.5,77.2h105.9l11.1-19.3h-54.5l7.4-12.9h28.9l9.3-16.1H259l7.4-12.9L298.5,283.2L298.5,283.2z M514.5,247.6
	c0,0-7.6-1.5-30-3.1l-78.4-7.7c-43.1-3.8-80.9-13.7-115.9-38.4h-1.2l29.6,47.9H169l-43.5,75.6c-1.2,2-3.3,3.2-5.6,3.2H72.3
	l-11.1,19.3h95.3c4.6,0,8.8-2.5,11.1-6.4l48.2-83.6h317.6C529.4,252,523,249,514.5,247.6L514.5,247.6L514.5,247.6z"/>
</svg>
