<svg version="1.1" id="Layer_1" xmlns="http://www.w3.org/2000/svg" xmlns:xlink="http://www.w3.org/1999/xlink" x="0px" y="0px"
	 viewBox="0 0 600 600" style="enable-background:new 0 0 600 600;" xml:space="preserve">
<style type="text/css">
	.st0{fill:#FFFFFF;}
	.st1{fill:#004851;}
	.st2{fill:#A2AAAD;}
</style>
<path id="White_Outline" class="st0" d="M349.5,124l-29.2,30.7c47.9-19.9,152.4-54.1,152.4-54.1l-33.5,32.7
	C530.6,106.3,600,93.5,600,93.5s-20.1,46.8-50.2,93.7c5.8-0.6,43.8-5,43.8-5s-34.2,56.6-73.6,97.4L542,285c0,0-34.4,49.6-79.8,90.1
	c-65.3,58.2-98.9,49.3-98.9,49.3c-48.5,35.1-87.3,17.3-87.3,17.3s16.8-42.4-0.6-46.9c-15.6-4.1-39.4,8.2-42.4,13.1
	c-3.1,10.7-16.1,37.8-29.5,54.3c-25.8,31.5-54.3,44.4-54.3,44.4s-22.5-19.2-22.6-51.9c0,0-15.5,16.4-40.6,21.7
	c-17.6,3.7-41.6,0.7-66.2-19.8C3.2,442.8,0,396.4,0,396.4s15.5-29.7,45.5-55.7c-6.6-5.7-10.7-12.8-12-17.3
	c79.6-34.8,79.7-67.9,143-108.2C238.8,175.5,278,157.2,349.5,124"/>
<path id="Green_Outline" class="st1" d="M310.8,152.1l-25,26.2c49.4-21.9,153.7-57.4,153.7-57.4l-30.3,29.6
	c107-33.1,174.8-44.3,174.8-44.3s-22.2,49.4-51.7,91.4c14.3-1.4,44.1-4.8,44.1-4.8s-29.8,49.9-73.8,92.2c4.9,0.7,24.9,5.3,24.9,5.3
	s-26.6,39.4-72.7,79.8c-58.9,51.6-85,45.5-85,45.5s0.6-2,0.5-5.2c0-1.7-0.4-3.3-0.4-3.4c-45.4,42.7-83.1,28.3-83.1,28.3
	s16.8-40.6-9-48.8c-19.9-6.3-50.5,10-52.9,18.7c-2.7,9.5-15.3,35.9-27.9,51.3c-21.8,26.8-45.9,39-45.9,39s-21.9-16.9-14.3-66.2
	c1.7-10.8-0.5-15-1.6-16.8c-3.6-5.5-31.6,0.5-38.5,16.1c-4.8,11,23,20.4,23,20.4s-12.9,14.2-35.3,18.8c-14.1,2.9-36,2-59-17.9
	c-13.6-11.8-16.4-51.6-16.4-51.6s16.8-30.8,49.5-57.3c-6.5-4.2-11.4-11.4-12.6-14.2c65.9-28.4,75-68.5,149.4-113.4
	C229.8,192.5,266.4,172,310.8,152.1"/>
<path id="Black_Outline" d="M559.9,123.8c0,0-59.4,12.5-87.8,18.6c-53.4,11.4-95.8,25.9-95.8,25.9l25.6-24.8c0,0-82,25.9-130.3,49.6
	c-5.4,2.6-17.6,7.9-17.6,7.9l14.7-18.5c0,0-38.9,16.6-89.7,50.4c-46.1,30.7-67.3,71.9-121.5,96.8c0,0,3.5,5.8,14.7,10.1
	c-10.6,7.6-36.2,28-55.6,60.2c0,0,3.7,35.7,13.6,44.2c40.3,34.5,75.2,6.7,75.2,6.7S81.2,440.3,88.1,425
	c8.6-18.9,35.7-22.2,42.8-21.9c0,0,17.9-0.9,13.2,27.4c-6.4,38.4,8.5,55.5,8.5,55.5s46.9-26.8,65.3-83.9c7.1-22,99.8-52.5,78,27.6
	c18,4.2,61.3-11.8,75.5-37.7c3,3.7,5.4,9.1,5.8,15.4c37.8-3,105.5-75.1,128.1-111.8c-6-2.5-16.9-4.5-19.5-5
	c46.9-44.7,67.6-86.5,67.6-86.5s-19.3,1-37.2,2.3C546,164.9,559.9,123.8,559.9,123.8L559.9,123.8z M170.8,310.6
	c3.7,0.4,6.8,2.1,8.6,5c3.5,5.8,0.2,14.1-7.3,18.6c-7.5,4.5-16.4,3.4-19.9-2.4c-0.4-0.7-0.8-1.5-1-2.3c1.1-0.6,2.2-1.3,3.2-2
	c0.2,0.7,0.4,1.4,0.8,2c2.5,4.1,8.9,4.8,14.4,1.5c5.5-3.3,7.9-9.3,5.5-13.4c-1.4-2.3-4.1-3.5-7.1-3.5
	C169,312.9,170,311.7,170.8,310.6L170.8,310.6z"/>
<path id="White_Head" class="st0" d="M370.4,162.9c0,0-49.8,11.9-117.3,44c-19,9-29.1,14.4-29.1,14.4c2.9-3.4,16.4-15.2,19.7-19.5
	c-50.1,24.6-68.3,40.8-98.1,72.3c-26.5,28.1-25.3,33-65.6,54.8c0,0,29.7,12.2,59.7-7.4c5.2-3.4,10.1-8.1,14.8-13.1
	c10.6-12.3,7.1-25,21.2-34.1c-2,4.7-5.3,10.6-5.6,16.8c6.8-9.3,20.2-21.6,35.1-30.5c37.9-22.6,63.1-26.5,63.1-26.5
	c-1,0.3-1.9,0.7-2.8,1c-51.8,21.5-60.3,49.7-60.5,52.7c-0.6,6.4,18.7-7.9,34.5-9.8c-16.6,5.9-30.8,20-37.7,36.3
	c-2.9,6.9-3.8,14.8-12,20.9c-2.3,2.1-5.3,4.2-9.4,6c-10.9,4.9-18.4,2.4-21,0.7c-1.5-1-2.5-2.7-2.5-2.7c5.3,1.5,12.5,0.2,19-3.9
	c4.8-3.1,8.4-7.1,10.4-11.2h0c1.1-2.2,3-6.4,0.1-11.9c-1.5-2.8-4.5-4.3-8-4.8c0.2-0.6,2-5.2,7.7-12c-7.7,5.6-12.7,12.2-15.3,15.3
	c3.7,0.4,6.8,2.1,8.6,5.1c3.5,5.8,0.2,14.1-7.3,18.6c-7.5,4.5-16.4,3.4-19.9-2.4c-0.4-0.7-0.8-1.5-1-2.3c-0.4,0.2-0.8,0.5-1.2,0.7
	c-2.3,1.2-7.1,3.2-7.1,3.2c2.2,0.5,5.2,0.8,7.1,0.4c0.6,8.2,5.8,21.4,34.7,13.9c-8.3,8.1-28.2,7.6-40.2,1.3c1.6,1.2,3.5,2.5,5.8,3.9
	c36.3,22.5,78,1.3,88.2-4.6c2.5-1.6,5-3,7.6-4.3c0,0-10.6,9.3-17.7,23.8c12.7-16.2,49.6-42.3,99.1-36.3c0,0-25.9-12.6-66.7,0.8
	c0,0,56.3-33.4,127.6-19.2c-46.3-15.5-87.9-8.2-112.5,0.1c-14.4,5.6-23,10.2-23,10.2s3.6-2.6,10.4-6.6
	c16.7-12.3,39.6-25.6,62.3-34.9c15.7-6.5,47.1-14.9,59.9-15.6c0,0-32.8-5.6-62.7,2c0,0,47.4-18.5,93.4-19.5
	c15.4-0.3,50.6,1.5,50.6,1.5c-50.8-15.1-103.5-18.1-139.5-12.5c-20.5,5.1-36.6,10.1-36.6,10.1s2.8-1.4,8.2-3.7
	c13-7.7,66.2-36.3,165.1-51.7c0,0-12.7-1.5-28.1-1.5c-15.8,0-46.9,5.3-46.9,5.3c22.5-10.3,65-20.3,117.5-25.3
	c0,0-80.2-9.5-177.3,20.9c-0.8,0.4-1.3,0.5-1.3,0.5s10.2-7.4,21.8-15.1C358.1,171.7,370.5,162.9,370.4,162.9L370.4,162.9z
	 M160.5,322.5c-1.3,1.2-2.6,2.5-4.1,3.6c0.2,0.6,0.7,1.7,1.9,2.5c2.1,1.6,5.4,1.3,5.4,1.3C160.9,327.7,160.3,324.8,160.5,322.5
	L160.5,322.5z"/>
<path id="Silver_Head" class="st2" d="M518,152.5c0,0-44.7,3.6-95.4,13c-52.7,9.8-86.8,23.5-93.6,26.4
	c97.1-30.4,177.3-20.9,177.3-20.9c-52.5,5.1-95,15-117.5,25.3c0,0,31.1-5.3,46.9-5.3c15.5,0,28.1,1.5,28.1,1.5
	c-99,15.4-152.2,44-165.2,51.7c13.1-5.6,41.6-16.3,82.4-24.4c38.4-7.6,83.1-9.5,101.1-11.3C507.9,183.8,518,152.5,518,152.5
	L518,152.5z M425,225.7c-19.8,0.2-40.5,1.3-59,4.1c-12.8,2-26.6,5-38.8,8c36-5.5,88.7-2.5,139.5,12.5c0,0-35.2-1.9-50.6-1.5
	c-46,1-93.4,19.5-93.4,19.5c29.9-7.5,62.7-2,62.7-2c-12.8,0.7-44.1,9.1-59.9,15.6c-22.7,9.3-45.6,22.6-62.3,34.9
	C290,301,366,263.8,462.5,284.3c0,0,6.3-4.9,23.1-23.3c17.8-19.5,21.6-31.6,21.6-31.6S468.5,225.3,425,225.7L425,225.7z
	 M265.6,235.1c-0.5,0.2-1.8,0.6-1.9,0.7c-47.5,17.7-72.5,45.9-68.8,60.1c1.4,5.4,10.7-0.2,10.7-0.2S193,306.4,188,317.9
	c0,0.6,0,2.9-1.7,6.2c1.2,0.3,2.5,0.5,3.6,0.3c3.2-0.4,7.1-2.6,7.1-2.6s0.1,6.8-7.2,13.4c8.2-6.1,9.1-14,12-20.9
	c6.9-16.3,21.1-30.4,37.7-36.3c-15.8,1.9-35.1,16.2-34.5,9.8C205.3,284.9,213.7,256.7,265.6,235.1L265.6,235.1z M371.5,294
	c-39,0.4-73.9,11-95.6,19.3c24.6-8.3,66.2-15.7,112.5-0.1c-71.3-14.2-127.6,19.2-127.6,19.2c40.8-13.3,66.7-0.8,66.7-0.8
	c-49.5-6-86.4,20-99.1,36.3c-1,2-1.9,4.1-2.7,6.2c11.5-10.8,23.7-19.6,52-26.6c67-16.6,113.5,3.5,119.1,24.7c0,0,0.2-0.1,0.7-0.3
	c2.7-1.5,13.1-5.9,28.8-21.3c16.4-16.2,26.8-29.2,30.8-37.9c-25.7-12.9-52.4-18-77.6-18.7C376.7,294,374.1,294,371.5,294L371.5,294z
	 M124.2,343.7c-10.9,3.3-24.7,2.4-32.3,0.3c-8.8,6.1-40.4,19.6-60.5,53.6c1,11.5,2.2,26.3,7,34.4c19.3,30.5,53.1,19.3,53.1,19.3
	s-51.3-22.8,3.5-56c17.5-10.6,66-18.5,94.9-9.3c2.5,0.9,5.5,3.1,5.3,3.6c-3,14.7-15.1,55.9-35.2,67.6
	c-11.1-16.2,18.2-53.5-11.7-54.9c0,0,7.5,11.5,4.2,27c-1.4,6.8-6,25,2.2,43.8c0,0,45.5-27.2,59-90c1.8-6.2,2.9-11.4,5.6-16.2
	C160.8,390,124.2,343.7,124.2,343.7L124.2,343.7z M110.4,353c3.1,2.6,6.4,4.4,14.9,5.2c0,0-15.3,4.4-18.7,5.5
	c-4.2,1.2-13.2,2.5-8.9-3.9C97.6,359.7,103.1,356.8,110.4,353L110.4,353z M293.2,357.3c-36.5,0.8-53.3,17.1-53.3,17.1
	s16.9-12.7,45.5-8.1c42.4,6.8,41.2,33.5,41.2,33.5s19.1-8.2,28.7-25c0,0-12-11.4-33.6-15.2C311.1,357.8,301.7,357.2,293.2,357.3
	L293.2,357.3z"/>
</svg>
