<svg version="1.1" id="Layer_1" xmlns="http://www.w3.org/2000/svg" xmlns:xlink="http://www.w3.org/1999/xlink" x="0px" y="0px"
	 viewBox="0 0 600 600" style="enable-background:new 0 0 600 600;" xml:space="preserve">
<style type="text/css">
	.st0{fill:#FFFFFF;}
	.st1{fill:#B3995D;}
	.st2{fill:#AA0000;}
</style>
<ellipse id="White_Outline" class="st0" cx="300" cy="300" rx="300" ry="177.4"/>
<ellipse id="Black_Oval" cx="299.3" cy="301.3" rx="290.9" ry="169.6"/>
<ellipse id="Gold_Oval" class="st1" cx="300.7" cy="303.3" rx="253.7" ry="156.5"/>
<ellipse id="Red_Oval" class="st2" cx="301.3" cy="300.7" rx="233.5" ry="146.1"/>
<path id="Black_Letters" d="M483.7,281.6h-0.6v-5.3h-4.7h-87.9c-2-10.4-8-20.1-16.5-27.6c-8.4-9.7-20.7-17-34.6-19.7l-5.8-1.2
	c-13.4-2.8-23.9-5-66.4-4.8c0,0-8.2-0.3-16.1-1.3c-2-0.5-3.8-1.1-5.3-1.8c0.6-3.5,7.1-8.4,14.3-9.3c0.8-0.1,46.7-8.6,94,22l1.2,0.7
	h31.1v-47.6h-5.3v-5.3h-42.7c0,0-5.1,3.9-7.2,5.5c-12.3-3.1-72.5-16.2-124.4,6.5c-21.8,9-35.4,26.1-34.4,43.4
	c0.5,8.7,4.7,16.3,11.9,22.2c5.3,6.6,13.7,11.8,24.5,14.9c15.4,4.4,28.4,6.3,41,7v1.5v20.2h5.3v5.3h16.2c6.7,0,8.4,3.7,8.9,5.1
	c-20.7-1.4-52.2-7.3-75.4-28.7l-0.9-0.9h-0.2c-1.3-1.2-2.5-2.5-3.8-3.8l-1.4-1.5h-23.3v67.7h5.3v5.3h19c2.8,0.2,11.6-0.8,17.7-18.6
	c9.9,3.4,34.3,10.8,64.3,11.6v42.1c-1,14.1-32.2,18.6-43.1,19l-4.5,0.2v21h5.3v5.3h136.9v-20l-3.5-0.9c-0.6-0.2-1.2-0.3-1.8-0.5
	v-4.6l-4.3-0.4c-7.7-0.7-13.6-2-18.2-3.6c-8.6-4.8-10.1-8.7-10.3-9.4v-22.5h40.1c4.2,0.6,7.9,2.5,10.9,4.9
	c5.8,7.1,8.4,15.2,8.5,15.4l1,3.3l3.4,0h0.1c0.5,1.2,0.7,2,0.7,2l1,3.3h3.4h18.1v-81.5H421h-0.6v-5.3h-4.7h-16.8l-0.8,3.7
	c-5.6,27.1-36.9,26.7-64.8,22.6c5.5-1.5,10.9-3.3,16.4-5.5c14.9-5.9,26.1-14,33.1-23.4H443c4.2,0.1,7.8,1.2,10.8,3.1
	c6.3,9.3,5.7,22.9,5.7,23l-0.3,4.9h4.9h0.7c0,0.2,0,0.4,0,0.4l-0.3,4.9l4.9,0h19v-63.1L483.7,281.6L483.7,281.6z"/>
<path id="White_Letters" class="st0" d="M387.8,298.3h49.8c28.5,0.9,26.4,36.4,26.4,36.4h14.3v-53.7h-86
	C392.4,280.9,392.2,293,387.8,298.3 M286.4,344.2v41.3c-1.5,21.6-47.6,23.4-47.6,23.4v11.8h127.5v-11.8
	c-37.9-3.3-38.1-22.6-38.1-22.6v-27.6h45.3c20.7,3,28.7,28.9,28.7,28.9h13.4v-72.2h-13c-9,43.5-75.6,23.9-80.6,25
	C322.2,340.5,305.8,344.6,286.4,344.2 M326.2,273.2c17.3,5.1,18.9,18.3,8.8,30.6c-13,12.2-32.8,12.7-32.8,12.7s-66.7,7.2-105.6-34.9
	H180v58.4h14.6c0,0,8.9,1.4,14.6-20c0,0,68.5,27.9,133.6,2c63.1-25.1,39.1-79.9-4.3-88.5c-16.7-3.3-23.3-6.2-71.2-5.9
	c0,0-8.6-0.3-17.1-1.4c-26.4-6.6-11.4-23.7,4.1-25.7c0,0,47.6-9.4,97.2,22.8h25V185H340l-7.7,5.9c0,0-67.5-18.9-123.6,5.7
	c-37.7,15.6-45.1,54.6-3.9,66.4c36.2,10.4,59.4,6.1,96.1,7.5C311.1,270.9,320,271.3,326.2,273.2 M271.8,296.8h-17.3v-15.5
	c13.4,0,40.8,0.1,60.1,0c19.5,0,22.1,11.3,13.9,18.9c-7.7,7.2-23.9,12.3-43.1,8.8C285.4,309,283.8,296.8,271.8,296.8"/>
</svg>
