<svg version="1.1" id="Layer_1" xmlns="http://www.w3.org/2000/svg" xmlns:xlink="http://www.w3.org/1999/xlink" x="0px" y="0px"
	 viewBox="0 0 600 600" style="enable-background:new 0 0 600 600;" xml:space="preserve">
<style type="text/css">
	.st0{fill:#FFB612;}
	.st1{fill:#5A1414;}
</style>
<path id="Gold" class="st0" d="M409.7,136.5l19.2,58.8L414.6,239l-33.3-102.5H232l-26.8,82.2l-26.7-82.2H0l56.1,91.1l76.8,236h144.6
	l29.1-89.2l29,89.2h158.1l106.4-327H409.7z"/>
<path id="Red" class="st1" d="M403.1,274.3L350,437.6l-90.7-279.3h106.2L403.1,274.3z M439.7,158.3l12,37.1L371.4,442h106.1
	l92.4-283.7H439.7z M162.6,158.3H39.1l37,60l64.7,198.5l52.9-162.9L162.6,158.3z M155.4,442h106.2l33.5-103l-53.1-163.1L155.4,442z"
	/>
</svg>
