<svg version="1.1" id="Layer_1" xmlns="http://www.w3.org/2000/svg" xmlns:xlink="http://www.w3.org/1999/xlink" x="0px" y="0px"
	 viewBox="0 0 600 600" style="enable-background:new 0 0 600 600;" xml:space="preserve">
<style type="text/css">
	.st0{fill:#AAAAAA;}
	.st1{fill:#FFFFFF;}
	.st2{fill:#555555;}
</style>
<path id="Silver" class="st0" d="M562.8,137.4c-80.8-51-265.9-90-404-122.1L0,185.9l136.3-2.9c-67.9,109.6-54,367.4,117.6,401.7
	c-8.8-16.9-24.2-48-4.3-86.6c14.2-27.4,92.9-178,92.9-178h18.9c25.5,0,33.9,9.6,22.6,23.1c68-0.9,109.8-26.6,128.5-54.1
	c-14.3-26.1-59.7-56.8-78.1-69.3h95.2c27.3,0,33.5,11.4,27,23.9C601.1,235,623.9,176,562.8,137.4"/>
<path id="White" class="st1" d="M551.9,142.6C441.8,80.9,169.3,39.7,169.3,39.7L52.5,164.8h121.1c-89.4,118.1-69.6,356.5,61.9,406
	c-9.3-22.2-14-47.9,2.8-80.6c19-36.9,49.1-99,92.4-181.8H366c29.3,0,38.6,12.4,34.7,21.9c24.1,0,68.1-2.4,100.1-41.1
	c-26.6-37.2-114.6-80.5-114.6-80.5h151c22.2,0,33.3,7.9,30.2,21.2C605.7,211.1,595.6,167.2,551.9,142.6"/>
<path id="Black" d="M161.6,57.2l10.6,13.5l-68,73.2l239.1,18.3c-0.4,0.9-0.9,1.7-1.3,2.6H181.4l12.4,11.7
	c-10.2,14.3-18.8,29.7-26,45.9L302,195c-0.7,1.1-1.5,2.2-2.2,3.2l-159.9,53.3l14.1,8c-6.6,22-10.9,44.7-12.9,67.4L277,244.4
	c-0.4,1.2-0.8,2.5-1.2,3.7L125.9,366.4l13.8,3.5c0.8,25.6,4.4,50.6,10.6,73.8l122-143.8c0.2,1.1,0.4,2.3,0.7,3.4L152.2,480.7
	l11.4,0.8c14,31.5,33.9,57.4,59.2,73.4c-9.8-21.8-6.7-47.9,4.7-71.1c9.8-20.1,137.9-275.2,137.9-275.2L344,197.1h199
	c20.4,0,31.7,8.5,31.5,20.1c12.6-10.6,15.4-42.8-27.2-66.2C454.8,100.1,161.5,57.2,161.6,57.2L161.6,57.2z M506.8,146.9
	c10.2,3.4,33.1,16.2,41.7,26.2h-16.4C525.6,162.4,506.8,146.9,506.8,146.9z M557.8,169.3c17.8,9.1,20,27.3,17.7,34.1
	c-1.6-5-9.3-13.6-27.5-13.6h-45.9c0.4-0.9,0.9-1.8,1.3-2.6c8.7-0.7,39.5-3.3,56.9-6.6L557.8,169.3z M373.2,212.7l2.8,8.2
	c-6.6,12.8-30.1,59.5-38.3,75.8h61.1c0.8,10.8,11.6,20,22.7,22.4c-6.6-8.8-4-17.6,0.9-22.4h28.8c8,0,5.5,9.6-7.5,19.6
	c20.4-4.7,35.6-13.9,45.6-27.2C470.5,260.3,373.2,212.7,373.2,212.7L373.2,212.7z"/>
<path id="Red" class="st2" d="M185.9,94.7l-19.4,21l317.3,43.9c0.6-1.1,1.1-2.3,1.7-3.4C420.6,137.3,292.8,111.2,185.9,94.7
	L185.9,94.7z M292.5,180.4l-86.2,2c-4.3,5.9-8.3,12.1-12,18.4l95.7-17.1C290.8,182.5,291.7,181.4,292.5,180.4L292.5,180.4z
	 M262.1,230.8L168,264.6c-2.1,7.8-3.9,15.6-5.3,23.6l97.8-53.4C261,233.5,261.5,232.2,262.1,230.8L262.1,230.8z M366.6,273.1
	l-7,13.6h74.7c0.6-1.1,1.1-2.2,1.6-3.3L366.6,273.1z M249.1,293.5l-91,77.3c0.6,8.6,1.6,17,2.9,25.3l88.3-98.5
	C249.2,296.3,249.2,294.9,249.1,293.5L249.1,293.5z M265.2,354.8l-79.4,119.7c4.2,7.9,8.8,15.3,13.8,22l67.5-138.3
	C266.4,357.1,265.8,355.9,265.2,354.8L265.2,354.8z"/>
</svg>
