<svg version="1.1" id="Layer_1" xmlns="http://www.w3.org/2000/svg" xmlns:xlink="http://www.w3.org/1999/xlink" x="0px" y="0px"
	 viewBox="0 0 600 600" style="enable-background:new 0 0 600 600;" xml:space="preserve">
<style type="text/css">
	.st0{fill:#FFFFFF;}
	.st1{fill:#555555;}
</style>
<path id="White" class="st0" d="M63.3,384c41.7-26.6,54.8-56.6,54.8-56.6L0,344.3l50.2-89.2l100.9-8.5c0,0,39.2-35,100-60.1
	c0,0,6.3-11,41-31c0,0,31.8-18.7,68.1-30.7c0,0,24.6-8.4,31.8-8.9l-2.1-7.8l46.3-4l1.2-4.4c0,0,24.2,1.6,38,7.8l2.7-3.6
	c0,0,32.4,14.9,56.4,51.4c0,0,23.4-1.3,44.3,8.7c0,0,22.2,8.8,21.2,34.5c0,0-0.1,32.8-10,65.3c0,0-1.5,5.1-2.9,8.1c0,0-2,4.1-6,9.4
	c0,0-11,11.3-15.2,21.2c0,0-2.3,6.6-6.9,18.6c0,0-3.5,16.5-27.5,17.5c0,0-23.4,29.6-33.1,38.1l-0.8-7.2c0,0-16.3,15.1-30.5,24
	l4.8-41.9c0,0,1.2-7.5-3.6-8l-12.2-0.3c0,0,4,25.2-0.8,36.9c0,0-3.1,18.3-31.5,27c0,0-21.9,7-47,8.9l-5.4-0.9l-39.5,16.2l11.5-41.4
	c0,0-14.8,1.5-16.1-0.4l-44,18.9l17.3-49.5l11.8-6.6l-3.8-5.1l-24.3,0.2l-8.9,7c-20.7-5.4-40.7-3.9-40.7-3.9l-102.2,83l-25.6,56.6
	l-30.6-40.9l9.6-12.5l-3.6-2.7l-14,10.9l-20.5,55.3l-30.2-42.7l7.8-17.3l-1.7-10.6c9-5.9,14.8-9.9,19.4-15c2.5-3.2,3.8-4.3,6.7-9.7
	c2.7-6.6,2.8-13.7,5.8-15.9C59.4,386.4,62.3,384.7,63.3,384"/>
<path id="Red" class="st1" d="M55.9,264.1l-39,68.9l504.3-75.2c0,0-17.5-13.3,7.9-34.4L55.9,264.1"/>
<path id="Blue" d="M567.9,213.8c0,0-39.4,26.9-25.7,50.1c0,0-14.3,7.9,1.5,19.1c0,0-24.4,11-18-19.2l-396.5,60
	c0,0-8.5,35.9-64.7,69.9c0,0-4.1,2.4-4.5,6.9c0,0,0.4,5.6-4.7,12.4c0,0-6.3,11.1-21,20.5l1,7.4l-6.9,15.8l16.8,24.2l15.2-41.1
	l30.2-23.2c0,0,29.5-46.2,78.1-64.3c0,0,42.8-18.3,105.4-7.9l5.7-5.5l72.4-1.6c0,0,2.7,0.6,0.9,2.1c0,0-14.3,11-29.9,12.4l1.4,4.5
	c0,0,0.4,1.6-0.7,1.9l-15.2,6l-10,27.8l28.5-12.4l1.6,1.2c0,0,24.8,1.5,62.1-6c0,0,25.9-5.1,33.1-38.6l49.2-2.1c0,0,10.3,2.2,9,11.7
	l-3.5,27.9l22.5-20.1l1.6,5.3c0,0,17.1-18.5,21.4-29c0,0,18.7,0.4,23.3-7.2c0,0,2.1-2.1,8.1-18.6c0,0,2.8-11.6,14.4-23
	c0,0,9-8.4,13.9-30.4c0,0,6-31.9,6-38c0,0,6.5-31.6-15.2-40.9c0,0-16.1-8.9-46.2-6.4c0,0-6-20.9-47.5-49.6l-3,4.5
	c0,0-14.2-9.8-34.2-9.5l-1,2.8c0,0-12.2-0.1-38.8,2.7l2.5,7.4c0,0-54.8,2.5-132.6,54.6l-1.4,4.3l-9.9,4.7l5.3,2.9
	c0,0-59.4,21.5-102.7,56.9L567.9,213.8 M428.9,342.4l17-0.2c0,0,3.4,22.5,1.4,32.5c0,0-3.4,14.9-18.6,20.7c0,0-22.4,9.5-56,11.6
	l-1.6-1.4l-25.5,10.7l8.4-29.6c0,0,34.1-2.6,44.4-5.7C398.5,381.1,425,375.9,428.9,342.4 M219.3,351.2c0,0-60.4-0.7-101.7,48
	c0,0-0.1,17.7-21.5,29.7l0.8,5.6l-10.2,14l18.1,24.2l20.4-45.1L219.3,351.2"/>
</svg>
