<svg version="1.1" id="Layer_1" xmlns="http://www.w3.org/2000/svg" xmlns:xlink="http://www.w3.org/1999/xlink" x="0px" y="0px"
	 viewBox="0 0 600 600" style="enable-background:new 0 0 600 600;" xml:space="preserve">
<style type="text/css">
	.st0{fill:#FFFFFF;}
	.st1{fill:#555555;}
	.st2{fill:#AAAAAA;}
</style>
<path id="White" class="st0" d="M390.9,143.3c35.2,0,74,4.6,111.5,18.3c0.4,0.1,0.8,0.3,1.2,0.4c0,0,14.4,5.9,32.1,5.9
	c0.3,0,0.6,0,0.8,0c0,0,0.1,0,0.2,0l0,0c0.1,0,0.1,0,0.2,0c0,0,0,0,0.1,0s0.2,0,0.2,0.1h0.1c0.1,0,0.2,0,0.3,0.1h0.1
	c0.1,0,0.2,0.1,0.3,0.1c0,0,0.1,0,0.1,0.1c0.1,0,0.2,0.1,0.3,0.1l0.1,0.1c0.1,0,0.2,0.1,0.3,0.2l0.1,0.1c0.1,0.1,0.2,0.1,0.3,0.2
	l0.1,0.1c0.1,0.1,0.2,0.2,0.3,0.3l0.1,0.1c0.1,0.1,0.1,0.2,0.2,0.3c0,0.1,0.1,0.1,0.1,0.2c0.1,0.1,0.1,0.2,0.2,0.4
	c0,0.1,0.1,0.1,0.1,0.2c0,0.1,0.1,0.3,0.1,0.4c0,0.1,0,0.2,0,0.2c0,0.2,0,0.3,0,0.5c0,0.1,0,0.2,0,0.3c0,0.2,0,0.4,0,0.5
	s0,0.2,0,0.3s-0.1,0.6-0.1,0.8l0,0l0,0c-0.6,5.5-4.4,19.3-14.9,28.4c2,3.8,2.9,8.1,2.8,13.4c13.5,0.9,28,3.6,42.2,9.7l1.9,1.5
	c0,0-15.6-6.8-44.1-7.1h-0.4l0,0c-0.1,0-0.9,5.2-1.5,7.8h0.7c16.5,0.5,35.6,3.5,53.7,11.9l1.9,1.4c0,0-17.4-8.7-50.4-8.7
	c-2,0-4.1,0-6.3,0.1c0,0-0.3,0-0.7,0c-0.8,3.2-1.7,6.2-2.4,8.5c18.5,0.7,42.6,4.3,63.9,15.9l0,0l1.6,1.6c0,0-23.7-12.1-67.1-12.5
	c-8,20.9-26.3,62.4-53.8,85.8l-0.1,0.1c0,0,2.8,10.2,0.8,26.1c-1.7,13.7-5.2,32.9-26.3,44.3c-0.7,0.3-1.5,0.7-2.5,1l1.2,4.9
	c1.6,5,8.5,32.2,10.2,48.4l-0.7,0.1l0,0l-10.9,0.5c-0.7,0-1.3,0-2,0c-63.5,0-120-27.3-187-53.4c-21-8.2-42.5-13.7-63.6-17.3
	c-7.3-1.2-14.6-2.3-21.8-3.1c0,0-5.1-0.5-5.5-0.6c-0.2,0-3.1-0.3-4-0.4c0,0,0,0-0.1,0c-13.3-1.2-26.3-1.7-38.6-1.7
	c-21.4,0-40.9,1.5-57.1,3.4l0,0c-29.6,3.5-48.4,8.3-48.4,8.3c89-112,188.3-167.7,226.4-183.2c-0.1-0.1-12.7-16.5-15.8-25.3
	c-2.7-7.6-2.6-11-1.4-13.9c1.3-4.3,7.9-4.4,8.5-4.4h0.1c2,0.1,4,0.1,5.9,0.1c16.3,0,27.9-3.3,27.9-3.3s38.2-12.8,91.5-17.3
	c0,0,12.1-1.4,28.7-1.5l0,0C385.9,143.3,388.3,143.3,390.9,143.3 M390.9,131.8c-2.2,0-4.5,0-6.8,0.1c-0.2,0-0.5,0-0.7,0h-0.1
	c-16.1,0.1-28.1,1.4-29.7,1.6c-51.9,4.4-89.5,16.3-93.7,17.7c-1.4,0.4-11.3,2.8-24.6,2.8c-1.8,0-3.6,0-5.3-0.1c-0.1,0-0.3,0-0.4,0
	c-0.1,0-0.2,0-0.2,0c-7.1,0-16.3,3.1-19.4,12c-2.4,6.2-2,12.5,1.3,21.9c1.8,4.9,5.5,11.2,9.1,16.6c-17.1,8.1-46.7,24-83.4,50.9
	C87.3,291.5,42,335.2,2.5,384.9c-3.1,3.9-3.3,9.3-0.6,13.5c2.2,3.3,5.8,5.2,9.7,5.2c1,0,1.9-0.1,2.9-0.4c0.2,0,18.3-4.7,46.3-8
	c0.2,0,0.4,0,0.6-0.1c18.7-2.2,37.4-3.3,55.8-3.3c12.7,0,25.3,0.5,37.5,1.6c0,0,0,0,0.1,0l2.5,0.2c0.7,0.1,1.4,0.1,1.5,0.1
	c0,0,0,0,0.1,0c0.4,0,3.5,0.4,4.8,0.5l0.5,0.1c7.2,0.8,14.3,1.8,21.1,3c21.7,3.7,42.4,9.3,61.3,16.7c10.1,3.9,20,7.9,29.6,11.8
	c54.2,21.8,105.4,42.4,161.5,42.4c0.7,0,1.4,0,2.1,0c0.1,0,0.3,0,0.4,0l10.9-0.5c0.1,0,0.2,0,0.4,0h0.7c3.1-0.2,6-1.7,8-4.1
	s2.9-5.5,2.6-8.6c-1.5-14.5-6.7-36.4-9.4-46.3c8.7-5.9,15.3-13.7,19.8-23.1c4.3-9.1,5.8-18.1,6.9-26.5c1.2-9.9,0.8-17.9,0.2-23.2
	c23.4-22.4,39.9-55.9,49.1-78.4c34.7,1.6,53.9,11,54.1,11.1c1.7,0.8,3.4,1.3,5.2,1.3c3.6,0,7.1-1.7,9.3-4.7
	c3.3-4.6,2.9-10.9-1.1-14.9l-1.6-1.6c-0.7-0.7-1.5-1.4-2.4-1.9c3-5,1.7-11.5-2.9-15.1l-1.9-1.4c-0.7-0.5-1.4-1-2.2-1.3
	c-0.6-0.3-1.2-0.5-1.8-0.8c0.4-3.9-1.1-7.9-4.4-10.4l-1.9-1.5c-0.8-0.6-1.7-1.1-2.6-1.5c-11.1-4.7-23.2-8-36.2-9.6
	c8.5-10.3,12.1-22.5,13-29.4c0.1-0.3,0.1-0.6,0.2-0.9l0,0c0-0.3,0.1-0.6,0.1-0.8c0.1-0.6,0.1-1.2,0.1-1.8c0-0.3,0-0.5,0-0.8v-0.1
	c0-0.6-0.1-1.1-0.1-1.4c0-0.1,0-0.3-0.1-0.4c0-0.2-0.1-0.4-0.1-0.5c0-0.2-0.1-0.5-0.2-0.7c-0.1-0.3-0.2-0.7-0.4-1.3
	c-0.1-0.2-0.1-0.4-0.2-0.6c-0.2-0.6-0.5-1.2-0.8-1.7c-0.1-0.2-0.3-0.5-0.5-0.8c-0.3-0.5-0.6-0.8-0.9-1.2c-0.1-0.1-0.1-0.2-0.2-0.2
	c-0.1-0.1-0.2-0.3-0.3-0.4c-0.4-0.4-0.7-0.8-1-1c-0.2-0.2-0.5-0.4-0.7-0.7c-0.2-0.2-0.4-0.3-0.6-0.5c-0.1-0.1-0.1-0.1-0.2-0.2
	c-0.2-0.2-0.5-0.3-0.7-0.5c-0.1-0.1-0.2-0.1-0.4-0.2c-0.1-0.1-0.3-0.2-0.4-0.2c-0.3-0.2-0.5-0.3-0.8-0.4c-0.3-0.1-0.6-0.3-0.9-0.4
	l0,0c-0.1,0-0.1-0.1-0.2-0.1c-0.4-0.2-0.8-0.3-1-0.3l0,0c-0.1-0.1-0.3-0.1-0.4-0.1c-0.3-0.1-0.5-0.1-0.7-0.2c-0.1,0-0.3-0.1-0.4-0.1
	c-0.2,0-0.3-0.1-0.5-0.1c-0.1,0-0.3-0.1-0.4-0.1c-0.1,0-0.2,0-0.4-0.1c-0.2,0-0.3,0-0.5-0.1c-0.6-0.1-1-0.1-1-0.1
	c-0.2,0-0.5,0-0.7,0l0,0c-0.2,0-0.5,0-0.7,0c-15,0-27.6-5-27.7-5.1s-0.2-0.1-0.4-0.1c-0.4-0.1-0.7-0.3-1.1-0.4l-0.2-0.1
	C471.9,138.2,433,131.8,390.9,131.8L390.9,131.8z"/>
<path id="Blue" class="st1" d="M59.9,383.7c182-26.3,247.4,76,390.5,72.5l0,0l0,0c-2.3-20.6-8.1-43.2-10.7-53.3l0,0
	c30.3-11.2,31.7-55.4,27.9-71.3c27.5-23.5,45.9-65,53.9-85.9c43.4,0.5,67.1,12.5,67.1,12.5l-1.6-1.6l0,0
	c-21.3-11.6-45.4-15.2-63.9-15.9c0.7-2.3,1.5-5.3,2.4-8.5c36.1-1.6,58,8.7,57.4,8.5c-17.8-10.2-39.1-12.6-56.2-13.3
	c0.8-2.7,0.9-8.2,1.8-7.8c28.5,0.3,44.1,7.1,44.1,7.1c-13.6-8-30.2-9.8-44-11.1c0.1-5.3-0.8-9.6-2.8-13.4
	c10.5-9.1,14.3-22.9,14.9-28.4c0.9-2.6-0.6-5.3-3.4-5.7c-17.5,0.2-33.8-6-33.5-6c-40.4-15-82.8-19.4-120.2-18.7l0,0
	c-85.3,1.1-101.9,21.6-154,21.9c-24.4,0.1,5.8,40.7,8.6,43.7c-38.1,15.5-137.4,71.2-226.4,183.2C11.5,392.1,30.3,387.2,59.9,383.7
	L59.9,383.7z"/>
<path id="Silver" class="st2" d="M403.9,256.7c6.5,19.1-4.4,44.7-4.4,44.7c14.3-12.3,25.6-37.6,25.6-37.6c23.6-4.8,36.5,0,36.5,0
	c3.1,18.4-3.8,33.5-3.8,33.5c13.7-10.9,19.8-40,19.8-40s-5.5-5.1-29.7-6.8C423.7,248.8,403.9,256.7,403.9,256.7 M421.6,329.8
	c0,0-7.1,19.8-14.4,27.1c0,0,9.4,5.2,25.9,3.7s20.4-7.6,22-13.7c1.5-6.1,0-14.6-2.7-21c0,0,1.2,16.2-10.1,24.4
	c0,0-12.2,2.5-20.1,0.1C422.2,350.3,425.3,343.8,421.6,329.8 M382.8,175.8c0.2,0,0.3,0.1,0.5,0.1C383.1,175.8,383,175.8,382.8,175.8
	c-9.9-1.9-14.1,5.6-14.1,5.6c-3.1,4.7-1.9,6.9-1.9,6.9c30.6-0.5,47.1,4.4,47.1,4.4s-11.4-12.5-29.8-16.7L382.8,175.8 M505.2,191.5
	c-4-3.8-12.6-8.6-22-6.7c-9.4,1.9-9.9,12.1-9.9,12.1C483.4,187.5,505.2,191.5,505.2,191.5"/>
<path id="Black" d="M539.9,175.3c0.1-0.3,0.2-0.6,0.3-0.9c0.1-0.2,0.1-0.5,0.2-0.7l0,0c-0.8-2.4-2.5-2.6-6-2.3
	c-5.1,1-9.8,1.6-13.8,2l0,0c-0.2,0-0.4,0-0.6,0.1c-0.2,0-0.3,0-0.5,0c-0.6,0.1-1.2,0.1-1.7,0.2c-0.1,0-0.2,0-0.2,0
	c-5.1,0.4-8.4,0.4-8.4,0.4c13.1,9.9,14.6,25.2,14.6,25.2l0.7-0.6C534.5,191.5,539.9,175.3,539.9,175.3 M451.4,201.7
	c14.7,1,25.3,6.1,25.3,6.1s2.7-7.2,17.1-9.6c14.4-2.4,30,1.1,30,1.1c-2.9-5.3-6.2-12.9-20.7-18.8c-14.5-5.9-27.5-0.6-27.5-0.6
	s-0.9-7-11.5-13.8C447,155,401.7,148.4,393,148c-8.7-0.5,6.5,5.1,12.7,8.6c6.9,4,14.7,10.7,15.4,17.1c0.2,1.7-0.2,3.2-1,4.5
	c-0.6-1.8-1.9-4.1-4.2-7c-12.4-15.9-43.8-22.8-67.4-21.2s-42.3,10.5-42.3,10.5c0.3,2.2-8.7,9.8-33.4,12.5
	c-23.6,2.6-40.2-1.7-46.2-2.6c-0.2,0-0.3-0.1-0.4-0.1c-2.4-0.3-4.2-0.2-5,1.6c0,0.1-0.1,0.2-0.1,0.2c0,0.1,0,0.2-0.1,0.3
	c-0.1,1.2,0.6,2.9,0.6,2.9c-0.1-0.3-0.3-0.5-0.3-0.7c1.7,3.2,11.7,21.7,24.9,31.2c0,0,7.9-1.7,17.3-2.7c0,0-144.8,70.5-203.5,180.6
	c36-5.2,67.4-5.3,95.8-2.3c6-10.2,32.6-58.4,94.3-88.3c0,0-46.6,32.5-63.1,93l0,0c96.5,19.2,159.4,72.5,263.4,70l0,0c0,0,0,0,0-0.1
	c-17.1-35.6-33.9-51.9-33.9-51.9c12.7,2.3,23-1.3,23.2-1.4l0,0c0.9-0.3,1.8-0.7,2.6-1.1c7-3.8,12.1-8.5,15.7-13.5
	c4.7-6.8,7.6-14.9,9.2-23.1c0.5-2.6,0.8-5.2,1.1-7.6c0.2-1.9,0.4-3.7,0.5-5.5c0.5-8.3-0.2-15.8-1.4-20.6c0,0,36.4-47.8,45.6-85.3
	c0,0,2.1-6.8,0.9-13.8l0,0c-0.3-1.9-0.9-3.6-1.6-5c0,0-0.5-1.4-2.2-3.5c-1.4-1.8-3-3.2-4.4-4.6c-3.1-3-8.8-4.7-8.8-4.7l0,0
	c3.9,3,7,7.3,7.3,13.5c0.9,19-18.7,26.7-18.7,26.7c4.6-3.1,12.9-13.5,10.7-27c-2.1-13.5-19.7-19.9-19.7-19.9s-20.5,8.9-24.9,25.6
	c0,0,0.3-17.4-28.7-28.7C423.1,204.8,436.7,200.7,451.4,201.7z M483.1,184.8L483.1,184.8c9.4-1.9,18,3,22,6.7c0,0-21.8-4-32,5.4
	C473.2,196.9,473.7,186.7,483.1,184.8z M347.7,179.7L347.7,179.7L347.7,179.7c0.9-0.4,18.5-7.7,36.4-3.6
	c18.4,4.2,29.8,16.7,29.8,16.7s-16.5-4.9-47.1-4.4c0,0-1.2-2.2,1.9-6.9C368.7,181.4,363.8,179.9,347.7,179.7L347.7,179.7
	L347.7,179.7z M392.7,209.9L392.7,209.9c-2.8,1.9-5.2,3.8-7.2,5.7c-57.7-13.6-108.2-4-108.2-4C339.7,195.2,392.7,209.9,392.7,209.9z
	 M284.4,317.4L284.4,317.4c-20.1-24.7-11.7-57.7-11.7-57.7s0.7,28.3,25.4,53.3c24.7,25,55.3,31.8,55.3,31.8S304.5,342.1,284.4,317.4
	z M373.1,241.1L373.1,241.1c-52.7-3.6-94.5,9.3-94.5,9.3c38-14.6,73.6-16.5,94.7-16C372.9,237,372.9,239.2,373.1,241.1z
	 M375.7,227.7L375.7,227.7c-53.9-7.4-98.2,3.6-98.2,3.6c43.4-14,82.9-12.3,102.4-10C378.1,223.5,376.7,225.7,375.7,227.7z
	 M468.2,347.6L468.2,347.6c4,29-21.8,41.1-36.1,41.1c-14.3,0-34-6.1-41.5-30.4s-7.5-54.4,2.1-69.1c0,0-6.4,29-2.9,45.5
	c3.6,16.5,10.4,30.4,23.6,32.9s32.9,1.8,40.1-6.4c7.2-8.2,10-20,2.9-36.1c-7.2-16.1-21.5-36.9,2.2-57.6c0,0-10.4,12.5-6.5,30.8
	C456,316.4,464.2,318.6,468.2,347.6z M442.2,350.2L442.2,350.2c11.3-8.2,10.1-24.4,10.1-24.4c2.7,6.4,4.3,14.9,2.7,21
	c-1.5,6.1-5.5,12.2-22,13.7s-25.9-3.7-25.9-3.7c7.3-7.3,14.4-27.1,14.4-27.1c3.7,14,0.5,20.5,0.5,20.5
	C430.1,352.8,442.2,350.2,442.2,350.2z M448,250.5c24.2,1.7,29.7,6.8,29.7,6.8s-6.1,29-19.8,40l0,0c0,0,6.8-15,3.8-33.5
	c0,0-13-4.8-36.5,0c0,0-11.3,25.3-25.6,37.6c0,0,10.9-25.6,4.4-44.7C403.9,256.7,423.7,248.8,448,250.5z"/>
</svg>
