<svg version="1.1" id="Layer_1" xmlns="http://www.w3.org/2000/svg" xmlns:xlink="http://www.w3.org/1999/xlink" x="0px" y="0px"
	 viewBox="0 0 600 600" style="enable-background:new 0 0 600 600;" xml:space="preserve">
<style type="text/css">
	.st0{fill:#FFFFFF;}
	.st1{fill:#AAAAAA;}
</style>
<path id="Blue_Outline" d="M303.9,472.2c0,0.2-0.3,1.8-0.9,2.4c-0.6,0.7-1.5,0.9-2.4,1.1c-1.4,0.3-2.8,0-3.9-0.8
	c-0.9-0.7-1.5-1.7-1.6-2.6c0,0,0,0,0-0.1l0,0L284.6,438c-5.9-17.5-14.8-36.4-32-53c-20.8-20.1-51.6-34-93.9-42.5
	c-36.9-7.4-61.2-13.8-78.8-20.6c-16.9-6.6-26.8-13.4-36.6-21.7c-24.8-21-42.2-47.9-43.3-81.7c0,0,24.7,34.9,51.9,18.3
	C64.8,228.9,74,230,74,230c-8.4-9.2-14.5-21.3-16.2-34.4c-1.3-10.5-0.5-22.1,2.5-34.6c5.1-21.2,20-36.7,20.2-37
	c0,0-5.9,50.9,18.5,69c15,8.5,30.4,5,30.4,5s-20.2-9.4-23.1-39.4c-1.2-13.2,0.7-23.6,1.2-26.3c0,0,26.7,37.7,53.4,22.2
	c6-3.5,37.5-19.8,51.2-23.4c20-5.3,39.8-5.7,58.8-1.1c15.8,3.8,31.2,11,45.8,21.5c26.1,18.6,42.9,42.8,49,52.4
	c0,0,52.4-2.3,81.1,34.4v0.1l66.4,29.3l-7.5,4.8l-0.3,0.2l0.3,0.2c21.5,13.6,59,37.8,69.3,46.6l0,0l0,0l19,9l-3.5,9.2l0,0
	c-0.2,0.6-5.4,15.4,4.3,22.7l4.9,3.7c0,0,0.1,0,0.1,0.1v0.1L585,403.9l-3.8-5.1c-20.8-28.7-40.5-34-50.5-34.2
	c-11.2-0.2-12,5.7-10.6,8.3c4.5,8.3,29.6,12.6,38.9,13.6c0,0,6.2,0.8,6.3,0.8L541.2,409l-43.9-2.8h-0.2V406l0.7-8.6v-0.1
	c-0.2-1.6-3.2-16.3-39.1-31.1h-0.1h-0.1c-6.1,2.8-18.6,7.7-34,8.5c-18.5,1-35.6-4-51-14.8l-0.1-0.1h-0.1
	c-6.2,2.1-18.3,6.8-30.4,15.2c-22.5,15.5-34.8,35.7-36.5,60.2C306.5,435.3,304.6,455.5,303.9,472.2"/>
<path id="White_Head" class="st0" d="M370,215c15.6,4.8,20.4,9.6,21.6,12.7c0.8,2.1,0,3.4,0,3.5l-0.1,0.1h-0.2
	C214.4,183.1,69.7,294,63.7,298.8c6.9,7,22.6,16.5,78.7,28.9c12.5-9.8,72.2-52.2,162.3-49.7l-14.6-22.1c0,0,55.8,14.5,87.7,32.2
	c-2.5,23.6,12.2,46.3,35.7,53.3c16.9,5,34.3,0.7,46.8-9.9l40,25.5l-38.4-15c-16.3,11.8-37.9,15.9-58.5,9.2
	c-25.5-8.3-42.5-30.8-44.9-56c-86.5-21.7-150.2,33-163,45c10.3,3.3,19.8,7,28.4,11.1c10.5,5,20,10.8,28.3,17.3
	c6.4-7.8,31.9-34.6,80.9-35.1c0,0-48.1,12.4-63.4,51.6c13.6,15.8,20.6,32.4,26,48.3c1.2-15.1,6.1-29,14.4-41.3
	c6.8-10,16-19,27.3-26.6c19.2-13,38.1-17.8,38.3-17.9h0.1l0.1,0.1c39,31.4,81.8,6.7,82.3,6.4h0.1h0.1c12,4.6,22.1,9.7,30.1,15.3
	c6.4,4.4,11.4,9.2,15,14c5.5,7.6,5.6,13,5.6,14.1l29.1,1.9l8.5-7.3c-26.4-3.4-34.4-11.6-36-18.7c-2.8-17,14.5-19,22.4-18
	c18.4,2.4,40.7,18.9,49.2,30.3l6.2-16.7c-8.5-6.4-10.2-15.7-10.1-22.3l0,0c0.1-6.5,1.8-11.8,2.2-12.8l-11.3-5.3l0,0l0,0
	c-7-7.6-82.6-55.1-83.4-55.6l-0.3-0.2l0.3-0.2l5.6-3.7l-51.3-21.7h-0.1v-0.1C418.9,216.1,377.9,214.9,370,215L370,215z M399.3,224.1
	c0,0,18.3,2.8,28.9,19.7c-10-3.9-21-7.5-29.1-9.5C424.4,234.8,399.3,224.1,399.3,224.1L399.3,224.1z M475.7,278.8
	c15.5,8.6,35.1,21.4,58.8,40.7L475,286.3l-6.4,4.3c0,0-10-13-33.6-28.6l0,0c0,0,10.2,1.4,29.6,11l3.6,1.8c1.5,0.8,3.1,1.6,4.7,2.5
	L475.7,278.8z M560.7,334.2c4.1,0,9.1,1.3,9.1,1.3c-14,5.6,4,21.7,4,21.7C549.3,337.8,553.9,334.2,560.7,334.2L560.7,334.2z"/>
<path id="Orange_Mane" class="st1" d="M242.9,138.1c-9.2,0.1-18.5,1.4-27.8,3.9c-12.1,3.2-39.4,16.7-49.6,22
	c-26.9,13.9-44.3-4.1-50.8-10.9l-0.3-0.3c0.6,3.7,1.8,10.4,4.8,17.3c3.7,8.6,9.1,14.9,16,18.7c12.3,6.9,29.5,5.9,51-2.9
	c24-9.8,44.1-12.8,59.8-8.9c14.1,3.5,27.1,14.8,34.8,30.1c26-1,52,0.8,77.4,5.5c-13-20.1-28.7-37.4-45.5-49.9
	c-13.7-10.2-28.1-17.4-42.8-21.2C261.1,139.1,252,138,242.9,138.1L242.9,138.1z M72.4,153.4c-9.5,29.5-4.9,52.9,8.8,68.6
	c10.9,12.5,29.4,20.7,49.6,22.1c40.3-18.5,81.8-30.3,123.3-35c-11.3-19.2-44.3-21.5-93.2-6.5c-31.4,9.7-53.7,9.5-68.1-0.3
	C80.5,193.8,73.1,178.9,72.4,153.4L72.4,153.4z M74.8,241.1c-5.1,0.1-11.1,1.8-19,5.8c-24.8,12.7-39.6-1.3-39.6-1.3
	s11.4,58.6,95.6,10.2C95.1,250.5,87.9,240.8,74.8,241.1L74.8,241.1z M464.7,273c-1.2,1.1-1.9,2.6-2.1,4.3c-0.3,3.6,2.4,6.8,6.1,7.1
	c3.5,0.3,6.5-2.2,7-5.6c-0.9-0.5-1.9-1-2.8-1.5l-6.5,4.8l1.8-7.2C467,274.2,465.9,273.6,464.7,273L464.7,273z"/>
</svg>
