<svg version="1.1" id="Layer_1" xmlns="http://www.w3.org/2000/svg" xmlns:xlink="http://www.w3.org/1999/xlink" x="0px" y="0px"
	 viewBox="0 0 600 600" style="enable-background:new 0 0 600 600;" xml:space="preserve">
<style type="text/css">
	.st0{fill:#FFFFFF;}
</style>
<path id="White_Outline" class="st0" d="M300,600c-57.8,0.3-102.1-16.2-123.3-27.4c-41.5-21.8-75.8-50.7-105.2-90.8
	c-42.4-57.5-50.6-103.7-53.9-128.9c-2-13.1-4.3-44.6,0.1-72.9c5-40.8,14.3-61.1,20.9-81c5.2-14.1,21.8-48.2,31.7-63.8
	c8.4-12.2,23.7-34.8,30-42.7c1.7-2.5-0.5-1.3-1.4-1.3c-2.3,0.6-3.5,0.7-5.3,0.6c-1.3,0-4-0.4-5.4-0.9C79.8,89.1,68,79.9,69.4,64
	c-0.3-3.5,3.5-33.9,6.5-43.3c3.9-13.2,11.8-19.4,26-20.6c7.1,0,36.8-0.6,50.3,1.5c27.1,2.7,46.9,10.6,58.7,34.4
	c9.4,20.9,6.2,53.6-6.8,78.7c-4.4,8.5-13.3,24.5-20.9,34.8c-7.1,10.3-10,15.6-16.2,27.1c-6.2,12.1-26.8,57.2-33.9,86.6
	c-13.4,55-5.9,86.6,20,129.6c19.2,28.6,41.5,49.2,58.9,58.6c28.6,18,67.6,23,88,23c20.3,0,59.4-5,87.9-23
	c17.4-9.4,39.8-30.1,58.9-58.6c25.9-43,33.5-74.7,20-129.6c-7.1-29.5-27.7-74.5-33.9-86.6c-6.2-11.5-9.1-16.8-16.2-27.1
	c-7.7-10.3-16.5-26.2-20.9-34.8c-13-25-16.2-57.8-6.8-78.7c11.8-23.9,31.6-31.7,58.7-34.4C461.2-0.5,491,0.1,498,0.1
	c14.1,1.2,22.1,7.4,25.9,20.6c3,9.4,6.8,39.8,6.5,43.3c1.5,15.9-10.3,25.1-18.6,26.8c-1.5,0.4-4.1,0.9-5.5,0.9
	c-1.8,0.1-2.9,0-5.2-0.6c-0.9,0-3.1-1.2-1.5,1.3c6.2,8,21.6,30.5,30,42.7c9.9,15.6,26.5,49.6,31.7,63.8c6.6,19.9,15.9,40.2,20.9,81
	c4.4,28.3,2.1,59.8,0.1,72.9c-3.4,25.2-11.6,71.4-53.9,128.9c-29.5,40.1-63.7,69-105.2,90.8C402.1,583.8,357.8,599.7,300,600"/>
<path id="Blue_Horseshoe" d="M299.7,543.2c3.8,0,6.9-3.1,6.9-6.9c0-3.8-3.1-6.9-6.9-6.9s-6.9,3.1-6.9,6.9
	C292.7,540.1,295.8,543.2,299.7,543.2z M115.1,455.4c3.8,0,6.9-3.1,6.9-6.9s-3.1-6.9-6.9-6.9s-6.9,3.1-6.9,6.9
	S111.3,455.4,115.1,455.4L115.1,455.4z M73.9,295.1c3.8,0,6.9-3.1,6.9-6.9s-3.1-6.9-6.9-6.9s-6.9,3.1-6.9,6.9
	C66.9,292,70,295.1,73.9,295.1z M155.2,106.6c3.8,0,6.9-3.1,6.9-6.9s-3.1-6.9-6.9-6.9c-3.8,0-6.9,3.1-6.9,6.9
	C148.2,103.5,151.3,106.6,155.2,106.6z M491.9,448.5c0-3.8-3.1-6.9-6.9-6.9s-6.9,3.1-6.9,6.9s3.1,6.9,6.9,6.9
	C488.7,455.4,491.9,452.3,491.9,448.5z M533.1,288.2c0-3.8-3.1-6.9-6.9-6.9c-3.8,0-6.9,3.1-6.9,6.9s3.1,6.9,6.9,6.9
	S533.1,292,533.1,288.2z M451.8,99.6c0-3.8-3.1-6.9-6.9-6.9s-6.9,3.1-6.9,6.9s3.1,6.9,6.9,6.9C448.7,106.6,451.8,103.5,451.8,99.6z
	 M170.8,553.1C133.1,530.8,98.9,502.5,65.9,448C51.2,421.1,17,364,33.8,264.4c19.4-91,58.6-137,81-168.5
	c10.6-15.3-0.3-24.2-8.8-20.9c-7.2,2.7-12.1,2.9-12.1,2.9c-12.7-1.7-10.9-10-8.5-31.5l2.9-17.7c2.6-15.6,9.7-15.3,28.3-15
	c29.5,0.6,34.8,0.8,50.7,3.8c21.2,4.7,48.9,25.9,27.1,84.3c-13.5,31.2-27.7,41.8-43,74.2c-16.5,35.9-56.6,116.7-29.5,185.6
	c37.1,92.5,109,125.5,177.4,126.7c68.4-0.9,147.3-41.3,178.9-126.7c27.1-69-13-149.7-29.5-185.6c-15.3-32.4-29.5-43-43-74.2
	c-21.8-58.3,5.9-79.5,27.1-84.3c15.9-2.9,21.2-3.2,50.7-3.8c18.6-0.4,25.6-0.6,28.3,15l3,17.7c2.4,21.5,4.1,29.8-8.5,31.5
	c0,0-4.9-0.2-12.1-2.9c-8.5-3.2-19.4,5.6-8.8,20.9c22.4,31.5,61.5,77.5,81,168.5c16.9,99.6-17.3,156.7-32.1,183.6
	c-33,54.4-67.2,82.7-104.9,105.1c-51.6,36-148.3,33.9-129.7,32.7C319,587.3,228.5,589.7,170.8,553.1"/>
</svg>
