<svg version="1.1" id="Layer_1" xmlns="http://www.w3.org/2000/svg" xmlns:xlink="http://www.w3.org/1999/xlink" x="0px" y="0px"
	 viewBox="0 0 600 600" style="enable-background:new 0 0 600 600;" xml:space="preserve">
<style type="text/css">
	.st0{fill:#FFFFFF;}
	.st1{fill:#AAAAAA;}
	.st2{fill:#555555;}
</style>
<path id="White_Outline" class="st0" d="M600,179c-0.1-2.2-0.5-3.6-0.5-3.6l0,0c-2.7-9.5-12.5-15.4-25.7-15.4
	c-1.4,0-2.8,0.1-4.3,0.2c-10.1,1-28.2,7.1-33.6,9c-16.8-4.3-32.6-6.3-48.1-6.3c-8,0-16,0.6-24,1.7l0,0l-3.3,0.4
	c0,0-1.3-4.2,2.1-13.9c1.7-5,4.1-9.7,4.1-9.7s-36.6,19-41.2,13c-4.6-6.1,15.9-54.4,15.9-54.4s-35.3,39.2-42.2,37.5
	c-2.7-0.7-3-14.9-3.1-30.2c-0.2-20.7,0.5-44.4,0.5-44.4s-29.1,72.3-36.2,71.9c-6.2-0.3-15.1-38.9-15.1-38.9s-5.6,33.3-15.7,37.3
	c-10.1,4.1-36.1-58.1-36.1-58.1s-1.2,62.2-8.4,63.6c-7.2,1.4-30.2-21.9-30.2-21.9s10.8,31,7.1,35.1c-2.2,2.4-24.3-11.2-47.3-27.7
	c-13.3-9.5-24.4-17.5-24.4-17.5s13,21.5,23.3,44c7.1,15.5,11.4,30.4,9.5,33.3c-4.6,7.1-38.7-3-38.7-3s19.4,18.7,18.2,23.5
	c-0.6,2.3-19.9,0.6-39.5-2c-20.8-2.8-42-6.8-42-6.8s69.3,40.3,67.1,47.5c-1.7,5.7-44.8,1-44.8,1s37.5,17.1,37.3,22.8
	s-73.4,24.2-73.4,24.2s66.3,13.9,67.6,21.3s-26.2,31.1-26.2,31.1s31.9,2.9,33.5,7.1s-7.8,20.7-15.9,23.3c-10,3.2-19.1,5.3-30.3,5.3
	c-1.6,0-3.2,0-4.7-0.1c0.5-0.7,1.1-1.4,1.6-2.1c2.7-4,4.8-8.3,5.9-12.4l0,0l0,0c0.6-2.2,0.9-4.5,0.9-6.6V358v-0.1
	c-0.1-2.5-0.9-4.6-2.3-6c-2.7-2.4-5.2-2.1-7.1-1.3l-6.3,3.1c-0.5,0.2-1,0.4-1.6,0.6c-1.2,0.4-3.7,0.8-9,0.8c-5,0-10.9-0.4-16.7-0.7
	c0,0-3.5-0.2-4.2-0.2c-6.9,0-11.4,2.2-14.2,4.2l-1.5-0.8c-14-7.5-30.4-10.5-40.5-12.3c-0.8-0.1-1.5-0.3-2.3-0.4
	c-11.3-2.2-17.4-8.9-17.9-9.4c-1-1-2.2-2.4-3.8-3.3c0,0-2.9-1.8-7.3-0.5c-2.8,1-4,3.2-4,3.2c-2.4,4-0.1,10,2.9,16.6
	c3.5,7.6,14.4,26.5,40.5,38.6c8.5,4,19.8,6.8,33.4,8.4c10.2,1.2,18.9,1.4,22.4,1.4c3.3,1.6,13.5,6.3,28.7,11.1
	c16.7,5.2,42.7,11.4,72.6,11.6c0,0,10.6,0.1,16.3-0.2c0.6,2.4-3.6,10.9-8.5,20.9c-5.9,11.8-13.5,25.9-13.5,25.9s13.7-12.1,26.4-21
	c12.8-9,27.2-16.3,30.6-12.1c6.4,7.9-0.4,40.4-0.4,40.4s25.9-22.9,31.9-19.8c2.7,1.4,3,18.5,3,36.6c0,21.4-0.5,44.1-0.5,44.1
	s35.7-72.2,43.1-70.1s15.5,35,15.5,35s13.6-40.1,21.8-39.1c3.3-0.4,10.4,12.6,16.7,25.9c6.9,14.6,12.9,28.8,12.9,28.8
	s0.1-14.9,1.2-30.1c0.9-13.7,2.7-27.2,5.7-27.9c6.4-1.6,24.8,23.2,24.8,23.2s-6.5-34.5-1.4-37.4s66.6,50.2,66.6,50.2
	s-40.3-74.7-35.4-80.4s48,5.9,48,5.9s-6.4-7.6-11.9-16.1c-5.7-9-10.5-19-8.3-21.4c2-2.2,24.5,0.1,47.7,4.6
	c26.7,5.2,44.1,8.9,44.1,8.9s-15.8-8.5-39-22.5c-20.1-12.1-37.8-25.7-37.1-27.9c1.6-4.8,49.7-9.3,49.7-9.3s-8.1-4.7-16.7-10
	c-9.4-5.8-19.4-12.9-19.4-15.5c0-2.3,12-8,27.9-12.9c19-5.9,36.7-9.8,36.7-9.8s-65.5-5.3-69.6-14.6c-2.8-6.4,2.3-14.7,6.1-20.1
	s9.1-10.2,9.1-10.2c17.9-16.5,40.7-31.7,47.9-36.2c0.5-0.3,1-0.6,1.5-0.9c0,0,16.8-12.4,18.5-13.9c1.5-1.3,5.3-5.3,6.2-10.4
	C599.8,182.7,600.1,181.3,600,179"/>
<path id="Orange_Sun" d="M391.4,87.4c-6.1,17.7-23,56.9-31.8,55.5c-7.2-0.7-12.8-19.5-14.1-26.8c-1.5,6.8-5.2,22.8-15.9,24.3
	c-10.7,1.6-25.4-24.2-31.5-43.2c-0.9,33.9-6.6,48.8-11.2,48.9c-9,0.2-16.1-8.7-23.2-15.4c3.5,5.7,8.6,23,2,28.3
	s-50.8-26.1-60.4-35.7c10.9,16.1,30.4,53.9,24.6,63.4c-5.7,9.5-25.8,5.4-29.3,3.7c2.3,1.9,16.2,17.9,4.3,20.5
	c-16,3.5-59.7-6.7-62-7.3c10.5,3.8,56.3,30.9,53.5,41.4c-2.5,9.1-21.1,6-28.5,5.9c6.6,3.1,22.2,9.3,20.3,18.2
	c-1.9,8.8-45.8,18.7-59.3,21.6c15.4,3.4,54.2,9.5,54.8,21.3c0.6,11.9-23.8,28.2-23.8,28.2s21.6,1,26.3,3.5
	c6.8,3.7,1.6,17.5-4.5,24.7c8.2-3.8,16.3-8.8,24.7-15c-7-17.1-10.8-35.9-10.8-55.5c0-81.5,66.1-147.7,147.7-147.7
	c29.9,0,57.7,8.9,81,24.2c10.3-3.8,20.2-6.6,29.9-8.5c-0.6-3.9-0.1-8.1,2.2-13.3c-8.5,7-30.2,13.2-36.5,7.3s4.3-30.7,9.7-41
	c-8.9,10.6-24.6,29.5-34.1,25.8C386,141.1,392.4,96.2,391.4,87.4L391.4,87.4z M505.3,264.4c-4.9,4.7-10.1,9.6-15.6,14.8
	c0.8,6.2,1.2,12.5,1.2,18.9c0,81.6-66.1,147.7-147.7,147.7c-32.3,0-62.1-10.4-86.5-28c-11.1,2.2-22.2,3.4-33.3,4
	c-1.8,10.1-9.2,20.5-13.6,30c26.9-24.9,41.8-24,47-21.1c5.2,2.9,3.9,26.6,2.3,33.6c4.2-5.5,23.8-17.7,29.6-15.1
	c5.8,2.6,3.2,56.1,3.2,67c6.5-14.2,27.9-57.7,37.1-57.7s15.3,16.5,16.7,23.9c2-7.5,12.4-27,21.7-28.1c9.3-1,19.4,27.7,25.5,42
	c0.5-12.1-0.5-40.6,7-43.6c7.5-2.9,16.1,6.9,21.1,13c-1.4-8.4-2.6-25,2.6-28.4s41.8,26.4,55.2,39.6c-3.3-8.3-32.3-52.6-27.1-64.7
	c4.8-11,34.4-2.5,40.1-0.8c-7.8-6.1-16.3-26.6-13-33.2s52.4,3,73.1,8.9c-16.6-6.5-61.8-34.1-58.6-42.3s32.3-11.2,41.1-11.2
	c-2.6-1.3-21.1-11.5-27.5-18.9c-6.4-7.5,27.1-21.3,46.2-23.9c-17.1-1.4-49.4-4-49.7-16.5C503.6,270.3,504.2,267.1,505.3,264.4
	L505.3,264.4z"/>
<path id="Teal_Dolphin" class="st1" d="M574.2,165.2c-1.4,0-2.8,0-4.2,0.2c-11.2,1.1-33.8,9.2-33.8,9.2
	c-41.2-10.7-90.1-11.9-150.1,24.6c-11.2,6.8-21.4,13.9-30.9,21.1c-9.5,7.2-18.2,14.5-26.3,21.9c-3.5,3.2-8,7.2-11.9,11.1
	c-19.5,6.5-28.1,0.4-54.9,3.9c-21.2,2.8-29.4,10-34.1,15.7c-0.6,1.6-0.5,3.1,0.6,4c2.5,2,6.4,1,13.9,0.5c7.4-0.5,18.6-0.4,26,4.3
	c4.8,3,6.9,10.1,7.7,14.1c-5.5,5.9-11,11.6-16.5,17c-33.8,33.5-56.5,53.4-82,63.3c-55.2,21.6-86.3-3.8-98.8-11.2l0,0
	C63.8,355.2,43.7,352,33,350c-10.8-2-16.6-7.2-18.9-9.2s-4.1-5.2-6.7-4.5c-0.7,0.2-1.3,0.4-1.7,0.8c0.4-0.4,1-0.6,1.7-0.8
	c0.4,4.7,16.1,43.6,65.8,50.7c14.2,2,18.7,1.4,21.4,1.2c-8.4-7.4-15.3-17.6-15.9-18.2c1.9,1.7,3.8,3.2,5.7,4.7
	c14.9,15.8,31.7,22.4,45.9,24.8c0.9,0.3,14.9,0.9,14.9,0.9c16.3-0.4,38.2-5.2,58.6-11.1c59.7-17.3,117.3-69.1,117.3-69.1
	s-3.2,14-4.5,18.9c-0.8,3.9-3.7,17-9.3,30.7c0,0-1.6,4.1-4,9.2c-3.6,7.5-8.5,16.9-8.5,20.8c0,0.2,0,0.4,0,0.5c0,0,0,0.4,0.2,1
	c4.5-2.4,10.6-6.5,17.5-12.4c10.9-9,24.7-22.8,40.6-42.5c35.8-44.2,41.5-74.5,66.7-98c10.6-10,38.7-25.4,53-30.4
	c0.2-0.1,0.3-0.1,0.3-0.2l0,0l0,0c24.2-13.8,48-24.5,51.8-26.1c14.2-5.7,64.1-22.3,69.3-14l0,0C592.8,169.2,583.8,165.3,574.2,165.2
	L574.2,165.2z M525.2,180.8c0.1,0,0.1,0.1,0.2,0.1c0.3,0.6-2.2,2-10,5.2c-5.7,2.3-10.9,3.8-19.4,5.9c-3.9,1.2-9.4,2.9-9.4,2.9v-0.1
	c-9.6,3.2-25.7,9.7-30.8,17.2c0.2-0.4,3.5-7.1,6.2-10.9c2.2-3.4,7.2-9.9,14.6-13.1c10.3-4.5,17.1-3.8,21.8-3.8
	c4.7,0,15.9-0.3,20.4-1.4C522.6,181.9,524.5,180.7,525.2,180.8L525.2,180.8z M462.9,295.7c-7.3,6.6-14.7,13.1-21.9,19
	c-5.6,4.7-12,9.8-19.1,15.1c-2.2,27.8-7.8,41-7.8,43.6c0,1.4,0.5,2.8,1.5,3.5c6.6-4.8,19.1-17.2,28.5-35.1
	C452.2,326.6,458.7,308.8,462.9,295.7z M132.1,355.2c-2.1,0.3-3.1,2.5-8.1,4c-5.8,1.7-18.3,0.8-29.6,0.1c-8.2-0.5-12.6,2.6-14.3,4.3
	c5.1,2.9,21.7,12.6,35.9,15.3l0,0C115.4,378.3,138.3,362.8,132.1,355.2L132.1,355.2z"/>
<path id="Blue_Dolphin" class="st2" d="M589.4,180.6c-4.1,0-11.6,1.9-23.5,5.9c-0.1,0-0.1,0-0.2,0.1c-1.6,0.6-3.3,1.1-5.1,1.8
	c-56.1,19.7-110.4,81.4-180.6,134.7l0.5-0.8c20.9-31.4,28-54.4,49.1-74c10.9-10.4,27.5-21.2,43.9-30.5c0,0-0.1,0.1-0.3,0.2
	c-14.3,5-42.4,20.4-53.1,30.4c-25.2,23.5-30.9,53.8-66.7,98c-15.9,19.7-29.7,33.5-40.6,42.5c-6.9,5.9-13,10-17.5,12.4
	c0,0.1,0.6,2,2.2,2.4c2.6,0.7,12.3-4.3,24.8-14.8c0.1,0,23.9-11.3,35.4-17.6c13.4-7.3,35.6-21.1,40.4-24.3l0,0
	c8.6-5.7,23.9-16.9,23.9-17c7.1-5.3,13.5-10.4,19.1-15.1c7.2-6,14.6-12.4,21.9-19c-4.2,13.1-10.7,30.9-18.7,46
	c-9.5,18-22,30.4-28.5,35.1c2.1,1.3,5.2-0.7,5.6-0.8c5.4-3,20.7-15.9,30.9-36.7c14.6-29.6,20.7-52.4,20.9-52.8
	c1.2-1.1,48.3-45.6,49-46.2c17.6-16.3,40.6-31.8,48.8-36.9c8.6-5.3,13.8-9.3,16.9-12c3.1-2.7,4-4,4-4l0,0c0.5-0.8,1.7-3.2,1.5-4.7
	C593,181.3,591.8,180.6,589.4,180.6z M525.1,180.8c-0.6-0.1-2.6,1.1-6.5,2c-4.5,1.1-15.7,1.4-20.4,1.4c-4.8,0-11.5-0.7-21.8,3.8
	c-7.4,3.2-12.4,9.7-14.6,13.1c0.7-1,1.4-1.8,1.9-2.2c0,0,7.5-8.7,22.9-7.6c-0.5,0.8-0.9,1.9-0.5,3l0,0c0.1,0.1,0.1,0.3,0.2,0.4
	l0.1,0.1c0,0,5.5-1.8,9.4-2.9c8.5-2.1,13.7-3.5,19.4-5.9c7.8-3.2,10.3-4.6,10-5.2C525.3,180.9,525.2,180.8,525.1,180.8z
	 M328.9,242.1c-5.5,1.8-9.8,2.8-13.8,3.5c-9.1,1.8-15.7,1.3-34.6,3.8c-29.7,3.9-43.6,13.2-47.5,16.8c-1.2,1.1-2.1,2-3.3,3.7
	c-0.8,1.2-1.4,2.6-1.5,2.8c4.7-5.7,12.9-12.9,34.1-15.7c26.8-3.5,35.4,2.6,54.9-3.9C320.9,249.3,325.4,245.3,328.9,242.1z
	 M321.3,320.1c0,0-57.6,51.7-117.3,69.1c-20.3,5.9-42.2,10.7-58.6,11.1c2.9,0,40.8,1.5,82.5-14.1c34.1-12.4,67.5-32.8,88.9-47.1
	C318.1,334,321.3,320.1,321.3,320.1z M7.5,336.1c-0.5,0.1-1,0.3-1.3,0.5l0,0c-0.1,0.1-0.2,0.2-0.3,0.3c-1.2,1.1-1,3.8,2.8,12.3
	c5.2,11.4,17.2,26.5,37.9,36.1c19,8.8,47.9,9.3,53.8,9.3h1l0,0c0,0,49,25.4,111.3,22.4c0.1,0,37.1,0.8,82.4-16.9c0-0.1,0-0.3,0-0.5
	c0-3.9,5-13.3,8.5-20.8l0,0c2.4-5,4-9.2,4-9.2c-19.5,10.4-50.7,23.6-78.9,30.2c-55.6,13-91.1,1.7-97.2-0.3l-0.8-0.3h-0.1l0,0
	c0,0,0,0-0.1,0c-14.2-2.3-31.1-8.9-45.9-24.7c-1.9-1.5-3.8-3.1-5.7-4.7c0.6,0.6,7.5,10.9,15.8,18.2c-2.7,0.2-7.2,0.8-21.4-1.2
	C23.6,379.7,7.9,340.8,7.5,336.1L7.5,336.1z M132.6,355.1c-0.2,0-0.4,0-0.5,0c6.2,7.6-16.7,23.1-16.2,23.7l0,0
	c0.8,0.1,2.6,0.5,4.4,0.6c1.7,0.2,3.8,0.1,4.2,0c0,0,2.7-3,4.3-5.4c2.7-3.9,4.3-7.7,5.2-10.8c0.5-1.8,0.7-3.6,0.7-5.4
	C134.6,355.5,133.4,355.1,132.6,355.1L132.6,355.1z"/>
</svg>
