<?xml version="1.0" encoding="utf-8"?>
<!-- Generator: Adobe Illustrator 25.2.3, SVG Export Plug-In . SVG Version: 6.00 Build 0)  -->
<svg version="1.1" id="Layer_1" xmlns="http://www.w3.org/2000/svg" xmlns:xlink="http://www.w3.org/1999/xlink" x="0px" y="0px"
	 viewBox="0 0 600 600" style="enable-background:new 0 0 600 600;" xml:space="preserve">
<style type="text/css">
	.st0{fill:#FFFFFF;}
	.st1{fill:#555555;}
	.st2{fill:#AAAAAA;}
</style>
<path id="Outline" class="st0" d="M561.3,275.4h-20.9l7.6-14.3h-19.1l-0.1-0.1c0.6-6.5,0.9-13.1,0.9-19.8
	c0.1-59.7-23.1-117.1-64.8-159.9l-1.2-1.2l4.6-4.6l-10-10c-87.4-87.4-229.1-87.4-316.5,0l0,0l-10,10l4.6,4.6l-1.2,1.2
	c-41.7,42.8-64.9,100.2-64.8,159.9c0,6.9,0.3,13.7,0.9,20.4l-0.1,0.1H52.1l4.2,7.9l0,0l3.5,6.5l-0.3,0.2H38.9l4.6,8.5l0,0L121.4,431
	h20.9l8.2,15.3h13.9l82.1,153.4l12-25.6c3.1-6.5,6.1-13.1,9.1-19.6c1.3-2.9,3.1-6.8,5.2-11.1l27.9,56.5l12.4-26.6
	c2.9-6.2,5.8-12.4,8.7-18.7c1.4-2.9,3.2-6.9,5.2-11.3l26.2,56.5l82.1-153.6h13.9l8.2-15.3h21l61.7-116h0.1L561.3,275.4z"/>
<path id="Black" d="M515.3,266.5c0.7-7.3,1.1-14.7,1.1-22c0.1-56.3-21.8-110.3-61.1-150.6l-2.1,2.1c40.4,47,57,109.8,45,170.6h-14.7
	c13.4-62.4-5.7-127.3-50.8-172.4l16-16C366.5-4,233.2-4,150.9,78.2l16,16c-45.1,45.1-64.2,110-50.8,172.4h-14.7
	c-11.9-60.8,4.7-123.6,45-170.6l-2.1-2.1C99.8,139.8,77.8,203,84.4,266.6H69.5L158.4,436h13.9c0.1,0.2,0.2,0.3,0.2,0.4
	s0.1,0.1,0.1,0.2c0.1,0.2,0.2,0.3,0.2,0.5l72.6,135.7c3.1-6.5,6.1-13.1,9.1-19.6c4.3-9.3,8.6-18.6,12.8-27.9l-9.7-19.6
	c-4.2,9.3-8.4,18.6-12.6,27.9c-6.3-12.9-12.8-25.8-19.6-38.7c8.3-19.3,16.7-38.8,25.5-58.6h38.7c-6.2,13-12.2,25.9-18,38.6
	c-4.8-9.6-9.8-19.3-14.8-29c-3,6.7-6,13.4-8.9,20.1l36.3,73.3l16.2,32.7c2.9-6.3,5.9-12.5,8.8-18.8c4.4-9.4,8.9-18.8,13.5-28.3
	l-9.1-19.7c-4.6,9.5-9.1,18.9-13.5,28.4c-6.1-12.9-12.2-25.8-18.5-38.8c6-13,12.2-26.1,18.5-39.2c3.1-6.4,6.2-12.8,9.4-19.2h38.8
	c-6.9,13-13.5,25.9-19.9,38.6c-4.4-9.7-8.9-19.4-13.5-29.1c-3.3,6.7-6.6,13.4-9.8,20.1l38.6,83.2l11,23.7l72.9-136.2
	c0,0,0.1-0.3,0.3-0.7h13.7l90.9-169.5H515.3z M215,475.3c-7.1-12.9-14.5-25.9-22.3-38.9h38.7C225.8,449.5,220.3,462.5,215,475.3z
	 M385,475.3c-4-9.6-8.1-19.3-12.2-29.1c-3.7,6.7-7.3,13.3-10.8,19.9c4.2,9.7,8.4,19.3,12.5,28.8c-6.8,12.9-13.3,25.8-19.6,38.7
	c-5.8-12.9-11.6-25.8-17.5-38.8c6.5-13,13.2-26,20.1-39.1c3.4-6.5,7-12.9,10.6-19.4h39.3C399.6,449.4,392.1,462.3,385,475.3z"/>
<path id="Blue" class="st1" d="M300,281.6H54.8l74.4,139.2H300h170.8l74.4-139.2L300,281.6L300,281.6z M300,62.4
	c-90.9,0.1-164.6,73.8-164.5,164.7c0,13.3,1.6,26.5,4.8,39.3H243V231l16.9-3.2v38.7h199.9C481.5,178.2,427.6,89,339.3,67.2
	C326.5,64.1,313.2,62.4,300,62.4z M278.5,209.7l-16.9,2.9v-65.2l16.9-6V209.7z"/>
<path id="Yellow" class="st2" d="M241.7,348.4c-3.2-2.8-6.9-5-10.9-6.5c-4.5-1.7-9.2-2.5-14-2.5h-40.6h-0.3
	c-3.8-0.2-6.7-3.4-6.5-7.2c0.2-3.6,3.1-6.4,6.6-6.5h72.9v-23.2h-68.7c-4.8,0-9.6,0.7-14.1,2.3c-4.1,1.4-8,3.5-11.4,6.2
	c-3.3,2.6-5.9,6-7.8,9.7c-3.7,7.4-3.9,16-0.5,23.6c1.6,3.6,3.9,6.8,6.9,9.5c3.1,2.8,6.7,5,10.6,6.5c4.4,1.7,9.1,2.5,13.8,2.4h41.6
	c3.9,0,7,3.1,7,7s-3.1,7-7,7h-92l12.1,23.2h82.1c4.4,0.1,8.7-0.9,12.6-2.9c3.5-1.8,6.7-4.2,9.4-7.2c2.6-2.8,4.6-6.1,6-9.7
	c1.3-3.3,2.1-6.8,2.1-10.4c0-4-0.9-8-2.6-11.7C247.2,354.4,244.7,351.1,241.7,348.4 M324.3,302.5l-38.7,37.7v-37.7H258V400h27.5
	v-37.7l38.7,37.7h33.6L309,350.9l48.9-48.4H324.3z M449.6,302.5v36.8h-56.3c-2.8-0.6-4.9-3.1-4.9-6v-30.8H365v30.6
	c0,2.8,0.4,5.5,1.3,8.1c3.8,12.7,15.5,21.5,28.8,21.6h54.5v7.8c0,3.4-2.7,6.1-6.1,6.1h-95.7l23.5,23.2h71.3c4.4,0,8.8-1,12.7-3
	c3.6-1.9,6.8-4.4,9.5-7.4c2.5-2.9,4.6-6.1,6-9.7c1.4-3.2,2.1-6.7,2.2-10.2v-67.1H449.6z M431.2,116.3c-3.4-4-6.9-7.8-10.6-11.5
	c-66.8-66-174.3-66-241.2,0c-3.7,3.7-7.2,7.5-10.6,11.5c-26.2,30.9-40.5,70.2-40.5,110.7c0,4.3,0.2,8.6,0.5,12.9
	c0.4,5.9,1.2,11.8,2.2,17.6c0.5,3,1.2,6,1.9,9H149c-1.6-6.2-2.9-12.6-3.7-18.9c14.1-9.2,29-17.1,44.5-23.7
	c8.1-3.4,16.3-6.5,24.6-9.1c0.3,4,0.5,8.1,0.5,12.2c0,13.3-1.7,26.6-5.1,39.5h16.1c3.1-13,4.6-26.2,4.6-39.5
	c0-5.6-0.3-11.1-0.8-16.6c10.5-2.7,21.2-4.7,32-6.1v-15.7c-11.5,1.4-22.9,3.6-34.2,6.4c-5.5-29-18.4-56.1-37.5-78.6
	c26-25.9,60.3-41.8,96.9-44.8v53.9l-8.4,2.7v81.7l-18.6,3.2v68.7H300V121.2l-6.1,1.9v-52c2-0.1,4.1-0.1,6.1-0.1
	c41.2-0.1,80.8,16.2,110,45.4c-19.1,22.5-32,49.6-37.5,78.6c-16.7-4.2-33.8-6.9-51-8.1v15.6c16.5,1.2,32.8,3.9,48.8,7.9
	c-0.5,5.5-0.8,11-0.8,16.6c0,13.3,1.5,26.6,4.6,39.5h16.1c-3.4-12.9-5.1-26.2-5.1-39.5c0-4.1,0.2-8.2,0.5-12.2
	c8.3,2.6,16.5,5.7,24.6,9.1c15.5,6.6,30.4,14.5,44.5,23.7c-0.8,6.4-2.1,12.7-3.7,18.9h16c0.7-3,1.3-6,1.9-9c1-5.8,1.8-11.7,2.2-17.6
	c0.3-4.3,0.5-8.6,0.5-12.9C471.7,186.4,457.4,147.2,431.2,116.3z M212.4,199.1c-24,7.4-47,17.7-68.4,30.9c0-1,0-2,0-3
	c-0.1-36.1,12.4-71.2,35.5-99.1C196.3,148.4,207.7,172.9,212.4,199.1L212.4,199.1z M456,229.9c-21.4-13.1-44.4-23.5-68.4-30.9
	c4.7-26.2,16-50.7,33-71.2c23,27.9,35.6,62.9,35.5,99.1C456,228,456,229,456,229.9L456,229.9z"/>
<path id="White_1_" class="st0" d="M321.5,128l-8.4-2.7V71.5c-2.3-0.2-4.7-0.3-7-0.4v52.1l-6.1-1.9l0,0v160.5h40.1V213l-18.6-3.2
	V128z M181.7,72.9c-3-4.5-1.2-7.2,3-10.1l5.5-3.7c6.7-4.5,8.5-3.7,11.4,0.7l-4.7,3.2l-0.3-0.4c-0.7-1.1-1.8-0.9-3.2,0.1l-5.1,3.5
	c-2.5,1.7-2.2,3.1-0.9,5.1l1.1,1.6c1.5,2.2,2.5,2.8,4.8,1.3l5-3.4c2.1-1.4,2.6-2.1,1.3-4l4.7-3.2l1,1.4c1.7,2.6,2.2,5.2-2.5,8.4
	l-7.6,5.1c-4.2,2.9-7.5,3.5-10.5-1L181.7,72.9z M214.7,45.2l5.3-2.1l2.5,6.1l11.1-4.4l-2.4-6.1l5.3-2.1l6.9,17.2l-5.3,2.1l-2.6-6.5
	l-11.1,4.4l2.6,6.5l-5.3,2.1L214.7,45.2z M254.1,31.9l5.5-1.2l4,18l-5.5,1.2L254.1,31.9z M277.6,34c-0.3-5.4,2.7-6.8,7.8-7.1
	l6.7-0.4c8.1-0.4,9.2,1.2,9.4,6.5l-5.7,0.3v-0.5c-0.1-1.3-1.1-1.7-2.7-1.6l-6.2,0.3c-3,0.2-3.5,1.6-3.4,3.9l0.1,2
	c0.1,2.7,0.8,3.7,3.4,3.5l6-0.3c2.6-0.1,3.3-0.4,3.2-2.7l5.7-0.3l0.1,1.7c0.2,3.1-0.8,5.6-6.5,5.9l-9.1,0.5
	c-5.1,0.3-8.2-0.8-8.5-6.2L277.6,34z M328.2,28.5l7.3,1.2l7.1,19.9l-6.2-1l-1.2-3.5l-11.3-1.8l-2.2,3l-6.2-1L328.2,28.5z
	 M326.6,39.6l7.2,1.1l-2.5-7.4L326.6,39.6z M359.6,42c2-5,5.3-5.1,10-3.2l7.9,3.1c6,2.4,6,4.8,4.7,8.2l-0.2,0.5l-5.2-2
	c0.7-1.7-0.2-2.3-1.9-3l-5.7-2.3c-2.7-1-3.6-0.7-4.8,2.3l-0.8,2.1c-1.2,2.9-0.7,3.9,1.9,4.9l5.6,2.2c1.4,0.5,2.8,0.9,3.5-0.8
	l0.2-0.5l-6.6-2.6l1.4-3.6l11.8,4.6l-1.9,4.9c-1.9,4.9-4.6,4.2-10.5,1.8l-6.3-2.5c-4.7-1.9-7.1-4.2-5.1-9.2L359.6,42z M397.2,58.7
	c3-4.5,6.3-3.9,10.5-1l7.6,5.1c4.2,2.8,6.1,5.6,3.1,10.1l-3.1,4.6c-3,4.5-6.2,3.9-10.5,1l-7.6-5.1c-4.2-2.8-6.1-5.6-3.1-10.1
	L397.2,58.7z M400,65.1c-1.5,2.2-1.6,3.4,0.6,4.9l6,4c2.2,1.5,3.3,1,4.8-1.3l1.1-1.7c1.3-1.9,1.6-3.4-0.9-5.1l-5.5-3.7
	c-2.5-1.7-3.7-0.8-5,1.1L400,65.1z"/>
</svg>
