<?xml version="1.0" encoding="utf-8"?>
<!-- Generator: Adobe Illustrator 25.2.3, SVG Export Plug-In . SVG Version: 6.00 Build 0)  -->
<svg version="1.1" id="Layer_1" xmlns="http://www.w3.org/2000/svg" xmlns:xlink="http://www.w3.org/1999/xlink" x="0px" y="0px"
	 viewBox="0 0 600 600" style="enable-background:new 0 0 600 600;" xml:space="preserve">
<style type="text/css">
	.st0{fill:#AAAAAA;}
</style>
<path d="M20.2,0l14.6,31.3l250.6,537.3L300,600l14.6-31.3L565.2,31.3L579.8,0l-33.4,8.9L300,75L53.6,8.9L20.2,0L20.2,0z"/>
<path class="st0" d="M300,91.7L49.4,24.5L300,561.9L550.6,24.5L300,91.7z M273.8,327.3l6.5-84.8h16.2l-0.6,76.1h8.2l-0.6-76.1h16.2
	l6.5,84.8H273.8z M302.9,166h11l4.9,64.6h-37.5l4.9-64.6h11l-0.4,55.5h6.6L302.9,166L302.9,166z M272.6,105.5L159.8,225.7l-25.6-55
	L272.6,105.5z M128.8,159.3l-22.4-48.1L268.6,101L128.8,159.3L128.8,159.3z M275.5,110.8L196.8,305l-31.2-66.9L275.5,110.8z
	 M280.6,113.3l-34.1,298.2l-42.2-90.6L280.6,113.3L280.6,113.3z M319.4,113.3l76.4,207.6l-42.3,90.6L319.4,113.3z M324.5,110.8
	l109.8,127.3L403.2,305L324.5,110.8z M327.3,105.5l138.4,65.3l-25.6,55L327.3,105.5z M331.4,100.9l162.2,10.2l-22.4,48.1
	L331.4,100.9L331.4,100.9z M343.8,95.5l179.5-48.1l-24,51.5L343.8,95.5L343.8,95.5z M297.6,106.6l-0.3,40h5.5l-0.3-40l1.5-0.4
	l5.3-1.4l3.9,51h-26.1l3.9-51l5.3,1.4L297.6,106.6L297.6,106.6z M256.2,95.5l-155.5,3.4l-24-51.5L256.2,95.5L256.2,95.5z
	 M264.5,450.1l8.3-109.2h22.9l-1.1,144.8l5.4,11.6l5.4-11.6l-1.1-144.8h22.9l8.3,109.2L300,526.3L264.5,450.1z"/>
</svg>
