<?xml version="1.0" encoding="utf-8"?>
<!-- Generator: Adobe Illustrator 25.2.3, SVG Export Plug-In . SVG Version: 6.00 Build 0)  -->
<svg version="1.1" id="Layer_1" xmlns="http://www.w3.org/2000/svg" xmlns:xlink="http://www.w3.org/1999/xlink" x="0px" y="0px"
	 viewBox="0 0 600 600" style="enable-background:new 0 0 600 600;" xml:space="preserve">
<style type="text/css">
	.st0{fill:#AAAAAA;}
	.st1{fill:#FFFFFF;}
	.st2{fill:#555555;}
</style>
<path id="Outer_Blue" d="M594.3,245c-3.9-9.7-13.6-15.8-24-15.2h-3.2c4.6-10.8,3.2-23.2-3.6-32.7c-4.2-5.7-10.2-9.7-17-11.7
	C500.9,81.9,398.5,14.9,285.3,14.7C127.9,14.7,0,142.8,0,300.1c-0.1,32.7,5.6,65.2,16.8,96c-3.7,7.8-5.7,16.3-5.9,25
	c0.1,16.5,6.9,32.2,18.8,43.6c10.1,9.8,23.1,16.2,37,18.2c101,120.9,280.9,137,401.7,36c53.6-44.8,88.9-107.8,99.2-176.9
	c18.7-14.5,30.4-36.2,32.2-59.8c0.1-2.3,0.2-4.4,0.2-6.3C600,265.3,598.1,254.9,594.3,245z"/>
<path id="Yellow" class="st0" d="M530.4,291.6h17.8c0.1,2.8,0.1,5.7,0.1,8.5c-0.2,145.3-117.9,263-263.2,263.2
	c-14.2,0-28.4-1.2-42.4-3.5c-6.8,1.9-13.8,2.9-20.9,2.8c-24.8,0-48.2-11.7-63-31.7C31.5,461.2-15.3,301.3,54.4,173.8
	S284-0.5,411.5,69.2c59.8,32.7,104.6,87.4,124.9,152.5h-18.8C517.7,221.6,484.6,276.4,530.4,291.6z"/>
<path id="Red_Circle" class="st1" d="M519.5,282.6v-28.5h11.7C505.5,118.6,374.8,29.6,239.4,55.3S14.9,211.7,40.6,347.1
	s156.3,224.5,291.8,198.8c118-22.4,203.4-125.7,203.2-245.8c0-5.8-0.4-11.7-0.6-17.5L519.5,282.6z"/>
<path id="Blue_Circle" d="M285.3,58.7C152,58.7,44,166.8,44,300.1s108.1,241.3,241.4,241.3s241.3-108.1,241.3-241.3
	C526.6,166.8,418.5,58.8,285.3,58.7z"/>
<path id="Red_Ring_Inner" class="st1" d="M125.4,248c28.8-88.3,123.7-136.6,212.1-107.8c63.8,20.8,109.1,77.5,115.3,144.3h9
	c-8.7-97.4-94.7-169.4-192.1-160.7C197.9,130.2,137.3,179.3,116,248H125.4z M285.3,468.2c-38.6,0-76-13.3-105.8-37.8h-13.6
	c71.9,66.1,183.8,61.3,249.9-10.6c17.3-18.8,30.3-41.2,38.1-65.5h-9.5C421.1,422.4,357.2,468.2,285.3,468.2L285.3,468.2z"/>
<path id="INDIANA_Yellow" class="st1" d="M439.9,178.2l-3.2,5.8l6.3,7.5l18.8-33.7l-6.7-7.9l-36.5,12.7l6.3,7.6l6.4-2.2L439.9,178.2
	z M443.8,171.6l-5.1-5.9l11.4-4.5l0.1,0.1L443.8,171.6z M383.2,94.4l8,4.7l3.9,27.7l11.2-19.1l8.1,4.7l-18.1,31.3l-8.1-4.9
	l-3.8-27.7l-11.2,19.1l-8-4.6L383.2,94.4z M325.9,107.1l1.2,6.7l9.8,1.7l-7.2-38l-10.1-1.8l-20,33.3l9.8,1.8l3.5-5.8L325.9,107.1z
	 M324.8,99.6l-7.6-1.3l5.8-10.7h0.1L324.8,99.6z M269.8,109.7l-9.3,1.1l-3.8-36.1l9.3-1L269.8,109.7z M200.3,128.5l12.4-4.9
	c9.4-3.7,14-14.2,10.3-23.6c0,0,0,0,0-0.1c-3.6-9.2-14-13.7-23.1-10c-0.2,0.1-0.3,0.1-0.5,0.2l-12.4,5L200.3,128.5z M198.6,98.7
	l2.1-0.8c4.8-2.3,10.6-0.3,12.9,4.5c0.2,0.3,0.3,0.7,0.4,1c2.3,4.8,0.3,10.5-4.5,12.8c-0.4,0.2-0.9,0.4-1.3,0.5l-1.9,0.7L198.6,98.7
	z M121.3,142.1l7-6.3l27.7,5.1l-14.7-16.6l7-6.2l24,27.1l-7,6.3l-27.7-5.3v0.1l14.7,16.5l-7,6.3L121.3,142.1z M89.6,184.8l4.9-8
	l30.7,19.1l-4.9,7.9L89.6,184.8z"/>
<path id="Fever_Outline_White" class="st1" d="M580,250.8c-1.4-3.6-5-5.9-8.9-5.7h-6.3c-2.3,0.4-4.4,1.6-5.8,3.5
	c-3.5,6.7-19.9,26.7-26.8,23.2c-7.5-4,15.1-38.2,15.1-38.2c5.5-6.7,7-12.4,7-17c0-3.6-1.1-7.2-3.2-10.2c-5.6-6.8-15.1-9-23.2-5.3
	c-3.3,0.9-6.8,0.9-10.1,0.1c-1-7.3-4.1-16.6-12-20.8c-3.2-1.7-9.3-3.6-17.7,1c-5.4,3.1-9,8.7-9.7,14.9c-0.1,0.9-0.1,1.8-0.1,2.7
	c0.2,7,3,13.7,8,18.6c0.3,0.3,0.6,0.5,0.8,0.8c-2.5,6.1-5.5,12-8.7,17.7c0.1-1.3,0.2-2.7,0.2-4c0.3-6.2-2.3-12.2-7-16.3
	c-9.2-7.8-21.2-6.4-27.1-4.4c-14.6,4.7-44.1,21-55.2,51.8c2.3-8.9,1.3-14.8-0.5-18.8c-1.2-2.8-3.3-5.1-5.9-6.7
	c-4.7-3-10.6-3.4-17.4-1.2c-16.3,5.3-22.5,25.2-22.5,25.2c-7.9,20.3,1.8,33.3,1.8,33.3c-0.4,1-7.6,11.5-7.6,11.5l-4.1-40.1
	c-0.3-4.6-2.6-8.8-6.4-11.4c-3.6-2.3-8-2.9-12-1.6l-23.2,7.5c-3.8,1.1-6.3,4.6-6.3,8.5v9.3c-0.8-0.9-1.6-1.8-2.5-2.5
	c-9.2-7.6-21.2-6.3-26.9-4.4c-11.6,4-22.4,10.1-31.7,18.1c-0.4-1.7-1.2-3.2-2.4-4.4c-2.4-2.4-6-3.3-9.2-2.2c0,0-14.3,4.7-26.7,8.7
	c5-17.4,12.9-33.1,28-41.9c2.8-1.7,4.5-4.7,4.5-8V242c31.8-7.3,56.3-32.7,62.4-64.8c0.4-2.7-0.5-5.5-2.3-7.5c-1.9-1.9-4.5-3-7.3-3
	l-4.4,0.4c-2.9,0.2-5.6,1.7-7.3,4.1c-13.4,20.9-44.2,26.7-80,33.4c-23.5,4.5-47.8,9-70.6,18.6c-63.5,26.1-60.6,66.2-60,70.8
	c1.5,22.9,22.7,40.3,47.5,39.1c4.4-0.3,8.8-1.2,13-2.7c-2.1,7.5-0.8,15.5,3.4,22c2.2,3.7,6.6,5.4,10.7,4.1l9-2.8
	c-12.4,47.1-22.2,56.7-22.6,57.2c-4.2,4-12.1,6.2-15.9,4c-1.4-0.7-2.3-2-2.7-3.5c-0.2-1.9,0.4-3.8,1.7-5.2c2.1-2.4,4.9-3.9,8-4.4
	c3.7-0.6,6.7-3.5,7.5-7.2s-0.8-7.5-4-9.6c-8.1-5.2-17.5-8.1-27.2-8.4C63.4,376,50,381,39.9,390.4c-8.5,8.2-13.4,19.3-13.7,31.1
	c0,24.8,21.5,45.9,48.6,47c11.1,0.9,22.2-0.9,32.4-5.2c15.7-6.3,37.3-21.2,50.5-56.4c10.6-23.5,15.1-48.8,19.3-73.3l0.7-4
	c4.5-1.3,15.1-4.6,23.2-7.4c-2.9,7.8-4.4,16.1-4.4,24.5c0,2.2,0.1,4.5,0.4,6.9c0.2,2.2,2.5,20.8,17.5,29.3c1.9,1.1,4,2,6.2,2.7
	c-64.5,26.9-78,59-78.9,60.9c-0.5,1.1-0.7,2.2-0.7,3.4c0,2.4,0.9,4.7,2.7,6.4l9.8,9.8l0.7,0.7c-1.5,5.8-2.3,11.8-2.3,17.8
	c0,38.8,31.5,70.2,70.3,70.2c38.7,0,70.1-31.4,70.2-70.2c0-9.9-2.1-19.7-6.2-28.6c1.6-0.5,2.9-1.4,4-2.7l2.9-3.4
	c2.1-2.8,2.6-6.6,1.2-9.8c-0.5-2.4,0-5,1.3-7c5.2-9.1,28.9-32.5,136.9-51.5c47-9,87.5-24.5,117.1-45.3c26.5-17.2,33.4-39.4,34.6-55
	C585,270.9,583.6,260.5,580,250.8z M143.1,305.1c-3.2,1-6.9,2.1-7.9,2.4c2.9-6,4.3-12.7,4-19.4c-0.5-8.5-3.7-16.6-9.2-23.1
	c-2.2-2.8-5.9-4-9.3-3.2c-3.4,1-6,3.8-6.7,7.3c-0.5,2.2-1.8,4.2-3.6,5.5c-1.8,1.4-4.1,2-6.3,1.7c-1.2,0-2.3-0.7-2.8-1.8
	c-1-1.7-0.2-5.8,3.3-9.1l0.4-0.4c0.2-0.1,17.2-16.4,68.5-19.5C161.9,256.9,150.9,275.2,143.1,305.1z M268,369.1
	c11.6-10.1,21.7-21.7,30.1-34.6c0.5,5,1.9,22.7,2.3,26.9C283.9,365.1,268,369.1,268,369.1z M529.2,304.6
	c-24.2,17.4-70.5,39.6-153.1,46.7c-16.3,1.3-31.4,3-45.6,5.2c17-12.8,31-29.2,40.9-48.1c5.8-1,11.5-2.6,17-4.9
	c2.6,7.6,7.6,14.1,14.2,18.6c5.8,3.8,16.1,6.9,31.1,1.7c8-3.1,15.4-7.6,22-13.1c12.3-10.6,23-22.9,31.9-36.4
	c0.2,2.4,0.7,4.8,1.3,7.2c2.4,8.6,8.4,15.7,16.5,19.4c8,3.6,16.9,4.4,25.4,2.3C530.3,303.8,529.8,304.2,529.2,304.6z"/>
<path id="Fever_Red" class="st2" d="M360.9,283.2c-1-1.3-1.5-2.8-1.5-4.4c-0.5-3.7,0.1-7.5,1.7-10.8c1-2.6,2.8-4.8,5.2-6.2
	c0,0,1.2-0.7,1.9-0.4c0.8,0.4,0.8,1.6,0.8,1.6C368.8,267.1,364.8,274.7,360.9,283.2z M261.7,291.7c21.7-6.6,0.2,38.5-28,35.9
	C237.3,312.6,247.6,296,261.7,291.7z M450.8,231.3c21.8-6.6,0.4,38.5-27.9,35.9C426.5,252.2,436.9,235.7,450.8,231.3z M571.6,254.2
	h-5.5c-8,13.8-26.7,32.9-39.7,25c-15.9-9.3,13.4-51,13.4-51c12.5-14.8,0.7-22.8-8.3-19.1c-9,3.9-22.1-1.2-22.1-1.2
	s-0.5-27.3-16.5-18.8c-8.6,4.4-6.2,16-0.1,21.8c1.6,1.5,3.5,2.7,5.6,3.4c-5.7,17.7-17.8,36.1-22.1,42.1c0,0-27.6,37-45.6,35.8
	c-7-0.4-9.7-7.6-9-17.2c12.1,1.3,24.8-3.9,35-14.8c3.4-3.7,6.2-7.7,8.5-12.1c0.8-1.2,9.5-18.2,0.8-25.4c-7.9-6.6-18.3-2.7-18.3-2.7
	c-15.5,5.1-39.6,20.5-49.2,44.5c-1.9,5-3,10.2-3.3,15.5c-5.3,2.8-17.5,9.2-25.4,9c6.9-12.6,12.5-30.3,11.5-37.9
	c-0.8-6.2-5.9-8.3-12.5-6.2c-6.9,2.3-12.1,7.6-15.9,16.1c-3.2,7.3-4.7,14.2-3.5,20.9c0.8,4.6,3.1,8.8,6.4,12
	c-7.1,12.6-15.6,24.3-25.5,34.8l-6.4-61.7c-0.7-7-6.6-5.2-6.6-5.2l-23.2,7.4v5.7l2.1-0.7c2.1-0.8,4.4,0.3,5.2,2.4
	c0.1,0.4,0.2,0.8,0.3,1.3l1.1,11.8c-4.5,8.3-36.9,67-61.4,62.9c-6.9-1.1-9.7-7.6-9-17.1c12.1,1.2,24.8-3.9,35-14.8
	c3.3-3.7,6.2-7.8,8.5-12.1c0.8-1.3,9.3-18.3,0.7-25.4c-7.8-6.4-18.2-2.8-18.2-2.8c-20.9,6.9-56.3,30.2-52.6,71.9
	c0,0,3.9,37.1,39.9,20.6c0,0,28.5-10.2,58.7-66.4l5.5,52.4c17.8-9.1,39.2-26.7,55.8-59.2c5.8,0,14.1-1.7,29.1-9c0,0.3,0,0.7,0.1,1
	c0,0,3.8,35,35.7,23.5c6.9-2.8,13.4-6.7,19.2-11.5c13.7-11.9,25.4-26,34.6-41.8c7-11.8,13.3-24,18.9-36.5c2.9,0.8,5.9,1.4,9,1.8
	c-10.7,17.7-27.8,52.8-2.8,65.3c0,0,18.3,10.3,44.9-11.3c-1.7,18.2-19.9,30.6-19.9,30.6c-30.2,21.5-80.4,41.6-157.4,48.2
	C178.8,377,150,449.1,150,449.1l7.4,7.4c15.4-35.7,56.8-52.2,92.5-36.9c11.9,5.1,22.1,13.4,29.6,23.9c1.4,1.1,2.7,2.2,3.9,3.4
	l2.9-3.4c0,0-23.9-42,144.9-71.4c50.6-9.7,87.9-25.7,113.7-43.7C589.9,299.1,571.6,254.2,571.6,254.2z M209.3,309.8L215,292
	l-42.2,14c5.8-27.7,14.6-51.1,36.4-63.7l-0.4-4.9c-14.6,1.7-43.5,12.9-58,74.9l-13.1,4c0,0-29.9,9.2-17.1,30.8l4-1.2
	c-0.7-1.8-2.5-8.9,7.4-12l15.2-4.9c-16.8,77.9-31.6,88-31.6,88c-6.7,6.3-18.6,9.5-26.3,5.2c-8.3-4.7-9.8-14.8-3.4-22.6
	c3.5-4.1,8.3-6.7,13.6-7.5c-6.8-4.3-14.6-6.7-22.7-6.8c-22.6-0.7-41.3,15.3-41.5,35.7C35,441.4,53,458.4,75.6,459.1
	c0,0,50,6.2,73.4-56c11.5-25.6,15.5-54.5,20.4-81L209.3,309.8z M95.7,323.5c20-1.1,35.4-16.6,34.4-34.7c-0.4-6.6-2.8-12.9-7-18
	c-0.9,4.5-3.4,8.6-7.2,11.3c-7.5,5.5-17.5,4.5-22.2-1.9c-4.4-5.8-1.5-15.8,4.7-21.4c0.6-0.7,22.2-22.5,90.8-22.7
	c73.8-0.4,82.3-60.6,82.3-60.6l-4.5,0.4c-24.9,39.1-97,31.4-155,55.2c-60,24.8-54.3,61.4-54.3,61.4
	C58.8,310.7,75.6,324.5,95.7,323.5L95.7,323.5z"/>
<path id="Ball_Outline" d="M159.5,484.3c0-34.5,28-62.5,62.5-62.5s62.5,28,62.5,62.5s-28,62.5-62.5,62.5S159.5,518.8,159.5,484.3
	L159.5,484.3z"/>
<path id="Ball_White" class="st1" d="M187.4,470.2c1,10.7,1.8,20.5-2.5,28.8c2.8,2.6,5.9,5,9.2,7c7.3-29,23.5-54.9,46.2-74.3
	c-16.3-5.5-34.3-3.4-48.8,5.9c-2.6,4.1-4.2,8.7-4.6,13.6C186.4,457.6,186.6,463.9,187.4,470.2z M175.3,504.2c2.8-0.6,5.3-2.4,6.7-5
	c-8.1-8.3-10.8-17.1-14.2-28.8c-2.8,11.1-2.2,22.7,1.8,33.4C171.4,504.4,173.4,504.5,175.3,504.2z M266.4,450.8
	c2.8,7.3,3.7,15.2,2.7,22.9c-1.4,7.9-6.2,14.7-13.1,18.8c-5.8,3.3-11.9,6.1-18.2,8.1c-10.3,3.6-20,7.4-23.7,14.7
	c16.9,5.8,36.5,8.5,48.6,5.7c0.7-0.1,1.5-0.4,1.9-0.5c2.2-2.7,4.2-5.6,6.1-8.6C281.5,492.5,279.9,468.5,266.4,450.8L266.4,450.8z
	 M211.8,528.6c-1.7-3.7-2-8-0.7-11.9c-5.4-2-10.7-4.4-15.7-7.3c-1.5,7.6-2.1,15.3-1.7,23.1c0.2,0.1,0.6,0.4,0.8,0.5
	c8.3,4.8,17.8,7.3,27.4,7.3C217.7,537.2,214.2,533.2,211.8,528.6z"/>
<path id="Ball_Red" class="st2" d="M183.2,497.1c3.5-7.5,2.8-17,1.8-26.9c-0.6-6.4-0.8-12.9-0.5-19.3c0.3-3.5,1.2-7,2.7-10.2
	c-5.7,4.4-10.4,10-13.8,16.3c-1.7,3-3.1,6.1-4.1,9.3l0.5,2.5C173.1,480.6,175.5,489.2,183.2,497.1z M196,507.2
	c5,2.9,10.3,5.5,15.8,7.5c4-8.4,14.3-12,25-16.1c6.2-2.1,12.2-4.7,18-7.9c6.3-3.9,10.7-10.2,12.1-17.5c1.7-9.3-1.5-19.7-5.2-28
	c-3.6-3.7-7.8-6.9-12.4-9.5c-2.1-1.2-4.4-2.3-6.7-3.2C219.6,451.8,203.2,478,196,507.2L196,507.2z M213,517.5
	c-1,3.3-0.7,6.9,0.7,10.1c2.8,5.1,7,9.4,12,12.4c13.6-0.9,26.3-6.8,35.8-16.5C249.3,526,229.9,523.3,213,517.5L213,517.5z
	 M193.4,508.2c-3.5-2.1-6.8-4.6-9.7-7.4c-1.8,2.9-4.7,4.9-8,5.7c-1.7,0.2-3.3,0.2-5,0c4.3,10.1,11.5,18.6,20.8,24.5
	C191,523.3,191.7,515.7,193.4,508.2L193.4,508.2z"/>
</svg>
