<?xml version="1.0" encoding="utf-8"?>
<!-- Generator: Adobe Illustrator 25.2.3, SVG Export Plug-In . SVG Version: 6.00 Build 0)  -->
<svg version="1.1" id="Layer_1" xmlns="http://www.w3.org/2000/svg" xmlns:xlink="http://www.w3.org/1999/xlink" x="0px" y="0px"
	 viewBox="0 0 600 600" style="enable-background:new 0 0 600 600;" xml:space="preserve">
<style type="text/css">
	.st0{fill:#AAAAAA;}
	.st1{fill:#FFFFFF;}
</style>
<path id="Outline_2_" class="st0" d="M180.6,231.8c-66.1,13.5-102.2,34.3-104.4,35.6l-8.3,4.9l3.6,8.9c5.1,12.5,10.4,24.4,15.8,36.1
	H54.7v131.2h107c16.2,23.6,33.6,46.4,52.2,68.2c44.1,51.6,77.5,77.2,78.9,78.2l6.7,5.1l6.7-5.1c1.4-1,34.8-26.6,79-78.2
	c18.6-21.8,36.1-44.6,52.3-68.2h107.8V317.2h-11.1h-22.3c5.4-11.7,10.7-23.6,15.8-36.1l3.6-8.9l-8.3-4.9
	c-2.2-1.3-38.5-22.2-105-35.7L180.6,231.8z"/>
<path id="Black" d="M506.8,328.3h-12.2l0,0c3-6.1,5.9-12.4,8.8-18.7c4.8-10.6,9.5-21.4,14.1-32.6c0,0-35.8-21-102.6-34.6l3.3-10.7
	l0,0l7.5-24.6l-7.9,6.3C429,157.8,399.9,102,348,79.2l-3.5-1.7C292.6,58.1,289.3,20,289.3,20s-12.5,23.6-6.4,44.5
	c1.7,5.7,4.1,11.1,7.2,16.1c-19.2-9.1-39.6-15.7-60.6-19.4C175.6,51.8,177.7,0,177.7,0s-49.5,65.2,4.8,118.9
	c-27.3-16.7-42.1-44.1-42.1-44.1s-9.2,49.5,14.5,78.7c4.5,5.6,8.3,11.6,12.7,17.3c7.5,9.7,14.2,33.9,14.1,43l-8.6-6.7l10.6,34.8
	l0.2,0.6l0,0l0,0c-7.1,1.4-13.8,3-20.2,4.6C110.3,260.3,81.9,277,81.9,277c7.3,17.9,14.9,35,22.8,51.3l0,0l0,0H65.8v109h101.6l0,0
	h0.1c7.9,11.6,15.7,22.5,23.4,32.8c1.6,2.2,3.2,4.3,4.8,6.4c2.3,3,4.5,5.9,6.8,8.7c1.4,1.8,2.8,3.5,4.2,5.2c2.4,3,4.8,5.9,7.2,8.8
	c1.3,1.5,2.5,3.1,3.8,4.5c2,2.4,4.1,4.8,6.1,7.1c1.6,1.8,3.1,3.6,4.6,5.4s3.2,3.7,4.9,5.5l2.9,3.2c2.5,2.7,4.9,5.4,7.3,7.9l2.5,2.6
	c2.4,2.6,4.8,5.1,7.1,7.5l2.2,2.3c2.3,2.3,4.5,4.6,6.7,6.7l2.1,2.1c2.1,2.1,4.1,4,6,5.8l1.9,1.8c1.2,1.1,2.3,2.2,3.4,3.2
	c0.7,0.7,1.4,1.3,2.1,2c1.6,1.4,3.1,2.8,4.5,4.1l1.9,1.7c1.3,1.1,2.5,2.2,3.6,3.2l1.8,1.5l2.7,2.3l1.7,1.4l1.4,1.2l1.8,1.5l1,0.8
	l0.7,0.5l1.1,0.8l0.3-0.2v-23.2c3.6,0,7.2-1.2,10.1-3.4c7.5-5.7,9-16.3,3.3-23.8c0.7-7.7,1.4-18.2,1.6-23l0.1-1
	c7.7-3.6,12.6-9.8,12.6-17.3c0-3.5-1.1-6.9-3.2-9.7c-0.8-1.5-1.8-2.9-3-4.1l9.6-67.1c1.5-1.6,3.4-3.7,5.7-6.4
	c4.7-5.4,8.9-11.3,12.6-17.5c-4.7,2.2-9.8,3.4-15,3.5c-2.9,0-5.8-0.5-8.5-1.6c-8-3.3-14-11.7-14.1-16.1v-0.1
	c-0.1-1.4,0.6-2.8,1.8-3.6c1.3-0.6,2.7-0.9,4.2-0.8c1.7,0,3.7,0.1,5.8,0.1c2.6,0,5.2-0.3,7.8-1h0.1c6.5-0.9,12.9-2.3,19.1-4.2
	c0.2-0.1,0.4-0.1,0.7-0.1c2.4,0.1,5.9,2.9,8.9,5.8s5.6,5.7,5.6,5.7l0.1,0.1v0.1c0.1,0.6,0.2,1.3,0.1,2c-0.6,7.6-2.2,15.2-4.8,22.4
	c-0.4,1.5-9.4,36.4-27.4,48.5c-0.4,0.3,4.6,73.8,6.3,99.1c2.3-2.3,4.7-4.8,7.2-7.4l0.6-0.7c2.7-2.8,5.5-5.7,8.3-8.8
	c0.2-0.2,0.3-0.4,0.5-0.5c5.9-6.3,12-13.2,18.4-20.6l0.6-0.7c3.1-3.5,6.2-7.2,9.3-11l1.2-1.5c3.1-3.8,6.2-7.7,9.4-11.7
	c0.4-0.5,0.8-1,1.2-1.5c3.3-4.2,6.6-8.4,9.9-12.9c8.2-10.8,16.5-22.4,24.9-34.8h102.5v-109h-27.3L506.8,328.3L506.8,328.3z"/>
<path class="st0" d="M396.4,143.5c0.5-3.1,0.6-6.2,0.3-9.3c6.4,11.1,10.8,23.3,13,35.9c-5.7,8-12.8,14.9-21.1,20.3
	c0.6-11.4,2.3-22.8,5.1-33.9C394.7,151.9,395.7,147.5,396.4,143.5z M230.9,360c0,0,24.1,10.7,46,12.6c1.1,0.1,2.3,0.2,3.6,0.2
	c8,0.4,16.6-1.3,15.4,7.7c-0.9,7.1-21.4,11.2-29.9,7.7c-3.2-1.3-2.5-7.1-1.5-11.6C251.9,374.5,240.2,368.7,230.9,360z M272.8,415.7
	c-6.3-0.6-5-2.8-3.4-7.8c-12.9-2.2-24.8-8.2-34.3-17.2c0,0,24.2,11.1,46.1,13.2c2.8-0.1,5.6-0.3,8.3-0.7c10.3-1.5,10.3-2.5,10.6,0.7
	C300.3,407.1,290.1,417.3,272.8,415.7z M300,460.8l-0.6,26.8c-10.4,0-13.9-6-13.9-6l-1.4-12.1C290.2,468.4,295.7,465.3,300,460.8z
	 M235,416.5c0,0,24.8,11.4,46.9,13.3c1.7-0.2,3.6-0.4,5.5-0.8c9.1-1.8,9-2.7,9.4,0.2s-8.3,12.5-23.8,11.7c-5.7-0.3-4.5-2.3-3.3-7.1
	C256.7,431.7,244.6,425.7,235,416.5z M273.9,463.5c-5.8-0.3-4.1-2.4-2.9-7.7c-9.5-2-18.3-6.6-25.3-13.3c0,0,19.3,8.8,36.7,10.4
	c1.6-0.2,3.3-0.4,5.1-0.8c8.6-1.7,8.5-2.5,8.9,0.2C296.8,455.1,288.6,464.2,273.9,463.5z M280.9,494.1c0-1.7,0.7-3.4,1.9-4.7
	c3.6,5.8,7.6,7.9,16.5,7.9c0,0,5.9,3.7,0,7.6C289.1,504.8,280.9,500,280.9,494.1z M304.8,546c-0.1,3-2.6,5.3-5.6,5.1
	c-3-0.1-5.3-2.6-5.1-5.6c0-1.7,0.9-3.3,2.3-4.3l-2-27.1c1.7,0.2,3.3,0.3,5,0.3s3.5-0.1,5.2-0.4l-2,27.1c1.4,1,2.2,2.6,2.2,4.3
	C304.8,545.7,304.8,545.9,304.8,546z M299.2,359c-54,0-97.8-17-97.8-38c0-1,0.2-2,0.4-3c2.1-6.8,8.8-6.4,12.4-5.6
	c10.1,16.2,44.2,28.1,85,28.1C299.2,340.5,312.1,348.5,299.2,359z M199.6,260l12.7,17.2l25.4-26.2l28.3,35.2l33.3-32.3l-0.1,13.3
	l-34.1,33.9l-7.8-9.7L245,316.8l-7.9-50.6v-0.1l-27.2,27.3L199.6,260z M314.3,253.8L299.4,239v-0.1l-0.1,0.1l-0.1-0.1v0.1
	l-32.4,32.4L238.5,236l-12.2,12.6l-33.6-26.2c-2.1-32-12.1-47.4-12.1-47.4l5.3,3.4C223,203.7,267,217.2,312,217.2
	c9.8,0,19.6-0.7,29.4-2.1C338.6,230.3,326.9,243.5,314.3,253.8z M359.6,236.7l-27.8,34.6l-12.3-12.2c17.5-14.4,27.5-29.9,29.4-45.2
	c4.9-0.9,9.7-2.1,14.5-3.5C362.9,219.2,361.6,228,359.6,236.7z M349.2,206.1c-0.1-2-0.3-4-0.7-6c-5.4-28.4-29.4-33.6-62.7-40.9
	c-3.7-0.8-7.4-1.6-11.3-2.5c-25.3-5.7-65-24.1-88.8-51c-18-20.2-23.3-48.7-13.8-74.1c1.1-2.9,2-4.6,2-4.6
	c2.7,20.2,25.6,40,54.6,43.5c20.2,2.7,39.9,8.7,58.2,17.7c28.1,14.5,70,44,75.8,93.5c0.8,6.9,1.2,13.7,1.2,20.6
	C358.9,204,354.1,205.2,349.2,206.1z M315.6,97.4c-33.3-29.8-25.3-53.8-25.3-53.8c10.4,23.6,33.3,33.5,53.9,43.5
	c6.2,2.7,12.2,6,17.9,9.8c7.4,4.9,14.1,10.7,20.1,17.2c4.9,7.7,8.9,17.4,7,28.1c-0.7,3.9-1.6,8.2-2.6,12.7
	c-2.7,12.2-5.7,26.4-5.2,39.9c-3.4,1.8-6.9,3.5-10.4,4.9c-0.1-6.3-0.5-12.5-1.2-18.7C365.9,149,347.2,120.1,315.6,97.4z
	 M372.5,248.7l-6.5-6.6c2.9-11.2,4.5-22.7,4.9-34.3c3.8-1.4,7.6-3.1,11.2-4.9c1.4,10.5,6.8,20,14.9,26.7L372.5,248.7z M406.6,222.1
	l-3.6,2.8c-8.1-6.3-13.2-15.7-14-25.9c8.2-5,15.6-11.2,22-18.4c0.2,3,0.4,6.1,0.4,9.1C411.4,200.7,409.8,211.6,406.6,222.1z
	 M148.4,100.7c17.1,23.9,62.5,49.3,117,61.2c2.6,0.8,5.2,1.4,7.5,2c3.9,0.9,7.7,1.7,11.4,2.5c34.5,7.5,52.7,12.5,57.1,35
	c0.4,1.9,0.6,3.9,0.6,5.9c-39,5.8-106.3,3-165.3-44.8C143.9,132.9,148.4,100.7,148.4,100.7z"/>
<path id="White" class="st1" d="M193.4,346.1v10.4h-7.1v52h7.1v10.3h-25.5l-37-33l0.4,33H99.2v-10.3h7.1v-52h-7.1v-10.4h25.7
	l36.8,31.5v-31.5H193.4z M500.7,346.1h-7.4l0,0h-24.5v25.7l-30.5,6.2v-31.9h-24.5l0,0h-7.5v10.4h7.5v38.4l54.9-11.6v25.2h-54.9v10.3
	h79.4l0,0v-10.3v-52h7.4v-10.4L500.7,346.1L500.7,346.1z M399,260l-12.5,17l-15.3-15.4L360.9,251l-0.1,0.1l-0.1-0.1v0.1l-28.1,35
	l-33.2-32.3l-0.3,68.4l24.8-30.8l9.5,9.6l25.9-32.3l-3.4,44.2l25.3-27.2l7.6,7.6L399,260z M299.4,487.6l0.6-26.8
	c0,0,12.1-9.9-1-19.1c0,0,15.7-12,1.8-20.8c0,0,18.4-11.7,7.6-25.7c0,0,7.5,8.3,13.8,9.8l-8.9,76.6
	C310,485.9,304.7,488.2,299.4,487.6 M317.6,494.1c0-1.7-0.7-3.4-1.8-4.7c-3.9,5.8-7.6,7.9-16.5,7.9l0,0c0,0,5.9,3.7,0,7.6
	c0.4,0,0.9,0,1.3-0.1c2.1-0.2,4.1-0.5,6.2-0.9C313.1,502.2,317.6,498.4,317.6,494.1z M348.6,509.3c20.4-22.8,39.5-46.8,57.2-71.9
	h-13.3c-15.8,21.9-31.1,40.9-45.1,56.9L348.6,509.3z M251,493.2c-13.7-15.8-28.7-34.4-44.2-55.8h-13.3
	c17.5,24.8,36.3,48.5,56.5,71.1L251,493.2z M485,285c-24.7-9.8-50.4-17.2-76.5-22.1l-3.2,10.5c24,4.5,47.5,11.1,70.4,19.6
	c-5.5,12.3-11.2,24-17,35.4h12.2c5.8-11.7,11.6-23.6,17.1-36.1l2.3-5.1L485,285z M193.3,273.5l-3.2-10.5
	c-25.9,4.9-51.3,12.3-75.9,22l-5.2,2l2.3,5.1c5.5,12.5,11.3,24.5,17.1,36.1h12.2c-5.8-11.5-11.5-23.1-17-35.4
	C146.2,284.5,169.5,278,193.3,273.5z M397,321c-0.1-0.9-0.2-1.7-0.4-2.6c-2-7.2-8.7-6.9-12.4-6.1c-10,16.2-44.2,28.1-85,28.1
	c0,0,12.8,7.9,0,18.5l0,0C353.2,359,397,342,397,321z"/>
</svg>
