<?xml version="1.0" encoding="utf-8"?>
<!-- Generator: Adobe Illustrator 25.2.3, SVG Export Plug-In . SVG Version: 6.00 Build 0)  -->
<svg version="1.1" id="Layer_1" xmlns="http://www.w3.org/2000/svg" xmlns:xlink="http://www.w3.org/1999/xlink" x="0px" y="0px"
	 viewBox="0 0 600 600" style="enable-background:new 0 0 600 600;" xml:space="preserve">
<style type="text/css">
	.st0{fill:#AAAAAA;}
	.st1{fill:#FFFFFF;}
</style>
<path id="Outline" class="st0" d="M0,247.6c0.1,53.2-0.3,45.5,5.8,83.6c4.4,21.3,10.4,41.2,19.2,61.1
	c46.7,107.5,153,177.1,269.8,179.1c124.5,2.1,238.7-73,284.1-189.2c17-41.4,22.5-89.9,20.8-134.3l-300-219.4L0,247.6z"/>
<path id="Dark_Green" d="M7.9,251.8c0,0,0.6,41.1,0.9,43.5c0.7,6.5,1.4,14.3,2.6,21.3c4.9,32.8,16.1,65.3,32,94.4
	c49.9,91.7,146.8,151.1,251.5,152.4c113.8,2.4,219-63.2,268.3-165.5c12.3-25.5,21.1-53.9,25.4-81.9c1-7.5,2.3-18.1,2.8-26
	c0.3-3.7,0.5-38.1,0.5-38.1S300.3,38.7,300,38.7C299.6,38.6,7.9,251.8,7.9,251.8z"/>
<path id="Yellow" class="st1" d="M492.1,196.4c-0.2-0.9-1.2-1.9-5.5-5c-42.3-31-84.9-62.1-127.2-93.1
	c-15.5-11.5-33.7-24.6-49.1-35.9c-4.8-3.3-7.5-6-10.8-7.2c-0.3,0-1.7,0.9-3.1,2c-61.9,45.7-127.2,92.6-188.8,138.6
	c0.7,102.5-2.7,70.8,3.3,113.4c1.4,6.9,2.5,11.4,4.6,18.5c5.9,18.9,13.4,35.2,24.8,51.7C197.1,464,311.5,489,398.8,436.8
	c47.2-28,81.8-77.7,90.8-132c0.5-2.6,1.2-7.7,1.6-11.2c0.8-6.1,0.8-8.4,1-51.2C492.2,217.7,492.2,197.1,492.1,196.4z M431.7,396.9
	c-1.3,1.3-2.5,2.4-2.7,2.4c-2.1-1.6-9.8-10.4-11.8-12.9c-14.6-17.6-26.1-39.5-33.6-61.1c-1.9,0-10.9-0.4-10.7,0.3
	c0.7,4.6,4.7,13.9,6.3,18.3c9.5,22.7,25.1,45.2,41.6,63.3c-23.5,22.4-56.2,37.4-88,43.4c-1.9-0.3,0.3-8.5,0.3-12.5
	c3.1-26.9,8.9-59.5,14.8-86.2c1.5-7,5-21.2,6.1-26.5c0-0.2-2.3-0.3-10.7-0.3c-6.7,28.4-13,58.1-17.3,87.2
	c-1.9,12.4-3.5,26.3-4.7,37.9c0.5,3.5-5.2,2.4-9.8,3.1c-9.6,0.5-24.2,0.8-33-1.1c-1.9-1.1-0.7-4.2-1.8-10.6
	c-3.9-38-11.7-79.7-20.2-116.7c-1.6,0.1-12-0.4-10.6,0.7c1,4.2,4.9,21.2,6,26.4c6.3,30.9,13.2,67.2,15.1,98.4
	c-31.6-5.3-64.7-20.8-87.8-43.1c16.9-19.3,33.1-41.6,42.4-65.9c1.6-4.2,4.7-11.5,5.3-15.5c0-0.6-0.5-0.7-10.6-0.7
	c-9.3,26.8-24.9,54.8-45.8,74.3c-30.4-29.9-50.4-73.6-52-116.2c0.2-0.7,9.1-0.7,362.8-0.5C479.7,324.6,460.9,366.6,431.7,396.9z
	 M481.7,270.6L118,270.8c-0.5-1.7-0.2-15.8-0.2-35.2c0.1-18.4,0.3-33.8,0.4-34.3c0.1-0.6,3.5-3.3,11.4-9.1
	c14.7-10.3,26.7-20.2,40.1-28.7c13.2,12.3,24.6,28.8,33.4,44.8c4.1,7,7.5,16.4,10.8,22.9c0.2,0.2,1.9-0.1,3.7-0.4
	c2.5-0.8,5.2-0.4,6.2-1.7c-2.4-7.2-5.2-13.2-9-21c-8.3-16.4-17.6-30.5-29.8-44c-2.8-4-8.6-7-4.2-9.3c38.5-28.1,79.6-58.5,118.1-86.6
	c1.5-0.8,1.7,0.3,3.5,1.3c11.2,8.3,18.1,13.1,30.9,22.5c29,21.4,58.5,42.6,86.9,63.8c1.6,1.8-0.6,2.2-2.3,4.5
	c-4,4.2-4.4,4.9-8.8,10.3c-12.8,15.2-23.2,33.6-30.9,51.9c-1.2,4.4-4.3,6.9-0.2,7.4c5.7,0.5,7.5,3.9,10.1-4
	c8.9-21.6,21.7-41.8,37.8-58.7c5.3-5.4,3-4.2,9.6-0.1c14.1,10.2,24.6,18,38.9,28.4c4,2.9,6.9,5.3,7.1,5.7
	C481.8,201.8,481.9,217.6,481.7,270.6z M21.1,258.7c0,32.1,0,29.7,2.7,52.7c1.8,11.4,4.4,25.1,7.7,36.2c8.8,31.3,24,62.1,43.3,88.3
	c51,69.5,133.7,113.5,220.5,114.1c105.2,3.1,203.9-57.8,251.7-150.7c17-32.6,26.7-68.4,29.9-104.7c0.6-4.8,0.6-26.1,0.9-34.2
	l-71.9-52.9c-0.5,0-0.6,12.1-0.6,12.1l61.7,45.8c4.5,140.1-104.3,261.7-243.5,273.5c-100.6,8.5-197.1-39.5-251-124.9
	c-20.3-32.2-33.6-69-38.7-106.6c-2.1-13.1-2.2-28.9-2.4-43.7l62.2-45.5l-0.1-12.4C93.4,205.9,21.1,258.7,21.1,258.7z"/>
<path id="White" class="st1" d="M299.4,112.4c-0.9,12-3.7,61.3-4.7,73.7c-0.2,1.6-0.2,1.7-1.6,1.7c-0.8,0-1.7,0.2-2.1,0.5
	c-1-0.2-0.5,7.2-0.5,8.9l18.7,0.2c-0.3-11.5,1-9-4.1-9.8c-1.9-29.5-2.6-39.6-4.3-65.8c-0.3-5.7-0.8-10.8-0.9-11.4
	C299.8,109.7,299.6,110.2,299.4,112.4z M284,208.6c-6.5,0.8-24.8,1.3-28,6.6c-1,1.9-0.2,2.1,1.8,3.4c20.2,12.3,0.2,16.4-14,19
	c-13.6,2.8-31.8,5.6-44.2,9.6c-4.4,1.7-10,3-13.1,5.6c0,0.3,38.1,0.4,113.5,0.4s113.5-0.1,113.5-0.4c-10.7-6.3-24-8.5-37.1-11.3
	c-11.1-2.4-28.3-4.6-37.9-8.5c-6.4-2.5-6.1-6.6-1.3-10.8c1.4-1.5,6.6-4.2,7.5-5.6c0-0.3-0.5-1.1-1-1.7
	C335.1,206.5,296.5,208.3,284,208.6z M505,280.1c0,0.1-0.3,2.2-0.6,4.8c-0.4,3.6-0.4,4.7-0.1,5c0.3,0.2,4.6,3,9.5,6.2
	c5.6,4,12.1,6.6,12.2,8.8c0,0-4.5,1.4-9.9,3c-5.4,1.6-11,3.4-12.4,3.8c-1.7,0.5-2.6,1-2.6,1.4c-0.1,0.2-1,8.9-1,9.1
	c2,0.1,44.5,6.8,45.2,6c0.2-0.1,1.3-9.1,0.9-9.3c-0.1-0.1-4.6-0.8-9.9-1.5c-5.3-0.8-9.7-1.5-9.8-1.7c0.5-0.7,12.4-4.2,15.1-5l0.8-8
	c-4.8-3.2-11-6.7-13.8-9.1c-0.3-0.3,20.8,2.7,20.5,2.5c0.1,0.2,1.3-9.9,1.1-9.7c0,0-9.5-1.4-21-3C515.8,281.6,508.3,280.2,505,280.1
	z M86.5,281.2c-6.1,0.8-8.1,0.6-11.3,3c-4.4,4.1-5.1,13.3-7,18.8c-0.3,0.9-0.9,1.8-1.3,2c-0.9,0.4-5.4,0.7-7.1,0.9
	c-1.4-13.1-1.5-14-2.3-21.8c-4.5,0.7-9.7,0.2-9.8,1.8c0,0.4,0.7,7.5,1.4,15.6c0.8,8.2,1.5,15,1.6,15.1s4.4-0.2,9.6-0.7
	c8.1-0.8,9.7-1.1,11.3-1.9c6.6-3,7.1-15,9.3-20.8c0.8-1.5,1.8-1.8,3.5-1.8c1.3,0,1.5,0.1,1.7,1c0.3,1.7,1.7,16.3,2,20.5
	c2.3,0,7.9-0.6,9.6-0.9c0.5-0.4-2.2-26.2-2.7-31.6C93.7,280.6,90.2,280.9,86.5,281.2z M204,301.5c-3,2.3-9.6,6.4-11.6,8.3
	c-5.5,0.2,220.4,0.2,214.9,0c-0.6-1.4-3.2-2.4-6.7-5c-4.4-3-6.4-4.4-9.2-6.4l-183.1,0.1L204,301.5z M276.7,441.4
	c0.5,5.3,1,9.9,1,10.2c0,0.5-0.5,0.5-3.2,0.3c-2.3-0.3-6-0.6-7.4-1.6c-0.2-4.5-1.7-17.6-2.4-23.4c-2.8-23.4-8-51.9-12.9-75
	c-1.1-5.2-4.9-22.2-6-26.4c-0.2-0.6,0.2-0.7,10.6-0.7C265,361.4,272.8,403.6,276.7,441.4z M100.6,330.2c-5.3,1.8-11.9,4.4-21,7.8
	c-12.1,5-18.6,4.5-19.7,15.5c0,2.2,0.4,3.6,3.5,12.1c2,5.3,3.7,9.8,3.8,10.1c-0.6,1.2,9.5-2.9,9.3-2.9c-0.2-1.7-5-13.7-5.6-15.5
	c-2.8-5.5,2.4-6.7,6.2-7.7c0.4-0.2,4.2,11,4.6,10.8c0.1,0.2,8.9-3.2,8.9-3.2c0.2,0-3.9-11-3.8-11c0.2-0.6,6.7-2.8,7.1-2.9
	c1.6-0.6,2.5,5.1,4.9,10.6c3.4,9.2,3.5,9.4,4.5,9.1c0.6-0.1,7.7-2.8,8.1-3.4C111.8,360,100.6,329.7,100.6,330.2z M516.7,373.5
	c-0.7,1.5-1.4,2.8-1.4,3c-0.3,0.2,12.4,6.1,12.2,6c0.2-0.1-3.9,8.7-3.9,8.6c-6.6-2.7-21.7-9.8-30.9-14c-6.8-3.2-12.5-5.9-12.5-6
	c0.9-2.1,10.3-21.6,11.4-23.9s2-3.7,2.2-3.6s5,2.3,10.4,4.8c11.5,5.6,12.5,4.8,15.8,12.7c3.2,0.1,16.4,0.2,17.3,0.4
	c0.1,0.1-0.8,2.3-4.3,9.4l-15.2-0.2L516.7,373.5z M509.8,363.1c0.1-2.3-9.7-5.7-11.1-6.5c-0.2,0-1.2,0.9-1.1,1.2
	c0.3,0-4.3,9.1-4.1,9c-0.1,0,12.3,5.7,12.2,5.5C506.1,372.2,510.5,363.3,509.8,363.1z M343.2,325.3c-9.5,39.6-18.2,84.2-21.9,124.9
	c-0.1,1,0,1.9,0.2,2c1.4,0.1,6.8-0.6,8.4-1.1c3-0.7,1.8-0.4,2.2-3.5c2.8-29.9,9.2-66,15.8-95.8c1.5-6.9,4.9-21.3,6.1-26.5
	C354.2,324.8,342.9,324.7,343.2,325.3z M132.9,395.4c-1.9-2.9-10.2-15.7-12.5-18.1c-3,1.5-33.6,23.2-36.9,25.4
	c-1.1,0.8-2,1.6-1.9,1.9c-0.1,0.2,5.1,7.8,5.3,7.8c0.1,0,2.6-1.6,5.5-3.6s5.5-3.7,5.7-3.8c0.4-0.2,6.8,9,6.5,9.2
	c0,0.3-0.4,0.8-0.9,1.1c-0.4,0.5-9.7,6.4-9.7,7.2c0.3,0.6,4.2,6.3,5.3,7.9c3.6-2.5,28.8-19.6,31.4-22.2c0.7-0.8,1.7-2.2,2.1-3.2
	C133.9,403.3,133.9,397.1,132.9,395.4z M123,401.3c0.1,0.6-9.5,7.3-10,7c-0.1-0.1-6.2-9-6-9.4c-0.2-0.3,10.6-7.8,10.8-7.7
	c0.2,0,1.5,1.7,3,3.9C122.8,398.6,124.1,399,123,401.3z M505.7,417.9c-5.3-4.7-9.4-8-17.4-14.8c-9.4-7.2-10.1-10.3-18.5-9.6
	c-1.7,0.3-3.8,1.3-5,2.3c-0.4,0-14,16.2-14,16.5c0,0.2,6.4,5.7,14.2,12.4c10.4,8.8,14.8,12.4,16.3,13c9.5,2.8,11.9-1.3,19.2-9.8
	c3.7-4.3,6.7-8,6.8-8.1C507.3,419.6,506.6,418.8,505.7,417.9z M490.4,424.3c-4.5,5.3-4.3,5.1-10.3,0.3c-3-2.5-13.5-11.1-15.6-13.5
	c0.2-0.6,5.4-6.9,6.2-7.1c3.1-1.1,4.1,1.3,9.1,5c4.6,3.9,10.5,8.7,13.4,11.5C493.4,420.7,492.1,422.4,490.4,424.3z M147.1,419.2
	c-1.5,1.8-2.8,3.5-3,3.8c-0.7,0.5,7.3,6.4,7.3,6.8c0.4,0.5-0.1,1.3-3.5,5.5c-2.6,3.3-17.1,20.7-19,23.7c0.2,0.8,5.8,5.2,7.3,6.4
	c5.2-6.6,18.2-22.3,23.3-28.7c0.1-0.8,8.7,6.7,8.8,6.2c0.2,0.2,6.4-7.4,5.9-7.7c-0.1-0.1-5.6-4.6-12.1-9.9s-12-9.6-12.1-9.6
	C149.9,415.8,148.6,417.3,147.1,419.2z M425.3,435.4c-6.8,5.1-12.5,9.5-12.5,9.8s1.2,2.2,2.7,4.2c1.6,2.2,2.8,3.5,3.1,3.3
	c0.7-0.5,6.8-5.1,8.5-6.4c4.5,6.4,17.1,23.8,22.1,29.8c0.2,0.2,7.9-5.5,7.7-5.9c-1.1-2-17.5-23.8-19-25.9c-1.4-1.9-2.6-3.6-2.6-3.8
	c-0.3-0.2,8.6-6.5,8.4-6.8c0-0.1-5.2-7.8-5.6-7.7C437.9,426.2,432.2,430.3,425.3,435.4z M188,449.9c-0.6,1.4-2.5,5.5-3.4,7.4
	c7.4,3.6,9.6,4.7,9.6,4.8c-2,4.5-9.2,19.5-12,25.3c-2.1,4.4-3.8,8.1-3.8,8.2c-0.1,0.2,8.5,4.2,8.6,4.1c5.1-8.8,11.6-24.1,16.4-33.5
	c7.4,3.6,9.7,4.6,9.8,4.5c0.1,0,1.1-2,2.1-4.2c1.1-2.3,1.9-4.3,1.9-4.4c0.5-0.1-28.3-13.7-28.1-13.4
	C188.8,448.5,188.4,449,188,449.9z M387.1,458.1c-3.6,1.6-20.3,8.5-23.2,9.8c0.2,0.9,6.2,15.3,7.1,15.9c5.1,4.5,7.6,3.9,15.9,3.5
	c7.9-0.2,7.6-1.8,10.2,3.4c0.7,1.7,1.3,3.2,1.2,3.4c-3.7,2.2-15.9,6.9-19.8,8.8c-0.1,0,3.5,8.9,3.7,8.9c0.1,0.2,4.8-1.6,10.4-4
	c7.5-3.5,15-5.6,18.9-8.5c-0.1-0.3-1.5-3.8-3.2-7.8c-4.9-13-7.1-15.2-21.1-14c-7,0.2-7.5,1.4-9.6-2.1c-0.6-1.3-0.7-1.7-0.2-2
	c-0.1-0.2,19.7-8.5,19.5-8.9c0-0.2-0.8-2.3-1.7-4.5c-1-2.3-2-4.1-2.2-4.1C392.7,455.8,390.1,456.9,387.1,458.1z M238.2,470
	c-1,4.4-5.2,22.5-6.4,27.8c-1.7,8.1-2.2,8-0.2,13.3c3.3,5.7,6.5,6,13.9,7.8c5,1.1,7,1.7,9.8,2.2c1.6-6.8,2-9,1.9-9.2
	c-0.1-0.2-3.4-1.1-7.4-2c-6-1.4-7.5-1.9-8.2-2.6c-1.9-2.2,0.3-5.8,1.6-13.2c1.8-8.1,4.2-16.8,4.9-22.1c-0.8-0.4-7.2-1.9-8.2-2.1
	C238.6,469.4,238.4,469.5,238.2,470z M514.8,481.3l-3.1,3.2C518.7,477.8,520,475.9,514.8,481.3z M286.4,484
	c-0.3,5.8-0.1,25.1,0,33.6c3,5.2,3.1,5.3,7.1,7.5c0.3,1.3,15.7,1.1,20,1.2v-10c-19.4-0.3-17.1,1.7-17.3-8.9H308l-0.2-9.8l-11.7-0.2
	l0.2-8.6l17.5,0.2v-10c-14.3-0.1-17.3-0.2-27.2-0.5L286.4,484z"/>
<path id="Green" class="st0" d="M306.2,324.7l-10.1,0.2c-5,12.2-7,17-7.7,18.5c-0.6,1.5-1.3,3.1-1.5,3.7s-1,2.4-1.7,4.2
	c-0.8,1.8-1.8,4.4-2.4,5.8c-0.5,1.4-0.9,2.7-0.8,3c0.2,0.3,1.7,0.5,6,0.5c5.1,0,5.8,0.1,6,0.7c0.1,0.4-0.7,5-1.9,10.3
	c-1.2,5.3-2.9,12.7-3.8,16.5s-1.8,8-2.1,9.2c-0.3,1.3-0.5,2.6-0.5,3.1c0,0.7,0.1,0.7,0.5,0.1c0.3-0.3,0.8-1,1.1-1.5
	c0.4-0.5,2.4-3.6,4.6-6.8c2.2-3.2,4.1-6.2,4.3-6.5c0.2-0.3,2.6-4,5.4-8.1s5.3-8,5.7-8.5c0.4-0.5,3.6-5.4,7.2-10.8s6.4-10,6.3-10.1
	s-2.9-0.3-6.1-0.3c-3.6,0-6.1-0.2-6.2-0.4c-0.1-0.2,0.5-2,1.4-4s2.4-5.6,3.5-8s2.4-5.6,3.1-6.9c0.7-1.4,1.1-2.9,1.1-3.3
	c-0.1-0.4-0.4-0.8-0.7-0.8C316.6,324.4,311.8,324.5,306.2,324.7z"/>
</svg>
