<?xml version="1.0" encoding="utf-8"?>
<svg version="1.1" id="Layer_1" xmlns="http://www.w3.org/2000/svg" xmlns:xlink="http://www.w3.org/1999/xlink" x="0px" y="0px"
	 viewBox="0 0 600 600" style="enable-background:new 0 0 600 600;" xml:space="preserve">
<style type="text/css">
	.st0{fill:#AAAAAA;}
	.st1{fill:#010101;}
</style>
<path id="Yellow" class="st0" d="M554.1,278.3H443v-90.5l52-52c-9.4-11.1-19.6-21.4-30.8-30.8l-52,52l-29.7-29.7h-60.8V45.9
	c-7.2-0.6-14.4-0.9-21.8-0.9c-7.3,0-14.6,0.3-21.8,0.9v81.4L158,127.4L135.7,105c-11.1,9.4-21.4,19.7-30.8,30.8l73.3,73.3v69.3H45.9
	c-0.6,7.2-0.9,14.4-0.9,21.8c0,7.3,0.3,14.6,0.9,21.8h132.3v69l-14.8,14.8L105,464.3c9.4,11.1,19.7,21.4,30.8,30.8l22.4-22.4h120.1
	v81.5c7.2,0.6,14.4,0.9,21.8,0.9c7.3,0,14.6-0.3,21.8-0.9v-81.5h60.9l29.6-29.6l52,52c11.1-9.4,21.4-19.7,30.8-30.8l-52-52v-90.5
	h111.1c0.6-7.2,0.9-14.4,0.9-21.8C555,292.7,554.7,285.4,554.1,278.3 M347.1,374.7l-7.6,7.6h-68.4v-37.1l68.5-0.1l7.5,7.5V374.7z
	 M347.1,247.2l-7.6,7.6h-68.4v-37.1l68.5-0.1l7.5,7.5V247.2z"/>
<path id="Black" class="st1" d="M300,0C134.3,0,0,134.3,0,300s134.3,300,300,300s300-134.3,300-300S465.7,0,300,0 M300,555
	C159.2,555,45,440.8,45,300S159.2,45,300,45s255,114.2,255,255S440.8,555,300,555 M366,382.6l-18.6,18.6h-95.2v-74.9l95.2-0.1
	l18.6,18.6V382.6L366,382.6z M366,255.1l-18.6,18.6h-95.2v-74.9l95.2-0.1l18.6,18.6V255.1L366,255.1z M424.1,195.6l-49.4-49.4
	L177,146.3v34.8l20.1,20.1v197.7l-20.1,20v34.8h197.8l49.3-49.3v-74.8L394.5,300l29.6-29.6V195.6L424.1,195.6z"/>
</svg>
