<svg version="1.1" id="Layer_1" xmlns="http://www.w3.org/2000/svg" xmlns:xlink="http://www.w3.org/1999/xlink" x="0px" y="0px"
	 viewBox="0 0 600 600" style="enable-background:new 0 0 600 600;" xml:space="preserve">
<style type="text/css">
	.st0{fill:#FFFFFF;}
	.st1{fill:#AAAAAA;}
</style>
<g id="Outline">
	<circle class="st0" cx="300" cy="300" r="300"/>
</g>
<path id="Yellow" class="st1" d="M547.5,278.9H439.3v-88.1l50.6-50.6c-9.2-10.8-19.1-20.8-30-30l-50.6,50.6l-28.9-28.9h-59.2V52.5
	c-7-0.6-14-0.9-21.2-0.9c-7.1,0-14.2,0.3-21.2,0.9v79.3l-117,0.1L140,110.1c-10.8,9.2-20.8,19.2-30,30l71.4,71.4V279H52.5
	c-0.6,7-0.9,14-0.9,21.2c0,7.1,0.3,14.2,0.9,21.2h128.9v67.2L167,403l-56.9,57c9.2,10.8,19.2,20.8,30,30l21.8-21.8h117v79.4
	c7,0.6,14,0.9,21.2,0.9c7.1,0,14.2-0.3,21.2-0.9v-79.4h59.3l28.8-28.8L460,490c10.8-9.2,20.8-19.2,30-30l-50.6-50.6v-88.1h108.2
	c0.6-7,0.9-14,0.9-21.2C548.4,292.9,548.1,285.8,547.5,278.9 M345.9,372.8l-7.4,7.4h-66.6V344l66.7-0.1l7.3,7.3L345.9,372.8
	L345.9,372.8z M345.9,248.6l-7.4,7.4h-66.6v-36.1l66.7-0.1l7.3,7.3L345.9,248.6L345.9,248.6z"/>
<path id="Black" d="M300,7.8C138.6,7.8,7.8,138.6,7.8,300S138.6,592.2,300,592.2S592.2,461.4,592.2,300
	S461.4,7.8,300,7.8 M300,548.4C162.9,548.4,51.6,437.1,51.6,300S162.9,51.6,300,51.6S548.4,162.9,548.4,300S437.1,548.4,300,548.4
	 M364.3,380.5l-18.1,18.1h-92.7v-73l92.7-0.1l18.1,18.1V380.5L364.3,380.5z M364.3,256.3l-18.1,18.1h-92.7v-73l92.7-0.1l18.1,18.1
	V256.3L364.3,256.3z M420.9,198.3l-48.1-48.1l-192.6,0.1v33.9l19.6,19.6v192.6l-19.6,19.5v33.9h192.7l48-48v-72.9L392,300l28.8-28.8
	v-72.9H420.9z"/>
</svg>
