<svg version="1.1" id="Layer_1" xmlns="http://www.w3.org/2000/svg" xmlns:xlink="http://www.w3.org/1999/xlink" x="0px" y="0px"
	 viewBox="0 0 600 600" style="enable-background:new 0 0 600 600;" xml:space="preserve">
<style type="text/css">
	.st0{fill:#AAAAAA;}
	.st1{fill:#FFFFFF;}
	.st2{fill:#555555;}
</style>
<path id="Grey" class="st0" d="M598.6,225c-8.2-57.3-58.3-75.1-88.4-80.7l25.8-16.9c0,0-134.5-29.2-308.6,25.8
	C68.4,203.3-11.9,282.1,1.4,375c8.2,57.3,58.3,75.1,88.4,80.7L64,472.6c0,0,134.5,29.2,308.6-25.8
	C531.6,396.7,611.9,317.9,598.6,225"/>
<path id="White" class="st1" d="M590.6,227.5c-10.9-75.8-104.4-77-104.4-77l27-17.8c0,0-127.7-20.7-284.6,28.8
	C90,205.3-4.2,277.3,9.4,372.5c10.9,75.8,104.4,77,104.4,77l-27,17.8c0,0,127.7,20.7,284.6-28.8C510,394.7,604.2,322.7,590.6,227.5"
	/>
<path id="Red" class="st2" d="M576.1,232.1c-13.9-96.7-163.7-76.2-241.1-51.8c-41.5,13.1-68.6,26.4-68.6,26.4
	c140.4-50.2,238.9-14.4,238.9-14.4c-46.6-3.3-90.4,11.8-90.4,11.8s47.1,9.5,53.3,53.2C476.4,315,427.3,381,276,428.8
	c-82.5,26-151.9,30.2-151.9,30.2s97.9,14.4,245.7-32.3C506.5,383.5,587.7,313.8,576.1,232.1 M300.2,356.1c42-13.3,77.6-33,96.8-51.9
	c10.6-10.4,16.2-20.6,14.9-29.2c-0.5-3.3-1.9-6.2-4.2-8.7c-14.6-15.9-63.8-15.7-120.1,2.1c-65.2,20.6-115.2,56.9-111.8,81.1
	C179.3,373.8,235,376.7,300.2,356.1"/>
<path id="Black" d="M230.2,173.3C93.5,216.5,12.3,286.2,24,367.9c13.8,96.7,163.7,76.2,241.1,51.8c41.5-13.1,68.6-26.4,68.6-26.4
	c-140.4,50.2-238.9,14.4-238.9,14.4c46.6,3.3,90.4-11.8,90.4-11.8s-47.1-9.5-53.3-53.2C123.6,285,172.7,219,324,171.2
	c82.5-26.1,151.9-30.2,151.9-30.2S378,126.6,230.2,173.3 M278.8,232.2c-51.9,16.4-79.1,37.2-88.5,58.9l-18.9,43.7
	c0,0,22.9-41.1,115.6-70.3c69.9-22.1,112.6-16.5,120.6,1.8c2.3,2.5,3.8,5.4,4.2,8.7c1.2,8.6-4.3,18.8-14.9,29.2
	c-17.5,24.6-51,51.1-80.3,69c23.4-7.4,128.6-57.3,121-110.6C430.6,213.3,369.1,203.7,278.8,232.2 M289.7,296
	c-27.2,8.6-48.2,23.1-46.9,32.5c1.3,9.3,24.5,9.9,51.7,1.3s48.2-23.1,46.9-32.5C340,288,316.9,287.4,289.7,296"/>
</svg>
