<svg version="1.1" id="Layer_1" xmlns="http://www.w3.org/2000/svg" xmlns:xlink="http://www.w3.org/1999/xlink" x="0px" y="0px"
	 viewBox="0 0 600 600" style="enable-background:new 0 0 600 600;" xml:space="preserve">
<style type="text/css">
	.st0{fill:#AAAAAA;}
	.st1{fill:#555555;}
	.st2{fill:#FFFFFF;}
</style>
<path id="Grey" class="st0" d="M483.3,413.6L600,145.1c0,0-84.5,50-180.9,88.2L584.9,110l-104.4,18c-14.9-8.9-66.8-35.8-150.7-35.8
	c0,0-7.3,0.2-13.6,0.3c-3.1-9.1-17.7-51.9-17.7-51.9l-26.8,55.5C118.9,115.7,0,206,0,303.3C0,346.9,18.7,404.1,104.7,435L61.3,542.2
	L176,451.7c24.7,3.3,52,5.1,81.5,5.1c34.5,0,68.5-2.6,101.1-7.6l125.6,110.3l-42.8-129.3C441.3,430.1,466.6,422,483.3,413.6"/>
<path id="Blue" d="M366.6,253.9l188-130.4l-209,53.5l116.9-47.1c0,0-49.5-27.6-132.7-27.6c-7,0-13.9,0.2-20.8,0.5l-12.1-35.6
	l-65.1,134.9l-99.2,28.2l92.1-37.8l30.2-61.6l6.3-12.9l5.5-11.2C128.1,126.7,10.1,209.3,10.1,303.3c0,52.7,29,101,108.4,125.8
	l-41,89.4l95.6-77.3c24.7,3.6,52.8,5.5,84.5,5.5c39.7,0,74.6-3.4,104.3-8.2l106,94.2l-39.6-109.1c30.8-9.1,47.3-17.4,47.3-17.4
	l103-236.9c-0.1,0-98.4,57.3-208,95.2L366.6,253.9z M112.3,472.6l19.3-38.5c1,0,2,0.1,3,0.3c1.2,0.2,2.3,0.5,3.4,0.8l0,0
	c5.5,2,8.2,6.2,10.5,10.4L112.3,472.6z M179.8,295.4c-53.4-6.7-39.8-31.1-39.8-31.1l48,13.2L179.8,295.4z M351.7,270.7
	c-15.3,4.9-30.6,9.3-45.9,13.1c-11.6,2.9-23.1,5.4-34.4,7.4c-14.9,2.7-29.6,4.5-43.8,5.4c-5.8,0.4-11.5,0.5-17.1,0.5
	c-2.1,0-4.1,0-6-0.1c-1.5,0-2.9-0.1-4.3-0.1l15.6-31.1l-81.2-19.9l116-29l42.6-101.8l26.9,84.2l152.9-37l-130.1,85.1L351.7,270.7z
	 M396.7,447.7c1.4-4.4,3.4-7.2,6-9.3c2.7-2.2,6.1-3.6,10.2-5.2l0,0l17.9,47.7l-35.4-28C395.7,451.2,396.1,449.4,396.7,447.7z
	 M578.4,169.3L578.4,169.3L578.4,169.3L578.4,169.3z"/>
<path id="Red" class="st1" d="M315.7,380.5c-44.9-8.5-71.7-17.2-71.7-17.2s20.7-8,51.3-22.1c27.3-12.5,62.5-29.9,97.9-50.6
	c28.5-16.6,57-35.5,81.7-55.7c0,0-143.6,78.3-262.8,78.3c-80.1,0.1-117.1-37-117.1-62c0-74.2,130.7-112.7,159.9-120.3l6.3-12.9
	c-125.6,24.7-172.3,74-172.3,74s-42,25.4-57.9,72.5c-4,11.8-6,24.1-6,36.5c0,56.8,37.2,131,228,131c135.3,0,207.3-35.9,207.3-35.9
	c-22-0.6-44-2.1-66-4.3C364.5,388.8,337.9,384.7,315.7,380.5L315.7,380.5z M428.3,128.9c0,0-39.3-19.1-116-16.6l3.5,10.4
	C324.3,121.7,370.4,117.3,428.3,128.9"/>
<path id="White" class="st2" d="M188,355.2c47.3,0,86.8-8.4,107.3-13.9c27.3-12.5,62.5-29.9,97.9-50.6
	c-29.7,11.3-123.8,44.8-190.5,44.8C101.6,335.5,70,276.9,70,243.9c0-29.5,18.9-51.8,18.9-51.8S54.1,216.4,54.1,257
	C54.1,323.6,120.8,355.2,188,355.2 M226.9,386.4C39,386.4,30.7,286.3,31.1,264.6c-4,11.8-6,24.1-6,36.5c0,0,2,110.7,216.6,110.7
	c69.9,0,132.8-14.7,152.7-19.9c-29.9-3-56.5-7.2-78.7-11.4C300.8,382.9,271.2,386.4,226.9,386.4 M463.3,306.1
	c-6.1-12.8-23.9-15-39.8-5c-15.9,10.1-23.9,28.6-17.8,41.4s23.9,15,39.8,5C461.4,337.4,469.3,318.9,463.3,306.1 M304.3,353.9
	l-0.1-4.5l-4,5l-6.2,0.8l3.9,2.1l-3.9,5l6.6-3.5l4.6,3.3l-0.8-5.4l6.1-3.5L304.3,353.9z M352,331.3l-0.1-4.6l-4.1,5.1l-6.5,0.8
	l4,2.2l-4,5.2l6.9-3.6l4.7,3.4l-0.8-5.6l6.3-3.6L352,331.3z M386.6,335l-0.1-4.2l-3.7,4.6l-5.8,0.8l3.6,2l-3.6,4.7l6.2-3.3l4.3,3.1
	l-0.7-5.1l5.7-3.3L386.6,335z M338.8,361v-4.2l-3.8,4.6l-5.9,0.6l3.6,2.1l-3.8,4.7l6.3-3.1l4.2,3.2l-0.6-5.1l5.8-3.2L338.8,361z
	 M373.1,365.8v-4.2l-3.8,4.6l-5.9,0.6l3.6,2.1l-3.7,4.7l6.3-3.2l4.2,3.2l-0.6-5.1l5.8-3.2L373.1,365.8z M401.4,301.4l-0.2-5.4
	l-4.7,5.9l-7.5,0.9l4.6,2.6l-4.6,6l7.9-4.1l5.5,4l-1-6.5l7.4-4.2L401.4,301.4z M448.2,273.7l-4.3,7.8l8.9-5.9l8,4.1L458,272l8.2-6
	l-9.2,1.9l-1.6-6.4l-4.4,7.7l-9.2,2L448.2,273.7z M522.7,235.3l-11,1.3l-0.9-8.1l-6.4,9l-11.1,1.5l7.3,3.8l-6.1,9.2l11.3-6.3l8.7,6
	l-2.3-9.8L522.7,235.3z M464.4,369.9v-6.5l-5.9,7l-9,1l5.5,3.2l-5.8,7.2l9.7-4.8l6.6,4.9l-0.9-7.8l9-4.9L464.4,369.9z M481.7,327.3
	l-0.2-5.9l-5.3,6.6l-8.3,1.1l5.2,2.8l-5.2,6.7l8.8-4.6l6.1,4.4l-1.1-7.2l8.1-4.7L481.7,327.3z M496.5,285.3l-0.2-6.5l-5.8,7.2
	l-9,1.2l5.6,3l-5.6,7.3l9.6-5l6.6,4.8l-1.1-7.8l8.8-5.1L496.5,285.3z M416.5,365.2l-4.4,5.3l-6.8,0.7l4.1,2.4l-4.3,5.4l7.3-3.6
	l4.9,3.7l-0.7-5.9l6.7-3.7l-6.7,0.6L416.5,365.2z M293.3,129.4l-21.9,99.4l42.9-27.8L293.3,129.4z M448.2,175.2l-176.8,53.7
	c0,0,65,14.2,66.9,14.5C340.3,243.6,448.2,175.2,448.2,175.2 M305.8,283.8l-34.4-55v62.3C282.7,289.2,294.2,286.7,305.8,283.8
	 M204.5,297c2,0,3.9,0.1,6,0.1c5.6,0,11.3-0.2,17.1-0.5l43.8-67.7L220,266.6L204.5,297z M252.8,218.7l-95.3,25.7l113.8-15.6
	L252.8,218.7z M396.7,447.7l23.5,18.6l-17.5-27.9C400.1,440.5,398.1,443.3,396.7,447.7 M120,463.2l18.1-28c-1.1-0.4-2.3-0.7-3.4-0.8
	L120,463.2"/>
<path id="Red_1_" class="st1" d="M425.9,304.8c-12.9,8.2-19.7,23.4-15.2,34.1s18.7,12.7,31.6,4.5s19.7-23.5,15.2-34.1
	C452.9,298.6,438.8,296.6,425.9,304.8"/>
</svg>
