<svg version="1.1" id="Layer_1" xmlns="http://www.w3.org/2000/svg" xmlns:xlink="http://www.w3.org/1999/xlink" x="0px" y="0px"
	 viewBox="0 0 600 600" style="enable-background:new 0 0 600 600;" xml:space="preserve">
<style type="text/css">
	.st0{fill:#FFFFFF;}
	.st1{fill:#AAAAAA;}
	.st2{fill:#555555;}
</style>
<path id="Black" d="M596.8,379.8c0-21.8,21.4-103.1-134.5-225.9l26.2-5.8L475,103.5l-26,17.3v-27h-51
	C364.7,70,348.7,39.2,296.2,39.2c-21.9,0-44.9,4.4-49.9,4.4c-3.8,0-15.5-2.4-35.4-2.4c-57.3,0-62.6,42.7-55.4,57.8
	C80.1,150.6,42.7,187.8,42.7,201.2c0,5.2,3,11.9,3,21.7c0,21.2-45.8,67.9-45.8,92.6c0,23.1,29.4,24.7,29.4,24.7
	c1.6,6.8-9.8,29.4,0.5,41c-14.1,15.4,2.4,23,2.4,35.3c0,8.3-5.7,10.8-5.7,26.1c0,17.4,8.2,38.5,51.2,38.5c17,0,32.1-2.7,44.1-2.7
	c3.3,36.1,18.7,50.3,21.2,59.4c2,7.3,6.8,23,16.4,23c12.5,0,81.3-22.6,133.6-54.3c26.3,9.8,59.6,6.5,71.6,6.5c13.2,0,18.7,8,26.5,8
	c4.7,0,40.2-39.6,38-126.6c22.3,37.7,35.5,62.2,36.8,76.3c28.8-10.3,53.2-78.6,42.5-122.2c0,0,36.4,59.1,91.6,50.4
	C600,399,596.9,388.2,596.8,379.8L596.8,379.8z"/>
<path id="White" class="st0" d="M98.7,225c-1.9,6.8-0.5,14.7-0.1,16.8c21.3-1.3,30-5.2,30-5.2L98.7,225z M70.3,409.4
	c-2.3,1.2,2.8,13.5,1.1,22.3c1.4,4,7.3,18.7,17.3,13.5c10-5.1,1.6-18.5-0.9-22C79.6,419.5,72.7,408.2,70.3,409.4L70.3,409.4z
	 M153.8,262.2c-8.2,2.2-15.8,10.4-30.7,14.4c-4.2,1.1-8.6,1.7-13,1.7c2.2,3,9.6,4.7,9.6,4.7s-5.5,5-6,8.8c3.8-2.1,7.9-3.8,12.1-4.9
	c14.9-4,25.5-0.5,33.8-2.6c3.8-1,10.9-3,8.1-13.9C164.8,259.4,157.7,261.2,153.8,262.2 M360,215.3c-0.9-0.5-2-0.1-2.5,0.8
	c-7,14-13.2,27.2-18.5,39.6l-21.7,9.6c-1.2,1.9-2.4,3.8-3.4,5.5l23-10.2c-5.9,14.1-10.9,26.8-14.8,37.9l-28.9,11.7
	c-0.8,1.8-1.5,3.4-2,4.8l29.3-11.9c-9,25.6-12.7,41.2-12.7,41.6c-0.3,1,0.4,2,1.4,2.2c1,0.3,2-0.4,2.2-1.4c0.1-0.3,3.6-15.3,12.2-40
	l15.5,26.1l2.7-2.5V329l-16.6-28c4.2-11.6,8.6-23,13.3-34.4l12,20.7c0.4-1.7,0.8-3.5,1.3-5.3l-11.4-19.7
	c5.9-13.8,12.7-28.8,20.7-44.6C361.3,216.9,361,215.8,360,215.3L360,215.3z"/>
<path id="Yellow" class="st1" d="M366.8,162.3c5.3,0,4.6-7.1-0.3-7.1c-76.1,0-119.7,9.7-126.5,11.3c-4.2-37.3-25.7-49.2-25.7-73.4
	c0-9.4,6.2-11.3,11.3-11.3c17.7,0,31.1,20.8,55.8,20.8c23,0,27.9-16.2,41-16.2c19.7,0,11,52.2,45.8,52.2c11,0,18.2-4.4,18.2-4.4
	c4.7-2.6,0.2-8.2-3.8-6.1c0,0-7,3.6-13.9,3.6c-29.4,0-16.6-52.4-47.2-52.4c-14.6,0-19.5,16.2-40.6,16.2c-23.6,0-33-21.1-56.3-21.1
	c-13.3,0-18,8.9-18,17.8c0,26.7,26.4,47,26.4,83.7s-12.7,70.1-12.7,121.8c0,60.4,57.3,78.2,57.3,134.4c0,31.9,12.2,51.5,25.9,51.5
	c7.5,0,14.6-4.4,17.9-16.1c2,0.9,3.8,1.3,5.3,1.3c3.8,0,18.1-4.2,18.1-20.9c0-48-82.4-72.8-82.4-148c0-36.2,5.8-94,14.6-94
	c4.6,0,10.4,20.3,21.6,20.3c13.7,0,8.9-40,15.1-40c4.9,0,12.2,18.7,21,18.7c7.1,0,9.4-14.4,12.5-25.9c1.1-5.3-6.4-6.8-7.5-1.4
	c-1.9,8.4-5.9,19.7-5.9,19.7c-4.5-4.5-11.7-18.1-20.5-18.1c-14,0-11.9,39.8-15,39.8c-5.9,0-9.6-20.7-22.3-20.7
	c-16.4,0-21.2,57.1-21.2,102c0,79,82.5,105.4,82.5,146.8c0,10.4-7.6,14-10.6,14c-1.3,0-2.5-0.3-3.8-0.8c0.4-2.9,0.6-6.1,0.6-9.6
	c0-24.4-13.5-29-18.9-29c-5.5,0-8.5,4.7-8.5,12.6c0,10.6,9.3,22.2,18.4,29c-1.3,6.6-4.2,12.6-10.4,12.6c-11.9,0-18.6-27.5-18.6-43.9
	c0-59.4-57.3-76.6-57.3-135.9c0-50.5,12.7-82.9,12.7-116.6c0-2.1,0-4.1-0.1-6.1c7.9-1.9,57-12.9,126.2-11.3L366.8,162.3z
	 M303.6,434.9c0-4.2,1.1-5.7,2.2-5.7c6.7,0,9.7,13.4,9.7,18.7c0,1.5,0,4.2-0.2,7.3C308.8,449,303.6,439.5,303.6,434.9"/>
<path id="Face" class="st1" d="M250,433.7c13.3-20.5,5.7-55.9-19.7-46c-14.6-23.9-31.3-56.4-31.3-96.4c0-42.7,8.7-54,8.7-91.6
	c0-64.3-29.7-77.1-48.9-90c-45.4,30.8-105.7,73-105.7,95.4c0,6.7,3,12.8,3,19.3c0,23.2-45.2,68.3-45.2,90.1c0,8.2,6.5,15,17,15
	s37.3-3.9,47.3-4.9s11.1-5.9,11.1-8.5c0-6.5-10.4-15.6-18.1-15.6c-6.5,0-7.1,3.8-7.1,4.8c0,4.3,6.1,5.5,6.1,5.5
	c7.8-1.1,7.8,5.7,0.4,5.7c-6.1,0-12.9-4.5-12.9-12.3s6.3-9.8,10.9-9.8c19.5,0,30.7,17.6,27.5,28.9c24.2,12,23.5,29.7,19.6,29.7
	c-8.4,0-2.6-22.2-34.1-22.2c-8.8,0-27.4,2.6-31.7,3.1c-4.4,0.5-5.7,1.1-6.2,4.7s-5.1,16.6-5.1,24.6c0,11.9,7.9,12.7,12.9,12.7
	c13.3,0,35.8-3.2,35.8-8.5c0-3.4-5.7-2.4-7.8-2.4c-4,0-5.7-2.4-5.7-3.9c0-3.5,5.7-5.2,12.5-5.2c11.3,0,12.5,7.3,11.9,10.8
	c-1.3,7.6,11,5.8,11,21.9c0,1.8-0.1,6.4-4,6.4s-4-4.8-4-7.5s-4.4-6.9-8.2-6.9c-4,0-18.5,7.5-49.8,4.6c-12.3,15.5,2.2,16.6,2.2,32.3
	c0,17.5-5.3,16.4-5.3,27c0,21.2,23.3,26.8,46.5,26.8c48.2,0,102.4-11.2,121.5-45.6c-6.6,30.5-31.1,41.4-72.8,50.9
	c4.7,33.8,11.7,41.6,16.8,50.7s6.2,21.9,15.2,21.9c10.8,0,74.1-22.8,116.6-48.5L250,433.7L250,433.7z M131.9,142.7l22.6-16.9
	c1.2-0.9,2.8-0.9,4.2-0.1c16.6,11.5,25.7,22.9,26.1,23.4c1.2,1.5,1,3.7-0.5,4.9c-1.5,1.3-3.7,1-4.9-0.5c-0.1-0.1-8.2-10.1-22.6-20.5
	c-1.1,0.8-3,2.3-5.4,4c7.1,6,26.7,23.2,39.8,39.4c1.2,1.5,1,3.7-0.5,4.9c0,0,0,0-0.1,0c-1.5,1.2-3.8,1-4.9-0.5
	c-13.4-16.6-34.7-34.9-40.2-39.5c-2.2,1.6-4.2,3.2-5.7,4.3c12.9,10.6,22.2,21.6,22.6,22.1c1.5,1.7,0.7,4-0.5,4.9
	c-1.5,1.2-3.7,1.1-4.9-0.4c-0.1-0.1-10.9-13-25.1-23.9C130.3,146.9,129.9,144.3,131.9,142.7L131.9,142.7z M84.2,263.5
	c-3.8,0-1.3-9.5-1.3-13.1c-21.6-0.3-23.9-8,0.9-8.2c-0.7-3.2-3.3-16,0.6-22.8l-12.1-4.7c-9.8-4,8.9-10.4,6.2-16.3c0,0-5.6-4.3-5.6-9
	c0-4.8,7.5-10.5,21.9-10.5c26.9,0,34,23,55.5,23c4.2,0,15.4-2.2,15.4,2.3s-9,9.4-17.2,9.4c-18.8,0-33-14.1-42.4-14.1
	c-0.9,0-2.7,0.3-3.4,2l-2.6,5.9c-1.9,4.3,1,6,1,6l33.2,19.5c7,4.1,3.3,7.4-0.3,8.4c0,0-20.4,6.2-38.5,8.4
	C93.5,258.8,88.3,263.6,84.2,263.5L84.2,263.5z M189.8,367c-45.6-13.5-16.6-69.9,4.5-64.3C166.7,327.8,180.6,356.9,189.8,367
	 M95.6,197l-13.5,3.6c-2.8,0.7-3,2.4-0.3,3.7l10.2,4.9c1.1,0.5,2.3,0,2.8-1.1l3.6-8C99.5,197.7,98.2,196.3,95.6,197L95.6,197z"/>
<path id="Red_1_" class="st2" d="M241.2,390.9L241.2,390.9c-9.1-2.7-19.9,6.8-24.1,21.2c-4.2,14.4-0.2,28.2,8.9,30.9
	c9.1,2.6,19.9-6.9,24.1-21.3C254.4,407.3,250.3,393.5,241.2,390.9z M242.8,419.7L242.8,419.7c-2.6,9.2-8.9,15.4-14,13.9
	s-7-10.1-4.4-19.3c2.6-9.2,8.9-15.4,14-13.9C243.5,401.9,245.4,410.5,242.8,419.7z M76.5,397.2c-4.4-6.2-6.9-0.6-11.5,1.8
	c-4.7,2.4-10.7,1.1-8.2,8.3c2.7,7.8-3,23.7-0.5,28.5c2,3.8,6.3,5.4,9.8,3.6c3.2-1.6,4.7-4.4,5.3-7.7c1.6-8.8-3.4-21.1-1.1-22.3
	c2.3-1.2,9.3,10.1,17.5,13.9c3,1.4,6.2,1.8,9.4,0.2c3.6-1.8,4.8-6.3,2.8-10.1C97.4,408.6,81.3,404,76.5,397.2L76.5,397.2z
	 M141,291.7c-2.4,0.7-6.1,2.8-12.3,4.4c-6.1,1.6-13.8,1.6-15-3c-0.1-0.4-0.1-0.9,0-1.3c0.5-3.8,6-8.8,6-8.8s-7.3-1.6-9.6-4.7
	c-0.3-0.3-0.5-0.7-0.6-1.1c-1.3-4.6,5.5-8.4,11.5-10c6.1-1.6,10.4-1.6,12.8-2.2c4.9-1.3,9.1-4.6,8-8.5c-1.9-7.3-11.4-5.5-16.6-4.1
	c-26.1,6.9-31.8,17.5-29.9,24.9c2,7.4,10.4,9.3,10.4,9.3s-6.4,5.9-4.5,13.3c2,7.4,12.3,13.9,38.3,7c5.2-1.4,14.4-4.5,12.5-11.7
	c-1.1-4-6.3-4.7-11.2-3.4L141,291.7z"/>
<g id="Feather_2_">
	<path id="Green_1_" class="st2" d="M471,117.3l-20.4,13.6l4.7,15.5l23-5.1L471,117.3z M415,164.8c-1.5-1.3-2.8-2.8-3.9-4.6
		c-24.4,39.1-55.4,136.8-55.4,220.5s26.2,131.1,35.7,131.1c7.3,0,33-45.8,33-104.9c0-16.1-13.5-80.8-13.5-202.3
		C410.8,178.6,412.8,171.6,415,164.8L415,164.8z M428.8,133.3c-8.8,0-15.9,7.1-15.9,15.9s7.1,15.9,15.9,15.9s15.8-7.1,15.8-15.9
		S437.5,133.3,428.8,133.3"/>
	<path id="Yellow_1_" class="st0" d="M405.1,181.1c0,0-43.3,91.3-43.3,197.7c0,70.5,21.8,124.3,27.9,124.3c4.7,0,27-33.5,27-103.4
		C416.8,371.4,401.5,264,405.1,181.1 M386.6,242.6c0.8-2.8,4.7-3.6,4.2,1.2c-2.9,24.4-4.8,46.5-6.1,66.2l-15.2,11.8
		C373.5,291.9,380,264.8,386.6,242.6 M368.8,327.2l15.6-12.1c-1.1,17.8-1.6,33.5-1.7,47.2L365.5,374
		C365.8,358,367,342.3,368.8,327.2 M365.5,379l17.2-11.7c-0.1,22.2,0.7,38.5,1.5,48.8l-15.5,9.6C366.6,410.2,365.5,394.6,365.5,379
		 M407.4,455.6c-2,1.4-8.3,3.6-18.3-13.1c-5.9,17.7-12.9,12.8-15.4,10.1c-1.6-6.9-3-14.4-4.2-22.5l17.4-10.8l24.1,16
		C410,442.7,408.8,449.5,407.4,455.6L407.4,455.6z M413,399.7c0,11.3-0.6,21.7-1.6,31.1l-22-14.6c-0.7-9.6-1.5-25.1-1.5-46.2
		l24.7,17C412.8,392,412.9,396.2,413,399.7L413,399.7z M412.2,381.9l-24.3-16.8c0.1-13.6,0.5-29.4,1.6-47.2l18.3,13.5
		C409.5,351,411.2,368.5,412.2,381.9 M407.3,326.3l-17.5-12.9c1.3-20.5,3.3-43.7,6.3-69.6c0.9-7.3,5.1-3.6,5.3,0.3
		C402.4,271.6,404.8,300.5,407.3,326.3L407.3,326.3z"/>
</g>
<g id="Feather">
	<path id="Yellow_2_" class="st0" d="M439.3,167.2c-1.8,1-3.7,1.8-5.7,2.2c-1.6,0.4-3.1,0.6-4.8,0.6c-1.5,0-3-0.2-4.4-0.5
		c-1.9-0.4-3.8-1.1-5.5-2c-6.5,149.9,8.4,175.8,11.1,218.6c37.9,59.7,39.2,77.1,39.2,77.1s44.2-30.9,34-123
		c-1.5-2.1-2.8-4.3-4.2-6.5c-6.2-10-12-20.6-17.3-31.7c-2.2-9.3-4.8-18.6-7.5-27.8l0,0c-7.3-23.9-15.8-46.9-23.5-65.6
		C445.6,191.8,441.7,177.3,439.3,167.2"/>
	<path id="Blue" class="st2" d="M486.8,327.3c-1.3-8.2-3-16.7-5-25.2c-2.2-9.3-4.7-18.7-7.5-27.8c-7.2-23.9-15.8-46.9-23.5-65.6
		c-7.5-18.3-14-32.4-17.2-39.2c-1.5,0.3-3.1,0.6-4.8,0.6c-1.5,0-3-0.2-4.4-0.5c-1.4,16.2-6.5,85.1,3.3,147.2
		c14.1,89.1,47.8,121.3,47.8,121.3S498.9,404.5,486.8,327.3L486.8,327.3z M486.3,362.3l-26.8-14.4c-0.9-5.1-3-18.9-5.7-36.2
		l29.2,16.7C485,340.8,486,352.1,486.3,362.3 M474.9,291c2.9,10.9,5.4,21.8,7.3,32.5L453,306.7c-1.5-9.7-3.2-20.3-4.9-30.8
		L474.9,291z M440.4,194.1c9.8,22.7,23.4,56.7,33.1,91.6L447.4,271c-5.7-36.6-11.8-74.8-11.8-74.8
		C434.9,191.7,439.2,191.2,440.4,194.1L440.4,194.1z M426.6,198.7c0.2-4.8,4.6-5.2,5.1-1.8l11.7,73.8L427.9,285
		C425.1,252.7,425.6,221.1,426.6,198.7 M431.6,316.2c-1.4-8.7-2.4-17.5-3.3-26.3l15.8-14.6l5.1,32.1l-16.3,16.2
		C432.5,321.1,432,318.7,431.6,316.2 M433.7,328.1l16.2-16.1l5.7,36.5l-13.1,16C439.3,353.8,436.3,341.7,433.7,328.1L433.7,328.1z
		 M443.9,369l12.8-15.6c2.1,8.7,8.8,36.1,9.1,37.3c-0.5,0.9-5.1,9.3-7.6,13.8C453.6,395.1,448.6,383.3,443.9,369L443.9,369z
		 M474.9,431.4c-3.3-4.1-8.6-11.4-14.6-22.7l8.1-14.7l14.5,12.4C480.4,418.5,477.1,426.7,474.9,431.4L474.9,431.4z M483.7,402
		l-14.1-12.1c-1.5-5.9-7.1-29.1-9-37.1l25.9,13.9C486.5,380.7,485.4,392.4,483.7,402L483.7,402z"/>
</g>
<g id="Feather_1_">
	<path id="Orange_1_" class="st1" d="M440.4,102.4h-33.5l21.4,23.2h12.1V102.4z M593.5,393.8c0,0-45.2,10-90.2-62.6l-0.2,0.1
		c-10.9-17.5-20.5-37.3-28.8-57.1l0,0l0,0c-7.3-23.9-15.8-46.9-23.5-65.6c-5.1-16.8-9-31.3-11.5-41.4l0.1-0.1c1.7-1,3.2-2.2,4.6-3.6
		c1.2-1.3,2.3-2.6,3.2-4.2c1.6-2.8,2.6-5.9,2.8-9.2c14.6,10.9,78.3,60.2,114.8,118.7C608.4,339.4,585.7,381.3,593.5,393.8z"/>
	<path id="White_1_" class="st0" d="M550.9,273.3L550.9,273.3c-28.8-46.4-90-101.5-104-113.7c-0.9,1.5-1.9,3-3.2,4.2
		c8.8,24.9,42.9,118.3,74.3,168.9c30.7,49.4,60.8,47,60.8,47S589,334.5,550.9,273.3z M569,320.4l-25.2-4.6l-29.9-48l35.8,10.6
		C558.8,293.7,564.9,307.8,569,320.4z M546.9,273.7L546.9,273.7l-35.8-10.6l-27.6-44.5l24.9,6.2
		C522.8,240.8,536.8,257.8,546.9,273.7z M448.5,165.9L448.5,165.9c10.9,9.8,33.2,30.3,55.3,54l-23.2-5.7l-14.9-24
		c-0.5-0.9-1.6-1.1-2.6-0.6c-0.9,0.5-1.1,1.6-0.6,2.6l15.6,25.1l-3.2,17.5C463,205.8,453.4,179.5,448.5,165.9z M477.6,241.1
		L477.6,241.1l3.5-19.2l27.1,43.7l-8.9,24.2C491.7,274,484.3,257.3,477.6,241.1z M521.3,330.6L521.3,330.6
		c-6.6-10.5-13.3-22.9-19.8-36.2l9.2-24.9l29.9,48.1l-9.2,27.4C528,340.8,524.7,336,521.3,330.6z M575.8,375.8L575.8,375.8
		c-6.5-0.8-23-5.1-41.6-27.2l9-26.8l14.2,22.8c0.5,0.9,1.6,1.1,2.6,0.6c0.9-0.5,1.1-1.7,0.6-2.6l-14-22.5l23.7,4.4
		C577.8,350.2,576.7,368.9,575.8,375.8z"/>
</g>
<g id="Feather_3_">
	<path id="Red" class="st2" d="M408,147.6c-76.1,56.9-117,141.8-129.4,170.9c0,0-1.6,3.4,0.3,7.1l24.1,46.8c1,2,3.2,2.4,4.8,0.9
		l39.6-35.8c2.7-2.4,3.6-6.5,3.6-6.5c18.1-103.4,42.5-153.9,57.6-176.8c-0.4-1.6-0.7-3.4-0.7-5.1C408,148.5,408,148.1,408,147.6
		L408,147.6z"/>
	<path id="Green" class="st1" d="M284.5,321.1l21.6,46.6l39.3-36.4c0,0,18.9-110.4,52.7-171.3C309,246.4,284.5,321,284.5,321.1
		L284.5,321.1z M351.6,282.1c-0.4,1.8-0.9,3.6-1.3,5.3c-5.3,23-8.4,40-8.7,41.7v0.1l-2.7,2.5l-31.5,29.2l-18.5-40.1
		c0,0,0.6-2,2.1-5.7c0.5-1.4,1.3-3,2-4.8c3.8-8.6,10.3-22.1,20.8-39.4c1.1-1.9,2.3-3.7,3.4-5.5c14.8-23.6,36.5-53.4,67.6-87
		C370.8,207.2,359.2,249.6,351.6,282.1"/>
	<path id="White_2_" class="st0" d="M341.6,329.1l-16.6-28c3.6-10.1,8-21.6,13.3-34.4l12,20.7l1.3-5.3l-11.5-19.7
		c5.9-13.7,12.7-28.8,20.7-44.6c0.5-0.9,0.1-2-0.8-2.5s-2-0.1-2.5,0.8c-7,13.9-13.2,27.2-18.5,39.6l-21.7,9.6
		c-1.1,1.8-2.3,3.6-3.4,5.5l22.8-10.1l0,0h0.1h-0.1c-5.9,14-10.9,26.8-14.8,37.8l-28.8,11.7l0,0c-0.8,1.8-2,4.8-2,4.8v0.1l29.3-11.9
		c-9,25.6-12.7,41.3-12.7,41.6c-0.3,1,0.4,2,1.4,2.2s2-0.4,2.2-1.4l0,0c0.1-0.3,3.6-15.3,12.2-40l15.5,26.1l0,0L341.6,329.1z"/>
</g>
<path id="Red_2_" class="st1" d="M428.8,139c-5.6,0-10.2,4.6-10.2,10.2c0,5.6,4.6,10.2,10.2,10.2s10.2-4.6,10.2-10.2
	C439,143.5,434.4,139,428.8,139"/>
</svg>
