<?xml version="1.0" encoding="utf-8"?>
<svg version="1.1" id="Layer_1" xmlns="http://www.w3.org/2000/svg" xmlns:xlink="http://www.w3.org/1999/xlink" x="0px" y="0px"
	 viewBox="0 0 600 600" style="enable-background:new 0 0 600 600;" xml:space="preserve">
<style type="text/css">
	.st0{fill:#FFFFFF;}
	.st1{fill:#AAAAAA;}
</style>
<path id="Black_1_" d="M436.6,375.9v33.4c0,11.8-2.1,15.3-12.8,20.7L300,491.4L176.2,430c-10.7-5.3-12.8-8.9-12.8-20.7v-33.4H0
	l71.5-212.5h91.9v-54.7h273.3v54.7H600l-71.5,212.5H436.6z"/>
<path id="White_1_" class="st0" d="M300,476.6l115.2-56.7c6.8-3.4,8.3-6.4,8.3-13.4v-43.7H519l62.7-186.4H423.6v-54.7H176.4v54.7
	H80.9L18.1,362.8h158.3v43.7c0,7,1.5,10,8.3,13.4L300,476.6z"/>
<path id="Grey" class="st1" d="M300,466.8l107.7-53c5.7-2.8,7.1-5.3,7.1-11.5V354h98.1l56.8-168.9H414.8v-54.7H185.2v54.7H87.1
	l-56.8,169h154.9v48.3c0,6.1,1.4,8.6,7.1,11.5L300,466.8z"/>
<path id="Black" d="M297.6,363v1.3c0,0.4,0.4,0.8,0.8,0.8h3.2c0.4,0,0.8-0.4,0.8-0.8l0,0V363h1.3c0.4,0,0.8-0.4,0.8-0.8V359
	c0-0.4-0.4-0.8-0.8-0.8h-1.3v-1.3c0-0.4-0.2-0.8-0.8-0.8h-3.2c-0.6,0-0.8,0.4-0.8,0.8v1.3h-1.3c-0.4,0-0.8,0.4-0.8,0.8v3.2
	c0,0.4,0.4,0.8,0.8,0.8H297.6z M270.3,429.3c8.6-4.8,22.5-6.2,29.7-6.2s21,1.3,29.7,6.2c1.5,0.8,1.6,0.8,2.7-0.6l2.4-3.6
	c0.8-1.2,0.7-2.1-0.2-2.6c-3.2-1.9-8-3.7-12.7-5c-6.8-1.8-14.1-2.7-21.8-2.7s-15.1,0.9-21.8,2.7c-4.7,1.2-9.4,3.1-12.7,5
	c-0.9,0.5-1,1.4-0.2,2.6l2.4,3.6C268.8,430.1,268.8,430.1,270.3,429.3 M298.6,391.2c-1.2,0-2.1,1-2.1,2.1l0,0v2H295
	c-1.2,0-2.1,1-2.1,2.1l0,0v2.9c0,1.1,0.8,2.1,1.9,2.1c2.7,0,3,1.3,3,2.8s-1.4,2.8-3,2.8c-0.7,0-1.3-0.2-1.9-0.6
	c-0.1-0.1-0.2-0.1-0.3,0c-0.6,0.7-1.4,1.1-2.4,1.1c-0.7,0-1.3-0.2-1.9-0.6c-0.1-0.1-0.2-0.1-0.3,0.1c-0.4,0.5-1,0.8-1.7,1
	c-1.5,0.3-3.2-0.6-3.5-2s-0.1-2.8,2.3-3.3c1.1-0.2,1.7-1.4,1.4-2.5l-0.6-2.8c-0.3-1.2-1.4-1.9-2.6-1.6l0,0L282,397l-0.4-1.9
	c-0.3-1.2-1.4-1.9-2.6-1.6l0,0l-2.8,0.6c-1.2,0.3-1.9,1.4-1.6,2.6l0.4,1.9l-1.4,0.3c-1.2,0.3-1.9,1.4-1.6,2.6l0.6,2.8
	c0.2,1.1,1.3,1.9,2.4,1.7c2.7-0.6,3.2,0.6,3.5,2s-0.7,3-2.3,3.3c-1,0.2-2-0.1-2.7-0.7c-0.1-0.1-0.3-0.1-0.4,0
	c-0.4,0.7-1,1.2-1.8,1.5c-0.7,0.2-1.4,0.1-2-0.1c-0.2-0.1-0.4,0-0.4,0.2c-0.2,1-1,1.8-1.9,2.2c-1.3,0.5-2.8-0.3-3.3-1.6
	c-0.7-1.5-0.9-2.5,1.5-3.6c0.9-0.4,1.3-1.6,1-2.7l-1-2.7c-0.4-1.1-1.5-1.7-2.5-1.3l-1.8,0.7l-0.5-1.6c-0.4-1.3-1.3-1.7-2.7-1.2
	l-3,1.1c-0.9,0.3-1.3,1.2-0.9,2.3c0.3,0.8,0.6,1.3,0.7,1.8l-1.8,0.7c-1.1,0.4-1.6,1.5-1.1,2.6l1.2,3c0.4,1.1,1.5,1.6,2.8,1.1
	c1.9-0.6,2.4-0.2,3.7,2.2c1.4,2.7,3.7,4.1,6.6,4.1s5.3-1.6,6.6-3.9c1.5,0.7,3.2,0.9,4.8,0.5c1.9-0.4,3.6-1.6,4.7-3.2
	c1.7,1,3.7,1.3,5.6,0.9c1.3-0.3,2.5-0.9,3.5-1.9c1.2,0.7,2.5,1.1,3.8,1.1c1.9,0,3.8-0.7,5.2-2.1c1.4,1.3,3.3,2.1,5.2,2.1
	c1.4,0,2.7-0.4,3.9-1.1c1,0.9,2.2,1.6,3.5,1.9c1.9,0.4,3.9,0.1,5.6-0.9c2,3.1,6,4.3,9.4,2.7c1.3,2.3,3.7,3.9,6.6,3.9
	s5.4-1.7,6.6-4.1c1.3-2.4,1.8-2.9,3.7-2.2c1.2,0.4,2.4,0,2.8-1.1l1.2-3c0.4-1.1,0-2.2-1.1-2.6l-1.8-0.7c0.2-0.4,0.4-1,0.7-1.8
	c0.4-1.1,0-1.9-0.9-2.3l-3-1.1c-1.4-0.6-2.3-0.1-2.7,1.2l-0.5,1.6l-1.9-0.7c-1-0.4-2.1,0.2-2.5,1.3l-1,2.7c-0.3,1,0,2.3,1,2.7
	c2.5,1,2.2,2,1.5,3.6c-0.6,1.3-2,2.1-3.3,1.6c-0.9-0.4-1.7-1.2-1.9-2.2c0-0.2-0.2-0.3-0.4-0.2c-0.6,0.3-1.4,0.3-2,0.1
	c-0.8-0.2-1.4-0.8-1.8-1.5c-0.1-0.1-0.2-0.1-0.4,0c-0.7,0.7-1.7,0.9-2.7,0.7c-1.5-0.3-2.6-2-2.3-3.3c0.3-1.4,0.8-2.6,3.5-2
	c1.1,0.2,2.1-0.6,2.4-1.7l0.6-2.8c0.3-1.2-0.5-2.3-1.6-2.6l0,0l-1.4-0.3l0.4-1.9c0.3-1.2-0.5-2.3-1.6-2.6l-2.8-0.6
	c-1.2-0.3-2.3,0.5-2.6,1.6L318,397l-1.4-0.3c-1.2-0.3-2.3,0.5-2.6,1.6l0,0l-0.6,2.8c-0.2,1.1,0.4,2.3,1.4,2.5
	c2.4,0.5,2.6,1.9,2.3,3.3c-0.3,1.4-2,2.4-3.5,2c-0.6-0.1-1.2-0.5-1.7-1c-0.1-0.1-0.2-0.1-0.3-0.1c-0.5,0.4-1.2,0.6-1.9,0.6
	c-0.9,0-1.8-0.4-2.4-1.1c-0.1-0.1-0.2-0.1-0.3,0c-0.5,0.4-1.2,0.6-1.9,0.6c-1.6,0-3-1.4-3-2.8s0.2-2.8,3-2.8c1.1,0,1.9-1,1.9-2.1
	v-2.9c0-1.2-1-2.1-2.1-2.1l0,0h-1.4v-2c0-1.2-1-2.1-2.1-2.1l0,0L298.6,391.2L298.6,391.2z M300,436.1c12.3,0,22.8-2.3,29-4.9
	c-2.8-1.5-5.7-2.6-9.8-3.6c-5.1,0.8-12.5,1.8-19.2,1.8s-14.1-1-19.2-1.8c-4.1,0.9-7,2-9.8,3.6C277.1,433.8,287.7,436.1,300,436.1
	 M316,377.1c0-1.1-0.9-2-2-2l0,0c-1.1,0-2,0.9-2,2l0,0c0,1.1,0.9,2,2,2l0,0C315.1,379.1,316,378.2,316,377.1 M306.7,371.8
	c0-0.9-0.7-1.7-1.7-1.7s-1.7,0.7-1.7,1.7l0,0c0,0.9,0.8,1.7,1.7,1.7C305.9,373.4,306.7,372.7,306.7,371.8 M311.1,374.3
	c0-0.9-0.7-1.7-1.7-1.7c-0.9,0-1.7,0.7-1.7,1.7l0,0c0,0.9,0.8,1.7,1.7,1.7C310.3,375.9,311.1,375.2,311.1,374.3 M321.8,381.4
	c0-1.4-1.1-2.5-2.5-2.5s-2.5,1.1-2.5,2.5s1.1,2.5,2.5,2.5S321.8,382.8,321.8,381.4 M327.7,387.6c0-1.6-1.3-3-3-3c-1.6,0-3,1.3-3,3
	c0,1.6,1.3,3,3,3C326.4,390.5,327.7,389.2,327.7,387.6L327.7,387.6 M333.7,395c0-1.9-1.5-3.4-3.4-3.4s-3.4,1.5-3.4,3.4
	s1.5,3.4,3.4,3.4l0,0C332.2,398.3,333.7,396.8,333.7,395L333.7,395 M323.1,370.2c0-1.3-1.1-2.4-2.4-2.4s-2.4,1.1-2.4,2.4
	c0,0,0,0,0,0.1c0.1,1.3,1.2,2.3,2.5,2.3C322.1,372.5,323.1,371.5,323.1,370.2 M329.8,372.6c0-1.5-1.3-2.7-2.8-2.6s-2.6,1.4-2.6,2.9
	c0.1,1.4,1.3,2.6,2.7,2.6C328.7,375.4,329.8,374.1,329.8,372.6C329.8,372.7,329.8,372.7,329.8,372.6 M336.5,376.3
	c-0.1-1.6-1.5-2.9-3.1-2.8s-2.8,1.4-2.8,3s1.4,2.9,3,2.9C335.2,379.3,336.5,377.9,336.5,376.3 M310.8,368.4c0-1-0.8-1.8-1.8-1.8
	s-1.8,0.8-1.8,1.8l0,0c0,1,0.8,1.8,1.8,1.8C310,370.2,310.8,369.4,310.8,368.4 M316.8,368.7c0-1.2-1-2.1-2.1-2.1
	c-1.2,0-2.1,1-2.1,2.1c0,1.2,1,2.1,2.1,2.1C315.8,370.8,316.8,369.9,316.8,368.7 M343,381.2c0-1.8-1.4-3.2-3.2-3.2l0,0
	c-1.8,0-3.2,1.3-3.3,3.1c0,1.8,1.3,3.2,3.1,3.3c0.1,0,0.1,0,0.2,0C341.6,384.4,343,383,343,381.2L343,381.2 M349,387.3
	c0-1.9-1.6-3.4-3.5-3.4s-3.4,1.6-3.4,3.5l0,0c0,1.9,1.6,3.4,3.5,3.4l0,0C347.5,390.7,349,389.2,349,387.3L349,387.3 M354.1,394.8
	c0-2-1.7-3.7-3.7-3.7l0,0c-2,0-3.7,1.7-3.7,3.7s1.7,3.7,3.7,3.7C352.5,398.5,354.1,396.8,354.1,394.8 M316.9,395.1
	c0.3-2.5,1.2-3.5,3.2-3.2c0.2,0,0.3-0.1,0.3-0.3c-1.4-4.8-8.4-13.9-16.9-17.8c-0.6-0.3-0.9-0.4-1-0.3s0.2,0.4,0.6,0.7
	c8.1,7.1,9.7,18.2,9.9,21.7c0,0.2,0.3,0.3,0.4,0.1C313.4,396,314.3,394.3,316.9,395.1 M310.6,372c12.4,3.9,24.8,16.2,27.2,28.7
	c0,0.2,0.4,0.3,0.4,0.1c0.3-0.7,0.4-1.2,0.7-1.7c0.4-0.8,1.5-1.1,2.5-0.7c1.5,0.5,3.6,1.3,4.7,1.8c0.2,0.1,0.4-0.1,0.3-0.3
	c-5.9-15.3-22.7-26.5-35.8-28.3c-0.7-0.1-1.1-0.1-1.1,0C309.6,371.7,309.8,371.7,310.6,372 M283.1,395.1c2.6-0.8,3.5,0.9,3.5,0.9
	c0.1,0.2,0.4,0.1,0.4-0.1c0.2-3.5,1.8-14.6,9.9-21.7c0.4-0.4,0.7-0.6,0.6-0.7s-0.4,0.1-1,0.3c-8.6,3.9-15.5,13.1-16.9,17.8
	c-0.1,0.2,0.1,0.4,0.3,0.3C281.8,391.6,282.8,392.6,283.1,395.1 M289.4,372c0.8-0.3,1.1-0.3,1-0.5c0-0.1-0.4-0.1-1.1,0
	c-13.2,1.9-30,13-35.8,28.3c-0.1,0.2,0.1,0.4,0.3,0.3c1.1-0.4,3.2-1.3,4.7-1.8c1-0.3,2.1,0,2.5,0.7c0.3,0.5,0.4,1,0.7,1.7
	c0.1,0.2,0.4,0.2,0.4-0.1C264.5,388.2,277,375.9,289.4,372 M303.8,386.1c0-2.1-1.7-3.8-3.8-3.8c-2.1,0-3.8,1.7-3.8,3.8l0,0
	c0,2.1,1.7,3.8,3.8,3.8C302.1,389.9,303.8,388.2,303.8,386.1 M301.8,374.4c0-1-0.8-1.8-1.8-1.8s-1.8,0.8-1.8,1.8s0.8,1.8,1.8,1.8
	C301,376.2,301.8,375.4,301.8,374.4L301.8,374.4 M302.2,379.2c0-1.2-1-2.2-2.2-2.2l0,0c-1.2,0-2.2,1-2.2,2.2l0,0
	c0,1.2,1,2.2,2.2,2.2l0,0C301.2,381.5,302.2,380.5,302.2,379.2L302.2,379.2 M302.5,369.1c0-1.4-1.2-2.6-2.6-2.6l0,0
	c-1.4,0-2.6,1.2-2.6,2.6s1.2,2.6,2.6,2.6C301.4,371.7,302.5,370.6,302.5,369.1L302.5,369.1 M312.4,404.3c0-1.3-1.1-2.4-2.4-2.4l0,0
	c-1.3,0-2.4,1.1-2.4,2.4s1.1,2.4,2.4,2.4C311.3,406.7,312.4,405.6,312.4,404.3L312.4,404.3 M332.4,408c0-1.3-1.1-2.4-2.4-2.4
	s-2.4,1.1-2.4,2.4s1.1,2.4,2.4,2.4S332.4,409.3,332.4,408 M287.6,404.3c0,1.3,1.1,2.4,2.4,2.4l0,0c1.3,0,2.4-1.1,2.4-2.4
	s-1.1-2.4-2.4-2.4S287.6,403,287.6,404.3L287.6,404.3 M267.6,408c0,1.3,1.1,2.4,2.4,2.4l0,0c1.3,0,2.4-1.1,2.4-2.4s-1.1-2.4-2.4-2.4
	S267.6,406.7,267.6,408L267.6,408 M279.2,372.6c1.3,0,2.4-1,2.5-2.3c0-1.3-1-2.4-2.3-2.5c-1.3,0-2.4,1-2.4,2.4
	C276.9,371.5,277.9,372.6,279.2,372.6 M272.8,375.4c1.5,0,2.7-1.1,2.8-2.6l0,0c0-1.5-1.1-2.7-2.6-2.8l0,0c-1.5,0-2.7,1.1-2.8,2.6
	C270.2,374.1,271.3,375.4,272.8,375.4 M266.4,379.3c1.6,0,3-1.2,3-2.9c0-1.6-1.2-3-2.9-3l0,0c-1.6,0-3,1.2-3,2.9
	C263.5,377.9,264.7,379.3,266.4,379.3 M291,370.2c1,0,1.8-0.8,1.8-1.8s-0.8-1.8-1.8-1.8l0,0c-1,0-1.8,0.8-1.8,1.8l0,0
	C289.1,369.4,290,370.2,291,370.2L291,370.2 M285.3,370.8c1.2,0,2.1-1,2.1-2.1s-0.9-2-2-2.1c-1.2,0-2.1,0.9-2.1,2.1
	C283.2,369.9,284.2,370.8,285.3,370.8 M260.2,384.4c1.8,0,3.2-1.4,3.2-3.2l0,0c0-1.8-1.4-3.2-3.2-3.2l0,0c-1.8,0-3.2,1.4-3.2,3.2
	l0,0C257,382.9,258.4,384.4,260.2,384.4L260.2,384.4 M254.4,390.7c1.9,0,3.4-1.5,3.5-3.4l0,0c0-1.9-1.5-3.4-3.4-3.5l0,0
	c-1.9,0-3.5,1.5-3.5,3.4l0,0C250.9,389.2,252.5,390.7,254.4,390.7 M249.6,398.5c2,0,3.7-1.6,3.7-3.7l0,0c0-2-1.6-3.7-3.7-3.7
	c-2,0-3.7,1.6-3.7,3.7C245.9,396.8,247.5,398.5,249.6,398.5L249.6,398.5 M285.9,379.1c1.1,0,2-0.9,2-2l0,0c0-1.1-0.9-2-1.9-2l0,0
	c-1.1,0-2,0.9-2,1.9l0,0C284,378.2,284.8,379.1,285.9,379.1L285.9,379.1 M295,373.4c0.9,0,1.7-0.7,1.7-1.7c0-0.9-0.7-1.7-1.7-1.7
	c-0.9,0-1.7,0.7-1.7,1.7C293.3,372.7,294,373.5,295,373.4 M290.6,375.9c0.9,0,1.7-0.7,1.7-1.6s-0.7-1.7-1.6-1.7c0,0,0,0-0.1,0
	c-0.9,0-1.7,0.7-1.7,1.7C288.9,375.2,289.7,375.9,290.6,375.9 M280.6,383.9c1.4,0,2.5-1.1,2.5-2.5s-1.1-2.5-2.5-2.5
	s-2.5,1.1-2.5,2.5S279.3,383.9,280.6,383.9 M275.2,390.5c1.6,0,3-1.3,3-3s-1.3-3-3-3c-1.6,0-3,1.3-3,3S273.6,390.5,275.2,390.5
	 M269.6,398.3c1.9,0,3.4-1.5,3.4-3.4s-1.5-3.4-3.4-3.4s-3.4,1.5-3.4,3.4S267.7,398.3,269.6,398.3L269.6,398.3 M233.8,154.3
	c-2.9,0-4.4,0.6-5.6,1.5c-2.1,1.6-3.1,4.5-3.1,9s1.1,7.4,3.1,9c1.2,0.9,2.7,1.5,5.6,1.5s4.4-0.6,5.6-1.5c2.1-1.6,3.1-4.5,3.1-9
	s-1.1-7.4-3.1-9C238.2,154.8,236.7,154.3,233.8,154.3 M233.8,157.7c1,0,1.5,0.4,1.9,0.9c0.5,0.8,0.7,1.8,0.7,6.2
	c0,4.3-0.2,5.4-0.7,6.2c-0.4,0.5-0.9,0.9-1.9,0.9s-1.5-0.4-1.9-0.9c-0.5-0.8-0.7-1.8-0.7-6.2c0-4.3,0.2-5.4,0.7-6.2
	C232.3,158.1,232.9,157.7,233.8,157.7 M223,165.3v8.6c0,0.8-0.3,1.1-1.1,1.1h-16.6v-3.2c2,0,2.4-0.6,2.4-2.3V156
	c0-2.1-0.4-2.6-2.4-2.6v-3.2H217v3.2c-2.5,0-3,0.8-3,2.7v14.8c0,0.5,0.2,0.7,0.7,0.7c3.2,0,4.4-1.1,5.6-6.2L223,165.3L223,165.3z
	 M290.4,170.3l-5-18.6c-0.3-1.1-0.7-1.5-2-1.5h-10.8v3c1.8,0.1,2.3,0.9,1.7,2.8l-3.6,13.7c-0.4,1.5-0.9,2-2.3,2.1v3.2h9.7v-3.2
	c-2.4,0-3-0.7-2.6-2.1l0.2-0.7c0.1-0.4,0.3-0.6,0.7-0.6h6.3c0.5,0,0.6,0.2,0.7,0.6l0.2,0.8c0.3,1.4-0.2,2.1-2.2,2.1v3.2h10.8v-3.2
	C291.2,171.7,290.6,171.3,290.4,170.3 M281.9,165.1h-4.4c-0.5,0-0.7-0.2-0.5-0.7l2.3-9.1c0.1-0.4,0.3-0.5,0.5-0.5s0.4,0.2,0.5,0.5
	l2.3,9.1C282.6,164.9,282.4,165.1,281.9,165.1 M341.4,158.3c-0.5,0.6-0.7,1.8-0.7,4.1c0,0.5,0.2,0.6,0.6,0.6h3.9
	c0.4,0,0.6-0.2,0.6-0.6c0.1-2-0.2-3.5-0.7-4.1c-0.3-0.4-0.8-0.7-1.8-0.7S341.8,157.8,341.4,158.3 M344.1,172c2,0,3.4-1.1,4.3-3.5
	h2.6v3.5c0,1.6-0.4,2.1-1.8,2.6c-1.5,0.5-3.4,0.8-5.7,0.8c-3.1,0-5-0.6-6.4-2c-1.7-1.6-2.5-4.3-2.5-8.5s0.9-6.7,2.6-8.5
	c1.3-1.3,3.1-2.1,6.4-2.1c2.9,0,4.8,0.8,6,2.1c1.4,1.5,1.9,3.8,1.9,7.4c0,2.1-0.3,2.5-1.9,2.5h-8.4c-0.4,0-0.6,0.2-0.6,0.6
	C340.7,170.7,341.9,172,344.1,172 M370.4,158.3c-0.5,0.6-0.7,1.8-0.7,4.1c0,0.5,0.2,0.6,0.6,0.6h3.9c0.4,0,0.6-0.2,0.6-0.6
	c0.1-2-0.2-3.5-0.7-4.1c-0.4-0.4-0.8-0.7-1.8-0.7S370.8,157.8,370.4,158.3 M373.1,172c2,0,3.4-1.1,4.3-3.5h2.6v3.5
	c0,1.6-0.4,2.1-1.8,2.6c-1.5,0.5-3.4,0.8-5.7,0.8c-3.1,0-5-0.6-6.4-2c-1.7-1.6-2.5-4.3-2.5-8.5s0.9-6.7,2.6-8.5
	c1.3-1.3,3.1-2.1,6.4-2.1c2.9,0,4.8,0.8,6,2.1c1.4,1.5,1.9,3.8,1.9,7.4c0,2.1-0.3,2.5-1.9,2.5h-8.4c-0.4,0-0.6,0.2-0.6,0.6
	C369.7,170.7,370.8,172,373.1,172 M360.4,169.9c0,1.3,0.6,1.9,1.9,1.9v3.2h-5.1c-1.8,0-2.6-0.9-2.6-2.6v-17.1c0-1.3-0.6-1.9-1.9-1.9
	v-3.2h7.7V169.9L360.4,169.9z M259.2,160.8H257c-1-2.3-2.8-3.3-4.9-3.3c-1.6,0-2.2,0.7-2.2,1.7c0,1.1,0.6,1.7,2.1,2.3l2.7,1
	c4.1,1.4,5.6,3.2,5.6,6.5c0,4.4-2.9,6.4-8.2,6.4c-1.9,0-3.9-0.3-5.2-0.6c-1.8-0.4-2.1-0.9-2.1-2.1v-4.1h2.4c1.1,2.3,2.8,3.6,5.2,3.6
	c1.8,0,2.6-0.8,2.6-2s-0.8-1.9-2.4-2.4l-2.7-0.9c-3.7-1.3-5.2-3.1-5.2-6.5c0-3.8,2.4-6,7.7-6c1.6,0,3.2,0.2,4.6,0.5
	c1.8,0.4,2.1,0.9,2.1,2.4L259.2,160.8L259.2,160.8z M397.5,160.8h-2.2c-1-2.3-2.8-3.3-4.9-3.3c-1.6,0-2.2,0.7-2.2,1.7
	c0,1.1,0.6,1.7,2.1,2.3l2.7,1c4.1,1.4,5.6,3.2,5.6,6.5c0,4.4-2.9,6.4-8.2,6.4c-1.9,0-3.9-0.3-5.2-0.6c-1.8-0.4-2.1-0.9-2.1-2.1v-4.1
	h2.4c1.1,2.3,2.8,3.6,5.2,3.6c1.8,0,2.6-0.8,2.6-2s-0.8-1.9-2.4-2.4l-2.7-0.9c-3.7-1.3-5.2-3.1-5.2-6.5c0-3.8,2.4-6,7.7-6
	c1.6,0,3.2,0.2,4.6,0.5c1.8,0.4,2.1,0.9,2.1,2.4L397.5,160.8L397.5,160.8z M313.5,171.8v3.2h-5.3c-1.8,0-2.6-0.9-2.6-2.6
	c0-3.5,0.1-7.4,0.1-11.4c0-1.8-0.6-2.5-1.7-2.5c-1.5,0-2.5,1.1-2.5,3.5v7.9c0,1.3,0.6,1.9,1.9,1.9v3.2h-9.6v-3.2
	c1.3,0,1.9-0.6,1.9-1.9v-10.3c0-1.3-0.6-1.9-1.9-1.9v-3.2h4.3c1.8,0,2.6,0.6,3,2.2c0.1,0.3,0.3,0.4,0.5,0.1c1.1-1.7,2.7-2.7,5.2-2.7
	c3.5,0,5.1,1.9,5.1,5.8c0,3.9-0.1,6.4-0.1,9.9C311.7,171.2,312.2,171.8,313.5,171.8 M323.6,166.8c0.8,0,1.2-0.2,1.6-0.6
	c0.6-0.7,0.9-1.6,0.9-3.9c0-2.3-0.2-3.3-0.9-3.9c-0.4-0.4-0.8-0.6-1.6-0.6c-0.8,0-1.2,0.2-1.6,0.6c-0.6,0.7-0.9,1.6-0.9,3.9
	c0,2.3,0.2,3.3,0.9,3.9C322.4,166.6,322.8,166.8,323.6,166.8 M323.7,180.2c2.9,0,3.8-0.2,4.2-0.6c0.4-0.3,0.5-0.7,0.5-1.1
	c0-0.9-0.6-1.2-1.8-1.2c-2.2,0-4.4,0.1-6.5,0.1c-1.3,0-1.8,0.5-1.8,1.3c0,0.4,0.2,0.8,0.5,1.1c0.5,0.4,1.2,0.5,4.3,0.5L323.7,180.2
	L323.7,180.2z M330.3,158.1c1.1,1.1,1.7,2.7,1.7,4.7c0,4.4-2.9,7.5-8.6,7.5c-1.2,0-1.4-0.1-2.3-0.1s-1.2,0.4-1.2,0.8
	c0,0.6,0.4,1.1,1.7,1.1c2.1,0,3.6-0.1,5.8-0.1c4.4,0,6.1,1.8,6.1,4.9c0,1.8-0.6,3.1-1.7,4.1c-1.4,1.2-3.2,1.8-8.3,1.8h-1.2
	c-4.3,0-5.8-0.4-6.7-1.1c-0.7-0.6-1.1-1.4-1.1-2.4c0-1.4,0.8-2.4,2.4-2.9c0.3-0.1,0.2-0.3,0-0.4c-1.2-0.7-1.7-1.7-1.7-3.1
	c0-1.7,1-3.1,3-3.6c0.3-0.1,0.3-0.3,0.1-0.4c-2-1.5-2.9-3.5-2.9-6.6c0-5.1,2.9-8,8.5-8c2,0,3.3,0.4,6,0.4h4v3h-3.3
	C330.1,157.6,330,157.8,330.3,158.1 M539.6,208.8l-11.1,33h-10.2c0.3-3.4,0.4-6.4,0.4-9l-22.3-1c0-0.8,0.8-1.7,4.2-1.8l18-0.5
	c-0.1-2.5-0.4-4.6-0.8-6.4l-11.4-0.5c0-0.9,0.7-1.6,4.1-2l6.2-0.7c-2-4.6-5.8-6.4-11.5-6.4c-8.6,0-14.7,4.6-17.7,13.2
	c-3.6,10.2-2,16.7,6.6,25.5l7.8,8c17.4,17.7,20.1,30.9,13.3,49.4c-6.8,18.6-21.3,28.6-48.4,28.6c-11.5,0-24.4-1.3-33.7-3.5
	c-2.7-0.6-3.2-1.9-2-5.2l4.9-14.6l-10.9-0.6c0-0.8,0.5-1.7,3-1.9l8.9-0.6l6.8-20.1h10.8c-2.3,25.7,2.7,33.4,16,33.4
	c8.3,0,14.6-3.6,18.2-11.3l-15.1-0.9c0-0.8,0.8-1.6,4.2-1.8l12.3-0.7c1.2-3.6,1.8-6.9,1.6-10.2l-28.8-1.1c0-0.8,0.8-1.7,4.2-1.8
	l24.1-0.5c-0.9-3.6-3-7.1-6.3-10.9l-17.1-0.8c0-0.9,0.8-1.6,4.1-1.9l9.8-0.7l-4.1-4.2l-23.1-1c0-0.8,0.8-1.7,4.2-1.8l15.8-0.4
	c-5.1-5.3-8.8-10.3-11.3-15.6l-29.5-1.1c0-0.9,0.8-1.7,4.2-1.8l23.9-0.5c-1.1-3.2-1.7-6.6-1.7-10l-11.3-0.4c0-0.9,0.7-1.6,4.1-2
	l7.3-0.9c0.3-4,1.2-8.3,2.8-13c2.2-6.3,5.2-11.6,9.2-15.9l-14-0.8c0-0.9,0.8-1.6,4.2-1.8l13.3-0.7c8-6.8,18.8-10.4,32.5-10.4
	c9.5,0,20.9,1.2,29.1,3.1C540.4,204.2,540.8,205.2,539.6,208.8 M441.7,277.5l3.7-11.1h-46.8l-3.7,11.1c8.7,1.3,11,3.8,8.4,13.9
	l-18.5,0.5c-3.4,0.1-4.2,1-4.2,1.8l21.7,0.9c-0.3,1-0.6,2-1,3.2l-2.3,7l-12.4,0.7c-3.3,0.2-4.2,1-4.2,1.8l15.4,0.9l-2.4,7.2
	l-6.5,0.5c-3.4,0.3-4.2,1-4.2,1.8l9.6,0.8l-1.3,3.7c-0.5,1.4-1.3,2-2.5,2.2c-2,0.3-4.1,0.4-6.4,0.4c-5,0-9.6-1.4-11.6-4.6
	c-3.4-5.3-3-14.7,10-52.6c11.6-33.8,16.4-43,22.4-49c3.3-3.3,7.6-5.2,12.9-5.2c6.8,0,11,3.4,12.2,13.7l-6.9,0.7
	c-3.4,0.3-4.1,1.1-4.1,1.9l11.3,0.5c0.1,1.7,0.1,3.6,0.1,5.6l-18.1,0.5c-3.4,0.1-4.2,1-4.2,1.8l22.2,1c-0.1,2.3-0.3,4.9-0.5,7.6
	h10.8l12.9-38.3c1.3-3.8,0.8-4.7-2.4-5.3c-9.3-1.7-20.1-2.7-28.2-2.7c-20.1,0-33.2,5.2-43.5,15.5c-2.4,2.4-4.7,5.2-6.9,8.4
	l-12.7,0.7c-3.4,0.2-4.2,1-4.2,1.8l14.7,0.7c-1.7,2.8-3.4,5.8-5.1,9.3l-5.5,0.4c-3.4,0.3-4.2,0.9-4.2,1.8l8.3,0.7
	c-1.2,2.7-2.4,5.5-3.5,8.3l-6.6,0.5c-3.4,0.3-4.2,1-4.2,1.8l9.6,0.8c-1.5,3.8-2.9,7.6-4.2,11.5c-0.7,2-1.3,3.9-2,5.9l-7.6,0.6
	c-3.4,0.3-4.2,1-4.2,1.8l10.7,0.8c-3.5,11.1-5.8,20.1-6.9,27.7l-10.1,0.6c-3.3,0.2-4.2,1-4.2,1.8l13.9,0.9
	c-0.5,5.1-0.4,9.5,0.3,13.3l-15.3,0.5c-3.4,0.1-4.2,1-4.2,1.8l20.2,1c0.9,2.9,2.1,5.5,3.8,7.8c5,7.1,15.8,11.3,30.8,11.3
	c12,0,23.5-1.3,32.3-3.9c1.7-0.5,2.4-1.2,3.1-3.2l13.8-40.9C432.7,281.5,434.7,279.3,441.7,277.5 M365.7,213.7l3.7-11.1h-38.6
	l-3.7,11.1c8.6,1.9,11,5.2,7.8,16.6l-13,0.7c-3.3,0.2-4.2,1-4.2,1.8l16.1,0.8c-0.1,0.3-0.2,0.7-0.3,1l-6,17.9l-6.7,0.5
	c-3.4,0.3-4.2,1-4.2,1.8l9.8,0.8L311.9,299c-0.8,2.3-1.5,2.3-1.4-0.1l1.2-87.1c0.1-6.8-1.7-9.2-8.1-9.2h-35.2l-3.7,11.1
	c5.2,1.5,7.3,3.4,6.8,8.5l-6.2,0.5c-3.4,0.3-4.2,0.9-4.2,1.8l9.8,0.8c-0.4,2-1.2,4.5-2.1,7.4l-13.1,0.7c-3.4,0.2-4.2,0.9-4.2,1.8
	l16.2,0.8l-4.1,12.2l-17.2,0.5c-3.4,0.1-4.2,0.9-4.2,1.8l20.2,0.9l-3.9,11.6l-8.6,0.5c-3.4,0.2-4.2,0.9-4.2,1.8l11.7,0.8l-4.3,12.7
	l-20.6,0.5c-3.3,0.1-4.2,0.9-4.2,1.8l23.7,1l-6.5,19.4l-11.5,0.6c-3.4,0.2-4,1-4,1.8l14.4,0.9l-0.2,0.5
	c-4.6,13.8-8.3,17.3-17.1,19.6l-3.7,11.1H262l3.7-11.1c-9.6-2.1-11.5-6-6.4-21l24.1-71.5c0.7-2.2,1.5-2.2,1.4,0.1l-0.6,43.1
	l-6.2,0.6c-3.4,0.3-4.2,1.1-4.2,1.9l10.3,0.5l-0.2,11l-11.5,0.6c-3.3,0.2-4.2,0.9-4.2,1.8l15.6,0.9l-0.3,18.2l-13.9,0.7
	c-3.4,0.2-4.2,0.9-4.2,1.8l18,0.8l-0.2,12.4c-0.1,6.8,1.8,9.1,7.5,9.1H314L348.6,233C353.3,219.5,356.9,216,365.7,213.7
	 M214.5,304.3l24.7-73.4c4.2-12.4,7-15.2,15.2-17.1l3.7-11.1h-44.6l-3.7,11.1c4.8,1.8,6.7,3.9,5.2,11.2l-13.3,0.7
	c-3.4,0.2-4.2,1-4.2,1.8l16.6,1c-0.5,1.8-1.1,3.8-1.9,6.1l-0.7,2l-29.2,0.5c-3.3,0.1-4.2,1-4.2,1.8l32.3,1l-4.4,12.9l-41.1,0.5
	c-3.3,0-4.2,1-4.2,1.8l44.1,1l-3.2,9.5l-22.5,0.6c-3.3,0.1-4.2,0.9-4.2,1.8l25.5,1.1l-5.5,16.4l-27.1,0.5c-3.3,0.1-4.2,0.9-4.2,1.8
	l30.1,1l-5.3,15.9l-17,0.5c-3.4,0.1-4.2,0.9-4.2,1.8l20.1,0.9c-4.2,12.4-7,15.2-15.2,17.1l-3.7,11.1H213l3.7-11.1
	C210.6,322.7,209.3,319.7,214.5,304.3 M158.4,314.5l-3.6-59.8c-0.1-2,0.3-2.9,1.7-4.1l28.5-26.1c8.7-7.9,11.8-9.6,17.2-10.8
	l3.7-11.1H165l-3.7,11.1c7.6,1.5,8.5,7.6-1,16.3l-0.2,0.2l-16.7,0.6c-3.4,0.1-4.2,1-4.2,1.8l17.4,0.8l-10.2,9.4l-10.7,0.9
	c-3.4,0.3-4.1,1-4.1,1.9l11.2,0.5l-19.9,18.3l11.3-33.4c4.2-12.4,6.6-13.7,14.8-15.7l4.2-12.5h-44.6l-3.7,11.1
	c4.6,1.7,6.5,3.7,5.4,10.3l-11,0.7c-3.3,0.2-4.2,0.9-4.2,1.8l14.4,0.9c-0.4,1.7-1,3.6-1.7,5.8l-27.1,0.5c-3.3,0.1-4.2,0.9-4.2,1.8
	l30.2,1l-7.1,21.2L86,258.3c-3.4,0.2-4.2,0.8-4.2,1.8l16.5,1l-4.1,12.1l-17.7,0.6c-3.4,0.1-4.2,1-4.2,1.8l20.8,1l-3.5,10.3
	l-10.4,0.6c-3.4,0.2-4.2,1-4.2,1.8l13.5,0.8L84,303.8l-19.1,0.6c-3.3,0.1-4.2,1-4.2,1.8l22.2,1l-0.3,0.8c-4.2,12.4-7,15.2-15.2,17.1
	l-3.7,11.1h47.7l3.7-11.1c-9.3-1.9-10.9-5-5.6-20.8l5.2-15.3l13.1-12c1.2-1.1,1.8-0.8,1.9,0.8l0.7,17.8l-10.7,0.8
	c-3.3,0.2-4.1,1-4.1,1.9l15,0.7l0.4,10.6l-15,0.6c-3.4,0.2-4.2,0.9-4.2,1.8l19.3,1l0.1,3.5c0.8,16.7,4.1,20.2,18.3,20.2
	c5.1,0,10.1-0.2,13.6-0.6l3.7-11C160.6,324.2,158.9,322.2,158.4,314.5"/>
<path id="White" class="st0" d="M357.8,395.7c0-3.2-1.8-5.9-4.7-7.2c0.2-3.8-2.6-7.1-6.4-7.6c-0.4-3.2-3.4-6.1-7.2-5.9
	c-0.9-2.6-3.7-4.7-6.9-4.2c-1.6-2.7-4.5-3.6-6.8-2.9c-1.7-2.3-4.6-2.8-6.8-1.9c-1.6-1.7-4.4-2.2-6.4-0.9c-0.8-0.7-3.1-1.7-5.4-0.4
	V358c0-1-0.4-1.7-1.5-1.7h-0.9v-1.5c0-0.6-0.3-1.1-1.2-1.1h-7.3c-0.9,0-1.2,0.5-1.2,1.1v1.5h-0.9c-1.1,0-1.5,0.8-1.5,1.7v6.7
	c-2.3-1.3-4.5-0.3-5.4,0.4c-2-1.2-4.9-0.8-6.4,0.9c-2.2-0.9-5.1-0.4-6.8,1.9c-2.3-0.6-5.3,0.2-6.8,2.9c-3.3-0.5-6.1,1.6-6.9,4.2
	c-3.8-0.2-6.8,2.6-7.2,5.9c-3.8,0.5-6.6,3.8-6.4,7.6c-2.9,1.4-4.7,4-4.7,7.2c0,3.6,2,6.7,6.1,7.7c0.9,0.2,1.5,0.3,1.9,0.8
	c-1.4,0.4-2.2,2-1.8,3.4c0.2,0.6,2.8,7.9,2.8,7.9c0.6,1.8,1.8,2.7,3.7,2.2c1.8-0.5,2.4-0.2,3.6,1.7c1,1.5,1.7,2.7,2.4,3.8
	c2.2,3.4,4.2,6.7,5.3,8.4c1.1,1.6,2,2.1,3.1,2.7c6.2,3.5,18.9,5.9,30.7,5.9s24.6-2.5,30.7-5.9c1.1-0.6,2-1.2,3.1-2.7
	c1.1-1.7,3.1-5,5.3-8.4c0.7-1.1,1.5-2.3,2.4-3.8c1.3-1.9,1.8-2.2,3.6-1.7c1.9,0.5,3-0.4,3.7-2.2c0,0,2.6-7.3,2.8-7.9
	c0.4-1.4-0.4-3-1.8-3.4c0.4-0.5,1-0.5,1.9-0.8C355.8,402.4,357.8,399.4,357.8,395.7z M348,403.3c-0.2,0.4-0.4,0.9-0.6,1.6l1.1,0.5
	c1.6,0.7,2,2,1.5,3.3l-1.6,4.6c-0.6,1.9-1.6,3-3.5,2.5c-1.8-0.5-2.4-0.7-3,0.5c-1.8,3.6-3.2,5.5-5.8,5.5c1.8,1.2,1.7,1.5,0.2,3.8
	l-3.1,4.6c-1,1.6-1.5,2.1-2.6,2.7c-6,3.5-18.5,6-30.5,6s-24.5-2.5-30.5-6c-1.1-0.7-1.6-1.1-2.6-2.7l-3.1-4.6
	c-1.5-2.3-1.6-2.7,0.2-3.8c-2.6,0-4-1.8-5.8-5.5c-0.6-1.2-1.2-1-3-0.5c-1.9,0.5-2.9-0.6-3.5-2.5l-1.6-4.6c-0.5-1.3-0.1-2.6,1.5-3.3
	l1.1-0.5c-0.2-0.6-0.4-1.1-0.6-1.6c-0.6-1.5-2-1.7-3.6-1.9c-2.8-0.5-4.9-3-4.9-5.8c0-3,2.3-5.6,5.4-5.9c-0.2-0.5-0.3-1.1-0.3-1.7
	l0,0c0-3,2.4-5.5,5.5-5.5c0.2,0,0.4,0,0.6,0c0-0.3-0.1-0.5-0.1-0.8c0-0.5,0.1-0.9,0.2-1.4c0.8-2.7,3.6-4.3,6.4-3.6v-0.1
	c0-0.7,0.1-1.4,0.4-2c1.1-2.4,3.9-3.4,6.3-2.3c0.4-2.2,2.3-3.8,4.5-3.8c0.8,0,1.6,0.2,2.3,0.6c0.7-1.6,2.3-2.7,4-2.7
	c1,0,1.9,0.3,2.7,0.9c0.7-1.3,2-2.1,3.5-2.1c1.1,0,2.1,0.4,2.8,1.2c0.7-0.9,1.7-1.5,2.9-1.5c1.6,0,2.9,1,3.4,2.5
	c1.6-0.3,2.1-1,2.1-2.1c0-0.4-0.1-0.5-0.5-0.5h-0.3c-0.8,0-1.3-0.6-1.3-1.2v-5.3c0-0.9,0.4-1.6,1.4-1.6h0.8v-1.1c0-0.6,0.3-1,1.1-1
	h5.2c0.8,0,1.1,0.5,1.1,1v1.1h0.8c1,0,1.4,0.7,1.4,1.6v5.3c0,0.6-0.5,1.2-1.3,1.2h-0.3c-0.4,0-0.5,0-0.5,0.5c0,1.1,0.5,1.8,2.1,2.1
	c0.2-0.8,0.7-1.4,1.4-1.9c1.6-1.1,3.8-0.7,4.9,0.9c0.7-0.8,1.8-1.2,2.8-1.2c1.4,0,2.8,0.8,3.5,2.1c0.3-0.3,0.7-0.5,1.1-0.6
	c2.2-0.9,4.8,0.2,5.7,2.4c0.5-0.3,1-0.5,1.5-0.6c2.5-0.4,4.9,1.3,5.3,3.7c0.6-0.3,1.3-0.4,2-0.4l0,0c2.6,0,4.8,2.1,4.8,4.8v0.1
	c0.4-0.1,0.9-0.2,1.4-0.2c2.8,0,5.2,2.3,5.2,5.1c0,0.3,0,0.5-0.1,0.8c0.2,0,0.4,0,0.6,0c0.6,0,1.2,0.1,1.7,0.3
	c2.9,0.9,4.4,4,3.5,6.9l0,0c2.6,0.2,4.8,2.2,5.3,4.8c0.6,3.2-1.5,6.3-4.7,6.9C350,401.6,348.5,401.7,348,403.3z M301.8,360.6
	c0,1-0.8,1.8-1.8,1.8s-1.8-0.8-1.8-1.8s0.8-1.8,1.8-1.8C301,358.8,301.8,359.6,301.8,360.6 M300,416.7c1.3,0,2.3,1.1,2.3,2.4
	s-1,2.3-2.3,2.3s-2.4-1.1-2.4-2.4S298.7,416.7,300,416.7 M284.2,420.3c-0.2-1.3,0.7-2.5,1.9-2.7c1.3-0.2,2.5,0.7,2.7,1.9
	c0,0.1,0,0.1,0,0.2c0.2,1.3-0.7,2.5-2,2.6l0,0C285.6,422.5,284.4,421.6,284.2,420.3L284.2,420.3 M271.8,424
	c-0.4-1.2,0.2-2.4,1.3-2.8c1.2-0.4,2.4,0.3,2.8,1.4c0.4,1.2-0.2,2.4-1.3,2.8C273.4,425.7,272.2,425.1,271.8,424 M311.1,419.6
	c0.2-1.3,1.4-2.2,2.7-2c1.3,0.2,2.2,1.4,2,2.6c-0.2,1.3-1.4,2.2-2.7,2C311.8,422.1,310.9,420.9,311.1,419.6 M324.1,422.6
	c0.4-1.2,1.7-1.8,2.8-1.4c1.2,0.4,1.7,1.6,1.3,2.8c-0.4,1.2-1.7,1.8-2.8,1.4C324.3,425,323.7,423.7,324.1,422.6 M300,396.7
	c1.3,0,2.3,1,2.3,2.3s-1,2.3-2.3,2.3l0,0c-1.3,0-2.3-1-2.3-2.3S298.7,396.7,300,396.7 M320.7,399c1.3,0,2.3,1,2.3,2.3
	s-1,2.3-2.3,2.3l0,0c-1.3,0-2.3-1-2.3-2.3C318.4,400,319.5,399,320.7,399 M341.2,405.4c1.3,0,2.3,1,2.3,2.3s-1,2.3-2.3,2.3l0,0
	c-1.3,0-2.3-1-2.3-2.3S340,405.4,341.2,405.4 M281.5,401.3c0,1.3-1,2.3-2.3,2.3s-2.3-1-2.3-2.3s1-2.3,2.3-2.3S281.5,400,281.5,401.3
	 M261,407.6c0,1.3-1,2.3-2.3,2.3s-2.3-1-2.3-2.3s1-2.3,2.3-2.3C260,405.4,261,406.4,261,407.6 M449,245.9c0,0.6,0.4,1.3,3.1,1.7
	c1.3,0.2,2.9,0.4,4.5,0.6c0.1,2.8,0.6,5.6,1.5,8.2l4-0.1c-1.1-3.2-1.7-6.6-1.7-10L449,245.9L449,245.9z M416,213.6
	c5.9,0.6,9.5,4.3,10.6,14l3.6-0.4c-1.3-10.3-5.4-13.7-12.2-13.7C417.3,213.5,416.6,213.6,416,213.6 M443.9,291.8h-3.6l-6.8,20.3
	l3.7-0.2L443.9,291.8z M471.1,287c2.4,0.3,6.6,0.7,11,1.1c2.6,3.1,4.3,6,5.2,9l4-0.1c-0.9-3.6-3-7.1-6.3-10.9l-17.1-0.8
	C467.9,286.2,468.4,286.7,471.1,287 M475.8,210.8c7.7-6.6,18.1-10.1,31.1-10.3c-0.8,0-1.5,0-2.2,0c-13.8,0-24.7,3.6-32.8,10.6
	L475.8,210.8z M505.2,213.5c-0.6,0-1.2,0-1.8,0.1c4.9,0.4,8.1,2.3,9.9,6.7l3.5-0.4C514.7,215.3,511,213.5,505.2,213.5 M433.9,258.7
	c0,0.7,0.5,1.3,3.2,1.6c4.9,0.6,14.3,1.4,23.3,2.1c2.3,4.4,5.5,8.7,9.7,13.2l4.5-0.1c-5.1-5.3-8.8-10.3-11.3-15.6L433.9,258.7z
	 M454.7,277.6c0,0.7,0.5,1.3,3.2,1.6c4.4,0.6,11.3,1.1,17.3,1.5l2.3,2.4l4.4-0.3l-4.1-4.2L454.7,277.6L454.7,277.6z M245.6,301.7
	l6.5-19.4l-23.7-1c0,0.8,0.5,1.4,3.2,1.7c3.9,0.5,9.9,1,16,1.6l-5.8,17.4L245.6,301.7L245.6,301.7z M188.7,304.7l5.3-15.9l-30.1-1
	c0,0.8,0.8,1.5,3.4,1.8c5.2,0.5,13.9,1.1,22.3,1.5l-4.6,13.7L188.7,304.7L188.7,304.7z M319.7,256.8c0.8,0.2,1.7,0.4,2.6,0.5
	l-11.8,34.9l-0.1,6.7c0,2.4,0.7,2.4,1.4,0.1l14.6-43.2l-9.8-0.8C316.6,255.7,317,256.2,319.7,256.8 M320.9,234.6
	c1.8,0.3,5.2,0.8,8.6,1.2l-5.8,17.1l3.7-0.3l6-17.9c0.1-0.3,0.2-0.7,0.3-1l-16.1-0.8C317.7,233.6,318.2,234.2,320.9,234.6
	 M372.7,224.4c2.2-3.2,4.5-6,6.9-8.4c10-10,22.7-15.2,41.8-15.4c-0.6,0-1.3,0-1.9,0c-20.1,0-33.2,5.2-43.5,15.5
	c-2.5,2.5-4.8,5.3-7.1,8.6L372.7,224.4L372.7,224.4z M331.2,230.6l3.7-0.2c3.2-11.4,0.9-14.8-7.8-16.6l3.7-11.1h-3.6l-4.2,12.5
	C332.6,217.3,334.4,219.7,331.2,230.6 M461.6,215.1c1.5,0.3,3.5,0.6,5.7,0.8c-3.2,4-5.8,8.7-7.7,14.2c-1.7,4.8-2.6,9.2-2.9,13.4
	l3.7-0.4c0.3-4,1.2-8.3,2.8-13c2.2-6.3,5.2-11.6,9.2-15.9l-14-0.8C458.4,214.2,458.9,214.6,461.6,215.1 M355.2,262.6
	c1.3-3.8,2.7-7.7,4.2-11.5l-9.6-0.8c0,0.6,0.4,1.1,1.7,1.5c1,0.3,2.2,0.6,3.6,0.8c-1.2,3.3-2.4,6.6-3.6,9.9c-0.7,2-1.4,4.1-2.1,6.2
	l3.7-0.3C353.9,266.5,354.6,264.6,355.2,262.6 M364.2,239.8l-8.3-0.7c0,0.7,0.5,1.1,2,1.5c0.6,0.2,1.3,0.3,2,0.5
	c-1.1,2.4-2.1,4.8-3,7.2l3.8-0.3C361.7,245.3,362.9,242.5,364.2,239.8 M370.6,227.6l-14.7-0.7c0,0.7,0.7,1.3,2,1.5
	c2.1,0.4,5,0.8,8,1.1c-1.4,2.3-2.7,4.9-4.1,7.7l3.8-0.3C367.2,233.5,368.9,230.4,370.6,227.6 M84,303.8l4.6-13.7l-13.5-0.8
	c0,0.7,0.3,1.4,3,1.8c1.8,0.3,3.9,0.6,6.2,0.9l-4,11.9L84,303.8L84,303.8z M352.2,271.7l-10.7-0.8c0,0.7,0.4,1.3,3.1,1.9
	c0.9,0.2,2.1,0.4,3.4,0.7c-3.3,10.4-5.3,18.9-6.4,26.2l3.6-0.2C346.4,291.8,348.7,282.8,352.2,271.7 M499.4,233.4
	c3.6,0.4,9.6,0.9,15.7,1.3c-0.1,2.3-0.2,4.7-0.4,7h3.6c0.3-3.4,0.4-6.3,0.4-9l-22.3-1C496.4,232.7,497.1,233.2,499.4,233.4
	 M395,266.5l-4.2,12.5c9.3,1.5,11.5,2.9,8.8,12.6l3.6-0.1c2.6-10.1,0.4-12.6-8.4-13.9l3.7-11.1H395L395,266.5z M517.8,223l-11.4-0.5
	c0,0.7,0.5,1.2,3.2,1.6c1.2,0.2,3,0.5,4.9,0.7c0.2,1.4,0.4,3,0.5,4.7l3.6-0.1C518.5,227,518.2,224.9,517.8,223 M344.9,302.7
	l-13.9-0.9c0,0.7,0.5,1.3,3.2,1.8c1.6,0.3,4.2,0.7,6.9,1.1c-0.3,4.3-0.1,8.1,0.5,11.4l3.6-0.1C344.5,312.2,344.4,307.8,344.9,302.7
	 M430.6,236c0-1.9,0-3.7-0.1-5.6l-11.3-0.5c0,0.7,0.6,1.3,2.6,1.6c1.4,0.2,3.2,0.4,5.1,0.6c0,1.3,0,2.7,0,4L430.6,236z M491.9,300.4
	l-28.8-1.1c0,0.7,0.5,1.3,3.2,1.6c5.4,0.7,14.4,1.5,21.8,2.1c-0.1,2.5-0.6,5-1.5,7.8l3.7-0.2C491.6,307,492.1,303.7,491.9,300.4
	 M401.3,297.9c0.4-1,0.7-2.1,1-3.2l-21.7-1c0,0.7,0.6,1.2,2.3,1.4c4,0.5,9.8,1.1,15.2,1.5c-0.1,0.4-0.3,0.8-0.4,1.2l-2.4,7.2
	l3.7-0.2L401.3,297.9L401.3,297.9z M468.9,325.2c0.6,0,1.2,0.1,1.9,0.1c8.3,0,14.6-3.6,18.2-11.3l-15.1-0.9c0,0.7,0.5,1.4,3.2,1.8
	c2.2,0.3,4.7,0.6,7.3,0.9C480.9,321.7,475.7,324.7,468.9,325.2 M397.8,308.2l-15.4-0.9c0,0.7,0.6,1.2,2.4,1.5
	c2.6,0.4,5.5,0.9,8.7,1.2l-1.9,5.7l3.7-0.3L397.8,308.2L397.8,308.2z M430,246.8c0.2-2.7,0.4-5.3,0.5-7.6l-22.1-1
	c0,0.7,0.5,1.2,3.2,1.6c4.1,0.5,9.1,1.1,15.2,1.6c-0.1,1.8-0.2,3.6-0.4,5.4H430z M387.1,324.7c1.2-0.1,2.3-0.1,3.4-0.3
	c1.3-0.2,2-0.8,2.5-2.2l1.3-3.7l-9.6-0.8c0,0.6,0.6,1.1,1.9,1.4c0.9,0.2,2.2,0.5,3.6,0.7l-0.8,2.4
	C389,323.5,388.5,324.3,387.1,324.7 M284.9,232.7c0-2.3-0.7-2.3-1.4-0.1l-2.3,6.8l-0.5,36.7l3.6-0.4L284.9,232.7L284.9,232.7z
	 M106.6,224.2l3.6-0.2c1.1-6.6-0.8-8.6-5.4-10.3l3.7-11.1h-3.6l-4.2,12.5C105.8,216.7,107.7,218.3,106.6,224.2 M79.5,237.2
	c5.6,0.6,13.9,1.1,22.7,1.6l-6.4,19l3.7-0.2l7.1-21.1l-30.2-1C76.4,236.3,77.3,237,79.5,237.2 M267.6,222.5l3.8-0.3
	c0.5-5.1-1.6-7-6.8-8.5l3.7-11.1h-3.6l-4.2,12.5C265.6,216.3,267.9,217.8,267.6,222.5 M75.5,277.3c3.2,0.4,8.2,0.9,13.3,1.4L86,287
	l3.7-0.2l3.4-10.3l-20.8-1C72.3,276.4,73.3,277.1,75.5,277.3 M157.7,227.7l-2.9,2.6l5.3-0.2l0.2-0.2c9.4-8.7,8.6-14.8,1-16.3
	l3.7-11.1h-3.6l-4.2,12.5C165.6,216.1,165.8,220.3,157.7,227.7 M210,202.7l-4.2,12.5c5.3,1.6,7.2,3.3,5.8,9.9l3.6-0.2
	c1.5-7.3-0.4-9.4-5.2-11.2l3.7-11.1L210,202.7L210,202.7z M97.3,228c2.1,0.4,4.9,0.8,8.1,1.2c-0.4,1.3-0.8,2.7-1.3,4l3.6-0.1
	c0.7-2.2,1.3-4.1,1.7-5.8L95,226.5C95,227.3,95.6,227.8,97.3,228 M349.8,327c-1.7-2.3-2.9-4.9-3.8-7.8l-20.2-1
	c0,0.7,0.5,1.2,3.2,1.6c3.1,0.4,9.1,1.1,14.1,1.5c0.8,2,1.8,3.9,3,5.6c5,7.1,15.8,11.3,30.8,11.3c0.8,0,1.7,0,2.5,0
	C365,338.1,354.7,333.9,349.8,327 M82.6,307.9l0.3-0.8l-22.2-1c0,0.8,0.6,1.4,3.4,1.7c3.6,0.4,8.5,1,14.3,1.6
	c-3.9,11.1-6.9,13-14.2,14.2L60,336.2h3.6l3.7-11.1C75.5,323.1,78.4,320.4,82.6,307.9 M283.5,327.1l0.2-12.4l-18-0.8
	c0,0.8,0.5,1.3,3.2,1.7c3.1,0.5,7,0.9,11.1,1.3l-0.1,10.3c-0.1,6.8,1.8,9.1,7.5,9.1h3.6C285.3,336.2,283.4,333.9,283.5,327.1
	 M431.2,329.6l4.9-14.6l-10.9-0.6c0,0.9,0.5,1.4,3.1,1.9c1.1,0.2,2.3,0.4,3.5,0.6l-3.7,11c-1.3,3.9-0.4,5.6,5.1,6.9
	C430.5,334.1,430.1,332.8,431.2,329.6 M244.3,305.5l0.2-0.5l-14.4-0.9c0,0.8,0.4,1.2,3.1,1.8c2.2,0.4,4.5,0.8,7,1.1
	c-4.4,12.4-7.5,14.5-16.1,16.6l-4.2,12.5h3.6l3.7-11.1C236,322.8,239.6,319.3,244.3,305.5 M131.1,316.3l-0.1-3.5l-19.3-1
	c0,0.7,0.6,1.4,2.3,1.6c3.8,0.6,8.4,1.1,13.5,1.5v1.3c0.8,16.7,4.1,20.2,18.3,20.2c0.7,0,1.5,0,2.2,0
	C135,336.3,131.9,332.5,131.1,316.3 M172.4,325.1c8.2-2,11.1-4.7,15.2-17.1l-20.1-0.9c0,0.8,0.6,1.4,2.1,1.6
	c3.7,0.6,8.6,1.2,13.5,1.7c-3.8,10.3-6.8,12.2-13.9,13.4l-4.2,12.5h3.6L172.4,325.1L172.4,325.1z M284.2,278.8l-10.3-0.5
	c0,0.7,0.5,1.4,3.2,1.9c1,0.1,2.1,0.3,3.4,0.5l-0.1,9.4l3.6-0.2L284.2,278.8z M156.6,233.4l-17.4-0.8c0,0.8,0.4,1.3,2,1.5
	c2.3,0.4,5.4,0.7,8.4,1l-8.8,8.1l5.6-0.5L156.6,233.4z M245.4,252.2c3.4,0.4,7.9,0.9,12.7,1.3l-3.3,9.8l3.7-0.2l3.9-11.6l-20.2-0.9
	C242.2,251.3,242.6,251.9,245.4,252.2 M254.7,236.9c2.3,0.4,5.3,0.9,8.6,1.5l-3.3,9.9l3.7-0.1l4.1-12.2l-16.2-0.8
	C251.5,236,252,236.4,254.7,236.9 M268.8,232.7c1-2.9,1.7-5.3,2.1-7.4l-9.8-0.8c0,0.8,0.4,1.3,3.1,1.8c0.8,0.2,1.7,0.3,2.7,0.5
	c-0.4,1.7-1,3.7-1.8,6L268.8,232.7z M129.6,277.7c-0.1-1.6-0.8-1.9-1.9-0.8l-1.7,1.5l0.7,17.3l3.6-0.3L129.6,277.7L129.6,277.7z
	 M130.5,298.9l-15-0.7c0,0.8,0.6,1.4,3,1.8c2,0.3,4.9,0.7,8.5,1.1l0.3,8.6l3.6-0.1L130.5,298.9L130.5,298.9z M131.6,245.6
	c0,0.7,0.4,1.4,3.1,1.8c0.4,0.1,0.8,0.1,1.3,0.2l-10.9,10l-2.3,6.7l19.9-18.3L131.6,245.6L131.6,245.6z M205.1,256.1l-44.1-1
	c0,0.8,0.9,1.5,3.4,1.7c11.6,0.8,22.9,1.5,36.2,1.9l-2.4,7l3.7-0.1L205.1,256.1L205.1,256.1z M200.2,229c3.1,0.5,6.6,0.9,9.9,1.3
	c-0.3,1-0.6,2-1,3.1l-1.1,3.2l3.6-0.1l0.7-2c0.8-2.3,1.4-4.3,1.9-6.1l-16.6-1C197.6,228.2,198.4,228.8,200.2,229 M283.7,311.4
	l0.3-18.2l-15.6-0.9c0,0.8,0.5,1.3,3.2,1.8c2.2,0.4,5.2,0.8,8.7,1.2l-0.2,16.4L283.7,311.4L283.7,311.4z M253.2,279l4.3-12.7
	l-11.7-0.8c0,0.8,0.4,1.2,3.1,1.8c1.3,0.3,2.8,0.6,4.4,0.9l-3.7,10.9L253.2,279L253.2,279z M210.6,239.8l-32.3-1
	c0,0.9,1.2,1.5,3.4,1.7c6.5,0.5,15,1,24.5,1.5l-3.6,10.7h3.6L210.6,239.8L210.6,239.8z M94.3,273.2l4.1-12.1l-16.5-0.9
	c0,0.7,0.6,1.1,2.2,1.4c2.4,0.4,6.2,0.9,10,1.4l-3.5,10.4L94.3,273.2z M195.2,285.5l5.5-16.4l-25.5-1.1c0,0.7,0.7,1.4,2.6,1.6
	c5.1,0.6,12.4,1.3,18.5,1.8l-4.8,14.1H195.2L195.2,285.5z"/>
</svg>
