<svg version="1.1" id="Layer_1" xmlns="http://www.w3.org/2000/svg" xmlns:xlink="http://www.w3.org/1999/xlink" x="0px" y="0px"
	 viewBox="0 0 600 600" style="enable-background:new 0 0 600 600;" xml:space="preserve">
<style type="text/css">
	.st0{fill:#FFFFFF;}
	.st1{fill:#555555;}
</style>
<path id="Blue" d="M531.8,295.8L531.8,295.8l47.1-49.5l-22.7-104.8l-100.4-29.8l-10.3,9.5C411.6,110,339.1,96.6,290.6,96.7
	C125.7,97,0.5,187.4,0,298.9c-0.5,116.9,112.9,204.3,292,204.3c125.3,0,253.7-66.9,308-104.9L531.8,295.8z M283.8,241l26.6,1.1v22.1
	h-26.6V241z M206.7,347c-31.9-9.7-57.7-29.9-57.7-46.6c0-24.4,30.5-39.8,57.7-47.6V347z M310.5,358.6h-27.4v-23.2h27.4V358.6z
	 M385.6,343.6v-86.9c39.2,9.5,70.2,29.2,91.5,47.9C447.7,321.5,415.2,335.4,385.6,343.6z"/>
<path id="White" class="st0" d="M514.2,306.7c0,0-71.1,48.5-149.6,63.2V232.1c85.2,10.7,135.6,66.4,135.6,66.4l56.7-58.6l-18.2-82.3
	l-77.5-22.7l-9.8,10.7c-31.5-12.3-96.4-28.2-168.3-28.2c-144.1,0-261.8,81.6-262,182.3c-0.2,98.1,99.7,183,260.8,183
	c148.9,0,256.4-70.9,290.1-89.9L514.2,306.7z M268.4,280.7v-56.4c19.7-1,41.6,0,57,1.9v54.6L268.4,280.7z M325.4,318.1v56.8
	c-16,1.9-40.5,2.4-57,1.2v-58H325.4z M227.5,227.6v144.6c-23.7,0-99.5-27.9-99.5-71.7C128,246.2,205.4,231.2,227.5,227.6"/>
<path id="Red" class="st1" d="M510,327.1c-93.1,54.7-155,65.3-230.6,64.6c-106.2-1-166.7-43.5-166.7-94.1
	c0-45.6,55.5-89.1,168.9-89.1c76.3,0,168.2,20.4,217.4,68.9l40.9-41.7l-14-66.2l-60.3-17.6l-10.9,12.4
	c-33.1-13.2-88.9-31.6-174.8-31.6c-129.7,0-243.4,74.9-243.4,165.6c0,94.7,99,169,239.5,169c142.5,0,226.2-53.7,274.5-79.1
	L510,327.1L510,327.1z"/>
</svg>
