<?xml version="1.0" encoding="utf-8"?>
<!-- Generator: Adobe Illustrator 25.2.3, SVG Export Plug-In . SVG Version: 6.00 Build 0)  -->
<svg version="1.1" id="Layer_1" xmlns="http://www.w3.org/2000/svg" xmlns:xlink="http://www.w3.org/1999/xlink" x="0px" y="0px"
	 viewBox="0 0 600 600" style="enable-background:new 0 0 600 600;" xml:space="preserve">
<style type="text/css">
	.st0{fill:#FFFFFF;}
</style>
<path id="Shield_Outer_Black" d="M69.9,217.6c0,62.3-31.8,76.5-31.8,145.7c0,99.7,77.1,164.9,148.7,183.3
	c36.2,8.8,47.1,9.4,79.8,17.5C269.3,567,300,600,300,600s30.7-33,33.3-35.9c32.7-8,43.6-8.7,79.8-17.5
	c71.6-18.4,148.7-83.6,148.7-183.3c0-69.2-31.8-83.4-31.8-145.7c0-22.5,4.7-44.7,14.1-66l20.3-46.1l-47.9-14.1
	c-14.6-4.3-25.3-15.6-31.9-33.6L463.6,0l-47.2,39c-12.5,10.4-25.1,15.6-37.6,15.6c-16.7,0-35.7-8.1-48.4-20.7L300,3.9L269.6,34
	c-12.7,12.6-31.7,20.7-48.4,20.7c-12.5,0-25.1-5.3-37.6-15.6L136.4,0l-21.1,57.8c-6.6,18-17.3,29.3-31.9,33.6l-47.9,14.1l20.3,46.1
	C65.1,172.9,69.9,195.1,69.9,217.6"/>
<path id="Shield_Outer_White" class="st0" d="M85.5,99c17.1-5,29.6-18,37-38.4l17.3-47.5l38.6,32c12.7,10.5,27.2,17.4,42.7,17.4
	c20.7,0,41.1-10.3,53.9-23l25-24.6l24.9,24.6c12.8,12.7,33.2,23,53.9,23c15.4,0,29.9-6.9,42.7-17.4l38.7-32l17.3,47.5
	C485,81,497.4,94,514.5,99l39.3,11.6l-16.7,37.9c-8.4,19.1-14.8,42.6-14.8,69.2c0,33.6,8.5,53.2,16.8,73.8c7.6,19.2,15,39.1,15,71.9
	c0,91-67.8,156.4-142.9,175.8c-37.1,9.4-54.4,10.3-82,18c-3.6,3.8-29.1,31.4-29.1,31.4s-25.6-27.6-29.2-31.4
	c-27.6-7.7-44.9-8.7-82-18c-58-14.9-111.6-57.3-133-117.8c-6.3-17.8-9.8-37.2-9.8-58c0-68,31.8-80.9,31.8-145.7
	c0-26.6-6.4-50-14.8-69.2l-16.7-37.9L85.5,99z"/>
<path id="Shield_Inner_Black" d="M94.6,236.4c-5.3,51.6-30.8,72.4-30.8,126.9c0,66.9,45.8,137.1,129.4,158.2
	c39.7,10.1,67.2,12.6,87.4,19.9c2.6,2.4,19.4,20.6,19.4,20.6s16.8-18.2,19.4-20.6c20.2-7.3,47.6-9.8,87.4-19.9
	c83.6-21.1,129.4-91.3,129.4-158.2c0-60.7-31.7-79.5-31.7-145.8c0-51.7,24.7-95.4,24.7-95.4s-60.7-5.3-77.1-79
	c0,0-36.3,37.4-73.2,37.4c-47.5,0-78.8-40.4-78.8-40.4s-31.3,40.4-78.8,40.4c-36.9,0-73.3-37.4-73.3-37.4
	c-16.4,73.7-77.1,79-77.1,79s24.7,43.7,24.7,95.4C95.6,224.3,95.2,230.5,94.6,236.4"/>
<path id="Shield_Inner_White" class="st0" d="M95.5,133.7c0,0,41.3-8.3,60.5-60.6c0,0,27.4,25.6,65.2,25.6
	c47.4,0,78.8-33.2,78.8-33.2s31.4,33.2,78.8,33.2c37.8,0,65.2-25.6,65.2-25.6c19.3,52.3,60.5,60.6,60.5,60.6s-17.9,36.5-17.9,83.8
	c0,70.2,31.7,90.5,31.7,145.8c0,77.3-60.2,126.5-116,140.7c-44.2,11.2-73.1,12.5-92.6,21.9c0,0-7,6.5-9.7,9.4
	c-2.7-3-9.7-9.4-9.7-9.4c-19.4-9.4-48.3-10.7-92.5-21.9C142,489.8,81.7,440.6,81.7,363.3c0-55.3,31.7-75.6,31.7-145.8
	C113.4,170.2,95.5,133.7,95.5,133.7"/>
<path id="Black" d="M198.8,483.3c1.3,0.4,2.6,0.7,3.9,1.1c35,8.9,77.9,13.5,90.8,20.9c2.9,2.2,6.5,5.9,6.5,5.9s3.6-3.8,6.5-5.9
	c12.9-7.4,55.8-12,90.8-20.9c48.6-12.4,100.8-55.5,100.8-121c0-32.7-14.3-54.2-23.7-87.1L198.8,483.3z M105.5,335.1L395,117.6
	c-5.2,0.8-10.6,1.3-16.3,1.3c-35.4,0-63-15.5-78.8-27.1c-15.8,11.6-43.4,27.1-78.8,27.1c-23.3,0-43.2-7.9-57.2-15.8
	c-13.1,21.8-29.4,34.4-42.4,41.6c5.6,16.8,12.1,42.7,12.1,72.7C133.7,275.3,113.9,302.4,105.5,335.1 M173.1,473.1L468.8,251
	c-1.5-10-2.4-21-2.4-33.5c0-30,6.5-56,12.1-72.7c-11.1-6.1-24.7-16.3-36.6-32.7L102,367.3C103.6,417.5,136,454,173.1,473.1"/>
<path id="NHL" class="st0" d="M196.4,318.8l31.8,48.6V295l24.9-18.7v114.1l-26.3,19.7l-28.4-43.4v64.8l-24.9,18.7v-91.6
	c0-12.9-12.3-13.3-12.3-13.3L196.4,318.8z M301,240.3v42.2l28.1-21.1v-42.2l24.4-18.3V315l-24.4,18.3v-41.7L301,312.7v41.7
	l-25.6,19.2V282c0-12.9-12.4-13.3-12.4-13.3L301,240.3z M400.2,165.8v85l45-33.8c0,0-1.5,10.9,0,29.1l-70.6,53v-91.6
	c0-12.9-12.4-13.3-12.4-13.3L400.2,165.8z"/>
</svg>
