<?xml version="1.0" encoding="utf-8"?>
<svg version="1.1" id="Layer_1" xmlns="http://www.w3.org/2000/svg" xmlns:xlink="http://www.w3.org/1999/xlink" x="0px" y="0px"
	 viewBox="0 0 600 600" style="enable-background:new 0 0 600 600;" xml:space="preserve">
<style type="text/css">
	.st0{fill:#AAAAAA;}
	.st1{fill:#FFFFFF;}
</style>
<path id="Blue" d="M300,10.6C134.3,10.6,0,140.2,0,300s134.3,289.4,300,289.4S600,459.8,600,300S465.7,10.6,300,10.6L300,10.6z"/>
<path id="Orange" class="st0" d="M300,31.9c-153.9,0-278.6,120-278.6,268.1S146.1,568.1,300,568.1s278.6-120,278.6-268.1
	S453.9,31.9,300,31.9"/>
<path id="Blue_1_" d="M96.6,363.7v-17.5L79.3,331v33.8C84.5,363.4,91,365.2,96.6,363.7 M560.9,284.1c-24.5,8.6-55.1,18.6-78.8,26.8
	c-8-1.3-13.4,3.2-19.1,6.9c-8.4,3.6-19.1,2.2-27.4,5.7c-7.8,6.4-19.3,9.1-28.8,5.1c-2.6-2.9-5.9-6.4-10-5.5
	c-6.3,0.6-7.7,12.1-15.5,6.1c-4.8,2.5-9.1,6.1-14.4,7.4l-8,2l-3,6.5l-2.8,5.9l-1.8,3.9l-2.8,5.9l-1.8,3.9l-2.8,5.9l-1.9,3.9
	l-2.7,5.9l-22.2,47.2c-1.4,3-4,5.1-7.2,5.9l-35.7,8.5c0.2,0.2,0.3,0.3,0.5,0.5l23.6,49.1v-44.8c0-1.2,1-2.2,2.2-2.2
	c0.1,0,0.2,0,0.3,0l12.8,1.5c1.1,0.1,2,1.1,2,2.2v81.1c0,1.2-0.9,2.2-2.1,2.2l-14.3,0.9c-0.9,0.1-1.7-0.4-2.1-1.2l-28-54.5v51.9
	c0,1-0.6,1.9-1.6,2.1c-0.3,0.1-0.6,0.1-0.9,0.1l-12.8-1.8c-1.1-0.2-1.9-1.1-1.9-2.2v-79.6l-15,3.6l11.9,75.2
	c0.1,0.6-0.1,1.2-0.6,1.6c-0.5,0.4-1.1,0.5-1.7,0.3l-14.4-4.7c-0.6-0.2-1.1-0.8-1.2-1.4l-2.7-17l-18.8-6.1l-3.5,14
	c-0.1,0.5-0.4,0.9-0.9,1.1c-0.4,0.2-0.9,0.3-1.4,0.1l-13.8-4.5c-0.9-0.3-1.4-1.2-1.2-2.1l12.3-48l-11.9,2.8c-2.2,0.5-4.3-0.8-4.9-3
	c0-0.1,0-0.2-0.1-0.3l-7.3-48c-0.3-2.2,1.2-4.2,3.4-4.6c0,0,0,0,0.1,0l120.1-16.5c3.5-0.5,6.6-2.7,8.2-5.9l7.6-15.5l2.9-5.8l1.9-3.9
	l2.9-5.8l1.9-3.9l2.9-5.8l0.8-1.6c-5.6-0.4-13.8,3.9-18,4.8c-6.3,1.9-15.9-1.3-18.3,7c-3.7,2.8-9.8,3.5-14.2,1.4
	c-5.2-7.9-14.2-1.3-20.2-1.2c-9.5,1.4-17.1-6.5-25.9-2c-11.5,6.9-25.2-6-34.8,4.9c-6.2,0.5-11.9-2.4-18.5-2c-9.7,0-18.1,3-27.1,4.6
	c-10.2,6.7-24.2,3.5-36,2.6c-5.9,2.4-13.2,1.7-19.7,1.9v64.5c0,3.8-2,4.9-5,0.5L79.3,411v-46.3c-4-2.1-7.4,3-11.1,4.6
	c-3.7,1.8-7-1.3-8.5-4.3c0-1.6-1.1-3.1-2.8-3.9c-1.9-0.3-5.3,0.8-8.2,1.9c-1.2-4.5-2.3-9-3.3-13.6c2.5-1.5,5.5-3.6,4.6-6.4
	c-1.6-3.4-6.1-3.1-7.2-7.1c0.5-4,1.7-9.3,6.5-10.3c3.6-3.4,3.1-10.2,2-14.8c-3.2-4.2-7.6-7.6-5.8-13.6c0-1.6-1.6-3.5,0-5
	c3.9-1.6,7.8,2.1,10.5,4.7c2.6,0.5,3.2-2.4,4.3-3.9c1-2.1-0.6-4.5-2.7-5c-1.8,0.5-3.4-0.8-3.5-2.4c0.7-2.7,1.6-5.3,4.7-6.1
	c3.3-1.2,6.6,0.1,9.3,1.9c3.2,2.9,2.9,7.6,6.1,10c4.2-3.9,1-11.8,5.9-15.5c6.9-3.1,13.7-8.2,22.1-6.9c2.3,4.4,0.7,12.5,8,12.8
	c2-1.8,2.1-6.3,5.9-4.5c3.3,1.3,3,6.9,6.9,6.2c3.9-7.2-3.5-13.2-2.6-20.1c5.2-3.4,12.1-0.5,15.8,3.6c1.7,3.4-4.8,5.3-0.4,8.1
	c6.5-2.4,9.4,5,15.1,3.6c3.7-6.7,11.6-7.6,18.2-5.8c9.7-0.1,15.3,14.4,25.5,8.6c5.5-3.7,16.3,1.5,18-7.4c-0.7-3.9,2.1-7.4,5.4-8.5
	c5.5-1.7,10.6,9.7,15.1,1.1c8.5,3.4,18.5,3.3,27.8,4.8c14.4,7.6,33.3,6.5,49.5,7c14.1,7.5,34.1-3.2,50.3-0.6l7.5-15.3L305,126.5
	v126.6c0,2.2-1.8,4-4,4h-61.5c-1.4,0-2.7-0.7-3.4-1.9l-40.4-67.3v65.2c0,2.2-1.8,4-4,4h-54.8c-1.1,0-2.1-0.4-2.8-1.2
	c-0.8-0.8-1.2-1.8-1.2-2.8v-146c-57.6,46-94.2,115.3-94.2,192.9c0,138.6,117.1,250.9,261.5,250.9S561.5,438.6,561.5,300
	C561.5,294.7,561.3,289.4,560.9,284.1L560.9,284.1z M147.2,418.7c0,3-1.9,5.5-5.7,2.1l-9.1-8.2c-1.9-1.7-2.5-3.3-2.5-5.3v-3.5
	c0-2.1-0.8-3.8-2.1-5l-4.8-4.4c-3-2.7-3.6,1-3.6,1v2.6c0,2.9,1.7,5.2,1.7,5.2l19,24.8c3.9,5,7.1,12.5,7.1,19.8v14.9
	c0,12.9-5.4,18.4-11.7,12.8l-25.9-23.3c-5.3-4.8-7.6-11.8-7.6-15.3v-13.5c0-4.4,0.9-5.8,2.6-4.1l11.3,10.3c1.7,1.4,3.4,4.2,3.4,5.9
	v3c0,2.4-0.2,5.2,1.6,6.5l4.9,4.2c1.8,1.6,4.1,1.9,4.1-0.8v-3.3c0-2-0.5-3.7-1.8-5.3l-22.6-29.5c-2-2.6-3.5-5.3-3.5-9.7v-23.2
	c0-5.6,6.7-13.2,16.4-4.5l25,22.5c1.6,1.4,3.8,4.5,3.8,9.6L147.2,418.7z M186.7,504.5c0,0.8-0.4,1.5-1.1,1.9c-0.7,0.4-1.6,0.4-2.2,0
	L155.8,490c-0.7-0.4-1.1-1.1-1.1-1.9v-80.8c0-0.8,0.4-1.5,1.1-1.9c0.7-0.4,1.6-0.4,2.2,0l12.8,7.6c0.7,0.4,1.1,1.1,1.1,1.9v68.3
	l13.7,8.1c0.7,0.4,1.1,1.1,1.1,1.9V504.5z M380.4,508.1c0,2.2,0,12.6-17.3,15.7l-35,6.3c-0.7,0.1-1.3-0.1-1.8-0.5s-0.8-1-0.8-1.7
	v-80.6c0-1.1,0.8-2,1.8-2.2l35.9-7.1c17.3-3.4,17.3,6.9,17.3,6.9v63.2H380.4z M351.1,391.1v-20.4c0-6.9,16.5-12.4,36.8-12.4
	s36.8,5.6,36.8,12.4v20.4c0,6.9-16.5,12.4-36.8,12.4S351.1,397.9,351.1,391.1 M425.7,427.2c0,0.7-0.4,1.3-1,1.6l-16.6,8.1
	c-0.6,0.3-1,0.9-1,1.6V455c0,0.9,0.7,1.7,1.7,1.8c0.3,0,0.6,0,0.9-0.2l13.5-6.6c0.6-0.3,1.2-0.2,1.7,0.1c0.5,0.3,0.8,0.9,0.8,1.5
	v11.5c0,0.7-0.4,1.3-1.1,1.6l-16.5,7.4c-0.6,0.3-1.1,0.9-1,1.6v15.4c0,0.6,0.3,1.2,0.8,1.5s1.2,0.4,1.7,0.1l13.6-6.1
	c0.6-0.2,1.2-0.2,1.7,0.1c0.5,0.3,0.8,0.9,0.8,1.5v11.5c0,0.7-0.4,1.3-1.1,1.6L392.3,514c-0.6,0.3-1.2,0.2-1.7-0.1s-0.8-0.9-0.8-1.5
	v-81.2c0-0.7,0.4-1.3,1-1.6l32.3-15.8c0.6-0.3,1.2-0.2,1.7,0.1c0.5,0.3,0.8,0.9,0.8,1.5L425.7,427.2z M478.5,462.4l-10,6.8
	c-0.8,0.5-1.8,0.4-2.4-0.4l-15-19.7l-2.8,2v31c0,0.6-0.3,1.1-0.8,1.5l-13.7,9.3c-0.8,0.6-1.9,0.4-2.5-0.5c0,0,0-0.1-0.1-0.1
	c-0.2-0.3-0.3-0.6-0.3-0.9v-80.3c0-0.6,0.3-1.1,0.8-1.5l27-18.6c8.2-5.7,15.5-4.6,15.5,6.6v21.3c0,13.7-10.1,21.3-10.1,21.3l15,19.6
	c0.5,0.6,0.5,1.4,0.1,2C478.8,462.1,478.7,462.3,478.5,462.4L478.5,462.4z M515.5,360.8c0,1.9-0.2,4.6-1.9,6.4l-10.1,10.4
	c-1.2,1.2-1.9,0.4-1.9-0.9v-6.3c0-3.1-1.2-3.1-2.9-1.4l-1.6,1.7c-2.4,2.4-2.4,5.9-2.4,7.3v4.4c0,2.8,0.8,4.7,3.7,5.2l8,1.4
	c3.8,0.7,9,3.2,9,9.3c0,5.1,0,14.1-6.8,23L492.1,443c-6.8,9-13.5,6.5-13.5-6.5v-7.2c0-2.3,0.6-3.7,1.9-4.9l11-11.3
	c1.9-1.9,3.1-1.9,3.1,1.1v3.6c0,4.2,3.3,0.8,4.7-0.6c1.4-1.4,2.2-2.2,2.2-5.6v-2.1c0-2.2-1.7-3.1-4.8-3.8l-9.5-2.1
	c-7.4-1.6-8.6-6.7-8.6-12.4V383c0-6.1,1-11.5,5.5-16.5l17.4-19.2c6.4-7,13.9-8.1,13.9,2.9L515.5,360.8z M225.4,487.5l-5.1-32.1
	l-7.1,28.2L225.4,487.5z M454.5,411.1l-5.6,3.9c-0.5,0.3-0.8,0.9-0.8,1.5v14.3c0,0.7,0.4,1.3,0.9,1.6c0.6,0.3,1.3,0.3,1.8-0.1
	l3.9-2.7c2.1-1.4,3.8-4.8,3.8-7.7v-8.3C458.6,411.1,456.8,409.5,454.5,411.1 M355.6,455.9l-12.9,2.6v54.2l13.6-2.4
	c6.7-1.2,6.7-8.8,6.7-8.8v-40.1C363.1,461.4,363.1,454.4,355.6,455.9 M244.5,70.9c0-2.2,1.8-4,4-4H345c1.6,0,3,0.9,3.6,2.3
	L404.3,189l46.3-94C408,66.1,356.1,49.1,300,49.1c-34.6,0-67.7,6.5-97.9,18.3l42.5,82V70.9H244.5z M428.1,246.9
	c11.1-3.4,21.2-9.3,30.5-17.7c8.3-2.7,17.9-4.3,26.7-3l0.8,1.2c-0.6,3.4-4.9,6-7.8,7.7c-6.3,0.1-13.9-1-18.7,3.8
	c-6.8,7.1-15.3,11.9-21.7,18.8c0.5,2.2,3.1,4,1.6,6.6c-4.8,3.4-12.6,0.8-15.1,7.7c-2.1,13.2-18.7,3-25.2,11.5
	c-3.2,4.2-12.6,9.2-19.7,11.1l-6.8,14.5c7.9,2.8,18.8,7,26.1,5.9c16.9-5.4,23.5-31.2,43.3-29.7c11.1,2,21-1.4,28.7-8.8
	c7.6-2.9,8.2,9.4,15.2,8.1c0.6-4.5,1-10,6.1-11.9c2.4-1,6.3-0.6,6.6,2.6c-5.4,7.6,6.3,10,4.6,17.1c0.9,3,4.5,3,6.9,2.3
	c4-7.7,12.4-8.4,20.1-8.8c6-8.8,20.3-0.6,23.6-13l5.6-1.9c-7.9-65.5-42-123.4-92.1-163.6l-73.9,157.4
	C404.9,260.9,420.6,256.5,428.1,246.9"/>
<path id="White" class="st1" d="M308.4,383.8c-1.6,3.2-4.6,5.4-8.2,5.9l-120.1,16.5c-1.6,0.2-3,1.4-3.3,3c-0.1,0.5-0.2,1.1-0.1,1.6
	l7.3,48c0.3,1.7,1.6,3,3.3,3.4c0.5,0.1,1.1,0.1,1.6,0l11.9-2.8l7.1-27.7c0.2-1,1.2-1.5,2.2-1.3l0,0l23.3,5.7
	c0.7,0.2,1.2,0.7,1.3,1.4l2.1,13.3l15-3.6v-6c0-1.2,1-2.2,2.2-2.2c0.1,0,0.2,0,0.3,0l18.6,2.2c0.5,0,0.9,0.3,1.3,0.7l35.7-8.5
	c3.2-0.8,5.8-2.9,7.2-5.9l22.2-47.2L316,368.4L308.4,383.8z M318.9,362.5l23.2,11.9l1.9-3.9l-23.2-11.8L318.9,362.5z M353.2,350.8
	l-22.8-11.6l-1.2,2.4l-0.8,1.6l22.9,11.7L353.2,350.8z M323.7,352.8l23.1,11.8l1.8-3.9l-23-11.7L323.7,352.8z M404.3,189L348.7,69.2
	c-0.7-1.4-2.1-2.3-3.6-2.3h-96.5c-1.1,0-2.1,0.4-2.8,1.2c-0.8,0.8-1.2,1.8-1.2,2.8v78.4l-42.5-82c-25.3,9.8-48.7,23.3-69.3,39.8v146
	c0,1.1,0.4,2.1,1.2,2.8c0.8,0.8,1.8,1.2,2.8,1.2h54.8c2.2,0,4-1.8,4-4v-65.2l40.4,67.3c0.7,1.2,2,2,3.4,1.9h61.5c2.2,0,4-1.8,4-4
	V126.5l63.2,136.1l-7.5,15.3l-27.3,55.4L356,345l3-6.5l13.8-29.4l6.8-14.5l14-29.8l73.9-157.4c-5.5-4.4-11.1-8.5-16.9-12.4
	L404.3,189z M387.9,383.1c20.3,0,36.8-5.6,36.8-12.4s-16.5-12.4-36.8-12.4s-36.8,5.6-36.8,12.4S367.6,383.1,387.9,383.1"/>
</svg>
