<svg version="1.1" id="Layer_1" xmlns="http://www.w3.org/2000/svg" xmlns:xlink="http://www.w3.org/1999/xlink" x="0px" y="0px"
	 viewBox="0 0 600 600" style="enable-background:new 0 0 600 600;" xml:space="preserve">
<style type="text/css">
	.st0{fill:#AAAAAA;}
	.st1{fill:#FFFFFF;}
	.st2{fill:#555555;}
</style>
<path id="Black" d="M544,187.9c-36.1-36.1-84.1-56-135.2-56c-2.2,0-4.6,0.1-6.9,0.1c4.4-23.9,12.3-46.8,19.6-64.6
	l0.1-0.4c0.3-0.8,0.5-1.7,0.4-2.6c-0.3-2.8-2.6-4.9-5.3-5h-0.4c-2.3-0.1-4.6-0.1-6.9-0.1c-19.1,0-57.3,2.3-97.9,17.6
	c-42.7,16.1-76.8,41.9-101.4,76.9c-10.1,14.4-23.8,37.8-31.3,67.7c-1.5,6-2.8,12-3.9,18h-0.7c-3.1,0.1-6.3,0.2-9.5,0.2
	c-17.8,0-39.1-2-63.3-5.8c-21.7-3.5-57.8-15.5-65.5-18.4c-6.4-2.4-12.7-5-19-7.8l-2.9-1.3l-14-6.2L8.2,217c7,15.3,14.6,29,19.6,36.8
	c19,29.6,42.5,51,71.9,65.2c17.4,8.4,37.5,12.1,48,13.6c7.8,1.1,21.2,2.1,27.5,2.1l0,0h1.2c0.6,2.2,1.2,4.3,1.8,6.5
	c-0.4,0-0.7,0-1.1,0c-12,0-22.8-0.9-36.1-2.9c-11-1.7-21.3-4-31.5-7.1c-4.4-1.4-8.9-2.8-12.7-4.5L81.4,320l8,14.8
	c9.7,18,19.5,32.4,29.9,43.9c5.7,6.3,12.1,11.9,16.5,15.5c6,5,12.8,9.5,20.1,13.4c19.7,10.7,38.3,15.4,60.2,15.4c0.3,0,0.6,0,0.9,0
	h3.7c1.6,2.1,3.3,4.2,5,6.3c-2,0.1-4,0.2-6,0.2c-2.8,0-6.1-0.1-10.2-0.4c-11.1-0.7-29.4-4.7-34.4-7.1l-14.5-6.9l6.7,14.6
	c0.8,1.8,9.8,17.3,22.6,30.1c8.1,8,23,17.6,31,20.9l1.1,0.5c6.1,2.6,22.4,9.5,48.4,9.5l0,0c4.8,0,9.9-0.3,15.2-0.8l4.2-0.4
	c1,0.9,1.8,1.8,2.5,2.7c11.1,14,8.9,19,5.6,26.6c-1.3,2.7-3.7,5.1-6.5,7.8l-0.1,0.1c-1.4,1.3-2.8,2.7-4.1,4.3l-0.4,0.5
	c-2,2.3-1.8,5.8,0.4,7.8c0.2,0.2,0.4,0.4,0.7,0.5c0.9,0.6,1.9,0.9,3,0.9c0.1,0,0.2,0,0.3,0h0.7c8.8-0.5,27-5.5,39.3-20.7
	c5-6.2,8.3-12.1,10.6-17.8c21.3,8.1,44,12.2,67.4,12.2c51.1,0,99.1-19.9,135.2-56s56-84.1,56-135.2S580.1,224,544,187.9"/>
<path id="Gold" class="st0" d="M594.5,323.1c0,49.6-19.3,96.2-54.4,131.3s-81.7,54.4-131.2,54.4c-22.8,0-44.9-4-65.6-11.9
	c0.8-2.5,1.6-5.1,2.2-7.6c1-4,1.6-8.3,2.1-12.9c1.9-0.6,4.5-1.5,9.7-3.9c6.1-2.8,10.1-4.7,10.8-5c13.2,3.7,27,5.6,40.8,5.6
	c40.1,0,77.7-15.6,106.1-43.9c28.3-28.3,43.9-66,43.9-106.1c0-42.4-18.1-83.1-49.6-111.5c0-0.5,0-2.8,0.9-6c0.2-0.8,0.5-1.6,0.7-2.4
	c0.2-0.8,0.5-1.6,0.7-2.3c11.3,11.3,17.9,9.2,18.2,9.1c0.4-0.3,0.9-0.4,1.4-0.4c2.3,0,4.7,2.6,5,2.9l0,0l0,0l0,0l0.2-0.2l0.2-0.2
	l0,0c-0.3-0.4-3-3.6-1.8-6.1c0.1-0.3,2.8-7-9.2-19.7l-0.3-0.3l-0.2,0.4c0,0.1-1.1,2.8-0.1,7.5v0.3c0,0,0.3,2.7-1.2,4.4
	c-0.8,0.9-2,1.4-3.6,1.4l-1.2,0c-2-0.6-3.9-1-5.7-1h-1.2c0.2-0.5,0.5-1.1,0.7-1.7c0.5-1.1,1-2.2,1.2-3.3l0.8-0.1
	c2.2,0,4.6,2,4.9,2.2l0,0V196l0,0l0.2-0.2l0.2-0.2c-0.4-0.3-3.5-3.1-2.6-5.8c0.1-0.3,1.8-7.3-11.8-18.3l-0.3-0.3l-0.1,0.4
	c0,0.1-0.7,2.9,1,7.5l0.1,0.3c0,0,0.8,2.9-0.7,4.7c-0.9,1.2-2.4,1.7-4.5,1.7c-1.2-0.2-2.4-0.3-3.6-0.3c-3.2,0-4.9,0.8-4.9,0.9
	l-0.4,0.2l0.3,0.3c2.8,2.2,5.3,3.8,7.5,5l-0.7,0.3c-0.6,0.2-1.3,0.5-2,0.7c-1.5,0.6-3.1,1.2-4.6,1.8c-1.1,0.5-2.2,1-3.2,1.6
	c-24.1-15.4-52-23.6-80.7-23.6c-3.3,0-6.6,0.1-10,0.3c-0.6-11.7,0.3-23.8,2.1-35.8c2.6-0.1,5.2-0.2,7.9-0.2
	c49.6,0,96.2,19.3,131.2,54.4C575.2,226.9,594.5,273.5,594.5,323.1 M368.1,375.8c8.7,9.3,16.4,17.5,19.4,24c0.2,0.3,0.3,0.7,0.4,1
	c0.1,0.4,0.3,0.8,0.4,1.1c0.1,0.3,0.2,0.6,0.2,0.9c0.5,2,0.8,4,0.9,6.1c0.1,0.9,0.1,1.8,0.1,2.7c0,0.9,0,1.7-0.1,2.6
	c0,0.6-0.1,1.3-0.2,1.9l-0.1,0.6c-0.3,2.1-0.7,3.9-1.1,5.5c2.9-2.4,7-6,10.2-8.9l0.8-0.8c1.1-1,2-1.9,2.7-2.5
	c0.4-0.4,0.8-0.7,1.2-1.1c0.4-0.4,0.8-0.7,1.2-1.1c0.8-0.7,1.7-1.5,2.6-2.3c3.3-2.9,6.7-5.8,9.3-8.7c1.6-1.7,2.9-3.3,3.7-4.9
	l0.3-0.5c0.9-1.7,1.6-2.9,1.5-5c0-0.5-0.1-1.1-0.1-1.6c-0.1-1-0.4-2-0.8-3c-0.7-1.6-1.7-3-3-4.8c-1.4-1.8-2.8-3.6-4.2-5.3
	c-1.6-1.9-3.3-3.8-4.9-5.7c-0.7-0.8-1.4-1.6-2.1-2.3c-0.4-0.5-0.9-0.9-1.3-1.4c-0.3-0.4-0.7-0.7-1-1.1c-0.4-0.4-0.8-0.9-1.2-1.3
	c-0.1-0.1-0.1-0.2-0.2-0.2c-0.3-0.3-0.5-0.6-0.8-0.8c-0.3-0.3-0.6-0.6-0.9-0.9c-5.6-6-9.6-10.4-11.3-15.3c-0.3-0.8-0.5-1.7-0.7-2.5
	c0-0.2-0.1-0.3-0.1-0.5c0-0.1,0-0.1,0-0.2c-0.2-1.3-0.2-2.6-0.1-4c1.8-12.4,17.3-20.8,28.3-6.9l4.3,5.3c0,0,20.2,25.5,31,38.6
	l5.6,6.6c0.2,0.2,0.4,0.4,0.5,0.6c9.1,10.7,25.7,19.2,29.7,21c-0.3-0.3-0.6-0.7-1-1.2c-2-2.4-4.9-6.3-7.3-10.6
	c-0.7-1.2-1.3-2.4-1.8-3.6c-0.1-0.2-0.2-0.5-0.3-0.7c-0.6-1.4-1.2-2.8-1.8-4.2c-1.2-2.9-2.3-6-3.1-9.7c-0.4-1.9-0.8-3.8-1.1-5.7
	l-0.1-0.3c-0.1-0.7-0.2-1.3-0.2-1.9c0-0.4-0.1-0.9-0.1-1.3c-0.1-0.6-0.1-1.3-0.2-1.9v-0.1c0-0.6-0.1-1.3-0.1-1.9c0-0.9,0-1.9,0-2.8
	c0-0.8,0-1.7,0.1-2.5c0.1-1.7,0.2-3.5,0.4-5.2c0.1-0.9,0.2-1.6,0.3-2c-0.8-0.2-1.6-0.4-2.4-0.7c-2.1-0.8-5-2.2-7.6-4.7
	c-1.4-1.4-2.7-2.9-3.6-4.7c-2.7-4.7-5.2-10.4-5.7-20c-0.6,0.4-1.2,0.9-1.8,1.4c-2.8,2.1-5.6,4.3-9.2,6c-1.9,0.9-5.5,2.3-9.8,2.8
	c-0.9,0.1-1.9,0.2-2.9,0.2c-0.8,0-1.6,0-2.4-0.1s-1.6-0.2-2.3-0.4c-10.1-2.3-16.4-7-19.6-14.8c-0.8-1.8-1.3-3.6-1.6-5.5
	c-0.1-0.9-0.2-1.9-0.3-2.8c0-1,0-1.9,0.1-2.9c0.2-2.1,0.6-4.4,1.2-6.7c0.3-1,0.6-2,1-3c0.6-1.5,1.3-2.9,2.2-4.3
	c0.3-0.5,0.6-0.9,1-1.3c0.9-1.1,1.8-2.1,2.9-3c0.7-0.5,1.4-1,2.1-1.5c0.3-0.2,0.5-0.3,0.8-0.4c0.5-0.3,1.1-0.5,1.7-0.8
	c0.4-0.2,0.8-0.3,1.3-0.4c1.3-0.4,2.7-0.6,4-0.6c5.1,0,10,2.4,12.2,6.1c0.1-0.2,0.2-0.4,0.2-0.7c0.6-1.7,1.3-4.4,2.2-7.5
	c2-7.1,4.7-16.7,8.4-25.9c0.6-1.4,1.1-2.7,1.6-4.1c0.4-1.1,0.8-2.1,1.3-3.2c3-7.5,6.3-15,11.1-21c-6.8-4.9-13.2-7.9-18.8-9.8
	c-0.5-0.2-0.9-0.3-1.4-0.5c-8.6-2.7-15.2-2.7-18.1-2.7h-1.1c-11.1,0.1-20.9,1.7-30.1,4.9c-3.4,1.2-6.7,2.5-9.9,4.1
	c-0.8,0.4-1.7,0.8-2.5,1.3c-0.4,0.2-0.8,0.4-1.2,0.6c-7.4,4-14.2,9.1-20.3,15.2l0,0c-8.2,8.2-14.9,18.1-19.6,28.9
	c-1.9,4.3-3.4,8.8-4.6,13.4c-1.3,4.9-2.5,10.1-3,15.9c-0.2,2.4-0.3,4.7-0.3,7.1c0,3.1,0.2,6.3,0.7,9.6c0.2,1.3,0.4,2.7,0.7,4.1
	c0.5,2.4,1.1,4.8,1.8,7.2c1.7,5.7,4.3,11.9,7.9,18.5c1.6,3,3.5,6,5.6,9C350.9,357.5,359.9,367.1,368.1,375.8 M416.6,65.1h-0.4
	c-2.2-0.1-4.5-0.1-6.8-0.1c-18.8,0-56.2,2.2-96,17.2c-41.6,15.7-74.9,40.8-98.8,74.9c-9.9,14-23.2,36.8-30.4,65.8
	c-12,48-8,84.3-4.5,101.7c3.4,16.9,10.8,37.9,19.5,54.8c1.7,3.4,10.6,19,16.5,27.6c6,8.7,12.6,17.1,19.6,25.1
	c9.4,10.7,15.3,16.3,20.1,20.9c1.6,1.5,3,2.9,4.4,4.2c6.8,6.8,14.3,12.6,20.8,17.6c6.7,5.2,12.5,9.6,15.9,13.9
	c13.2,16.7,10,23.9,6.2,32.3c-1.7,3.6-4.6,6.4-7.6,9.4c-1.3,1.3-2.7,2.7-4,4.1l-0.4,0.5h0.7c7.9-0.5,24.2-5,35.3-18.7
	c8.2-10.2,11.5-19.9,13.6-28.1c1.3-5.1,1.8-11.1,2.4-17.5c0.3-3.7,0.7-7.6,1.2-11.4c0.8-6.1,2.7-12.6,5.1-17.7
	c3.9-8.3,8.1-14.6,12.7-19.2c-1.4-1.5-2.8-3-4.2-4.5c-5,5.2-10.9,14.1-13.8,20.9c-5.2,12.2-5.8,19.3-6.3,24.4
	c-0.1,1.4-0.2,2.6-0.4,3.7c-0.2,1.2-0.3,2.8-0.4,4.7c-0.5,7.1-1.4,19.1-8.4,31.8c-4.9,8.9-11.5,15.6-20.2,20.4
	c2.1-3,4.4-9.1,3.7-16.6c-1.3-14.5-12.5-25.7-21.7-32.5c-27.9-20.8-51.2-44.7-69.2-70.8c-17.7-25.7-29.4-52.4-34.9-79.3
	c-6.6-32.8-5.5-67.1,3.3-99.3c8.5-31.1,23.9-59.7,44.6-82.7C274.7,97.1,335,72.4,408.4,71l-0.8,2.4c-3.9,11.2-8,22.7-11.4,35.4
	c-2.6,9.9-4.7,19.8-6.5,30.5c-2.1,12.6-2.8,25.6-2,36.1l5.7-1.3c-2.2-38.3,11.4-80.2,23-108.7L416.6,65.1z M506.8,204.6
	c1-3.7,2.4-6.6,3.3-8.6c0.7-1.5,1.1-2.4,1.1-2.9V193l-0.1-0.1l-0.7-0.1c-4.3,0-22.8,5.1-40.6,20.9c-11.7,10.3-16.1,21.4-19,28.7
	l-0.5,1.2c-7.3,18.3-14,42.9-15.7,52.8c-1.1-4.2-2.6-9-4.3-11.1c-1.6-2-4.4-4.6-8.9-4.6c-0.7,0-1.5,0.1-2.2,0.2
	c-4.4,0.7-8.4,4.3-10.1,9.1v0.1c-1.2,3.2-2.3,6.2-2.1,11.6c0.1,2.9,0.9,6.1,2.1,8.2c4.4,7.4,11.2,11.2,20.2,11.2
	c1.2,0,2.4-0.1,3.6-0.2c3.5-0.3,7.2-1.8,10.8-4.2c8.2-5.5,14.8-12.5,21.8-19.9c4-4.2,8.1-8.6,12.5-12.6c2.7-2.5,9.1-8.3,15.6-12.1
	c4.9-2.8,9.7-4.8,14.5-5.9l0.7-0.4l-0.2-1l-0.2-0.4c-1.6-4.2-2.9-9.6-4.1-16.5c-0.9-5.7-1.5-11.3-1.1-20.3
	C503.2,222.5,504.6,212.6,506.8,204.6 M371.4,452.8c5.3-2.4,10.8-4.9,16.5-7.3c12.6-5.3,21.9-8.6,33.4-11.7s23.1-5.8,38.2-5.9h0.3
	c4.3,0,9.8,0.6,13.6,1.6c-5.2-15.5-23.5-20.9-30.4-22.9c-6.6-1.9-21.8-4.4-26.8-4.9l-0.7-0.1l0.6-0.4c1.6-1.2,2.6-2.3,3.7-3.8
	l0.9-1.1l0.1-0.1h0.1c8.8,1,18.3,3,26.1,5.4c8.2,2.6,15.2,6,20.9,10.2c3.1,2.3,5.8,5.3,8.3,9.2c3.3,5,4.4,12.7,4.4,17.9v0.5
	l-0.4-0.3c-3.9-2.6-7.9-4.1-11.9-4.7c-2.9-0.4-5.9-0.6-9.1-0.6c-8,0-16.9,1.2-27.2,3.7c-9.6,2.3-19.1,5.2-28.9,8.8
	c-11,4-19.7,7.9-31.7,13.2c-1.8,0.8-3.7,1.7-5.5,2.5c-5.9,2.7-11.4,5.2-17.5,7.3c0.2-2.2,0.4-4.5,0.7-6.7
	C356.9,459.4,364.3,456.1,371.4,452.8 M270.3,485.1c-24.9,0-40.4-6.6-46.3-9.1l-1.1-0.5c-7.3-3-21.7-12.3-29.2-19.7
	c-12.1-12-20.8-26.9-21.5-28.5l-0.3-0.7l0.7,0.3c6.2,3,25.3,6.9,36.5,7.6c4.3,0.3,7.6,0.4,10.6,0.4c4.1,0,7.5-0.2,11.2-0.6
	c0.3,0.3,0.5,0.6,0.8,0.9c1.4,1.7,2.9,3.3,4.4,4.9c-3.9,0.4-8.3,0.6-14.2,0.7h-1c-7.3,0-28-1.5-34.1-3.1
	c11.7,15.2,22.2,25.5,40.6,33.1c6.7,2.8,13.8,4.8,21,6.1c7.1,1.2,15.4,1.8,25.2,1.8c1.4,0,2.9,0,4.4,0c2.5,1.9,4.9,3.8,7,5.5
	C280,484.8,275.1,485.1,270.3,485.1 M182.6,352.9c-1.4,0.1-2.9,0.1-4.3,0.1c-12.3,0-28.5-1.5-43.4-4c-13.4-2.2-23.1-4.6-28.1-6.9
	c0.3,0.5,0.7,1.1,1.2,1.9c4.6,7.4,15.2,24.7,29,36.1c12.1,10,27.1,21,46.9,26.6c9.4,2.7,17.2,4,29.2,4.9c1.4,2,2.8,3.9,4.2,5.8
	c-0.4,0-0.9,0-1.3,0c-21,0-38.7-4.6-57.6-14.8c-7-3.8-13.4-8.1-19.2-12.8c-4.2-3.5-10.4-8.9-15.9-14.9
	c-10.1-11.2-19.7-25.2-29.2-42.8l-0.4-0.7l0.7,0.3c4,1.8,8.8,3.3,13.3,4.7c10.4,3.2,21,5.6,32.3,7.3c13.6,2.1,24.7,2.9,36.9,2.9
	c1.1,0,2.3,0,3.5,0C181.2,348.8,181.9,350.8,182.6,352.9 M129.1,249.6h-0.4c-25.2-2.6-53.6-9.4-70.3-14.4
	c-12.1-3.6-23.5-7.6-34.1-11.8l-0.4-0.2c3.6,7.9,7.9,15.7,12.7,23.3c12.9,20.4,28.3,36.9,45.6,49.1c22.6,15.9,48,22.5,55.2,23.9
	v-0.1h0.2h0.1l0.9,0.2c3.1,0.6,19.2,3.7,32.4,3.7c1.1,0,2.1,0,3.2-0.1c0.1,0.7,0.3,1.5,0.4,2.2c0.3,1.3,0.5,2.6,0.8,3.9
	c-0.2,0-0.3,0-0.5,0c-6.1,0-19.1-1-26.7-2.1c-10.1-1.4-29.6-5-46.3-13.1c-28.5-13.8-51.3-34.5-69.7-63.2
	c-5.1-7.9-12.5-20.9-19.4-37.7l-0.3-0.7l0,0v-0.1l-0.3-0.6l0.6,0.3H13v0.1c7.2,3.2,14.2,6.1,20.9,8.6c7.9,3,44.5,15.2,66.6,18.7
	c24.5,3.9,46.1,5.9,64.2,5.9c3.4,0,6.6-0.1,9.7-0.2c-0.3,1.9-0.6,3.8-0.9,5.7c-4.7,0.5-9.6,0.8-14.9,0.8
	C148.2,251.6,138.1,250.5,129.1,249.6"/>
<path id="White" class="st1" d="M521.6,362.9l-2,8.7l5.6,23.7c0,0-16.4,2.6-23.8,3.7c-2.3,7.6-13.5,37.2-13.5,37.2l-2.3-1.1
	c-1.6-16.2-10.1-24.5-19.7-30.7c-5.4-3.5-11.6-5.9-17.5-7.7c-8-2.5-16.2-4.1-24.6-5.3c1.4-3.4,1-7.5,0-10c-1.7-4.2-4.3-7.1-6.6-10
	c10.3-1.8,11.5-9,11.1-13.5c-1.3,2.3-6.8,11.6-14.9,9.7c-16.7-19.6-19.5-20.7-21.1-27.1c-1.2-4.5,1-10.3,5.7-13.6
	c8.7-5.4,14.1,0.1,22.9,11.2c4.7,5.9,21.6,28.3,32.7,40.9c8.5,9.6,17,15.9,27.5,21.4c5.8,3,12.5,5.3,12.5,5.3l1.4-2.2
	c0,0-8.2-8.2-13.5-18.7c-2.6-5.1-4.5-10.6-5.8-15.9c-3.1-13.2-0.1-26.9-0.1-26.9s-7.8,1.3-15.1-9.4c-1.9-2.8-3.7-9.4-4.3-13.5
	c-0.4-3-0.7-5.3-0.7-7.8c13.4-12.2,31.6-34,38.5-35.6c2.1,4.4,32.5,68.9,32.5,68.9l-6.8,3.3v7.4l-17.8,13.1L521.6,362.9z"/>
<path id="Red" class="st2" d="M315.4,513.7c0.1-0.4,0.1-0.8,0.1-1.1c0.9-8.6-1.6-14.6-4-19.6c-2.3-4.7-5.2-8.2-8.1-11.5
	c-5.1-5.8-11.7-10.9-15.3-13.4c-0.6-0.4-60.7-43.9-86.6-106.9c-19.9-48.3-17.5-91.4-12-119.1c1.8-9.1,4.1-17.7,7.1-26.9l0.1-0.3
	c10.8-33.1,27-55.8,38.8-69.1c38-43,98.9-68.9,167.6-71.3c-5,12.4-9.6,27.6-13.6,45.4c-0.8,3.3-7.3,32.6-5.6,56.4
	c-21.1,6.3-40,16.5-56.3,30.5c-11.3,9.7-21.3,22.4-28.2,35.7c-8.8,16.9-10.5,30.6-11.7,40.6c-0.1,1.2-0.3,2.3-0.4,3.5
	c-1.9,14.4,2.8,50.9,22.8,74.1c5.5,6.4,13.1,15.8,22.8,27.8l0.1,0.2c6.4,8,13.7,16.9,21.8,26.9c-2.9,2.9-9.5,9.9-15.2,23.5
	c-2.9,6.8-4.7,13.4-5.4,19.5c-0.3,2.4-0.5,5-0.7,7.6c-0.6,7.3-1.2,15.6-3.8,23.7c-1.7,5.5-3.7,9.9-6.2,14
	C321.2,507.5,318.3,511.1,315.4,513.7"/>
<path id="Black_1_" d="M514.9,342l-13.6,8.3l0.3,0.8l22.7-5.5L514.9,342z M499.9,311.1c0,0-0.2-3.5-1.1-4.9s4.1-3.5,4.1-3.5
	l-2.6-1.4l-0.6,1.1l-11.7,4.1l-9.7,8l8.4-2.7l17.2,2.2L499.9,311.1z M452.8,163.7c0.6-1.1,1.8-1.7,3.6-1.7c1.5,0,2.9,0.4,3.1,0.5
	h0.1l0.1-0.3v-0.3c-0.5-0.1-4.5-1.5-4.7-4.3c0-0.3-1.3-7.4-18.2-12l-0.4-0.1l0.1,0.4c0,0.1,0.6,2.9,3.9,6.5l0.2,0.2
	c0,0,1.8,2.3,1.3,4.6c-0.3,1.4-1.5,2.6-3.4,3.4c-5.4,1.3-7.5,3.8-7.6,3.9l-0.3,0.3l0.4,0.1c4.3,1.1,8.2,1.7,11.5,1.7
	C450.3,166.8,452.7,163.9,452.8,163.7 M477.1,169.9c1.8,0,3.7,0.8,4,1h0.1l0.1-0.3l0.1-0.3c-0.4-0.2-4.2-2.1-4.1-4.9
	c0-0.3-0.3-7.6-16.4-14.4l-0.4-0.2v0.4c0,0.1,0.1,3,3,6.9l0.2,0.3c0,0,1.5,2.5,0.6,4.8c-0.5,1.4-1.8,2.3-3.9,2.9
	c-5.5,0.6-7.9,2.8-8,2.9l-0.3,0.3l0.4,0.2c5.6,2.3,10.5,3.5,14.6,3.5c5.1,0,7-1.8,7.1-1.9C474.9,170.3,475.8,169.9,477.1,169.9
	 M498.3,176.3c0-0.3,0.8-7.5-14.2-16.5l-0.4-0.2v0.4c0,0.1-0.3,3,2,7.3l0.1,0.3c0,0,1.1,2.7,0,4.8c-0.7,1.3-2.2,2.1-4.2,2.3h-0.7
	c-5.1,0-7.5,1.7-7.6,1.7l-0.4,0.2l0.4,0.2c8,4.7,13.4,5.7,16.5,5.7c3.3,0,4.7-1,4.8-1.1c0.6-0.6,1.3-0.9,2.3-0.9
	c2,0,4.3,1.4,4.6,1.6l0,0l0.1-0.2l0.1-0.3C501.2,181.5,497.8,179.1,498.3,176.3 M544,227.7l1-0.2c2.5,0,4.7,3.2,4.9,3.6l0,0l0.2-0.2
	l0.2-0.2c-0.3-0.4-2.5-4-0.9-6.3c0.2-0.3,3.7-6.6-6.4-20.8l-0.3-0.4l-0.2,0.4c-0.1,0.1-1.5,2.6-1.1,7.5v0.3c0,0.2-0.1,5.2-4.5,5.2
	c-0.7,0-1.4-0.1-2.2-0.3c-3.4-1.6-6-1.9-7.2-1.9c-0.7,0-1.1,0.1-1.1,0.1l-0.4,0.1l0.3,0.4c8.3,11.6,14.6,12.9,16.9,12.9L544,227.7z
	 M555.7,247.1l0.7-0.1c2.6,0,4.6,3.8,4.8,4.3l0,0l0.2-0.1l0.2-0.2c-0.2-0.4-1.9-4.3,0-6.4c0.2-0.2,4.6-6-3.4-21.5l-0.2-0.4l-0.3,0.3
	c-0.1,0.1-1.8,2.4-2.1,7.2v0.3c0,0.2-0.7,4.5-4.5,4.5c-0.9,0-1.9-0.2-2.9-0.7c-4.2-2.8-7.3-2.9-7.9-2.9h-0.5l0.2,0.4
	c7.7,14.7,14.8,15.1,15.6,15.1L555.7,247.1z M564.7,268h0.3c2.8,0,4.3,4.4,4.5,4.9v0.1l0.3-0.1l0.3-0.1c-0.1-0.5-1.3-4.5,0.9-6.3
	c0.2-0.2,5.4-5.3-0.4-21.8l-0.1-0.4l-0.3,0.3c-0.1,0.1-2.1,2.1-3.1,6.9l-0.1,0.3c0,0-1.2,3.9-4.4,3.9c-1,0-2.2-0.4-3.4-1.1
	c-4.2-3.7-7.4-4-7.5-4h-0.4l0.2,0.4C557.1,267.3,564.3,268,564.7,268 M566.9,275.7c-3.6-4.2-6.8-5-6.9-5l-0.4-0.1l0.1,0.4
	c3.6,17.1,10.6,18.8,11,18.8c3.1,0.1,4,4.9,4.1,5.5v0.1h0.3l0.3-0.1c-0.1-0.5-0.7-4.6,1.7-6.1c0.2-0.2,6.1-4.5,2.6-21.6l-0.1-0.4
	l-0.3,0.3c-0.1,0.1-2.4,1.8-4,6.4l-0.1,0.3c0,0-1.5,3.3-4.4,3.3C569.5,277.4,568.2,276.8,566.9,275.7 M432.9,156.6
	c0.6-9.1-27.4-1.8-27.4-1.8S432.3,165.4,432.9,156.6 M416.5,489.5l0.1,0.3l0,0l0,0v-0.6h-0.2c-0.9,0-5.4-0.1-6.1-3
	c-0.1-0.3-3.1-6.9-20.6-7h-0.4l0.2,0.4c0.1,0.1,1.4,3.1,6.2,5.7c1.7,1.3,2.5,2.8,2.4,4.2c-0.1,2.4-2.4,4.1-2.4,4.1l-0.2,0.1
	c-4.2,2.5-5.5,5.1-5.6,5.3l-0.2,0.4h0.6c17.3,0,20.4-6.5,20.5-6.8c1-2.6,5.2-2.9,5.7-2.9V489.5z M439.5,487.3V487V487.3L439.5,487.3
	L439.5,487.3v-0.6h-0.1v0.2v0.1v-0.3c-0.2,0-1,0.1-1.9,0.1c-1.8,0-4-0.4-4.7-2.2c-0.1-0.2-2.9-4.6-14.3-4.6c-2.2,0-4.6,0.2-7.1,0.5
	l-0.4,0.1l0.2,0.4c0.1,0.1,1.8,2.8,7,4.8c1.8,1.1,2.8,2.4,3,3.8c0.3,2.4-1.8,4.4-1.8,4.4l-0.2,0.2c-3.8,3.1-4.6,5.8-4.7,5.9
	l-0.1,0.4l0.4-0.1c17.3-2.4,19.5-9.3,19.5-9.6C434.9,488.2,439,487.4,439.5,487.3L439.5,487.3z M461.9,481.1L461.9,481.1
	c-0.3,0.1-1.8,0.5-3.3,0.5c-1.8,0-3-0.6-3.6-1.7c-0.1-0.1-2.5-2.9-9.9-2.9c-3.4,0-7.4,0.6-11.9,1.8l-0.4,0.1l0.3,0.3
	c0.1,0.1,2.2,2.6,7.6,3.8c2,0.8,3.1,2,3.5,3.4c0.6,2.3-1.2,4.6-1.2,4.6l-0.2,0.2c-3.3,3.6-3.8,6.4-3.9,6.5l-0.1,0.4l0.4-0.1
	c16.8-4.7,18-11.9,18-12.2c0.2-2.8,4.2-4.2,4.7-4.3l-0.1-0.3l0.1,0.2l0,0l0,0V481.1z M483.4,472.4L483.4,472.4v0.2v0.1V472.4
	c-0.4,0.2-2.3,1-4.2,1c-1.3,0-2.2-0.4-2.8-1.2c-0.1-0.1-2-1.8-6.8-1.8c-4.1,0-9.1,1.2-14.8,3.7l-0.4,0.2l0.3,0.3
	c0.1,0.1,2.5,2.2,8,2.7c2.1,0.6,3.4,1.5,3.9,2.9c0.9,2.2-0.6,4.7-0.6,4.8l-0.1,0.2c-2.9,4-3,6.9-3,7.1v0.4l0.4-0.2
	c16-7,16.2-14.3,16.2-14.6c-0.2-2.8,3.6-4.7,4-4.9l-0.1-0.2l0.2,0.2l0,0l0,0L483.4,472.4z M503.4,460.8L503.4,460.8l0.1,0.2v0.1
	L503.4,460.8c-0.3,0.2-2.6,1.7-4.7,1.7c-0.9,0-1.7-0.3-2.3-0.9c-0.1,0-1.5-1-4.6-1s-8.6,1-16.6,5.9l-0.4,0.2l0.4,0.2
	c0.1,0.1,2.5,1.6,7.3,1.6h1c2.1,0.3,3.6,1,4.3,2.3c1.2,2.1,0.1,4.8,0.1,4.8l-0.1,0.2c-2.3,4.4-2,7.3-2,7.4l0.1,0.4l0.4-0.2
	c14.9-9.2,14.1-16.4,14-16.7c-0.6-2.8,2.9-5.2,3.3-5.4l-0.1-0.2l0.2,0.2l0,0l0,0L503.4,460.8z M521.6,446.6L521.6,446.6L521.6,446.6
	c-0.3,0.3-2.7,2.3-4.9,2.3c-0.7,0-1.3-0.2-1.8-0.6c0,0-1-0.5-2.9-0.5c-3.3,0-9.1,1.4-17.4,8.3l-0.3,0.3l0.4,0.2
	c0.1,0,1.7,0.8,4.7,0.8c1.2,0,2.5-0.1,3.7-0.4h0.2c2.1,0,3.6,0.6,4.4,1.7c1.5,1.9,0.8,4.7,0.7,4.7v0.2c-1.7,4.7-1,7.5-0.9,7.6
	l0.1,0.4l0.3-0.3c13.5-11.1,11.7-18.1,11.6-18.5c-0.9-2.7,2.2-5.5,2.5-5.8l-0.2-0.2l0.2,0.2l0,0l0,0L521.6,446.6z M537.7,430
	L537.7,430c-0.3,0.4-2.7,3-5,3c-0.5,0-1-0.1-1.4-0.4c0,0-0.6-0.2-1.6-0.2c-2.8,0-8.9,1.4-17.5,10.7l-0.3,0.3l0.4,0.1
	c0,0,0.9,0.3,2.6,0.3c1.8,0,3.8-0.3,5.9-1c2.2-0.3,3.9,0.1,5,1.2c1.5,1.7,1.2,4.4,1.2,4.4v0.3c-1,4.8,0.1,7.4,0.2,7.5l0.2,0.4
	l0.3-0.3c11.8-12.9,9.1-19.6,8.9-19.9c-1.3-2.5,1.4-5.8,1.7-6.1l-0.2-0.2l0.2,0.1l0,0l0,0L537.7,430z M551.4,411.3L551.4,411.3
	c-0.3,0.4-2.5,3.7-5,3.7l-1.1-0.2h-0.6c-1.8,0-8.4,0.9-16.8,13.1l-0.2,0.4l0.4,0.1c0,0,0.3,0.1,1,0.1c1.3,0,3.9-0.3,7.3-2
	c0.8-0.3,1.6-0.4,2.3-0.4c4.4,0,4.5,4.9,4.5,5.1v0.2c-0.3,4.9,1.1,7.4,1.2,7.5l0.2,0.4l0.2-0.4c9.9-14.4,6.3-20.6,6.1-20.9
	c-1.6-2.3,0.6-5.9,0.8-6.3l0,0l-0.2-0.1l0.3,0.1l0,0l0,0L551.4,411.3z M562.8,391.2l-0.2-0.1L562.8,391.2L562.8,391.2L562.8,391.2
	l-0.5-0.3l0,0c-0.2,0.4-2.1,4.3-4.8,4.3l-0.7-0.1h-0.1c-0.8,0-7.8,0.4-15.4,15.3l-0.2,0.4h0.5c0.6,0,3.7-0.1,7.9-3
	c1.1-0.5,2.1-0.8,3-0.8c3.7,0,4.4,4.3,4.5,4.5l0.1,0.3c0.4,4.8,2.1,7.1,2.2,7.2l0.3,0.3l0.2-0.4c7.8-15.6,3.4-21.3,3.1-21.6
	C560.9,395.5,562.6,391.6,562.8,391.2 M570.7,370.4L570.7,370.4l-0.3-0.1L570.7,370.4L570.7,370.4L570.7,370.4l-0.5-0.2v0.1
	c-0.2,0.5-1.7,5-4.5,5h-0.4c-0.3,0-7.5,0.7-13.3,17.2l-0.1,0.4h0.4c0.1,0,3.4-0.4,7.5-4c1.2-0.8,2.4-1.2,3.4-1.2
	c3.2,0,4.4,3.8,4.4,3.9l0.1,0.2c1,4.8,3.1,6.9,3.2,7l0.3,0.3l0.1-0.4c5.7-16.5,0.5-21.6,0.3-21.8
	C569.4,374.9,570.5,370.9,570.7,370.4 M577.4,354.8c-2.4-1.5-1.8-5.6-1.7-6.1h-0.3h0.2h0.1l0,0l0,0l-0.5-0.1v0.1l0,0
	c-0.1,0.6-1,5.5-4.2,5.5c-0.3,0.1-7.4,1.7-10.9,18.8l-0.1,0.4l0.4-0.1c0.1,0,3.3-0.8,6.9-5c1.3-1.1,2.6-1.7,3.8-1.7
	c2.9,0,4.4,3.3,4.4,3.3l0.1,0.2c1.6,4.7,4,6.4,4.1,6.5l0.3,0.3l0.1-0.4C583.5,359.4,577.7,355,577.4,354.8 M362.1,482.6
	c0,0,25.2,14.4,27,5.4C390.8,479.3,362.1,482.6,362.1,482.6 M577.3,313.3c-4.7-0.1-8.6,3.7-8.6,8.4c-0.1,4.7,3.7,8.6,8.4,8.6
	c0.1,0,0.2,0,0.3,0c4.7-0.1,8.4-3.9,8.4-8.6C585.7,317.1,581.9,313.4,577.3,313.3"/>
</svg>
