<svg version="1.1" id="Layer_1" xmlns="http://www.w3.org/2000/svg" xmlns:xlink="http://www.w3.org/1999/xlink" x="0px" y="0px"
	 viewBox="0 0 600 600" style="enable-background:new 0 0 600 600;" xml:space="preserve">
<style type="text/css">
	.st0{fill:#FFFFFF;}
	.st1{fill:#AAAAAA;}
</style>
<path id="Black_2_" class="st0" d="M197.4,14.7c-15.3,0-31.7,10.2-49.1,21c-1.6,1-3.2,2-4.9,3c-18.4,11.3-23.6,25-27.8,35.9
	c-0.5,1.3-1,2.6-1.5,3.8c-2.4,6-12,16-19.4,23.5H13.3H0l6.6,11.5l165.6,288.1h-119h-4.5l-2.2,4l-23.6,42.4l-6.4,11.4h13.1h151.8
	c6.5,0,14.3-2.7,20.2-6.8l69.5,121.1l6.7,11.6l6.7-11.6L351,457.9h53.6h7.7v-7.7v-12v-7.7h-4.2v-4.6c0-12-10.4-26.2-14.4-31.2
	l-1.5-8.2l16.3-28.3l86.3-31.8c13.3-4.9,18.8-18.2,21-27c0.1,0,0.2,0,0.3,0c4.8,0,13.1-1.5,19.6-10.7c5.9,1.6,14.7,3.7,21.1,3.7
	c11.6,0,23.2-6.5,25.4-18.9c4.5-3.5,12.3-10.6,15.5-20.9l2.3-7.2l-7.2-2.4l-99.3-33l55.6-96.7l6.6-11.5h-13.3h-21.6
	c-1-5-3.8-10.1-8.2-14.5c-5.5-5.5-12.2-8.6-18.5-8.6c-4.2,0-7.9,1.4-10.6,4.1l0,0l0,0c-2.6,2.6-4,6.1-4.2,9.9l-1.5,1.6
	c-3-3.6-7.8-7.1-15.4-9.7c-0.4-0.7-0.7-1.5-1.1-2.2c-5.3-11-11.8-24.8-26.4-24.8c-6.8,0-12.8,2.6-16.9,5
	c-11.1-9.2-40.2-30.5-69.5-30.5c-18.3,0-39.2,9.5-57.7,17.9c-12,5.5-24.4,11.1-30.5,11.1c-5.2,0-13.1-9.3-20.1-17.5
	C228.6,30.1,215.6,14.7,197.4,14.7L197.4,14.7z M454.1,278.5l25.5-44.4l2.2,0.7c-1.2,0.9-2.3,2-3.2,3.5c-2.7,4.2-3.9,10.4-3.9,20.2
	c0,10.8,1.4,17,2.3,21.1c0.3,1.5,0.7,2.9,0.7,3.6c0,0.1,0,0.4,0,0.6c-2.3,0.4-6.7,0.7-13.1,0.7C462.4,283,459.1,280.8,454.1,278.5
	L454.1,278.5z"/>
<path id="Black" d="M481.9,226.7l13.3,4.4l-0.1,8.5c-7-0.2-12.7-1.6-12.7,18.9c0,15.3,3,20.3,3,24.7c0,7.4-0.7,9-23.8,9
	c0,0-3.7-4.4-16.4-9.2c0,0-0.2-1.3-0.8-3.3l97.9-170.3h-29.7c2.2-4.2,0-11.3-5.5-16.7c-6.3-6.3-14.4-8.2-18.3-4.4
	c-1.7,1.7-2.3,4.4-1.7,7.3L475,108.4c0.3-1.9,1-12-18.1-17.5c-5.8-11.3-10.6-25.7-22-25.7c-9.4,0-17.4,7-17.4,7s-35-32.5-69-32.5
	c-29.6,0-70.3,29-88.2,29c-19.1,0-36-46.4-62.9-46.4c-14.4,0-31.5,11.5-49.9,22.9c-18.3,11.2-21.7,24.8-26.3,36
	c-3,7.4-12.4,17.3-23.3,28.3H13.3l172,299.1c-1.3,0.2-2.5,0.5-3.8,0.5H53.2l-23.6,42.4h151.8c6.4,0,15.3-3.8,19.6-8.7l2.4-2.7
	l74.3,129.6L346.5,450h58.1v-12h-13.9l-2.4-7.7h2.1l10-4.6c0-11.5-13.9-27.9-13.9-27.9l-2.3-13l19.1-33.1l88.9-32.8
	c15.8-5.9,17.5-28.8,17.5-28.8s14.4,6.8,22.4-10.8c0,0,16,5.1,24.7,5.1c7.6,0,18.1-4,18.1-15.5c0,0,11.7-6.9,15.5-18.9l-104.7-34.6
	L481.9,226.7z"/>
<path id="White" class="st0" d="M490.7,100.6c3.7,0,5.8,1.4,5.8,3.5s-7.4,11.7-16.7,11.7c-2,0-2.4-1.1-2.4-1.6
	C477.3,111.1,487,100.6,490.7,100.6L490.7,100.6z M482.8,120.7c8.7,10.4,8.9,21.8,8.9,21.8l-11.4-20.1
	C480.3,120.3,482.8,120.7,482.8,120.7 M477.5,127.6c0,0,12.6,13.9,12.6,21.8c0,4.3-3.5,2.5-3.5,2.5l-12.2-18.3L477.5,127.6z
	 M479.5,161.3c-6,0-11.7-16.3-11.7-16.3s0.6-3.3,3.8-3.3C481.8,150.5,479.5,161.3,479.5,161.3 M459.1,152.7
	c10.2,0,14.1,18.6,13.3,21.8C462.5,174.6,459.1,152.7,459.1,152.7 M462.7,186c-14.3,0-21.6-26-21.6-26s0.3-3.7,10.5-2.8
	C451.4,157.3,465.9,171.9,462.7,186 M472.2,120.9c0,13-15.1,29-22.6,29c-3.9,0-4.5-3.1-4.5-3.1s9.4-19.9,23.2-28.7
	C468.2,118.1,472.2,118.2,472.2,120.9 M458.8,100.8c6.3-3.6,15.5,8,6.6,12.5c-13,6.4-27,33.4-27,33.4c-6.3,1.1-8.7-2.8-8.7-2.8
	S432.7,117.8,458.8,100.8 M300,326.7c-4.8,5.5-18.5-3.9-13.4-9.4L429,167.6c5.3-5.3,12.2,1.3,7.3,6.8L300,326.7z M309.7,344.1
	l-1.3,4l-4.8-0.8l0.8-7.2C307.3,339.5,308.4,343.3,309.7,344.1 M295,337.1c4.8,0,4.7,7,4.7,18.7c0,7.7-3,11-5,11
	c-3.7,0-3.6-5.7-4.6-7.6c0,0,1.5-2,1.5-6C291.8,349.2,289.6,337.1,295,337.1 M228.7,323.2c-3.2,3.2-8.9,2.8-8.9,2.8
	s-15.7-13.8-6.1-26.9C223.7,305.2,228.7,323.2,228.7,323.2L228.7,323.2z M221.2,294.4c0-6,12.6-10,12.6,1c0,14,2.8,13.8,2.8,15.8
	c0,2.7-5.1,0.8-5.1,0.8C231.3,307.6,221.2,300.4,221.2,294.4L221.2,294.4z M247.5,321.5c6.1,0,3.9,7.8,3.9,7.8
	c-11-2.7-27.2,12.9-27.2,12.9s-1.1-2.4-1.1-5.2C223.1,331.9,235.1,321.5,247.5,321.5L247.5,321.5z M238.8,293.4
	c0-8.1,7.6-11.9,7.6,10.5C243.8,306.6,238.8,302.3,238.8,293.4L238.8,293.4z M233.4,343c10.2,32.7,19.4,50.3,19.4,50.3l-3.7,1.9
	c0,0-18.5-13-21.1-43.9L233.4,343z M240.8,339c17.9-9.8,24.9,20.1,24.9,20.1c0,28.6-2.8,33.4-2.8,33.4
	C258.8,391.3,248.9,372,240.8,339 M259.4,314.3c-2,1.1-6.3,1.3-6.3-5.2c0-6.3-2.1-15.3,0.8-21.5
	C263.6,292.2,256.8,309.3,259.4,314.3 M258.3,328.3c0-2.1,2.7-5.7,7.7-5.7s9.8,0.9,9.8,6.3c0,6.6-8,11.1-9.4,11.1
	C264.1,340,258.3,333.8,258.3,328.3 M263.8,290.9c0,0,7.7-0.8,7.7,8.8c0,3.8,0,10,0.3,12.8c-1.7,2.7-6.8,0.6-6.8,0.6
	S262.4,298.9,263.8,290.9 M272.9,351.4c0,0,10.5-10.5,10.5,14.8c0,21.3-14.3,32.1-14.3,23.7C268.9,384.7,274.3,385.2,272.9,351.4
	L272.9,351.4z M278,298.3c0,0,5-2.3,5,8.1c0,10.5-1.1,9.8-2.7,10.7C280.3,317,276,310.6,278,298.3 M282.9,344.8
	c-1.5,0-4.2-1.6-4.2-3.8c0-6.5,1.7-10.3,5-10.3c1.9,0,2.8,2.1,2.8,4.3C286.4,342.4,284.1,344.8,282.9,344.8 M426.5,154.3
	c0,0,5-2.2,7.8,6.7c-4.5-0.2-7.2,1.7-7.2,1.7S424.5,157.3,426.5,154.3 M440.6,71.4l5.5,11.9c-5.9,0-9.9-8.8-9.9-10.6
	C436.2,70.5,440.1,70.2,440.6,71.4 M428.2,72.1L445.7,96c0,0-1.3,2.9-3.8,0.2l-19-20.3C422.9,75.9,423.9,72.1,428.2,72.1 M419.5,81
	l20.9,23.9c1.1,1.1-2.7,4.2-4.8,2.1l-23.7-23.2C411.8,83.7,416.7,77.7,419.5,81 M407,89c3.6,0,26.1,17.3,26.1,22.5
	c0,0.6-1.6,2.9-2.7,2.2l-28.5-20.3C401.9,93.4,403.4,89,407,89 M397.2,100.2c11.1,5,20.8,11.2,30.7,17.8c1.6,1.1-1,6.3-2.5,5.4
	l-30-16.3C395.2,107.3,394.4,103.9,397.2,100.2 M393.7,113.7c6.1,1.7,26.2,12.8,28.7,14.5c2.2,1.4-1,4.7-2,4.3l-28.3-13.3
	C392.2,119.4,390.3,117.3,393.7,113.7 M388.3,125.3c11.3,3.2,25.5,10.7,25.5,10.7c-20,1-26.2-8.4-26.2-8.4L388.3,125.3z
	 M261.7,122.4c42.6,0,89.8,40.5,122.2,85.4l-88.5,93c-49.4-26.2-97.3-67.5-97.3-120.8C198.2,150.3,223.7,122.4,261.7,122.4
	 M146.4,58.6c7-3.5,12.1,3.5,12.1,3.5c-1,2.7-8.8,8.2-8.8,13.6c0,3,14.7,3.2,14.7,14.4c0,5-2.5,7.4-2.5,7.4l-5.8,0.5
	c0,0,2.5-2.4,2.5-7c0-3.9-3.9-7.4-6.8-7.4c-8.3,0-6.4,12-12.1,7.3C141.3,81.3,145.3,74,146.4,58.6 M118.5,98.9
	c15.5,15.5,22.5,32.5,22.5,32.5c-3.1,7.7-37.2,23.3-37.2,23.3l20.1-37.2l-50.3,43.3c0,0,0.8-20.2,6.9-27.1
	C86.7,126.8,118.5,98.9,118.5,98.9 M59.3,446.4H38.6l17.8-32h20.7L59.3,446.4z M197,439.5c-3.5,3.7-10.7,6.9-15.8,6.9H166l14.4-32
	h0.8c7.8,0,18.2-4.3,23.8-9.9l24.5-24.7l9.6,13.7L197,439.5z M357.9,430.3H374l-2.2,7.7h-18.2L357.9,430.3z M308.1,423
	c-1.3-1.6,0.1-5,3.1-7.3c3.1-2.4,6.6-3,7.8-1.3c1.3,1.6-0.1,5-3.1,7.4S309.4,424.8,308.1,423 M387.7,442.2h12.8v3.8H298.8
	c1.5-8.7,6.5-14.4,7.6-15.8h3.6l6.7,11.8h11.1l3.8-11.8h6.2l4.3,11.8H375l3.5-11.8h5.8L387.7,442.2z M391.9,332.1
	c-14.4,0-41.9-6.8-71.8-19.6l76.7-85.5c16.4,26.9,26.7,53.7,26.7,72.6C423.5,328.4,405.3,332.1,391.9,332.1L391.9,332.1z
	 M508.8,243.5l4.3-6.3l25.6,8.5l0.2,7.8L508.8,243.5z M557.7,277.6c-3.8,0.9-7.2,0-7.7-2.1c-0.6-2.1,2.1-4.5,5.9-5.4
	c3.8-0.9,7.2,0.1,7.7,2.2C564.1,274.3,561.4,276.7,557.7,277.6 M553.3,258.2l4.5-6.3l5.4,1.7l1.6,8.3L553.3,258.2z M488.4,220.5
	l96.7,32c-3.5,6.6-9.2,11.1-11.3,12.5l-4.3-1.4l-2.5-12.9l-10.5-3.6l-7,9.7l-6.2-2l-0.3-12.1l-31.4-10.4l-6.7,9.8l-5.7-1.9l0.1-12
	l-12.1-4L488.4,220.5z"/>
<path id="Yellow" class="st1" d="M221.4,349.1c-5.5-13.3-3.1-16.3-3.1-16.3s-17.7-14.4-12.4-32.5c0,0-45.5-65.8-45.5-104.8
	c0-20.2,9.8-18.2,9.8-34.7c0-13.6-9.2-23.8-15.9-23.8c-7.6,0-31.4,15.7-66.2,36.2l13.2-30.2l-31.7,32.5c0,0-6.2-31.7,11-48.9
	c2.8-2.8,5.7-5.5,8.4-8.3H28.4l165.3,287.5c3-1.4,5.8-3.2,7.7-5.2l26.1-26.3C223.4,364.7,221.4,354.6,221.4,349.1L221.4,349.1z
	 M420.5,147.7l-3.1-6.9c-16,2.7-30.4-5.4-34.4-7.5s0.3-11.1,0.3-11.1s-1.1-2-3.7-3.7h-16.7c-3.2,2.9-3.8,7.2-1.3,9.8
	c17.8,18.5,32,38.3,43.5,57.4l18.6-19.5L420.5,147.7z M488.5,121c9.7,11.4,5.8,23.3,5.8,23.3c0,8.9-4.7,8.8-4.7,8.8
	c0,20.7-10.8,17.1-10.8,17.1c0,27.2-30,16.3-30,16.3c-4.8-0.7-8.9-2-12.2-3.7l-20.3,22.6c13.2,25.6,21.1,48.5,25.3,62.6l86-149.6
	h-36.5L488.5,121z M349.3,338.2c0-1.9-27.2-9-38-13.2c-9.8,3.8,2.9,5.9,2.9,18.6c0,7.5-3.7,16.4-3.7,16.4l-5.4,1.5
	c0,0-10.8,20-17.8,17c-9.9,17.4-14,21.5-29.8,21.5c-5.1,0-9.5-1.4-13.5-3.9l-34.4,37.5l68.2,118.6l58.7-102.1h-42.1
	c0-10.8,6.9-19.9,6.9-19.9c0-17.3,10.7-21,18.6-21.6c16.9-1.4,23.8,0,23.8-8.3c0-5.9-0.6-12.7-0.6-12.7h6.2
	c0-22.6-6.3-28.2-6.3-39.7C342.9,343.7,349.3,341.7,349.3,338.2 M344.3,436.6l3.6-6.3H342L344.3,436.6z M319,438.1h5.8l2.4-7.7
	h-12.6L319,438.1z M376.3,381.1l13.3-23l-14.8,7.3L376.3,381.1z"/>
</svg>
