<svg version="1.1" id="Layer_1" xmlns="http://www.w3.org/2000/svg" xmlns:xlink="http://www.w3.org/1999/xlink" x="0px" y="0px"
	 viewBox="0 0 600 600" style="enable-background:new 0 0 600 600;" xml:space="preserve">
<style type="text/css">
	.st0{fill:#AAAAAA;}
</style>
<path id="Blue" d="M239.1,325.9l50.8,81.7c6.6,10.6,10.6,20.3,11.8,29.8c7.1,47.5-44.6,87.2-107.5,96.8
	c-60,9.4-122.1-10.9-128.5-55.3c-5.9-42.8,42-79.4,99.9-89.3c11.3-2.1,23.6-3.1,35.9-2.8L0,63.5h75.4l40.9,65.4
	c9-1.4,15.4-8.3,15.4-19.8c0-9.4-4-18.2-20.8-45.6H600c-12.5,24.8-40.6,50.3-75.8,65.2l25.3,5.2c-20.8,21.5-50.6,39.9-83.6,50.1
	l25.5,9.2c-21.3,17.9-47.7,33.3-83.1,41.8l23.1,12.3c-25.5,15.8-53.1,26.9-90,32.6l18.7,19.8c-26,6.6-50.3,8-76.1,6.6l17,27.2
	C283.9,335.4,261.5,332.5,239.1,325.9L239.1,325.9z"/>
<path id="Yellow" class="st0" d="M579.1,74.6H130.7c10.2,16.5,12.8,25.7,12.8,34.5c0,15.8-8.5,29.1-32.4,31.7L69.8,74.3H20.4
	l202.4,325c-17.9-2.6-37.3-2.1-54.8,0.9c-53.6,9.2-95.7,42-90.7,77.2c5.2,36.4,59.8,54.8,115.7,46.1c58.3-9.2,104.2-44.9,98-84.8
	c-0.9-7.8-4.3-15.8-10.2-25.5l-66.6-106.8c22.7,9,49.1,14.9,66.4,15.1L263,293.6c26.5,2.6,50.3,2.8,74.4-0.9l-21.3-22
	c36.4-2.4,65.7-9.9,91.2-23.1l-33.8-18.2c41.8-5,69.2-16.1,93.8-32.8L424.5,181c46.1-6.1,77.2-21.7,100.4-40.2l-46.8-9.9
	C523.8,122.5,558.1,101.8,579.1,74.6L579.1,74.6z M427.7,123.9H175.8l2.6,4c3.3,5.4,5.4,6.6,11.8,6.6h253.5l54.3,11.6
	c-27.6,16.1-64,26.2-120.9,26.2h-171l2.6,4c3.5,5.4,5.7,6.6,12,6.6l177.9-0.2l43.5,16.1c-29.3,14.6-58.8,20.6-107,20.8l-99,0.5
	l2.6,4c3.5,5.4,5.7,6.6,12.1,6.6l102.8-0.2l29.8,16.3c-22,8.5-53.6,13.7-85.5,13.7H292l22.9,23.6c-27.2,1.2-51-0.7-73-4.3l17,27.6
	c-17.7-2.4-47-11.8-71.1-23.6L271.7,419c5.2,8.5,7.8,15.1,8.7,21.5c5,32.1-35,64-88.8,72.5c-51.7,8-99-8.5-103-37.1
	c-4-27.4,32.4-56.5,81.5-65c26-4.3,55.7-3.1,77.2,6.4L40.5,85.2h23.4l41.3,66.4c33.5,0.7,50.1-18.9,50.1-42c0-7.8-1.9-15.4-5.9-24.3
	H554C524.7,111.7,480.8,123.9,427.7,123.9"/>
</svg>
