<svg version="1.1" id="Layer_1" xmlns="http://www.w3.org/2000/svg" xmlns:xlink="http://www.w3.org/1999/xlink" x="0px" y="0px"
	 viewBox="0 0 600 600" style="enable-background:new 0 0 600 600;" xml:space="preserve">
<style type="text/css">
	.st0{fill:#AAAAAA;}
	.st1{fill:#FFFFFF;}
</style>
<path id="Blue" class="st0" d="M600,352.4c0.4-85.2-88.5-138.2-116.9-147.4c0,0,53.8,78.1,49.9,132c-1.8,23.8-13.5,31.5-25.4,33.1
	c-0.3-46.7-19.7-85.7-33.3-107.3l10.3-11.3c0,0-21.5-57.3-108.8-126.7l-13.9,9l-83.5-54.1l-83.4,54l-13-8.4L0,243.1l105.4,56.8
	l-21.6,14l115.8,62.5l-21,13.6c0,0,80.9,44.9,160.9,38.3c7.6,4.8,15.5,9.2,23.5,13.3c-40.1,21-87.1,9.6-87.1,9.6l-57.1,35.9
	c146.2,70.8,228,12.3,257.3-23.1C542.3,460.5,599.6,429.2,600,352.4L600,352.4z"/>
<path id="Black" d="M588.3,355.4c0-48.2-33.3-99.7-79-126.2c40.5,73.9,46,122.9,19.4,143.9c-8.3,6.5-20.7,9.8-34.5,9.6
	c0.3-4.1,0.5-8.2,0.5-12.3c0-41.3-15.4-79-37-109L469,249c0,0-23.5-49.9-94.3-108.4l-13,8.4l-83.5-54.1l-83.4,54l-13-8.4L25.4,242.1
	l105.4,56.8l-21.6,14L225,375.3l-20.2,13.1l3.3,1.6c23.7,10.7,76.4,30.5,132.8,25.2c13.1,8.9,28.1,17,44.9,23.4
	c-25.8,26.8-73.3,30.8-107.6,24.8l-34,22c31.9,14.8,68.9,21.9,101.1,21.9c43.8,0,83.7-13.1,111.4-40.6c4.4-4.3,8.4-9,12-13.8
	C537.9,451.9,588.3,416.9,588.3,355.4L588.3,355.4z"/>
<path id="White" class="st1" d="M319,352.1c28.3-23,55.8-25.6,55.8-25.6s6.6,10.3,18.6,23c26.4,28.1,60.8,48.8,99.4,48.8
	c24.7,0,47.1-9.1,58.1-29.4c15.7-29,3.6-70.6-11.8-101.7c13.6,15.6,27.5,38.7,32.5,64c3.8,19.3,3.5,42.1-8.7,62.1
	c-16.9,27.8-52.4,40.6-91.3,40.6C419.1,433.9,362.5,406,319,352.1 M450.3,349.1c0,0,11.8-3.6,23.4-0.9c-0.4-2.6-0.8-5.2-1.4-7.8
	c-1.4-6-7.5-18.8-33.9-26.5c0,0,9.1-5.2,25.6-2c-0.9-2.4-1.9-4.8-3-7.2c-3.1-5.9-12.5-19.4-36.5-20.8c0,0,10-5.8,21.9-6.1
	c-4.4-6.8-9.2-13.2-14.2-19.1l11-12.5c-10-15.7-31.7-45.6-70.3-79.5l-11.3,7.3l-83.5-54.1l-74,48.1l105.3,15l55.1,35.7l-47.2-11.9
	l-96.1,36.4l57.1,20.8l-70,21.8l93.3,50c0,0,10.1-9.8,27.2-17.9c10.9-5.2,24.7-9.8,40.5-10.7c0,0-16.5-30.2-54.1-46.6l7.5-8.8
	c0,0-13.2-4.8-44.3-7.2c0,0,36.4-17.8,73.8-15.3l45.5,29.5H417l-20.9,24.5c18.4,22.7,30.2,49.7,34.8,76.8c4.5,3.5,9,6.5,13.6,9.1
	c9.5,5.3,19.8,9.2,30.5,11.5c0.1-0.9,0.1-1.8,0.2-2.7C475,371.8,472.6,356.2,450.3,349.1L450.3,349.1z M413,446.7
	c-0.8,1-1.7,2-2.5,3c-18.1,20.2-44.8,30.7-72.2,34.4c-7.8,1.1-15.6,1.6-23.5,1.6c10.4,1.4,20.8,2.1,30.7,2.1c39.6,0,74-11.5,97.8-35
	c0.3-0.3,0.7-0.7,1-1.1C435.8,450.9,414.8,447.1,413,446.7L413,446.7z M191.5,210.2l-38.6,49.5l69.6-42.9l-20.8-13.5l18.9-12.8
	l-38.2-24.8l-22.1,49.5L191.5,210.2z"/>
<path id="Blue_1_" class="st0" d="M364.5,218.7L309,166l-65.7-10.2l35-35.9L204.2,168l105.3,15L364.5,218.7z M317.4,206.8
	l-96.1,36.4l57.1,20.8l-32.8-21.2L317.4,206.8z M361.8,174l21.8,14.1l-10.5-21.4L361.8,174z M301.6,335.9c0,0,10.1-9.8,27.2-17.9
	l-120.5-32.1L301.6,335.9z M431,360c4.5,3.5,9,6.5,13.6,9.1c1.2,0.7,2.3,1.3,3.5,1.9c-0.7-11.1-2.7-22.7-6.1-34.8
	c-5.9-20.3-15.5-39.5-28.1-56.5l3.2-20.9l-20.9,24.5C414.6,306,426.4,332.9,431,360 M444.3,451.8c0,0-13.6-1.9-31.3-5
	c-0.8,1-1.7,2-2.5,3c-18.1,20.2-44.8,30.7-72.2,34.4c-7.8,1.1-15.6,1.6-23.5,1.6c0,0,14.1,1,25.1,0.3c1.4-0.1,2.8-0.2,4.2-0.3
	c1.2-0.1,2.4-0.3,3.6-0.4h0.2c1.8-0.2,3.5-0.4,5.3-0.7c26.5-4,48-14.1,63.8-28.7L444.3,451.8z M341.6,337.4
	c-7.1,3.6-14.8,8.4-22.6,14.7c31.6,39.2,72,67.5,118.8,78.2c11.2,2.6,23.8,3.9,36.6,3.7c21.8-3.8,31.6-13.1,31.6-13.1
	C412.2,432.8,358.6,364,341.6,337.4 M349.5,249.2c0,0,7.6,18.5,21.4,26.8l9.4-6.9l8.2-0.9L349.5,249.2L349.5,249.2z"/>
</svg>
