<svg version="1.1" id="Layer_1" xmlns="http://www.w3.org/2000/svg" xmlns:xlink="http://www.w3.org/1999/xlink" x="0px" y="0px"
	 viewBox="0 0 600 600" style="enable-background:new 0 0 600 600;" xml:space="preserve">
<style type="text/css">
	.st0{fill:#AAAAAA;}
	.st1{fill:#FFFFFF;}
	.st2{fill:#555555;}
</style>
<path id="Silver" class="st0" d="M600,300c0,165.7-134.3,300-300,300S0,465.7,0,300S134.3,0,300,0S600,134.3,600,300"/>
<path id="Blue" d="M300,20.1C145.4,20.1,20.2,145.4,20.2,300S145.5,579.9,300,579.9S579.9,454.5,579.9,300S454.6,20.1,300,20.1"/>
<path id="White_1_" class="st1" d="M327.1,95.5L300,27.2l-28.7,68.2C170.3,109,92.4,195.5,92.4,300.2C92.4,414.4,185.8,507,300,507
	s206-92.5,206-206.7C506,195.6,428.1,109.1,327.1,95.5 M426.7,353.9l-12.4-6.2l-78.8,5.3v11.6l35.8,51.5v31.2L321.9,423l-4.1-10.3
	L300,452.1l-17.2-39.4l-4.1,10.3l-49.4,24.3v-31.2l35.8-51.5V353l-78.8-5.3l-12.4,6.2v-72.1l-0.2-20.3l17.2,41.3l78.2-37.3l4.2-47.9
	L300,93l27.2,124.4l4.2,47.9l78.2,37.3l16.7-41.8l0.3,20.8L426.7,353.9z"/>
<path id="Dark_Red" d="M173.7,261.4l17.2,41.3l78.2-37.3l4.2-47.9l5.8-26.8l-39.4-25.8l15.9,93.9L213.7,217l-1.1,33l-61.4-23.2
	L174,287v-5.3L173.7,261.4z M265.1,352.9l-55.6-3.7l22.5,19.6l-13.2,16.5l28.7,4.7l17.7-25.4v-11.7H265.1z M300,451.9l-17.3-39.2
	l-0.3,0.8L300,499l17.8-86.1l-0.1-0.2L300,451.9z M335.4,364.6l17.7,25.4l29-4.7l-13.2-16.5l22.5-19.7l-56,3.7V364.6z M331.5,265.4
	l78.2,37.3l16.7-41.8l0.3,20.8v6.3l23.1-61.2L388.4,250l-1.2-33l-41.9,41.8c1.1-6.5,15.9-93.9,15.9-93.9L321.5,191l5.8,26.6
	L331.5,265.4z M460.5,289l-33.8-0.2v29.6L460.5,289z M140.4,289l33.4,29.2v-29.3L140.4,289z"/>
<path id="Bright_Red" class="st0" d="M265,352.9l-51-3.4l21.6,18.8c-0.3,1-11.7,15-11.7,15l25.2,4.1l15.9-22.9V352.9z M278.4,193.5
	l-34.9-22.9l0.1,0.4l27.8,67.9l1.9-21.4L278.4,193.5z M255.5,262.6L255.5,262.6l-39.4-39.2l-1.1,30.4l-58.7-22.1l57.3,60.1l48.2-23
	L255.5,262.6z M287.3,423.1l12.7,64.4l-0.1-35.4L287.3,423.1z M147.8,291.7l26,22.7v-22.8L147.8,291.7z M357.1,170.8l-35,23.1
	L326,212L357.1,170.8z M445,231.6l-58.6,22.2l-17.1,29.6L381,289L445,231.6z"/>
<path id="Grey" class="st2" d="M426.4,260.9l-16.7,41.8l-78.2-37.3l-4.2-47.9L300,93l-26.8,124.4l-4.2,47.9l-78.2,37.3l-17.2-41.3
	l0.2,20.3v72.1l12.4-6.2l78.8,5.3v11.6l-35.8,51.5v31.2l49.4-24.3l4.1-10.3l17.2,39.4l17.8-39.4l4.1,10.3l49.4,24.3v-31.2
	l-35.8-51.5v-11.6l78.8-5.3l12.4,6.2v-72.1L426.4,260.9"/>
<polygon id="White" class="st1" points="300,438.7 282.9,399.9 277.1,386.5 280.6,403.6 274.4,419 234.7,438.6 234.7,417.8 
	270.5,366.3 270.5,347.9 185.2,342.2 179.3,345.1 179.3,288.9 188.1,310 266.6,272.5 271.7,297.6 274.1,268.9 274.2,268.9 
	278.6,218.2 300,114.9 "/>
</svg>
