<svg version="1.1" id="Layer_1" xmlns="http://www.w3.org/2000/svg" xmlns:xlink="http://www.w3.org/1999/xlink" x="0px" y="0px"
	 viewBox="0 0 600 600" style="enable-background:new 0 0 600 600;" xml:space="preserve">
<style type="text/css">
	.st0{fill:#FFFFFF;}
	.st1{fill:#AAAAAA;}
</style>
<path id="Blue_2_" class="st0" d="M583.1,61.2l-6.4,20.1c-17.5,55.3-67.8,83-116.4,109.8c-39.3,21.6-76.4,42.1-88.9,75.8l-18.5,49.7
	l-8.2-19.6l1.6,1.9l5.7-8.2c1-1.4,9.6-14.3,9.6-27.2c0-10.8-4.8-19.5-13.7-24.7c-3.6-2.1-7.1-3.2-9.6-3.7
	c-4.5-4.5-15.2-11.8-38.1-11.8c-23.6,0-36.6,7.9-41,25L244.1,308l-15.2-41.2c-12.5-33.7-49.7-54.1-89-75.8
	C91.1,164.3,40.8,136.6,23.3,81.4l-6.4-20.1L8.7,80.7c-8.8,20.8-10.9,42.8-6.3,65.3c1.9,9.1,4.9,18.2,8.9,27.4l-1.6,6.9
	c-6.1,26.1-3,54,8.8,80.6c6.6,14.8,14.1,25.3,17.8,30c-1.5,16.3,1,32.4,7.4,47.9c5.7,14,14.8,28,27,41.4
	c21.9,24.2,49.8,42.8,70.3,56.4c8.2,5.5,15.3,10.2,20.1,14c27.5,22,58,72.4,58.3,72.9l9,15l5.1-16.8c1.9-6.1,5.5-9.1,7.5-10.4l3-1.9
	l0.5-3.5c3.1-19.8,16.5-52.2,41.1-60.2l4.4-1.4l0.8-4.5c0.1-0.7,0.7-2.9,3.2-4.7l2.7-1.9l0.5-3.3l2.7-18.4l2.7,18.4l0.5,3.3l2.7,1.9
	c2.3,1.6,3,3.6,3.2,4.7l0.8,4.5l4.4,1.4c24.5,8,38.2,41.2,41.1,60.2l0.5,3.6l3.1,1.9c2,1.3,5.7,4.3,7.4,10.3l5,17.1l9.2-15.3
	c0.3-0.5,30.7-50.8,58.3-72.8c4.7-3.8,11.8-8.5,20.1-14c20.4-13.6,48.4-32.2,70.3-56.4c12.2-13.5,21.3-27.4,27.1-41.5
	c6.4-15.6,8.9-31.7,7.4-48c3.7-4.7,11.2-15.3,17.8-30c11.8-26.6,14.9-54.5,8.8-80.6l-1.6-6.9c4-9.2,7-18.3,8.9-27.4
	c4.7-22.5,2.6-44.5-6.3-65.3L583.1,61.2L583.1,61.2z"/>
<path id="Blue" d="M378.7,269.5l-25.3,68.2l-23.8-56.5c0,0,6.9-5.4,16,5c0,0,8.2-11.9,8.2-22.8c0-19.6-19.6-21.2-19.6-21.2
	s-6.3-11.2-34-11.2c-22.7,0-30.5,7.6-33.4,19.1l-21.2,84.3l-24-64.8c-25.9-69.7-172.3-81-205.7-185.8
	c-36,84.7,59.9,159.8,59.9,159.8C23.2,208.3,17.3,182,17.3,182C3.4,241.9,44.4,288.5,44.4,288.5C34.1,371.6,137,421.4,165.9,444.6
	s60.1,74.9,60.1,74.9c2.6-8.7,8-13,10.8-14.7c3.4-22,18.5-57.3,46.4-66.4c0.5-2.6,2.1-6.6,6.3-9.6l10.4-70.6l10.4,70.6
	c4.3,3,5.8,7,6.3,9.6c28,9.2,43.1,44.4,46.4,66.4c2.8,1.8,8.3,6,10.8,14.7c0,0,31.1-51.7,60.1-74.9c28.9-23.2,131.8-73,121.6-156.2
	c0,0,40.9-46.7,27.1-106.5c0,0-5.8,26.2-58.5,61.5c0,0,95.9-75.1,59.9-159.8C550.9,188.6,404.5,199.9,378.7,269.5L378.7,269.5z"/>
<path id="White" class="st0" d="M343.2,275.6C343.2,275.6,343.3,275.6,343.2,275.6C343.3,275.6,343.3,275.6,343.2,275.6L343.2,275.6
	z M355.4,368.2l-58-76l-51.7,76L275,251.5c1.1-4.1,3.2-11.7,24.9-11.7c21.8,0,28.3,6.7,28.3,10.6c0,0,16.8-1.3,16.8,13.8
	c0,4.5-1.8,11-1.9,11.3c-9.4-10.5-24.6,1.4-24.6,1.4L355.4,368.2z M317.6,254.9L317.6,254.9c-13.2-6.1-24.6-3.8-24.6-3.8h0.1
	c-0.1,0-0.1,0-0.1,0l12.3,2.7C305.3,253.9,309.3,262,317.6,254.9L317.6,254.9z"/>
<path id="Red" class="st1" d="M16,113.9c1.9,59.9,40.2,101.1,81.2,132.8l-33.9-83.3C40.7,148,23.2,131.8,16,113.9L16,113.9z
	 M90.1,246.5l8.9,21.7c-34.6-20-66.3-41.3-76.2-65.7c2.3,77,70.4,120.8,118.6,153.9l-29-71.2c51.4,28.9,103.3,56.5,123,85.9
	C205.4,321.9,163.3,298.6,90.1,246.5L90.1,246.5z M51.6,299.8c2.4,76.6,94.7,110.4,123.2,138.8L154.6,389
	c24.2,14.2,46.2,28.4,61.9,42.8C160.1,354,72.5,345.6,51.6,299.8z M537,163.4l-33.9,83.3c41-31.7,79.4-72.9,81.2-132.8
	C577,131.8,559.5,148,537,163.4L537,163.4z M364.8,371.3c19.7-29.4,71.5-56.9,123-85.9l-29,71.2c48.1-33.2,116.2-77,118.6-153.9
	c-9.7,24.5-41.5,45.6-76.2,65.7l8.9-21.7C436.9,298.5,394.7,321.8,364.8,371.3L364.8,371.3z M548.6,299.8
	c-20.8,45.8-108.5,54.1-164.9,132c15.8-14.4,37.7-28.5,61.9-42.8l-20.2,49.6C453.9,410.2,546.1,376.5,548.6,299.8z"/>
</svg>
