<?xml version="1.0" encoding="utf-8"?>
<!-- Generator: Adobe Illustrator 25.2.3, SVG Export Plug-In . SVG Version: 6.00 Build 0)  -->
<svg version="1.1" id="Layer_1" xmlns="http://www.w3.org/2000/svg" xmlns:xlink="http://www.w3.org/1999/xlink" x="0px" y="0px"
	 viewBox="0 0 600 600" style="enable-background:new 0 0 600 600;" xml:space="preserve">
<style type="text/css">
	.st0{fill:#FFFFFF;}
</style>
<path id="White" class="st0" d="M561.8,288.9c-11-4.6-38.3-13.2-66.7-21c0.3-11.5,0.6-24,0.3-36.7c18.7-23.8,27.3-42.2,25.4-54.6
	c-0.4-4.1-2.5-7.8-5.7-10.2l-3.5-2.3l-3.8,1.7c-10.9,4.7-22.2,8.5-33.7,11.3c-15.5-6.1-31.4-11.4-47.5-15.6
	c10.5-37.1,11.7-62.5,3.7-75.7c-2.2-4.1-6-7.1-10.6-8.3l-4.1-0.7l-2.8,3c-19.8,21.2-42.9,39-68.4,52.7c-1.4-9.2-4.7-24-11.3-48.7
	c-6.8-25.8-16.8-59.6-22.6-73.1l-0.6-1.4l-0.5-0.5c-0.5-1.3-1.1-2.5-1.9-3.6c-1.6-3-4.7-4.9-8-5.1c-3.8,0.2-7.1,2.6-8.6,6l-2,4
	c-5.6,12.8-15.1,46.3-21.9,73.8c-6.2,24.8-9.2,39.9-10.5,49.2c-26.2-14-49.7-32.4-69.6-54.4l-2.8-3.1l-4.2,0.8
	c-1.4,0.3-6.5,1.6-10.5,8.3c-8.1,13.2-6.9,38.8,3.4,76.1c-15.9,4.1-31.6,9.2-46.9,15.2c-11.1-3.3-22-7.2-32.6-11.7l-3.7-1.6
	l-3.4,2.2c-3.3,2.4-5.4,6.1-5.9,10.2c-2.1,12.1,6,30,23.8,53.2c-0.6,13.8-0.4,27.5,0,40.1c-27.4,7.6-54.4,16.2-65.9,21
	c-5,1.7-10.8,5-10.8,11.2c0,6.4,6.1,8.9,8.7,10c0.4,0.1,0.7,0.3,1,0.4l0.4,0.2c12.3,5.2,45.8,14.4,72.7,21.3c1.4,9,3.1,18,5.2,27.1
	c-23.9,21.2-36.2,38.7-36.4,51.8c-0.3,4.3,1.2,8.5,4.2,11.6l3.1,2.9l4.1-1.1c13.5-3.7,27.4-6,41.4-6.8c8.9,25,20.4,49.1,34.4,71.7
	l1.6,2.6l3,0.7c31.2,7.9,62.9,13,95,15.2c7.5,31.1,17.8,68.4,24,82.2l1.8,3.6c1.5,3.4,4.8,5.8,8.6,6c3.4-0.2,6.5-2.1,8.1-5.1
	c0.8-1.1,1.5-2.3,1.9-3.6l0.5-0.5l0.6-1.3c5.9-13.5,16.7-49.8,24.5-81.4c30.8-2.2,61.3-7.1,91.3-14.5l3-0.7l1.6-2.6
	c13.9-22.6,25.5-46.5,34.6-71.3c14.2,1,28.3,3.4,42,7.2l4.1,1l3.1-2.9c3-3.1,4.5-7.3,4.2-11.6c-0.2-13.3-12.3-30.9-36.1-52.6
	c2-9.1,3.7-18.5,5.2-28c29.1-7.1,61.3-16.6,73.6-21.6l1-0.4c2.9-1.2,9-3.7,9-10.2C572.4,295.4,569.1,291.8,561.8,288.9"/>
<path id="Orange" d="M558.9,295.8c-11.8-5-42.8-14.5-71.5-22.2c0.4-14.6,0.9-29.6,0.4-45.1c37.3-46.5,23.2-56,23.2-56
	c-12,5.2-24.5,9.3-37.3,12.3c-18.4-7.4-37.2-13.5-56.5-18.1c23.6-77.8,1.3-81.9,1.3-81.9c-36.4,38.7-73.2,56-80.9,59.2
	c4.1-5.4-23.8-106.9-33.8-130.5c-0.4-0.4-0.7-0.9-0.9-1.4c-0.3-1-0.7-2-1.4-2.8c-0.4-0.9-1.4-1.8-1.8-1.8s-1.4,0.9-1.8,1.8l-1.8,3.6
	c-10.4,23.7-38.1,133.4-31.7,132H264c0-0.3-0.2-0.5-0.5-0.5l0,0c0,0-41.4-16.3-82-60.9c0,0-22.3,4.1,1,82.4
	c-19.1,4.6-37.8,10.5-56,17.8c-12.2-3.5-24.2-7.7-36-12.7c0,0-14.1,9.1,21.4,54.6c-0.9,16.4-0.4,32.8,0.1,48.2
	c-28.7,7.8-59.2,17.4-71,22.4c0,0-5.9,1.9-5.9,4.1c0,1.7,3.6,2.7,5.5,3.6c11.8,5,46,14.5,76.5,22.2c1.8,12.3,4.2,24.1,6.9,35.9
	c-49.1,42.4-35.4,55.1-35.4,55.1c15.9-4.3,32.2-6.8,48.7-7.3c9,26.4,20.9,51.7,35.6,75.5c32.5,8.3,65.7,13.4,99.2,15.4
	c7.8,32.8,18.7,72.8,24.7,86l1.8,3.6c0.5,0.9,1.4,1.8,1.8,1.8s1.4-0.9,1.8-1.8c0.6-0.8,1.1-1.7,1.4-2.7c0.2-0.5,0.5-1,0.9-1.4
	c5.9-13.7,17.7-53.3,25.4-85.6c32.2-2,64.2-6.9,95.6-14.7c14.6-23.7,26.6-48.9,35.9-75.1c16.6,0.7,33.1,3.2,49.1,7.6
	c0,0,13.6-12.8-35.1-55.9c2.7-11.8,5-24.1,6.8-36.9c30.5-7.3,65.1-17.4,77.4-22.4c2.2-1,5.4-2,5.4-3.6S558.9,295.8,558.9,295.8"/>
<path id="White_1_" class="st0" d="M468.8,284.6c1.3-22.5,1-41.7,0.6-56.4c18.5-13.9,16.1-16,16.1-16c-1.5-1.2-7.8,0.4-16.6,3.5
	c-0.1-1.3-0.1-2.6-0.2-3.8c20.6-16.7,14.9-18.8,14.9-18.8c-2.6-1.7-9.6,0-18.7,3.5l-4-1.2c-20.6-6.2-41.6-11.4-62.7-15.5
	c9.9-19.2,19-39.7,14-41.4c-2.9-1.3-19.2,14.4-32.6,38.2l-2.1-0.3c10.1-19.5,19.8-40.7,14.7-42.4c-2.9-1.3-20.2,15.1-33.7,40
	c-12.3-1.3-24.7-2.2-37.3-2.6c0.3-42.3-4.8-68.2-9.5-68.2c0,0-10.1-0.7-11,67.8h-3.5c0.4-42.1-4.5-67.8-9.6-67.8
	c0,0-10.1-0.7-11,68.3c-11.1,0.5-21.9,1.2-32.8,2.4c-13.4-24.7-30.6-41-33.5-39.7c-5.1,1.7,4.5,22.7,14.6,42l-2.4,0.3
	c-13.2-23.6-29.4-39.1-32.6-37.8c-4.7,1.6,4.4,21.8,14.2,40.9c-22.1,4.2-44,9.5-65.6,16.1l-3.7,1.2c-9.1-3.4-16.1-5.1-18.7-3.4
	c0,0-6.1,2.1,14.8,18.7c-0.1,1.2-0.1,2.5-0.2,3.9c-8.7-3.1-15-4.7-16.5-3.5c0,0-2.4,2.1,16.1,16.2c-0.6,15.1-1.2,34.3-0.2,56.4
	c-42.1,4.1-39.9,8.4-39.9,8.4c0.7,3.7,18.2,4.4,40.6,3.9c0,0.3,0,0.6,0.1,0.9c-36.8,4.4-33,7.8-33,7.8c0.4,3.7,14.8,4.5,34,3.9
	c1.9,19.5,5,38.8,9.3,57.8c-28.5,10.9-29.5,16.9-29.5,16.9s4.7,3.5,33.1-2.7c0.4,1.7,0.9,3.4,1.4,5.1c-14.3,5-25,9.7-24.4,12.2
	c0,0,2,3.2,27.1-2.9c7.8,25.9,18.1,50.9,30.8,74.7l2.3,4.6l5,0.9c41.4,8.1,82.8,13.1,113.3,13.1s71.9-5.1,113.3-13.3l5-0.9l2.3-4.6
	c12-24.1,21.8-49.2,29.2-75.1c26.1,6.4,28,3.1,28,3.1c0.8-2.6-10.5-7.4-25.4-12.5c0.4-1.6,0.9-3.3,1.3-4.9
	c29.7,6.5,34.5,2.9,34.5,2.9s-1.1-6.2-31-17.4c4.2-19,7.4-38.1,9.4-57.4c20.8,0.7,36.8-0.1,37.1-3.9c0,0,4.6-3.6-36-8.2V297
	c24,0.6,43.1-0.1,43.6-3.9C511.6,293.2,513.8,288.7,468.8,284.6 M392.9,190.1c18.9,3.5,37.7,7.9,56.2,13.2
	c-19.1,8.8-41.1,20.7-52.7,27.2c-2.3-8.3-7.4-15.6-14.5-20.5C384.4,205.7,388.5,198.4,392.9,190.1 M321,182.3
	c11,0.4,21.7,1.2,32.3,2.2c-2.3,5.1-4.3,10.3-6,15.6h-27.1C320.6,194,320.9,188,321,182.3 M276.4,182.5c0,5.5,0.1,11.4,0.2,17.7
	h-21.7c-1.7-5.4-3.6-10.7-5.9-15.8C258,183.5,267.1,182.9,276.4,182.5 M209.3,189.8c4.4,8.2,8.5,15.4,11,19.8
	c-7.7,5.1-13.5,12.5-16.7,21.2c-11.6-6.4-33.8-18.4-53-27.2C169.9,197.9,189.5,193.3,209.3,189.8 M140.7,284.3
	c-0.9-18.7-0.7-35.2-0.2-48.8c18.7,10.3,48.3,18.3,61.2,21.5v21.7C185.4,280.3,163.1,282.4,140.7,284.3 M142.5,309.9
	c19.7-0.9,42.3-2.9,59.6-4.6v39.6c0.1,1.6,0.4,3.1,0.7,4.6c-22.1,5.6-38.9,10.6-51.6,14.9C147.2,346.5,144.3,328.3,142.5,309.9
	 M432.7,415.1c-14.3-4.4-63-17.1-132.6-17c-71.7,0.1-121.4,13.6-133.9,17.7c-2.6-7.3-5-14.5-7.2-21.7c14.2-3.9,33.8-10.1,60.8-19.8
	c9.6,6.5,20.9,9.9,32.4,9.7l94.7-0.1c11.9,0.3,23.7-3,33.6-9.6c26,9.2,45,15.2,59,19.1C437.5,400.6,435.2,407.8,432.7,415.1
	 M447.3,363.7c-12.5-4.2-28.9-9-50.2-14.4c0.6-2.5,0.9-5.1,0.8-7.8V305c16.6,1.5,38.5,3.4,58.3,4.3
	C454.2,327.7,451.2,345.8,447.3,363.7 M458.2,283.7c-22.5-2-44.6-4-60.4-5.5v-21.4c12.9-3.2,42.6-11.2,61.2-21.6
	C459.2,248.7,459.2,265.1,458.2,283.7"/>
<path id="Blue" d="M294.2,426.4v-17.3c-12.6,0.1-24.4,0.7-35.5,1.4c4.6,4.7,7.6,10.7,8.3,17.3C275.8,427,284.9,426.5,294.2,426.4
	L294.2,426.4z M341.5,410.4c-11.1-0.8-23.1-1.3-35.9-1.4v17.4c9.3,0.1,18.4,0.6,27.1,1.3C333.5,421.1,336.6,415,341.5,410.4
	L341.5,410.4z M343.7,428.8c20.1,2.1,39.8,6.6,58.8,13.3c5.8,2.2,11.5,4.8,17,7.7c3.5-8.3,6.6-15.5,10.1-24.5
	c-10.5-3.2-21.3-5.8-32.1-7.8c-10.5-2.1-23-4-37.3-5.5C350.3,414.3,345,420.8,343.7,428.8L343.7,428.8z M333.4,438.7
	c-9-0.8-18.3-1.3-27.8-1.4v42.2h1c2.7-0.1,5.4-0.1,8.1-0.2c14.3-0.7,29.6-2.2,44.7-4.2C348.4,463.7,336.8,452.3,333.4,438.7
	L333.4,438.7z M368.4,468.6c1.4,1.5,2.9,3,4.3,4.5c13.4-2.1,26.5-4.4,38.4-6.8c1.1-2.2,2.2-4.5,3.2-6.7c-5.2-2.8-10.5-5.3-16-7.4
	c-17.2-6-35.1-10.1-53.2-12.2C349.1,448.6,358.2,458.7,368.4,468.6L368.4,468.6z M285.6,479.2c2.6,0.1,5.2,0.2,7.8,0.2h0.9v-42.1
	c-9.6,0.2-18.9,0.7-27.8,1.5c-3.3,13.5-14.5,25-25.5,36.3C256,477.1,271.2,478.6,285.6,479.2L285.6,479.2z M254.8,440.1
	c-18.2,2.1-36.1,6.2-53.4,12.3c-5.5,2.1-10.9,4.6-16.1,7.5c1.1,2.2,2.2,4.4,3.4,6.6c12.1,2.4,25.3,4.7,38.9,6.8
	c1.5-1.5,2.9-3,4.4-4.5C241.7,458.9,250.8,448.7,254.8,440.1L254.8,440.1z M197.8,442.3c19-6.9,38.7-11.4,58.8-13.5
	c-1.3-8-6.7-14.5-16.6-16.7c-14.5,1.6-27.2,3.5-37.7,5.6c-14.8,2.9-26.5,6.1-32.3,7.9c3.2,8.1,6.7,16.3,10.6,24.5
	C186.1,447.1,191.9,444.5,197.8,442.3L197.8,442.3z M212.2,344c1.8,17.7,20.1,29.6,40.1,29.5l94.7-0.1c19.6,0,36.4-8.2,40-26
	c0.6-2.4,0.9-4.8,0.9-7.3v-27.3h-1.4c-11.4,0-21.4,2.7-29.6,9.1c-4.3,2.9-7.9,6.8-10.4,11.4l-91.5,0.1v-82.8l91.5-0.1L347,271
	c20.9,0,40.5-9.1,40.5-29.6v-0.9c0-20.9-19.6-30-40.5-30l-94.7,0.1c-20,0-38.2,11.9-40,30.1l0.1,51.4L212.2,344z"/>
</svg>
