<?xml version="1.0" encoding="utf-8"?>
<!-- Generator: Adobe Illustrator 25.2.3, SVG Export Plug-In . SVG Version: 6.00 Build 0)  -->
<svg version="1.1" id="Layer_1" xmlns="http://www.w3.org/2000/svg" xmlns:xlink="http://www.w3.org/1999/xlink" x="0px" y="0px"
	 viewBox="0 0 600 600" style="enable-background:new 0 0 600 600;" xml:space="preserve">
<style type="text/css">
	.st0{fill:#FFFFFF;}
</style>
<path id="Outline" class="st0" d="M301.6,0C136-0.8,1,132.7,0,298.4S132.7,599.2,298.4,600S599.2,467.3,600,301.6S467.3,0.8,301.6,0
	"/>
<path id="Purple" d="M370.8,471l10.4-46.4l9.8,39.1L370.8,471L370.8,471z M423.3,490.5c-0.2,0.2-0.6,0-0.8,0
	c-2.6-1.4-5.1-10.4-6.7-16.5L390,378.8l-3.5,1.2c-3.5,1.2-6.5,5.3-7.7,10.4l-23.2,103.2c-3.1,13.4-5.1,23-11,25.2l-1,0.4v10.4
	l29.1-10.6v-10.4l-2,0.8c-3.1,1-5.5,1.2-6.5,0.4s-1-2.8-0.8-3.9c0.2-2,1.6-9,2.6-13.6l1.4-6.1l26.9-9.8l2.6,9.8
	c0.6,2.2,2.2,7.1,2.6,8.3c0.8,2.6-2.8,5.3-6.3,6.7l-1,0.4V512l33.2-12v-10.4L423.3,490.5L423.3,490.5z M242,489.1
	c0,7.5-0.6,17.9-5.9,21.6c-2.6,1.8-6.1,1.8-10.8,0c-7.3-2.8-10.2-6.5-10.2-13.2v-94c0-5.1,1.4-7.7,5.3-9.4c2.6-1.2,3.3-1.4,3.3-1.4
	l1.2-0.4v-9.6l-42.3,18.9v10l2.2-1.4c1-0.6,2.2-1.2,3.5-1.6c1.4-0.6,2.6-0.8,3.1-0.6c0.4,0.2,1,1,1,4.3v80.2c0,3.1-0.6,4.3-1,4.5
	c-1,0.4-2.2,0.2-3.1-0.4c-2.4-1-3.3-1.4-3.3-1.4l-2.2-1.2v10.4l71.2,27.3v-40.1l-12-4.5V489.1z M405.2,294.1l38.3,1l-1-23.2
	l19.9,23.6l18.3,0.4l-1-24l20.8,24.4l51.9,1.4c0,1.2,0,2.2,0,3.3c-0.2,37-8.5,73.7-24.4,107.3C504.7,342.7,444.3,309.2,405.2,294.1z
	 M323.8,551.8v-194l16.3-25.2l77.7,34.6l7.9-21.8l9.4,29.5l16.9,7.5l8.3-22.6l9.8,30.5l55.2,24.6
	C485.6,492.1,409.7,543.6,323.8,551.8L323.8,551.8z M305.9,216.1c4.5,0.2,9,1,13.2,2.2c0,1.2-0.2,2.4-0.2,3.7
	c0,11.2,6.5,21.8,13.2,32.8c9.6,15.7,17.9,29.5,10.2,44.6c-10.2,8.5-23,13.8-36.4,14.9L305.9,216.1L305.9,216.1z M305.9,185.8
	c9.4,0.6,18.5,3.5,26.7,8.1c-5.1,3.7-9.2,9-11.4,14.9c-5.1-1.4-10.2-2.2-15.3-2.4L305.9,185.8L305.9,185.8z M187.7,73.5
	c71-35.2,154.5-35.2,225.3,0.2C353.5,90.2,316.9,136,300.6,161C284.3,136,247.5,89.8,187.7,73.5L187.7,73.5z M295.9,314.2
	c-13.4-1-26.1-6.1-36.4-14.9c-7.7-15.1,0.6-28.9,10.2-44.6c6.7-11.2,13.2-21.6,13.2-32.8c0-1.2,0-2.4-0.2-3.7
	c4.3-1.2,8.8-1.8,13.2-2.2L295.9,314.2L295.9,314.2z M278.4,552c-86.7-7.5-163.4-58.8-203.1-136.2l56.4-25.2l9.8-30.5l8.3,22.6
	l16.7-7.5l9.4-29.5l7.9,21.8l77.3-34.6l17.1,25.4L278.4,552L278.4,552z M47.2,298.8V298l53.3-1.4l20.8-24.4l-1,24l18.3-0.4
	l19.9-23.6l-1,23.2l38.3-1c-39.5,15.5-100.5,49.3-123.7,116.2C55.4,375.5,46.8,337.2,47.2,298.8L47.2,298.8z M74.9,184.8l49.7,18.3
	l28.3-15.1l-9.8,21.8l17.3,6.3l27.5-14.5l-9.6,21.2L206,233c-30.9-3.3-103.8-3.9-158.1,48.8C50.1,248.1,59.4,215.1,74.9,184.8z
	 M271.1,211.9c-14.5,6.1-26.5,17.1-34.2,30.7c1.8-16.7,10.2-32.2,23.4-42.7C265,202.5,268.9,206.8,271.1,211.9z M272.9,222.1
	L272.9,222.1c0,8.3-5.7,17.7-11.8,27.7c-6.3,10.4-13.6,22.2-14.5,35c-3.7-5.7-6.3-11.8-7.9-18.3
	C242.8,246.1,255.2,230.2,272.9,222.1L272.9,222.1z M269.1,194c8.1-4.7,17.3-7.3,26.7-8.1v20.4c-5.1,0.4-10.4,1.2-15.3,2.4
	C278.2,202.7,274.4,197.6,269.1,194L269.1,194z M162.4,87.9l26.3,32.2l32,1.4l-19.5,13.8l11.6,14.2l30.9,1.4l-18.9,13.4l12,14.7
	c-31.1-14.7-90.8-34.2-153.1-10C103.4,136.4,130.5,108.7,162.4,87.9z M363.1,266.4c-1.6,6.5-4.5,12.6-7.9,18.3
	c-1-12.6-8.1-24.6-14.5-35c-6.1-10-11.8-19.3-11.8-27.7l0,0C346.4,230.2,358.8,246.1,363.1,266.4L363.1,266.4z M330.7,211.9
	c2-5.1,5.9-9.4,10.8-12c13,10.6,21.6,26.1,23.4,42.7C357.2,229,345.2,218.2,330.7,211.9L330.7,211.9z M515.9,168.3
	c-61.7-23.2-120.3-3.9-151.2,10.6l11.8-14.7l-18.9-13.4l30.9-1.4l11.6-14.2l-19.5-13.8l32.2-1.4l25.6-31.5
	C469.9,109.1,496.2,136.4,515.9,168.3L515.9,168.3z M552,280.7c-54.3-51.1-126-50.5-156.7-47.2l27.7-10.2l-9.6-21.2l27.5,14.5
	l17.3-6.5l-9.6-22l28.3,15.1l48.4-17.9C540.6,214.9,549.5,247.5,552,280.7L552,280.7z M301.4,16.5C144.9,15.7,17.3,141.9,16.5,298.6
	c-0.8,156.7,125.4,284.1,282.1,284.9c156.5,0.8,284.1-125.4,284.9-282.1C584.3,144.9,458.1,17.3,301.4,16.5z"/>
<path id="White" class="st0" d="M300.6,161.2C316.9,136,353.5,90.4,413,73.9c-70.8-35.4-154.3-35.4-225.3-0.2
	C247.5,89.8,284.3,136,300.6,161.2L300.6,161.2z M212.7,149.6l-11.6-14.2l19.5-13.8l-32-1.4L162.3,88c-32,20.8-59,48.6-78.8,81.2
	c62.3-24.2,121.9-4.7,153.1,10l-11.8-14.7l18.9-13.4L212.7,149.6L212.7,149.6z M124.6,203.3L74.9,185
	c-15.5,30.3-24.8,63.3-27.1,97.3c54.5-52.7,127.2-51.9,158.1-48.8l-27.7-10.2l9.6-21.2l-27.5,14.5l-17.3-6.3l9.8-21.8L124.6,203.3z
	 M525.3,185.2l-48.4,17.9L448.6,188l9.8,21.8l-17.3,6.3l-27.5-14.5l9.6,21.2L395.5,233c30.7-3.3,102.4-3.9,156.7,47.2
	C549.5,247.3,540.6,214.9,525.3,185.2L525.3,185.2z M438.4,88.5L412.8,120l-32,1.4l19.5,13.8l-11.6,14.2l-30.9,1.4l18.9,13.4
	l-12,14.7c30.7-14.5,89.6-33.8,151.2-10.6C496.4,136.4,469.9,109.1,438.4,88.5L438.4,88.5z"/>
</svg>
