<?xml version="1.0" encoding="utf-8"?>
<!-- Generator: Adobe Illustrator 25.2.3, SVG Export Plug-In . SVG Version: 6.00 Build 0)  -->
<svg version="1.1" id="Layer_1" xmlns="http://www.w3.org/2000/svg" xmlns:xlink="http://www.w3.org/1999/xlink" x="0px" y="0px"
	 viewBox="0 0 600 600" style="enable-background:new 0 0 600 600;" xml:space="preserve">
<style type="text/css">
	.st0{fill:#FFFFFF;}
</style>
<path id="Outline_Gray" class="st0" d="M517,265.9l-6.9-4.2c-0.8-0.5-20.5-12.1-61.8-12.1h-12.7c-55-63-94.4-136.6-117.3-219.1
	L310,0l-8.4,30.5c-23,83.3-63,157.7-118.9,221.1l-30.3,0.2h-5.7l-2.2,5.4c-14.8,34.6-32.5,68-52.9,99.6L83,370.1h15.8
	c0,0.1,101.5,1,101.5,1c47.6,58.7,80.7,123.7,101.3,198.3l8.4,30.5l8.4-30.5c20.4-73.8,53.1-138.1,99.9-196.4
	c16.6,0.1,25.3,0.2,27.6,0.2c24.3,0,42.2-6,53.3-17.9c7.5-8.1,11.7-18.7,11.7-29.7c0.1-9.8-3.6-19.3-10.3-26.5L517,266V265.9z"/>
<path id="Black" d="M448.4,254h-14.7c-56.1-63.8-96.3-138.6-119.5-222.4L310,16.4l-4.2,15.2c-23.4,84.7-64.2,160.1-121.1,224.3
	l-35.2,0.3l-1.1,2.7c-14.8,34.9-32.6,68.4-53.2,100.2l-4.3,6.7l111.5,0.9C251.2,426.5,285,492.4,306,568.3l4.2,15.2l4.2-15.2
	c20.8-75.1,54.2-140.5,102.1-199.7c16.4,0.1,27.2,0.2,29.7,0.2c56.2,0,60.6-33.1,60.6-43.2c0.1-9.8-4-19.1-11.2-25.6l15.9-32.4
	l-3.4-2.1c-0.7-0.4-19.5-11.5-59.5-11.5L448.4,254z"/>
<path id="Gray" class="st0" d="M340.5,400.2c-7.7-12.3-15.2-22.9-22.6-33.2h-28.6c0,0,17.8,20.6,38.2,55.6c4.3,7.4,8.8,15.3,13.1,24
	c4.4-8.6,8.9-16.7,13.1-24c20.4-34.9,38.1-55.5,38.1-55.5h-28.6c-7.7,10.7-15.1,21.1-22.7,33.2 M310.3,456.6
	C295.5,425,277.7,395,257,366.9h-28.6c0,0,53.8,62.4,81.9,154.2c6.6-21.4,14.8-42.2,24.6-62.3c-4.3-8.9-8.6-17.2-12.9-24.9
	c-4,7.6-7.1,13.3-11.5,22.6 M295,201.5c8,3.1,13.2,9.9,15.1,24.9c1.9-15,7.1-21.8,15.1-24.9c-8-3.1-13.2-9.9-15.1-24.9
	C308.2,191.6,303,198.4,295,201.5z"/>
<path id="White" class="st0" d="M309.9,141.4c14.8,31.6,32.6,61.6,53.3,89.7h28.6c0,0-53.8-62.4-81.9-154.2
	c-28,91.9-81.9,154.2-81.9,154.2h28.6c17.2-23.8,32.6-46.2,53-89.7 M162.7,274.6c-10.3,25-22.7,49.1-37.1,72H148
	c2.2-3.8,4.5-7.6,6.7-11.6l0.2-0.4h37.2l0.2,0.4c2.2,4,4.5,7.8,6.8,11.6h22.4c-14.4-22.9-26.8-47-37.1-72H162.7L162.7,274.6z
	 M163.1,319.1l0.6-1.2c2.9-5.7,5.8-11.9,8.9-18.1l0.8-1.7l0.8,1.7c2.9,6.1,5.9,12.3,9,18.1l0.6,1.2H163.1z M488.5,325.6
	c0-12.7-10.6-17.9-27.7-22.2l-4.7-1.1c-14.5-3.5-21.7-5.4-21.7-9.4s5.5-5.4,14.8-5.4c13.4,0,22.1,2.5,28.6,8.2l8.8-17.5
	c-11.2-4.2-21.6-5.7-37.4-5.7c-32.3,0-37.1,13.4-37.1,21.4c0,13,9.6,17.7,29.8,22.8l4.4,1c12.6,3.1,19.5,4.8,19.5,9.3
	s-7.1,7.1-19,7.1s-23.5-3.1-30.3-8.7l-8.3,19c10.7,3.8,23,5.5,38.6,5.5s41.7-4.2,41.7-24L488.5,325.6z M272,332.7
	c-16.8,0-25.6-11-25.6-22.1c0-11,8.7-22.1,25.6-22.1s19.1,3.4,25.4,10l9-18.5c-10.1-5.3-21.2-7.8-35-7.8
	c-26.3,0-46.2,16.5-46.2,38.3c0,21.9,19.9,38.3,46.2,38.3s25-2.5,35-7.8l-9-18.5c-6.4,6.6-15.1,10-25.4,10V332.7z M344.1,317.2h39.6
	V303h-39.6v-14h35c5.2,0,10.2,1.3,14.8,3.7l5.6-18h-77.4c1.6,4.7,2.4,9.7,2.2,14.7v42.7c0.2,5-0.6,10-2.2,14.7h71.3v-18.7
	c-4.4,2.2-9.3,3.4-14.3,3.5H344L344.1,317.2L344.1,317.2z M215.3,257v-13.9h3.4V254H231v3H215.3L215.3,257z M252.3,257l-1.6-2.8H241
	l-1.6,2.8h-3.7l7.9-13.9h4.5L256,257H252.3L252.3,257z M245.8,245.8l-3.1,5.5h6.4l-3.1-5.5H245.8z M277.2,252.6c0,0.7-0.2,1.4-0.5,2
	c-0.4,0.6-1,1.2-1.7,1.6c-0.9,0.5-1.9,0.9-2.9,1c-1.3,0.3-2.7,0.4-4.1,0.4c-0.8,0.1-1.7,0-2.5-0.2c-0.7-0.1-1.6-0.3-2.4-0.5
	c-0.9-0.2-1.7-0.5-2.5-0.9l1.2-2.8c0.7,0.4,1.4,0.6,2.2,0.8c0.7,0.2,1.3,0.3,2,0.4c0.7,0.1,1.3,0.2,2,0.2c1.5,0,3-0.1,4.4-0.5
	c0.9-0.3,1.5-0.8,1.5-1.5c0-0.6-0.1-0.6-0.4-0.8c-0.4-0.2-1-0.4-1.5-0.3h-6.5c-0.7,0-1.4-0.1-2.1-0.3c-0.6-0.2-1.1-0.4-1.7-0.7
	c-0.5-0.3-0.8-0.7-1.1-1.1c-0.6-1.1-0.5-2.4,0.2-3.4c0.5-0.6,1.1-1.1,1.8-1.5c0.9-0.5,1.8-0.8,2.8-0.9c1.2-0.2,2.4-0.3,3.6-0.3
	c0.8-0.1,1.7,0,2.5,0.2c0.7,0.1,1.5,0.2,2.4,0.4s1.8,0.5,2.6,0.8l-1,2.7c-0.4-0.2-0.8-0.3-1.4-0.5c-0.5-0.2-1-0.3-1.6-0.4
	c-0.5-0.1-1.1-0.2-1.7-0.3h-1.7c-0.7,0-1.5,0-2.2,0.1c-0.6,0.1-1.2,0.2-1.8,0.3c-0.4,0.1-0.8,0.2-1.1,0.5c-0.3,0.1-0.4,0.4-0.4,0.7
	s0.1,0.6,0.4,0.7c0.4,0.2,0.8,0.3,1.2,0.3c0.6,0,1.6,0,2.7,0.1c1.1,0,2.5,0.1,4.1,0.2c0.7,0,1.4,0.1,2.1,0.3
	c0.6,0.2,1.1,0.4,1.6,0.7c0.4,0.3,0.8,0.7,1,1.1c0.2,0.5,0.3,1,0.3,1.6L277.2,252.6z M302.1,257l-7.2-13.9h3.9l5.6,10.9l5.6-10.9
	h3.9l-7.2,13.9H302.1z M318.9,243.2h16.7v3h-13.2v2.5H334v2.7h-11.7v2.7H336v3h-17.2v-13.9H318.9z M360.5,250.1c0,1-0.2,1.9-0.6,2.8
	c-0.4,0.9-1.1,1.7-1.9,2.4c-0.9,0.7-1.9,1.3-3,1.6c-2.6,0.8-5.5,0.8-8.1,0c-1.1-0.4-2.1-0.9-3-1.6c-0.8-0.6-1.5-1.5-1.9-2.4
	s-0.6-1.8-0.6-2.8s0.2-1.9,0.6-2.8c0.4-0.9,1.1-1.7,1.9-2.4c0.9-0.7,1.9-1.2,3-1.6c1.3-0.4,2.7-0.7,4.1-0.6c0.9-0.1,1.9,0,2.8,0.3
	c0.8,0.2,1.6,0.4,2.4,0.8c0.7,0.3,1.3,0.7,1.9,1.1c0.5,0.4,1,0.9,1.4,1.5l-3,1.6c-0.5-0.7-1.2-1.3-2-1.7c-1-0.5-2.2-0.7-3.3-0.6
	c-0.9,0-1.8,0.1-2.6,0.3c-0.7,0.2-1.3,0.5-1.9,0.9c-0.5,0.3-0.9,0.8-1.1,1.4c-0.2,0.5-0.4,1.1-0.4,1.7c0,0.6,0.1,1.2,0.4,1.7
	c0.2,0.6,0.6,1,1.1,1.4c0.6,0.4,1.2,0.8,1.9,0.9c0.9,0.2,1.7,0.3,2.6,0.3c1.3,0.1,2.5-0.2,3.6-0.7c0.9-0.4,1.6-1.1,2-2h-7.1v-2.7
	h10.9L360.5,250.1L360.5,250.1z M381.4,257l-1.6-2.8H370l-1.6,2.8h-3.7l7.9-13.9h4.5L385,257H381.4L381.4,257z M375,245.8l-3.1,5.5
	h6.4l-3.1-5.5H375z M406.3,252.6c0,0.7-0.2,1.4-0.5,2c-0.4,0.6-1,1.2-1.7,1.6c-0.9,0.5-1.9,0.9-2.9,1c-1.3,0.3-2.7,0.4-4.1,0.4
	c-0.8,0.1-1.7,0-2.5-0.2c-0.7-0.1-1.6-0.3-2.4-0.5c-0.9-0.2-1.7-0.5-2.5-0.9l1.2-2.8c0.7,0.4,1.4,0.6,2.2,0.8c0.7,0.2,1.3,0.3,2,0.4
	c0.7,0.1,1.3,0.2,2,0.2c1.5,0,3-0.1,4.4-0.5c0.9-0.3,1.5-0.8,1.5-1.5c0-0.6-0.1-0.6-0.4-0.8c-0.4-0.2-1-0.4-1.5-0.3h-6.5
	c-0.7,0-1.4-0.1-2.1-0.3c-0.6-0.2-1.1-0.4-1.7-0.7c-0.5-0.3-0.8-0.7-1.1-1.1c-0.6-1.1-0.5-2.4,0.2-3.4c0.5-0.6,1.1-1.1,1.8-1.5
	c0.9-0.5,1.8-0.8,2.8-0.9c1.2-0.2,2.4-0.3,3.6-0.3c0.8-0.1,1.7,0,2.5,0.2c0.7,0.1,1.5,0.2,2.4,0.4s1.8,0.5,2.6,0.8l-1,2.7
	c-0.4-0.2-0.8-0.3-1.4-0.5c-0.5-0.2-1-0.3-1.6-0.4c-0.5-0.1-1.1-0.2-1.7-0.3h-1.7c-0.7,0-1.5,0-2.2,0.1c-0.6,0-1.2,0.1-1.8,0.3
	c-0.4,0.1-0.8,0.2-1.1,0.5c-0.3,0.1-0.4,0.4-0.4,0.7s0.1,0.6,0.4,0.7c0.4,0.2,0.8,0.3,1.2,0.3c0.6,0,1.6,0,2.7,0.1
	c1.1,0,2.5,0.1,4.1,0.2c0.7,0,1.4,0.1,2.1,0.3c0.6,0.2,1.1,0.4,1.6,0.7c0.4,0.3,0.8,0.7,1,1.1c0.2,0.5,0.3,1,0.3,1.6L406.3,252.6z"
	/>
</svg>
