<?xml version="1.0" encoding="utf-8"?>
<!-- Generator: Adobe Illustrator 25.2.3, SVG Export Plug-In . SVG Version: 6.00 Build 0)  -->
<svg version="1.1" id="Layer_1" xmlns="http://www.w3.org/2000/svg" xmlns:xlink="http://www.w3.org/1999/xlink" x="0px" y="0px"
	 viewBox="0 0 600 600" style="enable-background:new 0 0 600 600;" xml:space="preserve">
<style type="text/css">
	.st0{fill:#FFFFFF;}
	.st1{fill-opacity:0.9412;}
</style>
<path id="Outline" class="st0" d="M548.8,216.1l-2.8-8.2c-1.9-5.3-3.9-10.6-6.1-15.7c13.2-19.3,32.7-46.3,60.1-89.1
	c0,0-12,11.2-42.8,27.3c1.9-6.1,3.5-12.6,4.5-19.8c0,0-16.1,17-44.9,37.4C466,69,377.6,19.2,280.8,19.2c-31.3,0-62.3,5.2-92.1,15.6
	C42.5,85.5-35.2,245.8,15.5,392.1C54.8,505,161.4,580.8,280.8,580.8c31.3,0,62.3-5.3,92.1-15.6c143.4-49.8,220.9-205,175.8-349
	L548.8,216.1"/>
<path id="Blue" class="st1" d="M539.4,219.1l-2.8-7.9c-2.4-6.9-5.1-13.7-8-20.4c15.3-25.5,40.3-54.4,40.3-54.4
	c-7.5,6.1-18,11.3-29.8,16.1c3.2-5.8,6.3-12.1,9.3-18.8c0,0-12.3,11.9-34.6,28c-0.1,0-0.1,0-0.2,0.1C465.5,80.7,377.5,29,280.8,29
	l0,0c-30.2,0-60.1,5.1-88.8,15.1C50.9,93.1-24,247.7,24.9,388.9C62.7,497.8,165.5,571,280.7,571c30.2,0,60.1-5.1,88.9-15.1
	C508,507.8,582.7,358.1,539.2,219.2L539.4,219.1"/>
<path id="Gray" class="st0" d="M379.9,160c0,0,3.6,30.4,25.6,45.9c0,0-16.7,6.8-28.8,9.1c-12.1,2.3-49.6,12.5-49.6,12.5
	S354.7,204.6,379.9,160z M440.3,191.2c2.5-1.4,5-2.7,7.4-4.1c0.2-0.1,0.3-0.2,0.5-0.3l0,0c-16.1-23.8-37-43.7-61.1-58.6
	c-0.1,3-0.2,6.6-0.1,10.6C407.9,152.5,426,170.3,440.3,191.2z M232.8,487.5c-61.9-15.8-113.4-61.7-135.1-124
	c-35-100.8,18.5-211.2,119.3-246.2c20.5-7.1,41.9-10.7,63.4-10.7c36.4,0,71,10.2,100.7,28.4c1.2-2.7,2.4-5.5,3.6-8.3
	c-30.7-18.5-66.5-28.9-104-28.9c-22.5,0-44.8,3.8-66.3,11.2C109.1,145.5,53.2,261,89.7,366.4c24.4,70.1,84.9,120.4,156.3,132.9
	C240.9,496.2,236.4,492.4,232.8,487.5z M511.4,393.3c0,0-52.2-55.6-142.7-55.6c-82.5,0-109.8,32.5-109.8,32.5s48.1-25.7,111-24.2
	c0,0-35.6,8-48.1,12.1c-12.5,4.2-39.4,14.8-39.4,14.8c-8,3.9-31,21.2-51.9,5.7c0,0,2.9-19,30.6-43.2c0,0-16,9.1-29.3,17.8
	c0,0-15.8,0.5-24.6,3.1c0,0,2.7-10.6,3.8-14.6l-10.5,15.8c0,0,4.3,12.3,11.9,21c0,0-6.2,8.9-15.3,8.5s-11-8.5-11-8.5
	s7.8-0.4,9.6-0.2c0,0-2.1-2.9-11-5.7c0,0-0.6-5.2,0-7.8c0,0,6.8-0.5,8.6-0.7c0,0-3.3-3.3-7.9-5.7c0,0,2.2-13.1,28.8-32.7
	c0,0,1.2,3.4,1.7,4.7c0,0,4.8,0,10.1-8.5c0,0,10.7-2.9,17.8-16.9c0,0-23.3,1.2-24.4-14.4c-0.8-11.2,21.7-20.6,28.9-24.7
	c0,0-3.1,10.3,4.3,21.8c0,0,1.6-15.1,30.7-31.8s64.7-23.8,87.4-29.4c22.7-5.6,33.1-8.3,56.5-17.9C450.7,199,513,174,513,174
	s-34.1,18.7-53.7,43.1c-19.7,24.5-19.6,49.8-1.3,73.7c16.9,22,39.4,35.1,50.7,74.9c0,0-39.4-49.5-135.5-49.5
	c-78.4,0-118.1,37.5-118.1,37.5s51.5-28,121.1-28C440.3,325.9,495.5,354.7,511.4,393.3z M262.2,302.9c2.4,3.6,5,6.6,7.5,9.1
	c0.9,2.6,4.1,11.4,7.9,15.2c0,0,1.2-4.5,4.8-7.3c6.7,2.2,13.4,1.7,19.5-0.4c-0.6,0.4-1.2,0.7-1.8,0.8c0,0,27.7-9.3,37.6-21.2
	c0,0-6.8,1.7-12.4,2.6c1.2-1.7,2.2-3.2,2.8-4.6c5.9-13.1,22.6-28.3,22.6-28.3c-18.7,4-45.3,16.8-59.1,27.9l0,0
	C278,307.9,262.2,302.9,262.2,302.9z"/>
<path id="Light_Blue" class="st0" d="M279.9,120.7c-23.9-0.2-38.8,4.3-38.8,4.3c-5.9,21.2,9.3,28.7,9.3,28.7
	c49.6-21.4,81.2-25.6,81.2-25.6C311.9,122.6,294.2,120.8,279.9,120.7z M228.5,128.2c-41.9,12.4-69.1,39.3-69.1,39.3
	c20.5-1.2,57.8,0.3,57.8,0.3c4.7-2.1,20.8-9.1,20.8-9.1C224.3,145.6,228.5,128.2,228.5,128.2z M356.1,137.5
	c-44.6,0.9-87.4,23.3-87.4,23.3c31.2,9.5,32.2-0.6,89.5,14.9c5.8-8.4,11.4-17.8,16.7-28C363.8,140.6,356.1,137.5,356.1,137.5z
	 M388.6,157c0.5,3.4,1.1,6.8,1.9,10c3.4,14,13,24.6,21.2,31.4c1.8,1.2,3.5,2.3,5.2,3.5c4.1-1.6,7.7-3,10.9-4.5
	C415.2,179.8,401,166.5,388.6,157L388.6,157z M258.9,169.6c0,0-7.7,9.2-9.4,12.6c0,0,15.3,16.1,18.7,19.9c0,0,17,8.9,40.6,26.8
	c12.7-9.8,27.8-23.9,42.6-43.4C311.8,175.2,283.2,180.4,258.9,169.6z M157.5,179c-6-0.1-10,0.5-10,0.5c-18.4,17-35,57.5-35,57.5
	c42.4-43.7,76.2-33.1,76.2-33.1c1.6-2.8,7.1-12.4,7.1-12.4C183.3,181.3,167.6,179.2,157.5,179z M224.6,204
	c-2.1,0.9-15.5,8.1-15.5,8.1c16.3,12.8,26.9,28.3,34,45.9c12.8-6.4,30.2-13.3,54.1-20.8c0.5-0.3,0.9-0.6,1.4-0.9
	c-22-16.4-37.8-25.2-37.8-25.2C248.6,207.2,224.6,204,224.6,204z M178.9,214.2c-39.7-0.8-74.2,49.9-74.2,49.9
	C84.3,366.3,156,429.3,156,429.3c-40.8-119.8,20.3-203,20.3-203c0.9-1.7,6.4-11.9,6.4-11.9C181.4,214.3,180.1,214.2,178.9,214.2z
	 M198.3,219c-2.1,1.4-7.3,6-7.3,6c-7.8,12.2-35.6,53.2-37.5,118.5c-2,65.3,20.5,100.8,20.5,100.8c18.5,12.7,35.9,20.9,51.4,26.2
	c-1.7-5-3-10.7-3.7-17.3c0,0-5.9-11.1-5.3-24.1c0,0-18.8-10-24.6-30.5c0,0-17.6-8.8-17.6-29.9s16.2-33.9,20.5-37.8
	s10.7-10.2,12.1-14c0.2-0.6,0.1-1.6-0.2-2.9c-0.7-2.1-1.3-4.2-1.7-6.3c-1-4.8-1.6-11,1.5-17.9c3.1-7,8.6-15.9,26.6-26.6
	C218.7,228.2,198.3,219,198.3,219L198.3,219z"/>
<path id="White" class="st0" d="M298.8,46.5l9.5,23.2l-1.9,13.6l9.4,1.3l1.9-13.8l15.1-19.6l-9.9-1.4l-8.7,11.9L309,47.9
	C309.2,47.9,298.8,46.5,298.8,46.5z M264,47.1l-9.5,0.6l2.1,35.3l24.5-1.5l-0.5-8l-15,0.9C265.6,74.5,264,47.1,264,47.1z
	 M360.1,57.5c-0.1,0-0.2,0.1-0.3,0.3l-13.1,33.4l8.3,3.3l6.5-16.4l14.1,25.1c0.3,0.6,0.6,0.5,0.7,0.2l13.1-33.5l-8.3-3.2l-6.5,16.5
	L360.5,58C360.3,57.7,360.2,57.5,360.1,57.5z M175.7,68.3c-0.1,0.1-0.2,0.2-0.2,0.4l-0.9,40l8.5-3.8l-0.5-20.2l15.1,13.6l8.9-4
	l-30.5-25.7C176,68.3,175.8,68.2,175.7,68.3z M415.7,84.2l-1,19.3l-21,8.4l8,5.7l12.9-5.6l-1.1,13.9l8.6,6.1l1.3-22.9L441,102
	l-8-5.7l-9.5,4.2l0.9-10.3C424.4,90.3,415.7,84.2,415.7,84.2z M141.6,87.6l-22.8,16.8l4.7,6.4l7.6-5.6l16.3,22.1l7.6-5.6l-16.3-22.1
	l7.6-5.6C146.4,94,141.6,87.6,141.6,87.6z M100.9,129c-5.3,0.1-10.5,2.6-14.3,7c-6.6,7.8-6.7,19.3,1.4,26.2s19.5,5.1,26.2-2.7
	c6.6-7.8,6.6-19.4-1.5-26.3C109.2,130.2,105.1,128.9,100.9,129z M99.6,137.9c2.4-0.1,4.8,0.9,6.9,2.7c4.2,3.6,5.4,9,1.5,13.6
	c-3.9,4.5-9.4,4.3-13.6,0.6c-4.2-3.6-5.3-9-1.5-13.5C94.9,139,97.2,138,99.6,137.9z M526.1,174.5c-12.5,6.1-51.1,34.4-63.2,59.4
	s0,42.8,0,42.8c11.4-6.1,16.9-24.6,16.9-24.6c3.3,12.9,3.1,26.9,3.3,37.2c0.2,10.3,10.1,20.7,10.1,20.7c22.3-31.8,12.5-73.4,17-98.4
	C514.8,186.6,526.1,174.5,526.1,174.5L526.1,174.5z M63.1,177.2c-3.1,0.8-6.8,3.1-9.7,8.7c-2.9,5.6-2.3,12.4,3.9,15.6
	c5.2,2.6,9.6,0.8,13.5-3l3.1-3.1c1.8-1.7,2.9-2.4,4.3-1.7c1.8,0.9,1.7,2.8,0.5,5.3c-1.6,3.2-4.1,4.3-6.8,4.8l1.5,8.5
	c3.6-0.6,8.9-3,12.5-10.1c4.3-8.4,1.9-14.1-3.9-17.1c-4.5-2.3-8.6-1.7-13.9,3.6l-3.5,3.5c-1.3,1.3-2.3,1.7-3.5,1.1
	c-1.3-0.6-1.7-2.1-0.6-4.2c1.3-2.5,3.1-3.7,5.1-4.3C65.7,184.6,63.1,177.2,63.1,177.2z M37.7,224.5l-6.3,24.1l34.3,8.9l6.5-24.8
	l-7.7-2l-4.1,15.6l-5.9-1.5l3.2-12.4l-7.3-1.9l-3.2,12.4l-5.7-1.5l3.9-14.9C45.5,226.5,37.7,224.5,37.7,224.5z M26.7,279.6l-0.2,8.9
	l17.8,0.4l-18.9,21.8c-0.5,0.6-0.2,0.7,0.1,0.7l35.9,0.8l0.2-8.9L43.9,303l18.8-21.8c0.5-0.6,0.3-0.7-0.1-0.7L26.7,279.6L26.7,279.6
	z M64.1,335l-35,8l2,8.7l17.3-4l-12.9,25.8c-0.3,0.7,0,0.8,0.3,0.7l35-8l-2-8.7l-17.2,3.9l12.8-25.8C64.7,335,64.5,334.9,64.1,335z
	 M370.5,346.1c-45.5-0.8-90.7,28.2-90.7,28.2c65.4-30.5,112.8-9.6,112.8-9.6c-67.1-5.3-92.2,14.1-92.2,14.1
	c23.3,43.6-22.7,72.4-22.7,72.4c-20.3-0.5-42.8,6.2-42.8,6.2c7.6,43.7,47.3,35.2,47.3,35.2s-12.6-9.7,13.1-33.1
	c26.3-24,54.5-21.7,54.5-21.7c-5.7,3.7-11.7,9.9-11.7,9.9c67.4,4.9,70.2,71.9,70.2,71.9c78.9-78,6.3-125.1,6.3-125.1
	c55.5,3,59.3,51.2,59.3,51.2c6.3-20.8,5.5-47.8-8.6-66c-12.5-16.1-33.6-30-90.3-33.6C373.4,346.1,371.9,346.1,370.5,346.1
	L370.5,346.1z M79.4,388.3L47.2,403l3.9,8.6L83.4,397L79.4,388.3z M244.5,394.3c4.2,11.4,15.8,16.7,15.8,16.7
	c-3.1-6.6-3.4-16.5-3.4-16.5C250.4,395.2,244.5,394.3,244.5,394.3z M214,396.4c0,0-6.8,2.5-11.4,1.8c0,0,3.3,10.8,14.8,15.4
	C217.5,413.5,213.6,402.9,214,396.4z M93.6,417.3l-27.4,23.1c-0.3,0.3-0.1,0.4,0.2,0.4l25.3,1.9l-5.1,25c-0.1,0.3,0,0.5,0.3,0.3
	l29.9-19.8l-5.6-7.4l-12.6,8.4l2.7-13.6c0-0.3-0.1-0.3-0.3-0.4l-13.5-0.9l11.6-9.7L93.6,417.3L93.6,417.3z M256.6,429.2
	c0,0-1.5,6.4,1.4,13.6c0,0,5.2-1.1,10.1-0.4C268.2,442.3,262,437.7,256.6,429.2z M231.8,432.4c0,0-2.9,7.6,0.9,14.7
	c0,0,6.3-2.1,9-2.5C241.8,444.6,235,438.9,231.8,432.4z"/>
<path id="Green" class="st0" d="M244.1,166.1l-24.8,12.7c0,0-17.8-1.3-27.2-1.5c8.6,5.4,16.1,11.7,16.1,11.7l-10.9,18.3l23.4-13
	c0,0,14.8,2.4,28.3,5c-7.8-8.7-17.2-15.2-17.2-15.2L244.1,166.1z M320.8,288.8c0,0-12.7,6.3-19.1,11.8s-20.5,9.4-20.5,9.4
	C309.4,323.2,320.8,288.8,320.8,288.8z M214.7,300.6c-3,26.2,16.9,11.1,16.9,11.1C220.4,312.8,214.7,300.6,214.7,300.6z M230,359.9
	c-4.8,0-15.2,0.3-21.7,2c0,0,1.4,3.1,2.2,3.6c0,0,12.1-1.4,19.9-1.5l2.2-4.1C232.6,359.9,231.6,359.9,230,359.9z"/>
</svg>
