<?xml version="1.0" encoding="utf-8"?>
<!-- Generator: Adobe Illustrator 25.2.3, SVG Export Plug-In . SVG Version: 6.00 Build 0)  -->
<svg version="1.1" id="Layer_1" xmlns="http://www.w3.org/2000/svg" xmlns:xlink="http://www.w3.org/1999/xlink" x="0px" y="0px"
	 viewBox="0 0 600 600" style="enable-background:new 0 0 600 600;" xml:space="preserve">
<style type="text/css">
	.st0{fill:#FFFFFF;}
</style>
<path id="Gray_1_" d="M494.5,69.4l11.1-9.5l-13.5-11C444.5,10.2,353.6,2,314.9,0.2L299.7,0l-14.6,0.2c-38.7,1.8-129.6,10-177.2,48.7
	l-13.5,11l11.1,9.5H39.2l0.2,271.4l10,3.3c0.4,0.2,38.2,13.1,83.1,44.5c22.5,15.7,49.3,38,74.3,67.7c1.6,4,2.7,8.9,2.2,14.2
	c-0.2,1.8-0.5,3.8-1.1,5.7c-0.2,0.9-0.4,1.8-0.5,2.7c-2.7,14.1-5.7,29.8-2.7,48.6c3.8,23.9,16.2,36,16.8,36.5
	c5.1,4.6,11.1,7.8,17.7,9.7c4.4,1.1,8.2,3.5,11.1,6.9c3.8,4,21.7,18.8,40.9,19.3c1.6,0,3.3,0,4.9,0l0,0c19,0,29.2-3.1,41.6-8.8
	c13.9-6.4,35.2-19.7,45.6-26.7c11.9-7.8,25.4-19,24.8-36.7c-0.2-3.8-0.5-7.5-1.1-11.1c-1.6-11.3-2.6-22.8,2.6-37.2l10-24.5l-8,3.1
	c-3.8,1.6-7.3,3.5-10.8,5.8c0.2-2.9,1.3-5.8,2.9-8.4c3.5-5.5,6.9-12.4,8.9-20.4c19-19.3,38.2-34.7,54.9-46.4
	c44.9-31.4,82.7-44.4,83.1-44.5l10-3.3l0-271.6H494.5z"/>
<path id="Brown" d="M546,84h-90.5L483,60.2c-52.2-42.5-165.4-45.6-182.7-46h-0.7c-17.2,0.2-130.3,3.5-182.7,46L144.4,84H53.8
	c0,0,1.3,110.6,0,246.6c0,0,166.7,55.3,226.9,226.7h38c60.2-171.2,226.9-226.7,226.9-226.7C544.7,194.6,546,84,546,84L546,84z"/>
<path id="Red_1_" class="st0" d="M321.1,560L321.1,560L321.1,560L321.1,560z M548.9,84c0,1.1-1.3,112.1,0,246.4v2.2l-2,0.7
	c-0.4,0.2-42,14.2-90.4,48.7c-44.5,31.9-104,88.3-134.9,176.1l-0.7,2h-42l-0.7-2c-30.8-87.6-90.4-144.2-134.9-176.1
	c-48.4-34.7-89.8-48.7-90.4-48.7l-2-0.7v-2.2c1.3-134.3,0-245.3,0-246.4V81h85.6l-24.3-21l2.7-2.2c22.5-18.3,58-31.4,105.9-39.4
	c25-4,50.4-6.4,75.8-7.1l0,0h6.6l0,0c25.4,0.7,50.7,3.1,75.8,7.1c47.8,8,83.4,21.2,105.9,39.4l2.7,2.2l-24.3,21h85.6V84z M543,86.9
	h-95.3l30.7-26.5c-53.3-40.2-165.4-42.9-178.2-43.1h-0.5c-12.8,0.2-124.9,2.9-178.2,43.1l30.7,26.5H57c0.2,18.4,1.1,120.3,0,241.5
	c8.9,3.3,46.7,18.1,89.6,48.7c44.9,32.1,105,88.9,136.4,177.1h33.8c31.6-88.2,91.5-144.9,136.4-177.1c42.9-30.8,80.7-45.5,89.6-48.7
	C542,207.2,542.9,105.1,543,86.9z M454.7,143.1v31.6c0,1.3,0.2,2.2,0.2,3.5c0,0.5,0,0.9,0.2,1.5v0.2c0,1.5,0.2,2.9,0.5,4.2v0.2
	c0.2,0.5,0.2,1.1,0.4,1.6c1.1,3.3,3.1,5.5,8.6,5.5h11.7c3.3,0,6.4,1.5,8.2,4.2l0.5,0.9l3.8,5.8l-5.8,3.7c0,0-0.7,0.5-15.9,10
	c-11.7,7.3-12.6,22.1-12.6,35.4v28.3c15.9-0.9,20.3-5.3,25.2-10c0.5-0.5,1.1-1.1,1.5-1.5c3.5-3.5,7.1-6.9,10.6-10.6l0,0
	c2.6-2.7,6.4-3.7,9.9-2.6l7.7,2.4L495,310.1H369.6c-0.2,0-0.2,0-0.4,0c-10.2-0.2-18.3-8.6-18.1-18.6V236v-0.2
	c0.4-6.4-10.2-14.1-16.2-15h-0.2c-1.3-0.2-2.2-0.4-3.1-0.4c-0.4,0-0.5,0-0.9-0.2v63.9c0,2.9,1.5,4.7,4.9,7.5v18.6h-19l0.2-0.7
	l-28.1-27.2h-0.5v-39.2c-2.2-2.2-6.9,0-8.4-1.5c-1.1-1.1,0.5-6.2,1.8-10c1.5-4.4,6.6-18.6,6.6-26.8v-66.1c0-3.5-2.2-5.3-5.8-8
	c-3.8-2.9-7.3-5.1-7.3-5.1l-0.9-0.5l-0.9,0.5c0,0-3.3,2-7.3,5.1c-4.2,3.1-5.8,4.9-5.8,8v145.1c0,3.1,1.8,4.9,5.8,8
	c0.5,0.4,0.9,0.7,1.5,1.1l-0.9,16.8h-79.2l24.3-17.9c4.2-3.1,5.8-4.9,5.8-8V138.7c0-3.3-2.2-5.3-5.8-8.2c-2.6-1.8-4.7-3.5-6-4.2
	l10.6,39.2l-7.7,2.4c-3.5,1.1-7.3,0-9.9-2.6c-3.5-3.7-7.1-7.3-10.6-10.6c-6.8-6.6-13.1-11.9-25-11.9h-12.8v31.4c0,4,0.4,6.2,9.9,11
	c4.6,2,9.1,3.7,13.9,4.9c5.8,1.8,11.7,4,17.3,6.6c3.3,1.6,7.8,4,7.1,6.9c-0.9,3.1-9.3,6.2-11.5,6.9c-2,0.5-20.8,7.3-32.3,11.1
	c-2.6,0.9-4.2,3.1-4.4,5.7V284c0,3.3,2.2,5.3,5.8,8l24.3,17.9H77.6l24.3-17.9c4.2-3.1,5.8-4.9,5.8-8l-0.2-48.7
	c-0.2-4.4-1.6-8.8-4.4-12.2c-3.3-3.5-5.8-4.2-7.8-6c-1.6-1.5,2.2-4.4,8.8-6.8l0,0c8.6-2.7,17.3-4.7,26.1-6.4
	c-9.5-2.6-22.5-8-22.5-25.4c0-1.1,0-39.6,0-39.6c0-3.1-1.6-4.9-5.8-8L77.6,113h42.5c12,0,76.5,0,76.5,0h162.3c19.3,0,35,15.7,35,35
	v34.3c0.2,11.5-5.7,22.3-15.2,28.5c10.4,6.6,15.2,16.4,15.2,24.5V284c0,4,1.3,5.1,5.3,7.7c0.4,0.2,0.7,0.4,0.9,0.7
	c1.1,0.7,2,1.3,3.1,2c0.9-0.7,2-1.5,2.9-2.2c4.2-3.1,5.8-4.9,5.8-8V284l0.7-39.4c0-16.2,1.8-26.3,6.2-32.7c-4-4.7-6.2-10.8-6.2-17
	l-0.7-55.9c0-3.1-1.6-4.9-5.8-8l-24.3-17.9h113l14.2,52.8l-7.7,2.4c-3.5,1.1-7.3,0-9.9-2.6c-3.5-3.7-7.1-7.3-10.6-10.6
	C476.4,149.7,470.8,144.2,454.7,143.1z M351.9,142.9c-0.5-0.2-0.9-0.2-1.5-0.2h-19.7v61.9h0.2c9.7-3.5,20.8-9.7,20.8-27.4v-34.3
	H351.9z"/>
<path id="Gray" d="M185.1,204.6c-2,0.5-20.8,6.8-32.3,10.6c-5.3,1.6-8.9,6.6-8.9,12.2V284c0,6.9,4.7,10.6,8.6,13.5
	c4.2,3.3,7.7,5.5,7.7,5.5v0.2H98.6V303c0,0,3.5-2.2,7.7-5.5c3.8-2.9,8.6-6.6,8.6-13.5l-0.2-48.7c-0.2-5.8-1.6-14.2-8-17.5
	c-0.4-0.2-0.9-0.5,0-0.9c0.9-0.4,7.5-5.3,66.6-13.9c-4.2-0.5-25.7-2.2-34.5-4.2c-8.8-2-23.7-4.2-23.7-20.3c0-1.1,0-39.6,0-39.6
	c0-6.9-4.7-10.6-8.6-13.5c-4.2-3.3-7.7-5.5-7.7-5.5v-0.2h21.9l0,0c12,0,76.5,0,76.5,0l11.1,41.4l-1.3,0.4c-1.1,0.4-2.2,0-3.1-0.7
	c-2.7-2.9-6.6-6.8-10.8-10.8c-6.8-6.6-15-13.7-29.8-13.7h-19.5v38.2c0,8,3.5,11.9,13.7,17c7.5,3.7,25,7.1,30.5,10.6
	C189.5,202.8,187.8,203.7,185.1,204.6z M358.1,291.5c0,6.4,5.3,11.7,11.7,11.7h35.4l0,0h84.9l11.1-41.4l-1.3-0.4
	c-1.1-0.4-2.2,0-3.1,0.7c-2.7,2.9-6.4,6.8-10.8,10.8c-6.8,6.6-11.9,13.7-38.3,13.7l0,0l0,0l0,0v-35.4c0-12.4,0.4-31.4,15.7-41.1
	c15.3-9.7,15.9-10,15.9-10l-0.4-0.7c-0.5-0.9-1.6-1.5-2.7-1.5h-11.7c-7.3,0-12.6-3.1-15-10.2c-0.2-0.7-0.4-1.6-0.5-2.4
	c-0.4-1.8-0.5-3.7-0.7-5.3c-0.2-1.8-0.4-3.3-0.4-5.5V136c23.5,0,31.6,7.1,38.3,13.7c4.2,4.2,8,8,10.8,10.8c0.7,0.7,2,1.1,2.9,0.7
	l1.3-0.4l-11.3-41.4h-87.3v0.2c0,0,3.5,2.2,7.7,5.5c3.8,2.9,8.6,6.6,8.6,13.5l0.7,55.9c0,6.8,3.5,13,9.3,16.6
	c-5.7,3.8-9.3,10.8-9.3,33.2l-0.7,39.6c0,6.9-4.7,10.6-8.6,13.5c-2.9,2.2-5.3,3.8-6.8,4.7c-2.6-1.3-4.9-2.7-7.3-4.4
	c-4.2-2.9-9.1-5.7-9.1-13.9v-48.7c0-9.1-8.6-20.1-24.5-23.9c11.9-4.2,24.5-12.4,24.5-29v-34.3c0-15.5-12.6-28.3-28.3-28.3h-80.5v0.2
	c0,0,3.5,2.2,7.7,5.5c3.8,2.9,8.6,6.6,8.6,13.5v66.1c0,9.9-5.8,25.4-8,29.9c-2.2,4.6,8-2.4,8,6.2v21.9c-8.6-5.1-16.4-11.7-20.8-21.7
	c0,0-2.7-6.4-2-11.3c-4.9,2.7-7.8,7.8-8.2,13.5c-0.2,1.1-3.7,26.3,24.8,51.7c13.3,11.9,17.2,18.4,17.9,21.7c0.5,2.6-0.2,3.8-2.7,7.5
	c-1.8,1.8-4.2,2.9-6.8,3.1c-3.5,0.5-6.9-0.5-9.7-2.6c-7.5-6.6-12.6-15.2-14.8-24.8c-2.9-12.6-12.4-16.8-19.3-18.1V138.7
	c0-6.9,4.7-10.6,8.6-13.5c4.2-3.3,7.7-5.5,7.7-5.5v-0.2h-61.5v0.2c0,0,3.5,2.2,7.7,5.5c3.8,2.9,8.6,6.6,8.6,13.5v145.1
	c0,6.9-4.7,10.6-8.6,13.5c-4.2,3.3-7.7,5.5-7.7,5.5v0.2h46.4c0,1.8,0,3.7-0.2,5.5c-2,16.4,2.2,24.3,3.7,26.5
	c4.7,7.5,10.8,14.2,17.5,19.9c2,1.6,19,15.7,12,27.6c-4.9,8.4-12,7.7-13.3,7.3h-0.4c-9.3-1.8-16.8-8.9-19-18.3
	c-1.3-4.7-2.4-9.1-3.1-13c-2.9-13-5.1-22.3-13.3-30.8c-11.1-11.5-26.1-12.2-38-8.2c-4,1.3-7.5,4-9.5,7.7l0,0
	c4.9-0.5,9.9,0.4,14.2,2.4l0.2,0.2c4.9,2.4,11.7,8,15.2,23v0.2c3.3,12.6,3.5,25,1.3,27h-0.2c-1.3,0.2-2.6-0.2-3.5-1.1
	c-2.4-2.2-2.7-8-2.7-10v-12.2c-3.8,2-7.3,4.7-10,8c-0.4,0.5-10.2,11.9-2.7,29.9l0,0c6,14.2,6.2,14.6,8.8,29.6
	c1.1,7.3,2.9,14.4,5.5,21.5c-3.8-1.3-7.8-1.5-11.9-0.5l0.4,0.5c0.7,0.7,9.1,12,7.8,25.6c-0.4,2.9-1.1,5.8-1.6,8.8
	c-2.6,13.7-5.7,29.2-2.7,47.3c3.7,22.6,15.3,34,15.7,34.5c4.6,4.2,10,7.1,16.1,8.8c4.9,1.3,9.5,4,12.8,7.8
	c3.3,3.5,20.6,17.7,38.3,18.1c1.6,0,3.3,0,4.7,0c18.3,0,28.1-2.9,40-8.6c13.5-6.2,34.9-19.5,45.3-26.3c11-7.3,23.7-17.5,23.2-33.6
	c-0.2-3.7-0.5-7.3-1.1-10.8c-1.6-11.5-2.7-23.7,2.7-39.1l6.9-16.6c-5.1,2.4-10,5.1-14.8,8.4c-0.5,0.4-1.3,0.7-1.8,1.3
	c0.2-1.8,0.4-3.5,0.5-4.9c0.4-5.1,0.7-7.8,3.7-12.8c5.3-8.6,11.1-20.4,9.3-35.4c-1.5-11.5-5.5-22.5-11.7-32.3
	c-1.8-2.7-5.3-7.7-8.4-12c-2.2-3.1-4.9-6.9-5.5-7.8c-0.2-0.2-0.4-0.5-0.7-1.1c-1.6-2.4-5.7-13.7,0.5-29.4c-4.2,1.1-8,3.1-11.5,5.5
	c-0.5,0.4-13.1,9.3-14.1,24.8c-3.5-5.1-7.5-9.9-11.9-14.2c-7.5-8-10.8-11.9-9.5-20.3c0.2-1.1,0.4-2,0.5-3.1
	c2.6-17,4.9-33.2-8.9-46.7c-1.5-1.5-3.1-2.7-4.9-3.8V135.6h26.5c6.2,0,8.2,3.5,8.2,6.2v35c0,25.9-21,32.1-26.1,34.1
	c-5.1,1.8-3.1,1.5,3.5,2.6c8.6,1.1,23,11.1,22.3,22.1v55.1C358.1,291.3,358.1,291.3,358.1,291.5z"/>
<path id="Red" class="st0" d="M383.3,510.2c0,0-0.9,8.2-1.6,14.6c-0.5,6.4-6,14.1-6,14.1c-2.7,3.5-7.1,5.1-11.3,4.2
	c-6.4-0.7-13,0.4-18.8,3.3c0,0-25.2,9.9-36.3,8.4c-6.8-0.9-13.1-3.5-18.6-7.3c0,0-9.1-8.4-9.9-13.1c-0.7-4.6,2.2-2.7,6.6-1.6
	c7.8,2,15.9,3.7,23.9,4.7c7.1,0.5,26.5,1.6,38.7-3.7c12.2-5.3,13.3-14.6,13.3-14.6s1.3-10.6,4.6-16.6c4-7.8,9.7-14.6,16.6-19.9
	c3.5-2.9,5.7-7.1,6-11.7c0.9-8.2,0.2-12.4,5.1-20.4c4.7-7.8,10-18.3,8.4-31.2c-1.5-10.6-5.1-20.6-10.6-29.8
	c-3.5-5.3-12.8-18.1-14.1-19.9c-1.1-2-7.8-9.5-2.7-23c0,0-13,8.9-11.1,24.5c1.8,15.5,7.7,32.5-0.5,43.6c0,0,1.5-25.6-10.2-43.4
	c-11.7-17.9-25.9-22.5-23.2-40.3c2.6-17.9,5.7-32.3-6.6-44.5c-12.4-12-46.5-16.1-55.9-43.6c0,0-2,23.9,24.5,47.5
	c26.5,23.5,21.2,30.7,16.1,37.6c-5.1,6.9-19,7.7-25.9,1.5c-8.4-7.3-14.2-17.2-16.8-28.1c-2.7-12.8-11.3-13-11.3-13s6.6,5.5,4.6,21.4
	c-2,15.9,2.6,22.1,2.6,22.1c4.4,6.9,9.9,13.1,16.2,18.4c10,8,21,22.6,13.5,35.6c-7.7,13-20.1,10.4-20.1,10.4
	c-11.9-2.2-21.4-11.1-24.1-22.8c-5.5-20.3-5.8-31.4-15-41.1c-8.8-8.9-19-12.8-34.3-7.8c0,0,20.4-3.3,27.2,27c0,0,9.1,34.7-4.7,35
	c-13.9,0.4-11.7-17.5-11.7-17.5s-7.7,8.8-1.6,23.4c6,14.6,6.4,15.3,9.1,30.8c2.7,15.7,5.8,29,20.1,42.7c4.9,3.8,8.8,8.8,11.7,14.2
	c3.3,6.9,10,17,13.7,22.5c3.7,5.5,1.3,6,0.2,6.4c0,0-9.9,2.6-23.2-10c0,0,4.6,9.9,19.5,22.5c15.2,12.6,17.7,24.6,17.7,24.6
	s3.8,16.6-1.1,23c-4.9,6.6-8.2,4.6-10.8,0.9c-2.7-3.5-13-18.1-17.9-24.6c-4.9-6.8-19.2-25.7-20.1-41.8c-0.9-16.1,2.9-31-2.2-41.8
	c-5.1-10.8-10.2-10-10.2-10s6.9,4.6,4.4,20.4c-2.7,15.9-7.7,33.2-4.4,54c3.3,20.8,13.9,30.8,13.9,30.8c3.8,3.5,8.2,5.8,13.1,7.1
	c6.2,1.6,11.7,4.9,15.9,9.7c3.1,3.3,19,15.9,34,16.2c19.5,0.5,29-1.8,42.2-7.8c13-6,33.8-18.8,44.4-25.9
	c10.6-7.1,20.6-15.7,20.4-28.1c-0.4-12.4-7.3-31,3.1-52.8C401.6,475.7,388.3,483.5,383.3,510.2L383.3,510.2z M373.5,463.1
	c11-8.8,11.9-23.5,11.9-23.5c1.6,4.4,0.2,13.7-2.4,19.9s-5.8,10.6-20.1,19.7c-14.2,9.3-21,29.8-21,29.8
	C345.5,478.2,362.5,471.9,373.5,463.1L373.5,463.1z M245,450c-2.2-16.8,21-25.2,21-25.2c-15.9-0.4-28.7,13.7-28.7,13.7
	c-3.1-29-11.3-34.7-11.3-34.7c6,2.6,13.3,12.6,13.3,12.6c2.4,2.7,6,3.7,9.3,2.2c5.5-2.6,3.3-10.8,3.3-10.8c7.5,8.9,42.7,18.6,58,1.6
	c15.5-17,4.6-40.9,4.6-40.9c19.5,22.8,13.3,40.2,11.1,45.5c-2.2,5.3,3.8,6.8,3.8,6.8c8.2,3.3,18.3,8.6,18.3,8.6l-4.7,9.3
	c8.9,3.7,17.7,8,25.9,13.3c-13.3,8.2-35,23.2-35,23.2c3.7-12.4-0.2-19.3-0.2-19.3c-3.3-7.1-18.4-10.6-18.4-10.6
	c-3.3-19.2-23.5-17.2-23.5-17.2c11.9,5.8,11.7,13.5,11.7,13.5s-5.1-5.5-11.1-6.6c-6-1.1-11.9,3.7-11.9,3.7c-1.6-2.9,1.3-7.1,1.3-7.1
	c-4.6,0-11.3,4.7-8.9,11.7c2.4,6.9,15.9,9.3,15.9,9.3c-6,0.9-12.2-0.4-17.5-3.7c-8.2-5.3-4-15.9-4-15.9c-6.8,4.4-11.5,6.9-10.6,15.9
	c0.9,7.5,12.2,15.3,23.2,19.2c11,3.8,38,7.8,38,7.8c-30.1,1.3-46.5-4.4-46.5-4.4S247,466.7,245,450L245,450z M270.9,489.2
	c-2.7-4.4-7.7-10.8-8.4-11.7c0,0-0.7-1.1-0.4-1.6c0.4-0.5,1.1-0.4,1.6,0.2c2.2,1.5,4.4,2.6,6.9,3.5c7.7,2.4,15.5,4,23.5,5.1
	c9.7,0.7,11.9,4.4,11.9,7.3c0,2.7,0.5,12.8-3.1,22.3c-3.8,9.5-9.9,4.7-9.9,4.7s-5.5-3.3-11.3-12.2
	C277.5,500.2,274,494.1,270.9,489.2L270.9,489.2z"/>
<path id="White" class="st0" d="M398.5,48c-0.9-0.9-1.8-1.6-2.2-1.8c-0.2,0.2-1.1,0.4-2.2,0.9s-2.4,1.3-2.4,3.1c0,12.6,0,25.4,0,38
	c0.2,1.6,1.1,3.1,2.4,4c1.1,0.9,1.8,1.6,2.2,1.8c0.2-0.2,1.1-0.4,2.2-0.9c1.1-0.5,2.4-1.1,2.4-2.9c0-12.6,0-25.4,0-38
	C400.7,50.4,399.9,48.9,398.5,48L398.5,48z M222.7,46.5c-1.6,0.4-3.3,0.5-5.1,0.9c-1.1,0.2-2,1.1-2,2.2c0,11.9,0,23.7,0,35.6
	c0,0.9,0.7,1.6,1.6,1.6c0.2,0,0.2,0,0.4,0c1.6-0.4,3.3-0.5,5.1-0.9c1.1-0.2,2-1.1,2-2.2c0-11.9,0-23.7,0-35.6c0-0.9-0.7-1.6-1.6-1.6
	C222.9,46.5,222.7,46.5,222.7,46.5L222.7,46.5z M188.9,79.8c-0.9,0.5-1.3,0.9-1.3,0.7c0-0.5,7.8-5.3,7.8-15.7c0-3.7,0-7.5,0-11.1
	c0-0.7-0.9-1.1-2-0.7c-2.2,0.5-4.2,1.1-6.4,1.6c0,13,0,25.7,0,38.7c0,1.8,1.3,2.4,2.4,2.9c1.3,0.5,2.2,0.9,2.2,0.9l0,0
	c-5.8,1.5-11.7,2.9-17.3,4.7l0,0c0,0,0.9-0.9,2.2-2c1.3-1.1,2.2-2.6,2.4-4.2v-6.9c0-2.2-2.9,0.4-2.2-0.9c1.1-2.6,2-5.3,2.2-8
	c0-7.3,0-14.6,0-21.9c0-1.8-1.3-2.4-2.4-2.9c-1.3-0.5-2.2-0.7-2.2-0.7l0,0c2-0.5,4.2-1.1,6.2-1.8c6.2-1.8,15.2-3.8,15.2-3.8
	c4.4-1.1,8,1.5,8,5.5c0,3.7,0,7.3,0,11C203.7,70.5,190.4,78.7,188.9,79.8L188.9,79.8z M224.9,90c-3.1,0.5-6.4,1.1-9.5,1.6
	c-4.4,0.9-8-1.6-8-5.8c0-11.1,0-22.1,0-33.2c0.4-4.6,3.7-8.2,8-8.9c3.1-0.5,6.4-1.1,9.5-1.6c4.4-0.7,8,2,8,6c0,11.1,0,22.1,0,33.2
	C232.7,85.6,229.3,89.3,224.9,90L224.9,90z M271.6,84.5c-3.5,0.2-6.8,0.5-10.2,0.7c-1.6,0.2-3.1-0.7-3.3-2.4c0-0.2,0-0.4,0-0.4V68.1
	c0.2-2.9-4-5.1-6.4-5.1c-1.8,0-2.4,0.2-0.9-0.5c1.5-0.7,7.5-2.9,7.5-9.7v-9.1c0-0.7-0.5-1.6-2.4-1.5c-2.6,0.2-5.1,0.5-7.7,0.9
	c0,13,0,25.7,0,38.7c0,1.8,1.3,2.6,2.6,3.3c1.3,0.7,2.2,1.1,2.2,1.1l0,0c-5.8,0.5-11.9,1.3-17.7,2.2l0,0c0,0,0.9-0.7,2.2-1.6
	c1.5-0.9,2.4-2.2,2.6-3.8V71.6c0-2.2-2.9,0-2.4-1.3c1.3-2.6,2-5.3,2.4-8.2c0-5.8,0-11.5,0-17.3c0-1.8-1.3-2.6-2.6-3.1
	c-1.3-0.7-2.2-1.1-2.2-1.1l0,0c7.7-1.1,15.5-2,23.2-2.7c3.8-0.5,7.5,2,8,5.8c0,0.2,0,0.5,0,0.9v8.9c0,4.4-3.7,6.8-7.1,8.2
	c4.6,0.5,7.1,3.3,7.1,5.7v12.8c0,2.2,1.5,2.7,2.7,3.5C270,83.8,270.7,84.1,271.6,84.5L271.6,84.5L271.6,84.5z M296.3,43.6
	c-2-1.8-4.6-2.9-7.3-3.3v38.3c0.2,1.5,1.1,2.9,2.6,3.5c1.3,0.7,2.2,1.5,2.2,1.5l0,0c-6,0-11.9,0.4-17.9,0.5l0,0c0,0,0.9-0.5,2.2-1.5
	c1.5-0.7,2.4-2,2.6-3.7V40.7c-2.7,0.5-5.3,1.8-7.3,3.7c-1.3,1.1-2.4,2.2-3.1,3.1c-0.2,0.2-0.5,0.4-0.9,0.2c-0.2,0-0.2,0-0.4,0
	c1.1-3.7,2.2-7.3,3.3-11.1c8.4-0.5,16.8-0.7,25.2-0.9l3.3,10.8c-0.2,0-0.2,0-0.4,0.2c-0.4,0-0.5,0-0.9-0.2
	C298.6,45.6,297.5,44.5,296.3,43.6L296.3,43.6z M299.5,83.6L299.5,83.6c0,0,0.9-0.7,2.2-1.5c1.5-0.7,2.4-2,2.6-3.5v-38
	c-0.2-1.5-1.1-2.9-2.6-3.5c-1.3-0.9-2.2-1.5-2.2-1.5l0,0c6,0,11.9,0.2,17.9,0.4l0,0c0,0-0.9,0.5-2.2,1.3c-1.5,0.5-2.4,2-2.6,3.5
	v38.7c1.8,0,3.7,0.2,5.5,0.2c2.9-0.2,5.7-1.3,7.8-3.3c0.2-0.2,2.9-2.6,3.1-2.7s0.5-0.2,0.9-0.2c0.2,0,0.2,0.2,0.4,0.2
	c0,0.2-0.2,0.5-0.2,0.9c-0.9,3.3-2,6.6-2.9,9.9C318,84,308.9,83.6,299.5,83.6L299.5,83.6z M425.7,94.2c0,4-3.7,6.4-8,5.1
	c-6.9-1.8-14.1-3.7-21.2-5.1h-0.2c-3.7-0.7-7.5-1.6-11.1-2.4c-0.4-0.2-0.7-0.4-0.9-0.7c-4.4-11.9-8.9-23.7-13.5-35.4
	c0,9.5,0,19.2,0,28.7c0.2,1.6,1.1,3.1,2.4,4c1.3,1.1,2.2,1.8,2.2,1.8l0,0c-4.4-0.7-8.8-1.5-13.1-2c-5.1-0.7-10.4-1.3-15.5-1.8l0,0
	c0.9-0.2,1.8-0.7,2.7-1.3c1.1-0.7,1.5-2,1.3-3.3c-0.4-1.8-0.5-3.5-1.8-4.4c-3.1-2.2-7.8-3.1-7.8-4.4c0.2-1.5,5.7-1.3,6.4-3.5
	c0.4-1.5,0.4-2.9,0-4.2c-0.9-4.7-1.8-9.7-2.9-14.4l-6.2,29.4c-0.2,0.9,0,2,0.7,2.7c0,0,0.5,0.7,0.9,0.9c0.7,0.5,1.5,1.1,2.4,1.6l0,0
	c-4.6-0.4-9.1-0.7-13.9-1.1l0,0c0.9-0.2,1.8-0.5,2.7-1.1c0.5-0.2,0.9-0.5,1.5-0.9c0.7-0.7,1.3-1.5,1.6-2.6c0-0.2,1.3-5.8,1.3-5.8
	c0.2-1.8-2.9-0.9-2-2c1.6-2,3.1-4.4,3.8-6.9c1.5-7.3,3.1-14.6,4.6-22.1c0.2-0.5,0-1.3-0.2-1.8c-0.4-0.7-0.9-1.5-1.5-2
	c-0.2-0.2-2.7-2-2.7-2l0,0c4.4,0.4,8.8,0.7,13.1,1.3c1.8,9.1,3.7,18.3,5.5,27.4c0.5,2,2,3.7,4,4.4c1.3,0.4-11.3,1.8-17.5,2.7
	c4.4,0.2,8.8,0.7,13,1.5c2,0.5,2.6,2.2,3.1,4.9c0.2,1.3,0.5,2.6,0.9,3.7c0.7,1.6,2,3.1,3.5,4.2l0,0c0.4-0.2,0.7-0.4,1.1-0.5
	c1.1-0.5,2.6-1.3,2.6-3.1c0-12.6,0-25.4,0-38c-0.2-1.6-1.1-3.1-2.6-3.8c-1.3-1.1-2.2-1.6-2.2-1.6l0,0c3.8,0.5,7.5,1.1,11.3,1.6
	c0.5,0,1.1,0.4,1.3,0.9c4.4,11.9,8.9,23.7,13.3,35.6c0-9.7,0-19.2,0-28.8c-0.2-1.6-1.1-3.1-2.4-4c-1.3-1.1-2.2-1.8-2.2-1.8l0,0
	c4.4,0.7,8.6,1.6,13,2.6h0.2c7.1,1.6,14.2,3.3,21.2,5.1c4.4,1.3,7.7,5.1,8,9.7C425.7,71.9,425.7,83.1,425.7,94.2L425.7,94.2z
	 M415.5,54.9c-2.2-0.5-4.2-1.1-6.4-1.6c0,13.1,0,26.3,0,39.4c2.2,0.5,4.2,1.1,6.4,1.6c0.7,0.4,1.6,0,2-0.7c0-0.2,0.2-0.4,0.2-0.5
	c0-11.9,0-23.7,0-35.6C417.5,56.2,416.6,55.3,415.5,54.9L415.5,54.9z"/>
</svg>
