<svg version="1.1" id="Layer_1" xmlns="http://www.w3.org/2000/svg" xmlns:xlink="http://www.w3.org/1999/xlink" x="0px" y="0px"
	 viewBox="0 0 600 600" style="enable-background:new 0 0 600 600;" xml:space="preserve">
<style type="text/css">
	.st0{fill:#AAAAAA;}
	.st1{fill:#555555;}
</style>
<path id="Black" d="M600,300c0,165.7-134.3,300-300,300S0,465.7,0,300S134.3,0,300,0S600,134.3,600,300"/>
<path id="Outer_Gold_Ring" class="st0" d="M300,593.3c-78.3,0-151.9-30.5-207.2-85.8C37.5,452.1,7,378.5,7,300.3
	C7,222,37.5,148.4,92.8,93.1C148.1,37.7,221.7,7.2,300,7.2S451.9,37.7,507.2,93c55.3,55.4,85.8,129,85.8,207.3
	s-30.5,151.9-85.8,207.2S378.3,593.3,300,593.3 M300,14.4c-157.6,0-285.8,128.2-285.8,285.8S142.4,586,300,586
	s285.8-128.2,285.8-285.8C585.8,142.7,457.6,14.4,300,14.4"/>
<path id="Red" class="st1" d="M300,115.3c15.8,0,31,2,45.7,5.7v357.9c-14.6,3.7-29.9,5.7-45.7,5.7c-16,0-31.6-2.1-46.4-5.9V121.3
	C268.4,117.4,284,115.3,300,115.3z M484.7,300c0-54.5-23.7-103.5-61.4-137.4v274.8C460.9,403.6,484.7,354.5,484.7,300z M115.3,300
	c0,54.1,23.4,102.9,60.6,136.7V163.3C138.8,197.1,115.3,245.9,115.3,300z"/>
<path id="A_Black" d="M357.9,189.7l19.1-38.3H222.7l19.1,38.3l-82.4,244.5l74.8,49.1l15.6-44.4h101.1l14.3,44.1l75.8-48.9
	L357.9,189.7z M279.3,351.7l20.7-62.1l21.3,62.1H279.3z"/>
<path id="A_Light_Gold" class="st0" d="M350.2,189.2l15.3-30.7H234.2l15.3,30.7l-83.7,248.4l28.9,27l15,7.1l18.2,8.1l16.8-48H356
	l16.2,49.9l30.6-16.4l32.1-26.5L350.2,189.2z M269.3,358.8l30.5-91.7l31.5,91.7H269.3z"/>
<path id="A_Dark_Gold_1_" class="st1" d="M269.3,358.8l-50.8,36.5l81.5-237l81.5,237l-50.2-36.4l-31.5-91.7L269.3,358.8z M197,457.8
	l21.5-62.5h163l21,61.1l-32.3,18.8L356,431.7H244.6L229.4,475L197,457.8z"/>
<path id="Inner_Gold_Ring" class="st0" d="M300,499c-109.7,0-199-89.3-199-199s89.3-199,199-199s199,89.3,199,199S409.7,499,300,499
	 M300,109.1c-105.3,0-190.9,85.6-190.9,190.9S194.7,490.9,300,490.9S490.9,405.3,490.9,300S405.3,109.1,300,109.1"/>
<path id="Inner_Dark_Gold" class="st1" d="M300,491.8c-105.8,0-191.8-86-191.8-191.8s86-191.8,191.8-191.8s191.8,86,191.8,191.8
	S405.8,491.8,300,491.8 M300,115.3c-101.8,0-184.7,82.8-184.7,184.7c0,101.8,82.8,184.7,184.7,184.7S484.7,401.8,484.7,300
	S401.8,115.3,300,115.3"/>
<path id="Gold_Letters" class="st0" d="M308.8,36.7c0.5-1.7,1.1-3.5,1.6-5.2c-6.9-0.4-13.9-0.4-20.8-0.1c0.5,1.7,1.1,3.5,1.6,5.2
	c-4.9,16.2-9.9,32.5-14.8,49c4.1-0.4,8.2-0.8,12.4-1c0.8-2.7,1.5-5.4,2.3-8.1c5.9-0.2,11.8-0.2,17.6,0.1c0.8,2.7,1.5,5.4,2.3,8.2
	c4.1,0.2,8.3,0.6,12.4,1C318.5,69.3,313.7,52.9,308.8,36.7 M300,45c1.9,6.8,3.8,13.7,5.6,20.5c-3.8-0.1-7.6-0.1-11.4,0
	C296.1,58.6,298.1,51.8,300,45 M437.6,133.8c3.2,2.6,6.3,5.4,9.4,8.2c2.5-1.4,5-2.7,7.4-4c4.3,4,8.4,8.2,12.3,12.6
	c-1.4,2.4-2.8,4.9-4.3,7.3c2.7,3.1,5.4,6.3,7.9,9.6c8.4-15,16.7-29.9,24.9-44.7c1.6-0.8,3.2-1.7,4.8-2.5c-3.9-4.4-8-8.6-12.2-12.7
	C471.3,116.1,454.5,124.8,437.6,133.8 M464.5,132.3c6.2-3.4,12.5-6.8,18.7-10.2c-3.5,6.1-7.1,12.3-10.7,18.4
	C469.9,137.7,467.3,134.9,464.5,132.3 M422.2,60.4c-1.9,3.2-3.8,6.3-5.7,9.5c3.9,2,7.8,4.1,11.6,6.3c-7.3,12-14.5,24.1-21.8,36.1
	c3.3,1.9,6.6,3.9,9.8,5.9c7.3-12,14.5-24.1,21.8-36.1c3.3,2.1,6.5,4.2,9.6,6.3c2.8-2.5,5.7-5,8.5-7.5
	C445.2,73.3,433.9,66.4,422.2,60.4 M384.2,44.5c-3,10-5.9,20-8.9,30c-2.1-11.7-4.2-23.3-6.4-34.6c-4.1-1.1-8.2-2-12.4-2.8
	c0,1.8,0.1,3.6,0.1,5.4c-4.5,15.3-9.1,30.6-13.6,46c3.8,0.8,7.5,1.6,11.2,2.6c3-10,5.9-20,8.9-30c2.2,11.4,4.3,22.9,6.4,34.7
	c3.5,1.2,6.9,2.5,10.4,3.9l15.1-51C391.4,47.1,387.8,45.7,384.2,44.5 M113.1,107.4c-4.2,4.1-8.3,8.3-12.2,12.7
	c1.6,0.8,3.2,1.6,4.8,2.5c8.2,14.8,16.5,29.7,24.9,44.7c2.6-3.3,5.2-6.5,7.9-9.6c-1.4-2.4-2.8-4.9-4.3-7.3c3.9-4.4,8-8.6,12.3-12.6
	c2.5,1.3,5,2.7,7.4,4c3-2.8,6.1-5.5,9.4-8.2C146.5,124.8,129.8,116.1,113.1,107.4 M128.5,140.5c-3.6-6.2-7.1-12.3-10.7-18.4
	c6.2,3.4,12.4,6.8,18.7,10.2C133.8,134.9,131.1,137.7,128.5,140.5 M178.9,60.4c1.9,3.2,3.8,6.3,5.7,9.5c-3.9,2-7.8,4.1-11.6,6.3
	c7.3,12,14.5,24.1,21.8,36.1c-3.3,1.9-6.6,3.9-9.8,5.9c-7.3-12-14.5-24.1-21.8-36.1c-3.3,2.1-6.5,4.2-9.6,6.3
	c-2.8-2.5-5.7-5-8.5-7.5C155.8,73.3,167.1,66.4,178.9,60.4 M232.7,83.7c-3.9-13.5-7.7-27-11.6-40.5c-3.7,1.1-7.3,2.4-10.9,3.7
	c5,17,9.8,34.1,14.7,51.1c9.7-3.5,19.6-6.4,29.7-8.7c0.1-3.8,0.2-7.6,0.3-11.3C247.4,79.5,240,81.5,232.7,83.7 M217.6,498.7
	c-3.5-1.5-7-3.1-10.4-4.7c-7.3,16.2-14.6,32.3-22,48.5c3.5,1.6,6.9,3.2,10.4,4.7C202.9,531,210.3,514.8,217.6,498.7 M270.4,513.2
	c-0.8,3.6-1.7,7.2-2.5,10.8c-4.4-0.6-8.7-1.4-13-2.3c-3.2,13.7-6.3,27.4-9.5,41.1c-3.7-0.8-7.5-1.6-11.2-2.6
	c3.2-13.7,6.3-27.4,9.5-41.1c-4.3-1.1-8.5-2.3-12.7-3.7c0.8-3.6,1.7-7.2,2.5-10.8C245.5,508.5,257.8,511.4,270.4,513.2 M299.5,546.8
	c6,0,12-0.2,17.9-0.6c-0.1-3.7-0.2-7.4-0.2-11.1c-6,0.5-12,0.7-17.9,0.6c-0.1-3.1-0.1-6.2-0.2-9.4c7.6,0,15.2-0.3,22.8-1.1
	c-1.2-3.6-2.4-7.2-3.6-10.7c-10.3,0.9-20.6,1-30.9,0.4c0.4,17.7,0.7,35.5,1.1,53.2c10.3,0.6,20.6,0.5,30.9-0.4
	c1.1-3.8,2.1-7.6,3.1-11.4c-7.6,0.7-15.2,1.1-22.8,1.1C299.6,553.9,299.5,550.4,299.5,546.8 M380.5,514.5c-2-7.3-9.4-11-16.6-8.7
	c-8,2.5-16.1,4.5-24.4,6c1,1.6,2,3.2,3,4.8c4.3,15.4,8.6,30.8,12.9,46.2c7.7-1.5,15.3-3.4,22.8-5.7c7.2-2.2,11.3-10.3,9.3-17.6
	C385.1,531.1,382.8,522.8,380.5,514.5 M376.6,543.1c0.4,1.4-0.4,2.9-1.8,3.3c-3.7,1.1-7.4,2.2-11.2,3.1c-2.8-10-5.6-20-8.4-30
	c3.8-0.9,7.5-2,11.2-3.1c1.4-0.4,2.8,0.4,3.2,1.7C372,526.5,374.3,534.8,376.6,543.1 M178.1,477.1c-6.2,8.4-12.5,16.8-18.7,25.1
	c1.9-11.4,3.8-23,5.9-34.7c-2.9-2.3-5.7-4.7-8.4-7.1c-10.6,14.2-21.2,28.5-31.8,42.7c2.9,2.5,5.8,5,8.8,7.4
	c6.2-8.4,12.5-16.8,18.7-25.1c-2.1,11.7-4,23.3-5.9,34.7c3,2.1,6.1,4.1,9.3,6.1c10.6-14.2,21.2-28.5,31.8-42.7
	C184.5,481.4,181.3,479.3,178.1,477.1 M135,437.5c-10.7,8.3-21.3,16.5-32,24.8c-1.1,0.9-2.8,0.7-3.7-0.4c-1.9-2.3-3.7-4.7-5.5-7.1
	c-0.9-1.2-0.6-2.8,0.5-3.7c10.7-8.3,21.3-16.5,32-24.8c-2.6-3.5-5-7.1-7.4-10.8c-1.1,1.5-2.2,3.1-3.3,4.6
	c-9.3,7.2-18.6,14.4-27.8,21.6c-6,4.6-7.5,13.6-3,19.6c2,2.6,4,5.2,6,7.7c4.8,5.8,13.9,6.5,19.8,1.9c10.7-8.3,21.3-16.5,32-24.8
	C140,443.3,137.4,440.5,135,437.5 M437.4,480.2c6.1-4.6,11.9-9.5,17.5-14.7c-3.1-2.1-6.2-4.2-9.3-6.4c-8.1,7.3-16.6,13.9-25.7,20
	c1.5,1.1,3.1,2.2,4.6,3.2c9.9,12.5,19.8,25.1,29.7,37.6c3.2-2.2,6.3-4.4,9.3-6.7c-4.5-5.7-9-11.4-13.5-17.1
	c4.8-3.6,9.4-7.4,13.9-11.4c-2.3-2.9-4.6-5.8-6.9-8.7c-4.5,4-9.1,7.8-13.9,11.4C441.3,485.1,439.4,482.6,437.4,480.2 M493.2,422.4
	c-6-4.6-14.3-3.1-18.7,3c-1.9,2.6-3.9,5.2-5.9,7.8c-4.7,5.9-3.8,14.3,2.2,18.8c7.4,5.6,14.7,11.2,22.1,16.7c6,4.6,14.9,3.6,19.6-2.3
	c2-2.6,4-5.2,5.9-7.8c4.5-6.1,2.9-14.9-3.1-19.5c-1.2-0.9-2.3-1.7-3.5-2.6c-2.1,3.2-4.3,6.3-6.5,9.4c1.1,0.9,2.3,1.7,3.5,2.6
	c1.1,0.9,1.4,2.5,0.5,3.7c-1.8,2.4-3.6,4.8-5.4,7.2c-0.9,1.1-2.6,1.3-3.7,0.5c-7.4-5.6-14.7-11.2-22.1-16.7
	c-1.2-0.9-1.4-2.5-0.5-3.6c1.8-2.4,3.7-4.8,5.4-7.2c0.9-1.2,2.5-1.4,3.6-0.5c0.8,0.6,1.6,1.2,2.4,1.8c2.2-3.1,4.4-6.2,6.5-9.4
	C494.8,423.6,494,423,493.2,422.4 M500.2,169.8c25.2,38.8,38.6,83.7,38.6,130.2c0,37.3-8.3,73-24.8,106.1l6.5,3.3
	c17-34.2,25.6-71,25.6-109.4c0-49.3-14.5-96.8-42-137.5L500.2,169.8z M99.7,169.8C74.5,208.6,61.2,253.5,61.2,300
	c0,37.3,8.3,73,24.8,106.1l-6.5,3.3c-17-34.2-25.6-71-25.6-109.4c0-49.3,14.5-96.8,42-137.5L99.7,169.8z"/>
</svg>
