<svg version="1.1" id="Layer_1" xmlns="http://www.w3.org/2000/svg" xmlns:xlink="http://www.w3.org/1999/xlink" x="0px" y="0px"
	 viewBox="0 0 600 600" style="enable-background:new 0 0 600 600;" xml:space="preserve">
<style type="text/css">
	.st0{fill:#555555;}
	.st1{fill:#FFFFFF;}
	.st2{fill:#AAAAAA;}
</style>
<path id="Red" class="st0" d="M596.6,42.8C596.6,42.8,492.7,0,300,0S3.5,42.8,3.5,42.8C-21.2,350.7,129.2,522.4,300,600
	c170.8-77.6,321.1-249.3,296.5-557"/>
<path id="White" class="st1" d="M589.9,47.8C569.5,40.5,468.7,7.1,300,7.1S30.5,40.5,10.1,47.8c-1.6,21-2.4,41.2-2.4,60.7
	c0,301.1,178.5,431.3,292.3,483.7c113.6-52.4,292.3-182.6,292.3-483.7C592.3,89,591.5,68.7,589.9,47.8"/>
<path id="Red_1_" class="st2" d="M434.5,297.5l-31.6,7.1c-5.5,3.8-14.9,11.8-9.5,18.6l30.5,32.5c-3.4,7.3-0.9,15.9,5.8,20.4
	c-1.6,8.9-13.2,21-13.2,21l-12.3,0.8l-5.4,8.6l-33.8,2.4l-6.9-3.4c-26.9,52.4-7.5,92.6,24.6,115.1C480.3,453,544.4,364.3,569,226.3
	C478.9,231.4,478.1,287,434.5,297.5 M30.9,225.4c12.8,72.1,36.3,130.9,69.8,180.1c30.7-37.3,66.8-69.8,107.1-96.3
	c-10.8-1.1-21.2-2.2-29.7-3.4c-73.3-9.3-76.4-79.2-146.9-80.4 M365,301.4c-0.6-9,11-16,2.8-28.6c-6.5-10-22.3-11.3-19.7-19
	c-4.2,1.5-6.3,6.1-4.8,10.3c0.6,1.6,1.7,3,3.1,3.9c5.9,5-4.2,9.2-6.3,3.3c-2.4,2.9-2.4,7.6,3,12.3c5.4,4.6,17.6,4.8,21.9,17.6"/>
<path id="Blue" d="M568.9,226.4L568.9,226.4c-90.1,5.1-90.9,60.6-134.5,71.1l-31.6,7.1c-5.4,3.8-14.8,11.9-9.5,18.6
	c-0.9-0.8-1.8-1.8-2.5-2.7c-7.2-9.4-5.4-22.8,4-30c-1.2-3.7-3.1-7.2-5.6-10.2c0,0,22.7-1.1,39.5-2.7l0,0
	C469.3,273.4,472.9,222,568.9,226.4c-92.2-14.2-109.4,31.7-152.9,35.3c-22.4,1.5-41.5,1.5-41.5,1.5c-8-5.9-16.4-11.3-25.2-15.9
	l-60.2-0.5c-10.5,4.1-20.1,10.1-28.4,17.9l-70.5-0.6c-63.1-2.2-81.6-64.6-159.2-38.7c80.7-12.2,78.3,50.2,157.8,57.5l87.2,4.4
	c0,0,7.2-3.9,3.2-15.6c1.2,0.9,2.3,1.9,3.3,3c9.1,10.1,8.3,25.7-1.8,34.8c-5.8,6.2-24.5,21.1-75.3,30.9c4.5-11.6,12.1-21.8,22-29.3
	l-19.6-1.9h-0.4c-10.7-1.1-21.2-2.3-29.8-3.4c-73.1-9.3-76.4-79.2-146.9-80.4h0.1c-9.2-55.5-12.8-111.8-10.7-168
	c0,0,104.8-40.3,279.9-40.3s279.8,40.3,279.8,40.3l0,0C581.9,114,578.3,170.6,568.9,226.4z M424,355.7h-0.2c0,0-5.9,0.9-9.4,9.9
	h-17.6c-4.5-5.6-11.3-8.9-18.5-8.9c0,0-11.4,6.3-10.5,15.2c2.2-3.2,5.9-5,9.8-5c2.9,1.3,5.3,3.7,6.6,6.6
	c-2.4,7.4-8.4,13.2-15.9,15.3c-8.8-5.1-18.5-8.5-28.6-9.9c-12.4-0.6-29.7,14.9-46,1.2c-16.3-13.8-14.7-35-7.9-49.3
	c0,0-38.5,26.9-6.8,63.8c0,0-52.9,35.3-76.4,116.1c30.8,22.3,63.4,42,97.4,58.9c28.6-14.4,56.2-30.7,82.6-48.8
	c-32-22.6-51.4-62.7-24.6-115.1l7.1,3.4l33.8-2.6l5.4-8.6l12.3-0.8c0,0,11.8-12.1,13.2-21C423.2,371.6,420.6,362.9,424,355.7z
	 M359.7,323.7c-10.7-20.1-21-24.3-38.1-28.9c-7.3,4.6-13.3,11-17.3,18.7C304.3,313.6,335.9,310.8,359.7,323.7z"/>
<path id="White_1_" class="st1" d="M61.4,187.7l19.4-3.8V131l17-3.2v-18.7l-17,3.3v-24l17-3.5V65.5l-36.5,8.3L61.4,187.7L61.4,187.7
	z M134,58.9c-20.6,3.4-22,6.7-22.1,26.7V158c0,18.7,1.5,20.7,22.1,18.7s23.8-4.8,24-23.5v-22.6l-19.4,1.8v22.1
	c0.2,2.2-1.3,4.1-3.5,4.3l0,0c-1.6,0-3.7,0-3.7-3.8V83.3c-0.3-2.2,1.2-4.2,3.4-4.5c1.8-0.3,3.5,0.8,3.9,2.6c0.1,0.4,0.1,0.7,0,1.1
	v14.2l19.4-2V80C158.1,59.2,155,56.2,134,58.9 M238.8,49.1L212.3,51v118.5l27.3-1.6c16.8-0.9,19.7-3.4,19.7-19.9V73.8
	c-0.4-22.7-3.6-25.3-20.6-24.6 M239.9,147.1c0,2.6-0.4,3.6-2.9,3.8l-5.4,0.5V71.2l5.4-0.6c1.8,0,2.9,0.9,2.9,5.1V147.1L239.9,147.1z
	 M284.3,47.6l-11.8,119.7h18l1.5-20.8h10.6l1.6,20.6h18l-11.6-120L284.3,47.6z M293,128.1l4.4-47l4.3,47H293z M356.2,150.7V48.8
	L336.8,48v119.2l32.9,1V151L356.2,150.7z M403.4,153.1V52.3L384,50.6v118.6l32.5,2.5v-17.4L403.4,153.1z M441,56.7l-11.3,116.1
	l18,1.7l1.5-21.3l10.5,0.9l1.5,21.7l18,2L467.3,60.3L441,56.7z M449.8,135.2l4.3-45.2l4.2,46L449.8,135.2z M514.4,66.9
	c-20.9-3.5-22-0.8-22.2,19.3v16c-0.9,8.1,2.3,16.1,8.4,21.4l14,11.2c2.7,2.1,4.3,5.2,4.5,8.6v18.4c0,2.8-2.2,3.2-4,3
	c-2-0.4-3.5-2.2-3.5-4.3V144l-19.4-2.4v17.1c0,18.6,2.4,21.4,22.9,24.6s23.5,1.7,23.5-17.6v-23.5c0.2-7.4-3-14.4-8.5-19.3
	l-14.8-11.8c-2.5-2.1-3.8-5.3-3.4-8.5V89.2c-0.2-1.6,0.9-3.1,2.5-3.3c0.3-0.1,0.6-0.1,1,0c2.5,0.9,4.1,3.3,3.9,5.9v11.4l19.4,2.9
	V94.4c0-19-3.5-23.5-24.1-27.5 M304.1,472.4l-1.6-26.4l-18.3,26.4h-30.6l20.1,17.6L258,517.3l29.3-17l19.9,16.7l-2-27.3l29.5-17.3
	L304.1,472.4L304.1,472.4z"/>
<path id="Silver" class="st2" d="M282.3,201.1H266c-8.9,0-13.4,0.8-13.4,6.9v2.1c0,4.5,1.9,6.9,13,6.9h10.8c3,0.3,6-0.3,8.6-1.9v2.9
	c0,1.9-1.7,3-5.9,3h-26.8v5.3h27c12.3,0,16.4-2.2,16.4-9.5v-7C295.7,203.4,291.3,201.1,282.3,201.1 M278.9,211.6h-10
	c-4.6,0-5.9-0.6-5.9-2.6s1.2-2.8,5.9-2.8h10.4c4.4,0,5.9,0.6,5.9,2.8s-1.2,2.6-5.9,2.6 M334.7,210.4H324c-3-0.3-5.9,0.4-8.5,1.9
	v-2.9c0-1.9,1.6-2.9,5.6-2.9h25.7V201H321c-12.3,0-16.4,2.2-16.4,9.7v6.7c0,6.4,4.5,8.6,13.4,8.6h16.3c8.9,0,13.4-0.8,13.4-6.8v-1.8
	c0-4.5-2-6.9-13-6.9 M331.5,221.2h-10.4c-4.4,0-5.9-0.6-5.9-2.8s1.2-2.7,5.9-2.7h10c4.8,0,5.9,0.6,5.9,2.7s-1.1,2.8-5.9,2.8"/>
</svg>
