<svg version="1.1" id="Layer_1" xmlns="http://www.w3.org/2000/svg" xmlns:xlink="http://www.w3.org/1999/xlink" x="0px" y="0px"
	 viewBox="0 0 600 600" style="enable-background:new 0 0 600 600;" xml:space="preserve">
<style type="text/css">
	.st0{fill:#FFFFFF;}
	.st1{fill:#AAAAAA;}
</style>
<path id="Outline" d="M500.6,40.1h-355c-25.5,0-46.2,20.7-46.2,46.2v413c0,5,2.9,9.6,7.4,11.7l187.7,87.8c1.7,0.8,3.6,1.2,5.5,1.2
	s3.7-0.4,5.5-1.2L493.2,511c4.5-2.1,7.4-6.7,7.4-11.7V40.1z"/>
<path id="White" class="st0" d="M360.8,51.4L354,84.1c-2,9.6-4.5,21.4-7.3,34.6l-1.6,0.8c3.1-35.2,3.1-63.3-3.2-76.8
	c-5.2-11.2-13.3-21.5-23.5-29.7C303.9,1.4,294.7,0,294.7,0l0.2,142.8l-160.7,74.7c-21.9,10.2-21.9,36-21.9,36v245.8L300,587.1
	l187.7-87.8V53.1l-94.9,44.2c-3.6-9.1-8.2-17.6-13.6-25.2c-2.2-3.2-4.4-6.2-6.6-9C368.7,58.2,360.8,51.4,360.8,51.4 M189.1,119.6
	l8.6,25l8.6-25l25.9,5l-17.2-20l17.3-19.9l-25.9,5l-8.6-25l-8.6,25l-25.9-5l17.3,19.9l-17.3,19.9L189.1,119.6z"/>
<path id="Blue" class="st1" d="M134.2,337c-21.9,10.2-21.9,36-21.9,36v119.4c0,0,0-25.8,21.9-36l353.5-164.5V172.5L134.2,337z"/>
<path id="Black" d="M449.3,350.8c10.9-13,13.2-25.1,13.2-25.1s-93.4,30.4-124.1,40.5c7.7-3.4,13.3-5.3,16.6-6.8
	c12.5-5.4,93.8-32.7,102.9-49.8c8.9-16.6,8.6-30.3,8.6-30.3S375.3,332,342.6,351c7.6-5.5,13.3-8.9,16.7-11.3
	c12.4-8.7,94.4-57.2,100.3-77.9c5.8-20.1,2.3-34.9,2.3-34.9S375.4,305,344.1,333.4c6.5-7.1,11.5-11.7,14.4-14.9
	c11.4-12.4,89.4-84,91.1-107.8c1.6-23.2-5.6-38.5-5.6-38.5S365.7,280,339.3,316.6c5.5-9.4,10-15.8,12.5-19.9
	c9.6-16.1,77.7-111.9,74.1-138.2c-3.6-25.6-14.9-40.6-14.9-40.6s-59.4,133.4-80,180.2c4-12,7.5-20.2,9.3-25.5
	c6.7-19.7,58.6-139.6,48.6-167.3c-4.3-11.8-8.8-19.2-14.5-27.7c-5.6-8.5-10.6-13.4-10.6-13.4c-2.8,13-23.3,110.2-36.8,174.1l-7.9,45
	c-2.8,16.3-0.2,27.1,1.1,31.1l1,2.9c15,44.4,3.4,65.9-2.3,73.2l-0.2,0.3c-1.1,1.4-3.9,4.8-8.3,7.3c-3.5,1.8-7.1,2.7-10.8,2.7
	c-2.2,0-4.4-0.3-6.5-1c-19.8-6.5-12.6-28.8-12.5-29c-1.6,9.3,0.7,15.3,3,18.7c3.4,5.1,9,8.2,15.1,8.2c10,0,15.5-6.8,17.4-9.1
	l0.2-0.3c5.4-6.9,16.5-27.7,1.2-71.6l0,0c-0.4-1.2-4.9-15.4-2.2-31.3l10.6-61c7.6-48.6,23.5-149.7,11-176.8
	c-5.9-12.4-14.2-21.1-22-27.6c-7.9-6.4-14.9-9.6-14.9-9.6l0.3,240.9c0,12.9,0.4,23.5,1,32.2c0,0,0.5,6.1,1.1,12.4
	c0.7,6.3,3.6,19.4,5.4,25.3l2.1,6.9c7.8,27.4,4.2,44.7-2.1,52.7c-1.5,1.9-4,5.2-9,5.2c-5.6,0-11.5-6.6-4.4-23.2s10.7-34.1-4.4-49.1
	c-1.4-1.5-3-2.9-4.6-4.1c-10.7-8.1-16.9-11.6-23.4-15.2c-3.4-1.9-22.2,2-22.2,2l-45.1-20.2l-0.1,0.8c0,0,64.7,46.6,76.4,56.4
	c10.8,9.1,5.1,23.4-5.3,31.6c-11.9,9.3-47,29.1-47,29.1v2.1c0,23.5,3.5,33.2,19.5,52.8c30.9,37.8,44.8,53.1,44.8,92.5
	c1.8,1.2,8,3.9,8,3.9v-66.7c0-30.3,7.9-50.6,44.6-50.6l-25.7-24c3.7,2.8,6.1,4.9,7.8,6.2c6.4,4.8,44.4,38.3,55.8,37.9
	c11.1-0.4,18-4.6,18-4.6s-59.5-34.1-76-43.6c5.5,2.4,9.1,4.5,11.4,5.5c8.1,3.7,57.1,31.4,69.4,28.3c12-3,18.5-9.1,18.5-9.1
	s-73.1-23.7-92.8-30c6.8,1.4,11.3,2.8,14.1,3.4c9.7,2.2,69.3,20.9,82,14.7c12.4-6,18-14.2,18-14.2s-83.4-8.5-108-11
	c6,0.1,11.7,0.4,14.5,0.5c11,0.2,80.2,6.7,92.5-2.9c12-9.4,16.3-19.6,16.3-19.6s-90.4,9.6-118.1,12.6c7.4-1.5,12.7-2.2,15.9-2.8
	C361.4,372.9,438.1,364.1,449.3,350.8"/>
<path id="Black_1_" d="M435.7,472.8c0,0,2.1-0.9,2.1-4v-4.5l-23,10.8v38.8l7-3.3v-14.2l8-3.8c0.6-0.4,1.8-1.5,1.8-3.9v-4l-9.8,4.6
	v-10L435.7,472.8z M459.2,461.5c0.9-0.4,1.6-0.1,1.6,0.8v3l0,0c0,0.9,0.7,1.6,1.6,1.6c0.2,0,0.4-0.1,0.5-0.1l4.5-2.1v-4.9
	c-0.1-3.3-2.8-5.9-6.1-5.9c-0.8,0-1.5,0.2-2.1,0.4l-13,6c-2.7,1.4-4.6,4.2-4.6,7.4v25c0,3,2.4,5.4,5.4,5.4c0.8,0,1.6-0.2,2.3-0.5
	l13.6-6.4c2.7-1.4,4.6-4.2,4.6-7.4v-7.1l-5.2,2.4c-0.2,0.1-1.4,0.8-1.4,2.5v1.8c0,0.9-0.7,1.8-1.6,2.3l-9,4.3
	c-0.9,0.4-1.6,0.1-1.6-0.8v-20.9c0-0.9,0.7-1.8,1.6-2.2L459.2,461.5z M368.9,522.7l-13.3-20l-7.1,3.3v38.8c0,0,2.9-1.4,5-2.4
	c0.4-0.2,2-1.3,2-4v-23.2l13.6,20l6.8-3.2v-38.8l-4.9,2.3c-0.5,0.3-2.1,1-2.1,4V522.7z M335.9,547.3v-19.5l-6.8,18.9l-5.9,2.8
	l-7.9-12.9v20.6c0,2.3-1.1,3.6-2.3,4.2l-4.4,2.1v-38.8l6.3-3l10.3,18.1l9.7-27.5l7.9-3.7v38.8l-3.8,1.8
	C337.6,549.8,335.9,548.8,335.9,547.3 M381.9,490.4v30.5c0,2.9,2.4,5.3,5.3,5.2c0.8,0,1.5-0.2,2.2-0.5l0,0l14.6-6.8l0,0
	c2.9-1.3,4.9-4.2,4.9-7.5l0,0v-33.5c0,0-3.4,1.6-4.9,2.3c-1.8,0.9-2.1,2.9-2.1,4.1V511c0,0.9-0.7,1.8-1.6,2.2l-9.9,4.6
	c-0.9,0.4-1.6,0.1-1.6-0.8v-26.4c0-1.8-1.8-2.6-3.1-2L381.9,490.4z"/>
<path id="Red" class="st1" d="M267.6,311.9c0,0-3.8,1-6.6-0.7c-2.9-1.7-3.8-5.5-3.8-5.5s3.8-1,6.6,0.7
	C266.7,308.1,267.6,311.9,267.6,311.9"/>
</svg>
