<svg version="1.1" id="Layer_1" xmlns="http://www.w3.org/2000/svg" xmlns:xlink="http://www.w3.org/1999/xlink" x="0px" y="0px"
	 viewBox="0 0 600 600" style="enable-background:new 0 0 600 600;" xml:space="preserve">
<style type="text/css">
	.st0{fill:#AAAAAA;}
	.st1{fill:#555555;}
	.st2{fill:#FFFFFF;}
</style>
<path id="Gray_1_" class="st0" d="M300,0C134.3,0,0,134.3,0,300s134.3,300,300,300s300-134.3,300-300S465.7,0,300,0z"/>
<path id="Blue" class="st1" d="M300,575c151.9,0,275-123.1,275-275S451.9,25,300,25S25,148.1,25,300S148.1,575,300,575z"/>
<path id="Black" d="M300,18.1C144.3,18.1,18.1,144.3,18.1,300S144.3,581.9,300,581.9S581.9,455.7,581.9,300S455.7,18.1,300,18.1z
	 M232.6,560.7c-40.9-10.6-78-30.5-109-57.3V363.7l24.7-8.5c14.8,40.6,45.3,73.6,84.3,91.5V560.7z M232.6,408.2L232.6,408.2
	c-6.6-8.8-12.7-18.2-18.3-28.3c-24.9-44.8-38.3-98.6-38.8-155.7c-0.1-7.4,0.2-16.2,0.6-24.7c11.2-3.5,31.4-9.1,56.5-13.3h0.1v222
	H232.6z M476.4,503.3c-30.9,26.9-68.1,46.8-109,57.3v-114c38.9-17.9,69.5-50.9,84.3-91.5l24.7,8.5l0,0L476.4,503.3L476.4,503.3z
	 M367.4,186.3c25.1,4.2,45.3,9.9,56.5,13.3c0.5,8.5,0.7,17.2,0.6,24.7c-0.5,57.1-13.9,110.9-38.8,155.7
	c-5.6,10.1-11.8,19.5-18.3,28.2v0.1L367.4,186.3z M449.7,337.9c3.1-12.1,4.7-24.8,4.7-37.9c0-23.1-5.1-45-14.1-64.6
	c0.1-3.7,0.2-7.3,0.3-11c0.1-4.3,0-8.9-0.1-13.6c-0.2-7.8-0.7-15.9-1.3-23.1c0,0-0.1-0.1-0.4-0.1l-0.1-0.1c-0.1,0-0.2-0.1-0.4-0.1
	c-0.1,0-0.2-0.1-0.3-0.1c-0.1,0-0.2-0.1-0.2-0.1c-0.1-0.1-0.3-0.1-0.4-0.2c-0.1,0-0.1-0.1-0.2-0.1c-0.2-0.1-0.5-0.2-0.8-0.3
	c-0.1,0-0.2-0.1-0.2-0.1c-0.2-0.1-0.5-0.2-0.7-0.2c-0.1,0-0.2-0.1-0.3-0.1c-0.7-0.2-1.5-0.5-2.3-0.8c-0.1-0.1-0.2-0.1-0.3-0.1
	c-0.4-0.1-0.8-0.2-1.1-0.4c-0.1,0-0.2-0.1-0.2-0.1c-0.5-0.2-1-0.3-1.6-0.5c-0.5-0.2-1.1-0.3-1.6-0.5c-0.1,0-0.2-0.1-0.3-0.1
	c-0.6-0.2-1.1-0.4-1.7-0.5H426c-0.6-0.2-1.3-0.4-2-0.6h-0.1c-0.6-0.2-1.2-0.4-1.9-0.6c-0.1,0-0.2-0.1-0.3-0.1
	c-1.4-0.4-2.9-0.8-4.5-1.3c-0.1,0-0.2-0.1-0.3-0.1c-0.7-0.2-1.5-0.4-2.2-0.6c-0.1,0-0.2-0.1-0.2-0.1c-1.7-0.5-3.4-0.9-5.2-1.4
	c-0.1,0-0.2-0.1-0.4-0.1c-0.9-0.2-1.8-0.4-2.6-0.7h-0.1c-1-0.2-2-0.5-3-0.7h-0.1c-0.9-0.2-1.9-0.5-2.8-0.7c-0.1,0-0.2-0.1-0.4-0.1
	c-2-0.5-4.1-0.9-6.2-1.4c-0.1,0-0.2-0.1-0.4-0.1c-1-0.2-1.9-0.4-2.9-0.6c-0.1,0-0.2-0.1-0.4-0.1h-0.1c-25.2-18-56.1-28.5-89.4-28.5
	s-64.2,10.6-89.4,28.5c-0.1,0-0.2,0-0.3,0.1c-0.1,0-0.2,0.1-0.4,0.1c-1,0.2-2,0.4-2.9,0.6c-0.1,0-0.2,0.1-0.3,0.1
	c-2.1,0.5-4.2,0.9-6.2,1.4c-0.1,0-0.2,0.1-0.4,0.1c-1,0.2-1.9,0.5-2.9,0.7h-0.1c-1,0.2-2,0.5-2.9,0.7c-0.1,0-0.1,0-0.1,0
	c-0.9,0.2-1.8,0.4-2.6,0.7c-0.1,0-0.2,0.1-0.4,0.1c-1.8,0.4-3.5,0.9-5.2,1.4c-0.1,0-0.2,0.1-0.3,0.1c-0.8,0.2-1.5,0.4-2.2,0.6
	c-0.1,0-0.2,0.1-0.3,0.1c-1.6,0.4-3.1,0.9-4.5,1.3c-0.1,0-0.2,0.1-0.3,0.1c-0.7,0.2-1.3,0.4-1.9,0.6c-0.1,0-0.1,0.1-0.2,0.1
	c-0.7,0.2-1.3,0.4-2,0.6h-0.1c-0.6,0.2-1.1,0.4-1.7,0.5c-0.1,0-0.2,0.1-0.3,0.1c-0.6,0.2-1.1,0.3-1.6,0.5l0,0
	c-0.5,0.2-1.1,0.3-1.6,0.5c-0.1,0-0.1,0.1-0.2,0.1c-0.4,0.1-0.8,0.3-1.2,0.4c-0.1,0-0.2,0.1-0.3,0.1c-0.9,0.3-1.6,0.6-2.3,0.8
	c-0.1,0-0.2,0.1-0.3,0.1c-0.3,0.1-0.5,0.2-0.8,0.2c-0.1,0-0.1,0.1-0.2,0.1c-0.3,0.1-0.5,0.2-0.8,0.3c-0.1,0-0.1,0.1-0.2,0.1
	c-0.2,0-0.3,0.1-0.4,0.1c-0.1,0-0.2,0.1-0.2,0.1c-0.1,0.1-0.2,0.1-0.3,0.1c-0.1,0.1-0.2,0.1-0.3,0.1s-0.2,0.1-0.2,0.1
	c-0.1,0-0.1,0.1-0.2,0.1c-0.1,0.1-0.2,0.1-0.2,0.1c-0.4,5.1-0.8,10.6-1,16.1c-0.3,7-0.5,14.2-0.4,20.6c0,3.7,0.1,7.4,0.3,11.1
	c-9,19.6-14.1,41.5-14.1,64.5c0,13.1,1.6,25.8,4.7,37.9L41.6,375.4c-7-23.9-10.7-49.2-10.7-75.4C30.8,151.3,151.3,30.8,300,30.8
	S569.2,151.3,569.2,300c0,26.2-3.8,51.5-10.7,75.4L449.7,337.9z"/>
<path id="White" class="st2" d="M421,291.6c-27.6-4.4-53.7,19.9-73.3,66.2c-10.6,25.2-14.7,41.6-18.4,61.9c-6.7,0.1-17,0-17,0
	s1.9-13.5,6.4-32.6s22.5-67.1,29-89.9c0.9-3.2,1.6-6.3,2.1-9.3c8-46.5-26.2-77.6-49.9-93.3c-23.8,15.6-57.9,46.8-49.9,93.3
	c0.5,3.1,1.2,6.2,2.1,9.3c6.5,22.9,24.5,70.8,29,89.9c4.5,19.2,6.4,32.6,6.4,32.6s-10.4,0.1-17,0c-3.7-20.3-7.8-36.6-18.4-61.9
	c-19.5-46.4-45.7-70.7-73.3-66.2c-2.6,0.4-5.1,1.1-7.5,2c5.8,29.1,15.2,56.7,27.9,81.8c0.1,0,0.1,0,0.2,0c13.7-2.2,27,1.5,36.5,10.2
	c14.7,13.5,14.7,34.1,14.7,34.1h-23.3c7,8.9,14.5,17,22.4,24.3c14,0,29.4,0,33.9,0c-1.1,6.5-5.8,12.5-12.6,17.2
	c9.3,6.4,18.9,11.7,28.8,15.8c9.9-4.1,19.5-9.4,28.8-15.8c-6.7-4.7-11.5-10.7-12.6-17.2c4.5,0,20,0,34,0
	c7.9-7.3,15.4-15.4,22.4-24.3H349c0,0,0.1-20.7,14.8-34.1c9.5-8.7,22.8-12.3,36.5-10.2c0.1,0,0.2,0,0.3,0.1
	c12.7-25.1,22.1-52.7,27.9-81.8C426.1,292.7,423.6,292,421,291.6z"/>
<path id="Gray" class="st0" d="M250.1,287.8c0.5,3.1,1.2,6.2,2.1,9.3c6.5,22.9,24.5,70.8,29,89.9c4.5,19.2,6.4,32.6,6.4,32.6H300
	V194.5C276.2,210.1,242,241.2,250.1,287.8z M559.9,370.4l-99.4-34.3c2.6-11.6,4-23.7,4-36.1c0-27.6-6.8-53.6-18.8-76.4
	c0.1-11.1-0.5-24.5-1.4-36.2l-0.2-3.2l-3-1.1c-0.3-0.1-14.6-5.4-37.4-10.9c-28.3-22.9-64.3-36.7-103.6-36.7s-75.3,13.8-103.6,36.7
	c-22.8,5.5-37.1,10.8-37.4,10.9l-3,1.1l-0.2,3.2c-1,11.7-1.5,25.1-1.4,36.2c-12,22.8-18.8,48.9-18.8,76.4c0,12.4,1.4,24.5,4,36.1
	l-99.4,34.3c0.9,3.3,1.8,6.5,2.8,9.7l99.1-34.2c15.1,52,55.2,93.4,106.4,110.3c15.5,13.4,32.2,23.8,49.7,30.8l1.9,0.8l1.9-0.8
	c17.5-7,34.2-17.4,49.7-30.8c51.2-16.9,91.3-58.3,106.4-110.3l99.1,34.2C558.1,376.9,559,373.6,559.9,370.4z M300,145.6
	c28,0,54.9,7.4,78.4,21.3c-21.9-4.1-48-7.3-75.5-7.3h-5.6c-27.5,0-53.6,3.2-75.6,7.3C245.1,152.9,272,145.6,300,145.6z M190.8,409.2
	c-29.2-29.2-45.2-67.9-45.2-109.2c0-18.6,3.3-36.8,9.6-53.8c3.4,52.5,17.3,101.9,40.7,144c9.8,17.5,21,33.4,33.4,47.1
	C215.2,430.1,202.2,420.7,190.8,409.2z M185.4,343.3c1,2.6,2,5.2,3,7.9C187.4,348.6,186.4,345.9,185.4,343.3z M188.6,351.7
	c1.1,2.6,2.1,5.2,3.3,7.9C190.8,357,189.7,354.3,188.6,351.7z M191.9,359.6c2.3,5.4,4.8,10.6,7.4,15.8
	C196.7,370.2,194.2,364.9,191.9,359.6z M271.7,461.5c1,0.7,2,1.4,3,2c-0.6-0.4-1.3-0.8-1.9-1.3C272.4,462,272.1,461.8,271.7,461.5z
	 M300,476.9c-1.2-0.5-2.4-1-3.6-1.6C297.6,475.9,298.8,476.4,300,476.9v-33.1l-16.2,0.2c-1.1,6.5-5.9,12.5-12.6,17.2
	c-6.1-4.2-12-8.8-17.7-13.8c-18.6-16.4-35.3-37.4-48.9-62c-1.8-3.3-3.6-6.6-5.3-9.9c0.1,0,0.2,0,0.2-0.1c13.7-2.2,27,1.5,36.5,10.2
	c10.9,10,13.8,24,14.5,30.6c-4.6-57.5-40.9-81.5-65.2-72.9c-13.2-36.1-20.4-75.8-20.9-117.2c0-0.5,0-1,0-1.5
	c-0.1-5.5,0.1-11.7,0.3-17.9c0.2-5.1,0.5-10.1,0.8-15c3-1,8.2-2.7,15.2-4.7c5.7-1.6,12.5-3.4,20.3-5.3c24.8-5.9,59.1-11.9,96.2-11.9
	h5.6c37,0,71.4,6,96.2,11.9c7.8,1.8,14.6,3.7,20.3,5.3c7,2,12.2,3.7,15.2,4.7c0.4,4.9,0.6,10,0.8,15.1c0.2,6.3,0.4,12.4,0.3,17.9
	c0,0.5,0,1,0,1.5c-0.5,41.4-7.7,81.1-20.9,117.2c-24.3-8.5-60.6,15.5-65.1,73c0.7-6.5,3.6-20.5,14.5-30.6
	c9.5-8.7,22.8-12.3,36.5-10.2c0.1,0,0.1,0,0.2,0c-1.7,3.4-3.4,6.7-5.3,10c-13.6,24.6-30.3,45.6-48.9,62
	c-6.2,5.5-12.6,10.4-19.2,14.9C318.5,468.2,309.4,473.1,300,476.9L300,476.9z M274.7,463.5c1.1,0.8,2.3,1.5,3.4,2.2
	C277,465,275.9,464.2,274.7,463.5z M278.3,465.8c1.1,0.7,2.2,1.3,3.3,2C280.5,467.1,279.4,466.5,278.3,465.8z M281.9,467.9
	c1.1,0.6,2.1,1.2,3.2,1.8C284,469.1,282.9,468.6,281.9,467.9z M285.5,470c1,0.5,2,1.1,3,1.6C287.4,471.1,286.5,470.6,285.5,470z
	 M289.1,471.9c0.9,0.5,1.9,0.9,2.8,1.4C291,472.9,290,472.4,289.1,471.9z M292.8,473.7c0.9,0.4,1.8,0.9,2.8,1.3
	C294.6,474.6,293.7,474.2,292.8,473.7z M414.6,343.3c-1,2.6-2,5.3-3,7.9C412.6,348.6,413.6,345.9,414.6,343.3z M411.4,351.7
	c-3.2,8.1-6.8,16-10.7,23.7C404.6,367.7,408.1,359.8,411.4,351.7z M409.2,409.2c-11.5,11.5-24.4,20.9-38.4,28.1
	c12.4-13.8,23.7-29.6,33.4-47.1c23.4-42.1,37.3-91.5,40.7-144c6.3,17,9.6,35.1,9.6,53.8C454.4,341.3,438.4,380.1,409.2,409.2
	L409.2,409.2z"/>
<path id="White_1_" class="st2" d="M239.4,502.8c1.1-0.1,2.5-0.3,3.5-0.1l3.5,1c1.1,0.3,1.3,0.7,1.1,1.6l-8.2,28.3
	c-0.3,0.9-0.7,1.1-1.8,0.8l-5.8-1.7c-1.1-0.3-1.3-0.7-1.1-1.6l5.9-20.6l-6.5-1.9c-1.1-0.3-1.3-0.7-1.1-1.6l0.6-2.1
	c0.1-0.5,0.3-0.9,1.1-1.1C230.7,504,238.3,502.9,239.4,502.8z M264.2,519c0.6-6.2,6.3-10.9,14-10.1c11.3,1.1,13.5,8.6,12.6,17.4
	c-0.9,9.1-5.6,16.6-16.6,15.4c-4.4-0.4-7.8-2.3-10.8-5.5c-0.7-0.8-0.4-1.1,0.3-1.7l3.2-2.6c0.8-0.6,1.2-0.8,1.9,0.1
	c1.7,1.9,3.5,3.1,6.6,3.4c3.6,0.4,6.5-2.6,7-7.5c-1.1,1.1-3.1,2.6-8.5,2.1C268.1,529.4,263.6,525.6,264.2,519L264.2,519z
	 M272.3,519.3c-0.2,2.6,1.9,4.9,4.8,5.2c3.2,0.3,5.4-1.5,5.7-4.2c0.3-2.8-1.5-4.9-4.8-5.2C274.9,514.8,272.6,516.5,272.3,519.3
	L272.3,519.3z M307.5,521.8c-0.6-6.2,4.1-11.9,11.8-12.6c11.3-1.1,14.9,5.8,15.7,14.7c0.9,9.1-2.4,17.3-13.3,18.4
	c-4.4,0.4-8.1-0.8-11.6-3.3c-0.8-0.6-0.6-0.9,0-1.8l2.6-3.1c0.6-0.8,1-1,1.9-0.3c2.1,1.6,4.1,2.3,7.1,2c3.6-0.3,5.9-3.8,5.4-8.7
	c-0.9,1.3-2.6,3.2-7.9,3.7C313.3,531.2,308.1,528.3,307.5,521.8L307.5,521.8z M315.5,520.5c0.2,2.6,2.8,4.5,5.7,4.2
	c3.2-0.3,5.1-2.5,4.8-5.2c-0.2-2.8-2.4-4.5-5.7-4.2C317.2,515.6,315.2,517.8,315.5,520.5L315.5,520.5z M357.1,522.3
	c-1,0.3-1.4,0.1-1.6-0.8l-0.9-3.3c-0.2-0.9-0.1-1.3,1-1.6l4-1.1c3.4-0.9,4.3-2.9,3.9-4.5c-0.6-2.3-2.4-3.2-5.8-2.3
	c-3,0.8-3.9,2.2-5.2,4.5c-0.5,0.9-1,0.9-1.9,0.4l-3.4-1.9c-0.9-0.5-1.2-0.8-0.6-1.6c2.3-3.6,4.7-6.2,9.4-7.5
	c5.5-1.6,13.3-0.8,15.1,5.6c0.9,3.1-0.4,5.9-2.2,7.8v0.1c2.8,0.5,5.7,1.4,6.8,5.3c1.8,6.5-3.4,11.1-10.7,13.1
	c-4.7,1.3-8.7,0.5-12.5-1.4c-0.9-0.4-0.8-0.8-0.3-1.7l1.9-3.4c0.5-0.9,0.9-1.1,1.8-0.6c2.5,1.2,4.4,1.8,7.4,0.9
	c4.4-1.2,5.1-3.1,4.5-5.4c-0.4-1.6-2.4-2.8-5.8-1.8L357.1,522.3L357.1,522.3z M96.9,243.4c-0.6-1-0.3-1.5,0.6-2.2l4.3-2.8
	c1-0.6,1.4-0.8,2,0.2c2.5,4.4,3.4,10.7,2.2,16.2c-2.4,11.4-13.1,18.9-23.5,16.7c-10.4-2.2-17-13.5-14.6-24.8
	c1.2-5.6,4.6-11,8.6-13.9c1-0.7,1.3-0.4,1.9,0.6l2.8,4.3c0.6,1,0.7,1.5-0.3,2.2c-3,2-4.9,4.8-5.7,8.4c-1.5,7.1,3.4,12.5,9.2,13.8
	c5.7,1.2,12.5-1.6,14.1-8.8C99.5,249.7,98.9,246.4,96.9,243.4L96.9,243.4z M119.8,210.1c1,0.5,1.1,1,0.5,2.1l-3,5.7
	c-0.6,1.1-1,1.2-2,0.8l-30.7-16.1c-1-0.5-1.1-1-0.5-2.1l12.4-23.7c0.6-1.1,1-1.2,2-0.8l4,2.1c1,0.5,1.1,1,0.5,2.1l-8.7,16.6l6.7,3.5
	l8.4-16.1c0.6-1.1,1-1.2,2-0.7l4,2.1c1,0.5,1.1,1,0.5,2.1l-8.4,16.1L119.8,210.1z M184.9,135.6c0,1.1,0,1.8-0.4,2.1l-0.6,0.4
	c-0.4,0.3-1.1,0.1-2.1-0.2l-19.4-6l7.3,13.8c0.6,1.1,0.6,1.4-0.4,2.1l-5.2,3.8c-1,0.7-1.7,0.7-2.1-0.2L144.9,119
	c-0.2-0.3-0.2-0.5,0.1-0.7l0.4-0.3c0.2-0.1,0.4-0.2,0.9,0l30.4,9.5l0.7-31.9c0-0.5,0.1-0.7,0.3-0.8l0.4-0.3c0.3-0.2,0.4-0.2,0.7,0.1
	l25.2,26.6c0.7,0.8,0.6,1.4-0.4,2.1l-5.2,3.8c-1,0.7-1.4,0.6-2.1-0.2L185.6,115L184.9,135.6L184.9,135.6z M231.6,71.8
	c11.1-3.3,22.9,2.3,25.9,12.6c3.1,10.2-3.6,21.4-14.8,24.8s-22.9-2.3-25.9-12.6S220.5,75.1,231.6,71.8z M240.6,101.8
	c7.2-2.2,9.3-9.1,7.6-14.7c-1.7-5.7-7.2-10.3-14.4-8.1c-7,2.1-9.3,9-7.6,14.7C227.9,99.3,233.6,103.9,240.6,101.8z M379.2,75.4
	c1.2,0.3,1.4,0.7,1.1,1.8l-1.3,4.7c-0.3,1.1-0.7,1.3-1.9,1L366,79.8l-7.6,27.3c-0.3,1.1-0.7,1.3-1.9,1l-6.2-1.7
	c-1.2-0.3-1.4-0.7-1.1-1.8l7.6-27.3l-11.2-3.1c-1.2-0.3-1.4-0.7-1.1-1.8l1.3-4.7c0.3-1.1,0.7-1.3,1.9-1L379.2,75.4L379.2,75.4z
	 M291.2,98.9c0,1.1-0.4,1.4-1.6,1.4h-6.4c-1.2,0-1.6-0.3-1.6-1.4V62.6c0-0.4,0.1-0.5,0.5-0.5h0.6c0.4,0,0.7,0.2,1.1,0.5l25,20.5
	V64.2c0-1.1,0.4-1.4,1.6-1.4h6.4c1.2,0,1.6,0.3,1.6,1.4v36.3c0,0.4-0.1,0.5-0.5,0.5h-0.6c-0.4,0-0.7-0.2-1.1-0.5l-25-20.8V98.9z
	 M417.1,118.6l1.4,17.1c0.1,1.6-1.1,1.6-2.1,0.9l-5.1-3.1c-1.1-0.6-1.4-1.4-1.6-2.6l-1.3-16.6l-2.8-1.7l-7,11.6
	c-0.6,1-1.1,1.1-2.1,0.4l-5.5-3.3c-1.1-0.6-1.2-1.1-0.6-2.1L408,89.5c0.6-1,1.1-1.1,2.1-0.4l12.6,7.5c5.8,3.4,11.6,9.9,7.1,17.4
	C426.8,119.2,421.8,119.8,417.1,118.6L417.1,118.6z M414.6,109.6c3.6,2.1,5.8,2,7.2-0.4c1.4-2.4,0.4-4.4-3.1-6.5l-5.5-3.3l-4.1,6.9
	L414.6,109.6L414.6,109.6z M435.4,152.4c-0.9-0.9-0.9-1.4-0.1-2.1l25-23.9c0.8-0.8,1.3-0.8,2.1,0.1l18.5,19.3
	c0.9,0.9,0.9,1.4,0.1,2.1l-3.2,3.1c-0.8,0.8-1.3,0.8-2.1-0.1l-13-13.6l-5.5,5.2l12.4,13c0.9,0.9,0.9,1.4,0.1,2.1l-3.2,3.1
	c-0.8,0.8-1.3,0.8-2.1-0.1l-12.4-13l-5.6,5.4l13,13.6c0.9,0.9,0.9,1.4,0.1,2.1l-3.2,3.1c-0.8,0.8-1.3,0.8-2.1-0.1L435.4,152.4
	L435.4,152.4z M479.8,132.5c-0.9-0.1-1.7-0.5-2.3-1.2l-3.4-3.6c-0.7-0.8-0.6-1.3,1.2-1.2l10.4,0.2c1.1,0,1.4,0.8,1.2,1.9l-0.8,3.8
	c-0.2,1-0.5,1.2-1.8,1L479.8,132.5L479.8,132.5z M488.5,226.1c-0.4,0.7-1.3,0.6-1.8-0.2l-3.5-6.7c-0.5-0.9-0.4-1.4,0.3-2.5l3.4-5.3
	l-7.7-14.7l-6.3-0.2c-1.3-0.1-1.8-0.2-2.2-1.2l-3.5-6.7c-0.4-0.8,0-1.6,0.8-1.6l40.9,1.9c1.1,0.1,1.6,0,1.9,0.5l0.1,0.2
	c0.2,0.5-0.1,0.9-0.7,1.8L488.5,226.1L488.5,226.1z M499.2,195.3l-12.6-0.2l5.6,10.8l7-10.4V195.3L499.2,195.3z M505.4,269.9
	c0.2,1.2,0,1.6-1.1,1.9l-4.4,0.9c-1.1,0.2-1.5-0.1-1.8-1.2l-5-23.8c-0.2-1.2,0-1.6,1.1-1.9l33.9-7.1c1.1-0.2,1.5,0.1,1.8,1.2
	l1.3,6.3c0.2,1.2,0,1.6-1.1,1.9L502,254L505.4,269.9L505.4,269.9z"/>
</svg>
