<svg version="1.1" id="Layer_1" xmlns="http://www.w3.org/2000/svg" xmlns:xlink="http://www.w3.org/1999/xlink" x="0px" y="0px"
	 viewBox="0 0 600 600" style="enable-background:new 0 0 600 600;" xml:space="preserve">
<style type="text/css">
	.st0{fill-rule:evenodd;clip-rule:evenodd;fill:#FFFFFF;}
	.st1{fill:#AAAAAA;}
</style>
<path id="Purple" d="M300,600c-88.4-36.2-155.7-87.7-199.9-153.1c-35.5-52.5-56.4-114.1-62-183.1c-9.1-111.3,25-206.5,29-217.4
	C77.5,41.4,168.1,0,300,0s222.5,41.4,232.8,46.4c4.1,10.9,38.1,106.1,29.1,217.3c-5.6,69-26.5,130.6-62,183.1
	C455.7,512.3,388.4,563.8,300,600"/>
<path id="White" class="st0" d="M300,586.1c-83.7-35.1-147.3-84.3-189.3-146.4c-34.3-50.7-54.4-110.2-59.8-177
	c-8-98.6,18.7-184.2,26.5-206.9c21.8-9.7,105.3-43,222.6-43c117.2,0,200.8,33.3,222.6,43c7.9,22.7,34.6,108.3,26.5,206.9
	c-5.4,66.8-25.6,126.3-59.8,177C447.3,501.8,383.7,551,300,586.1 M300,572.2c-78.9-34-139-80.9-178.7-139.7
	c-33-48.8-52.4-106.3-57.7-170.8C56.4,172.3,78.3,94.1,87.7,65.3C115.5,53.6,193.3,25.7,300,25.7s184.5,28,212.3,39.7
	c9.5,28.7,31.4,107,24.1,196.3c-5.3,64.5-24.7,122-57.7,170.8C439,491.2,378.9,538.2,300,572.2 M188.1,421.3
	c-1.9-1.9-4.2-3.4-6.7-4.4c-2.6-1.1-5.3-1.6-8.3-1.6c-2.9,0-5.7,0.5-8.3,1.6c-2.5,1.1-4.8,2.6-6.7,4.4c-1.9,1.9-3.4,4.1-4.5,6.6
	s-1.6,5.2-1.6,8.1s0.6,5.6,1.6,8.1c1.1,2.5,2.6,4.7,4.5,6.6s4.2,3.4,6.7,4.4c2.6,1.1,5.3,1.6,8.3,1.6c2.9,0,5.7-0.5,8.3-1.6
	c2.5-1.1,4.8-2.6,6.7-4.4c1.9-1.9,3.4-4.1,4.5-6.6s1.6-5.2,1.6-8.1s-0.6-5.6-1.6-8.1C191.5,425.4,190,423.2,188.1,421.3
	 M187.3,435.9c0,2-0.4,3.9-1.1,5.6c-0.7,1.7-1.7,3.2-3,4.5s-2.8,2.3-4.5,3c-3.4,1.4-7.6,1.4-11.1,0c-1.7-0.7-3.3-1.7-4.5-3
	c-1.3-1.2-2.3-2.7-3-4.5c-0.7-1.7-1.1-3.6-1.1-5.6s0.4-3.9,1.1-5.6c0.7-1.7,1.7-3.2,3-4.5s2.8-2.3,4.5-3s3.6-1.1,5.5-1.1
	c2,0,3.8,0.4,5.5,1.1s3.3,1.7,4.5,3c1.3,1.2,2.3,2.8,3,4.5C186.9,432.1,187.3,434,187.3,435.9L187.3,435.9z M226.7,440.7
	c4.3-2.4,6.4-6.6,6.4-11.3c0-7.6-4.9-13.7-14.1-13.7c-0.2,0-14.7,0-14.7,0v40.4h6.9v-33.7h6c0.2,0,1.1,0,1.3,0
	c3.8,0,6.9,3.1,6.9,6.9s-3.1,6.9-6.9,6.9c-0.2,0-1,0-1.3,0h-4l16.4,19.8h9.4L226.7,440.7 M275.2,449.9h-20.6v-34.1h-6.9v40.4h24.1
	L275.2,449.9 M302,413l-20.6,43.2h7.7l12.9-27.5l4.2,8.8H302l-2.9,6.3h10.1l5.8,12.3h7.7L302,413 M330.2,431.4l26.7,25.9v-40.1h-7.7
	v23.1l-25.6-25.9v27.8l6.5,12.3v-23.1 M393.3,421.5c-1.9-1.8-4.1-3.2-6.6-4.3c-2.5-1-5.3-1.5-8.2-1.5h-13.7v40.4h13.7
	c2.9,0,5.7-0.5,8.2-1.5s4.8-2.5,6.6-4.3c1.9-1.8,3.3-4,4.4-6.4c1.1-2.5,1.6-5.2,1.6-8c0-2.9-0.5-5.5-1.6-8
	C396.7,425.5,395.2,423.3,393.3,421.5 M371.7,422h6.1c2,0,3.9,0.4,5.7,1.1c1.8,0.7,3.3,1.7,4.7,2.9c1.3,1.2,2.4,2.7,3.1,4.4
	c0.8,1.7,1.1,3.5,1.1,5.5s-0.4,3.8-1.1,5.5c-0.8,1.7-1.8,3.2-3.1,4.4c-1.3,1.2-2.9,2.2-4.7,2.9c-1.8,0.7-3.7,1.1-5.7,1.1h-6.1V422
	L371.7,422z M446.4,427.9c-1.1-2.5-2.6-4.7-4.5-6.6s-4.2-3.4-6.7-4.4c-2.6-1.1-5.3-1.6-8.3-1.6c-2.9,0-5.7,0.5-8.3,1.6
	c-2.5,1.1-4.8,2.6-6.7,4.4c-1.9,1.9-3.4,4.1-4.5,6.6s-1.6,5.2-1.6,8.1s0.6,5.6,1.6,8.1c1.1,2.5,2.6,4.7,4.5,6.6s4.2,3.4,6.7,4.4
	c2.6,1.1,5.3,1.6,8.3,1.6c2.9,0,5.7-0.5,8.3-1.6c2.5-1.1,4.8-2.6,6.7-4.4c1.9-1.9,3.4-4.1,4.5-6.6s1.6-5.2,1.6-8.1
	S447.5,430.4,446.4,427.9 M441.1,435.9c0,2-0.4,3.9-1.1,5.6s-1.7,3.2-3,4.5s-2.8,2.3-4.5,3c-3.4,1.4-7.7,1.4-11.1,0
	c-1.7-0.7-3.3-1.7-4.5-3c-1.3-1.2-2.3-2.7-3-4.5c-0.7-1.7-1.1-3.6-1.1-5.6s0.4-3.9,1.1-5.6s1.7-3.2,3-4.5s2.8-2.3,4.5-3
	s3.6-1.1,5.5-1.1c2,0,3.8,0.4,5.5,1.1s3.3,1.7,4.5,3c1.3,1.2,2.3,2.8,3,4.5C440.7,432.1,441.1,434,441.1,435.9L441.1,435.9z
	 M270.8,496.7c-0.5,0.8-1.1,1.5-1.8,2.2c-1.3,1.3-2.8,2.3-4.5,3c-3.4,1.4-7.6,1.4-11.1,0c-1.7-0.7-3.3-1.7-4.5-3
	c-1.3-1.2-2.3-2.7-3-4.5c-0.7-1.7-1.1-3.6-1.1-5.6s0.4-3.9,1.1-5.6c0.7-1.7,1.7-3.2,3-4.5s2.8-2.3,4.5-3s3.6-1.1,5.5-1.1
	c2,0,3.8,0.4,5.5,1.1s3.3,1.7,4.5,3c0.7,0.7,1.3,1.4,1.8,2.2v-9.3c-1.1-0.8-2.4-1.4-3.6-1.9c-2.6-1.1-5.3-1.6-8.3-1.6
	s-5.7,0.5-8.3,1.6c-2.5,1.1-4.8,2.6-6.7,4.4c-1.9,1.9-3.4,4.1-4.5,6.6s-1.6,5.2-1.6,8.1s0.6,5.6,1.6,8.1c1.1,2.5,2.6,4.7,4.5,6.6
	s4.2,3.4,6.7,4.4c2.6,1.1,5.3,1.6,8.3,1.6c2.9,0,5.7-0.5,8.3-1.6c1.3-0.5,2.5-1.2,3.6-1.9L270.8,496.7 M280.8,468.2h7v40.4h-7V468.2
	z M323.5,468.2h-27v6.3h11.2v34.2h6.9v-34.2h13L323.5,468.2 M360.1,468.2l-10.8,15.4l-10.8-15.4h-8.2c0.2,0.5,15.5,22.7,15.5,22.7
	v17.8h7v-17.8l15.7-22.7H360.1"/>
<path id="Yellow" class="st1" d="M431,233.3c44.7-2.4,43.2-28.7,43.2-28.7c-26.2,11.5-35-8.1-45.7-10.2
	c36.9-12.7,31.4-40.5,31.4-40.5c-14.4,18.6-36.1,2.1-46.6,3.7c29.7-19.7,18.3-47.6,18.3-47.6c-5.6,20.9-42.1,14.7-42.1,14.7
	c20.2-29.8,2.2-50.1,2.2-50.1c1.5,22-36.9,27.7-36.9,27.7c10-39-12.4-48.8-12.4-48.8c4.4,18.6-21.4,33.2-21.4,33.2l-21-41.2
	l-21.1,41.2c0,0-25.8-14.7-21.4-33.2c0,0-22.3,9.8-12.4,48.8c0,0-38.4-5.7-36.9-27.7c0,0-18,20.3,2.2,50.1c0,0-36.5,6.2-42.1-14.7
	c0,0-11.4,27.9,18.3,47.6c-10.6-1.6-32.2,14.8-46.6-3.7c0,0-5.5,27.8,31.4,40.5c-10.7,2.2-19.5,21.7-45.7,10.2
	c0,0-1.5,26.3,43.2,28.7c-16,9.4-12.6,27.9-41.9,24.8c0,0,9.6,24.1,49.2,13.7c-12.1,12.8-5.9,29.3-33.2,34.5c0,0,17.8,21.7,52.1-0.5
	c-6.4,12,2.6,30-21.4,41.9c0,0,24.9,14.5,51-16.5c-1.2,18.7,10.3,32.8-8,48.8c0,0,27.5,7.5,43.6-31c2.8,16.2,18.4,22.9,6,48.5
	c0,0,20.5,1.6,33.6-32c13.1,33.6,33.6,32,33.6,32c-12.4-25.6,3.2-32.3,6-48.5c16.1,38.5,43.6,31,43.6,31c-18.2-16-6.8-30.1-8-48.8
	c26.1,31,51,16.5,51,16.5c-24-11.9-15-30-21.4-41.9c34.3,22.2,52.1,0.5,52.1,0.5c-27.4-5.2-21.1-21.7-33.2-34.5
	C463.3,282.1,473,258,473,258C443.6,261.2,447,242.7,431,233.3 M239.8,124.8c17.8,0,16.3-13.8,14.4-17c0,0,14.9,0.7,27.3,9.8
	c0,0,14.9-17,18.5-30.6c3.6,13.6,18.5,30.6,18.5,30.6c12.5-9.2,27.3-9.8,27.3-9.8c-1.9,3.2-3.4,17,14.4,17s21.6,5.9,21.6,5.9
	c-5.2-1-12.5-2.1-31.7,4.4c-19.3,6.5-15-10.3-15-10.3c-27.3,2-35,17.2-35,17.2s-7.7-15.2-35-17.2c0,0,4.2,16.8-15,10.3
	c-19.3-6.5-26.5-5.5-31.7-4.4C218.3,130.6,222,124.8,239.8,124.8z M311.4,252.6c-7.5,4.5-11.4,11-11.4,11s-3.9-6.4-11.4-11
	c0,0,0.9-5.3-1-5.7s-7.3-0.1-7.3-0.1s-8.7-3.5-10.2-10.6c0,0,4.7,1.3,11.1-0.6c6.3-2,8.9,0.3,10.9,1.1c2,0.9,4.1,1.1,8,1.1
	s5.9-0.3,8-1.1c2-0.8,4.6-3.1,10.9-1.1s11.1,0.6,11.1,0.6c-1.5,7.1-10.2,10.6-10.2,10.6s-5.5-0.2-7.3,0.1
	C310.5,247.3,311.4,252.6,311.4,252.6L311.4,252.6z M270.7,196.9c-9.3-0.2-33-1.9-33.8-20v-0.5c0,0,13.1-2.1,18.1,0
	c9.1,3.8,17,21.1,31.7,8.1c0,0-9.9,21.8-16,32.7C270.7,217.2,280,197.1,270.7,196.9z M329.3,196.9c-9.3,0.2,0,20.3,0,20.3
	c-6.1-10.9-16-32.7-16-32.7c14.8,12.9,22.6-4.3,31.7-8.1c5-2.1,18.1,0,18.1,0v0.5C362.3,195,338.6,196.7,329.3,196.9L329.3,196.9z
	 M399.7,254.2c-26.7-5.2-37.4,6.9-37.4,6.9c17.4,2.4,24.8,22.9,24.8,22.9c-12.7-7.8-26.9-6-26.9-6c17.2,43.4-40.2,53.5-60.3,77.3
	c-20.1-23.9-77.5-33.9-60.3-77.3c0,0-14.1-1.8-26.9,6c0,0,7.5-20.5,24.8-22.9c0,0-10.6-12.2-37.4-6.9c0,0,13.9-16.4,31.3-13.3
	c0,0-8.9-15.4-34.6-17c0,0,4.2-5.5,19.4-6.7c0,0-11.6-13.2-6.3-37.4c0,0-9-7.1-5.7-28.2c0,0,3.4,17.2,10.6,15c5-1.5,2.7-7.8-1.2-7.3
	c0,0,1.1-4.7,8.6-7.7c7.4-3,9.3-3.3,9.1-9.2c0,0,5.2-2.2,7.1,2.8c1.9,5-3.2,7.4-5.8,7.9s-6.2,1.6-7.8,4.5c0,0,5.5,1.8,1.1,6.7
	c-4.3,4.8-20,40.9,16.8,66c0,0-0.9,11.6,12.2,22.5c0,0-5.6-0.5-6.6-0.3s-1.3,10.8,0,11.2s21.8,0,21.8,0s-20.7,6.2-21.5,7
	s0.2,6.3,0.9,6.4s17.4-5,26-5.5c0,0-19.5,8.9-22.9,11.6c0,0,3.2,6.9,7.5,9.3c0,0,28.3-10.2,39.6-19.4c11.3,9.2,39.6,19.4,39.6,19.4
	c4.3-2.4,7.5-9.3,7.5-9.3c-3.3-2.7-22.9-11.6-22.9-11.6c8.6,0.6,25.3,5.6,26,5.5s1.7-5.6,0.9-6.4c-0.8-0.7-21.5-7-21.5-7
	s20.5,0.4,21.8,0s1-11,0-11.2s-6.6,0.3-6.6,0.3c13.1-10.9,12.2-22.5,12.2-22.5c36.8-25.1,21.1-61.2,16.8-66
	c-4.3-4.8,1.1-6.7,1.1-6.7c-1.6-3-5.2-4-7.8-4.5c-2.6-0.5-7.7-2.9-5.8-7.9c1.9-5,7.1-2.8,7.1-2.8c-0.3,5.9,1.7,6.2,9.1,9.2
	s8.6,7.7,8.6,7.7c-4-0.5-6.3,5.8-1.2,7.3c7.2,2.1,10.6-15,10.6-15c3.3,21.2-5.7,28.2-5.7,28.2c5.3,24.2-6.3,37.4-6.3,37.4
	c15.2,1.1,19.4,6.7,19.4,6.7c-25.7,1.6-34.6,17-34.6,17C385.7,237.8,399.7,254.2,399.7,254.2L399.7,254.2z M300,288.4
	c0,0-31.8,1.3-36.4,11.6c-0.8,1.9,0,15.4,0,15.4s2.7,0.6,4.8-0.9c0,0-0.3,6,4,9c4.4,3,11.2,7.3,11.4,7.3c0.1,0,4.2-3,6.5-3.2
	s7.3,8.5,9.8,11c2.5-2.5,7.5-11.1,9.8-11c2.3,0.2,6.3,3.2,6.5,3.2c0.1,0,7-4.2,11.4-7.3c4.4-3,4-9,4-9c2.1,1.5,4.8,0.9,4.8,0.9
	s0.8-13.5,0-15.4C331.8,289.6,300,288.4,300,288.4"/>
</svg>
