<svg version="1.1" id="Layer_1" xmlns="http://www.w3.org/2000/svg" xmlns:xlink="http://www.w3.org/1999/xlink" x="0px" y="0px"
	 viewBox="0 0 600 600" style="enable-background:new 0 0 600 600;" xml:space="preserve">
<style type="text/css">
	.st0{fill:#AAAAAA;}
	.st1{fill:#FFFFFF;}
</style>
<path id="Green" d="M587.5,287.6c0.1-79.7-33-155.8-91.3-210.1c-2.8-11.5-6.8-22.6-12-33.1l-7-13.4l-14.3,4.8
	c-5.1,1.7-10.3,3.3-15.5,4.8c-91-54.3-204.4-54.2-295.3,0.2c-9.4-2.8-14.6-4.8-14.7-4.8l-15.5-5.9L114.8,45
	c-5,10.6-8.9,21.6-11.8,32.9C-12.7,186.8-18.3,368.8,90.5,484.6c40.9,43.5,94.4,73.2,153,85c-0.7,6.5-1.1,11.1-1.2,13.2
	c3.5,2.7,7.2,5.1,11,7.3c14.4,6.8,30.2,10.2,46.1,9.7c0.1,0,1.4,0,1.5,0c20.5,1.5,40.8-4.6,57.1-17c-0.1-2.1-0.6-6.7-1.4-13.3
	C490.9,542.5,587.5,424.6,587.5,287.6"/>
<path id="Gold" class="st0" d="M405.7,51.2L405.7,51.2c4.5-0.9,8.9-1.9,13.3-2.9c0.5-0.1,0.9-0.2,1.4-0.3c0.9-0.2,1.7-0.4,2.6-0.6
	h-0.1c13-3.2,25.9-6.8,38.5-11c-11.7,1.2-31.6,3.2-50.7,5.1C340.3,9.7,259.6,9.7,189.1,41.4c-19.3-1.9-39.4-4-51.2-5.2
	c12.7,4.4,25.7,8.2,38.8,11.2l0,0c0.3,0.1,0.5,0.1,0.8,0.2c1.4,0.3,2.7,0.6,4.2,1c0.4,0.1,0.9,0.2,1.3,0.3c1.3,0.3,2.7,0.6,4.1,0.9
	l1.1,0.2c1.8,0.4,3.6,0.7,5.4,1.1l0,0l0.5,0.1c67.3-30,144.1-30.1,211.4-0.1L405.7,51.2 M255.5,229L72.7,411.5
	c-8.7-15.9-15.6-32.6-20.8-50l178.3-176.8c-6.6,1.1-12.8,2.3-18.7,3.7L48.7,349.8c-18-72.9-3.5-150,39.8-211.3c2.9-4,5.8-8,8.9-11.9
	v-0.3c-0.1-5.7,0.1-11.7,0.6-17.7c1.7-21.8,7.3-43,16.6-62.8C99.8,69,90.2,95.2,86.5,122.5C-4.7,240.4,17,410,134.9,501.2
	c29.1,22.5,62.5,38.8,98.2,48c2.6,9.5,5.9,18.9,9.7,28c0.7-7.3,2.1-19.9,4-36.1c-2.5-0.5-5-1.1-7.5-1.7c-0.6-0.2-1.2-0.3-1.8-0.4
	c-2.4-0.6-4.8-1.2-7.3-1.9c-40.9-11.5-78.3-32.8-108.9-62.1l134.9-136c0.1-5.2,0.2-10.3,0.2-15.2L113.8,467.3
	c-11.7-12.1-22.2-25.3-31.3-39.5L256.6,254C256.4,245.1,256,236.7,255.5,229 M513.3,122.3c-3.9-28.2-14-55.1-29.6-78.9l0.5,1
	c9.6,20.1,15.5,41.8,17.3,64c0.2,2.7,0.5,5.5,0.6,8.3c0,0.2,0,0.3,0,0.5c0.1,3,0.2,6,0.2,9v0.1c3.1,3.9,6.1,7.9,9,12
	c43.4,61.5,57.9,138.9,39.8,211.9l-165-162.4c-5.9-1.3-12.1-2.4-18.6-3.5L548,361.9c-5.1,16.9-11.8,33.2-20.2,48.8l-181.9-182
	c-0.5,7.6-0.9,16-1.1,25L518.1,427c-8.8,13.8-18.9,26.7-30.2,38.5L345.1,322.8c0.1,4.9,0.1,9.9,0.2,15.1l135.2,135.2
	c-31,30.2-69.1,52.1-110.7,63.8c-2.4,0.7-4.8,1.3-7.2,1.9c-0.6,0.1-1.2,0.3-1.8,0.4c-2.5,0.6-5,1.2-7.5,1.7v0.5
	c0.3,3.4,0.6,6.7,0.9,9.8l0.1,0.7c1.5,10.4,2.6,18.6,3.2,24.2c3.6-8.8,6.7-17.9,9.3-27c144.4-36.9,231.7-183.8,194.8-328.3
	C552.4,185,536,151.5,513.3,122.3"/>
<path id="White" class="st1" d="M337.8,570.9c-9.6-79.5-11.5-254.6-11.5-304.2c0-29.2,2.3-58.4,6.7-87.3
	c-10.4-0.8-21.5-1.3-33.1-1.3c-11.4,0-22.3,0.5-32.6,1.3c4.4,28.9,6.6,58.1,6.7,87.4c0,49.6-1.9,224.7-11.5,304.2l0,0
	c0,0,9.1,9.5,37.5,9.5h0.2C328.7,580.4,337.9,571,337.8,570.9L337.8,570.9L337.8,570.9L337.8,570.9z M468.4,52.3
	c-109.8,36-228.3,36-338.1,0c-20.7,46.9-20.7,100.4-0.1,147.3c0,0,56.4-38.7,169.6-38.7c113.3,0,168.5,38.7,168.5,38.7
	C489.8,152.8,489.8,99.1,468.4,52.3"/>
</svg>
