<svg version="1.1" id="Layer_1" xmlns="http://www.w3.org/2000/svg" xmlns:xlink="http://www.w3.org/1999/xlink" x="0px" y="0px"
	 viewBox="0 0 600 600" style="enable-background:new 0 0 600 600;" xml:space="preserve">
<style type="text/css">
	.st0{fill:#FFFFFF;}
	.st1{fill:#555555;}
	.st2{fill:#AAAAAA;}
</style>
<path id="Black_Outline" d="M526.5,31.6C515.7,28.4,418.1,0,300,0S84.3,28.4,73.5,31.6l-13.2,4v13.8v257.7
	c0,48.4,13.3,95.6,39.5,140.4c26.5,45.3,59.2,75.5,76.4,89.4c56,45.5,112.5,61.5,121.3,62.7l2.6,0.4l2.6-0.4
	c8.8-1.3,65.2-17.2,121.3-62.7c17.1-13.9,49.8-44.1,76.4-89.4c26.2-44.7,39.4-91.9,39.4-140.3V49.5V35.6L526.5,31.6L526.5,31.6z"/>
<path id="White_Outline" class="st0" d="M300,18.6c-116.5,0-213.3,28.5-221.1,30.8v257.7c0,100.2,62.1,177.2,108.9,215.3
	c52.7,42.9,106.4,57.9,112.1,58.8c5.7-0.8,59.4-15.9,112.1-58.8c46.9-38.1,108.9-115.1,108.9-215.3V49.5
	C513.3,47.1,416.5,18.6,300,18.6L300,18.6z"/>
<path id="Black" d="M507.5,307.1c0,42.6-11.8,84.4-35,124.1c-24,40.9-53.4,68.1-68.9,80.7c-10.3,8.3-20.5,15.5-30.2,21.6l-61.4-111
	c-0.8,0.1-1.5,0.2-2.3,0.4c-3.2,0.4-6.4,0.7-9.7,0.7c-38.4,0-69.6-31.2-69.6-69.6c0-17.2,6.3-33,16.7-45.2l0,0
	c0.4-0.5,0.8-1,1.3-1.5l-65.2-118h-15L232.7,306c-9.7,13.5-15.4,30.1-15.4,48c0,45.6,37.1,82.8,82.8,82.8c1.6,0,3.2-0.1,4.7-0.1
	l57.4,103.8c-10.7,6.1-20.3,10.9-28.2,14.4c-16.7,7.5-29,11.3-33.9,12.5c-4.9-1.3-17.2-5-33.9-12.5c-17.3-7.8-43.5-21.5-69.7-42.8
	c-15.4-12.5-44.9-39.7-68.9-80.7c-23.3-39.8-35-81.5-35-124.1V59.7c11.4-3.1,32-8.2,58.7-13.2c50.9-9.5,101-14.3,148.8-14.3
	c47.9,0,97.9,4.8,148.8,14.3c26.7,5,47.3,10.2,58.7,13.2L507.5,307.1L507.5,307.1z"/>
<path id="Blue" class="st1" d="M300,32.2c-47.9,0-97.9,4.8-148.8,14.3c-26.7,5-47.3,10.2-58.7,13.2v247.4c0,42.6,11.8,84.4,35,124.1
	c24,40.9,53.4,68.1,68.9,80.7c26.2,21.3,52.4,35.1,69.7,42.8c16.7,7.5,29,11.3,33.9,12.5c4.9-1.3,17.2-5,33.9-12.5
	c7.8-3.5,17.5-8.3,28.2-14.4l-2.2-4c-4.7,2.7-9.1,5.1-13.3,7.3l-50-90.5c-1.8-0.1-3.6-0.2-5.4-0.3l0,0c-50.7-4.5-90.6-47.1-90.6-99
	c0-16.3,4-31.7,10.9-45.3c0.4-0.7,0.7-1.4,1.1-2.1c0.1-0.2,1.1-2,1.5-2.7l-63.3-114.6h-5.2l63.3,114.6c-8.2,14.8-12.9,31.9-12.9,50
	c0,55.2,43.3,100.5,97.8,103.7l48.6,88.1c-3.7,1.8-7.2,3.5-10.4,4.9c-16.2,7.3-28,10.9-32,12c-4-1.1-15.8-4.7-32-12
	c-17.1-7.7-42.8-21.2-68.7-42.2c-15.2-12.4-44.2-39.1-67.8-79.4c-22.8-39-34.4-80-34.4-121.8V63.2c12.5-3.3,31.3-7.8,55-12.3
	c50.6-9.4,100.4-14.2,148-14.2s97.4,4.8,148,14.2c23.7,4.4,42.5,9,55,12.3v243.9c0,41.8-11.6,82.8-34.4,121.8
	c-23.6,40.3-52.6,67.1-67.8,79.4c-10,8.2-20.1,15.2-29.6,21.2l2.2,4c9.7-6.1,20-13.3,30.2-21.6c15.4-12.6,44.9-39.7,68.9-80.7
	c23.3-39.7,35-81.5,35-124.1V59.7c-11.4-3.1-32-8.2-58.7-13.2C397.9,37,347.9,32.2,300,32.2L300,32.2z M188.3,189.2l63.1,114.4
	c10.5-10.1,24.1-16.9,39.3-18.9l-51.5-95.5L188.3,189.2L188.3,189.2z M291.1,189.2l66.5,125.2l7.4,14l0.1,0.1l25.5-46.6l-48.3-92.8
	L291.1,189.2L291.1,189.2z M392.8,189.2l23.4,46.2l25.3-46.2H392.8L392.8,189.2z M416.2,235.5L390.6,282h88v-46.6L416.2,235.5
	L416.2,235.5z M365.1,328.6L365.1,328.6c3.1,7.9,4.8,16.4,4.8,25.4c0,7.4-1.1,14.5-3.3,21.2h100.2c5.4-15.3,8.9-30.9,10.6-46.6
	H365.1L365.1,328.6z M316.3,421.7l25.7,46.6h66.3c11.4-11.9,24.4-27.4,36.2-46.6H316.3L316.3,421.7z"/>
<path id="Gray_4" class="st1" d="M269.6,405.8c1.6,5,2.8,7.2,3.2,8c-10.7-4.9-19.8-12.5-26.6-22.1l2.3-0.5
	C254.1,398.6,265.9,404.2,269.6,405.8 M330.6,405.8c-1.6,5-2.8,7.2-3.2,8c10.7-4.9,19.8-12.5,26.6-22.1l-2.3-0.5
	C346.1,398.6,334.4,404.2,330.6,405.8"/>
<path id="Gray_3" class="st2" d="M327.3,404.6c-0.9-0.9-2.4-2.4-3.9-4c-3.3-3.5-5.7-6.6-7.2-9c-15.9,3.8-29,0.8-32.2-0.1
	c-3.1,4.8-9.3,11.3-11.8,13.7c0.2,1.5,0.9,5.9,2.2,9c0.1,0.1,0.1,0.2,0.2,0.4c8.1,3.4,16.7,5.1,25.5,5.1c8.7,0,17.1-1.7,25.1-5
	c1.5-3.4,2.3-8.5,2.4-9.8C327.5,404.8,327.4,404.7,327.3,404.6"/>
<path id="Gray_2" class="st2" d="M247.6,389l-2.4,1.1c-7.1-10.8-10.9-23.3-10.9-36.2c0-4.3,0.4-8.6,1.2-12.8c0.8,0,2.3-0.1,4.3-0.5
	c0.4,3.3,2.2,14.1,7.4,24C246,368.4,244.4,376.9,247.6,389 M352.6,389l2.4,1.1c7.1-10.8,10.9-23.3,10.9-36.2c0-4.3-0.4-8.6-1.2-12.8
	c-0.8,0-2.3-0.1-4.3-0.5c-0.4,3.3-2.2,14.1-7.4,24C354.2,368.4,355.8,376.9,352.6,389"/>
<path id="Gray_1" class="st0" d="M328.7,363.1c-3.1,9.1-11.1,22.9-12.9,26.1c-1.7,0.4-8.2,1.6-16.3,1.6c-5.4,0-10.4-0.5-15-1.6
	c-1.9-3.2-9.9-17-12.9-26.1c2.9-4.4,10.4-15,18.5-22.7h20.2C318.3,348.1,325.7,358.7,328.7,363.1 M276.7,317.2
	c-8.2-1.6-16.8-1.9-21.3-2c-7.7,9.6-13,21.3-14.3,24.3c1.7,11.1,7,21,8,22.8c3.6,0.3,7.3,0.5,11.1,0.5c5.1,0,8.8-0.3,10.2-0.4
	c5-13.1,11.4-24.6,12.9-27.2C283.3,335.2,276.7,317.2,276.7,317.2z M344.9,315.1c-4.6,0.1-13.1,0.5-21.4,2l-6.6,18
	c1.5,2.6,7.9,14.1,12.9,27.2c1.4,0.1,5.1,0.4,10.2,0.4c3.8,0,7.5-0.2,11.1-0.5c1-1.8,6.3-11.8,8-22.9
	C357.8,336.4,352.6,324.8,344.9,315.1"/>
<path id="White" class="st0" d="M159.9,72c-5.6,0-10.9,1.1-15.8,3.2c-4.9,2.1-9.2,5-12.9,8.7s-6.5,8-8.6,12.9s-3.1,10.1-3.1,15.7
	s1,10.9,3.1,15.7c2.1,4.9,4.9,9.2,8.6,12.8s8,6.5,12.9,8.6s10.1,3.2,15.8,3.2c3.1,0,6.1-0.3,9-1c3-0.7,6-1.7,9-3.2l0.1-0.1l0.1,0.2
	l1.7,2.7h19.9l-8.3-13l-0.2-0.2c3.1-4.1,5.3-8.3,6.7-12.6c1.4-4.5,2-8.8,2-13.1c0-5.5-1-10.8-3.1-15.7c-2.1-4.9-4.9-9.2-8.5-12.9
	c-3.7-3.6-7.9-6.5-12.8-8.7C170.8,73.1,165.5,72,159.9,72L159.9,72z M454.6,88.1c-11.6,0-20.1,4.5-23.4,12.5c-1,2.4-1.6,5.1-1.6,7.8
	c0,12,8.7,15.9,15.3,17.8c0.8,0.2,2.7,0.6,4.8,1c4,0.8,8.9,1.9,10.3,2.4c3.1,1.1,3.5,3.2,3.5,4.4c0,4.8-7,5.2-9.2,5.2
	c-2.8,0-5.8-0.5-8.3-1.4c-2.7-0.9-4.3-2.1-5.6-3.3c-0.8-0.8-1.5-1.6-2.1-2.4c-0.1-0.1-0.2-0.3-0.4-0.5c-0.2-0.4-0.4-0.7-0.4-0.7
	l-11.6,7.7h-28.7v-12.9h22.3v-13h-22.3v-10.5h26.7v-13h-43v62.4h45.5v-9.3c2.7,3.1,6.8,7,13.8,9.1c3.9,1.2,8.3,1.8,13.3,1.8
	c9.7,0,17-2.6,21.7-7.9c2.3-2.5,5-6.9,5-13.6c0-15.1-12.8-17.4-25.2-19.7c-5-1-8.4-2-8.4-5.4c0-2.9,2.6-4.6,7.1-4.6
	c1.5,0,6.8,0.2,10.9,2.4c2.3,1.3,3.4,2.7,4.3,3.9l10.6-9.7c-1.9-2.2-4-4.4-8-6.5C467,89.5,461.1,88.1,454.6,88.1L454.6,88.1z
	 M159.9,88.5c5,0,9.5,1.5,13.3,4.1c0.1,0.1,0.3,0.2,0.4,0.3c0.2,0.1,0.3,0.2,0.5,0.4c5.8,4.4,9.5,11.3,9.5,19.2
	c0,4.2-1,8.1-2.9,11.5h-18.5l6.7,10.3l0.2,0.3l-0.1,0.1c-0.2,0.1-0.4,0.2-0.7,0.3c-0.1,0-0.2,0.1-0.2,0.1c-0.2,0.1-0.5,0.2-0.7,0.2
	c-0.1,0-0.3,0.1-0.4,0.1c-0.2,0.1-0.4,0.1-0.6,0.2c-0.2,0-0.3,0.1-0.5,0.1s-0.4,0.1-0.6,0.1c-0.2,0-0.4,0.1-0.5,0.1
	c-0.2,0-0.5,0.1-0.7,0.1s-0.3,0.1-0.5,0.1c-0.3,0-0.6,0.1-0.9,0.1c-0.1,0-0.2,0-0.3,0c-0.8,0.1-1.6,0.1-2.4,0.1c-0.4,0-0.8,0-1.2,0
	c-12.6-0.6-22.5-11.1-22.5-23.9C136.1,99.2,146.6,88.5,159.9,88.5L159.9,88.5z M322.4,89v51.6l3.5,10.9h12.8V89H322.4L322.4,89z
	 M357,89l-18.2,30l19.6,32.4h19.1L357.9,119l18.2-30L357,89L357,89z M205.5,89.1v35.4v0.3c0.2,7,0.4,14.3,6.7,20.4
	c5.7,5.4,12.1,7.8,20.9,7.8c10,0,15.4-3.1,20.4-7.9c7.7-7.3,7.7-17.3,7.7-25.2V89.1h-16.5v37.5c0,2.8,0,6.6-3.2,9.7
	c-1.2,1.1-3.9,2.9-8.2,2.9c-3.4,0-6.3-1.1-8.2-3c-3-3-3-6.8-3-9.6V89.1H205.5L205.5,89.1z M280.2,89.1l-20.5,62.4h16.6l14.1-43.2
	l7.2,22.2h-9.7l-4.3,13h18.3l2.6,8h16.7l-20.6-62.4H280.2L280.2,89.1z M208.3,162.5c-1.7,0-4.7,0.2-6.4,1.9c-0.8,0.8-1.2,1.8-1.2,3
	c0,2.8,2.4,3.6,3,3.8s1.1,0.3,1.7,0.5c0.8,0.2,4.2,0.8,4.8,1c0.4,0.2,1,0.5,1,1.2c0,0.5-0.4,0.9-0.8,1.2c-0.5,0.3-1.3,0.4-1.9,0.4
	c-2.1,0-3.1-0.7-3.3-1.7l-5.3,0.2c0.1,0.7,0.3,2.1,1.6,3.2c1.8,1.6,4.8,1.7,6.3,1.7c4.1,0,6.6-0.8,7.9-2.7c0.4-0.7,0.8-1.6,0.8-2.6
	c0-1.4-0.6-2.9-2.7-3.6c-0.6-0.3-1.3-0.4-1.9-0.5c-1-0.2-2.1-0.4-3.1-0.7c-0.8-0.2-2.4-0.5-2.7-1c-0.1-0.1-0.2-0.3-0.2-0.5
	c0-1.1,1.7-1.2,2.4-1.2c2.3,0,2.5,0.9,2.7,1.4l5.3-0.3c-0.1-0.8-0.5-2.9-3.3-3.8C212,162.7,210.2,162.5,208.3,162.5z M302.3,162.5
	c-1.7,0-4.7,0.2-6.4,1.9c-0.8,0.8-1.2,1.8-1.2,3c0,2.8,2.4,3.6,3,3.8s1.1,0.3,1.7,0.5c0.8,0.2,4.2,0.8,4.8,1c0.4,0.2,1,0.5,1,1.2
	c0,0.5-0.4,0.9-0.8,1.2c-0.5,0.3-1.3,0.4-1.9,0.4c-2.1,0-3.2-0.7-3.3-1.7l-5.3,0.2c0.1,0.7,0.3,2.1,1.6,3.2c1.8,1.6,4.8,1.7,6.3,1.7
	c4.1,0,6.6-0.8,7.9-2.7c0.5-0.7,0.8-1.6,0.8-2.6c0-1.4-0.6-2.9-2.7-3.6c-0.6-0.3-1.3-0.4-1.9-0.5c-1-0.2-2.1-0.4-3.1-0.7
	c-0.8-0.2-2.4-0.5-2.7-1c-0.1-0.1-0.2-0.3-0.2-0.5c0-1.1,1.7-1.2,2.4-1.2c2.3,0,2.5,0.9,2.7,1.4l5.3-0.3c-0.1-0.8-0.5-2.9-3.3-3.8
	C306,162.7,304.2,162.5,302.3,162.5L302.3,162.5z M282.6,162.6c-2.7,0-6.3,0.5-8.4,3.5c-1,1.4-1.4,3-1.4,4.7s0.4,3.2,1.4,4.6
	c1.1,1.5,3.3,3.4,8.5,3.4c2.7,0,5.2-0.4,7.2-2c0.7-0.6,1.3-1.2,1.8-2c0.8-1.2,1.1-2.7,1.1-4.1c0-2.6-1.2-5.8-4.7-7.2
	C286.5,162.7,284.5,162.6,282.6,162.6L282.6,162.6z M222.9,163.1l-6.5,15.1h5.9l3.7-10.9l1.8,5.1h-2.1l-1.1,3.3h4.4l0.8,2.5h5.9
	l-6.6-15.1L222.9,163.1L222.9,163.1z M236,163.1v12.5l1.1,2.6h4.2l-0.1-8.3l7.3,8.3h4.5v-15.1h-5.3l0.1,8.3l-7.3-8.3H236L236,163.1z
	 M265.7,163.1v10c-0.1,1.5-0.7,1.5-1.9,1.6h-1.2v3.6h3.1c1.5,0,3.1-0.1,4.3-1.3c1.1-1.1,1.1-2.5,1.1-3.5v-10.4L265.7,163.1
	L265.7,163.1L265.7,163.1z M312.1,163.1v15.1h16.2v-3.4h-10.8v-2.4h9.7V169h-9.7v-2.5H328v-3.4H312.1L312.1,163.1z M283,165.9
	c3.7,0,4.4,3.1,4.4,4.7c0,1.5-0.6,3.5-2.2,4.3c-0.7,0.3-1.4,0.4-2.2,0.4c-3.3,0-4.5-2.4-4.5-4.8C278.4,168.6,279.6,165.9,283,165.9
	L283,165.9z M121.4,168.4v4.6h67.9v-4.6H121.4z M299.3,288.1c-16.8,0.2-32.7,6.7-44.9,18.4c0,1.1,0.2,4.1,1.2,7
	c9-1.4,17.9-2,23.8-2.2c0,0,7.3-7.5,17.5-12.2L299.3,288.1L299.3,288.1z M300.9,288.1l2.4,11c10.2,4.8,17.5,12.2,17.5,12.2
	c5.9,0.2,14.8,0.7,23.8,2.2c0.9-3,1.1-5.9,1.2-7C333.7,294.8,317.8,288.3,300.9,288.1L300.9,288.1z"/>
<path id="Red" class="st2" d="M368.9,163.1v3.4h11c-9.3,4.1-9.6,11.7-9.6,11.7h5.7c0,0-0.3-5.6,8.9-11.7v-3.4H368.9L368.9,163.1z
	 M358.9,163.1c-0.6,0-3.6,0-5.6,0.9c-2.3,1-2.9,2.8-2.9,4.3c0,3.3,3,4.7,6.5,4.7c3.1,0,4.3-1,5-1.7c0,0.6-0.1,2-1.3,3
	c-0.7,0.6-1.6,0.8-2.5,0.8c-1.4,0-1.8-0.5-2.2-0.9l-5.6,0.1c0.4,1.4,1.2,2.7,3.5,3.4c1.5,0.5,3,0.6,4.2,0.6c2.1,0,4.5-0.2,6.4-1.6
	c2.5-1.9,2.8-4.8,2.8-6.4C367.3,165.2,364,163.1,358.9,163.1L358.9,163.1z M343.3,163.4c-1.1,0.8-2.2,1.7-4.8,2v3.1h3.5v9.5h5v-14.6
	H343.3L343.3,163.4z M392.1,163.8l-8.6,8.7v3.2h9.5v2.6h4.8v-2.6h2.6v-3.4h-2.5v-8.5H392.1L392.1,163.8z M358.5,166.3
	c2.2-0.1,3.4,0.4,3.4,1.8c0,1.2-1.1,1.8-3.2,1.8c-0.6,0-3,0-3-1.8C355.6,166.6,357.3,166.4,358.5,166.3L358.5,166.3z M393.1,167.6
	v4.6h-4.6L393.1,167.6z M409.5,168.4v4.6h69.1v-4.6H409.5z"/>
</svg>
