<svg version="1.1" id="Layer_1" xmlns="http://www.w3.org/2000/svg" xmlns:xlink="http://www.w3.org/1999/xlink" x="0px" y="0px"
	 viewBox="0 0 600 600" style="enable-background:new 0 0 600 600;" xml:space="preserve">
<style type="text/css">
	.st0{fill:#FFFFFF;}
	.st1{fill:#555555;}
</style>
<path id="Outline" class="st0" d="M497.5,80.2c-2.3-0.2-4.7-0.5-7.3-0.9c-39.9-5.5-61.5-21.8-84.4-39.1C380.9,21.3,352.7,0,300,0
	s-80.9,21.3-105.8,40.2c-22.9,17.3-44.5,33.6-84.4,39.1c-2.6,0.4-5,0.6-7.3,0.9c-9,1-32.9,3.5-32.9,28.7v246.7
	c0,62.7,19.7,115.5,58.6,156.9c38.3,40.7,94.7,69.8,167.6,86.6l4.2,1l4.2-1c73-16.8,129.4-45.9,167.6-86.6
	c38.9-41.4,58.6-94.1,58.6-156.9V108.9C530.4,83.7,506.5,81.1,497.5,80.2z"/>
<path id="Navy" d="M496.2,93.2c-2.2-0.2-4.9-0.5-7.7-0.9c-43.2-6-67.2-24.1-90.4-41.6c-24.4-18.5-49.7-37.5-98-37.5
	S226.5,32.3,202,50.8c-23.2,17.5-47.2,35.6-90.4,41.6c-2.9,0.4-5.6,0.7-7.7,0.9c-9.5,1-21.3,2.3-21.3,15.8v246.7
	c0,59.3,18.5,109.1,55.1,148c36.5,38.8,90.7,66.7,161.1,82.9l1.2,0.3l0,0l1.3-0.3c70.4-16.2,124.6-44.1,161.1-82.9
	c36.6-38.9,55.1-88.7,55.1-148V109C517.5,95.5,505.7,94.2,496.2,93.2z"/>
<path id="Red" class="st1" d="M506.3,108.9v246.7c0,56.4-17.5,103.6-52.1,140.3c-21.5,22.8-49.5,41.7-83.7,56.5V322.9
	c-22.6-6.7-45.7-11.5-69.1-14.3l-0.9,1.6L183.8,527.9c-7.6-5.1-14.9-10.6-21.8-16.5l109.3-204.1l0.8-1.4c-0.3,0-0.5,0-0.8,0
	c-7.6-0.4-15.2-0.6-22.9-0.6c-2.9,0-5.9,0-8.8,0.1l-97.8,186.2c-6.6-7.5-12.6-15.4-18-23.9L208,307.3l0.5-0.9l13.5-25.8
	c8.7-0.5,17.4-0.8,26.2-0.8c1.6,0,3.2,0,4.8,0c17.9,0.1,35.7,1.3,53.5,3.5c2.5,0.3,4.9,0.7,7.4,1c19.1,2.7,38,6.7,56.6,11.8v-31.7
	c-39.1-10.3-79.4-15.4-119.8-15.3c-4.1,0-8.2,0.1-12.2,0.2l13.2-25.1c40.1,0,80,4.9,118.8,14.5v-47c-3.3-6-5.9-10.9-8-14.5
	c-19.2-34.2-38.2-50.7-58.3-50.3c-20.3-0.3-39.3,16.1-58.5,50.3c-17.3,30.9-83.9,156.5-137.8,258.8c-6.5-17-10.8-34.7-12.7-52.8
	c1.8-3.5,3.6-6.9,5.4-10.3c45.8-88.3,93.2-179.5,109.9-208.3c25.5-44,58.6-68.1,93.2-68.1h1.1c17.2,0,34.2,6.1,49.9,17.6
	c5.7,4.2,11,8.9,15.9,13.9V44.6c7.2,4.6,13.9,9.7,20.7,14.9c24.3,18.4,49.5,37.4,95.7,43.8c2.9,0.4,5.6,0.7,8.1,1
	C506.3,105.5,506.3,106.3,506.3,108.9z M118.7,285.8c-8.5,2.7-16.8,5.7-25,8.8v26.8c2.3-0.9,4.5-1.9,6.8-2.8L118.7,285.8z
	 M132.4,258.5l16-28.9c-18.5,3.9-36.8,8.9-54.7,14.9v26.4c12.6-4.5,25.4-8.4,38.4-11.8L132.4,258.5z"/>
<path id="White" class="st0" d="M386.8,183.1c0-30.9,6.9-42.7,30.6-42.7h3.6c23.7,0,30.6,11.8,30.6,42.7v9c0,28.5-6,40.5-24.9,42.5
	v-27.5c5.9-1.7,7.1-5.2,7.1-19.1v-0.7c0-16.9-3.6-19.3-13.6-19.3h-2.1c-9.9,0-13.5,2.3-13.5,19.3v0.7c0,13.9,1.2,17.4,7.1,19.1v27.5
	c-18.9-2-24.9-14-24.9-42.5L386.8,183.1L386.8,183.1z M387.7,242.3h63v27h-63V242.3z M387.7,302.6h43.8v-27.1h19.2v81.2h-19.2v-27.1
	h-43.8V302.6z M387.7,395.5h27.2l35.8-35.6v33l-18.5,17.5v0.9l18.5,17.4v29.5l-35.8-35.6h-27.2V395.5z M474.2,198.5
	c-2.5,0-3.7,2.1-3.7,9.9c0,6.5,0.7,8.4,2.6,8.4c2,0,2.3-1.4,2.7-9.2c0.5-10.5,2.1-14.6,7.5-14.6c5.3,0,7,5.4,7,14.4
	c0,9.1-2.3,14.5-8.2,14.5v-6.2c2.6,0,3.3-2.6,3.3-9.1c0-6.1-0.6-7.5-2.4-7.5c-1.9,0-2.2,1.4-2.6,8.4c-0.5,9.5-1,15.3-7.1,15.3
	c-6.4,0-7.7-6.1-7.7-14.9c0-9.8,1.7-15.7,8.6-15.7L474.2,198.5z M484.8,254v-11.7H466v-6.2h18.8v-11.7h5.2V254H484.8z M471.1,297.9
	h-5.2v-24.7h24v6.2h-18.8V297.9z M478,300.5c8,0,12.3,4.5,12.3,15.1c0,10.5-4.4,15.1-12.3,15.1c-8,0-12.4-4.6-12.4-15.1
	C465.6,305,470,300.5,478,300.5z M478,324.5c4.9,0,7.1-2.5,7.1-8.9s-2.2-8.9-7.1-8.9s-7.2,2.5-7.2,8.9S473.1,324.5,478,324.5z
	 M465.6,349c0-10.6,4-15.1,12.4-15.1h12v6.2h-12c-3.4,0-7.2,0.9-7.2,8.9s3.9,8.9,7.2,8.9h12v6.2h-12
	C469.6,364.1,465.6,359.5,465.6,349z M465.9,373.7v-6.2h24v6.2H465.9z M474.2,382.9c-2.5,0-3.7,2.1-3.7,9.9c0,6.5,0.7,8.4,2.6,8.4
	c2,0,2.3-1.4,2.7-9.2c0.5-10.5,2.1-14.6,7.5-14.6c5.3,0,7,5.4,7,14.4c0,9.1-2.3,14.5-8.2,14.5v-6.2c2.6,0,3.3-2.6,3.3-9.1
	c0-6.1-0.6-7.5-2.4-7.5c-1.9,0-2.2,1.4-2.6,8.4c-0.5,9.5-1,15.3-7.1,15.3c-6.4,0-7.7-6.1-7.7-14.9c0-9.8,1.7-15.7,8.6-15.7
	L474.2,382.9z M269.8,511.7c0,2.9,2.3,4.2,11.1,4.2c7.3,0,9.5-0.8,9.5-2.9c0-2.2-1.5-2.6-10.3-3.1c-11.8-0.5-16.5-2.4-16.5-8.5
	c0-6,6.1-7.8,16.2-7.8c10.2,0,16.4,2.6,16.4,9.2h-7c0-3-3-3.7-10.2-3.7c-6.8,0-8.5,0.7-8.5,2.7c0,2.1,1.6,2.5,9.5,2.9
	c10.7,0.6,17.3,1.2,17.3,8c0,7.2-6.8,8.7-16.8,8.7c-11.1,0-17.7-1.9-17.7-9.7H269.8z M319,493.6c10.8,0,16.2,4.1,16.9,11.9h-7.1
	c-0.7-4.4-4-6.1-9.8-6.1c-7.1,0-10,2.5-10,8c0,5.6,3,8.1,10,8.1c5.8,0,9.2-1.7,9.8-6.1h7.1c-0.7,7.8-6.1,12-16.9,12
	c-11.9,0-17-4.9-17-13.9C302,498.5,307.1,493.6,319,493.6z"/>
</svg>
