<svg version="1.1" id="Layer_1" xmlns="http://www.w3.org/2000/svg" xmlns:xlink="http://www.w3.org/1999/xlink" x="0px" y="0px"
	 viewBox="0 0 600 600" style="enable-background:new 0 0 600 600;" xml:space="preserve">
<style type="text/css">
	.st0{fill:#FFFFFF;}
</style>
<path id="Blue" class="st0" d="M413.5,475.4l-57,78.2H600L486.7,48.3l-0.4-1.9l-164.9,0.1L0,553.6h264.4l-37.1-77.8l73.9-123.6
	l5,19.6l-61.9,106.5l92.8-68.7l62.2,68.7l-25.8-99.5l14.2-22.6L413.5,475.4z M338.5,390.8c-7,5.8-56.6,46.6-56.6,46.6
	s34.8-60,37.6-64.8c-1.1-4.1-5.7-22.2-5.7-22.2h61.5c0,0-13.4,21.3-15.9,25.4c1.7,5.5,19,63.2,19,63.2S343.4,396.6,338.5,390.8
	L338.5,390.8z M309.2,338.8l46.5-77.9h11.2l16.9,77.9H309.2z"/>
<path id="Black" d="M289.7,139.3l73.2-32.4l-30.8-45.1l-2.3-3.4L22.6,541.3l7.9-5L191.8,435l-30.9-73.4l98.3-61.5l-34-60.8
	l95.3-45.9L289.7,139.3z M352.7,71L352.7,71 M379.9,112.7l-72.5,32.5l31.2,53.9l-95.3,45.5l31.9,58.9l-98.6,62l30.4,74.3L42.9,541.2
	h200.6L211.7,476L348,249.4h29.7l51.4,228.9l-46.2,63.1l201.2-0.1L476.5,58.4l-132.1-0.1L379.9,112.7z M375.4,350.4h-61.5
	c0,0,4.6,18.2,5.7,22.2c-2.8,4.8-37.6,64.8-37.6,64.8s49.5-40.8,56.6-46.6c4.9,5.9,39.9,48.2,39.9,48.2s-17.3-57.7-19-63.2
	C362,371.7,375.4,350.4,375.4,350.4z"/>
</svg>
