<svg version="1.1" id="Layer_1" xmlns="http://www.w3.org/2000/svg" xmlns:xlink="http://www.w3.org/1999/xlink" x="0px" y="0px"
	 viewBox="0 0 600 600" style="enable-background:new 0 0 600 600;" xml:space="preserve">
<style type="text/css">
	.st0{fill:#FFFFFF;}
</style>
<path class="st0" d="M392.3,242.3l29.1-37.8v-46.6h-55.3v56.3h7.8l-10.7,28.1H392.3z M597,285.9c-8.7-25.2-35.9-42.7-56.3-46.6
	c-11.6-1.9-34-6.8-36.9-13.6c0,0-1-1.9,0-5.8c1-1.9,5.8-4.9,14.6-4.9c9.7,0,23.3,3.9,30.1,13.6l6.8,10.7l36.9-37.8l-4.9-6.8
	c-14.6-20.4-40.8-33-68.9-33c-25.2,0-47.5,10.7-60.2,29.1c-14.6,20.4-18.4,38.8-12.6,56.3c9.7,26.2,41.7,39.8,67.9,45.6
	c15.5,3.9,24.3,9.7,25.2,12.6c0,0,1,1.9-1,4.9c-4.9,6.8-35.9,2.9-61.1-20.4L467,283l-31,41.7l4.9,5.8c13.6,16.5,49.5,38.8,84.4,38.8
	c23.3,0,43.7-9.7,58.2-28.1C602.9,319.9,601.9,299.5,597,285.9z M498.1,406.3c-1.9-5.8-9.7-8.7-15.5-8.7c-3.9,0-7.8,1-9.7,3.9
	c-30.1,33-45.6,37.8-52.4,37.8c-5.8,0-12.6-2.9-20.4-25.2L303,121c-11.6-34-32-56.3-61.1-66c-8.7-1.9-16.5-2.9-25.2-2.9
	c-45.6,0-81.5,34-94.1,90.2c-1,4.9,1,9.7,5.8,11.6c4.9,1.9,9.7,1,12.6-3.9c8.7-12.6,25.2-27.2,41.7-27.2c4.9,0,10.7,1,15.5,3.9
	c16.5,9.7,17.5,17.5,8.7,43.7l-1.9,6.8c-9.7-5.8-21.3-9.7-34-9.7c-26.2,0-58.2,17.5-64,67c0,3.9,1.9,8.7,5.8,10.7s8.7,1,11.6-1.9
	s11.6-5.8,22.3-5.8s20.4,3.9,24.3,9.7c5.8,7.8,2.9,19.4,0,28.1l-56.3,164c-58.2,2.9-100.9,37.8-114.5,93.2c-1,4.9,1,9.7,5.8,11.6
	s9.7,0,12.6-3.9c5.8-9.7,42.7-29.1,88.3-29.1c35.9,0,69.9,10.7,100,33c4.9,2.9,10.7,1.9,13.6-1.9l57.3-69.9c2.9-3.9,2.9-9.7-1-13.6
	c-4.9-4.9-16.5-6.8-25.2-6.8s-25.2,1.9-40.8,13.6c-9.7-6.8-20.4-12.6-32-16.5l24.3-71.8h96.1L336,486.8
	c12.6,36.9,34.9,61.1,58.2,61.1c8.7,0,22.3-3.9,33-20.4c0,0,61.1-92.2,68.9-102.9C501.9,416,500,410.1,498.1,406.3z M228.3,310.2
	l25.2-74.7l24.3,74.7H228.3z"/>
<path d="M479.6,408.2c-60.2,65-78.6,39.8-89.3,8.7l-97-293.1c-8.7-27.2-25.2-50.5-54.3-59.2c-43.7-11.6-90.2,8.7-106.7,78.6
	c15.5-22.3,44.6-41.7,70.8-25.2c22.3,13.6,22.3,28.1,13.6,55.3l-6.8,20.4c-27.2-29.1-85.4-23.3-92.2,41.7
	c17.5-16.5,82.5-14.6,63.1,42.7L122.5,449c-48.5,0-97,25.2-111.6,85.4c13.6-21.3,112.6-64,202.8,1l57.3-69.9
	c-3.9-3.9-34.9-10.7-58.2,12.6c-12.6-10.7-28.1-18.4-45.6-23.3l30.1-88.3h110.6l38.8,116.4c15.5,46.6,50.5,72.8,73.8,37.8
	c0,0,61.1-92.2,68.9-102.9C496.1,408.2,481.6,407.2,479.6,408.2z M253.5,203.4l38.8,117.4h-78.6L253.5,203.4z M376.8,231.6h10.7
	l23.3-31.1v-33h-34.9v35.9h11.6L376.8,231.6z M538.8,249.1c-28.1-5.8-51.4-11.6-44.6-32c5.8-17.5,47.5-15.5,62.1,5.8l22.3-22.3
	c-25.2-34.9-87.3-39.8-112.6-4.9c-34.9,48.5,4.9,74.7,49.5,86.4c18.4,4.9,41.7,15.5,30.1,33c-9.7,15.5-47.5,7.8-76.7-18.4
	l-19.4,26.2c17.5,20.4,85.4,62.1,127.1,10.7C612.6,292.7,567,254.9,538.8,249.1z"/>
</svg>
