<svg version="1.1" id="Layer_1" xmlns="http://www.w3.org/2000/svg" xmlns:xlink="http://www.w3.org/1999/xlink" x="0px" y="0px"
	 viewBox="0 0 600 600" style="enable-background:new 0 0 600 600;" xml:space="preserve">
<style type="text/css">
	.st0{fill:#FFFFFF;}
</style>
<path id="White" class="st0" d="M0,300C0,134.3,134.3,0,300,0s300,134.3,300,300S465.7,600,300,600S0,465.7,0,300z"/>
<path id="Blue" d="M300,18.6c-154.8,0-280.5,125.7-280.5,280.5S144.8,579.5,300,579.5c154.8,0,280.5-125.7,280.5-280.4
	S454.8,18.6,300,18.6z M300,506.2c-114.7,0-207.1-92.9-207.1-207.1S185.7,91.9,300,91.9S507.1,184.8,507.1,299
	S414.3,506.2,300,506.2z"/>
<path id="Red" d="M300,117.1c-100.5,0-181.9,81.4-181.9,181.9S199.5,480.9,300,480.9c59.5,0,111.9-28.6,145.2-72.4l-54.3-51
	c-19.5,30-52.8,50-91.4,50c-60,0-108.6-48.6-108.6-108.6c0.5-60,49.1-108.6,109.1-108.6c39.5,0,73.8,21,92.9,52.4l53.3-51.9
	C412.8,146.2,360,117.1,300,117.1z M267.6,250.9v65.7c0,9.1-13.8,9.1-13.8,0v-65.7H221v64.8c0,21.4,5.2,31.4,21,31.4h33.8
	c19,0,24.7-5.7,24.7-29.5v-66.7L267.6,250.9L267.6,250.9z M312.4,250.9v96.2h51.4c18.1,0,27.6-3.4,27.6-24.8c0-8.1,0-17.6-9-22.8
	c6.6-3.4,9-9.5,9-21.4c0-22.4-8.1-27.2-27.6-27.2L312.4,250.9L312.4,250.9z M426.7,250.9c-14.3,0-22.4,5.7-22.8,22.4
	c-0.5,16.7,0,9.5,0,15.7s-1,20,18.1,20h23.8c6.7,0,5.2,8.1,5.2,8.1v5.2c0,5.7-11.4,5.7-13.8,1.4c-1.9-2.8-1-8.1-1-8.1h-32.4
	c0,6.6-3.8,31.9,16.2,31.9c17.2-0.5,36.7-0.5,36.7-0.5c17.6,0,26.7-4.8,26.7-20.5v-21.4c0-11.4-8.1-18.6-19.5-18.6h-23.3
	c-6.2,0-4.8-9-4.8-11.9c0-4.3,13.3-5.7,13.3,1.4v4.3h34.7c0-22.4-4.3-29.5-26.7-29.5L426.7,250.9L426.7,250.9z M346.7,273.3
	c10,0,13.8,0,13.8,3.8v5.3c0,4.8-8.1,4.3-13.8,4.3V273.3L346.7,273.3z M352.7,312.3c5,0,5.9,0.3,7.3,3.9c0.5,0.9,0,3.8,0,5.2
	c0,4.8-6.7,4.3-13.8,4.3v-13.3C348.9,312.4,351,312.3,352.7,312.3L352.7,312.3z"/>
</svg>
