<svg version="1.1" id="Layer_1" xmlns="http://www.w3.org/2000/svg" xmlns:xlink="http://www.w3.org/1999/xlink" x="0px" y="0px"
	 viewBox="0 0 600 600" style="enable-background:new 0 0 600 600;" xml:space="preserve">
<style type="text/css">
	.st0{fill:#FFFFFF;}
</style>
<path id="Red" d="M337.2,505C504.3,505,600,396,600,296.9C600,178.4,467.8,95,326.3,95c-113.4,0-192,67-235.1,117.9
	C32.5,282.9,0,291.8,0,291.8c45.5,40,67,60.1,88.2,83C147.6,439.1,196.8,505,337.2,505"/>
<path id="Black" d="M386.8,281.9H368V273h-27.7v18.1h9.2v-8.9h18.1l9.6,8.9H396v-24.6l-9.2-9.2V281.9z M309.2,340.3l8.9,9.2H396
	v-24.3l-9.2-9.2v24.3H309.2z M340.3,306.8V325h9.2v-8.9h22.9v-15.7l-9.2-9.2v15.7h-22.9V306.8z M309.2,273l8.9,9.2h3.4V273H309.2z
	 M334.2,477c-121.3,0-169.1-52-225.2-111.7c-22.9-24.6-37.6-46.5-74.8-74.1l7.5,17.8c35.9,29.4,50.6,50.6,73.8,75.2
	c56.4,59.5,103.2,106.3,224.5,106.3c106.3,0,188.6-52.6,227.2-117.2l-5.8-13.7C522.8,424.4,440.4,477,334.2,477 M337.2,173.2
	c-118.6,0-165,78.6-165,116.5c0,21.9,6.5,41,17.1,57.4c-7.2-13.3-8.9-33.5-8.9-46.5c0-37.9,44.8-113.8,160.9-113.8
	c69.7,0,122.3,32.1,140.1,60.1h87.8c-1.7-3.1-5.5-13.7-5.5-13.7h-84.1C462.3,205.4,406.9,173.2,337.2,173.2 M202.6,273l9.2,9.2h3.1
	V273H202.6z M202.6,340.3l9.2,9.2h43.4v-15.4L246,325v15.4h-43.4V340.3z M269.3,302.7l9.9,22.2h5.1l-5.8-13l14-11.6v-18.1l-9.2-9.2
	v18.1L269.3,302.7z M233.7,306.8V325h9.2v-9.2h12.3l-4.1-8.9h-17.4V306.8z M289.4,340.3h-23.6l8.9,9.2h23.9v-15.4l-9.2-9.2
	L289.4,340.3L289.4,340.3z M264.5,282.2v-5.1l-4.8-4.1h-26v18.5h9.2v-9.2L264.5,282.2L264.5,282.2z M406.6,273l8.9,9.2h3.4V273
	H406.6z M465.4,282.2v-5.1l-4.8-4.1h-23.2v52h9.2v-42.7L465.4,282.2L465.4,282.2z M483.8,325l-18.5,15.4h-58.8l8.9,9.2h53l24.6-20.2
	v-47.1l-9.2-9.2V325z M545.3,306.8h-23.6l11,9.2h17.4v-5.1L545.3,306.8z M577.8,316.1l-9.2-9.2v17.8l-18.5,16.1h-23.6l-4.8-4.5v4.5
	h-18.4l8.9,9.2H531v-4.4l4.8,4.1h18.1l23.9-19.8V316.1z M550.1,281.9v-4.8l-4.8-4.1h-18.5l-4.8,4.1v10.3l4.8,3.8h4.5v-4.8l4.8-4.1
	h13.7l9.6,8.9h18.5v-24.6l-9.2-9.2V282L550.1,281.9L550.1,281.9z M526.2,325h5.1l-9.6-8.9v5.1L526.2,325z"/>
<path id="White" class="st0" d="M109,365.3C165,425.1,212.9,477,334.2,477c106.3,0,188.6-52.6,227.2-117.2h-83
	c-39,29.4-86.5,53.3-146.9,53.3c-55.7,0-114.1-23.2-142.1-65.9c-10.9-16.4-17.1-35.5-17.1-57.4c0-37.9,46.5-116.5,165.4-116.5
	c69.7,0,125.1,32.1,142.5,60.1h83.7c-39-76.9-139.4-123-239.9-123c-98.8,0-173.9,57.1-217.3,108.3c-57.4,67.7-72.4,72.5-72.4,72.5
	C71.4,318.8,86.1,340.7,109,365.3 M340.3,273H368v8.9h18.8v-24.6h-77.6V273h12.3v52h-12.3v15.4h77.6v-24.3H368v8.9h-27.7v-18.1h22.9
	v-15.7h-22.9V273z M289.4,325h-10.3l-9.6-22.6l13.7-11.3V273l-18.8-15.7h-61.8V273h12.3v52h-12.3v15.4H246V325h-12.6v-18.1h17.8
	l4.1,9.2l10.6,24.6h23.6V325H289.4z M242.9,291.5h-9.2v-18.1h26l4.8,4.1V288l-4.5,3.8h-17.1V291.5z M483.8,325v-52L465,257.3h-58.4
	V273h12.3v52h-12.3v15.4h58.8L483.8,325z M446.6,325h-9.2v-52h23.2l4.8,4.1v44.1L461,325H446.6z M521.7,336.2l4.8,4.5h23.6
	l18.5-16.1v-17.8l-18.8-15.7h-22.9l-4.8-3.8V277l4.8-4.1h18.5l4.8,4.1v4.8h18.5v-24.6h-18.5v4.1l-4.8-4.1h-23.2L503.3,273v18.1
	l18.4,15.7h23.6l4.8,4.1v10.3l-4.5,3.8h-19.5l-4.5-3.8v-5.1h-18.4v24.6h18.4v-4.5H521.7z"/>
</svg>
