<svg version="1.1" id="Layer_1" xmlns="http://www.w3.org/2000/svg" xmlns:xlink="http://www.w3.org/1999/xlink" x="0px" y="0px"
	 viewBox="0 0 600 600" style="enable-background:new 0 0 600 600;" xml:space="preserve">
<style type="text/css">
	.st0{fill:#FFFFFF;}
</style>
<path id="Blue" d="M268.1,524l56.4,28.8l31.9-13.5c18.6,6.3,38.5,9.7,59.2,9.7C517.4,549,600,466.5,600,364.8
	c0-53-22.4-100.8-58.3-134.4l1.9-41.7c0,0,0-18.8-13.8-22.5l-333.1-119l-40.1,7.5c0,0-1.3,27.5,18.8,48.8L42.7,56L0.1,63.5
	c0,0-3.8,45,41.3,71.3c0,0-6.3,38.8,36.3,63.8c0,0-5,36.3,30.1,56.3c0,0-6.3,28.8,35.1,56.3l51.4,151.4l55.1,27.5l27.6-8.8
	L268.1,524z"/>
<path id="White" class="st0" d="M394,341.9l-22.5,6.3l-67.6-28.8l20-6.3L394,341.9z M244.9,318.1l-27.6,8.8l33.8,90.1l25-6.3
	L244.9,318.1z M414,132.9l-20,6.3L176,60.4l22.5-5L414,132.9z M429,138l-20,5l93.9,35c0,0,5,0,10,7.5l19.4-6.9c0,0,0-5-15-8.8
	L429,138z M386.5,145.5l-18.8,26.3l-116.5-41.3c0,0-16.3-13.8-17.5-40L386.5,145.5z M224.9,86.6c0,0,1.3,21.3,10,37.5l-36.3-12.5
	c0,0-28.8-21.3-31.3-45L224.9,86.6z M387.7,206.8c0,0-3.8-7.5-18.8-11.3l-95.2-35l21.3-6.3l104,37.5c0,0,8.8,2.5,10,7.5L387.7,206.8
	z M278.7,149.2l-22.5,6.3L19.5,70.4l26.3-5L278.7,149.2z M249.9,161.7l-28.8,38.8L138.5,168c0,0-55.1-17.5-55.1-65.1L249.9,161.7z
	 M73.3,99.2L9.5,75.4c0,0-2.5,45,83.9,75.1C93.4,150.5,76.5,134.8,73.3,99.2 M216.1,209.3l-21.3,28.8l-41.3-15
	c0,0-41.3-16.3-42.6-55.1L216.1,209.3z M100.9,164.2c0,0-2.5,20,15,42.5c0,0-61.4-13.8-66.4-66.3C49.5,140.5,85.2,158.6,100.9,164.2
	 M188.6,246.8l-18.8,25c0,0-31.3-13.8-33.8-47.6L188.6,246.8z M127.8,222.4c0,0-3.8,17.5,15,40c0,0-53.9-15-56.4-57.6L127.8,222.4z
	 M147.2,303.1l17.5-21.3c0,0-36.3-15-47.6-21.3C117.2,260.6,117.8,288.7,147.2,303.1 M412.8,191.4c-0.8-0.5,1.9,0,2.8,0
	c95.9,0,173.6,77.6,173.6,173.4s-77.7,173.4-173.6,173.4c-18.8,0-36.9-3-53.9-8.5l46.7-192.1l-83.9-33.8l-40.1,12.5l-10,40
	l23.8,22.5l-3.8,23.8c0,0-1.3,6.3-8.8,6.3L253,313.8l48.8-73.8l80.2,32.5l36.3-13.8l2.5-55.1C420.9,203.6,419.6,195.3,412.8,191.4"
	/>
<path id="G" class="st0" d="M291.9,453.9L280.6,519l41.3,20l41.3-182.7l-70.1-28.8l-7.5,26.3l23.8,21.3l-6.3,33.8
	c0,0-2.5,8.8-12.5,10l-47.6,10l-37.6-106.4l70.1-103.9l102.7,40l1.3-36.3c0,0,2.5-10-10-15l-110.2-40L154.1,313.8L203,455.2
	l46.3,23.8L291.9,453.9z M506.7,204.3c2.5-13.8-7.5-17.5-7.5-17.5l-104-38.8L377,174.9l20,6.3c0,0,55.1-6.3,106.5,21.3L506.7,204.3z
	"/>
<path id="Stitches" d="M548.6,450.2c5,2.5,1.3,12.5,1.3,12.5h2.5c3.8-3.8,1.3-12.5,1.3-12.5c2.5,0,12.5-13.8,12.5-13.8h-5
	C558.7,442.7,548.6,450.2,548.6,450.2 M550.5,437h-3.8c0,0-2.5,10-10,13.8c0,0,5.6,5.6,1.9,13.1l3.1,0.6c0,0,3.8-12.5-1.3-13.8
	C540.5,450.8,549.3,445.8,550.5,437 M531.8,438c0,0-2.3,11.3-9,15.8c0,0,7.9,5.6,4,13l3.4-1.1c0,0,0.8-11-3.1-12.1
	c0,0,7.9-8.5,8.5-15.2L531.8,438z M519.4,441.9h-4c-0.6,10.2-6.2,16.4-6.2,16.4c5.1,1.7,6.2,12.4,6.2,12.4h2.8
	c1.7-5.6-5.1-13-5.1-13C515.4,456,519.4,441.9,519.4,441.9 M499,463.9c0,0,6.8-14.7,4-16.9l-4,1.1c0,0-0.6,14.7-4.5,17.5
	c0,0,11.9,6.2,8.5,11.3l4-1.7C507,475.2,505.5,468.7,499,463.9 M484.1,472.1c0,0,5.6-12.4,3.7-18.3l-4.5,2.3c0,0-0.6,15.2-3.4,17.5
	c0,0,11.9,4.5,10.7,10.2l3.1-1.4C493.7,482.3,491.4,473.8,484.1,472.1 M470,479.4c0,0,5.6-12.4,3.7-18.3l-4.5,2.3
	c0,0-0.6,15.2-3.4,17.5c0,0,11.9,4.5,10.7,10.2l3.1-1.4C479.6,489.6,477.3,481.1,470,479.4 M456.7,486.5c2.3-4.5,0.6-16.9,0.6-16.9
	l-4.5,2.3c2.8,6.2-1.1,16.4-1.1,16.4c4.8,1.4,12.7,9.3,12.7,9.3l4.2-2C466.9,490.5,456.7,486.5,456.7,486.5 M442.3,492.4
	c0,0,1.1-14.7-0.6-15.2l-3.7,2c0,0,2.8,7.3-0.6,15.2c0,0,11.9,4,14.1,10.2l2.8-1.7C454.4,502.9,447.9,493.6,442.3,492.4
	 M427.6,499.8c0,0,2.8-13.5,0-16.9l-3.7,2c0,0,3.4,11.9-1.1,16.4c0,0,11.3,2.8,14.7,9.6l4.2-2C441.7,508.8,433.8,499.2,427.6,499.8
	 M415.7,504.8c0,0,1.1-14.7-0.6-15.2l-3.7,2c0,0,2.8,7.3-0.6,15.2c0,0,11.9,4,14.1,10.2l2.8-1.7C427.9,515.3,421.4,506,415.7,504.8
	 M402.5,510.8c2.3-5.6-1.7-16.4-1.7-16.4l-3.4,2.3c4,2.3,1.1,15.2,1.1,15.2c4,1.1,13.6,9.6,13.6,9.6l3.4-1.1
	C413.8,514.2,402.5,510.8,402.5,510.8 M390,514.2c0.6-4.5-1.1-15.8-1.1-15.8l-4,2.3c3.4,1.7,1.7,14.7,1.7,14.7c3.4,0.6,13,9,13,9
	l2.8-1.1C399.6,518.7,390,514.2,390,514.2 M377.6,517c2.3-3.4-1.1-15.2-1.1-15.2l-4,2.3c4,3.4,1.1,14.1,1.1,14.1c4,0,13,9,13,9
	l3.4-1.1C387.8,520.9,377.6,517,377.6,517 M561.8,291.2c0,0-0.6,15.2,2.3,18.1l2.8-1.7c0,0-3.7-11-2.8-19.8c0,0-6.2,0.6-9.6-5.6
	l-2.3,2.3C552.1,284.5,556.1,292.9,561.8,291.2 M553.8,303.1c0,0-1.7,15.8-0.6,18.1l3.4-2.3c0,0-0.8-14.4,0-19.8c0,0-9-0.6-11.3-7.3
	l-2.3,2.8C543.1,294.6,550.5,302.5,553.8,303.1 M542.5,312.1c0,0-4,13-1.7,16.9l4-1.7c0,0-1.4-8.7,1.7-18.1c0,0-9.6-2.8-11.9-10.2
	l-3.4,2.3C531.2,301.4,538,310.4,542.5,312.1 M525.6,334.1l4-0.6c-1.1-6.8,4.5-18.1,4.5-18.1c-9.9-1.4-11.9-12.4-11.9-12.4l-4.5,1.7
	c0.6,7.3,11.3,13,11.3,13C526.2,324,525.6,334.1,525.6,334.1 M507.8,305.9h-5.4c-0.6,8.5,10.7,15.2,10.7,15.2
	c-5.6,2.8-5.6,15.2-5.6,15.2h5.1c-1.1-6.2,6.8-16.9,6.8-16.9C509.5,318.6,507.8,305.9,507.8,305.9 M487.8,336.9h5.6
	c-0.6-6.2,8.5-15.2,8.5-15.2c-7.6-4.2-10.2-15.8-10.2-15.8h-3.4c-2.8,4,8.5,15.8,8.5,15.8C492.8,323.4,487.8,336.9,487.8,336.9
	 M469.4,335.5h5.1c0,0,4.5-11.3,9.9-13.8c0,0-8.5-7.9-7.9-17.5l-5.6-1.1c0,0,2.8,14.1,7.3,18.1C478.1,321.1,468.8,330.4,469.4,335.5
	 M448.8,332.4l5.6,0.6c0,0,3.1-11,11.9-13.5c0,0-8.5-11.3-6.8-18.6l-5.6-1.1c0,0,2.8,15.8,6.2,18.6
	C460.1,318.3,449.9,326.8,448.8,332.4 M447.6,316.1c0,0-8.5-9-6.2-20.3l-6.2-1.7c0,0,1.7,18.1,6.2,20.3c0,0-11.3,7.3-11.9,13.5
	l5.4,0.8C434.9,328.8,438.3,319.2,447.6,316.1 M411.5,321.1l5.1,1.7c0,0,7.1-11,12.4-11.3c0,0-6.8-13.5-5.1-21.4l-5.1-1.1
	c0,0,0.6,14.7,4.5,19.8C423.4,308.7,413.8,314.4,411.5,321.1 M393.4,314.9l5.4,2c0,0,6.2-10.7,13.3-11.6c0,0-5.6-10.2-4.5-20.9
	l-4.5-1.7c0,0-0.6,16.4,2.8,19.8C405.8,302.5,396.8,307.6,393.4,314.9 M375.9,308.7l4.5,2.3c0,0,5.9-11,13.6-12.4
	c0,0-5.6-13-3.4-19.8l-5.1-1.7c0,0,1.1,16.9,3.4,19.2C388.9,296.3,378.2,301.9,375.9,308.7 M373.6,273.7l-5.1-1.1
	c0,0,0,15.2,2.8,18.1c0,0-10.2,5.6-12.4,13l4.5,1.1c0,0,5.4-11,13.6-11.9C377,292.9,371.4,277.1,373.6,273.7 M356.7,269.2l-5.1-0.6
	c0,0-1.7,13,2.3,16.9c0,0-11.9,9-11.9,14.1l4.8,0.8c0,0,6.2-12.4,13.3-13.3C360.1,287.3,354.4,279.4,356.7,269.2 M340.3,265.8h-5.6
	c0,0-1.7,13,2.3,15.8c0,0-11.9,8.5-13.6,14.7l5.1,0.6c0,0,7.6-11.6,14.1-13.5C342.6,283.3,337.5,270.3,340.3,265.8 M324.5,265.3
	l-5.1-0.6c0,0-1.7,11.9,1.1,15.2c0,0-10.2,7.9-12.4,15.2l4.2,0.3c0,0,6.2-13,13.3-14.4C325.6,281.1,320.5,271.5,324.5,265.3
	 M309.8,264.7h-4.5c0,0-2.3,12.4,0,15.8c0,0-9.6,7.3-10.7,13.5h3.7c0,0,5.1-11,11.6-13.5C309.8,280.5,305.9,270.3,309.8,264.7
	 M296.3,266.4h-4.5c0,0-2.3,11.9,0.6,15.2c0,0-7.9,7.3-9.6,13.5h3.7c0,0,4.5-11,9.9-14.1C296.3,281.1,291.7,272,296.3,266.4"/>
</svg>
