<svg version="1.1" id="Layer_1" xmlns="http://www.w3.org/2000/svg" xmlns:xlink="http://www.w3.org/1999/xlink" x="0px" y="0px"
	 viewBox="0 0 600 600" style="enable-background:new 0 0 600 600;" xml:space="preserve">
<style type="text/css">
	.st0{fill:#FFFFFF;}
</style>
<path class="st0" d="M98.8,0c-4.7,0-9,2.3-11.4,6.1c-4.1,6.5-1.7,13.8,0.9,19.5c20.4,44.4,60.3,78.1,113.5,96.5
	c-21,19-35.4,35.6-40.8,62.3c-26.7,5.2-54.5,24-64.9,44.9c-5.5,10.9-6.1,19.9-1.9,26.6c3.3,5.3,9,8.3,15.9,8.3
	c5.9,0,12.6-2.3,18.3-6.2c7.5-5.2,18.5-8.6,30.3-9.6v4.3c-11.1,2.4-22.4,7.3-32.7,14.2c-12.8,8.6-22.9,19.4-28.4,30.4
	c-5.5,10.9-6.1,19.9-1.9,26.6c3.3,5.3,9,8.3,15.9,8.3c5.9,0,12.6-2.3,18.3-6.2c8.2-5.6,18.5-9.4,28.9-10.8v66.4
	c0,26.9-13.5,39.5-20.8,46.2c-7.4,6.9-10.1,15.4-7.2,22.9c1.4,3.6,4,6.5,7.4,8.3c-26.5,22.2-39.3,51.7-45.4,73
	c-7.1,24.8-8.1,49.4-2.6,61.2l3,6.7h7.5c1.8,0,8-0.5,10.9-7.6c0.2-0.4,0.4-1,0.7-1.7c11.6-29.5,39.4-80.1,95.3-86.7
	c5.8-0.7,11.8-1,17.9-1c43.3,0,86.7,17,122.3,47.9l10.4,9l7.1-11.8c26-43.4,70.7-71.5,129.4-81.5l20.4-3.5l-13.7-15.5
	c-18.4-20.9-21.7-28.4-22.4-49.9V168.4c1.2-15.3,3.9-19.1,16.9-31.2l13.6-12.7l-17.4-6.5c-28.7-10.8-63-45.5-81.6-82.6L405.3,25
	l-10.4,5.3c-43.4,22.3-89,34.1-131.8,34.1c-54.3,0-104.6-19-145.4-55c-6.7-5.9-12.8-9.1-18.1-9.3C99.3,0,99,0,98.8,0L98.8,0z
	 M326.7,135c16.3-2,31.8-5.3,46.4-9.9l19.6,19.6v55.2c-12,2.7-26,4.2-40.2,4.2c-15.4,0-29.9-1.7-41.8-4.8v-0.5
	C310.7,176.2,312.7,151.1,326.7,135L326.7,135z M248.7,148.9c3.6-4.9,7.5-9.5,11.8-13.5c2.8,0.3,5.6,0.6,8.5,0.8
	c-4.7,4.8-8.8,9.6-12.4,14.6C253.9,150.1,251.3,149.4,248.7,148.9L248.7,148.9z M230.8,340.1V198.8c0-3.1,0.3-6.5,0.8-9.9
	c2.8,0,5.6,0.2,8.3,0.6c-0.9,5-1.3,10-1.2,15l-0.1,135.4c-1.9,0.1-4,0.2-6.1,0.2C231.9,340.1,231.3,340.1,230.8,340.1L230.8,340.1z
	 M310.7,285.3v-38.5c12.5,2.7,26.9,4.2,41.8,4.2c14,0,27.8-1.3,40.2-3.7v37.5c-12.5-2.4-26.3-3.7-40.2-3.7
	C337.5,281.1,323.2,282.6,310.7,285.3L310.7,285.3z M310.7,332.9c11.4-3,25.2-4.7,39.9-4.8c0.7,0,1.3,0,2,0
	c14.2,0,28.1,1.5,40.1,4.2v82.5c-17.4,6.4-36.7,17.9-54.6,32.5c-19.6-9.1-39.4-15.5-59.1-19.1c6-6.3,11.2-13.1,15.6-20.4
	c10.7-17.6,16.1-37,16.1-57.6V332.9L310.7,332.9z M202.5,428.5c0.1-0.1,0.3-0.3,0.4-0.4c11.5-12.9,19.7-28.3,24.1-44.8
	c2.7,0.1,5.4,0.2,8.1,0.2c1.2,0,2.3,0,3.5,0c-0.5,23-11.1,35.2-18.4,42.2C214.1,426.3,208.2,427.2,202.5,428.5L202.5,428.5z"/>
<path d="M98.9,11.5c-2.6-0.1-3.3,2.4-0.2,9.3c23.3,50.7,71.8,82.3,126.3,96.3c-31.4,27.2-49.8,43.2-54,77.6
	c-26.8,2-55.5,21.6-64.6,39.8c-10.4,20.7,5,21.2,15.4,14c13.3-9.1,32.2-12.6,48.3-11.9v26c-26.8,2-53.2,21.6-62.3,39.8
	c-10.4,20.7,5,21.2,15.4,14c13.3-9.1,30.8-14,46.9-13.3v78.5c0,30.8-15.4,46.2-24.5,54.7c-9.1,8.4-4.1,17.2,9.1,11.9
	c27.7-11.1,56.5-37.3,63-77.3c10.6,1.3,23.3,1.5,32.3,0v10.8c0,30.8-15.4,46.2-24.5,54.7c-0.1,0.1-0.2,0.2-0.4,0.4
	c-29.5,2.6-55.8,12.5-76.8,28.8c-47.8,37.3-55.1,107.4-47.8,122.9c0.5,1,26.9-86.6,105.5-95.9c45.5-5.4,101.5,8.3,149.1,49.6
	c29.4-49.1,79.2-77.1,137.3-87c-19.6-22.3-24.5-32.1-25.2-57.4V167.9c1.4-19.6,6.3-25.9,20.6-39.2c-31.8-11.9-68.2-49-87.8-88.3
	C301.9,90.9,192.6,90.9,110,18C105.9,14.4,101.5,11.7,98.9,11.5L98.9,11.5z M376.2,111.9l28,28v68.9c-31.4,9.5-76.8,9.1-105.1-1v-9
	c0-24.4,2-55.3,22.1-74.8C340.4,122,359,118,376.2,111.9z M256.7,123.3c13.5,1.7,27,2.5,40.5,2.3c-14.8,12.9-27.4,24.9-35.9,38.8
	c-11.2-3.7-21.5-5.9-31.6-6.5C236.3,144.8,245.6,132.7,256.7,123.3z M230.5,177.3c8.2-0.1,16.3,1.2,23.4,3.8
	c-2.2,7.1-3.6,14.8-3.6,23.4l-0.1,145.6c-7.9,1.7-20.1,1.9-30.9,0.9V198.8c0-6.7,1.1-13.8,3-21C225,177.5,227.8,177.3,230.5,177.3z
	 M299.1,231.6c28.3,10.1,73.6,10.5,105.1,1v66.9c-31.4-9.5-76.8-9.1-105.1,1V231.6z M350.5,316.5c18.8-0.2,38,2.1,53.7,6.9V423
	c-19.6,5.6-43.4,19.6-64.5,37.8c-30.4-15.1-60.4-22.9-88.4-24.5c25.1-16.9,47.8-46.7,47.8-86.3v-25.8
	C313.3,319.3,331.7,316.6,350.5,316.5z"/>
</svg>
