<svg version="1.1" id="Layer_1" xmlns="http://www.w3.org/2000/svg" xmlns:xlink="http://www.w3.org/1999/xlink" x="0px" y="0px"
	 viewBox="0 0 600 600" style="enable-background:new 0 0 600 600;" xml:space="preserve">
<style type="text/css">
	.st0{fill:#FFFFFF;}
</style>
<path id="Blue" d="M300,0C134.6,0,0.6,134.3,0.6,300c0,165.6,134,300,299.4,300s299.4-134.3,299.4-300S465.4,0,300,0"/>
<path id="Orange_Rings" class="st0" d="M300,13.8C142,13.8,13.8,141.9,13.8,300c0,158,128.1,286.1,286.2,286.1
	c158,0,286.2-128.1,286.2-286.1C586.1,141.9,458,13.8,300,13.8z M300,574.9C148.2,574.9,25.2,451.8,25.2,300S148.2,25.2,300,25.2
	c135.2,0,247.5,97.6,270.5,226.2c2.9,15.8,4.3,32,4.3,48.7l0,0l0,0C574.8,451.8,451.8,574.9,300,574.9z M300,116.4L300,116.4
	c-101.4,0-183.6,82.2-183.6,183.6S198.6,483.5,300,483.5S483.6,401.3,483.6,300C483.6,198.6,401.4,116.4,300,116.4z M300,471.1
	c-94.5,0-171.1-76.6-171.1-171.1S205.5,128.8,300,128.8l0,0c94.5,0,171.1,76.6,171.1,171.2C471.1,394.5,394.5,471.1,300,471.1z"/>
<polygon id="Star_Light" class="st0" points="300,119.8 340.2,243.6 471.1,243.6 365.1,320.3 405.2,443.8 300,367.5 194.7,443.8 
	234.9,320.3 128.9,243.6 259.8,243.6 "/>
<path id="Star_Dark" class="st0" d="M300,119.8L300,119.8L300,119.8L300,119.8z M471.1,243.6h-0.9l-28.2,9.1h-99.2l-2.7-9.1l0,0
	L300,119.9v179l-30.4,41.8l-43.2-38.2l-68.5-49.8l-29.1-9.1l138.5,100.3l-72.6,99.9L300,367.5l105.2,76.3l-40.1-123.5L471.1,243.6z"
	/>
<path id="Letters" class="st0" d="M290.4,42.4l-6.9,6.9v19.9l6.9,6.8h15.3l1.4,1.5v12.2l-1.4,1.4h-13.1l-2-5.4h-7.1v14.6h26.1
	l6.9-6.9V73.6l-6.9-6.9h-15.3l-1.4-1.4V53.1l1.4-1.4h13.1l2.1,5.3h7V42.4H290.4L290.4,42.4z M242.6,48l-16.3,5.1l2.2,7l4.2,0.5
	L244.1,97l-1,1.8l-11.3,3.5l-1.8-0.9L218.7,65l3.2-2.8l-2.2-7l-16.3,5.1l2.2,6.9l4.3,0.6l12.5,40l8.6,4.5l18.7-5.8l4.5-8.6l-12.5-40
	l3.2-2.9L242.6,48L242.6,48z M358.1,48.3l-4.8,15.3l6.6,2l4.1-5.8l5.4,1.7l-11.8,37.8l-4.3,0.6l-2.1,6.9l16.3,5.1l2.2-7l-3.2-2.9
	l11.8-37.7l5.4,1.7l0.1,7.1l6.6,2.1l4.8-15.3L358.1,48.3L358.1,48.3z M438.6,82.6l-9.6,1.8l-25.1,36.3l1.8,9.6l16,11.1l0,0l9.6-1.8
	l25.1-36.3l-1.7-9.6L438.6,82.6L438.6,82.6z M161.1,82.8l-16,11.1l-1.8,9.6l25.2,36.3l9.6,1.8l16.1-11.2l1.7-9.5l-25.2-36.3
	L161.1,82.8L161.1,82.8z M436.5,92.4l9.8,6.7l0.3,2l-20.8,30l-2,0.4l-9.7-6.8l-0.3-2l20.8-30L436.5,92.4L436.5,92.4z M163.2,92.6
	l2,0.4l20.8,29.9l-0.3,2l-9.7,6.7l-2-0.3l-20.8-29.9l0.4-2.1l0,0L163.2,92.6L163.2,92.6z M490.3,125.1l-5.7,4.5l1,4.2l-31.4,24.4
	l-3.8-2l-5.8,4.5l10.5,13.5l5.8-4.5l-1-4.2l21.4-16.6l-19.9,33.3l6.7,8.6l38.5-30l3.8,2l5.8-4.5l-10.5-13.5l-5.7,4.5l1,4.2
	L479.5,170l20-33.3L490.3,125.1L490.3,125.1z M109.1,125.8l-10.5,13.5l5.7,4.5l3.8-2l12,9.3l-8.8,11.4l-12-9.4l1-4.2l-5.7-4.5
	l-10.5,13.5l5.8,4.5l3.8-1.9l31.4,24.4l-1,4.2l5.7,4.5l10.5-13.5l-5.7-4.4l-3.8,2l-12-9.3l8.8-11.3l12,9.4l-1,4.2l5.8,4.5l10.5-13.5
	l-5.7-4.5l-3.9,2l-31.4-24.4l1-4.2L109.1,125.8L109.1,125.8z M570.5,251.3c2.1,11.8,3.5,24,4,36.3
	C574,275.3,572.6,263.2,570.5,251.3z M451.9,430.7l-18.5,18.2l-0.1,9.8l13.9,14.1l9.8,0.1l10.9-10.7h2l8.5,8.6v2L469,482l-5.2-2.3
	l-5,4.9l10.3,10.5l18.6-18.3l0.1-9.8l-13.9-14.1l-9.7-0.1l-10.9,10.8h-2.1l-8.5-8.7v-2.1l9.4-9.2l5.2,2.4l5-4.9L451.9,430.7
	L451.9,430.7z M153.2,435.6L153.2,435.6l-40,29.2l-4-1.4l-5.1,5.2l12.2,12l5.1-5.2l-1.5-4l5.1-3.7l10.6,10.4l-3.6,5.2l-4-1.4l-5,5.1
	l12.2,12l5.1-5.2l-1.5-4l28.4-40.5L153.2,435.6L153.2,435.6z M152.3,447.7l2.7,2.7l-14,20l-8.4-8.3L152.3,447.7L152.3,447.7z
	 M398.7,473.9l-17.5,8.8l-3,9.3l19.9,39.4l9.3,3l17.5-8.8l3-9.2L408,476.9L398.7,473.9z M201.8,474.2l-9.2,3.1l-8.9,17.7l3.1,9.3
	l13.7,6.8l0.6,2l-5.4,10.8l-1.9,0.6l-11.7-5.9l0.5-5.7l-6.2-3.2l-6.6,13.1l23.3,11.7l9.3-3.1l8.9-17.8l-3.1-9.2l-13.7-6.9l-0.6-1.9
	l5.4-10.9l1.9-0.6L213,490l-0.5,5.7l6.2,3.1l6.6-13.1L201.8,474.2L201.8,474.2z M399.5,483.9l1.9,0.6l16.4,32.6l-0.7,1.9l-10.6,5.3
	l-1.9-0.6l-16.4-32.5l0.6-2L399.5,483.9L399.5,483.9z M250.1,494.4l-2.5,15.8l6.8,1.1l3.2-6.4l5.6,0.9l-6.1,39.1l-4.1,1.2l-1.1,7.2
	l16.9,2.6l1.1-7.2l-3.6-2.3l6.1-39.1l5.6,0.9l1.1,7l6.9,1.1l2.4-15.8L250.1,494.4L250.1,494.4z M340.9,495.7l-29.6,4.7l1.1,7.2
	l4.1,1.2l6.2,39.2l-3.6,2.4l1.1,7.2l16.9-2.7l-1.1-7.2l-4.1-1.2l-2.4-15.1l8.3-1.3l6.6,13.7l-3,2.1l1.2,7.2l16.9-2.7l-1.1-7.2
	l-4.6-1.3l-6.8-14.3l4.8-6.7l-3.1-19.6L340.9,495.7L340.9,495.7z M338.6,505.5l1.6,1.2l1.9,12l-1.2,1.7l-12.8,2l-2.3-14.8
	L338.6,505.5L338.6,505.5z"/>
<path id="H_White_1_" d="M404.7,206h-8h-84.1h-8v8v29.4v5.6l5.3,1.9l17.9,6.4v22.1h-55.7v-22.1l17.9-6.4l5.3-1.9v-5.6V214v-8h-8
	h-84.1h-8v8v29.4v5.6l5.3,1.9l17.9,6.5v97.8l-17.9,6.4l-5.3,1.9v5.6v29.4v8h8h84.1h8v-8v-22.2v-7.2v-5.6l-5.3-1.9l-17.9-6.4v-22.1
	h55.7v22.1l-17.9,6.4l-5.3,1.9v5.6v29.4v8h8h84.1h8v-8v-29.4v-5.6l-5.3-1.9l-17.9-6.4v-97.8l17.9-6.4l5.3-1.9v-5.6V214V206
	L404.7,206z"/>
<path id="H_White_3_" class="st0" d="M226.4,251.8L226.4,251.8v109l-23.2,8.3v29.4l0,0l0,0l0,0l0,0h84.1v-22.2v-7.2l0,0l0,0l0,0l0,0
	l-23.2-8.3v-35.7h71.7v35.7l-23.2,8.3v29.4l0,0l0,0l0,0l0,0h84.1v-29.4l0,0l0,0l0,0l0,0l-23.2-8.3V251.7l23.2-8.3V214l0,0l0,0l0,0
	l0,0h-84.1v29.4l0,0l0,0l0,0l0,0l23.2,8.3v35.7h-71.7l0,0v-35.7l23.2-8.3V214l0,0l0,0l0,0l0,0h-84.1l0,0v29.4L226.4,251.8z"/>
</svg>
