<svg version="1.1" id="Layer_1" xmlns="http://www.w3.org/2000/svg" xmlns:xlink="http://www.w3.org/1999/xlink" x="0px" y="0px"
	 viewBox="0 0 600 600" style="enable-background:new 0 0 600 600;" xml:space="preserve">
<style type="text/css">
	.st0{fill:#FFFFFF;}
</style>
<path id="Outline" class="st0" d="M495.2,326C495.2,326,495.2,326,495.2,326c0.3,1.1,0.3,2.3,0,3.5l-1.3,4.5
	c-0.2,0.7-0.4,1.5-0.6,2.2c-0.5,2-1.1,4-1.8,6.2c-0.2,1.2-0.8,2.3-1.7,3.2l-0.1,0.1c-0.2,0.2-0.5,0.5-0.8,0.7c0,0,0,0,0,0
	c0.3,1.1,0.3,2.3-0.1,3.5c-1.7,4.9-2.9,8.2-3.7,10.3c-0.1,0.2-0.1,0.3-0.2,0.5l-0.1,0.2c-0.3,0.6-0.8,1.2-1.3,1.7
	c0,0.8-0.2,1.5-0.5,2.2l-0.6,1.2c-1.4,3.3-3.1,6.3-4.4,8.6c-0.3,0.5-0.6,0.9-1,1.2l-0.1,0.1l-0.1,0.1c-0.4,0.4-0.9,0.8-1.4,1.1
	c0,1.2-0.5,2.4-1.2,3.4l-1,1.3c-2.1,2.7-4.4,5.5-7,8.3c-0.1,0.1-0.1,0.1-0.2,0.2l-0.1,0.1c-0.8,0.8-1.7,1.3-2.8,1.6
	c-0.3,1.1-0.9,2-1.7,2.8l-1.1,1c-2.9,2.6-5.7,5-8.2,6.9c-0.9,0.8-2.1,1.4-3.3,1.5c-0.4,1.1-1.2,2-2.1,2.7l-1.3,0.9
	c-15.4,10.7-32.9,17.5-33.1,17.6c-0.7,0.3-1.4,0.4-2.2,0.4c-2.3,0-4.5-1.3-5.5-3.5c-1.3-2.9-0.1-6.3,2.7-7.8
	c9.3-4.8,20.7-11.9,27.2-16.9c0.3-0.2,0.5-0.4,0.8-0.5c0.5-0.4,1.1-0.6,1.7-0.8c0.4-0.8,0.9-1.5,1.6-2.1l1-0.8c2-1.8,4.4-4,6.8-6.4
	c0,0,0.1-0.1,0.1-0.1l0.1-0.1c0.5-0.5,1.2-1,1.9-1.3c0.2-0.5,0.5-1.1,0.9-1.5l0.8-1c0,0,0,0,0.1-0.1c1.9-2.3,3.5-4.3,4.9-6.3
	c0.5-0.8,1.1-1.5,1.8-2c0.1-0.6,0.3-1.2,0.6-1.7l0.6-1.1c0.1-0.1,0.1-0.2,0.2-0.3c0.8-1.2,1.4-2.6,2.2-4.4c0-0.1,0.1-0.2,0.1-0.3
	c0.4-1.2,1.2-2.3,2.3-3l0.3-0.2c0.1-0.1,0.2-0.1,0.3-0.2l0.5-0.3c-0.2-1.2-0.1-2.4,0.5-3.5l0.5-1.1c0-0.1,0.1-0.1,0.1-0.2
	c0.5-1,1-2.1,1.5-3.3c0.2-0.5,0.4-1,0.7-1.5c0-0.1,0.1-0.2,0.1-0.2l0.1-0.2c0.2-0.5,0.5-0.9,0.9-1.3c0-0.5,0.1-1.1,0.3-1.6l0.4-1.2
	c0-0.1,0-0.1,0.1-0.2c0.5-1.4,1-2.9,1.5-4.5c0.1-0.3,0.2-0.6,0.4-0.9l0.1-0.2c0.5-0.9,1.2-1.7,2-2.3c-0.7-1.1-1-2.4-0.8-3.7l0.1-1
	c0-0.1,0-0.2,0-0.3c0.2-1.1,0.2-2.1,0.3-3.1l0-0.1c0-0.5,0.1-1,0.2-1.5c-0.8-0.9-1.3-2-1.5-3.1l-0.1-0.5c-0.2-1.1-0.5-2.4-0.9-3.8
	l0-0.1c-0.3-0.8-0.4-1.6-0.3-2.4c-0.4-0.6-0.8-1.3-1-2l-0.2-0.7c-0.4-1.4-0.9-2.9-1.5-4.4c0-0.1-0.1-0.2-0.1-0.3l-0.1-0.3
	c-0.2-0.5-0.3-1.1-0.3-1.6c-0.4-0.4-0.7-0.8-1-1.2l-0.3-0.5c-0.1-0.1-0.2-0.3-0.2-0.4c-0.5-1.1-1.2-2.4-2-3.5c0,0,0-0.1-0.1-0.1
	l-0.2-0.3c-0.4-0.6-0.7-1.2-0.8-1.8c-0.5-0.3-1-0.8-1.4-1.3l-0.3-0.4c-1.2-1.4-2.2-2.4-3.1-3.3c-0.1-0.1-0.1-0.1-0.2-0.2l-0.3-0.3
	c-0.4-0.4-0.8-0.9-1-1.4c-0.8-0.2-1.5-0.5-2.2-1l-0.3-0.2c-1.2-0.8-2.7-1.7-4.2-2.5l-0.3-0.2c-0.7-0.3-1.2-0.8-1.7-1.3
	c-0.7,0-1.4-0.1-2.1-0.4l-0.5-0.2c0,0,0,0-0.1,0c-1.3-0.5-2.9-1-4.6-1.4L440,290c-0.8-0.2-1.5-0.5-2.2-0.9c-0.4,0.1-0.8,0.1-1.2,0.1
	c-0.4,0-0.8,0-1.2-0.1l-0.4-0.1c-1.7-0.3-3.3-0.5-4.8-0.6H430c-1.6,0-3.1-0.6-4.3-1.8c-1.1,1-2.5,1.7-4.1,1.7h-0.2l-2.7,0.1
	l-2.9,0.1c-0.1,0-0.2,0-0.3,0h-0.6c-1.7,0-3.3-0.7-4.5-2c-0.8,1.3-2.1,2.3-3.7,2.7l-0.4,0.1c-0.1,0-0.3,0.1-0.4,0.1
	c-1.8,0.3-6.1,0.9-6.6,0.9c-0.3,0-0.5,0.1-0.8,0.1c-1.2,0-2.4-0.4-3.4-1c-0.1,0.1-0.1,0.2-0.2,0.3c-0.8,1.4-2.1,2.3-3.7,2.7
	l-0.4,0.1c-0.1,0-0.1,0-0.2,0c-1.7,0.4-3.5,0.8-5.4,1.3c-0.1,0-0.2,0.1-0.4,0.1l-0.5,0.1c-0.4,0.1-0.8,0.1-1.2,0.1
	c-1.2,0-2.3-0.3-3.3-1c-0.8,1.6-2.2,2.8-3.9,3.2l-0.4,0.1c-1.4,0.4-2.7,0.8-4.2,1.3l-1.1,0.3l-0.6,0.2c-0.6,0.2-1.3,0.3-1.9,0.3
	c-1.1,0-2.2-0.3-3.2-0.9c-0.1,0.3-0.3,0.6-0.4,0.9c-0.8,1.4-2.1,2.3-3.7,2.7l-0.1,0c-1.9,0.7-5.4,1.7-5.8,1.8
	c-0.2,0-0.3,0.1-0.5,0.1l-0.5,0.1c-0.4,0.1-0.8,0.1-1.2,0.1c-1.1,0-2.2-0.3-3.2-0.9c-0.5,1.9-1.9,3.5-3.8,4.2l-6.4,2.3
	c-0.7,0.2-1.3,0.4-2,0.4c-1,0-2-0.3-3-0.8c-0.2-0.1-0.4-0.2-0.5-0.3c-0.4,2-1.8,3.8-3.8,4.5l-6.3,2.4c-0.7,0.3-1.4,0.4-2.1,0.4
	c-1,0-2-0.3-2.9-0.7c-0.1-0.1-0.3-0.2-0.4-0.3c-0.4,1.8-1.5,3.3-3.2,4.2l-0.4,0.2c-0.1,0.1-0.3,0.1-0.4,0.2l-5.8,2.4
	c-0.7,0.3-1.5,0.5-2.3,0.5c-1,0-1.9-0.2-2.8-0.7c-0.5-0.3-1-0.6-1.4-1c-0.1,2.3-1.5,4.4-3.7,5.3l-6.3,2.6c-0.7,0.3-1.5,0.5-2.3,0.5
	c-1,0-1.9-0.2-2.8-0.7c-0.2-0.1-0.3-0.2-0.5-0.3c-0.4,1.9-1.7,3.5-3.6,4.3l-6.4,2.6c-0.7,0.3-1.5,0.4-2.3,0.4c-1,0-2-0.2-2.8-0.7
	c-0.3-0.2-0.6-0.4-0.9-0.6c-0.3,2.2-1.7,4.1-3.8,4.9l-6.5,2.5c-0.7,0.3-1.4,0.4-2.2,0.4c-1,0-2-0.2-2.9-0.7c-1.5-0.9-2.6-2.3-3-4.1
	l0-0.2c-2.4-8-6.9-13.9-7.2-14.3c-0.1-0.1-0.2-0.2-0.3-0.4l-0.3-0.4c-0.9-1.1-1.4-2.5-1.4-3.9v-0.2v-0.8c-0.3-6.3-1-11.2-1.2-12.2
	l0-0.2c-0.8-3.2,1.2-6.5,4.4-7.3l0.1,0l5.1-2l0.5-0.2c0.7-0.3,1.5-0.4,2.2-0.4c0.9,0,1.9,0.2,2.7,0.7c0.5-1.4,1.5-2.7,3-3.4l0.4-0.2
	c0.1-0.1,0.2-0.1,0.4-0.2l5.5-2.3c0,0,0.1,0,0.1,0l0.5-0.2c0.7-0.3,1.5-0.4,2.2-0.4c0.9,0,1.8,0.2,2.6,0.6c0.1-0.2,0.1-0.5,0.2-0.7
	c0.5-1.5,1.7-2.8,3.2-3.5l5.7-2.5l0.3-0.1c0.9-0.4,1.8-0.6,2.7-0.6c1.5,0,2.9,0.6,4,1.5c0-0.5,0.1-0.9,0.3-1.3
	c0.5-1.5,1.6-2.8,3-3.5l0.4-0.2c0,0,0.1,0,0.1,0l5.2-2.5l0.4-0.2c0.9-0.4,1.8-0.6,2.7-0.6c2,0,3.9,1,5.1,2.8
	c-0.6-2.6,0.6-5.5,3.2-6.7l0.4-0.2c0.1,0,0.2-0.1,0.3-0.1l5.2-2.2l0.3-0.1c0.9-0.4,1.8-0.6,2.7-0.6c2,0,3.9,1,5.1,2.8
	c-0.1-0.9-0.1-1.9,0.2-2.8c0.5-1.5,1.6-2.8,3-3.5l0.4-0.2c0.1-0.1,0.3-0.1,0.4-0.2l5.1-2.1l0.2-0.1c0.9-0.4,1.8-0.6,2.7-0.6
	c1.9,0,3.7,0.9,4.8,2.4c-0.1-2.3,1.1-4.6,3.3-5.7l0.4-0.2c0.2-0.1,0.3-0.2,0.5-0.2l5.1-2l0.2-0.1c0.8-0.4,1.8-0.6,2.7-0.6
	c0.6,0,1.3,0.1,1.9,0.3c1.2,0.4,2.2,1.1,2.9,2.1c0-2.2,1.2-4.4,3.3-5.5l0.4-0.2c0.2-0.1,0.5-0.2,0.8-0.3l5.9-2
	c0.6-0.2,1.3-0.3,1.9-0.3c1,0,2,0.2,2.9,0.7c0.8,0.4,1.4,1,2,1.7c0.3-2.5,2.2-4.7,4.8-5.2l0.5-0.1c1-0.2,2-0.5,3-0.7
	c0.8-0.2,1.6-0.4,2.4-0.6l0.3-0.1c0.5-0.1,1-0.2,1.5-0.2c2.1,0,4.1,1.1,5.2,2.9c0.4-2.4,2.2-4.5,4.8-5l0.5-0.1c0.1,0,0.2,0,0.2,0
	c1.7-0.3,3.7-0.6,5.6-0.8l0,0c0.5-0.1,1-0.2,1.5-0.2c1.1,0,2.1,0.3,3.1,0.9c1.4,0.8,2.3,2.1,2.7,3.7l0.1,0.4c0,0,0,0,0,0
	c0.1-1.2,0.6-2.4,1.4-3.3c1.1-1.3,2.8-2.1,4.6-2.1h0.5c1.1-0.1,2.1-0.1,3.1-0.1c1,0,2,0,3.1,0.1h0.3c2.1,0,4,1.1,5.1,2.8
	c0,0,0.1-0.1,0.1-0.1c1.1-1.3,2.8-2.1,4.5-2.1c0.3,0,0.6,0,0.8,0.1l0.7,0.1c2.3,0.3,4.6,0.8,6.5,1.2c0.2,0,0.5,0.1,0.7,0.2l0.3,0.1
	c1.2,0.4,2.2,1.1,2.9,2.1c0.7-0.3,1.4-0.4,2.1-0.4c0.6,0,1.2,0.1,1.7,0.3l1,0.3c0.1,0,0.1,0,0.2,0.1c1.9,0.6,4.1,1.4,6.4,2.4l0,0
	c1.7,0.6,3,1.8,3.6,3.4c0.3,0,0.6-0.1,0.9-0.1c1.2,0,2.4,0.4,3.4,1.1l0.9,0.6c2.3,1.4,4.5,3.1,6.9,5.1c0.1,0.1,0.2,0.2,0.4,0.3
	l0.2,0.2c1.1,1.1,1.8,2.7,1.8,4.2v0.2c0,0,0,0,0,0c0.2,0,0.3,0,0.5,0c1.7,0,3.4,0.7,4.5,2l0.7,0.8c0.1,0.1,0.1,0.1,0.2,0.2l0.4,0.5
	c0.9,1.1,1.9,2.3,2.8,3.5c0.2,0.3,0.4,0.5,0.5,0.8l0.1,0.2c0.3,0.7,0.5,1.4,0.6,2.2c1,0.5,1.8,1.3,2.4,2.3l0.6,1l0.3,0.5
	c0.1,0.1,0.1,0.2,0.2,0.2c0.9,1.4,1.3,2.2,2.2,3.9c0.6,0.8,0.9,1.7,1,2.7c0.6,0.5,1.1,1.2,1.5,2l0.8,1.7c0,0,0,0,0,0.1l0.5,1
	c0.6,1.2,1.1,2.5,1.5,3.6l0.3,0.7c0.3,0.7,0.4,1.4,0.4,2.2v0.1v0.1c0,0.2,0,0.5,0,0.7c0.6,0.6,1,1.2,1.3,2l0.7,1.8
	c1.5,3.9,1.8,7.2,1.4,9.8c0.4,0.9,0.6,2,0.5,3.1c-0.2,2-0.4,4.5-0.5,5.1c0,0.1,0,0.2,0,0.3l0,0.1c-0.1,1.4-0.2,3.3-1,5.9
	C496.4,324.2,495.9,325.2,495.2,326z M577,104.4c-10.7,4-120.7,44.4-142.3,52.6c-6.9,2.6-12.4,8.2-14.7,15l-2,5.8l36.3-2.2
	c4.2-0.3,7.6-0.5,10.8-0.4c24.3,0.5,40.1,9.1,48.4,15.3l-89.1,9.6l-27.3,26.6h-3.4c-12.5,0-26.9,2-41.9,5.5
	c-17.3,4.1-35.5,10.2-52.2,18c-15.6,7.3-38.4,19.3-56.3,37c-1.5,1.5-3,3.1-4.5,4.7c-2.6,2.8-5,5.7-7.3,8.7
	c-3.2,3.9-7.9,11.5-10.6,16.8l-0.4,0.9l0.2-0.4c-0.2,0.5-0.5,1-0.7,1.5c-3.8,7.9-6.7,16.1-8.7,24.6c-0.3,3.3-0.7,9.4,0.2,17.4
	c1.5-13.9,5.6-27.4,12.1-39.8c0.4-0.5,0.7-1.1,1-1.7c2.4-4.3,5.1-8.5,8.1-12.4c2.3-3,4.8-5.9,7.4-8.7c-0.6,3-1.5,7.8-2.2,13.8
	c0,0.2-0.1,0.5-0.1,0.7c-0.1,10.5,1.6,19.9,3,27.8c5.6,35.4,18.1,58.4,39.9,74.8c7.7,5.8,17.6,8.4,23.6,8.4c9,0,18.6-9,23.8-13.8
	l1.2-1.1c0.3-0.2,26.6-24.8,35-32c21.1-18.3,40.6-27.6,57.8-27.6c5,0,11.2,1.1,17.5,3.3c2.1,0.7,4.3,1.5,6.4,2.3l0.8,0.3
	c-0.3,0-0.6,0.1-0.9,0.1l-1.6,0.5l-13.9,6c-0.2,0.1-20,9.5-38.6,30.1c-7.5,8.4-15.6,17.7-25.1,28.4c-5.7,7.1-12.4,15.5-15.2,19.1
	c-1.1,1.5-1.4,2-1.6,3.1v0.2c-0.1,1.7-0.2,3.6-0.4,5.5h8.8L343.6,497c-1.4,3.9-1.2,7.4,0.4,9.6c1.1,1.5,2.9,2.3,5.2,2.3
	c1.9,0,4.1-0.6,6.3-1.7c0.1,0,0.2-0.1,0.3-0.1c2.2-2.5,3.9-5.4,4.9-8.2l11-35.4c0.9-2.9,3.7-7.3,8-9.8c0.8-0.4,1.5-0.8,2.3-1.2
	c0.1-0.1,0.2-0.2,0.3-0.3c2.4-2.2,5.6-3.5,8.6-3.5h21.2l-0.5,1.5c7.3-2.6,14.9-3.1,21.6-1.3c5.7,1.6,10.6,4.8,13.9,9.1
	c6.4-4.6,13.1-7.8,19.4-9.2c8.2-1.8,15.6-0.8,21.5,3c10.2,6.6,13.4,20,8.6,36l-4,13.2c-0.8,2.7-0.9,5.1-0.2,6
	c0.4,0.6,1.5,0.7,2.1,0.7c3,0,6.5-1,9.7-2.8l0,0c1.9-2.1,3.3-4.4,4-6.7l10.5-34.7c0.6-2.2,1.6-5.7,4.5-8.5c2-2.1,4.8-3.9,8.8-4.6
	l0.4-0.2c1.9-1,4-1.6,6-1.6h21.2l-15.9,52.2c-0.7,2-0.5,3.8,0.3,4.9c0.8,1.2,2.6,1.9,5,1.9h23.5l-7.9,25.7l-0.2,0.3l-5.1,4.8H540
	c-8.9-0.1-17.5-3.5-23.5-9.4c-10.8,5.9-20.8,8.8-29.8,8.8c-5.9,0-11.1-1.3-15.5-3.8c-4.8-2.7-6.9-5.3-8.7-7.6
	c-6.2-8.3-7.6-19.6-4-31.7l3.3-10.8c0.9-3,0.8-5.5-0.4-6.6c-1.2-1.1-3.6-1.2-6.1-0.1c-0.2,0.1-0.3,0.2-0.5,0.2
	c-2.9,2.5-5.1,5.7-5.9,8.6v0.1l-13.3,43.7l-0.4,0.2l-6.1,5h-31.4l15.5-51.1c0.9-3,0.8-5.5-0.4-6.6c-1.2-1.1-3.4-1.1-5.9-0.1
	c-2.9,2.5-5,5.4-5.7,8l-13.6,44.6l-0.2,0.2l-6.6,5h-28.2c-3.5,1.1-7.1,1.9-10.7,2.3v0.1c1.3,25.6,9.7,42.5,10.1,43.2l2.3,4.3
	l8.1,14.7c0.1,0.1,0.2,0.1,0.3,0.2c-0.1,0-0.1,0-0.2-0.1l0.2,0.4l-0.2-0.1c-0.2-0.1-0.3-0.3-0.5-0.4c-3.3-0.9-9.4-2.7-15.1-4.6
	c-2.6-0.9-4.4-1.8-4.5-1.8c-1.5-0.5-9.2-4-16.3-13.9c-8-11.1-13-26.5-16.3-49.8c0,0-0.1,0-0.1,0.1c-7.8,5.4-16,8.2-24.5,8.2
	c-5.9,0-11.3-1.4-16-4.2c-3.3-2-6.2-4.6-8.4-7.7c-3.1,2.7-6.7,5.1-9.8,6.6c-5.1,2.7-10.5,3.9-17.1,3.9c-8.6,0-20.7-4.6-27.2-13.5
	c-5.9-8-7.4-18.3-4.2-28.8l9.3-30.5c0.6-2,1.8-4.2,3.9-6.3c1.9-2.1,4.2-3.7,6.8-4.9c2.5-2.2,5.8-3.6,8.9-3.6h21.2l-15.4,50.6
	c-0.7,2-0.5,3.8,0.3,4.9c0.8,1.1,2.6,1.8,5,1.8c3.5,0,7.2-1.3,10.8-3.4c0.9-7.2,3.4-14.6,7.2-21.5c3.9-7.1,9.3-14.1,16.8-19.8
	c2.3-1.8,4.7-3.5,7.3-5c0.3-0.2,0.5-0.4,0.8-0.6c0.6-0.5,1.1-0.8,1.8-1.2c-15-2-28.5-5.3-40.4-9.3c-2.3,1.3-4.9,2-7.6,2
	c-6.9,0-13-4.6-14.9-11.3c-5-2.4-10-4.9-14.7-7.8c-0.1,0.2-0.2,0.3-0.3,0.7l-26.8,86.3c-0.8,2.6-1.3,4.5-1.5,6.3
	c-0.4,2.8-0.4,4,0.1,7c0.4,2.1,0.9,3.9,1.7,6.6v0.4l-5,5H135l0.3-0.9l17.5-56.3l1.4-4.4l-0.1-0.2l-38.3,51.5l-0.1,0.2l-4.3,3.3
	l-13.1-62l0-0.2l-10.8,35.3c-1,3.2-3.4,11.5-8.3,19.3c-1.1,2-2.5,4.6-3.3,5.9c-6,10.1-17.8,16.4-35.2,18.9
	c-6.1,0.9-11.9,1.1-16.3,1.1c-5.1,0-8.4-0.3-8.5-0.3l-2-0.2l1.7-1.1c0.3-0.1,22.8-14,28.3-31.3l32.3-104c1.5-5.7,1.7-10.3,0.7-13.8
	c-0.1-0.5-0.3-1.1-0.6-1.6l-0.1-0.2l4.8-4.8l-0.1-0.1h38.7l11.8,56.1h0.1l14.9-19.8c0.1-0.1,0.1-0.2,0.2-0.3
	c12.3-14.4,20.6-22.5,30.1-28.7c-5.2-6.1-9.7-12.5-13.6-19.5l-0.2-0.2c-22.2-35.4-33.2-91.6-15-145.1c-37.7,1.9-62.7,6.4-64.3,6.7
	c24.4-12.4,49.2-21.4,73.1-27.8c11.3-22.5,28.6-44,53.2-62.4c8-5.9,18-11.9,25.4-16.3c1.2-0.7,6-3.7,7.2-4.4l0.1-0.1
	c15.6-10.6,25.4-19.7,31.6-30.8c10.3-18.5,11.6-41.8,11.4-50.6c-0.4-20.4,1.6-32.4,4.3-41.6c0.9-3.3,1.9-6.5,3-9.8
	c2.4,2.1,4.7,4.2,8.5,8.1c35.1,38.2,58,78.4,71,105.3l0.9,1.8c0,0,14.4,2.2,28.2,8.7l1.1,0.5l1.2-0.1c4.2-0.5,12.8-1.4,23.2-1.4
	c1.9,0,3.7,0,5.6,0.1h0.4l152.9-27.6L577,104.4z M288.4,504.5c0.6,1.6,1.6,2.7,2.9,3.3c3.4,1.6,9.2-0.2,14.3-4.1l0.2-0.7
	c-1.7-11.1-2.9-19.2-3.5-22.9L302,478l0.1-0.4c-1.2,0.4-2.3,0.9-3.6,1.5c-0.1,0.1-0.2,0.2-0.3,0.3c0,0-0.1,0.1-0.2,0.2
	c-3.3,3.1-6.2,7-8,11C287.7,495.8,287.1,501,288.4,504.5z M540.1,415.6c-1,0.9-1.9,1.8-2.7,2.9c-0.1,0.1-0.1,0.1-0.1,0.2
	c-0.1,0.1-0.2,0.2-0.4,0.3c-4.1,2.9-6.6,7.6-6.6,12.7c0,8.6,6.9,15.5,15.5,15.5c3.8,0,7.5-1.4,10.3-3.9l0.7-0.7
	c5.9-2.4,9.7-8.2,9.7-14.6c0-8.9-7.2-16.1-16.1-16.1C546.6,411.9,543,413.2,540.1,415.6z"/>
<path id="Black" d="M312.2,313.1l0.1,0.4l-0.4,0.2l-5.8,2.4l-0.1-0.5c-2.7-9.3-8.9-13.4-9-13.5l-1.6-1l-0.3-0.2l0.1-0.3l0.3-1.9
	c1.3-7.6-2.1-14.9-2.1-14.9l-0.2-0.4l0.4-0.2l5.2-2.5l0.4-0.2l0.2,0.4c0.2,0.3,3.8,8,3,16.9C305.1,300,309.7,304.9,312.2,313.1z
	 M255.4,314.5L255.4,314.5c-0.4-8.5-1.6-13.7-1.6-13.7l-0.1-0.5l-0.5,0.2l-5.5,2.1l-0.4,0.1l0.1,0.4c0,0,1,5.7,1.3,13.3v0.9v0.2
	l0.1,0.1l0.5,0.7c0.1,0.1,5.6,7,8.4,16.7l0.1,0.5l6.5-2.5l-0.1-0.4C261.7,323.3,257,316.5,255.4,314.5z M271,310
	c-0.1-5.1-1.4-11.1-2.4-15.3l-0.1-0.5l-0.5,0.2l-5.5,2.3l-0.4,0.2l0.1,0.4c1,4.2,2.3,10.2,2.2,14.7v1.3v0.2l0.2,0.1l0.9,0.8l0,0
	c0.1,0,5.7,4.9,8.4,14.1l0.1,0.5l6.4-2.6l-0.1-0.4C277.7,317.4,273.1,312,271,310z M318.4,291.3c1.7-9.1-1.8-17.4-2-17.7l-0.2-0.4
	l-0.4,0.2l-5.3,2.3l-0.4,0.2l0.2,0.4c0,0.1,3.3,7.8,1.1,15.5l-0.6,2.2l-0.1,0.4l0.3,0.2l1.9,1.1c0.1,0,6.3,3.8,8.5,13.5l0.1,0.5
	l6.3-2.4l-0.1-0.4C325.7,298.4,321.1,293.5,318.4,291.3z M334.5,285.4c2.6-9.4-0.9-18.2-1-18.5l-0.2-0.4l-0.4,0.2l-5.3,2.2l-0.4,0.2
	l0.2,0.4c0,0.1,3.3,8.3,0.2,16l-1,2.4l-0.2,0.4l0.4,0.2l2.3,1.2c0.3,0.1,6.3,3.6,8,13.3l0,0l0.1,0.5l6.4-2.3l-0.1-0.4
	C341.6,292.4,337.2,287.6,334.5,285.4z M350.6,279.8c3.5-9.6,0-18.9-0.1-19.3l-0.2-0.4l-0.4,0.2l-5.4,2.1l-0.4,0.2l0.2,0.4
	c0,0.1,3.3,8.8-0.8,16.6l-1.4,2.6l-0.2,0.4l0.4,0.2l2.7,1.3c0.1,0,6.2,3.2,7.5,13l0,0l0.1,0.5l0.5-0.1c0,0,4.1-1.2,5.7-1.8l0.4-0.1
	l-0.1-0.4C357.6,286.6,353.2,281.9,350.6,279.8z M426.3,267.1c0,0.1,4.8,6,3.8,14.8l-0.1,0.5h0.5c1.9,0.1,3.8,0.4,5.7,0.7l0.5,0.1
	l0.1-0.5c0.9-7.9-1.7-14-3.5-17.2c5.8-6.2,5.3-14.1,4.8-17.2l0,0V248l-0.3-0.1c-2-0.4-4.1-0.8-6.2-1.1l-0.7-0.1l0.2,0.7
	c0.6,2.3,2.2,10-4.2,14.9l-2.4,1.8l-0.4,0.3l0.3,0.4L426.3,267.1z M464.7,276.6l0.1,0.4l0.6,2.2c0,0.1,1.8,7.2-3.6,14.9l-0.2,0.3
	l0.3,0.3c1.3,1.2,2.5,2.5,3.7,3.9l0.4,0.5l0.4-0.5c5.6-7.4,5.9-14.7,5.6-18.5c4.3-3.7,4.5-5.6,4.6-6.8v-0.2v-0.2l-0.1-0.2
	c-0.8-1.1-1.7-2.2-2.6-3.3l0,0l-0.4-0.5l-0.7-0.8l-0.2,1c-0.1,0.4-0.2,0.9-0.3,1.3c-0.8,2.2-2.4,3.9-5.1,5l-2.1,0.9L464.7,276.6z
	 M472.3,287.9l0.2,0.5c0,0,0.7,1.5,0.9,2.3c0.2,0.8,1.9,5.6-4.6,11.6l-0.3,0.3l0.2,0.3c0.9,1.3,1.7,2.8,2.4,4.2l0.3,0.5l0.5-0.4
	c7.2-6.1,7.8-12.5,7.4-15.9c2.4-1.5,3.7-3.9,4-7.5v-0.1l-0.1-0.1c-1-1.9-1.4-2.6-2.3-4.1l0,0l-0.4-0.6l-0.7-1.2l-0.1,1.4
	c-0.4,4.3-0.9,6.2-4.6,7.8L472.3,287.9z M441,267.8c0.1,0.3,3.5,7.2,0.4,15.8l-0.2,0.5l0,0l0.5,0.1c1.9,0.5,3.8,1,5.5,1.7l0.5,0.2
	l0.2-0.5c2.1-6,2.2-12.5,0.1-18.6c2.1-2.7,4.8-7,4.4-13.5v-0.4V253v-0.3l-0.3-0.1c-2-0.9-4-1.6-6.1-2.3l-1-0.3l0.1,0.8
	c0.2,1.1,0.3,2.3,0.4,3.3c0.2,3.6-1.3,7.5-3.8,9.6l-1.7,1.5l-0.3,0.2l0.2,0.3L441,267.8z M453.8,272.4c0.1,0.3,2.4,7.4-1.6,15.2
	L452,288l0,0l0.4,0.2c1.7,0.9,3.4,1.9,4.9,2.9l0.4,0.3l0.3-0.5c2.9-5.6,3.9-11.9,2.8-18.1c2.4-1.8,4.2-4.4,5-7.3
	c0.3-1.1,0.5-2.2,0.5-3.4v-0.2l-0.2-0.2c-2-1.7-4.1-3.3-6.3-4.7l-1-0.7l0.3,1.2c0.6,2.4,0.6,4.5,0.1,6.2c-0.5,2-1.8,3.4-3.9,4.5
	l-2.2,1.2l-0.4,0.2l0.1,0.4L453.8,272.4z M286.3,303.7c0.3-8-2.3-14.7-2.9-16l-0.2-0.4l-0.4,0.2l-5.8,2.6l0.2,0.4
	c0,0.1,3.1,6.9,2.3,14.6l-0.1,1.6v0.3l0.2,0.2l1.2,0.9c0.1,0,6.1,4.7,8.7,14.1l0,0l0.1,0.5l6.3-2.6l-0.1-0.4
	C293.4,311,288.5,305.7,286.3,303.7z M476.2,363l-9.5,5.5l-0.3,0.2c0,0-0.1,0.4-0.3,0.7c-0.8,1.8-1.6,3.5-2.6,5.1l-0.6,1.1l1.2-0.4
	c2.9-0.9,5.8-2.1,8.5-3.5l0.1-0.1l0,0l0.1-0.1c1.5-2.6,2.9-5.2,4.1-8l0.6-1.3L476.2,363L476.2,363z M460.6,379.4h-0.2l-0.1,0.2
	c-1.7,2.4-3.5,4.7-5.4,7l-0.8,1l1.2-0.2c2.1-0.3,4.2-0.7,6.2-1.3h0.1l0,0l0.1-0.1c2.4-2.6,4.7-5.3,6.7-7.9l1-1.3l-1.5,0.6
	C465.4,378.3,462.9,379,460.6,379.4z M473.2,355.5l-0.2,0.1l-0.1,0.2c-0.8,1.8-1.5,3.5-2.3,5.1l-0.5,1.1l1.1-0.4
	c0.5-0.2,4.6-1.7,8-3.4l0.2-0.1l0,0l0.1-0.2c1-2.5,2.5-6.8,3.6-10C481.9,350.1,479,353.3,473.2,355.5z M480.1,340.4l-0.3,0.1v0.3
	c0,0.1,0,2.4-2.2,4.2c-0.3,0.2-0.6,0.4-0.8,0.6l-0.2,0.1l-0.1,0.2c-0.5,1.6-1,3.2-1.6,4.8l-0.4,1.2l1.1-0.6c2.7-1.6,7.2-4.7,7.7-8.5
	c0.4-0.2,1.2-0.7,2.2-1.4l0,0l0.1-0.1v-0.2c1-3,1.7-5.9,2.5-8.8l17.1,2.9l-17.7-3.3C486.2,334.5,483.2,339.2,480.1,340.4z
	 M490.7,315.2c-1.1,3.2-2.5,4.9-4.3,5.4c-0.3,0.1-0.6,0.1-0.8,0.1H485l0.1,0.5c0,0.3,1,6.9-6,11.4l-0.2,0.1v0.2
	c-0.1,1.1-0.2,2.3-0.4,3.7l-0.1,1l0.9-0.5c1.3-0.8,2.4-1.6,3.5-2.5c3.9-3.3,6-7,6.1-10.9c0.3-0.3,1.1-0.8,1.8-1.7l0,0l0.1-0.1v-0.1
	c0.7-2.1,0.8-3.6,0.9-5c0-0.5,0.5-5.5,0.5-5.5L490.7,315.2z M366.6,274.7c4.3-9.5,1.3-19,0.9-20.1l-0.1-0.4l-5.9,2l-0.4,0.2l0.2,0.4
	c0,0.1,3.2,9.3-1.8,17.2l-1.8,2.8l-0.3,0.5l0.5,0.2l3,1.4c0.2,0.1,6.3,3.2,7.1,13.2l0,0v0.6l0.6-0.2c1.9-0.6,3.7-1.2,5.6-1.7
	l0.4-0.1v-0.4C373.4,281.7,369.2,276.9,366.6,274.7z M451.1,390.9h-0.2l-0.1,0.1c-2.3,2.4-4.7,4.6-7.2,6.8l-1.1,0.9l1.4-0.1
	c1.2-0.1,2.6-0.2,4-0.4l0,0h0.1l0.1-0.1c2.8-2.2,5.5-4.4,8.1-6.8l1.1-1l-1.5,0.2C454.2,390.8,452.6,390.9,451.1,390.9z M382.5,270.5
	c4.7-8.4,3.2-17,2.3-20.3l-0.1-0.4l-0.4,0.1c-1.8,0.4-3.7,0.9-5.6,1.3l-0.5,0.1l0.1,0.5c0.6,2.3,2.3,10.4-2.9,17.4l-1.8,2.5
	l-0.3,0.4l0.4,0.3l2.5,1.7c0.1,0,6,4.1,7,13.6l0,0l0.1,0.6l0.5-0.1c1.9-0.5,3.8-1,5.6-1.4l0.4-0.1l-0.1-0.4
	C388.8,278,384.9,272.9,382.5,270.5z M399.1,267.1c5.3-8.4,4-17.5,3.4-20.1l-0.1-0.4l-0.4,0.1c-1.8,0.2-3.8,0.5-5.7,0.8l-0.5,0.1
	l0.1,0.5c0.2,1,2.1,10.3-4,17.6l-2.4,2.9L389,269l0.6,0.3l3.4,1.6c0.1,0,5.9,3,5.5,13.1v0.5c0,0,4.6-0.6,6.3-0.9l0.4-0.1V283
	C405.2,274.7,402,269.8,399.1,267.1z M414.9,282.5L414.9,282.5L414.9,282.5L414.9,282.5z M414.9,282l-0.1,0.6h0.6
	c1.9-0.1,3.9-0.2,5.8-0.3h0.4v-0.4c0.7-8.3-2.5-13.8-4.6-16.5c5.2-6.7,4.9-14.7,4.3-18.9l-0.1-0.4h-0.4c-2-0.1-3.9-0.1-5.9,0h-0.6
	l0.1,0.6c0.5,2.4,1.6,10.7-4.4,16.4l-2.5,2.3l-0.4,0.4l0.4,0.3l2.7,2.1C410.7,268.1,416,272.5,414.9,282z M441.2,402
	c-0.8,0-1.6,0-2.3-0.1h-0.2l-0.1,0.1l-0.2,0.1l-0.2,0.1c-7.1,5.5-19,12.8-28.1,17.5c3.1-1.2,18.4-7.6,31.8-16.9l1.3-0.9h-1.5
	L441.2,402z M481.8,296.3l-2,0.4l-0.4,0.1v0.4l0.1,2c0,0.1,0.1,6.1-6.1,12.2l-0.2,0.2l0.1,0.3c0.6,1.5,1.2,3.2,1.7,4.9l0.2,0.7
	l0.6-0.5c7-6.1,8.9-12.5,9.3-16c1.5-0.8,3.1-3,3.1-6.6v-0.1v-0.1c-0.5-1.3-1-2.7-1.6-3.9l0,0l-0.5-1.1l-0.8-1.7l-0.2,1.8
	C485,292.3,484.2,295.8,481.8,296.3z M485.9,308.4h-2.1v0.4l-0.1,2.1c-0.1,0.8-0.4,5.8-7,10.5l-0.3,0.2l0.1,0.3c0.4,1.6,0.7,3,1,4.5
	l0.1,0.7l0.6-0.4c7.4-4.5,9.7-10.3,10.5-13.5c0.7-0.3,1.6-1.2,2.2-2.5c0.9-1.8,1.5-4.9-0.3-9.6l-0.7-1.8l-0.2,1.9
	c-0.4,3.1-1.1,5.4-2,6.5C487.2,308,486.4,308.4,485.9,308.4z M561.6,428c0-6.1-5-11.1-11.1-11.1s-11.1,5-11.1,11.1s5,11.1,11.1,11.1
	S561.6,434.2,561.6,428z M243.7,439.2c6.1,0,11.1-5,11.1-11.1s-5-11.1-11.1-11.1s-11.1,5-11.1,11.1
	C232.6,434.2,237.5,439.2,243.7,439.2z M337.1,453.7c-3.1,0-6.3,2.3-7.6,5.3c-1.8-1.8-3.9-3.2-6.1-4.3c-7.6-3.7-17-3.5-26.7,0.5
	c-9.5,4-18.1,11.3-24.2,20.6c-4.9,7.5-7.8,15.6-8.3,23.5c-5.1,6.9-14.1,11.7-21.7,11.7c-4,0-7.2-1.4-9-3.9c-1.8-2.4-2.2-5.7-1.1-9.3
	l13.4-44.2h-14.5c-3.3,0-6.8,2.7-7.8,6l-11.1,36.2c-2.4,7.8-1.4,15.3,2.9,21.1c4.6,6.2,12.6,9.8,22.1,9.9h0.2c10.2,0,21-4,29.6-11
	c2.1,4.3,5.2,7.6,9.2,10c4.1,2.4,8.8,3.6,13.7,3.6c9.5,0,19.9-4.3,28.9-12.2c3.6,6,9.5,9.8,16.9,10.8c8,1.1,17.8-1,28.4-6.1
	l-0.9,3.1h20.5l12.2-40v0.1l0.3-1c1.5-5.8,7.5-12.1,14-14.8c4.7-1.9,9.2-1.6,12,1s3.5,6.9,1.9,12.1l-13,42.6h20.5l12.2-40.1
	c1.6-6.1,7.5-12.6,13.7-15.1c5.1-2.1,10.2-1.7,13.1,1s3.4,7.2,1.5,12.9l-3.8,12.3c-2.8,9.4-1.9,17.9,2.6,23.9
	c4.2,5.6,11.3,8.7,19.9,8.7c13.5,0,23.9-5.7,30.3-10.5c4.5,6.6,12.7,10.4,22.4,10.4h17.2l4.7-15.9h-16.8c-4,0-7.2-1.4-9-3.9
	c-1.8-2.4-2.2-5.7-1.1-9.3l13.9-45.8H538c-3.3,0-6.8,2.7-7.8,6l-10.5,34.7c-3,9.7-14.7,18.2-25.1,18.2c-2.6,0-4.8-1-6.1-2.7
	c-1.7-2.3-1.9-5.9-0.5-10.4l4-13.1c4.2-13.7,1.7-25.1-6.5-30.5c-9.9-6.4-25.5-2.7-39.7,9.5c-2.2-5.7-6.9-9.8-13.4-11.6
	c-9.2-2.6-20.2-0.1-28.9,6.6l2-6.7H391c-3.3,0-6.8,2.7-7.8,6l-10.9,35.5c-3.4,10.3-13.7,18.6-23,18.6c-3.9,0-7.2-1.6-9.2-4.4
	c-2.5-3.5-2.9-8.6-1.1-14.1l12.7-41.8L337.1,453.7L337.1,453.7z M317.9,497.1c-0.6,0.9-1.1,1.8-1.7,2.6c-7.6,10.5-19.4,16-26.9,12.6
	c-2.5-1.1-4.4-3.2-5.5-6.1c-1.8-4.8-1.2-11.3,1.8-17.7c5.4-11.9,16.5-20.4,25.7-20.4c1.2,0,2.3,0.1,3.4,0.4
	c5.1,1.3,8.1,5.6,8.3,11.7L317.9,497.1z M224.9,393.6c-0.4,0-0.8,0-1.1,0c-8.4,0-20.9,1.5-33.5,8.5c-10.3,5.9-18.6,13.5-31.7,29.1
	c-7.4,9.7-28.4,37.9-28.4,37.9l-14.6-69.5H87.3l0.1,0.4c0.6,2.5,0.7,5.4,0.3,8.8c-0.4,3.3-1.1,6.2-2.2,9.9
	c-0.3,1-29.9,96.9-31.9,102.7c-3.3,9.6-8.2,15.7-11.7,19.2l-0.7,0.7l1-0.1c19.7-2.1,26.6-9.7,28.9-12.3c7.3-8.1,10.7-19.7,11.8-23.5
	l19.4-63.5l16.2,76.6l57.8-77.6l-27.5,88.9l-0.1,0.4h27.9l-0.1-0.4c-0.6-2.5-0.7-5.3-0.3-8.8c0.3-2.1,0.8-4.3,1.7-7.1l26.8-86.3
	c4.6-14.7,11.3-25.6,20.6-33.5l0.7-0.6L224.9,393.6L224.9,393.6z M312.5,480.4l-4.3,14.5c-0.2-1.9-0.5-3.8-0.9-5.5
	c-0.7-4.7-1.4-8.7-2.1-12.3c2.4-0.3,4.3,0,5.5,0.7C311.8,478.4,312.4,479.3,312.5,480.4z M299.9,204.3c-19.1-2.7-51.3-3.8-89.4,1.2
	c31.5-35.2,79.1-55.5,132-62.2c-1,0.1-2.1,0.1-3.1,0.1c-45,1.4-86.6,13.6-116.5,36.1c-4.7,3.6-9.3,7.5-13.6,11.6
	c-5.2,5.2-10,10.8-14.4,16.7c-9.5,1.6-18.9,3.5-28.9,5.9l-0.4,0.1c5.8-10.6,12.7-20.5,20.7-29.5c11.4-13,25.3-24.9,41.8-35.2
	l0.2-0.1c4.5-3,9.1-5.8,13.8-8.6c6-3.5,15.9-8.9,27.9-21.7c2-2.1,3.8-4.3,5.4-6.7c6.2-9.2,7.2-12.3,8.1-13.9
	c7.8-18,8.8-35.1,8.7-50.4v-2.5c-0.1-2.6-0.1-5.1,0-7.6c0.2-8.3,0.9-16.7,4.1-26.1c2.1,2.2,4.1,4.4,6,6.6
	c7.6,8.6,14.7,17.5,21.5,26.7c5.6,7.5,10.9,15.3,16,23.2c0.7,1.1,1.3,2.1,2,3.2c0.9,1.3,1.7,2.6,2.5,3.9c9,14.6,17.2,29.8,24.6,45.4
	c3,0.6,5.7,1.1,8.2,1.7c13.9,3.2,20.8,6.7,24.4,8.5c0,0,14.3-2.2,31.9-1.6l5-0.9l17.1-3.1l102.9-18.5c0,0-103.3,37.8-126,46.4
	c-22.7,8.6-22.2,30-22.2,30l1.7-0.1l42.7-2.6c5.5-0.3,11.1-0.4,16.6-0.1c0.1,0,0.2,0,0.3,0c1.1,0,2.1,0.1,3.1,0.2
	c0.5,0,1,0.1,1.5,0.1c3.6,0.4,7.1,0.9,10.6,1.7c0.2,0,0.4,0.1,0.6,0.1c9.3,2.2,12.9,5.1,12.9,5.1l-80.1,8.6l-25.3,24.6l-0.1,0.1
	h-0.1c-55.4-0.4-162,34.6-181.1,110.5c-0.9,3.5-1.6,7-2,10.1c0,0.1-0.2,1-0.3,2.5c-0.3,3.3-0.6,9.6,0.3,17.6
	c1.5-13.9,5.6-27.4,12.1-39.8c0.4-0.5,0.7-1.1,1-1.7c2.4-4.3,5.1-8.5,8.1-12.4c2.3-3,4.8-5.9,7.4-8.7c-0.6,3-1.5,7.8-2.2,13.8
	c-0.3,1.8-0.4,3.8-0.6,5.8c-0.9,9.7-1.1,22.1,1.2,35.5c10.1,54.2,48.8,72.1,51.9,73.3c13.6,5.8,23.5,1.5,25.9-0.3
	c3.6-2.3,7.6-5.4,11.2-8.6l22-19.4c1.8-1.6,13.6-11.8,16.6-14.4l3.1-2.7c2.3-2,4.7-3.9,7.1-5.8c4.1-3.2,8.4-6.2,12.9-9
	c0.7-0.4,1.3-0.8,2-1.2c11.2-6.5,20-9,26.3-9.8c9.3-1.2,14.4,1.7,14.4,1.7l-1.7,0.7l-0.9,0.4l-0.2,0.1c-0.2,0.1-0.6,0.3-1.1,0.5
	c-0.3,0.1-0.6,0.2-0.9,0.4c-3.7,1.8-12.2,6.2-22.1,14.1c-1.3,0.9-2.6,2.1-4.1,3.4c-7.5,6.8-17.3,17.7-18.1,18.6
	c-16.3,17.5-35.7,42.3-35.9,42.6c-1.4,1.9-1.9,3.1-2.3,4.8c-0.1,0.5-0.2,1.1-0.2,1.6c-0.1,0.9-0.1,2.3-0.3,3.9h-7
	c-2.9,0-5.9,1.2-8.4,3.3c-1.1-0.7-2.1-1.3-3.2-1.8c-8.8-4.3-19.8-4.2-30.7,0.4c-2.4,1-4.7,2.2-7,3.6c-0.2,0.1-0.3,0.2-0.5,0.3
	c-15.1-2-28.6-5.3-40.5-9.3c0.9-0.5,1.8-1.2,2.6-1.9c0.3-0.2,0.5-0.4,0.8-0.6c5.8-2.6,9.5-8.3,9.5-14.6c0-8.9-7.2-16.1-16.1-16.1
	c-3.8,0-7.4,1.3-10.3,3.7c-1.1,0.9-2,2-2.8,3.1c-0.1,0.1-0.2,0.2-0.3,0.3c-5.4,3.8-7.8,10.6-6,16.9c-5-2.4-9.9-5-14.6-7.9
	c4.3-13.2,10.6-23.1,18.7-30.1c4-3.6,6.1-5.3,10.3-8.7c0,0-4.5-0.6-14.9-0.6c-6,0-12,0.7-17.9,2.1l-1.6,0.2c0,0-1.2,0.1-6.7,1.6
	c-5.7,1.5-11.3,3.8-16.5,6.7c-1.4,0.8-2.8,1.7-4.2,2.6c-5.2-6.1-9.8-12.6-13.7-19.6c-24.6-43.6-19.4-94-15.6-115.4
	c0.6-4.2,1.4-8.2,2.4-12.3c1.5-6.1,3.3-12,5.4-17.9c0.3,0,0.7,0,1,0c-0.4,0-0.8,0-1.2,0c-2.4,0.1-4.8,0.2-7.2,0.3
	c-37.7,1.9-62.7,6.5-64.3,6.8c62-20.2,127.2-22.7,175.6-20.6C272.4,215.6,286.3,209.3,299.9,204.3z M379.6,184.8l19.4-1.2
	c2.2-18.8,10.2-23.4,10.2-23.4C383.6,168.7,379.6,184.8,379.6,184.8z M348.1,114.5c-7.9-15.3-22-40.7-41.3-66.9
	c0.1,1.3,0.1,2.5,0.1,3c2.5,36-10.2,62.3-21.3,77.2C302.4,120.6,323.7,114.7,348.1,114.5z M189.1,236.4c0,0-0.1,0-0.1,0
	c-3.5-0.1-7-0.1-10.5-0.1c-8.6,20-12.5,41.5-11.5,64.1c0.5,10.9,2.1,21.7,4.8,32.3C168.9,294.7,175.5,262.7,189.1,236.4z
	 M338.6,558.9c-1.4-7-2.2-14.2-2.4-21.4c-5.6-0.1-10.6-1.9-14.7-4.2c-2.9-1.7-5.5-3.9-7.6-6.5l-0.7,0.4c5.4,28.5,14.6,57.5,35,60.6
	c0,0-1.9-3.5-3-6.3C343.3,577,340.6,569.2,338.6,558.9z"/>
</svg>
