<svg version="1.1" id="Layer_1" xmlns="http://www.w3.org/2000/svg" xmlns:xlink="http://www.w3.org/1999/xlink" x="0px" y="0px"
	 viewBox="0 0 600 600" style="enable-background:new 0 0 600 600;" xml:space="preserve">
<style type="text/css">
	.st0{fill:#FFFFFF;}
</style>
<path id="Outline" class="st0" d="M300,600c165.7,0,300-134.3,300-300S465.7,0,300,0S0,134.3,0,300S134.3,600,300,600"/>
<path id="Orange_Circle" d="M300,18.5C144.8,18.5,18.5,144.8,18.5,300S144.8,581.5,300,581.5S581.5,455.2,581.5,300
	S455.2,18.5,300,18.5"/>
<path id="White" class="st0" d="M541.2,411.2c-0.7,1.4-1.3,2.8-2,4.3c-3.8,7.8-8,15.5-12.5,22.9c-3.8,6.3-7.9,12.3-12.3,18.3
	c-4.5,6.2-9.3,12.2-14.4,18c-3.7,4.2-7.5,8.3-11.4,12.2c-26.1,26.3-57.6,47.2-92.7,60.9c3.3-1.7,5.2-2.6,10.3-8.2l-3.6-0.9
	c-4.5,4.5-9.2,8.7-17.6,12l5-0.8c-3.9,1.4-7.8,2.7-11.7,4l5-4.9l-4.1-1.6c-2,3-5.1,6-11.3,9.5c-21.7,5.8-44.5,8.9-68.1,8.9
	c-74,0-141-30.4-189.2-79.4c-3.9-4-7.7-8.1-11.4-12.3c-4.6-5.3-8.9-10.7-13.1-16.3c-4.3-5.8-8.4-11.9-12.3-18.1
	c-4.3-6.9-8.3-14-11.9-21.4c-0.7-1.3-1.3-2.7-2-4c-8.2-17.1-14.5-35.1-18.9-54c-0.3-1.4-0.6-2.8-0.9-4.3c-0.1-0.5-0.2-0.9-0.3-1.4
	c-3.7-17.6-5.6-35.9-5.6-54.5c0-35.5,7-69.4,19.7-100.4c-0.8,4-0.6,7.4,0.3,11.3c-4.5,4.5-7.6,9.6-9.5,16.7l3.6,2.2
	c1.2-5.8,5.8-13.4,9.7-17.8c-2.8-9.5,1.4-14.8,3.1-21.5l-3-0.8c17.9-39,45-73,78.4-99.2c-1.6,2.9-3.6,6.6-4.4,9.5l3.9-2.5
	c0,0,4.5-7.6,8.9-13.3c8.5-6.1,17.4-11.8,26.7-16.9l-7.3,4.2c-7.2,8.5-8.1,13.9-10.8,20.1l8.4-2.1c1.5-5.3,5.5-16.3,13.1-24.1
	c37.2-19.9,79.7-31.1,124.7-31.1c101.2,0,189.3,56.9,234.2,140.3c0.4,2.6,1.5,9.3-0.4,10.2c0.6,5.2-2.3,11.1-4.3,14.5l2.2,7.5
	c3.5-4.2,6.1-11.8,5.7-16c2.4-1.8,1.3-5.1,1.3-7.6c2,4.1,4,8.3,5.8,12.6c-0.3,1.5-1.3,5.9-3.1,8.1c1,4.9-1.2,9.8-3.3,13.4l2.8,7
	c1.3-0.8,4.9-10.2,4.8-15.3c1.3-1.8,1.7-3.7,2-5.3c1.6,4.2,3.1,8.4,4.6,12.7c-0.3,2.1-0.9,6.2-2.6,7.8c1,4.7-1.2,8-2.6,11.1l2.5,7
	c0,0,4.2-9.3,4.1-12.7c0.7-1.6,1.3-2.5,1.6-3.7c1.4,5,2.8,10,3.9,15.2c-0.9,4.4-3.4,8.5-5.4,12.9l0.5,4.2c0,0,3.3-4.2,6.3-10.1
	c0.6,3.2,1.2,6.3,1.7,9.5c-0.5,1.6-2.9,8.5-4.4,9.5l0.5,3.1c0,0,3-4,4.7-6.8c1.7,11.9,2.5,24.1,2.5,36.6c0,17.8-1.8,35.1-5.1,51.9
	C556.4,372.6,549.9,392.5,541.2,411.2"/>
<path id="Blue_City" d="M296.6,43.4l-1.6,13l-3.6,3.9v27.1l-8.9,6.7v19.5l-5.8,3.9v39.6h-25.1v-30.9h-36.8v30.1l-7.8,3.3v54.6h-26.7
	v-45.7l-2.8-2.8v-24h-2.8l-6.6-25.2c0.2-1.2,0.4-2.7,0.4-4.4c0-3.8-0.7-5.3-1.6-5.3c-0.9,0-1.6,1.5-1.6,5.3c0,1.9,0.2,3.6,0.4,4.8
	l-6.7,24.8h-2.8v24l-2.8,2.8v49.7H124V215c-1.7,6.7-6.1,17.8-3.9,27l-0.7-0.5l2.4,1.7c-6.1,1.7-16.2,10-18.4,16.1l-5.6-4.5
	c2.8-8.3,9.8-10.1,18.1-15.6l-2-1.2c-0.3-8.1-0.3-17.2,4.2-26.7l5.9,3.6v-33.5c0-5-7.3-5.2-7.3-5.2v-8.9l-6.1-1.7l-0.6-3.8l-1.7-0.6
	l-1.7,0.6l-0.6,3.8l-6.1,1.7v8.9c0,0-7.2-0.4-7.2,5.7V230L81,237.7v28.4l-4.5,2.5v21.7l-4.2,2.5v40.4h-0.8H64v-40.1h-1.9l-5-43.6
	l-2.5-0.1l-5.3,43.7h-3.1v32h-6.4c0,0-4,3.4-3.8,5.1c0.9,8.3,2.2,16.4,3.9,24.4c0.1,0.5,0.2,0.9,0.3,1.4c0.3,1.4,0.6,2.9,0.9,4.3
	c4.4,18.8,10.8,36.9,18.9,54c5.8-3.9,11.6-9.3,11.6-9.4l0.7-0.6h15.9l0.6,0.5c49.3,41.2,140.7,58.7,198.5,61.5l-4.1-1.9
	c5.6-3.9,12.8-12.5,13.4-14.7l4.2,5c-2.6,4.1-6.7,8.8-10.4,11.7c3.6,0.1,7,0.2,10.3,0.3c64.6,0.6,164.9-25.9,211.2-66.3l0.6-0.6
	h15.9h0.9l2.1,2.1l9.7,9.4c8.7-18.7,15.2-38.6,19.3-59.3l-2.7-6.2h-12.3V319H532v15.6h-11.1V192h-31.2v72.4h-23.4v-84.7l-4.2-3.6
	v-10L453,162v-12.2h-15.2V162l-9.1,4.1v10l-4.2,3.6v16.7h-22.6v-49H383V124h-12.2v-12.2h-27.9V124h-10v39h-15.1v-45.5l-5.8-3.9V94.2
	l-8.9-6.7V60.3l-3.3-3.9l-1.4-13L296.6,43.4L296.6,43.4z M514.1,404.2c-5.3,4.6-11.4,9-17.9,13.2v57.1h3.9c5-5.8,9.8-11.8,14.4-18
	v-52.4L514.1,404.2L514.1,404.2z M526.7,404.2v34.1c4.5-7.4,8.7-15,12.5-22.8L528.3,405l-0.8-0.8H526.7L526.7,404.2z M86.3,408.7v49
	c4.2,5.6,8.5,11.1,13.1,16.3h5.8v-52.3c-6.6-4.1-12.7-8.4-18.4-13H86.3L86.3,408.7z M74,408.8c-1.6,1.4-6.6,5.9-11.9,9.4
	c3.6,7.3,7.6,14.5,11.9,21.4V408.8z M491.7,420.2c-5.3,3.2-10.9,6.3-16.7,9.2v45.1h16.7V420.2L491.7,420.2z M109.7,424.4V474h16.7
	v-40.8C120.6,430.5,115,427.5,109.7,424.4L109.7,424.4z M470.6,431.6c-5.4,2.6-11,5.1-16.7,7.5v35.4h16.7V431.6L470.6,431.6z
	 M130.8,435.3v38.8h16.7v-31.8C141.9,440.1,136.3,437.8,130.8,435.3L130.8,435.3z M449.4,440.9c-5.5,2.2-11.1,4.2-16.7,6.2v27.4
	h16.7V440.9L449.4,440.9z M152,444v30.1h16.7v-24.5C163.1,447.9,157.5,446,152,444L152,444z M428.2,448.7
	c-5.5,1.8-11.1,3.6-16.7,5.2v20.6h16.7V448.7L428.2,448.7z M173.2,451v23.1h16.7v-18.4C184.3,454.2,178.7,452.7,173.2,451L173.2,451
	z M407.1,455.2c-5.5,1.6-11.1,3-16.7,4.3v14.9h16.7V455.2L407.1,455.2z M194.3,456.8v17.3H211v-13.5
	C205.5,459.5,199.9,458.2,194.3,456.8L194.3,456.8z M385.9,460.6c-5.6,1.3-11.2,2.5-16.7,3.5v10.3h16.7V460.6L385.9,460.6z
	 M215.5,461.6v12.6h16.7v-9.6C226.7,463.7,221.1,462.7,215.5,461.6L215.5,461.6z M364.7,464.9c-22.9,4.2-45,6.3-64.1,6.2
	c-17.7-0.2-40-2-64-5.7v8.9l128.1,0.2V464.9z M110.8,486.3c48.2,49,115.2,79.4,189.2,79.4c23.5,0,46.3-3.1,68.1-8.9
	c6.3-3.4,9.3-6.5,11.3-9.5l4.1,1.6l-5,4.8c4-1.2,7.9-2.5,11.7-3.9l-5,0.8c8.3-3.3,13.1-7.6,17.6-12l3.6,0.9c-5.1,5.5-7,6.5-10.3,8.2
	c35.1-13.7,66.6-34.6,92.7-60.9l-160.2-0.2l1.7,1.8c-3.9,6.1-13,14.7-19.1,18l-4.5-3.9c6-2.8,13.2-10.5,17.1-15.9L110.8,486.3
	L110.8,486.3z"/>
<path id="White_Letters" class="st0" d="M491.8,274.9c0,0-43.5,0.7-51.1,0.8c3-6.2,14.4-30.2,14.4-30.2l0,0l-38.6,0.3
	c0,0-12.9,27.4-14.3,30.4c-3.1,0.1-27.6,0.5-27.6,0.5l-13.7,27.9c0,0,21.6-0.8,28.1-1.1c-3.2,6.9-17.2,37.3-17.2,37.3
	c-6.9,13.3-25.9,38.4-48.2,37.2c-3.8-0.2-5.6-2.4-6.7-6.1c27.5-3.3,40-14,44.8-20.5c4.9-6.6,7.4-13.4,7.4-19.7c0-4.7-1.4-9.1-4.2-13
	c-7.5-10.2-23.1-13.4-38.8-7.9c-25.4,8.8-44.8,35.5-44.8,60.3c0,1.3,0.1,2.6,0.2,4c-1.2,1-2.7,1.9-3.4,1.8c-0.1,0-0.2,0-0.4-0.3
	c-10.4-17.2,39.3-107.9,58-142l2.3-4.3h-45l-0.8,0.8c-15,15.1-33.6,46.1-48.6,71c0,0-3.6,5.9-7.1,11.6c1.8-7.3,3.7-15.1,3.7-15.1
	c5.4-23,12.2-51.7,19-64.4l2.3-4.3h-4.9l-37,0.3l-0.8,1c-8.7,10.5-19.2,34.8-30.4,60.6c-15.3,35.3-36.2,83.6-48.8,80
	c-0.6-0.2-1-0.5-1.3-1.3c-1.9-5.3,4.7-20.4,11.8-30.7l5.1-7.4l-31.3,11.3l-0.5,0.5c-10.4,11.5-19.8,33-16.7,47.8
	c1.4,6.9,5.5,12.1,11.7,14.9c8.3,3.8,17,4,25.8,0.5c23.2-9,41.5-40.4,51.3-60.8c-4.9,22.9-12.6,47.2-18.1,55.8l-2.8,4.4h35.6
	l0.9-1.1c4.4-5.7,10.9-16.4,18.4-28.9c5.1-8.4,10.5-17.2,16-25.7c-2.9,8.3-4.9,16.7-4.9,24.6c0,6.6,1.1,12.8,3.4,17.7
	c3.7,7.9,10.1,12.7,18.6,13.9c12.8,1.4,23.6-6.5,28.5-11.3c2.1,2.2,4.1,4.4,6.9,6.1l0.1,0.1c10.3,6,39.3,8.3,60.8-12.6
	c3,7.6,9.2,13.3,17.8,15.2c10.7,2.5,23-1.4,32.4-9.4c5.2,3.6,11.1,7.2,17,8.3c33.2,5.9,49.6-19.7,52-32.3c0.9-4.6,1.2-8.8,1.2-12.6
	c0-9.6-2.2-16.9-4.2-23.1c-1.4-4.5-2.5-8.2-2.5-11.8c0-3.2,0.9-6.3,3.4-9.8l2-2.7c0,0-13.1-6.7-17.2-8.8c8.1-0.1,19.9-0.3,19.9-0.3
	L491.8,274.9z M337.9,331.9L337.9,331.9c1.3,0,2.3,0.4,2.8,0.9c0.3,0.3,0.4,0.7,0.4,1.2c0,1-0.6,2.3-1.7,3.7
	c-4.5,5.7-13.4,9.2-19.3,10.3c2.3-4.9,7-11,12.9-14.5C334.9,332.4,336.5,331.9,337.9,331.9z M397.6,367c0.4-1.2,0.9-2.4,1.6-3.9
	c0,0,28-59.5,28.1-59.8c1.7,0,12.2-0.2,24.3-0.4c-5.9,4.3-16.3,16.6-38,44C407.9,354.4,401.7,362.3,397.6,367z M427.7,376.3
	c0-2.5,1.6-5.5,4.6-8.5l2-2c0,0-2.7-2.9-3.6-3.8c5.1-8,9.6-13.6,13.8-18.7l0,0l0,0l0,0c0.1,1.1,0.2,2.7,0.2,2.7
	c0.6,4.4,1.1,8.6,1.1,13.4c0,2.4-0.1,4.9-0.5,7.6c-0.4,3.6-3,8.9-6.8,11.7c-2.4,1.7-5.2,2.3-8.1,1.7c-0.9-0.2-2.1-1.1-2.5-2.6
	C427.7,377.3,427.7,376.8,427.7,376.3z"/>
<path id="Orange" d="M267.7,49.7L258,51c-2,3.9-7.2,9.7-9.7,11.7c2.6,1.1,4.7,3.6,4.2,21.7l8.8-0.6c-0.6-20.1-4.3-20.1-5.7-20.1
	C258.5,61.9,267.7,49.7,267.7,49.7L267.7,49.7z M285.2,50.5c-1.4,3.3-11.7,9.7-14.2,11.7c0.5,0.4,2.1,0.9,3.5,2
	c2.5,2,6,7.8,5.7,20.4l7.8,0.6c-0.4-14.5-4-19.1-5.5-20.3c-1-1.1-3.2-1.3-4.3-1.6c5.9-2.3,15-12,15-12L285.2,50.5L285.2,50.5z
	 M241,50.8l-8.3,0.8c-0.8,4.5-3.4,10-5.9,12c2.8,5,2.8,12.3-1.7,21.4l8.4-0.6c4.5-11.1,3.3-16.7,0.8-20.6
	C237.3,61.9,241,50.8,241,50.8L241,50.8z M218.7,53.5l-9.2,2.5c-1.1,5-3.3,8.3-5.8,10.3c2.7,0.9,1.4,4.1-0.3,8.3
	c-1.5,3.7-3.4,6.6-5.5,10.9l8.4-0.6c5.6-9.5,9.8-18.7,5.6-19.8C214.8,63.3,218.7,53.5,218.7,53.5L218.7,53.5z M320.9,53.8
	C315,60.5,309.7,63,307.2,65c4.4,2.2,8.1,9.7,7,21.2l8.9,2.2c-0.6-14.5-3.9-20.1-8.1-21.2c3.1-2,15-12.5,15-12.5L320.9,53.8z
	 M197.4,58.6l-8.3,1.6c-1.5,4.1-3.6,7.2-6.4,9.2c0.7,4.3-0.8,8.2-7.1,17.8l7.8-1c7.6-9.8,7-14.5,6.9-17.8
	C193.5,66.4,197.4,58.6,197.4,58.6L197.4,58.6z M344.8,58.8c-3.3,3.9-9.7,7-12.2,8.9c2.8,5,10,13.1,8.9,24.5l7.8,1.1
	c-2.2-18.4-5.6-21.2-9.7-22.3c3.1-2,14.5-10.9,14.5-10.9L344.8,58.8L344.8,58.8z M371,65.5c-2,3.9-7,5.9-9.5,7.8
	c2.8,5,7.8,13.4,6.7,24.8l8.6,2.5c-1.7-16.7-3.6-23.9-7.8-25.1c3.1-2,10.6-8.6,10.6-8.6L371,65.5L371,65.5z M395.5,74.2
	c-2,3.9-7,5.9-9.5,7.8c2.8,5,7.2,11.1,6.1,22.6l8.3,3.3c-1.7-17.3-3.3-21.7-7.5-22.8c5-2.8,11.1-8.6,11.1-8.6L395.5,74.2L395.5,74.2
	z M421.7,83.9c-2,3.9-7,4.7-9.5,6.7c2.8,5,7.8,12.5,6.7,24l8.9,4.5c-0.6-13.9-3.9-23.4-8.1-24.5c5.6-2.5,10.3-7.8,10.3-7.8
	L421.7,83.9L421.7,83.9z M443.7,94.5c-2,2.8-6.9,4.7-9.5,6.7c2.8,5,8.1,11.4,7,22.8l8.9,5c-0.5-14.5-3.9-23.7-8.1-24.8
	c4.2-2,9.2-7,9.2-7L443.7,94.5L443.7,94.5z M464.6,106.7c-2,3.9-4.4,3.6-7,5.6c2.8,5,8.1,15.3,7,26.7l7.8,5.6
	c-1.1-17.8-3.1-27.6-7.2-28.7c3.1-2,6.1-5.3,6.1-5.3L464.6,106.7L464.6,106.7z M486.9,121c-0.8,3.1-4.2,4.2-6.7,6.1
	c2.8,5,5,16.1,3.9,27.6l7.8,5.6c0.6-17.3-2-24.2-4.7-29.5c3.1-2,4.7-4.7,4.7-4.7L486.9,121L486.9,121z M506.6,137.9
	c-0.8,3.1-3.3,4.2-5.8,6.1c1.4,6.1,4.2,15,2.5,24l6.1,6.4c1.4-10,0.6-20.6-1.1-25.9c2-1.4,3.9-4.5,3.9-4.5L506.6,137.9L506.6,137.9z
	 M522,157.4c0,1.2,0.1,8.9-2.1,10c0.7,5.2-0.9,11.1-2.9,14.5l5.3,6.4c2.6-5.3,3.8-13.5,3.5-17.7c0.7-2.2,1.4-1.9,1.6-4.3L522,157.4
	L522,157.4z M68.8,191.4c-4.5,9.5-3.4,18.4-1.7,25.1c-4.5,4.5-8,7.1-10.8,15.5l4.4,2.8c0.6-6.1,5.3-12.2,10.8-16.6
	c-2.8-9.5,1.2-18.5,2.8-25.2L68.8,191.4L68.8,191.4z M82.8,195.3c-3,10.1-3.3,19.5-1.7,26.2c-4.5,4.5-10.8,7.7-13.6,16l5.5,2.8
	c2.2-6.1,8.1-14.4,14.2-16.1c-2.8-9.5,0.3-19.8,2-26.5L82.8,195.3L82.8,195.3z M100.3,202.2c-3.3,9.5-1.9,16.7-0.8,27.8l1,0.5
	c-4.5,4.4-13.3,6.6-16,14.9l5.6,4.5c2.2-6.1,11.7-13.9,17.8-15.6l-1.7-0.9c-2.8-9.5-1.1-21.2,0.6-27.9L100.3,202.2L100.3,202.2z
	 M118.1,211.4c-4.4,9.5-4.5,18.5-4.2,26.6l2,1.2c-8.3,5.5-15.3,7.3-18.1,15.6l5.6,4.5c2.2-6.1,12.3-14.5,18.4-16.2l-2.4-1.7l0.7,0.4
	c-2.2-9.2,2.2-20.3,3.9-27L118.1,211.4L118.1,211.4z M137.4,224.8c-3.9,9-8.9,24.6-5.7,26.5l1.6,2c-7.3,2.8-20.4,6.1-22,12.6
	l5.3,4.8c1-4.3,10.8-9.1,21.4-11.9l-1.8-2.3c-0.3-9.1,4.9-20.6,7.1-26.7L137.4,224.8L137.4,224.8z M252.3,235.9
	c-6.4,0.1-27.4,0.2-29.8,0.2c-8.1,10.3-18.1,33.5-28.8,58.2c-23.1,53.3-39.4,88-55.7,83.2c-2.5-0.7-4.3-2.4-5.2-4.9
	c-0.5-1.3-0.6-2.7-0.6-4.2c0-7.4,4.6-17.3,8.8-24.6c-6.2,2.2-12.7,4.6-13.7,4.9c-8.2,9.2-15.5,25.1-15.5,37.2c0,1.8,0.1,3.4,0.5,5
	c1.1,5.2,3.9,8.8,8.5,10.8c7,3.2,14,3.3,21.4,0.4c26.2-10.2,47.1-54.6,52.8-68c3.1-7.3,4.3-10,7.3-9.1c1.7,0.5,2.2,1.6,2.2,3.4
	c0,1.3-0.3,2.9-0.6,4.9l-0.4,2.7c-3.6,21.5-11.7,50.7-18.8,65.2h22.6c4.2-5.7,10.2-15.6,17.2-27.2c8.2-13.5,17.5-28.9,25.8-40.5
	c7.8-10.9,8.8-12.3,11.5-10.7c2.7,1.7,2,3.2-4.1,15.2c-10.8,16.9-14.6,40.3-8.6,53.3c2.8,6.1,7.6,9.7,14.1,10.6
	c12.3,1.4,23.2-8.6,25.4-11.3l2.3-2.8l2.2,2.9c2.1,2.7,4.5,4.9,7.7,6.9c8.1,4.7,35.3,7.6,55.1-12.8l0.3-0.4l3.4-2l1.6-0.7l1.2,3.1
	c0,0,0.6,1.5,0.9,2.1c3.1,8.5,9.5,11.6,14.3,12.7c9.6,2.2,21-1.4,29.1-9.3l1.7-1.7l1.9,1.4c5,3.6,10.9,7.4,16.3,8.3
	c31.9,5.7,44-20.9,45.3-27.7c0.8-4.2,1.1-8,1.1-11.5c0-8.7-2-15.4-3.9-21.4c-1.4-4.7-2.8-9.1-2.8-13.6c0-3.3,1.1-6.6,3-10.1
	c-4.2-2.2-12.1-6.2-13.6-7c-5.1,2.3-25.4,28-37.7,43.6c-21.6,27.3-21.8,27.2-24.8,25.8l-2.4-2.8c-1.2-3.7,1.4-9.7,3-13
	c0,0,28.1-59.6,28-59.5l1.4-3.4c0,0,49.6-0.8,53.1-0.8c1-2.4,4.6-11.1,6.5-16c-7.3,0.1-51.7,0.8-51.7,0.8s11.5-24.1,14.4-30.3
	c-6.3,0.1-23,0.2-25.8,0.2c-1.4,2.9-14.3,30.3-14.3,30.3s-24.5,0.4-27.6,0.5c-1.1,2.2-5.4,11-7.9,16.1c6.6-0.3,27.8-1.1,27.8-1.1
	s-21.1,45.8-21.2,46c-8.1,15.7-28.5,41.8-53.7,40.5c-5.2-0.3-11.7-2.9-13-13.8l-0.3-2.9l2.9-0.3c28.1-2.5,39.8-12.8,44.2-18.8
	c7.1-9.5,8.2-18.9,3.2-25.8c-5.9-8.1-18.9-10.5-32.3-5.8C303,325,284,353,286.9,376.3l0.2,1.4l-1,1c-0.8,0.8-4.8,4.6-9,4.2
	c-1.9-0.2-3.5-1.2-4.7-3c-1.4-2.3-2.1-5.5-2.1-9.4c0-24.7,27-78.2,57.6-134.2h-32.8c-14.4,14.9-32.5,44.8-47.1,69
	c0,0-12.7,20.8-13.1,21.4c-3.2,4.8-4.2,6.4-6.8,5.3c-1.3-0.6-1.8-1.3-1.8-2.6c0-1.4,0.6-3.3,1.4-6.2l6.3-25.6
	C239.9,275,245.9,250.3,252.3,235.9L252.3,235.9z M153.3,237.8c-5,14.5-7.5,22.1-5.9,29.3l1.6,1.7c-4.5,1.7-17.1,5.2-22.1,12.9
	l4.4,6c3.9-5.6,15.6-11.7,23.4-12.8L153,273c-1-10.5,3.9-23.2,6.1-29.3L153.3,237.8L153.3,237.8z M175.3,262.1
	c-6.1,8.8-12.3,20.1-11.7,26.8l1.5,1.7c-11.3,2.5-17.4,2.2-25.2,8.3l5,7.3c3.9-5.6,18.1-8.4,25.9-9.5l-1.7-1.8
	c-0.5-8.9,6.2-20,11.2-25.5L175.3,262.1L175.3,262.1z M169.7,314.5c-3.9,1.1-10,2.8-15.6,5.6l-1.2,0.6l2.5,5.8
	c3.6-2.5,8.8-4.3,13.8-5.1L169.7,314.5L169.7,314.5z M338.4,326.2c2.6,0.1,5,1.1,6.6,2.9c1.1,1.2,1.8,2.9,1.8,5s-0.8,4.6-2.9,7.2
	c-6.8,8.6-21.3,13.4-28.3,12.9l-3.4-0.2l0.7-3.3c1.5-6.8,8.3-17,17.1-22.2C332.9,326.9,335.8,326.1,338.4,326.2L338.4,326.2z
	 M448.8,329.1l1.7,16.2c0.8,6.6,1.7,13.5,0.6,22.4c-0.6,4.8-3.7,11.8-9.2,15.7c-3.8,2.7-8.1,3.6-12.7,2.7c-3.2-0.7-5.9-3.3-6.9-6.6
	c-0.2-0.8-0.4-1.9-0.4-3.1c0-2.6,1.4-6.2,4.6-10.3c-0.8-0.9-3.2-3.4-3.2-3.4l1.2-1.9c6.1-9.8,11.1-15.9,16-21.8l3.8-4.7L448.8,329.1
	L448.8,329.1z M237.1,395.1c-1.7,4.5-3.4,6.7-2.2,11.1l2.7,3.3c-6.6-1.1-11.1-0.8-17.7-0.3l-4.5,5.9c4.5,0,20-0.6,25.6,1.1l-3.2-6.3
	l1.5,1.9c0,0,0-6.7,1.7-10.6L237.1,395.1L237.1,395.1z M260.7,413.8c-5.2,5.7-11.5,13.9-11.4,17.6l1.9,2.4c-4.6-1.1-18.6-0.3-29,0.8
	l4,6.4c5.6-0.6,25.7-0.9,31.2,0.3l-2.2-2.7c-1-3-0.3-6.8,2.3-10.3c2.7-3.6,7.6-8.8,12.4-14.2C266.4,414.9,260.7,413.8,260.7,413.8
	L260.7,413.8z M281.1,428.5c-2.2,3.3-18.2,18.8-15.4,25.5l3.9,1.3c0,0,3.6,2.2-0.3,0c-4-2.2-24.3-3.3-34.9-2.2l5.3,7.5
	c5.6-0.6,29.1-1.4,34.7-0.3c-0.3-0.3-4.6-4.3-3.4-6.1c2-3.2,4.7-8.6,14.7-18.8L281.1,428.5L281.1,428.5z M296.6,449.5
	c-0.6,2.2-7.8,10.8-13.4,14.7l4.1,1.9c1,0.1,2,0.1,3,0.1c3.7-2.9,7.8-7.6,10.4-11.7L296.6,449.5L296.6,449.5z M323.8,486.4
	c-3.9,5.4-11.1,13.1-17.1,15.9l4.5,3.9c6.1-3.3,15.2-11.9,19.1-18l-1.7-1.8H323.8L323.8,486.4z M298.3,491.8
	c-12.3,1.7-26.8,2.2-33.5,1.1l5.1,5.9c10.6,0.6,22.8-0.6,31.8-2.8L298.3,491.8L298.3,491.8z M341,498c-2.2,3.5-11.6,15.7-18.8,19.1
	l5,3.3c6.1-3.3,13.8-11.5,17.7-17.9L341,498L341,498z M310.9,506.5c-3.9,1.7-8.6,3.1-32.5,2.8l5.6,5.6c17.8-0.6,22.7-1.7,31.6-3.9
	L310.9,506.5L310.9,506.5z M354.5,510.8c-2.8,5-10.5,12.7-17.8,16.1l4.5,2.8c6.1-3.3,13.9-8.8,17.8-15L354.5,510.8L354.5,510.8z
	 M326.6,520.4c-8.9,3.1-24.2,5.3-33.1,4.2l7.2,5c10,0.6,22.5-3.1,31.4-5.3L326.6,520.4z M367.8,520.9c-2.8,5-9.9,10.4-17.2,13.8
	l2.7,1.5c-2.2,2.8-5.6,7.7-23.7,11.6l6.5,2.2c17.3-3.3,23.5-11.7,19.5-12.2l-1.3-1l1.3,0.7c6.1-3.3,12.7-7.4,16.6-13.5L367.8,520.9
	L367.8,520.9z M380.4,528.5c-5.6,6.7-8.6,9.7-17,13l3.2,1.4l-0.4-0.1c-2.9,3.8-7.6,8.1-20.7,11.1l7.6,1.6
	c9.6-1.1,19.8-10.5,16.5-11.6l-1.5-0.5c6-3.3,10.2-5.5,16.3-12.7L380.4,528.5L380.4,528.5z M339.8,529.1c-7.2,6.1-15.6,8.7-26.7,9.8
	l6.5,3.9c11.7-0.6,26.7-8.9,23.9-11.7L339.8,529.1L339.8,529.1z M391.9,534.2c-3.9,5-7.2,8.4-14.5,11.7l3.9,1.6
	c6.1-3.3,7.8-5,14.5-12.2L391.9,534.2L391.9,534.2z"/>
</svg>
