<svg version="1.1" id="Layer_1" xmlns="http://www.w3.org/2000/svg" xmlns:xlink="http://www.w3.org/1999/xlink" x="0px" y="0px"
	 viewBox="0 0 600 600" style="enable-background:new 0 0 600 600;" xml:space="preserve">
<style type="text/css">
	.st0{fill:#FFFFFF;}
</style>
<path id="Outline" class="st0" d="M594.6,329.9c0-12.4-2.9-22.8-8.6-31.4c-2-3.2-4.5-6.1-7.4-8.6c-10.8-10.2-23.5-15.6-34.7-20.5
	l-6.8-2.9L536,266c-8.3-3.8-14.2-6.8-18-9.5c-5.4-3.6-7.4-7.4-7.4-13.1c0-9,10.8-13.8,20.8-13.8c17.6,0,28.2,11.1,32.7,33.6l0.7,3.6
	l0.5,1.8h19.4l-1.8-50.8l-0.2-4.3l-4.3-1.6c-17.8-6.3-32-9-46-9c-10.8,0-20.5,1.4-29.1,4.1h-90.5v21.4c0,0,2.9,0.5,6.5,1.4
	c3.6,0.7,8.1,1.6,11.1,2.3c-0.7,1.4-1.6,2.9-2.7,4.7c-5.2,9-12.6,22.1-18.7,32.5c-1.1,2-2.3,4.1-3.4,5.9
	c-6.5-12.4-17.6-33.6-22.6-43.1l16.2-3.4v-21.2H296.6v21.4l2.5,0.5c1.1,0.2,2.5,0.5,4.1,0.7c6.1,1.1,14.7,2.9,17.4,3.4
	c0.5,0.7,1.6,2.7,3.4,5.9c10.6,17.8,40.6,68.3,42,70.8V357c-3.2,0.7-9,1.8-14,2.7l-2-0.7c-2.9-0.9-5.6-1.6-7-2
	c-2-5.2-45.1-114.8-56.2-142.8c-1.6-4.1-2.5-6.5-2.5-6.5h-37.4L232.3,243l6.1,1.1l-6.8,0.7l-31.1,76l-0.5,1.4l-6.8-8.8
	c0,0-0.9-1.4-1.1-1.6c-0.2-0.2-14.4-21.2-14.4-21.2s-6.3-9.2-10.8-15.8c0.2,0,1.1-0.5,1.1-0.5c0.7-0.2,1.1-0.7,1.8-0.9L164,269
	c-2,0.9-4.1,1.8-5.9,2.5l-1.1,0.7c11.3,16.5,21,31.1,29.8,43.8c4.7,6.3,9.9,13.1,15.1,19.8l49.8-121.6h28.4l58.2,148.2l13.8,4.1
	l21-4.1v-54.1l-48-80.8l-21.4-4.3v-9h89.1v9l-19.6,4.3l32.3,61.8l35.4-61.8l-21.4-4.3v-9h84.8c8.1-2.5,17.4-4.1,28-4.1
	c14.7,0,28.6,3.2,43.8,8.6l1.8,43.5h-7c-5.2-26.2-18.7-39-39.2-39c-15.1,0-27.5,8.1-27.5,20.5c0,15.3,12,20.5,30.5,29.1
	c12.2,5.6,27.5,11.1,39.9,22.3c9.5,8.6,13.8,20.1,13.8,35c0,29.8-21.9,49.4-62.5,49.4c-19.4,0-36.8-3.6-52.8-11.7l-1.1-43.3h8.8
	c4.3,28,19.2,42.2,43.3,42.2c17.1,0,27.3-9,27.3-21.7c0-6.5-2.9-12.4-7.9-16.2c-9.2-7.4-21.4-11.3-33.4-17.1
	c-27.3-13.5-40.8-27.5-40.8-50.5c0-15.1,5.4-27.5,15.6-36.1l-18.7,2.7l-48.3,80.8v54.1l28.6,4.5v9H268.4v-9l22.3-4.5L280.1,332
	h-52.6l-9,24.1c0.5,0.5,0.7,0.9,1.1,1.4c42.9,46.9,100.6,84.4,214.3,26.8l5.2,6.1c-14,14-187.7,127.9-292.6-49.4l-4.7-7.4l-0.7,4.3
	l-0.7-7.2c-9-15.1-16.7-31.1-24.6-44.9c0,0-0.5-1.1-1.8-3.4c-0.5-0.9-0.9-1.8-1.4-2.5L97,274.6V266h7.7c8.8,0,16-1.4,22.1-3.8
	c0,0,2.7-0.9,5.9-2.9c1.6-1.1,2.9-2.3,4.5-3.8l4.7,39l7.2-43.3l14.2,10.4l-9.2-14.9l37-3.8l-37-8.1l5.4-14l-10.8,7.2
	c0.2-2.5,0.2-5,0.2-7v-0.5v-1.8v-0.9c-0.9-32.3-17.1-49.2-48.5-49.2c-3.4,0-6.8,0.2-10.4,0.7v27.1l6.8,4.3v-25.3
	c1.4,0,2.5-0.2,3.8-0.2c15.8,0,27.1,4.7,33.8,14c4.7,6.5,7.4,15.3,7.9,26.4l3.2,5.9c-11.5,10.6-13.3,23.5-13.3,31.1l-1.8,0.2
	c-5.9,4.3-14.4,6.5-25.5,6.5h-8.3v-54.6l-6.8-7v159l32,5.6v13.1H6.8v-13.1l31.4-5.6V174.2l-31.4-5.9v-12.9H116
	c56.8,0,83.7,16,83.7,55.9c0,8.8-1.6,17.1-4.7,25l6.8,1.1c3.2-8.1,4.7-16.9,4.7-25.9c0-16.9-4.7-29.1-12.2-38.1
	c-17.6-21.7-51-24.8-78.3-24.8H0v25c0,0,2.7,0.5,6.5,1.1c7.7,1.4,19.8,3.8,25,4.7v171.2c-7.4,1.4-31.4,5.6-31.4,5.6V382h128.6v-25.5
	c0,0-15.3-2.7-25.5-4.5c-2.7-0.5-5-0.9-6.5-1.1v-69.7c2,0.7,8.8,2.9,11.7,4.1l0.2,0.2c0,0.2,1.4,2.5,1.4,2.5l0.5,0.7l0.9,1.6l9,16.7
	c6.3,12.2,13.1,24.6,20.8,36.5c12.4,21,26.4,38.8,41.5,53.5c27.7,26.6,60,42.2,96.1,46.7c82.6,10.4,157.4-41.7,165.3-49.6l4.3-4.3
	l-6.5-7.7H453v-21.2c0,0-13.1-2-22.1-3.4c-2.5-0.5-5-0.7-6.5-0.9V310c1.4-2.5,29.8-50.5,41.1-69.2c-2.3,6.1-3.4,12.6-3.4,20.1v0.2
	c0,16.2,5.6,28.9,18.5,39.9c6.8,5.9,15.1,11.3,25.9,16.5l11.7,5.4c7.7,3.4,14.9,6.5,20.5,11.1c1.8,1.4,2.9,2.9,4.1,4.7
	c1.1,2,1.6,4.1,1.6,6.3c0,9.2-7.9,14.9-20.8,14.9c-8.6,0-15.8-2-21.4-6.3c-7.9-5.6-12.9-15.6-15.1-29.5c0-0.2,0-0.5-0.2-0.9
	l-0.9-5.6h-21.4l1.6,54.1l3.6,1.8l2.7,1.4c16,7.4,33.4,11.1,53,11.1C568.2,386,594.6,364.6,594.6,329.9L594.6,329.9z M301.8,403
	c-27.3-6.5-48.3-21.9-64.5-37.4c-4.1-3.8-7.7-7.7-11.1-11.3c2-5.4,4.3-11.7,5.9-16h43.1c0.7,1.8,1.4,4.1,2.3,6.5
	c1.4,3.8,2.9,8.3,4.3,12.4c-6.5,1.4-20.1,4.1-20.1,4.1v21.2h159.7c-5,2.3-9.9,4.5-14.7,6.5C366.5,405.4,332,410,301.8,403z"/>
<path class="st0" d="M255.3,255.6l-19.8,53.5l-3.6,9.5l44-0.2L255.3,255.6z M254.9,276.8l11.3,34.6l-24.2,0.1L254.9,276.8z"/>
<path id="Shadows" d="M324.4,239.2c-1.8-3.2-3.2-5.2-3.4-5.9c-2.7-0.5-11.3-2.3-17.4-3.4v5.2C303.4,235.1,317.4,237.9,324.4,239.2z
	 M359.8,382.2H268v6.5h138.7c4.7-2,9.7-4.1,14.7-6.5H359.8z M383,232c5,9.5,16,30.7,22.6,43.1c1.1-1.8,2.3-3.8,3.4-5.9
	c-6.3-12.4-13.5-26.8-17.1-33.8c4.5-1.1,14.2-3.4,14.2-3.4v-18.3h-6.5v14.9C399.2,228.6,388.4,230.9,383,232z M419.1,230v5.2
	c0,0,4.1,0.7,8.3,1.6c0.9-1.8,1.8-3.4,2.7-4.7C427.2,231.5,422.7,230.6,419.1,230z M441.7,382.2l6.5,7.7l-4.3,4.3
	c-7.7,7.9-82.8,59.8-165.3,49.6c-36.3-4.5-68.6-20.3-96.1-46.7c28.9,30.2,62.9,48,101.7,52.8c83.2,10.4,157-42,165.3-50.3l4.3-4.3
	l-5.6-6.5H459v-21.4c0,0-2.7-0.5-6.5-0.9v16h-10.8V382.2z M465.3,240.8C454,259.7,425.4,307.6,424,310v46.5c1.6,0.2,3.8,0.7,6.5,0.9
	v-44c1.1-1.8,18.5-31.1,31.6-52.8C462.2,253.4,463.3,246.9,465.3,240.8L465.3,240.8z M538.9,333.7c-5.6-4.5-12.9-7.7-20.5-11.1
	l-11.7-5.4c-10.8-5.4-19.4-10.8-25.9-16.5c7.2,8.3,17.8,15.8,32.5,23l11.7,5.4c6.5,2.9,12.9,5.6,18,9.2
	C541.8,336.7,540.5,335.1,538.9,333.7L538.9,333.7z M502.1,353.6c-4.3-5.9-7.2-13.8-8.8-23.9l-0.9-5.6H487
	C489.2,338,494.2,347.9,502.1,353.6L502.1,353.6z M565,269c0,0.5,0.2,0.7,0.2,1.1l1.1,5.4H591l-2.3-55l-4.3-1.6l-2-0.7l2,50.8H565
	L565,269z M531.4,229.7c-10.2,0-20.8,4.7-20.8,13.8c0,5.6,2,9.2,7.4,13.1c-1.1-2-1.8-4.3-1.8-7.2c0-9,10.8-13.8,20.8-13.8
	c12.9,0,22.1,5.4,27.7,31.4l-0.7-3.6C559.6,240.8,549,229.7,531.4,229.7z M586.2,298.8c5.6,8.6,8.6,18.7,8.6,31.4
	c0,34.5-26.4,56.2-69.2,56.2c-19.6,0-37-3.6-53-11.1v3.4l3.6,1.8c16.9,8.3,34.5,12.4,54.6,12.4c42.6,0,69.2-21.4,69.2-56.2
	C600,320.6,595.5,308.2,586.2,298.8z M350.3,358.8c-7.7-19.8-37.9-96.5-51-129.7l-2.5-5.9V223l-3.6-9h-6.1
	c11.1,28,54.1,137.8,56.2,142.8C344.7,357,347.6,357.9,350.3,358.8L350.3,358.8z M237.7,344.5h39.9c-0.9-2.5-1.6-4.7-2.3-6.5h-43.1
	c-1.6,4.1-3.8,10.6-5.9,16c3.4,3.6,7,7.4,11.1,11.3c-1.8-1.8-3.6-3.8-5.2-5.6C234.1,354.2,236.6,347.7,237.7,344.5z M241.6,311.8
	h8.8c0.7-1.6,1.1-2.9,1.1-2.9h-0.9c2.3-6.3,4.7-12.6,7.9-21.4c-1.1-3.6-2.5-7.4-3.8-11.5C249,291.5,241.6,311.8,241.6,311.8z
	 M206.8,246.9l-10.4,1.1c-5.2,8.6-12.2,16.2-21,21.9l5.2,7.2C192.6,269.7,201.4,259.1,206.8,246.9z M103.1,181.9
	c1.4,0,2.5-0.2,3.8-0.2c11.5,0,20.5,2.5,27.3,7.7c-6.8-9.5-18-14-33.8-14c-1.1,0-2.5,0-3.8,0.2v25.3l6.5,4.1
	C103.1,204.9,103.1,181.9,103.1,181.9z M109.8,288.2l-1.4-2.5l-0.2-0.2c-3.2-1.1-9.7-3.4-11.7-4.1v69.7c1.6,0.2,3.8,0.7,6.5,1.1
	v-64.5c1.4,0.5,5,1.6,8.1,2.7l-0.9-1.6L109.8,288.2z M6.5,382.4v6.5h128.6v-25.7c0,0-2.7-0.5-6.5-1.1v20.1H6.5V382.4z M201.7,237.4
	l8.1,1.4c2-6.5,2.9-13.5,2.9-21c0-21.2-7.4-35.4-18.7-44.7c7.4,9,12.2,21.4,12.2,38.1C206.4,220.5,204.6,229.3,201.7,237.4z
	 M99,255.7l4.1-1.8v-42.6l-6.5-6.8v54.6h6.5v-4.3L99,255.7z M198.5,318.4c0-0.2-14.4-21.2-14.4-21.2s-6.3-9.2-10.8-15.8
	c0.2-0.2,1.1-0.5,1.1-0.5c0.9-0.5,1.8-0.9,2.7-1.6l-7.4-5.9c-0.7,0.2-1.1,0.7-1.8,0.9c0,0-0.7,0.5-1.1,0.5
	c4.5,6.5,10.8,15.8,10.8,15.8l14.4,21.2c0.2,0.2,1.1,1.6,1.1,1.6l6.8,8.8l0.5-1.4c-0.2-0.2-0.5-0.7-0.7-0.9
	C199.8,320,198.7,318.4,198.5,318.4L198.5,318.4z M31.6,179.9c-5.2-0.9-17.4-3.4-25-4.7v7.4c0,0,14.9,2.9,25,4.7
	C31.6,187.3,31.6,179.9,31.6,179.9z"/>
<path id="Blue" d="M153.2,260.2L141.9,333l4.7,7.4c105.1,177.3,278.6,63.4,292.6,49.4l-5.2-6.1c-113.9,57.7-171.7,20.3-214.3-26.8
	c-0.5-0.5-0.7-0.9-1.1-1.4l9-24.1h52.6l10.6,30.7l-22.3,4.5v9H446v-9l-28.6-4.5V308l48.3-80.8l18.7-2.7c-10.2,8.8-15.6,21-15.6,36.1
	c0,23,13.3,37,40.8,50.5c12.2,6.1,24.1,9.7,33.4,17.1c5.2,4.1,7.9,9.7,7.9,16.2c0,12.6-10.2,21.7-27.3,21.7
	c-24.4,0-39-14.2-43.3-42.2h-8.8l1.1,43.3c16,7.9,33.4,11.7,52.8,11.7c40.6,0,62.5-19.6,62.5-49.4c0-14.9-4.3-26.4-13.8-35
	c-12.4-11.5-27.7-16.7-39.9-22.3c-18.7-8.6-30.5-13.8-30.5-29.1c0-12.4,12.4-20.5,27.5-20.5c20.5,0,34.3,13.1,39.2,39h7l-1.6-43.1
	c-15.3-5.4-29.3-8.6-43.8-8.6c-10.6,0-19.8,1.4-28,4.1h-84.8v9l21.4,4.3l-35.4,61.8l-32.3-61.8l19.6-4.3v-9h-89.1v9l21.4,4.3
	l48,80.8v54.1l-21,4.1l-13.8-4.1L279.8,214h-28.4l-50.1,121.4c-5.2-6.8-10.4-13.3-15.1-19.8c-8.8-12.6-18.5-27.3-29.8-43.8l1.1-0.7
	c1.8-0.7,3.8-1.6,5.9-2.5L153.2,260.2L153.2,260.2z M275.9,318.4l-44,0.2l3.6-9.5l19.8-53.5L275.9,318.4z M188.1,248.7l-25.9,2.5
	l9.5,13.1C178.2,260,183.8,254.8,188.1,248.7z M177.3,191.2l-14.2,39.9l31.8,5.4c3.2-7.7,4.7-16.2,4.7-25
	c0-39.9-26.8-55.9-83.7-55.9H6.8v12.9l31.4,5.9v182.5l-31.4,5.6v13.1h115v-13.1l-32-5.6v-159l-3.2-3.4l3.2,2v-27.1
	c3.6-0.2,7.2-0.7,10.4-0.7c31.4,0,47.6,16.9,48.5,49.2v3.2C148.6,220.9,177.3,191.2,177.3,191.2z M132.9,259.3
	c-3.2,2.3-5.9,3.2-5.9,3.2c-6.1,2.5-13.5,3.8-22.1,3.8h-7.7v8.6L113,280c0.5,0.7,0.9,1.6,1.4,2.5c1.4,2,1.8,3.4,1.8,3.4
	c7.7,13.5,15.3,29.5,24.4,44.7C140.5,330.6,132.9,259.3,132.9,259.3z"/>
<path id="Yellow" d="M201.7,237.4l-6.8-1.1l-31.8-5.2l14.2-39.9l-28.2,29.5c0,2,0,4.5-0.2,7l10.8-7.2l-5.6,14.2l37,8.1l-37,3.8
	l9.2,14.7l-14.2-10.4l-7.2,43.3l-4.7-39c-1.4,1.6-2.9,2.9-4.5,3.8l7.9,71.5l0.7,6.5l0.7-4.3l11.3-72.9l10.8,8.6l5.9,4.5l7.4,5.9
	l12,9.5l-8.3-11.7l-5.2-7.2l-3.8-5.4l-9.7-12.9l25.7-2.5l8.3-0.9l10.4-1.1l25-2.5l6.8-0.7l-6.1-1.1l-23-3.8L201.7,237.4L201.7,237.4
	z M86.6,194.3l3.2,3.4l6.8,7l6.5,6.8l29.1,30l-29.1,12.4l-4.1,1.8l4.1-0.5l27.3-2.3l1.8-0.2c0-7.7,1.8-20.3,13.3-31.1l-3.2-5.9
	l-8.6-15.6l5.9,28l-36.5-23.2l-6.5-4.1l-6.8-4.3C89.8,196.6,86.6,194.3,86.6,194.3z"/>
</svg>
