<svg version="1.1" id="Layer_1" xmlns="http://www.w3.org/2000/svg" xmlns:xlink="http://www.w3.org/1999/xlink" x="0px" y="0px"
	 viewBox="0 0 600 600" style="enable-background:new 0 0 600 600;" xml:space="preserve">
<style type="text/css">
	.st0{fill-rule:evenodd;clip-rule:evenodd;fill:#FFFFFF;}
	.st1{fill-rule:evenodd;clip-rule:evenodd;}
</style>
<circle id="Outline" class="st0" cx="300" cy="300" r="300"/>
<ellipse id="Blue" class="st1" cx="300" cy="300" rx="290" ry="290"/>
<path id="White_1_" class="st0" d="M299.2,106.4c-103.7,0-189.1,86.3-189.1,191.2s85.4,191.2,189.1,191.2
	c101.9-0.1,186.3-83.4,188.9-186.4h86.4v-8.5h-86.4C486.1,190.5,401.5,106.5,299.2,106.4z M110.1,297.6v-3.8H22.8v8.5h87.4V297.6z"
	/>
<path id="Red" class="st1" d="M298.9,22.1c-151,0-274,121.6-276.7,272l0,0l88.1,0.1c1.3-46.8,19.6-93.3,55.3-129.1
	c15.5-15.5,33-27.5,51.5-36.4h-0.6l6.7-3h0.4c3-1.4,6.1-2.6,9.2-3.8l-0.3-0.1c1.9-0.8,3.9-1.4,5.8-2l0.3,0.1c3-1.1,6-2.1,9.1-3h-0.1
	c2.2-0.7,4.4-1.3,6.8-1.8l0.4,0.1c3.6-0.9,7.2-1.7,10.8-2.4h-0.1c1.6-0.3,3.3-0.7,5-0.9l0.3,0.2c2.3-0.3,4.6-0.7,6.9-1l-0.2-0.1
	c1.2-0.1,2.4-0.3,3.6-0.4c54.6-5.4,111.1,12.8,152.9,54.6c19.9,19.9,34.2,43.2,43.4,68l0.6,0.7c1.2,3.1,2.2,6.3,3.2,9.5l-0.4-0.8
	c0.6,2,1.1,4.1,1.6,6.1l0.4,0.5c0.6,2,1.1,4.1,1.5,6l-0.4-0.5c3.1,12.9,5,26,5.4,39.2h86.3c0,1.7,0.1,3.5,0.1,5.1l0,0
	C575.7,146.3,451.6,22.2,298.9,22.1L298.9,22.1z M197.9,192.1v70.2h21.8l0.3-2.9l-0.4,1.5c0-29.9,15.4-43.2,50-43.2h5.5v56.7
	c0,9.8-7.1,15.3-12.1,18.2c5.1,2.6,12.1,7.7,12.1,17.5v60.7c0,7.8-5.4,12.6-14.5,12.6h-11.2v27.3h90.2v-27.3H329
	c-10.1,0-15.2-4.1-15.2-12v-61.3c0-9.7,8.2-14.9,13.8-17.6c-5.6-3.1-13.8-9.1-13.8-18.1v-56.6h2.7h2.3c33.4,0,52.7,15.2,52.7,41.6v3
	h16.2v-70.1L197.9,192.1L197.9,192.1z"/>
<path id="White" class="st0" d="M290.1,41.6h-16.5l5.2,6c0,0,9.2,13.9,10.7,16.3l-2.2,3.7l3.4,3.3c-0.9,1.2-12.8,16.9-12.8,16.9
	l-4.5,4.3l-1.7,1.6l15.8-0.2l-1.1-4.7c0.5-0.6,9-11.7,10.3-13.3c1.3,1.8,9.2,13.7,9.2,13.7v0.1c0,0.6,0.4,3.8,0.4,3.8l0.1,0.8h17.7
	l-6.5-6.3c0,0-9.9-14.6-11.5-17l2.2-3.6l-3-3.3c0.9-1.2,11.9-16,11.9-16l5.1-5.9h-15.9l0.6,1.3l1.5,3.7c-0.6,0.8-8.3,11.1-9.7,12.9
	l-8.6-13.1v-0.1c0-0.6-0.4-3.8-0.4-3.8L290.1,41.6z M200.5,59.9l-0.9,0.5L168.1,77l5.7,3.5c0,0.3,6.1,12,7,13.8l-2.3,6.2l6.5,1.8
	c0.4,0.7,7.2,14.4,7.2,14.4c-0.1,0-0.1,4.5-0.1,4.5v1.5l32-16.8l-4.8-9.7l-5.3,7.2c-0.1-0.1-10.2,5.3-12.4,6.5
	c-0.8-1.5-7.1-13.7-7.7-15.2l8.7-4.5c0,0.1,4.5-0.6,4.5-0.6l1.3-0.2l-4.7-9.5l-4.3,4.5c0,0-6.7,3.5-8.6,4.4l-6.3-12.2
	c1.4-0.8,13-6.7,13-6.8c0,0.1,7,0,7,0h1.4L200.5,59.9z M407.7,64.5l-0.5,0.4l-16.1,14.9c0-0.1-6.1,0.8-6.1,0.8l-0.8,0.1
	c0,0,0,5.5,0,6.2c-0.6,0.5-12.7,11.4-12.7,11.4c0.1-0.1-4.4,2.7-4.4,2.7l-1.4,0.9l12.7,6c0,0,0.2-5.1,0.2-5.8l5.9-5.9
	c1.1,0.5,14.3,6.8,15.5,7.2c-0.1,1.1-0.9,7.4-0.9,8.1l-4.4,3.8l16.7,7.8l-1.4-7c0,0,2.2-16,2.3-16.3c0.1,0.1,4.6-4,4.6-4l0.7-0.6
	l-4.6-5.9c0.2,0,1.2-21.3,1.2-21.3v-0.6L407.7,64.5z M402.4,79.4c-0.4,3.6-1.7,14.7-1.9,16.6l-10.5-4.9
	C391.4,89.8,399.8,81.9,402.4,79.4L402.4,79.4z M117.1,117.8l-0.6,0.7l-26.9,32l8.5,7.1l2-8.2c0,0,4-4.5,5.3-6.2
	c1.2,1,9.7,7.9,10.2,8.4l0.7,6.2l6.2-0.3l12.4,10.3c0,0.2,2,4.5,2,4.5l0.6,1.4l11.4-13.7l-6.6-1.1c0-0.2-12.1-10.3-12.3-10.5v-0.1
	c0-0.8-0.8-5.3-0.8-5.3l-0.2-0.9c0,0-5.4,0.6-6.1,0.7c-0.6-0.5-9-7.5-10.2-8.5c0.9-1.2,5-6.1,5-6.1c0,0.1,6.6-2.8,6.6-2.8l1.4-0.7
	L117.1,117.8z M485.7,126.9c-1.5,0-3.1,0.4-4.7,1.1c-1.3,0.6-3.1,1.5-4.2,3.1c-1.4,1.9-2.2,4.5-2.5,7.3l-0.1,1.9l-0.1,1
	c-0.2-0.1-2.8,2.5-2.8,2.5l-0.5,0.5l3.3,6v0.2c0,1.2,0.3,6.9,0.3,6.9c-0.1,2.6-1.3,5.1-2.7,6.1c-1.9,1.3-4.3,1.5-6.8,1
	c-2.2-0.6-5.5-2.2-8.1-7.1c-2.9-6.3-1.2-10.9,0.9-13.7l0.7-1l-4.8-2.1l-0.5,0.6c-2.8,3.4-3.7,11.2,0.3,19c3.5,6.9,8,11.3,13.2,13
	c4.1,1.3,8.2,0.8,12.2-1.4c1.9-1,3.6-2.9,4.3-4.2c1.4-2.4,1.8-5.4,1.8-6.4l0.1-4.5l-0.2-2.5l3.2-3.2l-3.1-5.3v-0.3v-1.1
	c0-4,1.1-6.7,3.1-7.5c2.4-1.1,7.9-1,10.2,4.2c2,4.4,2.4,7.2,1.5,10.5l-0.2,0.8l4.6,1.8l0.3-1c1.5-4.9-1-11.3-2.6-14.8
	C498.6,132.1,492.5,126.7,485.7,126.9L485.7,126.9z M74.8,206.6L68,227.5H46l17.8,13L57,261.3l17.8-13l17.8,13l-6.8-20.9l17.7-13
	H81.5L74.8,206.6z M521.3,206.6l-6.8,20.9h-21.9l17.8,13l-6.8,20.9l17.8-13l17.8,13l-6.8-20.9l17.8-13h-22L521.3,206.6z M97.9,342.5
	l-1.1,1l-3.7,3.6c-0.1,0-4.4,1.5-4.4,1.5l-8.9,3.2c0-0.2-5.3-2.4-5.3-2.4l-0.9-0.3l-2.9,6.5c-0.7,0.3-14.8,5.4-14.8,5.4
	c0-0.1-4.8-0.3-4.8-0.3l-1.4-0.1l6,16.7l4.7-4.9c0.1,0.1,12-4.4,15.3-5.6l1.1,3.1l-17,18.8l4.7,13.5c0,0,4.3-6.5,4.3-6.6
	c0.3-0.3,13.8-14.5,14.8-15.5c4.2,4.8,10.1,7.1,15,5.2c3.3-1.3,5.6-3.6,6.9-7c1.8-4.6,1.5-11.3-0.9-17.7L97.9,342.5L97.9,342.5z
	 M505.1,350.8l-1.3,0.6c-3.5,1.8-6.6,6.3-8.6,12.6c-2.8,8.4-1.2,19.1,7.4,22.5c1.4,0.5,3.4,1.2,5.3,0.8c2.4-0.5,4.8-1.7,7.1-3.6
	l1.5-1.4l0.6-0.5c0,0.2,4,0.2,4,0.2h0.7l1.9-6.8c0.1,0,4.6-5.1,4.6-5.1c1.7-1.6,4.2-2.6,5.8-2.2c2.6,0.8,4.4,2.3,5.6,4.4
	c1.4,2.7,1.5,6,0.5,9.7c-2.2,6.2-6.6,8.1-9.9,8.7l-1.2,0.2l-0.1,1.2l1.8,4.6l1-0.1c3.9-0.4,10.5-4.9,13.4-14
	c2.2-6.9,2.2-13,0.1-17.8c-1.9-4.3-5.5-7.3-10.2-8.8c-2-0.7-4.5-0.5-6.1-0.1l0,0c-2.6,0.7-4.9,2.4-5.9,3.3l-3.2,3.1l-1.5,1.7
	l-4.6,0.1l-1.5,6.2l-0.6,0.6c-3.6,3.8-6,3.8-7.1,3.5c-2.3-0.9-6.3-4.4-4.4-9.7c1.5-4.3,3.2-6.6,6.1-8.2l0.7-0.4v-1L505.1,350.8z
	 M96.9,359.1c0.4,1.2,1.4,3.8,1.4,3.8c0.5,1.2,0.7,2.3,0.7,3.3c0,0.9-0.1,1.6-0.4,2.3c-0.7,1.8-2.2,3.2-4.4,4.1
	c-2.4,0.9-4.9,0.7-7-0.4c-1.5-0.8-2.6-2.1-3.3-3.8l-1.5-4.4L96.9,359.1z M472.1,426.8c-0.9,0-1.7,0-2.6,0.1
	c-4.9,0.7-10.5,4.3-15,9.5L442,451.1c0,0,6.4,1.9,6.5,1.9l0,0c0,0.1,10.4,9.3,10.5,9.4v0.3c0,1.2,0.5,5.5,0.5,5.5l0.1,0.9
	c0,0,6.4-0.6,7.1-0.6c0.6,0.5,12,10.3,12,10.3c0,0.2,2,4.3,2,4.3l0.6,1.3l11.6-13.4l-6.6-1.6c0-0.1-9.8-8.3-12.5-10.6l2.2-2.5
	c1.1,0.3,24.6,5.7,24.6,5.7l9.5-10.8l-7.8-0.6c-0.1,0-19.2-4.9-20.8-5.3c0.7-2,1.3-4.1,1.3-6c0-3.9-1.4-7.4-4.1-9.8
	C476.8,427.8,474.6,426.9,472.1,426.8L472.1,426.8z M143,431.8l-0.9,0.3l-19.6,6.9c0-0.1-5.9-1.5-5.9-1.5l-0.8-0.2
	c0,0-2.3,4.9-2.6,5.5l-16.4,5.5l0.1,0.1c-0.8,0-2.1,0.2-5,0.7l-2.3,0.4l10.1,11.5c0,0,2.3-4.9,2.6-5.5l7.2-2.9
	c0.8,0.9,10,11.3,10.6,12.1c-0.5,0.9-3.5,6.1-3.8,6.6l-5.9,1.7l13.1,14.9l1.6-7.6c0,0.1,3.4-5.5,3.4-5.5l5.3-8.9
	c0.1,0.2,5.2-1.8,5.2-1.8l0.7-0.3l-1.1-7.2c0.2,0,9.1-18.4,9.1-18.4l0.3-0.6L143,431.8z M465.8,437.8c1.5,0.1,2.9,0.8,4.3,1.9
	c1.9,1.6,3.1,4,3.1,6.2v0.1c0,1.6-0.6,3.3-1.7,4.5l-2.9,3.6c-1.3-1.1-10.3-9.4-11.5-10.4l2.6-3c1.4-1.7,3.1-2.7,4.7-3
	C464.7,437.8,465.2,437.8,465.8,437.8L465.8,437.8z M131.2,444.5c-1.7,3-6.4,11.1-7.3,12.8c-1.3-1.4-5.5-6.3-6.8-7.7
	C119,448.9,128,445.7,131.2,444.5z M229.7,473c-1.8,0.4-3.4,0.5-5.1,0.4c3.6,1.5,7.2,2.9,10.8,4.3
	C233.5,476.5,231.8,475.3,229.7,473L229.7,473z M193,475.3l0.1,1.5l0.4,6c-0.1-0.1-3.5,6.9-3.5,6.9l-2.4,5c-0.7,0.2-6.2,2.3-6.2,2.3
	s1.7,6.7,1.8,6.8c-0.2,0-4.6,9-4.6,9l-2.6,5.3c-0.1-0.1-4.1,2.9-4.1,2.9l-1.3,0.9l14.6,7.2l-0.9-7.3c0.1,0,9.3-18.4,12.6-25
	l7.2,41.9l6,3c0,0,9.8-19.9,9.8-20c0.1,0.2,5-2.1,5-2.1l0.7-0.3l-1.5-6.2c0.2,0,3.9-7.5,3.9-7.5l2.4-5c0.1,0,3.9-3,3.9-3l1.2-0.9
	l-14.1-7.2l0.7,7.2c-0.1-0.1-6.7,13.3-6.7,13.3s-1.9,3.9-3.2,6.6c-0.9-4.7-6.4-34.9-6.4-34.9L193,475.3z M405.5,478.7l-1.3,0.6
	l-33,14.3l5.8,4.3c0,0.3,5.3,12.8,5.8,13.8c-0.3,0.7-2.8,6.1-2.8,6.1l6.5,2.4l5.9,14.5c-0.1,0-0.5,5-0.5,5l-0.1,1.5l33.7-14.7
	l-4.4-10.1l-6.2,7.2c0-0.1-7.8,3.3-7.8,3.3l-4.3,1.8c-0.4-0.9-5.8-13.9-6.5-15.4c1.4-0.6,8.4-3.6,8.4-3.6l5.1-0.3l1.3-0.1l-4.4-10.8
	l-4.9,4.5l-8.1,3.5l-0.2,0.1c-0.6-1.4-4.7-11-5.4-12.5c1.3-0.6,12-5.1,12.5-5.3c0.5,0,9.1,0.5,9.1,0.5L405.5,478.7L405.5,478.7z
	 M307.2,505c-12.9-0.1-24.6,7.7-28.4,19.1l-0.7,2.4c0-0.1-3.7,3.7-3.7,3.7l-0.5,0.6l4.1,5.3c2.2,12.9,14.6,22.6,28.7,22.7
	c10,0.1,12.8-1.4,16.1-3l1.9-1l0.1-18.2c0.1,0,2.6-4.3,2.6-4.3l0.8-1.4l-18.8-0.1l3.2,6.2c-0.1,0-0.1,4.6-0.1,4.6v9
	c-1.1,0.3-2.2,1.3-5.9,1.3c-8.9-0.1-14.2-8-15.4-16c0.1-0.1,4-4,4-4l0.6-0.6l-4.2-4.9l0.3-1.5c1.8-6.3,6.8-13,15.3-12.9
	c6.1,0.1,10.6,1.6,12.8,4.2l0.8,1l1.5,1.9l0.3-9.7l-0.6-0.4C317.6,506.1,313.8,505.1,307.2,505L307.2,505z"/>
<path id="Stitches" class="st1" d="M281.6,110.4l-0.7,0.1c-1.2,0.1-2.4,0.3-3.6,0.4l0.2,0.1c1.4,0.6,5.8,2.3,6.4,3.3l2.2-0.3
	C286.3,114,283.6,111.8,281.6,110.4z M270.5,111.9c-1.6,0.3-3.4,0.6-5,0.9h0.1c3.1,0.9,5.9,2.6,9,4.2l3-0.3c0,0-2.8-2.4-6.8-4.6
	L270.5,111.9z M254.4,115.1c-2.2,0.6-4.5,1.2-6.8,1.8h0.1c1.4,0.3,4.4,0.9,5.5,2.1c3.4-0.6,5.7,1.1,7.8,2.2l5-1.6c0,0-6.6-3.2-9-3.3
	c-1.1-0.5-1.6-0.9-2.4-1.1L254.4,115.1z M238.3,119.8c-1.9,0.7-3.9,1.4-5.8,2l0.3,0.1c1,0.2,4.1,1,5.7,2.4c3.5-0.6,7,1.2,9.6,2.7
	l5.1-1.8c-0.6-1-7.2-3.8-10.8-3.9c-1.3-1-2.5-1.3-3.7-1.5H238.3z M226.5,125.6c-1-0.1-2,0.1-2.9,0.1h-0.4l-6.7,3h0.6
	c1.8-0.2,6.8-0.9,7.3,0.6c3.8-0.4,7.8,1.9,10.3,3.5l5.4-1.4c-2.9-2.6-8.2-4.7-11.3-4.5C228.4,125.9,227.5,125.7,226.5,125.6
	L226.5,125.6z M211.1,133.4l-6.5,3.6c0.9,0.1,6.4,0.2,7.1,1.7c3.8-0.3,7.9,1,10.3,2.5l4.7-3.6c-3.7-2-9.6-3.1-12.6-3
	C212.6,134.1,212.8,133.6,211.1,133.4L211.1,133.4z M194.7,143.6l-4.5,3.9c2.1,0.7,2.9,2.5,4.2,4.4c4.4-0.9,10.9-2.6,17.2-1.2
	l4.7-4.3c-7.2-1.3-14.7-0.9-18.6,0.1C196.9,145,194.7,143.6,194.7,143.6L194.7,143.6z M181.2,157.6l-3.8,3.5
	c2.1,0.7,2.9,3.1,4.3,4.9c3.7-1.8,11.7-3.1,19.8-2l4.2-5.4c-12.4-0.9-17.4,0.7-21.3,2.5C183.1,158.9,181.2,157.6,181.2,157.6z
	 M169.7,171.9l-3,4.6c2.7,1.4,2.4,3.3,3.8,5.1c3.7-1.8,11.2-5.3,19.3-4.3l4.2-5.4c-12.8,0.3-19.8,1.4-20.7,4.4
	C172,174.2,169.7,171.9,169.7,171.9L169.7,171.9z M159.5,185.9l-2.2,5.3c1.9,1.4,3.2,5.1,4.5,7c3.7-1.9,8.4-5.5,16.5-4.3l3.9-6.3
	c-10.3,0-17,2.1-18,5.1C162.9,189.6,159.5,185.9,159.5,185.9L159.5,185.9z M392.9,187.4v80h-26.1l15.1,14.3h24.7v-81.5L392.9,187.4
	L392.9,187.4z M151.3,200.7l-2.2,5.9c2.7,1.4,3.2,5.1,4.5,7c3.7-1.8,9.2-5.2,17.4-4.2l3.4-6.2c-10,0-16.8,2.1-17.8,5.1
	C155,204.3,151.3,200.7,151.3,200.7L151.3,200.7z M143.2,219l-1.8,6.1c2.7,1.5,4,5.1,5.3,7.1c3.7-1.8,8.2-4.9,16.3-3.8l2.6-5.9
	c-12.4,0.8-15.7,1.8-16.5,4.7C147.3,223.5,143.2,219,143.2,219L143.2,219z M269.5,222.7c-31.9,0-44.9,11-44.9,38.5v6.3h-31.5
	l14.4,13.4h30v-5c0-28,2.7-45.7,32.5-48.7v-4.4H269.5z M318.9,222.9v51.4c0,9.7,15.6,15.9,15.7,16l6.4,2.5c-4-3.1-7.7-7.3-7.7-12.7
	V228l2.4,0.2c9.6,0.8,16.4,3.4,21.4,7.1C349.2,227.2,336.4,222.9,318.9,222.9L318.9,222.9z M474.8,230.4L474,233
	c2.4,2.6,4.7,5.4,6.8,9.6l0.4,0.8c-1-3.2-2-6.4-3.2-9.5l-0.6-0.7C476.6,232.3,475.8,231.5,474.8,230.4L474.8,230.4z M135.8,236.3
	l-1.3,6.1c2.8,1.5,4,5.1,5.3,7c3.7-1.8,9.8-5.2,17.9-4.2l2-6.1c-12,0.7-17.2,1.9-18.2,4.9C140.4,241.8,135.8,236.3,135.8,236.3
	L135.8,236.3z M471.6,237.7l-1,2.8c3.5,3,5.8,5.4,7.9,10.7l1.3-2.7C477.7,244,476.5,242.8,471.6,237.7z M467.9,245.9l-1.7,2.7
	c4.6,4.2,6.7,6.5,8.9,12.5l1.1-2.3l-0.1,0.4c2.6,2.1,5.6,5.6,7.3,15.2l1.4-5.4c-0.5-6.9-7-14.5-7.8-12.2l-0.4,1.1
	C474.3,253.4,472.8,250.4,467.9,245.9z M480.9,246.9l-1.3,2.9c1.4,1,2.8,2.5,4.3,4.7l0.4,0.5c-0.5-2-1-4.1-1.5-6l-0.4-0.5
	L480.9,246.9z M462.8,254.3l-2.3,3.1c3.5,2.1,7.2,7.4,9.4,12.7l1.2-1.8c1.9,1.6,5.4,4.2,7.6,17.3l1.7-4.5
	c-1.9-12.5-7.7-17.1-8.2-14.3l-0.8,1l0.6-1C469.7,262.1,467,257.3,462.8,254.3L462.8,254.3z M130.4,254.4l-1.3,6.6
	c2.7,2.5,4.7,7.2,6.1,9.1c3.7-1.8,9.4-7,17.5-5.8l1.3-5.4c-11.9,0.9-13.7,2.2-16.6,5.7C136,262.2,130.4,254.4,130.4,254.4z
	 M455.7,263.6l-2.9,3.1c3.5,2.1,8.8,7.9,11,13.2l2.1-3.1C463.8,272.3,460,266.6,455.7,263.6z M446.6,273.2l-3.4,2.7
	c2.4,1.6,10.9,8.7,13,14l2.5-3.5C456.7,281.9,451.1,276.2,446.6,273.2z M125,274.6l-1,6.3c4.8,4.2,6.8,8.1,8.2,9.9
	c1.5-3.2,7.5-6.1,15.8-5.4l1.1-6c-9.8,0.6-14.1,2.1-15.4,4.9C132.3,282.1,125,274.6,125,274.6z M467.4,275l-0.4,0.2l-1.4,2.6
	c4.2,5.3,5.8,11.3,6.3,19.4l3-4.5C474.7,284.7,469.7,274.6,467.4,275z M461.9,283l-3,3.9c1.9,6.5,3.1,17.4,2,23.8l3.9-5
	C465.5,298.5,463.2,289.5,461.9,283z M436,283.4l-3.6,3.1c3.5,2.1,10.8,8.8,13,14.1l2.9-3.1C446.2,293.1,440.3,286.4,436,283.4
	L436,283.4z M341.5,293l-7.1,2c-0.2,0-15.5,4.4-15.5,14.9v61.3c0,4.2,1.7,7,10.1,7h4.4v-1.3v-18.6c4.4,3.8,8.9,7,12.3,7.3l1.5-0.9
	c0.1,7.4-0.6,11.9,1.3,17.1l-3.7-3.4v37.2H244.5l15.8,14.9h6.9c1.1,1.6,2.2,2.9,3.6,3.3l3.3-3.3h82.8v-40.8l-6-5.6l4.7-2
	c-3.6-3.8-3.4-14.7-3.1-20.7l-1.6,1c-6.7-1.1-13.8-7.7-17.1-12.3l-0.4,0.2v-34.7c0-12.6,17.4-17.3,17.4-17.3S346,296.4,341.5,293z
	 M426,293.2l-3.6,3.1c3.6,2.1,10.8,8.9,13,14.1l2.3-2.5c0.7,8.4,0.7,17.9-0.3,22.3l4.4-3.5c0.7-7.6,0.3-16.3-1.2-22.8l-3.1,2.2
	C435.1,301.9,429.9,296,426,293.2z M451.9,294.5l-3.3,3.3c1.1,2.8,1.9,6.3,1.1,23.3l4.2-3.9C453.9,304.4,453.2,301,451.9,294.5z
	 M121.7,296l-0.4,6.1c2.4,1.1,6.9,8.5,8.1,10.3c0.3-0.3,0.7-1.5,1.5-2.4c1.5-1.7,5.6-4.3,14.7-3.9l0.5-5.6
	c-10.4,0.1-13.7,2.7-14.6,3.7c-0.9,0.8-1.2,2.1-1.4,2.9C128.6,302.9,121.7,296,121.7,296L121.7,296z M414.3,302.8l-3.7,2.7
	c1.5,0.4,5.7,4.5,11.6,13.3l3.5-2.9c0.5,9.7,1.3,18.8,0.2,23.3l4.3-3.3c0.9-7.1,0.7-15.4-0.4-22.8l-4,2.5
	C420.6,308.1,417.3,304.8,414.3,302.8L414.3,302.8z M398.8,314.7l-5,3.1c2.2,1.7,12.5,13.4,17.2,11.7c0,0-2.1,14.6-1.7,22.1l5.5-3.5
	c-0.2-4,0.1-20.7,1.1-24.6c0.2-0.2-3.1,3.2-4.4,2.2C409.2,324.2,405.6,322.1,398.8,314.7z M120.4,315.2l0.1,6.7
	c2.7,1.6,6.9,5.9,8.1,7.7c1.6-2.8,3.6-4.4,15.8-1.7l0.1-5.8c-14.3-0.7-14.1,0.6-14.6,2.4C128.6,322.2,120.4,315.2,120.4,315.2z
	 M380.1,324.6l-6.8,3.7c4,4.1,16.8,14.3,19.5,14.4l0.4-0.3c0,8.6-1.1,13.1,2.2,19.7l6.2-2.6c-3.6-3.7-3.4-14.7-3-20.7l-0.2-0.4
	c-2.2,0.8-5,0.1-7.4-2C388.5,334.3,380.1,324.6,380.1,324.6z M120.4,335l0.4,6c3.2,0.8,7.1,2.7,8.4,4.5c3.7-1.8,8.8-1.7,15.3,1.7
	l-0.2-6c-7.8-3.5-11.9-2.9-14.7-1.2C128.2,337.9,120.4,335,120.4,335z M356.5,339.1l-6.2,2.6c5.6,5.9,13,12.3,18.1,12.9l1.5-0.9
	c0.1,8.8-1.1,13.2,2.2,20l6.2-2.6c-3.6-3.7-3.4-14.8-3.1-20.7l-1.6,1C367,350.2,359.8,343.6,356.5,339.1z M121.7,351l1.5,6.7
	c3.6,0.9,5.9,2.6,7.3,4.4c0.7-1.8,3-0.9,6,0.5c2.6,1.3,4.5,2.6,7.6,4.3l-0.2-6c-6.6-4.3-13.1-7.4-14-4.5
	C128.6,354.1,121.7,351,121.7,351L121.7,351z M124.8,366.4l0.9,6.1c2.9,1.2,5.1,2.8,6.5,4.8c3.1-0.4,5.9,0.8,12.6,5.6l-0.5-5.7
	c-6.9-5.7-10.1-5.4-12.6-5.4C130.3,369.4,124.8,366.4,124.8,366.4L124.8,366.4z M244.2,411.9l-1.9,2.1l1.9,0.9V411.9z M235.2,423.5
	l-2.7,4.1c6.7,3.5,13.1,3.8,18.9,3.8l0.4-0.5c2.4,5.3,4.7,10.9,10.6,13.1l3.4-3.9c-4.4-1.7-10-9.1-11-13.5l-0.4,0.6
	C247.8,428.4,240,425,235.2,423.5z M227.3,435.4l-2.4,4.4c6.7,2,12.4,2.4,19.7,1.5l0.4-0.7c2.7,4.9,3.4,7.8,10.2,11.9l3.4-3.9
	c-4.4-1.7-9.7-8.8-10.6-13.2l-0.7,1.2C240.4,438.3,232,436.8,227.3,435.4L227.3,435.4z M221.3,447.7l-2,4.5c7.2,2.4,13.8,3,18.7,1.9
	c2.5,4.1,5.1,7.9,11.1,10.2l2.1-3.9c-4.9-2-9.5-4.6-11.1-10.6C233.3,451.7,226.1,449.2,221.3,447.7L221.3,447.7z M217.4,458.1
	l-1.4,4.1c6.7,3.5,13.1,2.9,17.9,1.8c2.7,3.8,4.9,5.9,10.8,8.1l2.1-3.1c-6.3-0.8-8.8-4-11.6-8.2
	C228.6,462.6,222.2,459.5,217.4,458.1L217.4,458.1z"/>
</svg>
