<?xml version="1.0" encoding="utf-8"?>
<!-- Generator: Adobe Illustrator 25.2.3, SVG Export Plug-In . SVG Version: 6.00 Build 0)  -->
<svg version="1.1" id="Layer_1" xmlns="http://www.w3.org/2000/svg" xmlns:xlink="http://www.w3.org/1999/xlink" x="0px" y="0px"
	 viewBox="0 0 600 600" style="enable-background:new 0 0 600 600;" xml:space="preserve">
<style type="text/css">
	.st0{fill:#FFFFFF;}
</style>
<path id="Outline" class="st0" d="M600,264.8l-12.4-4.3l-6.8-2.3l2.4-28.9l0.8-9.7l-9.6,1.6l-25.6,4.3L545,216l-4.2-10.5l-8.1,7.9
	c-0.2,0.2-12.7,12.4-19.4,18.8c1.2-12.1,4.2-42.7,4.2-43.1l1.2-12.4l-11.5,4.7l-5.2,2.1c0.5-2.5,1-4.9,1.5-7.3
	c3.1-15.3,10.7-41.9,25.2-62.3c0,0-9.2-2.2-23.4,1.9c-4,1.2-0.3,0.1-0.4,0.1c4.7-11.2,25.7-40,25.7-40s-29.7-0.5-40.9,6.2
	c7-22.9,1.2-40.7,1.2-40.7l-23.1,26.8c-39.8,46.2-136.8,58.9-201,67.4c-26,3.4-46.5,6.1-59.1,10.3c-30.6,10-46.6,27.1-56.1,40.5
	l-6.1,2.6c-11.7,5-18.3,11.3-24.8,20.8C54.5,221,16.3,233.1,3.9,246.8l-0.8,1c-2.8,3.8-3.7,8.3-2.6,12.4c-0.4,3.6,0.3,8.9,6.6,13.9
	l0.4,0.3c15.1,10.9,60.1,28,113.9,38c24.1,4.5,34.5,8.1,49.9,22c76.5,69.3,114.1,173.4,131.2,224.1l19.1-35.2
	c64-112.2,126.6-164,127.4-164.7l13.3-12.1l0.4,0.7l6.7,12.9l6.7-12.9l2.5-4.8l49.8,4.1l17.9,1.5l-11.5-13.8l-6.2-7.5l61.6-53.1
	L600,264.8L600,264.8z"/>
<path id="Light_Blue" d="M182.9,227.6c0,0-3.5-8.8,1-17.7c1.8-3.5,5.1-6.8,9.5-9.4c33-22.1,102.8,0.6,102.8,0.6
	c-16.6-1.5-30.2-1.2-41.7,0.3c19.5,6,40.3,14.3,54.4,17.7c17.3,4.2,28.9,6.4,46.1,7.4l-0.6-6.8l9.6,1.6l25.6,4.3l3.8-9.5l4.2-10.5
	l8.1,7.9c0.2,0.2,12.7,12.4,19.4,18.8c-1.2-12.1-4.1-42.7-4.2-43.1l-1.2-12.4l11.5,4.7l12.6,5l18.9-30.9l6.4-10.5l6.5,10.5
	l15.2,24.9c5.3-21.6,9.1-44.6,20.3-55.2c-11.2,0.4-19,3.6-31.2,12.1c6.9-18.7,17.1-32.6,31-48.4c-13.4,2-26.2,5.9-38.8,13
	c4.8-11.4,5.1-25.6,5.1-25.6c-58.9,68.4-223.3,67.5-265.8,81.5c-27.9,9.2-42.2,24.4-52.2,39.4C158.4,212.8,169.6,227.6,182.9,227.6z
	"/>
<path id="Dark_Blue" d="M13.7,257.8c26.6-1.1,63.8-2.4,128.9-0.2c5.5,0.1,10.9,0.2,16.2,0.3c3.3-4.4,9.3-8.2,20.6-8.2h3.4
	c21.1,0.3,25.1,22,47.5,22s26.3-21.5,47.3-22c0.6,0,1.2,0,1.8,0H357l-1.1-12.9h-77.6c-21.5,0-25.3-22-48-22
	c-22.3,0-26.3,21.8-47,21.9c-22.4-1.4-31.3-20.1-33.1-36.1c-9.8,4.2-14.9,9.1-22.2,20.7c-80.2,13.3-107.6,26.1-114.8,34.1
	C12.2,256.8,12.7,257.5,13.7,257.8L13.7,257.8z M220.1,226c0.5-0.5,1.1-0.9,1.7-1.3l0,0c-1.6,6.4-0.7,11.8-0.3,14.6H214
	C213.8,234.4,216.3,229.3,220.1,226z M447.5,343.4c-5.8,4.2-78.6,58.9-141.3,180.7c-33.1-97.1-87.3-171.7-127.1-199.5
	c-18.2-12.8-29.9-19.7-55.4-24.5c-52.9-9.8-96.1-26.5-108.8-35.8c-3-2.3-2.3-3.4,0.5-3.4c2.9,0,6.2,0.1,9.7,0.1
	c46.4,1.5,87.3,5.8,124.7,11.2c-2.7,17.1,17.8,28.9,39.4,37.8c74.7,30.6,116,86.4,133.7,129.8c17.6-30.8,43.9-58.8,57.5-75.7
	l-26.5,0.2c6.1-16.8,18.9-38.5,32-58.5l24.1,20.8l-6.2,7.5l-11.5,13.8l0,0l17.9-1.5L447.5,343.4z"/>
<path id="Red" d="M575.7,228.7l-31.7,5.4l-6-15.3c0,0-20.4,19.9-23.1,22.5c-1.8,1.6-3.7,2.6-5.4,2.6c-2.7,0-4.6-2.4-4.1-8.2
	c0-0.5,0.1-1.4,0.2-2.5c1-10.5,4.3-44.8,4.4-44.9l-10,4l-8.5,3.4l-22.2-36.3l0,0L447,195.8l-18.5-7.4c0,0.1,3.3,34.4,4.4,44.9
	c0.1,1.1,0.2,1.9,0.2,2.5c0.5,5.8-1.4,8.2-4.1,8.2c-1.7,0-3.6-1-5.4-2.6c-2.7-2.6-23.1-22.5-23.1-22.5l-6,15.3l-31.6-5.4l2.8,34.8
	l-12.3,4.2l67.2,57.9l-11,13.2l3.9-0.3l21.6-1.8l29.4-2.4l2.9,5.6l0.6,1.2l1.3,2.5l2.5-4.8l2.3-4.5l54.8,4.5l-11-13.2l67.2-57.9
	l-12.3-4.2L575.7,228.7L575.7,228.7z"/>
</svg>
