<svg version="1.1" id="Layer_1" xmlns="http://www.w3.org/2000/svg" xmlns:xlink="http://www.w3.org/1999/xlink" x="0px" y="0px"
	 viewBox="0 0 600 600" style="enable-background:new 0 0 600 600;" xml:space="preserve">
<style type="text/css">
	.st0{fill-rule:evenodd;clip-rule:evenodd;fill:#FFFFFF;}
	.st1{fill-rule:evenodd;clip-rule:evenodd;}
</style>
<path id="Red_Circle" class="st0" d="M300,0C134.3,0,0,134.3,0,300s134.3,300,300,300s300-134.3,300-300S465.7,0,300,0"/>
<path id="Blue_Ring" class="st1" d="M300,16.7L300,16.7C143.5,16.7,16.6,143.5,16.6,300S143.5,583.4,300,583.4
	S583.3,456.5,583.3,300C583.4,143.5,456.5,16.7,300,16.7z M300,503.9c-112.6,0-203.8-91.3-203.8-203.9S187.4,96.2,300,96.2
	S503.9,187.4,503.9,300S412.6,503.9,300,503.9z"/>
<path id="Blue_Circle" class="st1" d="M300,108c-106,0-192,86-192,192s86,192,192,192s192-86,192-192S406,108,300,108"/>
<path id="White" class="st0" d="M300.8,29.9l-3.9,50.6l9.5,0.7l2.3-29.3L335,84.1l2.3,0.2l3.9-50.6l-9.5-0.7l-2.3,29.3l-26.3-32.2
	L300.8,29.9L300.8,29.9z M266.1,33.4l-9.9,1.4l7.2,49.6l9.9-1.4L266.1,33.4L266.1,33.4z M222.3,42l-9.3,3.6l9.5,24.6l-19,7.3
	L194,52.9l-9.3,3.6l18,46.8l9.3-3.6l-5.2-13.6l19-7.3l5.2,13.6l9.3-3.6L222.3,42z M389,47.5c-10.6,0-19.7,6.4-23.6,16.6
	c-5.2,13.7,1.5,28.1,15.7,33.6c4.1,1.6,7.8,2.3,11.6,2.3c2.9,0,5.8-0.5,8.8-1.5l0.6-0.2l6.9-18l-20.7-8l-3.3,8.6l11.9,4.6l-1.9,4.9
	c-3.2,0.6-6.6,0.1-10.5-1.4c-9.2-3.5-13-12.1-9.5-21.2c2.6-6.7,8.2-10.9,14.5-10.9c1.9,0,3.7,0.4,5.6,1.1c6.4,2.4,8.2,5.9,9.5,9.3
	l0.5,1.2l8.9-3.7l-0.4-1.1c-2.6-6.8-7.3-11.4-14.9-14.3C395.5,48.1,392.3,47.5,389,47.5L389,47.5z M442.6,71.5l-5.4,7.4l11.4,8.3
	l-24.1,33.1l8.1,5.9l24.1-33.1l11.4,8.3l5.4-7.4L442.6,71.5L442.6,71.5z M149,79.4c-2.8,0.3-5.5,1.5-8.1,3.4
	c-3.3,2.4-5.5,5.7-6.2,9.2s0.2,7.2,2.5,10.3c2.9,4,6.7,5.9,11.9,5.9c2.1,0,4.4-0.3,7.2-0.9l3.5-0.8c1.8-0.4,3.6-0.7,5.1-0.7
	c2,0,3.3,0.7,4.5,2.2c0.7,1,1,2.1,0.8,3.2c-0.3,1.7-1.6,3.5-3.6,5c-3.6,2.6-7.4,3-11.2,1l-1.1-0.5l-4.4,8.5l1.1,0.6
	c2.9,1.4,5.8,2.1,8.8,2.1c4.3,0,8.4-1.4,12.2-4.2c8.5-6.2,10.5-14.5,5.2-21.7c-3.1-4.2-6.9-6.2-11.9-6.2c-2.1,0-4.4,0.3-7.6,1
	l-3.5,0.8c-2.1,0.5-3.9,0.8-5.2,0.8c-1.8,0-2.9-0.5-4-2c-1.6-2.2-1.1-4.5,1.4-6.3s4.8-2,7.8-0.7l1.2,0.5l3.3-8.7l-1.1-0.5
	C154.6,79.5,151.7,79,149,79.4L149,79.4z M490.3,122c-5.8,0-11.3,2-16.1,5.8c-5.5,4.4-9,10.6-9.6,17.4c-0.7,6.7,1.4,13.4,5.7,18.8
	c5,6.3,12.4,9.9,20.1,9.9c5.8,0,11.4-2,16.1-5.8c5.5-4.4,9-10.6,9.6-17.4c0.7-6.7-1.3-13.4-5.7-18.8C505.3,125.6,498,122,490.3,122
	L490.3,122z M92.1,128.2l-1.2,1.6l25.6,49.4l6.5-7.9l-4.2-7.9l11.7-14.2l8.6,2.6l6.7-8.1L92.1,128.2L92.1,128.2L92.1,128.2z
	 M491.3,131.8c4.6,0,8.8,2.1,11.8,5.9c5.6,7,4.3,16.4-3.1,22.4c-3.3,2.6-7,4-10.7,4c-4.6,0-8.8-2.1-11.8-5.9
	c-5.6-7-4.3-16.4,3.1-22.4C483.8,133.2,487.5,131.8,491.3,131.8z M107.5,142.2l11.9,3.6l1.6,0.5l-6.9,8.4L107.5,142.2L107.5,142.2
	L107.5,142.2z M65.7,164.4l-4,9.3L84,193.2l-31.7,0.1l-0.8,1.9l21.9,22.9l-29.6-2.3l-4.1,9.7l53.7,3.4l0.8-1.9l-23.4-24.8h34l0.8-2
	L65.7,164.4L65.7,164.4z M543.2,182.2l-47.3,18.7l3.5,8.8l27.4-10.8l-17.2,37.3l-0.2,0.5l0.8,2.2l47.3-18.7l-3.5-8.8l-27.3,10.8
	l17.4-37.8L543.2,182.2z M105.9,401.1l-42.7,27.6l5.2,8l24.7-16l-9.7,40.5l1.3,1.9l42.6-27.5l-5.2-8l-24.7,16l9.7-40.5L105.9,401.1z
	 M499.4,406.8c-6.1,0-10.9,2.8-14.3,8.2c-2.2,3.5-2.9,7.3-2.2,10.8c0.7,3.5,2.9,6.6,6.2,8.6c2.4,1.5,4.8,2.2,7.4,2.2
	c3.6,0,7.3-1.4,12.2-4.8l2.9-2c2.5-1.7,4.6-3.1,6.6-3.1c0.9,0,1.8,0.3,2.7,0.9c1.1,0.6,1.7,1.5,2,2.6c0.4,1.7-0.1,3.9-1.5,6.1
	c-2.3,3.8-5.7,5.5-10,5.2l-1.2-0.1l-0.9,9.5l1.3,0.1c0.5,0,1,0.1,1.4,0.1c7.1,0,13.3-3.6,17.2-10c3-4.8,4-9.5,3-13.7
	c-0.8-3.4-3-6.3-6.3-8.4c-2.6-1.6-5.2-2.4-7.7-2.4c-4.1,0-7.9,2-12.3,5l-3,2c-3,2-4.9,3.2-6.6,3.2c-0.8,0-1.5-0.2-2.4-0.8
	c-2.3-1.4-2.7-3.8-1.1-6.4c1.5-2.5,3.6-3.6,6.7-3.6h1.5l-0.2-9.3L499.4,406.8L499.4,406.8L499.4,406.8z M451.2,457.8l-7.1,7
	l35.3,35.5l22-21.9L495,472l-14.9,14.8L451.2,457.8L451.2,457.8z M155.8,463l-50.2,24l7.7,6.7l8-3.9l13.8,12.1l-2.9,8.5l7.9,7
	l17.1-53L155.8,463z M142.8,479.2l-4,11.8l-0.5,1.6l-8.1-7.2l1.5-0.7L142.8,479.2L142.8,479.2z M181,484.3l-4.3,8.1l12.5,6.6
	L170,535.2l8.8,4.7l19.2-36.2l12.5,6.6l4.3-8.1L181,484.3L181,484.3z M410.6,487.3l-1.7,1l7.1,55.2l8.8-5.2l-1.2-8.9l15.8-9.3
	l7.2,5.3l9.1-5.4L410.6,487.3L410.6,487.3z M420.3,505.7l9.9,7.5l1.4,1l-9.3,5.5l-0.2-1.7L420.3,505.7L420.3,505.7z M374.2,506.7
	L365,509l7.3,28.5l-34.8-21.7l-0.4-0.3l-2.3,0.6l12.6,49.2l9.2-2.4l-7.3-28.5l34.9,21.7l0.4,0.3l2.3-0.6L374.2,506.7L374.2,506.7z
	 M234.3,508.6l-13.9,48.1l9.6,2.8l13.9-48.1L234.3,508.6z M290,517.7c-14.6-0.7-26.3,10.1-27,24.5c-0.6,14.4,10.2,26.2,24.6,26.8
	c0.4,0,0.8,0,1.3,0c14,0,25-10.5,25.7-24.5C315.2,530.1,304.4,518.3,290,517.7L290,517.7z M288.8,527h0.8c4.4,0.2,8.3,2,11,5.2
	c2.7,3.1,4,7.4,3.8,11.9c-0.4,9.5-7.2,16.1-16.3,15.7c-9-0.4-15.2-7.6-14.8-17.1C273.7,533.5,280.1,527,288.8,527L288.8,527z
	 M300.1,119.9C200.6,119.9,120,200.5,120,300s80.6,180.1,180.1,180.1S480.2,399.5,480.2,300C480.2,200.6,399.6,119.9,300.1,119.9"/>
<path id="Blue_W" class="st1" d="M305.6,267.6c9.9-23.5,29.5-29.2,29.5,0c0,31.8-15.9,69.5-29.7,92.8
	C292.2,334.2,294,295,305.6,267.6 M402.2,172c-25.8-20.6-49.2,5.2-49.2,19.9c25.8,5.5,48.8,31.3,38.5,98.3
	c-8.4,54.8-40.7,88.9-61.1,89.6c12.8-18.4,24.1-38.8,31.5-61.7c6.9-21.3,10.2-39.1,10.2-54.1c0-20.6-5.6-35.7-13.4-45.8
	c-3.9-5-8.2-8.8-12.7-11.3c-4.4-2.5-9.6-3.8-13.9-3.9c-10.6,0-21,4.3-29.2,11.2c-12.4,10.4-22.1,26.5-28.9,45.1
	s-10.6,39.7-10.6,60.3c0,16,2.3,31.7,7.6,45.5c3.2,8.4,7.5,16.2,13,22.9c-3.5,3.5-7.1,6.5-10.7,8.9c-7.7,5.3-15.5,8-23.1,8
	c-3.6,0-7.2-0.6-10.9-1.9c-5.2-1.9-8.7-5.3-11.3-11c-2.6-5.6-4-13.4-4-22.8c0-23.3,8.4-55.7,21.4-87.8c12.3-30.5,28.6-61,45.2-84.1
	c-3.6-0.1-8.3-0.2-11.1-0.2c-44,0-76,10.2-97.2,25.1c-21.2,14.9-31.6,34.6-31.6,53c0,12,4.4,23.2,12.9,31.6c4.7,4.9,11,7.7,17.4,7.7
	c5.2,0,10.1-1.9,13.8-5.4c4.2-4,6.4-9.5,6.1-15.6c-0.2-5.8-2.7-11.4-6.9-15.8c-2.6-2.7-5.7-4.8-9.1-6.1c2.3-4.2,5.9-8.4,11.1-12.3
	c7.5-5.7,18.3-10.6,32.9-13.2c-9.1,16-16.8,32-22.9,47.5c-11,27.9-17,54.4-17,77.3c0,15.6,2.8,29.7,9,41.3
	c6.2,11.6,15.9,20.7,28.9,25.7c5.9,2.3,12,3.4,18.1,3.4l0,0c11.9,0,23.7-4,35-10.8c9.2-5.5,18.2-12.8,26.7-21.5
	c17.9,9.7,59.5,13.7,91-42.5C435.5,299.2,436.9,199.9,402.2,172"/>
<path id="Red_W" class="st0" d="M382.8,170.4c-3.1-0.1-6.1,0.6-9.1,2.1c-6.6,3.2-11.6,9.5-13.6,15c15.9,5.3,40.1,21.8,40.1,72.6
	c0,9.2-0.8,19.5-2.5,31.1c-8,51.7-36.8,86.8-59.8,93.6c-6.4,1.9-12.2,1.5-17.1-0.9c14.6-19.7,27-43.3,35.6-67.7
	c26.5-77.5-6.9-107.1-23.6-107.1c-54.7-1.9-88.1,131.3-40.5,179.2C276,406,257,415.8,237.4,408.8c-44.3-15.9-4.5-135.2,42.1-205.6
	c-114.4,0-141.5,70.2-111.6,99.5c6.6,6.9,16.9,7.9,22.9,2.2c6.1-5.7,5.6-16-1-23c-3.7-3.9-8.4-5.9-13-5.9
	c4.8-16.7,24.6-34,63.4-37.3c-52.4,86.2-63.3,173.4-11.1,193.8c24.7,9.6,52.8-4.7,77.3-31.1c6.9,3.8,16.5,7.3,24.7,7.2
	c16.4-0.2,40.3-7.8,61.2-45c17.4-31.1,27.9-70.9,28.6-109.2c0.8-36.6-7.7-65.6-22.6-77.5C393.1,172.6,387.9,170.5,382.8,170.4
	L382.8,170.4L382.8,170.4z M325.6,242c29.4,0,13.6,79.6-20.2,129.5C276,332.1,293.4,242,325.6,242z M57.7,303l-5.4,16.7H34.8L49,330
	l-5.4,16.6l14.2-10.3L72,346.6L66.5,330l14.2-10.3H63.1L57.7,303L57.7,303z M542.3,303l-5.4,16.6h-17.5l14.2,10.3l-5.4,16.7
	l14.2-10.3l14.2,10.3L551,330l14.2-10.3h-17.5L542.3,303z"/>
</svg>
