<svg version="1.1" id="Layer_1" xmlns="http://www.w3.org/2000/svg" xmlns:xlink="http://www.w3.org/1999/xlink" x="0px" y="0px"
	 viewBox="0 0 600 600" style="enable-background:new 0 0 600 600;" xml:space="preserve">
<style type="text/css">
	.st0{fill-rule:evenodd;clip-rule:evenodd;}
	.st1{fill-rule:evenodd;clip-rule:evenodd;fill:#FFFFFF;}
</style>
<path id="Black" class="st0" d="M499.4,10.1H100.6H79.4v21.2v337.6c0,59,22.9,114.5,64.6,156.3c41.7,41.7,97.1,64.7,156,64.7
	s114.3-23,156-64.7s64.6-97.2,64.6-156.3V31.3V10.1H499.4z"/>
<path id="White" class="st1" d="M453.5,59.2v33.3L428,59.2h-11.6V128H428V81.9l25.5,33.2V128h11.6V59.2H453.5z M297.4,89.5
	c-3.9-1.1-7.3-2-10.7-2.9c-3-0.8-5.8-1.5-8.6-2.3c-1.3-0.4-2.7-1.3-2.7-3v-8.4c0-1.5,1.2-2.7,2.8-2.7h14.7c1.6,0,2.8,1.2,2.8,2.7
	v5.8h12v-8.4c0-6.1-5-11.1-11.1-11.1h-22.3c-6.1,0-11,4.9-11,11.1v13.9c0,6.8,6.1,9.5,10.8,10.9c4.4,1.3,7.6,2.1,11,3
	c2.5,0.6,4.9,1.3,8,2.1c2.4,0.6,2.7,2.1,2.7,2.9v11.2c0,1.5-1.2,2.7-2.8,2.7h-15c-1.6,0-2.8-1.2-2.8-2.7v-5.6h-12v8.3
	c0,6.1,5,11.1,11.1,11.1H297c6.1,0,11-4.9,11-11.1v-16.6C307.9,95.1,304.4,91.4,297.4,89.5z M384.9,128h12V59.2h-12V128z
	 M322.7,70.3H340V128h12V70.3h17.3v-11h-46.7v11H322.7z M167.6,72.9c0-1.5-1.2-2.7-2.8-2.7h-15.1c-1.6,0-2.8,1.2-2.8,2.7v20.5h20.7
	L167.6,72.9L167.6,72.9z M179.6,70.3V128h-12v-22.5h-20.7V128h-12V70.3c0-6.1,5-11.1,11.1-11.1h22.7
	C174.8,59.2,179.6,64.1,179.6,70.3z M231.7,59.2h12v57.7c0,6.1-5,11.1-11.1,11.1H210c-6.1,0-11-4.9-11-11.1V59.2h12v55
	c0,1.5,1.2,2.7,2.8,2.7H229c1.6,0,2.8-1.2,2.8-2.7v-55H231.7z"/>
<path id="Green" class="st1" d="M520.6,10.1h-21.2H100.6H79.4v21.2v337.6c0,59,22.9,114.5,64.6,156.3c41.7,41.7,97.1,64.7,156,64.7
	s114.3-23,156-64.7s64.6-97.2,64.6-156.3V31.3V10.1z M530.7,0v31.3v337.6c0,31.2-6.1,61.5-18.1,90c-11.6,27.5-28.3,52.2-49.4,73.4
	c-21.2,21.2-45.8,37.9-73.3,49.5C361.4,593.9,331.1,600,300,600s-61.3-6.1-89.8-18.2c-27.5-11.6-52.1-28.3-73.3-49.5
	s-37.8-45.9-49.4-73.4c-12-28.5-18.1-58.8-18.1-90V31.3V0h31.3h398.8H530.7z M105.6,368.9c0,42.3,13.5,81.4,36.4,113.4
	c83.6,0,135.9-27.1,135.9-98c0-25.7-13.3-30.2-29-30.2c-33,0-61.9,29.2-88.3,29.2c-17.6,0-29.8-7.4-36.7-10.6l6.6-14.5
	c0,0,15.1,9,27.2,9c12.8,0,25.7-8.3,25.7-8.3s-9.9-4.3-18-15.1c-4.9-6.6-8.3-16.8-9.6-25.3h16c2.2,10,9,29,29.8,29
	c7,0,22-7.7,30.3-7.7c-11.8-14.5-17.3-38.5-17.3-38.5s6.9-2.5,15-5.7c14.1,51.4,25.3,28.4,48.8,49.8l0,0c0-66,43.4-69.4,43.4-112.4
	c0-19.9-9.4-31-14.4-36.4L316,183c0,0,11,10.1,17.3,26.9c7.7-11.2,21.1-15.8,24.5-15.8v16c-7.8,0-19,11.9-20.6,28.7
	c-1.4,14.1-6.5,24.3-6.5,24.3s6.3-2.5,13.3-2.5c15.7,0,31.7,7,31.7,7c8.5-33.7,22.5-47,46.6-52.8v16c-13.8,4-23.9,13.3-31.4,42
	c0,0,15.1,6.2,29.3,6.2c10,0,19-2.1,26.7-12.6l14.9,5.8c0,0-7,22.8-35.5,22.8c-41.4,0-54.2-18.3-84.1-18.3
	c-19.5,0-47.6,16.6-47.6,74.1V372c0,0-0.3,58.5-0.3,60.4c0,64.9-13,110.5-20.1,129.6c8.4,1.1,16.9,1.7,25.6,1.7s17.2-0.6,25.6-1.7
	c-7.1-19.1-20.1-64.6-20.1-129.6c0-1.9-0.3-60.4-0.3-60.4c0-9,0-15,0-21.2c0-30.2,10-42.4,10-42.4c6.2,15,6,33.9,6,37
	c23.6-21.5,34.7,1.6,48.9-49.9c3.9,1.5,15,5.7,15,5.7s-5.5,24-17.2,38.5c8.3,0,23.2,7.7,30.3,7.7c20.8,0,27.7-19,29.8-29h16
	c-1.3,8.5-4.7,18.7-9.6,25.3c-8,10.8-18,15.1-18,15.1s12.9,8.3,25.7,8.3c12,0,27.2-9,27.2-9l6.6,14.5c-6.9,3.2-19.1,10.6-36.7,10.6
	c-26.4,0-55.3-29.2-88.3-29.2c-15.7,0-29,4.5-29,30.2c0,70.9,52.3,98,135.9,98c22.9-31.9,36.4-71.1,36.4-113.4V161H105.6V368.9z
	 M105.6,150.9h388.8V36.4H105.6V150.9z M424.9,517.9c-50.9-0.3-85.7-39.7-103-71.6c3.2,60.4,39.7,93.6,52.9,102.3
	C393.1,540.9,410,530.5,424.9,517.9z M278.1,446.3c-17.3,31.9-52.1,71.3-103,71.6c15,12.6,31.8,23,50.1,30.7
	C238.3,539.9,274.9,506.7,278.1,446.3z M95.5,26.3h408.9v342.6c0,112.9-91.7,204.8-204.5,204.8c-112.7,0-204.5-91.9-204.5-204.8
	V26.3H95.5z M173.5,295c41.4,0,54.2-18.3,84.1-18.3c9.1,0,17.5,3.3,24.6,9.1c1.3-1.8,6.2-8.9,11.2-14c-8.4-10.9-15.5-21.5-15.5-38.9
	c0-19.9,9.4-31,14.4-36.4l-8.6-13.6c0,0-11,10.1-17.3,26.9c-7.7-11.2-21.1-15.8-24.5-15.8v16c7.8,0,19,11.9,20.6,28.7
	c1.4,14.1,6.5,24.3,6.5,24.3s-6.3-2.5-13.3-2.5c-15.7,0-31.7,7-31.7,7c-8.5-33.7-22.5-47-46.6-52.8v16c13.8,4,23.9,13.3,31.4,42
	c0,0-15.1,6.2-29.3,6.2c-10,0-19-2.1-26.7-12.6l-14.9,5.8C137.9,272.2,144.9,295,173.5,295z M241.7,249.7l0.8,0.4l0.2-0.9
	c1.3-6.3,0.5-13-2.4-18.9c-2.9-5.8-7.7-10.6-13.5-13.4l-0.8-0.4l-0.2,0.9c-1.3,6.4-0.5,13.1,2.4,18.9
	C231.1,242.1,235.9,246.9,241.7,249.7z M165.5,256.1c4.4,4.8,10.3,8,16.7,9.1l0.9,0.1l-0.1-0.9c-0.5-6.5-3.1-12.7-7.5-17.5
	s-10.3-8-16.7-9.1l-0.9-0.1l0.1,0.9C158.5,245.1,161.1,251.3,165.5,256.1z M252.9,288.8l-0.8-0.4l-0.2,0.9c-0.1,0.3-0.1,0.7-0.2,1
	c-1.3,6-0.7,12.3,1.8,18c2.1,4.7,5.3,8.7,9.4,11.7c1.1,0.8,2.3,1.5,3.5,2.2l0.8,0.4l0.2-0.9c0.1-0.2,0.1-0.5,0.2-0.7
	c1.4-6.1,0.8-12.5-1.7-18.2C263.2,296.8,258.6,291.9,252.9,288.8z M201.8,314.3c-1.6-2-3.6-3.8-5.7-5.4c-1.3-1-2.8-1.8-4.2-2.5
	c-2-1-4-1.7-6.2-2.2l-0.9-0.2v0.9c0.1,6.5,2.4,12.8,6.4,17.9c4.1,5.1,9.8,8.6,16.1,10.1l0.9,0.2v-0.9
	C208.2,325.7,205.9,319.4,201.8,314.3z M135.6,343.5c4.5,4.6,10.6,7.6,17,8.5l0.9,0.1l-0.1-0.9c-0.7-6.4-3.6-12.5-8.1-17.2
	c-4.5-4.6-10.6-7.6-17-8.5l-0.9-0.1l0.1,0.9C128.1,332.7,131,338.8,135.6,343.5z M299.9,251L299.9,251L299.9,251l0.6-0.7
	c4-5.1,6.2-11.5,6.2-18s-2.2-12.9-6.2-18l-0.6-0.7l0,0l0,0l-0.6,0.7c-4,5.1-6.2,11.5-6.2,18s2.2,12.9,6.2,18L299.9,251z
	 M357.3,249.2l0.2,0.9l0.8-0.4c5.8-2.8,10.6-7.6,13.5-13.4c2.9-5.8,3.7-12.5,2.4-18.9l-0.2-0.9l-0.8,0.4
	c-5.8,2.8-10.6,7.6-13.5,13.4C356.8,236.1,355.9,242.8,357.3,249.2z M416.9,265.4l0.9-0.1c6.4-1.1,12.3-4.3,16.7-9.1
	c4.4-4.8,7-11,7.5-17.5l0.1-0.9l-0.9,0.1c-6.4,1.1-12.3,4.3-16.7,9.1c-4.4,4.8-7,11-7.5,17.5L416.9,265.4z M348.1,289.3l-0.2-0.9
	l-0.8,0.4c-5.7,3-10.3,8-12.9,13.9c-2.5,5.7-3.1,12.1-1.7,18.2c0.1,0.2,0.1,0.5,0.2,0.7l0.2,0.9l0.8-0.4c1.2-0.6,2.4-1.4,3.5-2.2
	c4.1-3,7.4-7.1,9.4-11.7c2.5-5.6,3.1-12,1.8-18C348.3,289.9,348.2,289.6,348.1,289.3z M408,306.4c-1.5,0.7-2.9,1.6-4.2,2.5
	c-2.1,1.5-4,3.3-5.7,5.4c-4.1,5.1-6.3,11.4-6.4,17.9v0.9l0.9-0.2c6.3-1.5,12-5.1,16.1-10.1s6.3-11.4,6.4-17.9V304l-0.9,0.2
	C412.1,304.7,410,305.5,408,306.4z M446.6,351.2l-0.1,0.9l0.9-0.1c6.4-0.8,12.5-3.8,17-8.5c4.5-4.6,7.4-10.7,8.1-17.2l0.1-0.9
	l-0.9,0.1c-6.4,0.8-12.5,3.9-17,8.5C450.3,338.6,447.4,344.7,446.6,351.2z M364.1,400.5v29.8c0,5,4.1,9.1,9.1,9.1H399v-10.2h-23.1
	c-0.5,0-0.9-0.4-0.9-0.8v-26c0-0.5,0.4-0.8,0.9-0.8H399v-10.2h-25.8C368.2,391.4,364.1,395.5,364.1,400.5z M211.9,439.4H201v-38.9
	c0-5,4.1-9.1,9.1-9.1H236v10.2h-23.1c-0.5,0-0.9,0.4-0.9,0.8v11.7h24V425h-24.1V439.4z"/>
</svg>
