<svg version="1.1" id="Layer_1" xmlns="http://www.w3.org/2000/svg" xmlns:xlink="http://www.w3.org/1999/xlink" x="0px" y="0px"
	 viewBox="0 0 600 600" style="enable-background:new 0 0 600 600;" xml:space="preserve">
<style type="text/css">
	.st0{fill:#FFFFFF;}
</style>
<path id="Navy" d="M300,0C134.6,0,0,134.6,0,300s134.6,300,300,300s300-134.6,300-300S465.4,0,300,0z"/>
<circle id="White" class="st0" cx="300" cy="300" r="278.4"/>
<path id="Blue" d="M442.1,431.9l47,34.2c83.3-94.7,83.3-237.4,0-332.1l-47,34.2c-3.3-3.5-6.7-6.9-10.2-10.2l34.2-47
	c-94.7-83.3-237.4-83.3-332.1,0l34.2,47c-3.5,3.3-6.9,6.7-10.2,10.2L111,134c-83.3,94.7-83.3,237.4,0,332.1l47-34.2
	c3.3,3.5,6.7,6.9,10.2,10.2l-34.2,47c94.7,83.3,237.4,83.3,332.1,0l-34.2-47C435.4,438.8,438.8,435.4,442.1,431.9L442.1,431.9z
	 M300,477.5c-97.9,0-177.5-79.6-177.5-177.5S202.1,122.5,300,122.5S477.5,202.1,477.5,300S397.9,477.5,300,477.5L300,477.5z"/>
<path id="Red" d="M289.1,280.5l-42.7-12.7l31.9,32.2l-31.9,32.2l42.7-12.6l10.9,44.9l10.8-44.9l42.8,12.6l-32-32.2l31.9-32.2
	l-42.8,12.7L300,235.6L289.1,280.5z M375.8,178.5H224.2l-45.7,45.7v53.5L156.2,300l22.3,22.3v53.5l45.7,45.7h151.7l45.7-45.7v-43.5
	h-46.1v29.5L362,375.3H238.1l-13.5-13.5V238.1l13.5-13.5h123.8l13.5,13.5v29.5h46.1v-43.5L375.8,178.5z"/>
</svg>
