<svg version="1.1" id="Layer_1" xmlns="http://www.w3.org/2000/svg" xmlns:xlink="http://www.w3.org/1999/xlink" x="0px" y="0px"
	 viewBox="0 0 600 600" style="enable-background:new 0 0 600 600;" xml:space="preserve">
<style type="text/css">
	.st0{fill:#FFFFFF;}
</style>
<circle id="Black" cx="300" cy="300" r="300"/>
<path id="White" class="st0" d="M288.3,108.5c-140,8.3-224.7,162.3-155.9,284.8c79.1,140.3,283.7,127.7,345.3-21
	C530.9,242.2,428.4,99.7,288.3,108.5z M449.3,189.4c81.8,109.9,18.8,268.7-115.7,293.6C180.6,510.8,62.4,349.3,136,212.1
	C201,92.3,367.4,80.6,449.3,189.4z M300,18.2c-370.4,6.4-370.4,557.3,0,563.6C670.4,575.4,670.4,24.5,300,18.2z M300,575.7
	c-360.6-1.6-360.5-549.9,0-551.4C660.6,25.9,660.5,574.2,300,575.7z"/>
<path id="Blue" class="st0" d="M286.6,132.6C165,142.1,93,276.9,153.9,383c73,125.8,258,107.5,305.2-29.9
	C497.7,240.3,405.2,122.5,286.6,132.6z"/>
<path id="Crown" d="M376.7,383.6c1.4,0.4-3.7,13.1-4.6,13.5c-6.4,3.7-16.7,5.7-24.3,7.2c-38,5.7-85,6.3-120.6-8.3
	c-0.3-0.1-5.2-13.3-4.2-13c1.3-1.7,3.2,0,7.4,0.7c35.4,8.9,73.9,10.4,110.2,5.8c8.8-1.1,19.5-3,28.1-5
	C373.3,383.8,375,382.2,376.7,383.6z M404.8,304.4c-13.3,36.4-19.8,62.1-24,64.3c-26.5,7.9-52.3,11.3-80.7,11.4
	c-28.4,0-55.4-3.9-81.7-12.5c-3-1.4-10.5-28.2-23.3-63.6c-14.4-47.1-28.4-67.3-14.6-63.8c4.1,4.7,8.1,12.1,13.2,16.4
	c17.7,14.3,12,4.3,11.9,26.9c0.2,4.3,0.2,4.7,1.1,5.3c1.9,1.3,9.6,5.1,12,5.9c19.9,7.4,27.9-4.9,31-23c4.1-18.9,1.1-16.5-8.9-30.4
	c-0.6-2.6,1.3-4.8,2.3-7.7c1.5-3.5,2.4-7.5,3-11.1c0.6-1.7,0-18.6,1.3-18.8c0.4-0.6,1.2-1.3,1.7-1.5c4.9-1.2,5.7,1.6,7.6,7.2
	c1.7,5,4.1,10.3,6.4,14c15.9,19.7,7.3,8.3,3.8,31.8c21.1,41.4,44.7,43.1,66.7,0c-0.6-4.4-2.3-10.8-4.2-14.7
	c-2.2-3.6-1.4-6.2,1.6-9.1c4.1-4.1,6.5-7.8,9.2-13.2c3.1-4.4,4.9-22.1,12.8-14.4c1.7,3.8,0.2,19.7,2.5,24.4
	c0.9,6.2,7.7,11.9,1.4,17.1c-5.1,5.7-9.7,10.1-7.5,18.4c3.5,31.1,15.3,42.6,44.3,25.2c1.7-1,1-11,0.8-13.5
	c-0.3-4.8-2.5-9.2,2.5-11.6c8-4.3,14.5-11.4,19.5-19.1c2.6-5,6.4-6.9,9.6-2.6C426,242.4,420.1,260,404.8,304.4z M249.7,348.3
	c0.2-13.5-20.1-13.8-20.2-0.2C229.3,361.1,249.6,361.4,249.7,348.3z M290.1,351.8c-1.7-12.9-20.8-11.6-20.3,1.5
	C270.5,367,291.1,365.2,290.1,351.8z M329.5,348.8c-5.1-11.5-22.5-5.4-19.1,6.8C314.7,369.1,334.6,362,329.5,348.8z M370.5,348.1
	c0-13.5-20.4-13.4-20.2,0.2C350.4,361.4,370.7,361.1,370.5,348.1z"/>
<path id="White_1_" class="st0" d="M282.4,89.3c-4.4-4-13.4-12.8-17.2-17.3c7-6.6,7.9-11,5.5-18.7c-5.7-9.9-15.3-9-26.1-6.9
	c-11.7,1.7-6.3,1.3-4.4,9.9c1.3,4.7,6.6,32.7,5.8,35.9c0,5.8,0.1,6,0.8,5.8c19.1-4.4,9.6-0.1,7.3-18.6c-0.6-3.1-1-5.6-0.9-5.8
	c5.1,4.3,15.6,15.7,21.9,18.7C282.4,91.7,287.3,93,282.4,89.3z M261.8,64.9c-1.4,2.9-5.9,6.5-8.9,7.1c-0.1-0.1-0.9-4.5-1.9-9.8
	c-1.6-10.7-4.4-12.5,5.4-10.2C261.5,53.8,264.3,60,261.8,64.9z M236.4,98.9c-6.3-3.3-32.1-28.4-37.4-33.7c-1.2-1.4-2.5-2.5-2.8-2.5
	c-0.8,0.1-5.3,2.2-6.7,2.9c0.5,8.7,1.5,49.1-0.4,55.7c-1,3.5,2.2,0.1,6.2-1.7l6-3.5c-1.5-3-2.3-6.9-2.2-9.1c1-0.6,16.8-7.8,20.6-9.5
	c3.7,3.7,4.3,4.9,5.6,7.5c-0.2,0.4,13.5-4.8,13.1-4.8C238.5,100.2,237.5,99.6,236.4,98.9z M199.3,98.7c-0.8-3-0.5-16-0.6-21.3
	c5.3,5.1,5.9,5.8,15.1,14.6L199.3,98.7z M143.5,94.2c-3,3.1-6.4,3.9-3.7,5.2c3.7,2,11.1,10.3,13.5,13.7c1.7-0.4-15.2,13.3-14.8,12.8
	c-4.4-4.3-9.7-11.3-12.2-17.3c-8.4,7.7-11.7,7.4-7.6,9.8c9,7.7,24.8,25.9,29.7,36.7c7.3-6.5,9.4-8.5,9.4-8.6
	c-4.7-3.1-11.1-9.9-14.8-14.6l15.1-12.8c16.9,17.5,5.7,22,22.4,9.7c-9.5-7.1-9.4-8.6-18.7-19.2c-7.8-9.6-10.1-11.4-13.6-19.4
	L143.5,94.2z M101.3,134.8c-41.6,33.1,21.3,79.1,37.5,27.4l-6.7-6.2c-4.9,43.6-60.6,5.7-25.6-15.1c2-1.2,3.3-1.1,3.7-1.8
	c-0.3-0.6-5.3-4.9-6.7-6L101.3,134.8z M297.3,40.7c2.1,8.7,1.3,15.5,0.9,27.8c-0.8,13.8-0.3,14.8-3,22.7c8.4,0.7,19.8,0.5,26.4,1.3
	c3.9-8.5,5-11,4.9-11.1c-5.3,1.6-13.7,3.6-19.6,3.8c0.4-8.4,0.4-34.3,3-41.8c0.4-1.3,0.7-2.5,0.7-2.5
	C310.7,40.9,296.9,40.2,297.3,40.7z M392.3,70.4c-6.9-29.7-54.4-27.2-54.1,5C339.4,113.3,397.7,109.6,392.3,70.4z M381.7,80.7
	c-6.5,25.7-38.4,13.4-32.6-10.2C355.3,44.6,387.2,57.5,381.7,80.7z M407.9,69.2c-7.9,7.4-0.4,1.4,12.3,8.8
	c-4.8,7.8-16.7,31.4-23.4,37.1c15.9,8.7,9.6,7.8,14.7-2.6c0.8-1.8,15.5-28.5,17-29.7c3.5,1.5,7.7,5.9,9.8,9.1
	c6.4-4.9,8.3-6.5,8.3-6.6c0-0.2-7.7-4.7-17.1-10c-9.5-5.4-17.3-9.8-17.4-9.8C411.9,65.4,410.1,67.1,407.9,69.2z M454,97.5l-4.7,2.9
	c8.8,3.2,10,3.8,15.1,8.2c-21.6,23.4-18.8,22.2-28.1,29.4c-1.3,0.8-2.3,1.6-2.3,1.7c-0.4,0,9.8,9.2,9.8,8.9
	c4.6-10.1,18.4-23.2,27.5-33.8c12,11.1,1.8,14.1,17.7,6.5c-22.9-20.4-29.7-26.4-29.9-26.5C458.8,94.8,456.6,96,454,97.5z M497,134.3
	c-7.6,8.6-28.6,24.7-39.2,29c-0.5-0.3,20.7,28.2,20.4,27.8c2.4,0.3,9-2,11.5-2.6c-8.4-5.7-14.6-12.6-19.5-19.8
	c-0.4-0.6,10.1-8.2,12.2-9.8c3.6,4.4,7.5,10.1,9.1,15.1c0.1,1.7,2.1,0.4,5.3,0.3c2.6-0.3,4.7-0.8,4.7-1c0.4,0.1-14-18.6-13.7-18.5
	c-0.2,0.2,12.4-9.6,12.3-9.2c0.1,0.1,1.1,1.4,2.3,3c3.8,4.5,5.8,11,7.3,16c0.3,0.1,9.5-1.9,9.7-2.2c0.2-0.1-4.4-6.8-10.2-14.7
	c-5.7-8-10.6-14.6-10.7-14.8C498.5,132.7,497.8,133.3,497,134.3z M85.8,233.8c-0.7-6.9-9-10.7-15.1-8.9c-6.1,1.5-8.6,11.2-9.8,16.4
	c0.9,0.8,18.2,5.5,22.3,6.7C85.1,240.8,86.5,239.1,85.8,233.8z M80.5,239.8c-0.4,2.9-2,0.8-7-0.2c-5.3-2-7.5-0.6-5.9-4.1
	C70.1,225.6,84.2,230.4,80.5,239.8z M58.6,252.1c-0.2,0.1-2.7,15.7-2.5,15.9c-0.5,0.1,23.3,4.1,22.9,3.9c0-0.1,0.6-3.5,1.3-7.5
	c0.6-4.1,1.3-7.9,1.4-8.4c1.2-1.5-3.9-1.2-4.3-1.4c-0.5,0.4-1.8,9-2.2,11c-3.4-0.2-4.5-0.3-4.7-0.5c-0.3-0.7,1.1-8.4,1.4-10.4
	c-2.1-0.4-2.8-0.5-4.4-0.8l-1.9,10.5c-6.3-0.8-3.5-0.1-3.2-6.4c0.5-3,0.9-5.6,0.8-5.7C62.9,252,58.3,251,58.6,252.1z M54.8,278.3
	c-0.4,4.5-0.6,13.4-1.2,18.1h5c0-4.4,0.1-4.5,0.5-6.8c9.1,0.5,11.7,0.7,18.3,1l0.2-5.3c-6.4-0.6-12.7-0.7-18.4-1.1v-7.1
	C55,277.1,55,277.1,54.8,278.3z M65.2,304.7c-5.3,0.4-10,0.7-10.5,0.7c-1.8,0.2-0.4,4.1-0.3,5.3c8.1-0.5,9.3-0.6,14.5-0.9
	l-14.1,10.4c0.2,4,0.3,5.2,0.4,5.3c1.1,0.2,19-1,23.3-1.3c-0.2-3.8-0.4-5-0.5-5.1c0.1-0.2-14.1,0.7-14,0.5c-0.7,0,15.5-11.2,13.4-11
	c-0.2-0.8-0.2-3.5-0.2-4.7C75.4,304,70.5,304.3,65.2,304.7z M68.7,334.2c-6.7,1.1-9.8,1.6-12.1,2c0.6,3.7,0.8,4.9,0.9,5
	c-0.3,0.4,23.1-3.3,22.7-3.5c0.2-0.1-0.1-5.9-1-5.2C78.9,332.6,74.1,333.3,68.7,334.2z M70.2,349.1c-10,3.4-12.3,0.7-9.5,8.6
	c-0.3,0.1,18.3,2.4,18,2.4c-0.5,0.6-11.8,9.1-14.4,11.1c1.2,4.2,1.6,5.4,1.6,5.5c-0.4,0.3,22.9-6.1,22.4-6c-1.1-6.2-0.7-5.3-7.4-3.4
	c-2.9,0.7-6.2,1.9-4,0.3c1-0.6,7-5.3,8.9-6.8c-0.9-3.3-1.3-4.4-1.4-4.6c-0.1-0.3-11.6-1.8-11.8-1.8c1-1.3,8.9-2.5,10.6-3.3
	c-1.2-4.1-1.5-4.7-2-4.7C80.7,346.3,75.8,347.5,70.2,349.1z M520,226.1c-4.9,3.1,0.2,10.8,4.9,7.4
	C529.9,230.4,524.8,223.1,520,226.1z M531.6,244.8c-2.1,0.6,0.8,4.2,1,5.9c7.7-1.6,5,9.5-1.1,4.8c-1.3-1-8.6-6.6-11.1-8.6
	c-2.8,0.4-3.5,0.7-3.5,0.9c0,0.3,0.7,3.9,1.5,8.1c1.3,5.1,0.9,8.1,2.4,9.3c0.6,0,3.1-0.6,4.1-0.8c-1.3-6.7-1.6-8.8-1.5-8.9
	c2.7,1.3,7.6,6.3,11,6.5C546.8,263.5,542.8,240.9,531.6,244.8z M545.6,280.1c-2.5-6.4-11.6-8.3-17.3-5.4c-1.7,0.9-3.9,3.1-4.9,4.9
	c-1.2,1.6-1.2,10.1,0.3,11.7C531.7,304,551.2,294.5,545.6,280.1z M540.5,288.2c-4.4,6.2-17,1.6-12.3-6.3
	C532.7,276.3,545,280.4,540.5,288.2z M522.7,307.3c0,0-0.3,4.1-0.6,8.9c-0.5,7-0.5,8.9-0.2,9s1.3,0.2,2.3,0.2c2.8,0.3,2-2.1,2.3-3.9
	c0-1.4,0.3-3.7,0.5-5.2c12.7,20.2,23.3,5.2,16.9-5.6c-1.4-1.8-4.6-2.9-6.7-2.2c-0.7,0.2,0.2,4.7,0.1,5.2c0.1,1.2,1.8,0.2,2.6,1
	c2.3,1.4,1.4,6.1-1.5,5.9c-3.5-0.3-8.9-9.7-12.1-13.4C523.6,307.2,522.7,307.3,522.7,307.3z M518.2,344.5c-1.2,8.1-4,10,2.8,9.7
	c0.3-0.5,1.5-7.6,1.8-8.1c0.3-1.5,5.3,8.4,5.6,8.2c11.8,11.8,20.2-16,5.1-15v5.9c6.3-0.7,2.7,9.4-1.7,5.2
	c-0.9-0.5-7.9-13.3-8.7-13.7c-0.6-0.3-2.4-0.6-3.2-0.8L518.2,344.5z M519.9,367.4c-5.3,3.2,0.4,11.1,5.1,7.2
	C529.3,371.4,524.3,364.4,519.9,367.4z M508.4,435.8c-0.7-5.1-5.8-9.3-11.1-7.7c-2.5,0.2-3.3,2.3-3.6-1c-0.4-4.1-3.2-7.3-7.3-7.8
	c-7.9-1.3-13.9,10.4-17.9,15.4c6.7,3.1,24.2,16,29.1,21.9C500.9,451.7,509.8,442.5,508.4,435.8z M488.1,430.8c0,1.5-1.8,5.6-2.7,6.4
	c-0.3,0.3-9.1-6.3-9-6.6c0-0.2,0.5-1.1,1.3-2.1C480.6,424,488.9,424.4,488.1,430.8z M502.4,443.2c-0.4,0.9-1.3,2.4-3.1,4.8
	c-2.1-1.6-10.2-7.6-11-8.2C491.9,431.3,506.3,431.7,502.4,443.2z M457.5,447.2l-3.4,3.2c7.1,5.6,27.6,19.6,16,27.8
	c-6.4,2.6-7.2-0.3-13.7-6.3c-5.4-5.8-7.9-7.7-10.5-13.1c-3.9,3.2-4.6,4-7.1,6.5c7,3.7,17.1,17.3,23.6,20c8.3,3.4,14.8-5.1,16-12.5
	l2.3,2.6l5.8-5.3c-7.9-4.9-20.2-18.1-25.1-25.6C460.9,444.1,460.3,444.6,457.5,447.2z M420.3,478.6l-3.7,2.6
	c8.2,8.6,17.2,20,20.9,29.9c11.8-8.4,15.2-10.9,15.2-11.1c-2.8-11,0-9.5-7.7-1.3c-1.9,1.9-3.5,3.5-3.5,3.5s-3.3-4.4-7.1-9.8
	c-5.1-7.5-8.2-11.2-9.6-15.8C424.5,475.2,422.7,477.2,420.3,478.6z M405.5,488.3c-37.9,10.9-8.5,59.5,17.6,29.2
	c-1.9-4.3-2.5-5.6-2.6-5.7c-2.9,4-7.7,9.6-13.6,9.2c-17.4-1.9-18-27.2,2.1-27.3c2.6,0.2,0.9-0.5,0.1-3.1
	C407.6,487.6,408.5,487.5,405.5,488.3z M115.3,416.4c-6.5,6-19.8,15.4-27.9,18.5c0.1,0.5,4.2,6.5,5.1,8c3.8-3.7,10.1-10.3,12.6-9.5
	c0.6,0.8,3.1,5.7,3,6.8c0,0.7,0.2,0.8,1,0.7c1.1-0.2,4.4-0.6,5.4-0.8c1.8,0.7-6.4-10.3-5.9-10.1c-0.1,0.1,9.6-6.6,9.6-6.3
	c1.6,1.9,3.2,6,4.1,8.6c3.9-0.2,5.5-0.3,6-0.5c1-0.3,0.9-0.4-4.6-8.3c-3-4.4-5.7-8.3-6-8.6C117.3,414.3,117,414.5,115.3,416.4z
	 M151.8,462.9c-1.4-23.3-35.5-26-38.4-2C113,486.8,151.4,489.7,151.8,462.9z M144.3,465.9c-4.5,15.1-25.8,13.3-23.9-3.5
	C123.6,443.7,149.2,445.9,144.3,465.9z M189.3,491.1c-6-24.1-41.8-19.1-38,6.4C157.2,521.2,193,516.3,189.3,491.1z M182,496.3
	c-3.4,16.6-25.7,14.4-23.8-3C160.9,474.6,184.9,477.4,182,496.3z M200.2,495.5l-2.4,2.9c6.2,0.7,7.3,0.8,10.9,2.1
	c0.7,0.3,0.5,0.8-3.1,9.3c-4.1,8.9-5.2,13.5-10,19.4l8.8,3.7c1.1-8.8,8.2-21.8,11.2-29.6c4.3,2.3,5.2,3.3,7.7,5.8l5.7-5.2
	c-19.5-8.5-25.4-11-25.7-11.1C202.8,492.6,201.9,493.5,200.2,495.5z M342.9,511.1c-4.1,1.4-5.4-0.2-3.4,3.4
	c2.6,5.6,6.7,23.7,6.8,29.5c0.1,3,0.1,3.6,0.6,3.6c1.2-0.1,14.2-3.2,17.6-3.9c1-5.4,1.3-7.4,1.3-7.8c0-0.8-0.1-0.8-2.7,0.8
	c-3,1.6-7,4.1-10.1,4.2c-4.6-20-5.1-22.7-5.3-26.3C347.4,508.6,348.4,510.2,342.9,511.1z M312.9,515.1c-3.5,0.3-4.2,0.5-4,1
	c2.3,6.3,4.1,26.3,3.2,33.5c-0.2,1.1-0.3,2.1-0.3,2.2c1.3,0.1,17.7-1.2,18.6-1.6c1.9-6,2.4-7.8,2.3-7.9c-2.6,0.9-10.2,3.7-13,4
	c-1-2.5-2.9-30.9-1.6-31.2C317.4,514.1,315.7,515,312.9,515.1z M297.3,547.8c-1.8-4.1-9.9-28.8-11-32.8c-0.3-0.1-4.6-0.5-5.6-0.5
	c-3.9,9-12.5,24.1-17.9,32.4c-1.6,2.1-1.9,2.6-1.3,2.7c0.9,0.2,6.9,0.6,8.8,0.7c0.8-3,1.4-7.3,3.7-7.5c0.6-0.1,13.8,1.1,14.4,1.1
	c4.3,10.3-2.8,7.5,11.6,8.7C298.6,550.3,297.7,548.8,297.3,547.8z M286.7,538.3c0.1,0.1-10.8-0.7-10.6-0.9
	C283.5,522.7,282.3,521.1,286.7,538.3z M257.5,515.8c-2.6-6.3-14.8-8-20.4-9.5c-0.7,6.8-5.1,26.3-8.7,33c-0.8,1.4-1,2-0.6,2.1
	c2,0.6,14.4,4.3,16.3,3.7c10.9,0.7,15.2-10.5,7.4-17.6C257.1,526.2,259.4,520.7,257.5,515.8z M248.8,536.1
	c-0.7,5.2-9.3,6.1-12.5,3.3c0-0.3,0.8-3.3,1.7-6.6c1.3-3.7,1.2-6.3,2.1-6.4C243.9,527.5,250.2,531.2,248.8,536.1z M250.6,521.6
	c-1.7,2.4-7.3,1.9-9.6,1.5c-0.3-0.2,2.5-10.5,2.6-10.7C247.7,510.9,254.1,517.5,250.6,521.6z"/>
</svg>
