<svg version="1.1" id="Layer_1" xmlns="http://www.w3.org/2000/svg" xmlns:xlink="http://www.w3.org/1999/xlink" x="0px" y="0px"
	 viewBox="0 0 600 600" style="enable-background:new 0 0 600 600;" xml:space="preserve">
<style type="text/css">
	.st0{fill:#FFFFFF;}
</style>
<path id="Outline" class="st0" d="M300,0L99.2,169.3c0,140.3,87.6,321.2,200.8,430.7c113.2-109.5,200.8-290.5,200.8-430.7L300,0z"/>
<path id="Red" d="M300,15.5L111.1,174.6c2.1,130.2,80.3,297.6,188.8,407.1c108.5-109.5,186.8-277,188.9-407.1L300,15.5z"/>
<path id="Blue" class="st0" d="M300,42.2L122.6,178.6c7.3,153.5,116.2,311.2,177.4,372.2c61.1-61.1,170.1-218.7,177.4-372.2
	L300,42.2z"/>
<path id="Gray" class="st0" d="M300,76.2L135.7,183.7C142.5,338,245.9,460.8,300,514.9c54-54,157.5-176.9,164.3-331.2L300,76.2z"/>
<path id="White_Highlights" class="st0" d="M347.6,320L300,271l-47.6,49l-8.9-7.7l-42,43.6c2,3.4,4.1,6.7,6.2,10l39.8-47.3l8.1,8.2
	l44.4-52.2l44.3,52.4l8.1-8.2l39.8,47.3c2.1-3.3,4.2-6.6,6.2-10l-42.2-43.6L347.6,320z"/>
<path id="Red_2_" d="M300,84.8L145,186.3c0.5,12.6,1.8,25.2,3.7,37.7c10.7,46.5,28.5,91,52.9,132l42.2-43.6l8.9,7.7l47.4-49l47.6,49
	l8.9-7.7l42.2,43.6c24.3-41,42.1-85.5,52.6-132c1.9-12.5,3.1-25,3.7-37.6L300,84.8z"/>
<path id="Blue_1_" d="M352.5,318.4l-8.1,8.2L300,274.4v41.9v1.3c-22.7,0-41,18.4-41,41c0,22.7,18.4,41,41,41v11v54
	c36.7-27,68-60.6,92.4-99.1L352.5,318.4z"/>
<path id="White" class="st0" d="M212.8,230.3l9.4-2.7c5.2-1.7,8.9-6.4,9.2-11.9V172c0.2-3.7-2.6-6.8-6.3-7c-1,0-2,0.1-2.9,0.5
	l-9.4,2.7c-5.2,1.7-8.9,6.4-9.2,11.9v43.6c-0.2,3.7,2.6,6.8,6.2,7C210.8,230.8,211.8,230.7,212.8,230.3 M211.9,179.2
	c0.1-1.7,1.3-3.2,2.9-3.8l5.3-1.6c1.1-0.4,2.4,0.1,2.8,1.2c0.1,0.3,0.2,0.6,0.2,0.9v41.2c-0.2,1.7-1.3,3.2-3,3.8l-5.3,1.5
	c-1,0.5-2.3,0-2.7-1c-0.1-0.3-0.2-0.7-0.2-1V179.2z M291.4,207.7v-43.6c0.1-4.6-3.6-8.4-8.2-8.5h-0.9l-9.4,0.7
	c-5.1,0.5-9.1,4.7-9.2,9.8v43.7c-0.1,4.6,3.7,8.4,8.3,8.5l0,0h0.8l9.4-0.7C287.4,217.2,291.3,212.9,291.4,207.7 M274.9,210.6
	c-1.5,0.2-2.8-0.9-3-2.3l0,0V167c0-1.7,1.3-3,3-3.2l5.3-0.4c1.5-0.1,2.8,0.9,2.9,2.4c0,0.1,0,0.2,0,0.3v41c-0.1,1.6-1.3,2.9-2.9,3.1
	L274.9,210.6z M419.7,180.6l-9.4-4c-5-2.2-9.2,0-9.2,5.2v43.6c0.4,5.8,3.9,10.9,9.2,13.3l9.4,4c5,2.2,9.2-0.2,9.2-5.2v-43.8
	c-0.4-5.8-3.9-10.9-9.2-13.3 M420.6,232.3c0.1,1-0.7,2-1.8,2c-0.4,0-0.8-0.1-1.2-0.3l-5.3-2.4c-1.7-0.7-2.8-2.3-3-4.2v-40.7
	c-0.1-1,0.7-2,1.8-2c0.4,0,0.8,0.1,1.2,0.3l5.3,2.4c1.7,0.7,2.8,2.3,3,4.1V232.3z M196.3,182.9c0-5-4.1-7.4-9.2-5.2l-6.8,2.9
	c-5.2,2.4-8.7,7.5-9.2,13.3v43.5c0,5,4.1,7.4,9.2,5.2l6.8-2.9c5.2-2.4,8.7-7.5,9.2-13.3v-4l1.2-1.3v-0.9l-10.8,4.4v1.3h1.2v2.9
	c-0.1,1.9-1.2,3.6-2.9,4.4l-2.7,1.1c-0.8,0.6-2,0.4-2.6-0.4c-0.2-0.4-0.4-0.8-0.3-1.2v-41.2c0.2-1.8,1.3-3.4,2.9-4.2l2.7-1.3
	c0.8-0.6,2-0.4,2.6,0.4c0.2,0.4,0.4,0.8,0.3,1.2v5.4l-1.2,1.3v0.8l10.8-4.8v-0.8l-1.2-0.2V182.9z M257.6,211.4l-0.9,0.1l-0.8,1.4
	l-9.1,1.6v-52.7l1.2-1v-0.9l-10.8,2v0.8l1.3,0.6v58.6l-1.3,1v0.8l20.2-3.7v-8.6H257.6z M395.1,223.1v-43.6c-0.3-5.4-4-10.1-9.2-11.6
	l-19.8-5.3v0.8l1.2,1.1v58.6l-1.2,0.5v0.9l19.8,5.3c3.5,1.3,7.4-0.5,8.8-4C395,225,395.1,224,395.1,223.1 M383.9,221.7l-8.3-2.1v-47
	l8.3,2.2c1.7,0.5,2.8,2,2.9,3.7v41c0.1,1.2-0.9,2.2-2.1,2.3C384.4,221.9,384.2,221.9,383.9,221.7 M326.4,217.3l-1.9-1.2l-6.8-23.3
	c3.7-1.2,6.2-4.6,6.2-8.4v-19c0-5.1-4-9.3-9.2-9.5l-17.2-0.9v1l1.2,0.8v58.8l-1.2,0.8v0.8h10.8v-0.9l-1.2-0.8v-22.6h2.6l7.1,24.5
	l9.5,0.7v-0.7L326.4,217.3z M315.6,182.8c0,1.5-1.2,2.8-2.8,2.8H307v-22.1l5.7,0.2c1.6,0.1,2.9,1.4,2.9,3V182.8L315.6,182.8z
	 M349.3,220.3v1.1l10.8,2v-0.9l-1.4-1.1v-51.1c-0.2-5.2-3.9-9.6-9-10.6l-6.9-1.1c-4.2-0.7-8.1,2.1-8.8,6.3c-0.1,0.5-0.1,1-0.1,1.4
	v51l-1.2,0.6v0.9l10.8,1.4v-0.7l-1.2-1v-20.7l8.6,1.4v20.6L349.3,220.3z M342,190.1v-21.2c-0.1-1.3,0.9-2.4,2.2-2.5h0.1h0.5l2.7,0.5
	c1.7,0.3,2.9,1.7,2.9,3.4v21.2L342,190.1z M317.7,238.3v-0.4h-7.4v0.4c0.5-0.1,0.9,0.2,1,0.7v16.7c-0.1,0.5-0.6,0.7-1,0.7v0.6h7.4
	v-0.5c-0.5,0.1-0.9-0.2-1-0.7v-16.7C316.8,238.6,317.2,238.4,317.7,238.3 M327.4,256.2v0.6h11.9c5.2,0,9.3-4.2,9.4-9.3
	c0-5.2-4.2-9.3-9.3-9.4l0,0h-11.9v0.4c0.4-0.1,0.9,0.2,1,0.7v16.7c-0.1,0.4-0.5,0.7-1,0.7 M333.9,242.3h4.4c2.8,0.3,4.9,2.9,4.5,5.8
	c-0.3,2.4-2.2,4.3-4.5,4.5h-4.4v-10.5V242.3z M296,250.2c3.4-0.2,6-3.1,5.8-6.5c-0.2-3.1-2.7-5.6-5.8-5.8h-13.3v0.4
	c0.5-0.1,0.9,0.2,1,0.7v16.7c-0.1,0.5-0.6,0.7-1,0.7v0.6h7.3v-0.5c-0.5,0.1-0.9-0.2-1-0.7v-5.3L296,250.2z M288.9,242.1h5.9
	c1.1,0.2,1.8,1.2,1.7,2.3c-0.1,0.9-0.8,1.5-1.7,1.7H289v-4H288.9z M244.7,244.1c0-3.4-2.8-6.2-6.2-6.2h-14.3v0.5
	c0.5-0.1,0.9,0.2,1,0.6v16.7c-0.1,0.5-0.6,0.7-1,0.7v0.6h7.4v-0.5c-0.5,0.1-0.9-0.2-1-0.7v-5.3h3.6l3.8,5.3c0.2,0.4,0,0.7-0.6,0.7
	v0.4h7.4v-0.4c-0.6,0-1.1-0.3-1.5-0.7l-3.8-5.4c3-0.5,5.2-3,5.3-6.1 M237.5,246.2h-6.9v-3.9h6.9c1.1,0.2,1.8,1.2,1.7,2.3
	C239,245.5,238.3,246.1,237.5,246.2 M268.2,256.2v0.6h6.5v-0.5c-0.3-0.1-0.6-0.3-0.8-0.6l-6.5-16.7c0-0.4,0-0.6,0.8-0.6V238h-9.5
	v0.5c0.6,0,0.9,0.3,0.8,0.6l-6.3,16.7c-0.2,0.3-0.5,0.5-0.8,0.6v0.5h6.4v-0.5c-0.6,0-0.9-0.3-0.8-0.7l1.2-3.1h8.9l1.2,3.1
	c0,0.4,0,0.7-0.8,0.7 M260.1,249.9l3.4-8.9l3.5,8.9H260.1L260.1,249.9z M357.8,249.3l-2.6,6.3h0.4c0.2-0.2,0.4-0.4,0.7-0.5
	c3.1,1,6.3,1.5,9.5,1.5c4.8,0,9.8-1.2,9.8-6.3c0-7.9-14.3-4.4-14.3-7.1c0-1.3,2.2-1.9,3.7-1.9c5,0,7.9,1.3,7.4,2.2l0.5,0.1l2.4-5
	H375c-0.2,0.3-0.5,0.6-0.9,0.6c-2.9-0.8-5.9-1.3-8.9-1.5c-4.8,0-8.9,2.1-8.9,5.5c0,7.9,14.3,4,14.3,7.1c0,1.5-1.5,2.1-4.4,2.1
	c-6.8,0-8.1-2.2-7.7-3.1L357.8,249.3z"/>
<path id="Black" d="M300,411c26.1,0,47.4-21.1,47.4-47.3c0-26.1-21.1-47.4-47.3-47.4c-26.1,0-47.4,21.1-47.4,47.3
	C252.7,389.7,273.9,410.8,300,411 M398.5,356c-2,3.4-4.1,6.7-6.2,10c-24.4,38.4-55.7,72-92.4,99c-36.7-27-68-60.5-92.4-99
	c-2.1-3.3-4.1-6.6-6.1-10c-24.3-41-42.1-85.5-52.7-132C168.3,352.1,253.6,454,300,500.4C346.4,454,431.7,352.1,451.2,224
	C440.6,270.4,422.8,315,398.5,356"/>
<path class="st0" d="M300,317.6c22.7,0,41,18.6,41,41.3c0,22.7-18.4,41-41,41s-41-18.3-41-41v-0.3C259,336,277.3,317.6,300,317.6
	L300,317.6"/>
<path id="Red_1_" d="M312.4,358.1l-12.4-9l-12.4,9l4.7,14.6h15.3L312.4,358.1z M312.4,322.5l-0.7-1.7c-3.8-1.3-7.7-1.9-11.7-2
	c-4,0-8.1,0.7-11.9,2l-0.6,1.7l12.4,8.9L312.4,322.5z M267.8,337.6c-3.2,5.6-4.8,12-4.8,18.4v1l6-3.4l1.9-1.1l-1.5-7.1L267.8,337.6z
	 M330.7,345.4l-1.2,7.1l1.9,1.1l5.9,3.4v-1c0-6.5-1.7-12.8-4.9-18.4L330.7,345.4z M291.9,422.6c-0.7-0.1-1.5-0.1-2.2,0l0,0
	c-3.6,0-7.4,1.7-7.4,5.4c0.1,3.1,2.6,5.5,5.7,5.5l0,0h0.3c2-0.1,4-0.6,5.8-1.6c-0.2,2.6-2.4,4.6-5,4.5h-0.3c-3.3,0-4.1-1-4-1.8h-0.3
	l-2.4,4.1h0.4c0.2-0.2,0.4-0.3,0.7-0.4c1.8,0.7,3.7,1,5.7,1c4.9,0.4,9.1-3.3,9.5-8.1v-0.1C298.9,426.9,296,423.1,291.9,422.6z
	 M291,430.4c-0.4,0.1-0.9,0.1-1.3,0c-1.3,0.4-2.6-0.4-3-1.6c-0.4-1.3,0.4-2.6,1.6-3c0.4-0.1,0.9-0.1,1.3,0c1.3-0.4,2.6,0.4,3,1.6
	C293,428.7,292.2,430,291,430.4z"/>
<path d="M394.8,125.4L300,50.9l-94.7,74.5L300,61.1L394.8,125.4z M249.1,479.2l50.9,61.2l51-61.2l-51,47.5L249.1,479.2z"/>
<path class="st0" d="M312.5,428.2h-0.3c-2,0.1-4,0.6-5.8,1.6c0.2-2.6,2.4-4.6,5-4.5h0.2c3.3,0,4.1,1,4,1.8l0.2,0.4l2.4-4.2h-0.4
	c-0.2,0.2-0.4,0.3-0.7,0.4c-1.7-0.7-3.6-1-5.4-1.1c-4.9-0.4-9.1,3.3-9.5,8.1v0.1c-0.4,4.1,2.6,7.8,6.7,8.3c0.6,0.1,1.2,0.1,1.9,0
	c3.6,0,7.4-1.8,7.4-5.5C318.1,430.6,315.6,428.2,312.5,428.2z M311.8,434.6c-0.6,1.2-2,1.7-3.2,1.1c-0.8-0.4-1.3-1.2-1.4-2
	c0.4-1.5,1.9-2.5,3.4-2.3C311.9,432,312.4,433.4,311.8,434.6z"/>
</svg>
