<svg version="1.1" id="Layer_1" xmlns="http://www.w3.org/2000/svg" xmlns:xlink="http://www.w3.org/1999/xlink" x="0px" y="0px"
	 viewBox="0 0 600 600" style="enable-background:new 0 0 600 600;" xml:space="preserve">
<style type="text/css">
	.st0{fill:#FFFFFF;}
</style>
<path id="Outline" d="M300,0l-7.8,10.2C211.5,115.7,123.1,135.9,75.7,146.8l-3.3,0.7l-7.7,1.8l0.1,7.9c0.4,42.7,6.3,87.2,17.6,132.1
	c10.3,41.2,24.7,80.8,42.8,118c-4.8,1.3-9.5,2.6-14.1,3.9L98.6,415l7,11c2.8,4.4,5.8,9.1,8.8,13.8c8.1,12.6,16.4,25.7,23.8,37
	l3.8,5.8l6.7-1.7c5.2-1.3,10.7-2.6,16.7-3.9c17.4,25.3,36.4,47.9,56.8,67.4c23,22,47.6,39.9,73.3,53.3l4.5,2.4l4.5-2.4
	c25.6-13.4,50.3-31.4,73.3-53.4c20.3-19.5,39.4-42.2,56.8-67.5c6.6,1.4,12.4,2.6,17.6,3.9l6.7,1.6l3.8-5.7
	c4.8-7.3,9.9-15.1,14.8-22.7c5.9-9.2,12-18.6,17.8-27.3l7.3-11l-12.6-3.8c-4.5-1.4-9.6-2.8-15.2-4.2c18.1-37.2,32.5-76.9,42.8-118
	c11.3-45,17.2-89.5,17.6-132.2l0.1-7.9l-7.7-1.7l-2.5-0.6C477.5,136.3,389,116.4,307.8,10.2L300,0L300,0z"/>
<path id="Gold_Shield" class="st0" d="M300.1,589.1C161.8,516.9,76,320.3,74.6,157.1c47-10.8,140.6-30.1,225.4-141
	c84.8,111,178.3,130.4,225.4,141C524,320.2,438.2,516.8,300.1,589"/>
<path id="Light_Blue_Shield" d="M103.9,178.9c4.3,75,23.5,148.2,56.6,215.7C196.5,467,245.8,523.4,300,555.3
	c54.2-31.8,103.5-88.3,139.4-160.8c33.1-67.3,52.4-140.7,56.7-215.7c-46.5-11.4-123.7-36.2-196.1-119.3
	C227.6,142.7,150.5,167.5,103.9,178.9"/>
<g>
	<path class="st0" d="M215.2,338.3V236.3h-27.3v109.3c0,10,8.1,18.1,18.1,18.1h73.5v-25.5H215.2z"/>
	<path class="st0" d="M393.4,363.8h28.8c0,0-43.2-106.3-44.8-110.7c-3.3-9.1-8.7-16.7-20.4-16.7h-0.4c-11.7,0-16.7,7.4-20.1,16.6
		l-44.7,110.8h27.9l10.9-27.9H373l-9.1-23.4H340l17-43.2L393.4,363.8z"/>
</g>
<path id="Banner" class="st0" d="M435.5,408.6c-44.7-8.3-90.2-12.4-135.6-12.2c-47.3-0.2-94.6,4.3-141,13.4
	c-15.2,2.9-30.3,6.5-45.1,10.9c10.4,16.2,22.3,35.1,32.6,50.6c10-2.5,20.6-4.8,31.6-7c40.3-7.8,81.3-11.7,122.3-11.6
	c39.4-0.2,78.8,3.4,117.5,10.6c13,2.5,25.3,5,36.7,7.6c10.5-15.9,22-34.1,32.6-50c-12-3.6-29.9-8-50.9-12"/>
<path id="Galaxy_Blue" d="M169.3,430.7c-0.5,4.1,1.7,8.1,5.3,10.1c3.4,1.4,7.3,1.8,10.9,1l16.6-2.3v-16.3l-15,1.8v5.6
	c4-0.3,4.7-0.4,6.5-0.6v4.6l-8.1,1.1c-4,0.6-6.8-0.3-6.8-6.2c0-6.8,3.2-8.2,6.8-8.7l16.6-2.3v-6l-16.6,2.3
	c-10.9,1.4-16.3,6.8-16.3,16.3 M231.3,408.9l-14.4,28.5l9.6-0.8c0,0,1.3-3.2,1.9-4.2l14.8-1.2l2,3.8l9.8-0.9l-14.9-26L231.3,408.9z
	 M231,425.5l4.6-9.6l4.6,8.8L231,425.5z M277.5,426.1c-0.9-1.2-1.1-2.7-1-4.1v-15.9l-8.9,0.5v16c-0.4,3.1,0.8,6.2,3.2,8.1
	c3.4,2.2,7.5,3.1,11.6,2.3l9.6-0.5v-5.8l-9.1,0.4c-3,0-4.4,0-5.5-1.1 M318.4,406l-14.8,27l9.6,0.3l2-4.1l14.7,0.5l1.9,4.3l9.8,0.3
	L327,406.6L318.4,406z M317.9,422.6c0.9-1.8,3.3-6.7,4.6-9.1l4.7,9.4L317.9,422.6z M385.7,410.9l-10.4-0.8l-6.1,7l-6.2-8l-10.5-0.9
	l11.7,14.4c-0.8,0.8-12.1,12.6-12.1,12.6l10.6,1c0,0,5.3-6.1,6.7-7.6l6.3,8.8l10.9,1l-12-15.1C375.3,422.6,385.7,410.9,385.7,410.9
	 M423.8,416.3l-7.6,8.1l-7.4-10.2l-10.2-1.4l13.4,17.3v11.8l8.9,1.2v-11.8l13.6-13.5L423.8,416.3z"/>
<path id="Gold_Star" class="st0" d="M300.1,132.2c0.1,0,0.3,0.1,0.3,0.3l0,0c2.4,30.7,26.6,55.2,57.2,57.9c0.2,0,0.3,0.1,0.3,0.3
	l0,0c0,0.3-0.2,0.3-0.3,0.3c-4.7,0.4-9.2,1.3-13.7,2.7c-24.4,7.7-41.5,29.5-43.6,54.9c0,0.1-0.1,0.3-0.2,0.3c-0.2,0-0.3-0.2-0.3-0.3
	c-2.4-30.6-26.6-55-57.1-57.7c-0.2,0-0.3-0.2-0.3-0.4c0-0.3,0-0.3,0.3-0.3c30.6-2.8,54.7-27.2,57.1-57.8
	C299.7,132.4,299.9,132.2,300.1,132.2"/>
</svg>
