<svg version="1.1" id="Layer_1" xmlns="http://www.w3.org/2000/svg" xmlns:xlink="http://www.w3.org/1999/xlink" x="0px" y="0px"
	 viewBox="0 0 600 600" style="enable-background:new 0 0 600 600;" xml:space="preserve">
<style type="text/css">
	.st0{fill:#FFFFFF;}
</style>
<path id="Outline" class="st0" d="M300,600l-20.1-18.1c-20.2-18.1-43.9-21.9-71.3-26.2c-4.1-0.6-8.3-1.3-12.7-2.1
	c-51.4-8.7-68.7-17.8-88.2-34.8c-18.2-16-27.1-45.8-27.1-91.2L80.5,0h438.8l0.1,427.6c-0.2,31.4-3.4,70.1-27.3,91.3
	c-17.3,15.3-31.9,25.3-88,34.8c-3.7,0.6-7.3,1.2-10.8,1.8l-1.8,0.3c-27.5,4.4-51.2,8.1-71.4,26.2L300,600z"/>
<path id="Black" d="M281.8,579.7L300,596l18.2-16.3c20.9-18.7,45-22.5,72.9-26.9l1.7-0.3c3.7-0.6,7.3-1.2,10.9-1.8
	c55.3-9.3,69.6-19.1,86.5-34.1c23.3-20.6,26.1-60.6,26.3-89L516.4,3H83.6l-0.1,424.6c0.1,44.5,8.6,73.6,26.1,89
	c16.6,14.6,31.6,24.8,86.7,34.1c4.4,0.8,8.6,1.4,12.7,2.1C236.9,557.2,261,561,281.8,579.7"/>
<path id="Gold" class="st0" d="M288.5,572.3c-23.1-20.7-49.7-24.9-78-29.4c-4-0.6-8.2-1.3-12.6-2C103.7,525,93.5,494.4,93.5,427.6
	V13h412.9l0.1,414.6c-0.1,25.4-2,63-22.9,81.5c-16.3,14.4-30,23-81.6,31.7c-3.7,0.6-7.3,1.2-10.8,1.8l-1.7,0.3
	c-28.3,4.5-54.9,8.7-78,29.4L300,582.6L288.5,572.3"/>
<path id="Black_1_" d="M489.2,30.2H110.8l-0.1,397.4c0.1,54.6,0,81.1,90.2,96.3c4.3,0.7,8.4,1.4,12.4,2c29.5,4.7,59.9,9.5,86.7,33.6
	c26.8-24,57.3-28.9,86.8-33.5c4-0.6,8.1-1.3,12.4-2c90.2-15.2,89.9-41.7,90.2-96.2L489.2,30.2"/>
<path id="Gold_1_" class="st0" d="M263,80.5c-0.1,0-0.2,0.1-0.2,0.2L249,109.6h7.4l1-2.4h10.7l1.1,2.4h7.9l-13.8-28.9
	C263.2,80.6,263.1,80.5,263,80.5L263,80.5z M279.8,80.6c-0.1,0-0.1,0.1-0.1,0.3v28.8h7.2V95.5l17.9,14.7c0.5,0.4,0.6,0.3,0.6-0.1
	V81.3h-7.2v14.3l-17.9-14.7C280,80.6,279.9,80.6,279.8,80.6L279.8,80.6z M204.3,80.9c-8.2,0-15.3,6-15.3,14.5s7.1,14.6,15.3,14.6
	s15.3-6,15.3-14.6S212.5,80.9,204.3,80.9z M231.6,80.9c-5.1,0-9.7,2.9-9.7,8.5c0,4.7,2.9,7.2,7.1,8.6l3.3,1.1
	c1.9,0.6,2.8,1.2,2.8,2.4c0,1.6-1.3,2.3-3.6,2.3c-2.8,0-4.5-1.4-5.9-3.1l-5.5,4.1c1.8,2.3,5.4,5.3,11.8,5.3c7.5,0,10.8-3.8,10.8-9
	c0-4-1.9-6.7-7.6-8.6l-3.8-1.3c-1.4-0.5-2-1-2-2.1s0.9-2,2.8-2c2.3,0,3.5,0.8,4.7,2l4.3-4.6C239.4,82.7,236.6,80.9,231.6,80.9
	L231.6,80.9z M323.9,80.9c-8.2,0-15.1,6-15.1,14.5s6.9,14.6,15.3,14.6c6.3,0,9.7-1.8,12.4-3.9V94.3h-12.4v5.9h5.6v2.4
	c-1.2,0.6-2.8,1.1-5.5,1.1c-5,0-7.6-3.7-7.6-8.2s2.5-7.9,7.2-7.9c2.8,0,4.8,1.2,6.3,3l5.3-4.6C332.9,82.8,329,80.9,323.9,80.9
	L323.9,80.9z M421.2,80.9c-5.1,0-9.7,2.9-9.7,8.5c0,4.7,2.9,7.2,7.1,8.6l3.3,1.1c1.9,0.6,2.8,1.2,2.8,2.4c0,1.6-1.3,2.3-3.6,2.3
	c-2.8,0-4.6-1.4-5.9-3.1l-5.5,4.1c1.8,2.3,5.4,5.3,11.8,5.3c7.5,0,10.8-3.8,10.8-9c0-4-1.9-6.7-7.6-8.6l-3.8-1.3c-1.4-0.5-2-1-2-2.1
	s0.9-2,2.8-2c2.3,0,3.5,0.8,4.7,2l4.4-4.6C428.9,82.7,426.2,80.9,421.2,80.9L421.2,80.9z M167.8,81.3v28.4h19.7v-6.4h-12.1v-22
	H167.8z M340.3,81.3v28.4h20.5v-6.4h-12.9v-3h10.3v-6.1h-10.3v-6.6h12.3v-6.4L340.3,81.3L340.3,81.3z M364.5,81.3v28.4h19.7v-6.4
	h-12.1v-22H364.5L364.5,81.3z M387.7,81.3v28.4h20.5v-6.4h-12.9v-3h10.3v-6.1h-10.3v-6.6h12.3v-6.4L387.7,81.3L387.7,81.3z
	 M204.3,87.5c4.8,0,7.5,3.5,7.5,7.9c0,4.5-2.7,8-7.5,8s-7.5-3.5-7.5-8C196.8,91,199.5,87.5,204.3,87.5z M262.7,95l2.9,6.6h-5.8
	C259.8,101.6,262.7,95,262.7,95z M239.9,142.4V182c35.1,31.4,93.6,88,129.4,120.1v2.1L251.7,200.6v25.2l0,0
	c35.8,27.1,81.3,63.7,117.6,91.1v2l-105.6-79v23.6c35.1,21.1,71.7,45.7,105.6,65.9v2.3l-93.6-56v19c41.3,20.8,75.8,39.7,116.6,60.2
	v11.8V405h40.1V143.9c-44.7,4.6-78.5,26.9-101.4,57.7c-3.7,4.7-7.1,9.7-10.2,14.9l28.9,32.1c9.6-19.2,23.8-34.4,42.6-45.3v92.5v15.6
	L239.9,142.4L239.9,142.4z M167.5,142.5v262.3h127.2c-5.5-13.2-9.5-32.4-11.2-41.3h-75.9V172.1L167.5,142.5L167.5,142.5z
	 M294.8,319.7c0,16.8,1.5,31.9,3.3,43.8c1.7,8.9,5.7,28.1,11.2,41.3h40.2c0,0-10.8-29.9-14-65.6c-0.5-0.3-1.1-0.5-1.6-0.8
	C321.5,332.6,308.8,326.6,294.8,319.7L294.8,319.7z M290.8,442.5c-0.1,0-0.2,0.1-0.2,0.2l-11.4,23.8h6.1l0.9-2h8.8l0.9,2h6.5
	L291,442.6C290.9,442.5,290.8,442.5,290.8,442.5L290.8,442.5z M197.9,442.8c-6.8,0-12.6,4.9-12.6,12s5.8,12,12.6,12s12.6-5,12.6-12
	C210.5,447.7,204.6,442.8,197.9,442.8z M224.8,442.8c-6.8,0-12.6,4.9-12.6,12s5.8,12,12.6,12s12.6-5,12.6-12
	C237.4,447.7,231.6,442.8,224.8,442.8z M357.7,442.8c-6.3,0-11.9,4.9-11.9,12s5.6,12,12.2,12c4.8,0,8-1.7,10.3-5.6l-4.8-3.1
	c-1,1.9-2.5,3.2-5.5,3.2c-3.6,0-5.8-2.9-5.8-6.6s2.1-6.5,5.5-6.5c3,0,4.4,1.4,5.3,2.8l4.7-3.2C365.9,444.9,362.8,442.8,357.7,442.8
	L357.7,442.8z M167.8,443.1v23.4h6.3V459h8.5v-5.3H174v-5.4h9.7V443L167.8,443.1L167.8,443.1z M237.9,443.1v5.3h6.2v18.2h6.3v-18.2
	h6.2v-5.3H237.9L237.9,443.1z M259.4,443.1v23.4h10c5.8,0,9.3-2.5,9.3-7c0-3.6-2.2-5.4-4.7-6.1c1.5-0.7,2.7-1.9,2.7-4.5
	c0-3.6-3-5.7-7.7-5.7L259.4,443.1L259.4,443.1z M304.5,443.1v23.4h16.2v-5.3h-10V443C310.8,443.1,304.5,443.1,304.5,443.1z
	 M323.6,443.1v23.4h16.2v-5.3h-10V443h-6.2V443.1z M370.8,443.1v23.4H387v-5.3h-10V443h-6.2V443.1z M388.8,443.1v14.4
	c0,6.3,4.3,9.4,10.2,9.4c5.9,0,10.2-3.1,10.2-9.4v-14.4h-6.3v14.3c0,2.7-1.2,4.2-3.9,4.2s-3.9-1.5-3.9-4.2v-14.3H388.8L388.8,443.1z
	 M412.9,443.1v23.4h10c5.8,0,9.3-2.5,9.3-7c0-3.6-2.2-5.4-4.7-6.1c1.5-0.7,2.7-1.9,2.7-4.5c0-3.6-3-5.7-7.7-5.7L412.9,443.1
	L412.9,443.1z M265.5,448h3.1c1.4,0,1.9,0.8,1.9,1.9s-0.6,1.8-2,1.8h-3V448L265.5,448z M419,448h3.1c1.4,0,1.9,0.8,1.9,1.9
	s-0.6,1.8-2,1.8h-3V448L419,448z M197.9,448.2c3.9,0,6.2,2.9,6.2,6.5c0,3.7-2.2,6.6-6.2,6.6c-3.9,0-6.2-2.9-6.2-6.6
	C191.7,451.1,194,448.2,197.9,448.2z M224.8,448.2c3.9,0,6.2,2.9,6.2,6.5c0,3.7-2.2,6.6-6.2,6.6c-3.9,0-6.2-2.9-6.2-6.6
	C218.7,451.1,220.9,448.2,224.8,448.2z M290.5,454.4l2.4,5.4h-4.8L290.5,454.4L290.5,454.4z M265.5,456.3h3.8c2.4,0,3.2,1,3.2,2.6
	s-0.8,2.6-3.2,2.6h-3.8V456.3z M419,456.3h3.8c2.4,0,3.2,1,3.2,2.6s-0.7,2.6-3.2,2.6H419V456.3z"/>
</svg>
