<svg version="1.1" id="Layer_1" xmlns="http://www.w3.org/2000/svg" xmlns:xlink="http://www.w3.org/1999/xlink" x="0px" y="0px"
	 viewBox="0 0 600 600" style="enable-background:new 0 0 600 600;" xml:space="preserve">
<style type="text/css">
	.st0{fill:#FFFFFF;}
</style>
<circle id="Pink_1_" class="st0" cx="300" cy="300" r="300"/>
<circle id="Brown" cx="300" cy="300" r="288.8"/>
<path id="Birds" class="st0" d="M296.9,339.2c0.2,0,0.3-2.8,0.3-6.2v-6.2l-36.3-36.3h8.4c21.2,21.2,27.5,27.4,27.7,27.4
	s0.2-1.2,0.1-2.8c-0.1-1.5-0.5-4.1-0.9-5.8c-0.4-1.7-1.2-4.3-1.9-5.9c-0.6-1.6-2.1-4.3-3.3-6.1s-3.4-4.5-5-6.1s-4.2-3.8-5.9-4.9
	c-1.7-1.1-4-2.4-5.1-3c-1.2-0.6-3-1.3-4.2-1.7c-1.2-0.4-3.2-1-4.6-1.3c-2-0.5-5.9-0.6-19.3-0.8l-16.8-0.2c-2.5-1.8-3.6-3-4.1-4
	c-0.6-1.1-0.9-2.4-0.9-3.5c0-1,0.3-2.4,0.6-3.2c0.3-0.8,1-1.8,1.4-2.3c0.5-0.5,1.5-1.2,2.3-1.6c1.2-0.6,2.3-0.7,6.7-0.7
	c2.9,0,6.3-0.2,7.5-0.4c1.2-0.2,3.5-1,4.9-1.7c1.7-0.8,3.3-2,4.5-3.2c1-1.1,2.4-3.1,3-4.5c1.2-2.4,1.2-2.8,1.2-6.6
	c0-3.7-0.1-4.2-1.3-6.7c-0.7-1.5-1.7-3.1-2.3-3.7s-0.9-1.1-0.8-1.2c0.1-0.1,3.2-1,6.9-2.1c3.6-1,6.7-2.1,6.7-2.3
	c0.1-0.3-4.4-0.4-15.6-0.4c-14.6,0-15.8,0-17.2,0.7c-0.8,0.4-1.9,1.2-2.3,1.8c-0.4,0.6-0.7,1.1-0.7,1.2c0,0-7.7,1.5-17,3.1
	s-17.3,3.1-17.8,3.2c-0.5,0.1-0.8,0.4-0.8,0.6c0,0.2,8.1,0.4,23.7,0.4c21.8,0,23.8,0,25,0.7c0.7,0.4,1.7,1.2,2.1,2
	c0.4,0.7,0.8,1.9,0.8,2.7c0,0.7-0.3,1.9-0.7,2.6c-0.4,0.7-1.3,1.6-2.1,2c-1.1,0.6-2.2,0.7-7.2,0.7c-4.1,0-6.6,0.2-8.1,0.6
	c-1.2,0.3-3.1,1-4.2,1.6c-1.1,0.6-3,2-4.3,3.2c-1.2,1.2-2.8,3.2-3.5,4.4c-0.7,1.2-1.5,3.4-1.8,4.9c-0.4,1.8-0.6,3.6-0.4,5.3
	c0.1,1.5,0.6,3.7,1,4.9c0.4,1.2,1.3,3.1,2,4.2s18,18.7,40.4,41.2c21.6,21.6,39.3,39.2,39.5,39.1s0.3-3.3,0.3-7.1v-6.9l-57.6-57.6
	h8.4C285.6,328.3,296.7,339.2,296.9,339.2z M242.4,238.4h-6.5V235h6.5V238.4z M356.1,243.1l1.3-0.9c43.3,0,47.8,0,47.4-0.5
	c-0.3-0.3-8.3-1.9-17.9-3.6c-9.6-1.7-17.4-3.2-17.4-3.2s-0.4-0.6-0.8-1.2c-0.4-0.6-1.5-1.4-2.4-1.8c-1.4-0.6-3.2-0.7-17.5-0.7
	c-13.5,0-15.8,0.1-15.3,0.5c0.3,0.3,3.5,1.4,7.1,2.4l6.6,1.8c-1.5,1.8-2.4,3.3-3,4.6c-0.6,1.2-1.3,3.3-1.5,4.6
	c-0.2,1.5-0.2,3.1,0,4.8c0.2,1.3,0.8,3.4,1.3,4.5s1.7,2.9,2.7,3.9c1,1.1,2.5,2.4,3.3,2.9s2.4,1.3,3.6,1.7c1.7,0.6,3.5,0.8,9.2,1
	c6.7,0.2,7.1,0.3,8.6,1.2c1,0.6,1.8,1.7,2.5,3c0.6,1.2,1,2.7,1,3.5s-0.3,2.1-0.6,2.9c-0.3,0.8-1.1,1.9-1.6,2.5
	c-0.6,0.6-1.5,1.4-2.2,1.7c-1,0.6-3.3,0.7-17.9,0.9c-15.9,0.2-16.9,0.3-20,1.1c-1.8,0.5-4.7,1.5-6.5,2.3s-4.4,2.2-5.9,3.1
	c-1.5,1-3.8,2.8-5.1,4c-1.3,1.2-3.5,3.6-4.7,5.1c-1.2,1.6-3.1,4.6-4.1,6.6c-1,2.1-2.2,5.3-2.6,7c-0.4,1.8-0.9,4.7-1,6.5l-0.2,3.2
	l28.1-27.9h8.3l-36.3,36.3v12.9l49.3-49.2h8.4l-57.6,57.6l0.2,14.3c78.5-78.6,79.7-79.8,81-82.5c0.8-1.7,1.5-3.9,1.8-5.5
	c0.3-1.9,0.3-3.5,0-5.3c-0.2-1.7-0.9-3.8-1.9-5.7c-0.9-1.9-2.2-3.7-3.3-4.8c-1-1-2.9-2.4-4.1-3.1c-1.2-0.7-3.4-1.6-4.8-1.9
	c-1.6-0.4-4.6-0.6-8.2-0.6c-4.6,0-5.8-0.1-6.9-0.6c-0.7-0.4-1.7-1.3-2.2-2s-0.9-1.8-0.9-2.5c0-0.6,0.3-1.8,0.7-2.5
	C354.5,244.6,355.4,243.6,356.1,243.1z M357.6,235h6.5v3.4h-6.5V235z"/>
<path id="Pink" class="st0" d="M286.7,86c-38.5,2.3-77.1,15.8-108.8,37.8l9.5,0.2c68-43.8,157.6-43.4,225,0l9.7-0.2
	C381.1,95.9,335.4,83.3,286.7,86z M442.4,215.1l-0.1-81.7c-220.3-0.1-284.4-0.1-284.6,0.1c-0.8-5.1,0,184.5,0.2,177
	c4.2,88.5,61.4,170.8,142.3,206.5c63-28.5,111.6-83.4,131.6-149.4C447.9,304.3,440.7,307.5,442.4,215.1z M436.8,221.8
	c-1.8,94,5.8,90-13.7,154.7c-21.8,59.8-64.5,106.7-122.8,134.4c-62.5-28.8-110.9-85.4-128.8-151.9c-14.4-47.1-6.1-149.3-8.2-220.2
	h273.6v83H436.8z M144.2,152.7c-95.6,99.6-70.8,265.2,49,333.3c14.7,8.3,32.7,16.2,48.9,20.5c8.1,2.4,19.9,4.7,27.7,5.9
	c2.9,0.4-1.6-2-4.3-3.8c-5.5-4.8-19.3-6.1-21.3-7.2c-21-5.8-41.5-15.1-59.7-27.3C77,404,58.9,248.8,148.4,156.5l-0.2-7.9
	L144.2,152.7z M451.6,152.6v3.9c85.8,89.4,73,236.8-26.3,310.5c-18,13.4-37.9,24.1-59.4,31.2c-12.4,4.5-26.1,5.1-36,13.4
	c22.2-0.4,54.7-13.4,76.7-25.6c89.4-50.3,131-163.7,94.7-259.7c-8.4-22.4-20.9-44.5-36.3-62.9c-2.7-3.6-10.8-12.2-13.3-14.6
	C451.7,148.7,451.6,150.5,451.6,152.6z M299.7,227.2c-0.1,0-4.6,16.2-4.8,16.2c0.1,0.7-13.3-12.1-13.3-11.4c0,0.2,0.8,4,2,8.4
	s2,8.1,1.9,8.2c0.2,0.4-16.9-4.4-16.7-3.9c-0.5,0.1,12.3,11.2,12,11.1c0.3,0.2-16.9,7.2-16.5,7.5c-0.1,0.4,1.7,0.5,8.6,0.5h8.7
	c-0.6-16,20.5-25,31.4-13.1c3.7,4,8.3,11.8,2.9,15.9c-9.6,9-25.8,6.8-34.4-2.1c1.8,23.7,36.1,23.2,37.3-0.7
	c15.4,0,17.3-0.1,17.1-0.5c0.3-0.4-16.8-7.1-16.6-7.4c-0.5,0.1,12.5-11.2,11.9-11.3c0.1-0.3-16.8,4.3-16.7,4
	c-0.1-0.1,0.7-3.9,1.9-8.4c1.2-4.5,2.1-8.3,2-8.5c0.1-0.6-13.5,12.2-13.4,11.8c-0.1,0-1.1-3.6-2.3-7.9
	C301.1,231.2,300.8,227.3,299.7,227.2z M193.7,187.7v18.8h11c0-17.4,0.1-22.4,0.3-22.4c0.9,0.5,12,11.8,14.7,14.4l15-15v23h11v-37.7
	h-11.2l-14.9,14.8l-14.8-14.8h-11.2L193.7,187.7L193.7,187.7z M255.4,187.6l0.1,18.7l10.8,0.2v-37.7h-11L255.4,187.6z M333.4,187.6
	l0.1,18.7l10.8,0.2c0-17.1,0.1-22.1,0.3-22.2c0.9,0.3,12.1,11.6,14.7,14.2l15-15v23h11v-37.7h-11.2l-14.9,14.8l-14.8-14.8h-11.2
	L333.4,187.6z M395,187.6l0.1,18.7h11l0.2-37.5h-11.4L395,187.6z M316.9,187.4l-9.1-18.6H292c-3.3,6.8-17.4,35.3-18.1,37.2
	c0.1,0.5,9.4,0.3,11.4,0.4c3.6-7.5,4.7-9.8,4.8-9.9c0.6,0.1,7.9,7.6,9.7,9.3c7.3-7.2,9.6-9.3,9.7-9.3c0.5,0.3,4.2,8.1,5.2,9.9
	c8.9,0,11.4-0.1,11.4-0.3C326.1,206.1,322,197.6,316.9,187.4z M299.8,193.4l-5.4-5.3c6.8-12.3,3.2-15.4,11-0.4L299.8,193.4z
	 M337.5,360.3l16.3-16.3l-0.2-24.3c-1.3,1.3-4,4-5.3,5.4l0.2,16.7c-8.1,8.1-10.6,10.3-10.8,10.2c-0.4-0.9-0.3-12.9-0.3-15.9
	l-5.4,5.3v16.7l-32,32.1L267.8,358v-16.3l-5.4-5.3c0,11.8-0.1,15.3-0.3,15.5c-0.8,0-8.8-8.3-10.8-10.2v-16.3l-5.3-5.3v24l16.3,16.3
	v85l-16.5,0.2v5.3l21.9,0.2v-85.4L296,394l-14.3,14.3c13.7,13.7,17.9,17.7,18.1,17.7c1.2-0.6,14.8-14.4,18.1-17.7L303.8,394
	c21.2-21.2,27.6-27.4,27.8-27.4c0.8-4.5,0.4,71.8,0.5,84.4h21.7v-5.7h-16.3V360.3z M310.3,408L300,418.3L289.7,408
	c1.9-1.9,9.4-9.6,10.3-9.9C300.2,398.1,302.6,400.4,310.3,408z"/>
<path id="White" class="st0" d="M65.2,316.7c-0.3-4.7-0.6-8.2-1-9c-0.3-0.7-1-1.9-1.5-2.7c-0.5-0.7-1.8-1.8-2.8-2.4
	s-2.6-1.1-3.6-1.2c-0.9-0.1-2.4,0-3.2,0.2s-2.2,0.8-3,1.4s-1.4,1.1-1.4,1.2s-0.3,0.6-0.7,1.1l-0.7,0.8c-2.5-1.5-3.4-1.7-5.2-1.7
	c-1.6,0-2.8,0.3-3.8,0.8c-0.8,0.4-2,1.3-2.7,2.1c-0.7,0.7-1.7,2.1-2.1,3c-0.7,1.6-0.7,2.2-0.5,8.7c0.1,3.9,0.4,7.2,0.5,7.3
	c0.1,0.2,7.3-0.1,15.9-0.6s15.8-1,16-1.2C65.5,324.5,65.4,320.9,65.2,316.7z M43.9,318.7c-1.1,0-2.5,0.1-4.4,0.6v-2.9
	c0-1.7,0.2-3.1,0.5-3.5c0.3-0.3,0.8-0.8,1.2-1s1-0.4,1.2-0.4s0.9,0.2,1.4,0.5s1.1,0.9,1.3,1.4s0.4,1.9,0.6,5.3H43.9z M57.1,317.9
	c-0.7,0-2.1,0.1-4.8,0.5l-0.3-3.6c-0.2-2.9-0.2-3.7,0.3-4.5c0.3-0.5,1-1.2,1.4-1.4s1-0.5,1.1-0.5s0.7,0.2,1.3,0.5s1.2,0.8,1.4,1.2
	c0.2,0.4,0.5,2.3,0.8,7.8H57.1z M56.7,344.4c-0.5,0.1-5.2,1.2-10.5,2.5c-5.2,1.2-9.6,2.3-9.6,2.4c-0.1,0,0.2,1.6,0.7,3.5
	c0.4,1.9,0.8,3.5,0.9,3.5c0.1,0.1,4.5-0.9,9.8-2.2c5.4-1.3,10.4-2.3,11.2-2.3c1,0,2,0.3,2.9,0.9c0.7,0.5,1.6,1.5,2,2.2
	c0.4,0.7,0.7,2.1,0.7,3c0,1.1-0.3,2.2-0.8,3c-0.4,0.7-1.4,1.5-2.4,1.9c-0.9,0.4-5.8,1.7-10.9,2.9c-5.1,1.2-9.4,2.3-9.5,2.4
	s0.1,1.6,0.6,3.4c0.4,1.8,0.9,3.3,1.1,3.4c0.2,0.1,4.8-0.9,10.3-2.2c5.4-1.3,10.8-2.7,11.8-3.2s2.7-1.7,3.6-2.7c1-1.1,2.1-2.7,2.6-4
	s0.8-3,0.8-4.4c0-1.2-0.3-3.1-0.6-4.3c-0.3-1.2-1-2.8-1.5-3.6c-0.5-0.8-1.6-2.2-2.5-3s-2.4-1.8-3.4-2.2c-1-0.4-2.8-0.8-4.1-0.9
	C58.7,344.3,57.2,344.3,56.7,344.4z M73.8,378.8c-1.6,0.6-2.9,1.2-2.9,1.2s1,2.8,2.4,6.1c1.4,3.4,2.4,6.2,2.2,6.3
	c-0.2,0.1-5.3,2.3-11.3,4.7c-6.1,2.4-11.2,4.6-11.3,4.7c-0.2,0.1,0.3,1.7,1,3.5c0.9,2.1,1.5,3.2,1.8,3.1c0.3,0,7-2.7,14.9-5.9
	c7.9-3.2,14.4-6,14.4-6.2s-1.7-4.5-3.7-9.6s-3.9-9.2-4.1-9.2C76.8,377.7,75.4,378.2,73.8,378.8z M84.4,414.8c-0.1,0.1,0,1.8,0.1,3.7
	l0.2,3.4c3.9,0.4,5,0.8,6.1,1.6c0.8,0.6,2.1,1.9,2.8,3c0.7,1.1,1.3,2.6,1.5,3.4c0.1,0.8,0,2.5-0.3,3.6c-0.3,1.2-1,2.8-1.7,3.6
	c-0.6,0.8-2.1,2-3.3,2.6c-1.7,0.8-2.6,1.1-4.5,1.1c-1.3,0-2.9-0.2-3.6-0.5s-1.8-1-2.5-1.6s-1.7-1.9-2.2-3c-0.6-1.3-0.9-2.6-0.9-4.1
	c0-1.2,0.2-2.8,0.6-3.6c0.3-0.8,0.6-1.5,0.6-1.5s-1.3-0.8-3-1.7c-1.6-0.9-3.1-1.7-3.2-1.7c-0.2,0-0.6,0.7-1.1,1.7
	c-0.4,1-0.9,2.9-1.2,4.1c-0.3,1.6-0.3,3,0,4.8c0.2,1.3,1,3.7,1.7,5.1c0.8,1.7,2,3.4,3.3,4.7c1.2,1.2,3,2.5,4.3,3.1
	c1.2,0.6,3.5,1.3,4.9,1.5c2,0.3,3.2,0.3,5.1,0c1.4-0.3,3.4-0.9,4.6-1.4c1.2-0.6,3.1-2,4.3-3.1c1.3-1.2,2.7-3.1,3.3-4.4
	c0.6-1.3,1.3-3.5,1.6-4.9c0.4-2.1,0.3-3.2,0-5.1c-0.2-1.4-1-3.6-1.6-4.9c-0.7-1.6-2-3.3-3.3-4.6c-1.2-1.2-3.1-2.5-4.2-3.1
	c-1.2-0.6-2.9-1.2-3.8-1.4c-1-0.2-2.4-0.4-3.1-0.4C85.1,414.5,84.4,414.6,84.4,414.8z M354.2,49.1c-0.2-1.4-0.9-3.6-1.5-4.8
	c-0.6-1.3-2-3.3-3.1-4.4c-1.1-1.1-3-2.5-4.1-3.1c-1.2-0.6-3.2-1.3-4.6-1.6c-1.3-0.3-2.9-0.5-3.4-0.5s-2,0.2-3.2,0.5
	c-1.3,0.3-3.2,1-4.4,1.6c-1.1,0.6-2.8,1.9-3.8,2.8c-1,1-2.2,2.5-2.7,3.4s-1.3,2.7-1.7,4c-0.5,1.6-0.6,3.2-0.5,5.5
	c0.1,2.8,0.3,3.6,1.5,6.1c1,2,2.1,3.5,3.5,4.8c1.2,1.1,3.3,2.5,4.7,3.2c2.1,1,3.2,1.2,5.8,1.4c2.3,0.1,3.9,0,5.5-0.5
	c1.2-0.4,3-1.1,4-1.7c0.9-0.6,2.5-1.8,3.4-2.7c0.9-0.9,2.3-2.8,2.9-4.2c0.7-1.4,1.4-3.6,1.6-4.9C354.5,52.3,354.5,50.9,354.2,49.1z
	 M346.9,52.3c-0.1,1.1-0.5,2.6-1,3.4c-0.4,0.8-1.4,2.1-2.2,2.8c-0.8,0.7-2,1.5-2.7,1.8s-2.2,0.5-3.3,0.5s-2.7-0.3-3.5-0.6
	s-2-1.1-2.7-1.8s-1.6-1.8-1.9-2.5c-0.4-0.7-0.8-2.1-1-3c-0.2-1.2-0.1-2.4,0.3-3.9c0.4-1.4,1.1-2.7,2-3.8c0.8-0.8,1.9-1.8,2.5-2.1
	s1.5-0.7,2.1-0.9s2-0.2,3.1-0.1c1.2,0.1,2.8,0.6,3.7,1.1c0.9,0.5,2,1.5,2.5,2.2s1.2,2.1,1.6,3.1C346.9,49.8,347,51.1,346.9,52.3z
	 M279.3,56.7l-0.5,1.2c-0.3,0.7-1,2-1.7,3c-0.6,0.9-1.9,2.3-2.8,3.1c-0.9,0.8-2.7,1.9-4,2.4c-1.2,0.6-3.5,1.2-4.9,1.4
	c-1.8,0.3-3.4,0.3-4.9,0c-1.2-0.2-3.3-0.9-4.6-1.5c-1.2-0.6-3.2-1.9-4.4-3c-1.2-1.2-2.6-3-3.3-4.4c-0.7-1.3-1.4-3.6-1.7-5.1
	c-0.3-2-0.3-3.2,0-5.1c0.2-1.4,1-3.6,1.7-4.9c0.7-1.5,2-3.2,3.3-4.4c1.2-1.1,2.8-2.4,3.7-2.8c0.9-0.4,2.5-1.1,3.6-1.3
	c1.1-0.3,3-0.6,4.3-0.6s3.3,0.2,4.5,0.5s2.9,1,3.8,1.4s2.4,1.6,3.4,2.5c1,1,1.8,1.9,1.8,2.1c0,0.2-0.7,0.9-1.6,1.5s-2.1,1.6-3.9,2.9
	l-1.3-1.2c-0.7-0.7-2-1.5-2.9-1.9s-2.4-0.7-3.8-0.7s-2.9,0.3-3.8,0.7c-0.8,0.4-2.1,1.4-2.9,2.2c-0.7,0.8-1.7,2.4-2.1,3.4
	c-0.6,1.5-0.6,2.4-0.5,4.2c0.1,1.4,0.6,2.9,1.2,3.8c0.5,0.8,1.4,1.9,2,2.5c0.6,0.5,1.9,1.3,2.8,1.7c1.2,0.5,2.4,0.6,3.8,0.6
	c1.2-0.1,2.9-0.5,4-1.1c1.2-0.6,2.3-1.5,3-2.6c0.6-0.9,1.2-1.9,1.3-2.2C272.2,54.5,273,54.6,279.3,56.7z M303.9,48.3
	c0,8.7,0,16,0,16.2c-0.1,0.2-1.6,0.4-7.5,0.2V48.8c0-8.8,0.1-16,0.3-16.2c0.2-0.1,1.9-0.2,7.2,0V48.3z M224.8,59.8
	c-7.3-7.9-12-12.6-12.4-12.6s-1.8,0.5-3.2,1c-2.1,0.7-2.6,1.1-2.6,1.8c0,0.5-0.5,8.4-1,17.5c-0.6,9.1-0.9,16.6-0.7,16.6
	c0.1,0,1.8-0.6,3.7-1.2l3.4-1.2c0-5,0.1-6.6,0.3-6.9c0.2-0.2,3-1.4,6.4-2.6l6.1-2.2l4.9,5.4c5.4-1.9,7-2.6,6.9-2.7
	C236.5,72.5,231.2,66.7,224.8,59.8z M212.7,67.3v-2.6c0-1.4,0.1-3.7,0.2-5l0.2-2.5l2.2,2.5c1.2,1.4,2.7,3,3.3,3.7s0.9,1.3,0.8,1.4
	S217.8,65.5,212.7,67.3z M403.4,53.1c0,0.2-2.4,6.9-5.3,15c-2.9,8-5.3,14.8-5.4,14.9s-1.5-0.2-6.1-1.8l-3.8-11.4
	c-2.1-6.3-4-11.4-4.2-11.5c-0.2,0-1.4,3-2.7,6.8c-1.3,3.8-2.8,7.8-3.9,10.9l-3.3-1.2c-1.8-0.7-3.4-1.2-3.5-1.3
	c-0.1-0.1,2.2-7,5.2-15.3l5.4-15.2l2.8,0.9c1.5,0.5,3,1.1,3.2,1.4c0.2,0.3,2.1,5.6,4.2,11.8s3.8,11.3,3.9,11.3s1.6-3.9,3.2-8.6
	c1.7-4.7,3.2-8.8,3.3-9c0.2-0.3,1.3-0.1,3.6,0.8C402,52.3,403.5,53,403.4,53.1z M174.7,63.5c0.2,0.1,4,6.4,16.7,27.4l-2.7,1.5
	c-1.5,0.8-2.8,1.5-3,1.5c-0.1,0-5.3-1.9-11.5-4.2c-6.2-2.3-11.3-4.1-11.3-4s2,3.8,4.7,8.2c2.6,4.4,4.8,8.1,4.8,8.2s-1.3,1-2.9,1.9
	c-1.6,0.9-3,1.7-3.1,1.7c-0.2,0-4-6.1-8.5-13.5s-8.2-13.6-8.3-13.8c0-0.1,1.1-1,5.2-3.5l11.5,4.3c6.3,2.4,11.5,4.3,11.6,4.3
	c0,0-2.1-3.8-9.8-16.6l3.1-1.9C173,64.1,174.5,63.3,174.7,63.5z M436.8,70c-1.5-0.8-2.9-1.5-3.1-1.5c-0.3,0-6.6,4.6-14.2,10.1
	s-13.8,10.2-13.8,10.3c0,0.2,1.2,1.1,2.8,2c1.6,1,3.1,1.8,3.2,1.8c0.2,0,1.6-0.9,3.2-2c2.7-2,2.9-2.1,3.9-1.6
	c0.6,0.3,3.1,1.8,5.6,3.3s4.6,2.8,4.7,2.8c0,0-0.1,1.7-0.4,3.7l-0.5,3.7c5,3,6.5,3.8,6.6,3.7c0,0,1.1-7.8,2.4-17.3
	s2.3-17.3,2.3-17.4C439.4,71.6,438.2,70.8,436.8,70z M431.3,80.2c-0.1,0.8-0.4,2.9-0.7,4.8c-0.3,1.8-0.6,3.3-0.7,3.2
	c-0.1,0-1.5-0.9-3.1-1.8s-2.9-1.8-2.8-2c0-0.1,1.6-1.5,3.5-2.9s3.6-2.6,3.7-2.7C431.3,78.8,431.4,79.4,431.3,80.2z M520.2,151.2
	c-0.2-1.3-0.8-3.2-1.4-4.4s-2.4-4.3-4.2-6.9c-1.8-2.7-3.4-4.8-3.6-4.8s-6.2,4.1-13.3,9.2c-7.1,5-13,9.3-13.1,9.4
	c-0.1,0.1,1.5,2.6,3.5,5.4c2,2.8,4.2,5.6,4.9,6.2c0.7,0.6,1.9,1.5,2.6,2c0.8,0.5,2.5,1.3,3.7,1.7c1.3,0.4,3.3,0.8,4.7,0.8
	c1.3,0,3.5-0.3,4.8-0.7c1.4-0.4,3.3-1.3,4.3-2s2.4-1.9,3.2-2.8c0.7-0.8,1.7-2.4,2.2-3.4c0.5-1.1,1.1-3.1,1.4-4.6
	C520.5,154.2,520.5,152.8,520.2,151.2z M513.1,155.5c-0.3,1.2-1.2,2.6-2,3.6c-0.8,0.8-2.3,1.9-3.3,2.5c-1.3,0.6-2.6,0.9-3.9,0.9
	c-1.1,0-2.6-0.3-3.4-0.6s-1.9-1.1-2.5-1.6c-0.6-0.6-1.6-1.8-2.2-2.6c-0.6-0.9-1.1-1.7-1.2-1.8c0-0.1,3.3-2.6,7.5-5.5l7.6-5.3
	l0.8,1.1c0.5,0.6,1.3,1.8,1.8,2.8c0.5,0.9,1,2.4,1.2,3.2C513.6,152.9,513.5,154.2,513.1,155.5z M154.6,114c-0.1-0.1-4.1-0.8-8.6-1.6
	c-4.6-0.8-8.4-1.4-8.4-1.5c0,0,0.2-0.9,0.5-1.9c0.3-1.1,0.6-2.5,0.5-3.2c0-0.7-0.3-2-0.7-2.9c-0.4-0.8-1.4-2.2-2.4-3
	c-0.9-0.8-2.2-1.7-2.9-2s-2.3-0.5-3.6-0.5c-1.7,0-2.9,0.3-4,0.9c-0.9,0.5-4,2.9-7,5.5l-5.3,4.7c10.2,11.4,15,16.8,17.3,19.3
	c2.3,2.6,4.3,4.7,4.4,4.7c0.1,0,1.4-1.1,2.8-2.4l2.6-2.4c-6.8-7.7-8.7-10-8.5-10.2s4.1,0.3,8.8,1.1l8.5,1.3c2.2-1.8,3.6-3.1,4.7-4
	C154,114.9,154.7,114,154.6,114z M131.3,108.3c-0.2,0.6-1.3,1.9-2.5,3c-1.3,1.2-2.3,1.8-2.4,1.5c-0.2-0.2-1.1-1.2-3.6-4l0.9-1
	c0.5-0.6,1.6-1.5,2.4-2.1s1.9-1.1,2.4-1.1s1.2,0.2,1.7,0.4c0.4,0.2,0.9,0.8,1.1,1.3C131.5,106.9,131.5,107.6,131.3,108.3z
	 M466.1,123.2l-0.8,1.1c-0.4,0.6-1.4,1.8-3.7,4.5l-0.9-0.8c-0.5-0.4-4-3.4-7.7-6.6c-3.8-3.2-6.9-5.9-6.9-6c-0.1,0,4.6-5.6,10.2-12.3
	c5.7-6.7,10.5-12.2,10.7-12.2s1.4,1,2.8,2.2s2.5,2.3,2.5,2.5c0,0.1-3.6,4.5-8,9.6s-8,9.4-8,9.5C456.2,114.8,458.4,116.8,466.1,123.2
	z M89.6,134.5c-3.3,4.3-6.1,7.9-6.2,8.1c0,0.1,5.5,4.6,12.3,10c6.8,5.3,12.6,9.7,12.8,9.8c0.2,0,2.5-2.6,5-5.9
	c2.5-3.3,5.3-6.9,6.2-8l1.6-2c-4-3.2-5.3-4.2-5.4-4.2s-2,2.2-4.2,4.9s-4,4.9-4.2,4.9c-0.1,0-1.1-0.7-2.2-1.4c-1-0.8-1.9-1.5-1.9-1.6
	s1.3-2,3-4.2s3-4.1,3-4.2c0-0.1-1.1-1.1-2.5-2.1c-1.4-1.1-2.6-1.9-2.8-1.9s-1.5,1.4-2.9,3.2s-2.8,3.6-3,4c-0.5,0.7-0.6,0.7-2.6-1
	c-1.2-0.9-2.1-1.8-2.1-1.9c0-0.1,1.7-2.4,3.8-5c2.1-2.7,3.8-5,3.8-5.1c0-0.2-1.2-1.2-2.6-2.3c-1.4-1.1-2.7-2-2.8-2
	C95.8,126.7,93,130.2,89.6,134.5z M66.5,168.9l-5.8,10.3c1.4,0.9,2.8,1.8,4,2.4l2.1,1.2l4-7.2c2.5,1.4,7.4,4.2,12.5,7
	c5.1,2.9,9.4,5.2,9.5,5.2c0.2,0,1-1.3,1.9-2.9c0.9-1.6,1.6-3,1.6-3.2s-4.7-3-10.4-6.1c-5.7-3.2-10.6-6-10.8-6.2
	c-0.4-0.3,0-1.2,1.4-3.8c1-1.9,1.9-3.5,1.9-3.6s-1.4-0.9-3-1.8l-3-1.6L66.5,168.9z M521.6,181.3l-14.3,7.1l9.2,18.4
	c4.6-2.3,5.9-3.2,5.9-3.4s-1.2-2.9-2.8-5.9c-1.8-3.6-2.6-5.7-2.4-5.9c0.2-0.2,1.3-0.8,2.5-1.3l2.1-1c3.6,7,4.7,9.1,4.8,9.1
	c0.2,0,1.6-0.6,3.1-1.3c1.6-0.7,2.9-1.5,2.9-1.7s-0.9-2.3-2.1-4.6c-1.2-2.3-2.1-4.3-2.1-4.5s1-0.8,2.1-1.3c1.2-0.6,2.3-1.1,2.5-1.1
	s1.6,2.5,3.1,5.6s2.8,5.7,2.9,5.8c0.1,0.1,1.6-0.5,3.2-1.3c1.7-0.8,3-1.6,3-1.7c0-0.1-2-4.2-4.4-9.2s-4.5-9-4.7-9
	C536,174.2,529.4,177.4,521.6,181.3z M50.7,201.7c-0.7,1.9-1.2,3.5-1.2,3.6c0,0,4,1.4,8.8,3s8.6,3.2,8.6,3.4s-1.8,1-3.9,1.7
	s-7.2,2.5-11.3,3.9l-7.4,2.5l-1.9,6c23,8,29.9,10.3,30.1,10.3c0.3,0,0.9-1.5,1.5-3.2c0.6-1.8,1-3.3,0.9-3.4c-0.1-0.1-4-1.5-8.8-3.2
	c-4.7-1.7-8.6-3.2-8.6-3.3c0-0.2,4.9-2,11-4.1s11.3-4,11.6-4.2c0.2-0.2,0.9-1.6,1.4-3.1l1-2.8c-1.9-0.6-8.5-2.9-16-5.5
	c-7.4-2.6-13.8-4.8-14.1-4.9C52.1,198.2,51.6,199,50.7,201.7z M36.4,252.4c-0.3,1.8-0.5,3.4-0.3,3.6c0.1,0.1,7.2,1.5,15.7,3
	s15.6,2.7,15.7,2.6s0.5-1.7,0.8-3.6s0.6-3.4,0.5-3.5c-0.1,0-6.9-1.3-15.3-2.8c-8.3-1.5-15.4-2.7-15.8-2.7
	C37.1,249.1,36.9,249.6,36.4,252.4z M543.3,236.6c-8.5,1.9-15.4,3.5-15.5,3.5c0,0,0.3,1.6,0.7,3.5s0.8,3.5,0.8,3.6s2.6-0.4,5.8-1.1
	s5.9-1.3,6.1-1.4c0.2-0.1,0.8,2,1.4,4.5c0.6,2.6,1.1,4.8,1.2,4.8c0.1,0.1,1.6-0.1,3.4-0.6c1.8-0.4,3.2-0.9,3.2-1.1
	c0-0.2-0.5-2.4-1-4.8c-0.5-2.4-0.9-4.4-0.8-4.5c0,0,1.2-0.3,2.6-0.6c1.4-0.3,2.6-0.5,2.7-0.3c0.1,0.1,0.8,2.9,1.5,6.1
	c0.7,3.2,1.4,5.8,1.5,5.8s1.6-0.3,3.3-0.7c2.3-0.5,3.1-0.8,3.1-1.2c0-0.3-0.9-4.7-2-9.7s-2.1-9.1-2.4-9.2
	C558.9,233.2,551.8,234.7,543.3,236.6z M554.4,270.8c-7.5,0.5-10.5,0.9-11.8,1.3c-0.9,0.4-2.3,1.1-3.1,1.7s-1.8,1.5-2.3,2.1
	s-1.2,1.7-1.5,2.3c-0.3,0.6-0.8,2.3-1.1,3.6c-0.4,2-0.4,3,0,5.1c0.3,1.5,0.9,3.5,1.5,4.5s1.8,2.5,2.7,3.3s2.6,1.8,3.7,2.2
	c1.4,0.5,3,0.7,5.1,0.7c1.7,0,7-0.3,11.7-0.6c4.7-0.3,8.6-0.6,8.6-0.7c0,0,0-1.7-0.2-3.6l-0.2-3.5c-2.1,0-6.6,0.3-11.4,0.6
	c-4.8,0.3-9.4,0.5-10.1,0.3c-0.7-0.1-1.8-0.6-2.4-1c-0.6-0.4-1.3-1.5-1.7-2.4c-0.4-1.1-0.6-2.2-0.4-3.3c0.1-0.9,0.5-2.1,0.9-2.7
	c0.4-0.5,1.3-1.2,2-1.6c1-0.5,3.5-0.8,11.6-1.3c5.6-0.3,10.4-0.7,10.5-0.9c0.1-0.1,0.1-1.8,0-3.6c-0.2-3.3-0.2-3.4-1.2-3.5
	C564.9,270.1,559.9,270.4,554.4,270.8z M569.6,282.6c0,0.9,0.1,2.1,0.3,2.7c0.2,0.7,1.2,1.7,3.6,3.3c1.8,1.3,3.6,2.3,3.8,2.3
	c0.3,0,0.4-0.4,0.2-1.4c-0.2-0.8-0.3-2.4-0.3-3.6v-2.2c-4.6-1.7-6.3-2.3-6.7-2.4C569.7,281,569.6,281.1,569.6,282.6z M560.3,315.8
	c-0.1,1.5-0.3,3.3-0.4,4.1c-0.2,1.4-0.2,1.4-1.6,1.2c-0.8-0.1-6.3-0.7-12.3-1.2c-6-0.6-11-1-11.1-0.9s-0.4,1.7-0.6,3.6
	c-0.2,1.9-0.3,3.5-0.3,3.5s5.6,0.6,12.5,1.3c6.8,0.6,12.5,1.2,12.6,1.3c0.1,0.1,0,1.9-0.2,4s-0.4,3.9-0.4,4c0,0,1.6,0.2,3.5,0.5
	c1.9,0.2,3.5,0.4,3.5,0.3c0,0,0.6-5.3,1.2-11.7c0.6-6.4,1-11.7,0.9-11.9c-0.1-0.1-1.7-0.4-3.5-0.6l-3.3-0.3L560.3,315.8z
	 M561.9,355.7c0,0-7-1.8-15.4-3.9C538,349.7,531,348,531,348c-0.1,0-0.2,0.1-0.3,0.3c-0.1,0.2-0.9,3.4-1.9,7.1
	c-1,3.8-1.8,7.7-1.8,8.8c0,1,0.2,2.5,0.5,3.4c0.3,0.8,1.1,2.2,1.8,3s2,1.9,2.9,2.3c0.8,0.4,2.3,0.8,3.2,0.9s2.4,0,3.2-0.3
	s2-0.9,2.7-1.4l1.1-0.9c2.2,2.2,3.4,2.9,4.8,3.3c1.3,0.4,2.7,0.5,3.7,0.4c0.9-0.1,2.3-0.6,3-1c0.8-0.4,2.1-1.4,2.9-2.3
	c0.8-0.9,1.6-2,1.8-2.6s1.1-3.8,1.9-7.2C561.3,358.5,561.9,355.7,561.9,355.7z M540.6,361.7c-0.5,1.8-1.2,3.6-1.7,4.1
	c-0.6,0.6-1.2,0.9-2.2,0.9c-1.1,0-1.6-0.2-2.2-1.1c-0.4-0.6-0.8-1.3-0.8-1.7c0-0.4,0.4-2.1,0.8-3.9c0.4-1.8,0.9-3.2,1-3.2
	s1.3,0.3,2.7,0.6c1.4,0.3,2.7,0.7,2.9,0.8C541.3,358.3,541.1,359.9,540.6,361.7z M553,363.7c-0.3,1.2-0.9,2.6-1.2,3
	c-0.4,0.4-1.2,0.8-1.8,0.9c-0.7,0.1-1.5,0-2-0.4c-0.5-0.3-1-1-1.2-1.5c-0.3-0.7-0.2-1.6,0.2-3.4c0.3-1.3,0.6-2.5,0.7-2.4
	c0,0,1.3,0.3,2.9,0.7c1.6,0.4,2.9,0.8,3,0.9C553.6,361.4,553.3,362.5,553,363.7z M544.9,402.6c-0.3-1.4-0.9-3.6-1.5-4.8
	c-0.6-1.2-2-3.1-3.1-4.3c-1.2-1.2-2.9-2.5-3.8-3c-1-0.5-2.5-1.1-3.4-1.4s-3.1-0.5-4.8-0.5s-3.7,0.2-4.6,0.5
	c-0.8,0.3-2.3,0.9-3.2,1.4s-2.5,1.7-3.6,2.6c-1,1-2.3,2.5-2.8,3.5c-0.6,0.9-1.3,2.7-1.7,3.9c-0.4,1.2-0.7,3.3-0.7,4.6
	c0,1.3,0.3,3.3,0.6,4.5s0.9,2.7,1.3,3.5c0.4,0.8,1.4,2.2,2.3,3.2c0.9,1,2.3,2.2,3.1,2.8c0.8,0.6,2.3,1.3,3.2,1.7
	c0.9,0.4,2.7,0.8,4,1s3.3,0.2,4.6,0c1.2-0.2,3.5-0.9,4.9-1.6c1.9-0.9,3.3-1.9,4.7-3.5c1.1-1.2,2.5-3.2,3-4.3
	c0.6-1.2,1.2-3.2,1.4-4.6C545.3,405.8,545.3,404.5,544.9,402.6z M537.6,407.8c-0.4,1.4-1,2.4-2.4,3.8c-1.6,1.6-2.3,2-4,2.4
	c-1.2,0.3-2.8,0.4-3.6,0.3s-2.2-0.5-3-0.9s-2.2-1.4-3-2.3c-0.8-0.8-1.7-2.3-2-3.2c-0.3-0.9-0.6-2.3-0.6-3s0.2-1.9,0.4-2.7
	c0.2-0.7,0.8-1.9,1.2-2.5c0.5-0.7,1.4-1.6,2.1-2.1c0.7-0.5,1.8-1.1,2.5-1.4c0.6-0.2,2.2-0.4,3.5-0.3s2.9,0.5,3.8,0.9
	c0.8,0.4,2,1.3,2.6,1.8c0.6,0.6,1.4,1.7,1.8,2.5c0.4,0.8,0.8,2.2,1,3C538,405.3,537.9,406.7,537.6,407.8z M496.8,429
	c-1.3,1.9-4,5.7-5.8,8.3c-1.8,2.6-3.3,4.9-3.3,5s1.3,1.1,2.9,2.1l2.9,1.9c5.6-8.2,7.4-10.6,7.6-10.6s4.8,3,10.2,6.7
	c5.4,3.7,10.1,6.7,10.4,6.7s1.4-1.2,2.4-2.6c1-1.5,1.8-2.7,1.8-2.8c0-0.1-5.9-4.3-13.2-9.2c-7.2-5-13.2-9-13.3-9
	C499.3,425.5,498.1,427.1,496.8,429z M145.2,488.2c-0.8,3.7-1.5,7-1.7,7.2c-0.1,0.3-3.1,1.1-6.5,1.8s-6.6,1.4-6.9,1.5
	c-0.4,0.1-0.7,0.3-0.7,0.5c0,0.1,3,1,6.7,1.8s7,1.7,7.2,1.9c0.2,0.2,1.1,3.5,1.9,7.2c0.8,3.8,1.6,6.7,1.8,6.6s1-3.2,1.8-6.9
	c0.8-3.7,1.6-6.9,1.8-7s3.4-0.9,7.2-1.7c3.8-0.8,6.9-1.7,6.9-1.8c0-0.2-0.3-0.4-0.7-0.5s-3.6-0.8-7.2-1.6l-6.5-1.5
	c-2.2-10-2.9-13.2-3-13.6s-0.3-0.7-0.5-0.7C146.7,481.4,145.9,484.5,145.2,488.2z M451.1,488.4c-0.8,3.8-1.6,7.1-1.7,7.2
	c-0.1,0.2-3,0.9-6.5,1.6s-6.6,1.4-7,1.5s-0.6,0.3-0.7,0.5c0,0.1,3,0.9,6.8,1.8c3.7,0.8,6.9,1.6,7.1,1.8c0.2,0.2,1.1,3.4,1.9,7.2
	c0.8,3.8,1.7,6.8,1.9,6.7c0.2-0.1,1-3.2,1.8-6.9c0.8-3.7,1.6-6.9,1.8-7c0.2-0.1,3.4-0.9,7.2-1.7c3.8-0.8,6.9-1.7,6.9-1.8
	c0-0.2-0.4-0.4-0.9-0.5s-3.6-0.8-6.9-1.6c-3.3-0.7-6.2-1.5-6.3-1.6c-0.1-0.1-0.8-2.7-1.5-5.8c-0.6-3-1.4-6.2-1.6-7s-0.5-1.4-0.6-1.4
	C452.7,481.4,451.9,484.5,451.1,488.4z M375.6,522.2c-1.9,0.7-3.6,1.4-3.8,1.6c-0.2,0.2-1.2,2.8-2.1,5.8c-1,3-1.9,5.4-2,5.4
	c-0.2,0-2.4-1.6-4.8-3.6c-2.5-2-4.8-3.6-5.1-3.6c-0.3,0-2.2,0.4-4.2,1c-2,0.5-3.6,1-3.7,1s3.3,2.8,7.5,6.1s7.6,6.2,7.6,6.5
	s-1.5,4.6-3.4,9.6c-1.8,5-3.3,9.2-3.1,9.2c0.1,0,2-0.3,4.1-0.9s3.8-1,3.8-1.1c0,0,1-2.8,2.3-6.2c1.2-3.3,2.3-6.2,2.4-6.3
	s2.7,1.6,5.7,3.8l5.5,4.1c6.2-2,7.8-2.8,7.6-2.9c-0.2-0.2-3.9-3-8.3-6.2c-6.2-4.7-7.8-6.1-7.7-6.6c0.1-0.4,1.6-4.6,3.2-9.3
	c1.9-5.5,2.8-8.6,2.5-8.6C379.3,521,377.6,521.5,375.6,522.2z M218.6,522.2c-0.1,0.3-2.1,7.2-4.4,15.4s-4.1,15.1-4,15.3
	s1.6,0.8,3.3,1.4c1.7,0.6,3.3,0.8,3.4,0.7c0.1-0.2,1.3-4.2,2.6-8.9s2.5-8.8,2.7-9.1c0.2-0.4,1.2,1.9,2.9,6.6
	c1.4,3.9,2.7,7.1,2.9,7.1c0.1,0,2.8-2,5.8-4.4s5.7-4.3,5.9-4.3s-0.7,3.9-2.1,8.6c-1.3,4.7-2.4,8.9-2.4,9.2c0,0.4,0.4,0.7,1,0.9
	c0.6,0.1,2.1,0.5,3.3,0.8c1.3,0.3,2.4,0.4,2.5,0.3c0.1-0.2,2.1-7.1,4.5-15.3s4.2-15.2,4.2-15.4s-1.3-0.7-3-1.1
	c-1.6-0.4-3.1-0.7-3.3-0.7s-3.3,2.3-6.8,5.1c-6.2,4.9-6.5,5.1-6.9,4.3c-0.2-0.5-1.6-4-3-7.9l-2.5-7c-4.2-1.4-5.7-1.9-5.9-2
	C219,521.7,218.8,521.9,218.6,522.2z M335.8,532.3l-3.4,0.6c-4.3,7.9-5.8,10.2-6,10.2s-2.1-1.9-4.3-4.4l-3.9-4.4
	c-3.6,0.2-5.5,0.4-6.6,0.5l-2,0.3c10.1,11.2,13,14.6,13,14.7c0,0.1-2.2,4.1-4.9,8.8c-2.7,4.7-4.9,8.6-4.8,8.7c0,0.1,1.9,0,4.1-0.1
	l4-0.2c5.4-9.3,7-11.9,7.1-11.9s2.3,2.3,4.8,5l4.7,4.9c6-1,7.8-1.4,7.9-1.4c0,0-3-3.4-6.8-7.5s-6.8-7.5-6.8-7.6s2.1-3.9,4.6-8.4
	s4.5-8.3,4.6-8.5c0-0.1-0.4-0.3-0.8-0.2C339.6,531.7,337.7,532,335.8,532.3z M263.9,549c-0.6,8.8-1,16.1-0.8,16.3s1.8,0.5,3.6,0.8
	c1.8,0.3,3.3,0.4,3.3,0.4s0.3-3.9,0.6-8.6c0.4-4.7,0.6-9,0.6-9.6s0.1-1,0.3-1.1c0.2,0,2,2.8,4.2,6.3s4,6.3,4.1,6.3s2.4-2.7,5.1-5.9
	c4.6-5.5,4.9-5.8,4.9-4.7c0,0.7-0.2,4.4-0.6,8.3c-0.3,3.9-0.6,7.8-0.6,8.6v1.6h7.2c0.3-2.5,0.8-9.7,1.3-17.7
	c0.6-7.9,0.9-14.5,0.9-14.5s-1.6-0.1-3.3-0.2l-3.2-0.2c-8.3,9.9-10.7,12.8-10.8,12.9c-0.1,0-2.2-3.1-4.6-7c-4.3-7-4.4-7-5.9-7.2
	c-0.8-0.1-2.4-0.3-3.4-0.5l-1.9-0.2L263.9,549z"/>
</svg>
