<svg version="1.1" id="Layer_1" xmlns="http://www.w3.org/2000/svg" xmlns:xlink="http://www.w3.org/1999/xlink" x="0px" y="0px"
	 viewBox="0 0 600 600" style="enable-background:new 0 0 600 600;" xml:space="preserve">
<style type="text/css">
	.st0{fill:#FFFFFF;}
</style>
<path id="Outline" class="st0" d="M583.9,34.9V0H19.1v34.9c0,0,0,195.5,0,196.7C19,308.8,42.4,384.3,86.4,447.9l-70.3,70.3
	l49.3,49.3l65.9-65.9c15.8,15.7,32.9,30.1,51.2,42.8c33.3,23.3,70.1,41,109.1,52.6l9.9,3l9.9-3C473.1,549,584,400.3,583.9,231.6
	C583.9,230.5,583.9,34.9,583.9,34.9z"/>
<path id="Red" d="M549,34.3H54c0,0,0,195.8,0,197c-0.1,80.2,27.7,157.9,78.6,219.8L549,34.7V34.3z"/>
<path id="White_Shield" class="st0" d="M301.5,563.5C444.7,520.9,549,388.3,549,231.3c0-1.1,0-187.1,0-196.6L132.6,451.1
	C176.4,504.6,235.3,543.7,301.5,563.5z"/>
<path id="White_1_" class="st0" d="M241.3,231l6.3,19.4l-16.5-12l-16.5,12l6.3-19.4l-16.5-12h20.4l6.3-19.4l6.3,19.4h20.4L241.3,231
	z M146.2,231l16.5-12h-20.4l-6.3-19.4l-6.3,19.4h-20.4l16.5,12l-6.3,19.4l16.5-12l16.5,12L146.2,231z M189.8,282.3l-6.3-19.4
	l-6.3,19.4h-20.4l16.5,12l-6.3,19.4l16.5-12l16.5,12l-6.3-19.4l16.5-12H189.8z M128,154.9l-18.8-42.7h-0.6v57c0,0.8-0.5,1.4-1.3,1.5
	c-0.1,0-0.1,0-0.2,0H90.3c-0.8,0-1.5-0.5-1.5-1.3c0-0.1,0-0.1,0-0.2V70.9c0-0.8,0.5-1.4,1.3-1.5c0.1,0,0.1,0,0.2,0H108
	c1-0.1,2,0.5,2.4,1.5l25.6,57.7h0.6l25.1-57.7c0.4-1,1.3-1.6,2.4-1.5h17.4c0.8,0,1.4,0.5,1.5,1.3c0,0.1,0,0.1,0,0.2v98.2
	c0,0.8-0.5,1.4-1.3,1.5c-0.1,0-0.1,0-0.2,0h-16.8c-0.8,0-1.4-0.6-1.5-1.3c0-0.1,0-0.1,0-0.2v-57h-0.6l-18.7,42.7
	c-0.4,1.2-1.6,2-2.8,1.9h-10.3C129.5,156.9,128.4,156.1,128,154.9 M198.1,170.6H264c0.8,0,1.4-0.6,1.5-1.3c0-0.1,0-0.1,0-0.2v-16.5
	c0-0.8-0.6-1.4-1.3-1.5c-0.1,0-0.1,0-0.2,0h-44.6c-0.4,0.1-0.8-0.2-0.9-0.7c0-0.1,0-0.2,0-0.2V70.9c0-0.8-0.5-1.4-1.3-1.5
	c-0.1,0-0.1,0-0.2,0h-18.9c-0.8,0-1.4,0.5-1.5,1.3c0,0.1,0,0.1,0,0.2v98.2c0,0.8,0.5,1.4,1.3,1.5C198,170.7,198.1,170.7,198.1,170.6
	 M320.5,109.8l-5.4-0.7c-11.6-1.6-15.8-5.4-15.8-11.2c0-6.4,4.6-11,13.5-11c8.3,0,15.8,2.7,23.5,7.7c0.7,0.5,1.6,0.3,2.1-0.4l0,0
	l9.1-13.5c0.7-1,0.6-1.6-0.3-2.2c-8.5-6.5-21-10.6-34.4-10.6c-21.9,0-35.9,12.4-35.9,31c0,17.9,11.5,27.5,32,30.4l5.4,0.7
	c12.1,1.6,15.6,5.4,15.6,11.3c0,7.1-5.9,12.1-16.5,12.1c-10.7,0-19.8-5.1-26.5-10.4c-0.6-0.6-1.5-0.6-2.1,0l-0.1,0.1L273.4,156
	c-0.6,0.7-0.6,1.9,0.1,2.5c7.9,7.6,23.2,13.8,39,13.8c26.2,0,39.7-13.5,39.7-31.8C352.3,122.1,341.3,112.6,320.5,109.8"/>
<path id="Blue_Outline" d="M560.6,34.3V22.7H42.3v11.6c0,0,0,195.8,0,197c-0.1,78,25.3,153.9,72.4,216c0.7,1,1.5,1.9,2.2,2.9l-68,68
	l16.4,16.4l66.5-66.5c19,21.5,40.4,40.6,63.9,57c31.3,21.8,65.8,38.5,102.4,49.4l3.3,1l3.3-1c36.6-10.9,71.1-27.6,102.4-49.4
	c30.9-21.6,58.3-47.9,81-77.9c47.1-62.1,72.6-138,72.4-216C560.7,230.1,560.6,34.3,560.6,34.3z M133.3,433.3
	c-44.1-58.1-67.9-129.1-67.7-202c0-1,0-143.2,0-185.4h455.7L133.6,433.6C133.5,433.5,133.4,433.4,133.3,433.3z M519.5,339.7
	c-11.5,33.7-28.3,65.3-49.8,93.6c-21.3,28.1-46.8,52.7-75.8,72.9c-28.3,19.8-59.5,35-92.4,45.2c-33-10.2-64.1-25.4-92.4-45.2
	c-22.4-15.6-42.8-33.9-60.7-54.5l389-389.1c0,54.3,0,167.8,0,168.7C537.5,268.1,531.4,304.8,519.5,339.7z"/>
</svg>
