<svg version="1.1" id="Layer_1" xmlns="http://www.w3.org/2000/svg" xmlns:xlink="http://www.w3.org/1999/xlink" x="0px" y="0px"
	 viewBox="0 0 600 600" style="enable-background:new 0 0 600 600;" xml:space="preserve">
<style type="text/css">
	.st0{fill:#FFFFFF;}
</style>
<path id="Gray_1_" class="st0" d="M300,0C134.3,0,0,134.3,0,300s134.3,300,300,300s300-134.3,300-300S465.7,0,300,0z"/>
<circle cx="300" cy="300" r="281.9"/>
<path class="st0" d="M460.5,336.1c2.6-11.6,4-23.7,4-36.1c0-27.6-6.8-53.6-18.8-76.4c0.1-11.1-0.5-24.5-1.4-36.2l-0.2-3.2l-3-1.1
	c-0.3-0.1-14.6-5.4-37.4-10.9c-28.3-22.9-64.3-36.7-103.6-36.7s-75.3,13.8-103.6,36.7c-22.8,5.5-37.1,10.8-37.4,10.9l-3,1.1
	l-0.2,3.2c-1,11.7-1.5,25.1-1.4,36.2c-12,22.8-18.8,48.9-18.8,76.4c0,12.4,1.4,24.5,4,36.1l-99.4,34.3c0.9,3.3,1.8,6.5,2.8,9.7
	l99.1-34.2c15.1,52,55.2,93.4,106.4,110.3c15.5,13.4,32.2,23.8,49.7,30.8l1.9,0.8l1.9-0.8c17.5-7,34.2-17.4,49.7-30.8
	c51.2-16.9,91.3-58.3,106.4-110.3l99.1,34.2c0.8-3.2,1.7-6.5,2.6-9.7L460.5,336.1z M300,145.6c28,0,54.9,7.4,78.4,21.3
	c-21.9-4.1-48-7.3-75.5-7.3h-5.6c-27.5,0-53.6,3.2-75.6,7.3C245.1,152.9,272,145.6,300,145.6z M190.8,409.2
	c-29.2-29.2-45.2-67.9-45.2-109.2c0-18.6,3.3-36.8,9.6-53.8c3.4,52.5,17.3,101.9,40.7,144c9.8,17.5,21,33.4,33.4,47.1
	C215.2,430.1,202.2,420.7,190.8,409.2z M227.4,419.7c-8.3-10.4-15.9-21.9-22.8-34.3c-1.8-3.3-3.6-6.6-5.3-9.9c0.1,0,0.2,0,0.2-0.1
	c2.6-0.4,5.1-0.6,7.6-0.6c10.9,0,21.1,3.8,28.8,10.8c14.7,13.5,14.7,34.1,14.7,34.1H227.4z M271.1,461.1
	c-6.1-4.2-11.9-8.8-17.6-13.7c-1.3-1.1-2.5-2.2-3.8-3.4c14,0,29.4,0,33.9,0C282.5,450.5,277.8,456.4,271.1,461.1z M300,194.7v-0.2
	c-16,10.5-36.7,28-46.1,52.5c-4.6,12-6.5,25.6-3.9,40.9c0.5,3.1,1.2,6.2,2.1,9.3c6.5,22.9,24.5,70.8,29,89.9
	c4.5,19.2,6.4,32.6,6.4,32.6s-10.4,0.1-17,0c-3.7-20.3-7.8-36.6-18.4-61.9c-19.5-46.4-45.7-70.7-73.3-66.2c-2.6,0.4-5,1.1-7.4,2
	c-4.3-21.7-6.7-44.3-7-67.5c0-0.5,0-1,0-1.5c-0.1-5.5,0.1-11.7,0.3-17.9c0.2-5.1,0.5-10.1,0.8-15c3-1,8.2-2.7,15.2-4.7
	c5.7-1.6,12.5-3.4,20.3-5.3c24.8-5.9,59.1-11.9,96.2-11.9h5.6c37,0,71.4,6,96.2,11.9c7.8,1.8,14.6,3.7,20.3,5.3
	c7,2,12.2,3.7,15.2,4.7c0.4,4.9,0.6,10,0.8,15.1c0.2,6.3,0.4,12.4,0.3,17.9c0,0.5,0,1,0,1.5c-0.5,41.4-10.5,84.6-7.1,67.5
	c-2.4-1-4.9-1.7-7.5-2.1c-27.6-4.4-53.7,19.9-73.3,66.2c-10.6,25.2-14.7,41.6-18.4,61.9c-6.7,0.1-17,0-17,0s1.9-13.5,6.4-32.6
	c4.5-19.1,22.5-67.1,29-89.9c0.9-3.2,1.6-6.3,2.1-9.3C357.8,241.5,323.7,210.4,300,194.7z M346.6,447.6
	c-6.2,5.5-12.6,10.4-19.2,14.9c-8.5,5.4-17.2,10.1-26.1,13.8c9.4-4,18.5-9.1,27.3-15.1c-6.7-4.7-11.5-10.7-12.6-17.2
	c4.5,0,20,0,34,0c7.9-7.3,15.4-15.4,22.4-24.3H349c0,0,0-3.8,1.2-9.2c-0.2,1.9-0.4,3.9-0.6,5.9c0.7-6.5,3.6-20.5,14.5-30.6
	c9.5-8.7,22.8-12.3,36.5-10.2c0.1,0,0.1,0,0.2,0c-1.7,3.4-3.4,6.7-5.3,10C381.9,410.2,365.2,431.2,346.6,447.6z M409.2,409.2
	c-11.5,11.5-24.4,20.9-38.4,28.1c12.4-13.8,23.7-29.6,33.4-47.1c23.4-42.1,37.3-91.5,40.7-144c6.3,17,9.6,35.1,9.6,53.8
	C454.4,341.3,438.4,380.1,409.2,409.2z M391,121.3l5.5,3.3c1,0.7,1.5,0.6,2.1-0.4l7-11.6l2.8,1.7l1.3,16.6c0.2,1.2,0.5,2,1.6,2.6
	l5.1,3.1c1,0.7,2.2,0.7,2.1-0.9l-1.4-17.1c4.7,1.2,9.7,0.6,12.7-4.6c4.5-7.5-1.3-14-7.1-17.4l-12.6-7.5c-1-0.7-1.5-0.6-2.1,0.4
	l-17.6,29.7C389.8,120.2,389.9,120.7,391,121.3z M413.2,99.4l5.5,3.3c3.5,2.1,4.5,4.1,3.1,6.5c-1.4,2.4-3.6,2.5-7.2,0.4l-5.5-3.3
	L413.2,99.4z M494.2,245.8l33.9-7.1c1.1-0.2,1.5,0.1,1.8,1.2l1.3,6.3c0.2,1.2,0,1.6-1.1,1.9L502,254l3.4,15.9c0.2,1.2,0,1.6-1.1,1.9
	l-4.4,0.9c-1.1,0.2-1.5-0.1-1.8-1.2l-5-23.8C492.9,246.5,493.1,246.1,494.2,245.8z M467.2,188.6l3.5,6.7c0.4,1,0.9,1.1,2.2,1.2
	l6.3,0.2l7.7,14.7l-3.4,5.3c-0.7,1.1-0.8,1.6-0.3,2.5l3.5,6.7c0.5,0.8,1.4,0.9,1.8,0.2l21.7-34.7c0.6-0.9,0.9-1.3,0.7-1.8l-0.1-0.2
	c-0.3-0.5-0.8-0.4-1.9-0.5L468,187C467.2,187,466.8,187.8,467.2,188.6z M499.2,195.3v0.2l-7,10.4l-5.6-10.8L499.2,195.3z
	 M435.4,152.4c-0.9-0.9-0.9-1.4-0.1-2.1l25-23.9c0.8-0.8,1.3-0.8,2.1,0.1l18.5,19.3c0.9,0.9,0.9,1.4,0.1,2.1l-3.2,3.1
	c-0.8,0.8-1.3,0.8-2.1-0.1l-13-13.6l-5.5,5.2l12.4,13c0.9,0.9,0.9,1.4,0.1,2.1l-3.2,3.1c-0.8,0.8-1.3,0.8-2.1-0.1l-12.4-13l-5.6,5.4
	l13,13.6c0.9,0.9,0.9,1.4,0.1,2.1l-3.2,3.1c-0.8,0.8-1.3,0.8-2.1-0.1L435.4,152.4z M344.5,72.4l1.3-4.7c0.3-1.1,0.7-1.3,1.9-1
	l31.5,8.7c1.2,0.3,1.4,0.7,1.1,1.8l-1.3,4.7c-0.3,1.1-0.7,1.3-1.9,1L366,79.8l-7.6,27.3c-0.3,1.1-0.7,1.3-1.9,1l-6.2-1.7
	c-1.2-0.3-1.4-0.7-1.1-1.8l7.6-27.3l-11.2-3.1C344.4,73.9,344.2,73.5,344.5,72.4z M474.1,127.7c-0.7-0.8-0.6-1.3,1.2-1.2l10.4,0.2
	c1.1,0,1.4,0.8,1.2,1.9l-0.8,3.8c-0.2,1-0.5,1.2-1.8,1l-4.5-0.9c-0.9-0.1-1.7-0.5-2.3-1.2L474.1,127.7z M144.9,119
	c-0.2-0.3-0.2-0.5,0.1-0.7l0.4-0.3c0.2-0.1,0.4-0.2,0.9,0l30.4,9.5l0.7-31.9c0-0.5,0.1-0.7,0.3-0.8l0.4-0.3c0.3-0.2,0.4-0.2,0.7,0.1
	l25.2,26.6c0.7,0.8,0.6,1.4-0.4,2.1l-5.2,3.8c-1,0.7-1.4,0.6-2.1-0.2L185.6,115l-0.7,20.6c0,1.1,0,1.8-0.4,2.1l-0.6,0.4
	c-0.4,0.3-1.1,0.1-2.1-0.2l-19.4-6l7.3,13.8c0.6,1.1,0.6,1.4-0.4,2.1l-5.2,3.8c-1,0.7-1.7,0.7-2.1-0.2L144.9,119z M278.2,508.9
	c-7.7-0.8-13.4,3.9-14,10.1c-0.6,6.6,3.9,10.4,9.7,11c5.4,0.5,7.4-1,8.5-2.1c-0.5,4.9-3.4,7.9-7,7.5c-3.1-0.3-4.9-1.5-6.6-3.4
	c-0.7-0.9-1.1-0.7-1.9-0.1l-3.2,2.6c-0.7,0.6-1,0.9-0.3,1.7c3,3.2,6.4,5.1,10.8,5.5c11,1.2,15.7-6.3,16.6-15.4
	C291.7,517.5,289.5,510,278.2,508.9z M282.8,520.3c-0.3,2.7-2.5,4.5-5.7,4.2c-2.9-0.3-5-2.6-4.8-5.2c0.3-2.8,2.6-4.5,5.7-4.2
	C281.3,515.4,283.1,517.5,282.8,520.3z M247.5,505.3l-8.2,28.3c-0.3,0.9-0.7,1.1-1.8,0.8l-5.8-1.7c-1.1-0.3-1.3-0.7-1.1-1.6
	l5.9-20.6l-6.5-1.9c-1.1-0.3-1.3-0.7-1.1-1.6l0.6-2.1c0.1-0.5,0.3-0.9,1.1-1.1c0.1,0.2,7.7-0.9,8.8-1c1.1-0.1,2.5-0.3,3.5-0.1l3.5,1
	C247.5,504,247.7,504.4,247.5,505.3z M319.3,509.2c-7.7,0.7-12.4,6.4-11.8,12.6c0.6,6.5,5.8,9.4,11.7,9c5.3-0.5,7-2.4,7.9-3.7
	c0.5,4.9-1.8,8.4-5.4,8.7c-3,0.3-5-0.4-7.1-2c-0.9-0.7-1.3-0.5-1.9,0.3l-2.6,3.1c-0.6,0.9-0.8,1.2,0,1.8c3.5,2.5,7.2,3.7,11.6,3.3
	c10.9-1.1,14.2-9.3,13.3-18.4C334.2,515,330.6,508.1,319.3,509.2z M321.2,524.7c-2.9,0.3-5.5-1.6-5.7-4.2c-0.3-2.7,1.7-4.9,4.8-5.2
	c3.3-0.3,5.5,1.4,5.7,4.2C326.3,522.2,324.4,524.4,321.2,524.7z M375.7,521.4c1.8,6.5-3.4,11.1-10.7,13.1c-4.7,1.3-8.7,0.5-12.5-1.4
	c-0.9-0.4-0.8-0.8-0.3-1.7l1.9-3.4c0.5-0.9,0.9-1.1,1.8-0.6c2.5,1.2,4.4,1.8,7.4,0.9c4.4-1.2,5.1-3.1,4.5-5.4
	c-0.4-1.6-2.4-2.8-5.8-1.8l-4.9,1.2c-1,0.3-1.4,0.1-1.6-0.8l-0.9-3.3c-0.2-0.9-0.1-1.3,1-1.6l4-1.1c3.4-0.9,4.3-2.9,3.9-4.5
	c-0.6-2.3-2.4-3.2-5.8-2.3c-3,0.8-3.9,2.2-5.2,4.5c-0.5,0.9-1,0.9-1.9,0.4l-3.4-1.9c-0.9-0.5-1.2-0.8-0.6-1.6
	c2.3-3.6,4.7-6.2,9.4-7.5c5.5-1.6,13.3-0.8,15.1,5.6c0.9,3.1-0.4,5.9-2.2,7.8v0.1C371.7,516.6,374.6,517.5,375.7,521.4z M67.9,246.7
	c1.2-5.6,4.6-11,8.6-13.9c1-0.7,1.3-0.4,1.9,0.6l2.8,4.3c0.6,1,0.7,1.5-0.3,2.2c-3,2-4.9,4.8-5.7,8.4c-1.5,7.1,3.4,12.5,9.2,13.8
	c5.7,1.2,12.5-1.6,14.1-8.8c1-3.6,0.4-6.9-1.6-9.9c-0.6-1-0.3-1.5,0.6-2.2l4.3-2.8c1-0.6,1.4-0.8,2,0.2c2.5,4.4,3.4,10.7,2.2,16.2
	c-2.4,11.4-13.1,18.9-23.5,16.7C72.1,269.3,65.5,258,67.9,246.7z M242.7,109.2c11.2-3.4,17.9-14.6,14.8-24.8
	c-3-10.3-14.8-15.9-25.9-12.6c-11.1,3.3-17.8,14.5-14.8,24.8S231.5,112.6,242.7,109.2z M233.8,79c7.2-2.2,12.7,2.4,14.4,8.1
	c1.7,5.6-0.4,12.5-7.6,14.7c-7,2.1-12.7-2.5-14.4-8.1C224.5,88,226.8,81.1,233.8,79z M84.1,200.5l12.4-23.7c0.6-1.1,1-1.2,2-0.8
	l4,2.1c1,0.5,1.1,1,0.5,2.1l-8.7,16.6l6.7,3.5l8.4-16.1c0.6-1.1,1-1.2,2-0.7l4,2.1c1,0.5,1.1,1,0.5,2.1l-8.4,16.1l12.3,6.3
	c1,0.5,1.1,1,0.5,2.1l-3,5.7c-0.6,1.1-1,1.2-2,0.8l-30.7-16.1C83.6,202.1,83.5,201.6,84.1,200.5z M281.6,98.9V62.6
	c0-0.4,0.1-0.5,0.5-0.5h0.6c0.4,0,0.7,0.2,1.1,0.5l25,20.5V64.2c0-1.1,0.4-1.4,1.6-1.4h6.4c1.2,0,1.6,0.3,1.6,1.4v36.3
	c0,0.4-0.1,0.5-0.5,0.5h-0.6c-0.4,0-0.7-0.2-1.1-0.5l-25-20.8v19.2c0,1.1-0.4,1.4-1.6,1.4h-6.4C282,100.3,281.6,100,281.6,98.9z"/>
</svg>
