<svg version="1.1" id="Layer_1" xmlns="http://www.w3.org/2000/svg" xmlns:xlink="http://www.w3.org/1999/xlink" x="0px" y="0px"
	 viewBox="0 0 600 600" style="enable-background:new 0 0 600 600;" xml:space="preserve">
<style type="text/css">
	.st0{fill:#FFFFFF;}
</style>
<circle id="Navy_2_" cx="300" cy="300" r="300"/>
<circle id="White_1_" class="st0" cx="300" cy="300" r="286.9"/>
<path id="Navy" d="M301.9,96.6c37.2,0.2,73.1,22.3,90.8,54.9c31.6-9.4,63.2,19.2,55.9,51.7c-0.2,2.7-1.7,2.7,0.7,4.1
	c2.5,1.5,5.6,3.4,8.3,5.3c34,23.3,51.5,67.2,42.9,107.5c-5.7,29.1-24.9,55.6-50.6,70.4c-1.1,0.6-2,1.2-2,1.2
	c0.9,4.7,1.9,6.9,1.6,13.1c0.8,26.4-25,47.6-50.5,43.4c-1.1,0.2-5.9-1.7-6.5-1.1c-3.3,6-8.4,13.4-13.2,18.7
	c-16.8,19.1-40.7,31.9-66,35C275,506,235,488,213.3,456.1c-7.2-9.6-2.5-9.8-11.9-7.8c-31.2,5.1-58.3-26.1-48.7-56.4
	c-55.9-30-72.6-105.7-33.9-156.1c8.4-11.3,19.6-21.1,31.8-28.1c2.6-1.6,2.3-0.7,1.8-3.8c-2.8-13.1,0.9-27.3,9.5-37.5
	c10.5-12.9,29-18.4,44.9-14.3C225.4,118.2,262.8,95.2,301.9,96.6z"/>
<path id="White" class="st0" d="M313.2,184.2c18.5,0,38.1,5,53.3,15.8c1.3,0.9,2.3,1.7,2.2,1.8c0,0.1-3.8,4.8-16.9,20.7
	c-25.4-25.4-66-17.5-94.2-0.1l-0.1,66.5c15.6,0.1,57.7,0.2,66.6,0.1c11-0.2,12.5-0.4,20.7-3.9c3.9-1.8,7.8-5.3,10.4-8.5
	c0.2-0.2,8.5-4.7,18.4-9.8c9.9-5.1,18.2-9.4,18.3-9.4c0.4,2-1.3,7.6-1.8,10c-9.4,32.6-34.9,45.8-67.6,44.8c8,10.7,13.8,20.4,20,33
	c6.5,11.9,10.7,25.3,25,27c10.9,0.4,20.7-8.1,28.6-14.5c0.1-0.1,10.5,9.3,10.5,9.3c0.2,0.2-3.1,3.6-37.9,38.2
	c-39.6-10.1-47-67.7-77.4-89.6c-1.1-0.7-3-1.8-6.3-3.5h-27.5l-0.1,10.6c-4.7,3.8-24.8,20.5-26,21.3c0.9-11.9,0.7-12,0.8-32
	c-18.1,0.5-17-2.5-17.3,23.6l-13.9,0.1c0.1-21.7,0.1-50.6,0.4-70.9h13.8c0.8,7.6-2.2,17.8,3.4,22.2c4.3,2.1,1.6,1,13.7,1.5
	c0-9.9,0-52.7-0.1-55.1c-7.5,1.1-16.6,1-23.8-1.9c-1.4-0.7-3.8-0.8-3.7-2.1c6.6-27.3-2.4-15.4,21-17.7c12.2-1.6,23.3-10.3,34.4-15
	C276.6,189.3,295.2,184.4,313.2,184.2z M258.2,376.4c1.9,11.2,5.4,21.7,12.5,31.1c-1.4,1.7-7.1,8.8-7.7,9.1
	c0.2,0.4-19-15.6-18.6-15.5c0-0.1,2.9-5.5,6.4-11.8C254.9,382.1,257.1,377.6,258.2,376.4z"/>
<path id="Red" class="st0" d="M201.7,434.5c0.9,1.9-0.4,1-1.9,1.5c-20.7,3.6-40.3-17.9-34.2-38.1c1.9,0.6,7.6,2.5,10.3,3.2
	c-1.3,13.2,7.7,23.7,22.2,22.4C198.8,426.3,200.6,431.8,201.7,434.5z M165,200c-0.7,1.2,11.6-3.4,11.3-3.1
	c-0.4-13.3,9.1-21.9,21.5-21.1c2.2-11,7-11.9-2.6-11.9c-17.2-0.1-32.2,16.1-30.5,33.3C164.8,198.4,164.9,199.7,165,200z M424.3,197
	c10.8,2.4,12.1,7.6,11.9-3.3c0.3-16.7-14.5-31.2-31.1-30.7c-3.2,0-4.2,0.1-6.7,0.8c0.8,2.1,3,8.6,3.5,10.8
	C415.1,174,425.9,183,424.3,197z M435.2,386.7c-9.1,4.5-19.7,7.4-29.7,8.3c3.3-5,9.4-11.2,12.8-16.9c25.9-38.2,31.2-88.9,13.8-131.7
	c-4.1-10.2-9.6-20.7-16.1-29.3c-0.1,0-20.2,16.2-89,71.9c-4.9,0.1-29.4-0.1-29.4-0.2c14.2-18,64-77.7,78.1-95.4
	c4.1-5,7.5-9.2,7.5-9.3s-1-0.8-2.2-1.7c-15.1-10.5-32-17.9-50-22c-44.6-10.3-93.1,3-126.8,33.5c3.4-44.6,43.8-80.4,87.6-83.3
	c54.2-4.7,104,36.3,104.8,91.7c49.3,0.9,89.4,41.4,91.9,90.4C491.4,331,470.2,370.3,435.2,386.7z M384.9,181.2
	c-24.8-74.3-144.8-74.3-169.6,0c38.8-52.5,130.1-52.6,169.2-0.5L384.9,181.2z M419.3,214.6c34.6,27.6,47,80,32,122.8
	c-6.1,18.2-17.6,35.2-33,46.5c31.7-9.8,52.5-42.8,55.4-75C477.6,270.4,457.2,227.7,419.3,214.6z M395.8,404.3
	c-3.2,44.7-44,80.8-88.1,83.3c-53.5,4.8-104-36.9-104.1-91.7C130,394.5,88.5,312,124.3,249.8c13.6-24.1,38.4-42,66-45.9
	c1.7-0.3,3.5-0.5,3.9-0.5c0.7,0,0.7,0,0.5,0.3c-1.5,1.8-3.8,4.3-5.7,6.8c-10,12.5-17.9,26.8-23.2,41.8c-14.8,41.6-8.5,90,16.5,126.4
	c1.2,1.7,2.2,3.2,2.3,3.4c9.9-7.3,63.1-51.5,74.2-60.5c3.9,0.5,23.3,2.6,23,3c1.4,0.9,3.9,3.8,4.7,5.2c0.2,0-69.6,84.2-69.8,84.5
	C269.6,453.7,347.7,449,395.8,404.3z M181.4,383.9c-39.9-30.4-50-94.7-25.4-139.4c6.2-11.7,15.4-22.3,25.9-30.1
	c-9.9,2.8-20.4,9.6-28.1,17C108.3,273.8,120.5,363,181.4,383.9z M215.3,417.2c24.7,74.3,144.8,74.3,169.6,0
	C346,469.9,254.2,469.9,215.3,417.2z M424.3,401c1.6,14.3-9,23.7-22.3,22.4c-2.3,10.5-7.3,11.7,2.3,11.8
	c19.6,1.7,36.7-19.2,31.1-37.8C432.6,398.4,427.6,400.1,424.3,401z"/>
<path id="Navy_1_" d="M426.3,72c-1.9-1.1-2.7-1.5-3.7-2.1c-5.7,4.8-29.7,24.7-31.2,26c-0.7,0.2,5.6,3.4,6.6,4
	c10.3-7.9,3.6-6.9,13.6-2.2c9.8,5.2,6.2,3,5.6,12.7c-0.1,0.3,6.5,4,6.6,3.9c0.2,2.1,5.1-34.2,6-40.1C429,73.5,427.6,72.7,426.3,72z
	 M422,80.2c0,0.1-2.3,13.9-2.4,14c-0.1,0-2.1-1-4.4-2.3c-2.4-1.3-4.4-2.4-4.4-2.5C410.5,89.7,422.8,77.8,422,80.2z M455.5,89.9
	c0.3,0.1,6.4,5.3,6.6,5.5c1-1.5-3.8,28.5-3.6,29.3c2.8-2.8,12.4-14.5,16.1-18.7c0.9,0.8,6.4,4.9,5.5,5.1c-0.1,0.2-5.6,6.8-12.2,14.6
	s-12,14.3-12.1,14.3s-1.5-1.1-5.9-5c0.1-1.3,3.7-29.8,3.8-31.7c-0.1,0-3.9,4.6-8.5,10.2c-4.7,5.6-8.5,10.3-8.5,10.3
	c0,0.1-5.8-4.6-5.6-4.7c0-0.1,5.5-6.8,12.1-14.8C449.8,96.2,455.3,89.8,455.5,89.9z M306.5,38.9l0.1,1.1c0.1-0.3,1.4,37.2,1.3,36.9
	c0,0-1.8,0.1-8,0.3c-3.2-4.7-16.9-24.7-17.9-25.8c-0.4,1.9,1,23.9,0.7,26.2c-0.1,0.1-1.8,0.2-7.4,0.4l-0.1-1.1
	c-0.1,0-1.4-36.9-1.2-36.8c0.1-0.1,2.2-0.2,9.3-0.4c3,4.4,15.5,23,16.4,24c0.8,1.2-0.9-25-0.7-24.5
	C300.4,38.7,300.8,39.1,306.5,38.9z M338.8,40.8c8.7,0,16.7,6.1,18.1,14.6c-0.1,0.1-6.9,1.3-7,1.3c-1.7-5.1-5.6-9.1-11.5-9
	c-17.7,0.7-15.3,29.7,2.8,25.9c2.5-0.6,5.6-2.9,6.2-5.5c0.2,0-11.9-2.2-11.7-2.2c0.1-0.7,0.8-5.5,1-6.3c3.4,0.6,17.9,3,18.8,3.2
	c0.1-0.4-3.1,19.9-3.2,19.4c-1,0-4.6-0.7-6-0.9c0.8-8-0.6-0.5-8.6-1C311.5,80.4,313.4,39.9,338.8,40.8z M257,42.5
	c1.7,8,3.7,6.1-6.6,8.3c-11.2,2.3-7.8,0.3-6.1,10.1c-0.1,0.1,14.4-2.9,14.3-2.8c0.2,0,0.5,1.2,1,3.2c0.4,1.8,0.7,3.2,0.7,3.2
	c0.2,0-14.6,3-14.4,3.1c-0.2-0.1,1.6,9.1,1.9,8.5c-0.2,0.2,16.2-3.3,16-3.1c2.3,9.6,2.1,6-10.1,9.3c-6.9,1.1-11.4,3.2-12,1.8
	c0.1,0.4-8-36.9-7.9-36.5C233,47.4,258,41.7,257,42.5z M376,50.2c0.1,0,1.7,0.5,7,2.4c0,0-10.1,28.5-10.2,29.4
	c-0.3-0.1,15.9,5.8,15.6,5.7c0.1-0.1-2.1,6.8-2.3,6.6c0.5,0.3-23.2-8.3-22.7-8.2C363.1,87,376,49.3,376,50.2z M200.2,57.6
	c0-0.8,8.8,39,8.6,38.2c0,0.1-1.5,0.9-6.6,3.7c-2.7-2.8-17.3-17.1-20.3-19.6c-0.2-0.4,5,27.7,4.8,27.4c0.5,0.2-6.8,4.1-6.8,3.9
	c-0.1,0-6.2-6.4-13.5-14.1C159,89.4,153,83,153,83c0.8-0.6,4.9-3.6,6-4.4c26.8,27.8,18.1,23.8,14.2-7.1c9.3-5.6,5.2-4.1,16.5,5.9
	c5.4,5.2,9.8,9.4,9.8,9.3c0.2,0.4-6.4-26.6-6.2-26.2C193.5,60.4,200.1,57.5,200.2,57.6z M141.9,91.8c0,0,1.1,1.2,2.3,2.7
	c2.2,2.6,2.2,2.7,1.8,3c0,0-12.4,10-12.4,10.1c6.8,7.7,3.5,8.7,11.3,2.1c7.3-6.2,5.2-5.5,9.8,0.3c0.2-0.1-11.5,9.6-11.3,9.5
	c0,0.1,1.3,1.6,5.6,6.9l12.8-10.5c0.5,0.8,4.4,4.7,4.3,5.6c0.2-0.1-18.4,14.9-18.4,14.6c0.3,0.7-24.8-29.5-24.2-29
	C122.8,107.4,142.4,91.3,141.9,91.8z M110.2,119.8c-0.6-0.7,29.9,25,29.1,24.5c0,0.1-1.1,1.5-2.5,3.1c-1.8,2.2-2.5,2.9-2.9,2.9
	c0.4,0.1-31.4-4.1-31-3.9c-0.6-0.3,20.5,17.4,19.9,17c0.1,0-4.6,5.8-4.7,5.6c-0.1,0-6.7-5.5-14.6-12.2s-14.4-12.2-14.4-12.3
	s1.3-1.7,2.8-3.5c1.6-1.9,2.9-3.5,3.1-3.5s6.5,0.8,14,1.9c16.3,1.6,19.8,5.7,5.7-6.1C104.9,124,103.2,127.5,110.2,119.8z
	 M506.6,145.3c-0.2-7.4-9.1-15.7-13.1-21.2c0.5-0.7-30.3,24.2-29.7,23.8c5.1,6.4,12.6,18.4,22.1,18.3
	C496.8,166.9,507.8,156.4,506.6,145.3z M499.1,147.8c-1.6,7.2-10.5,13.5-17.6,9.6c-2.4-1-6.5-5.9-7.9-8c0.1-0.1,4.4-3.6,9.6-7.7
	c5.2-4.2,9.5-7.5,9.5-7.4C495.9,137.7,500.3,142.7,499.1,147.8z M46.6,282.2v30.6h-6.5v-20.5h-7.3v-4.4c3.3-0.2,7.1-2.1,8-5.4
	C40.9,282.2,41.2,282.2,46.6,282.2z M80.8,291.5c-1.2-9.5-13.7-13.6-20.4-6.8c-5,4.6-3.8,13.7,2.3,16.7c8.7,4.2,13-4.4,11.8-0.2
	c-1.4,6.8-9.6,7.9-14.9,5.5c0-0.1-1.6,5.3-1.5,5.3C72.8,317.8,83.9,306.4,80.8,291.5z M73.6,294.1c-2.9,5.9-13,1.5-9.4-4.5
	C67,284,76.5,288.3,73.6,294.1z M538.4,293.7c-0.1-12.4-16.4-17.1-22.7-6.4c-4.7,8.8,5,18.4,13.9,14c0.8-0.3,1.9-1.4,2.5-1.5
	c-0.1,2.7-2.1,5.8-4.7,6.9c-3.1,1.8-7.5,0.6-10.4,0.1c0.1,0-1.8,5.2-1.3,5c2.1,1,4.6,1.6,7.1,1.6
	C533.5,314.2,539.8,303.5,538.4,293.7z M531.1,293.6c-2.6,6.4-12.4,2.8-9.7-3.8C524,284.2,533.3,287.6,531.1,293.6z M569.9,299.9
	c-1.4-7.7-12.5-10.2-17.4-4.4c0.6-7.6,9.1-10.1,15.2-7.4c1.8-5.7,3.2-6.2-4.3-6.5c-7.6-0.6-14.4,3.9-16.6,11.2
	C539.3,317.1,572.3,320.6,569.9,299.9z M563.2,305c-3,6-12.8,1.5-9.6-4.7C556.6,294.6,566.1,298.9,563.2,305z M460,453.8
	c-0.5-0.7,25.9,29,25.3,28.4c0,0.1-1.3,1.3-5.9,5.3c-5.2-1.1-30.7-9.4-30.4-8c-0.1-0.2,17.7,19.7,17.4,19.7
	c-1.5,1.6-2.5,2.3-5.5,4.9c-5.4-6-23.2-26-25.5-28.7l7.1-6.1c5.1,1.4,27.1,7.8,28.3,8c0.4,0.3-16.9-18.8-16.5-18.5
	C454.3,458.6,460,453.6,460,453.8z M155.8,469.5c-0.6-4.9-11.8-13.1-14.9-16.3c0.5-0.6-26.3,28.2-25.7,27.7c0.7,1.5,4,3.9,5.3,5.3
	c7.5-8.3,9.8-10.7,9.9-10.7c0.2,0,2.7,2.6,2.7,2.8c-0.1,0.9-3.5,12.8-4.3,15.8c0.8,0.7,5.4,4.8,6.1,5.3c0.1,0.4,4.6-16.7,4.7-16.4
	C147.9,486.3,158.3,478.8,155.8,469.5z M148.2,473.5c-3.6,6.8-10,0.8-13.2-2.8c-0.4,0.1,7.8-8.6,7.4-7.5
	C144.7,465.4,150.6,469.9,148.2,473.5z M168,476.6c-0.2-0.1,19.7,13.1,19.5,13.1c0.1,0.1-0.5,1.3-3.8,6.1c-3.2-2.1-3.5-2.3-13.9-9.1
	c-4.7,8.2-7.3,5.5,1.4,11.2c5.2,4.1,7.5,2.5,4.5,6.8c-2.5,4.6-2.3,1.8-8.3-1.3c-9.1-4.8-3.9-6.3-11,3.1c2.3,1.6,13.5,9,13.5,9.5
	c-0.1,0.1-0.9,1.4-3.8,5.5l-0.6-0.3c0,0-19.2-12.8-19.1-12.9C145.9,508.9,168.4,475.5,168,476.6z M194.1,493c0.2,0.1,1.9,0.9,7,3.3
	l-0.1,1c0,0.2-2.8,28.2-2.7,28.4c2.1-1.1,16.5-16.8,20.8-21l7.1,3.1c-3.7,4-6.4,6.7-28.7,29.2l-6.8-3.4l0.1-1
	C191.2,531,192.6,493.7,194.1,493z M441.2,502.8c-5.9-24.8-42.4-18.6-39.1,6.7C407.2,536.5,446,529.7,441.2,502.8z M433.8,510.6
	c-5.4,15.7-25.8,8.5-24.2-6.7C413.8,486.8,437.2,494.5,433.8,510.6z M387.1,503c-0.2-0.8,14.5,35.8,14.1,35.2c0.2,0.2-6.9,3-6.8,2.9
	c0.3,0.7-14.4-35.9-14.1-35.2C379.8,505.6,387.3,502.7,387.1,503z M372.4,508.9c1.2,1.1,1.4,4.2,2.4,6.8c-2.2,0.5-11.4,2.8-11.9,2.9
	c-0.2-0.7,8.3,30.8,7.9,30.1c-0.1,0.1-1.6,0.5-3.5,1c-2.3,0.7-3.4,0.9-3.5,0.7c0.1,0.6-8.2-30.3-8.1-29.8c0.2-0.1-11.9,3.3-11.7,2.9
	c-0.1,0-1.8-6.5-1.6-6.5C341.9,517.1,372.8,508.6,372.4,508.9z M333.9,518.4c1.9,0,1,5.6,2.2,12.9c0.9,14.4,2.9,12.8-0.9,21.1
	c-3.2,4.3-7.3,6.4-13.1,6.2c-7.6,0.5-12.8-4.7-13.8-11.6c-0.2-0.4-2.4-25.3-2.5-25.7c-0.1-0.1,7.5-0.6,7.4-0.5
	c0.2,0.4,2,24.1,2.2,24.5c0.5,5.6,7.4,7.8,11.7,4.8c5.5-1.9-0.2-26.6,0.2-30.8C327.8,519.2,333.4,518.4,333.9,518.4z M275.4,519.1
	c1.4,0.1,7.2,0.5,7.5,0.6c0.1-0.8-2,31.9-1.9,31.1c-0.4,0,18.2,1,17.9,1.1c0.1,0.1,0,1.7-0.1,3.7s-0.2,3.5-0.3,3.6
	c0.5,0.1-26-1.8-25.4-1.8c-0.2,0.3,2.3-37.6,2.2-37.4C275.3,519.9,275.4,519.1,275.4,519.1z M262.8,527
	c-8.3-24.6-42.8-15.4-38.6,10.2C231.5,563.2,268.1,553.9,262.8,527z M255.3,534.6c-3.6,18-29.2,11.1-23-6.3
	C236.9,513.9,258.7,519.7,255.3,534.6z"/>
</svg>
