<svg version="1.1" id="Layer_1" xmlns="http://www.w3.org/2000/svg" xmlns:xlink="http://www.w3.org/1999/xlink" x="0px" y="0px"
	 viewBox="0 0 600 600" style="enable-background:new 0 0 600 600;" xml:space="preserve">
<style type="text/css">
	.st0{fill:#FFFFFF;}
</style>
<path id="Navy" d="M300,600c-80.1,0-155.5-31.2-212.1-87.9S0,380.1,0,300S31.2,144.5,87.9,87.9C144.5,31.2,219.9,0,300,0
	s155.5,31.2,212.1,87.9c56.7,56.7,87.9,132,87.9,212.1s-31.2,155.5-87.9,212.1C455.5,568.8,380.1,600,300,600z"/>
<path id="Orange" class="st0" d="M504.4,95.6C449.8,41,377.2,10.9,300,10.9S150.2,41,95.6,95.6S10.9,222.8,10.9,300
	S41,449.8,95.6,504.4s127.2,84.7,204.4,84.7s149.8-30.1,204.4-84.7s84.7-127.2,84.7-204.4S559,150.2,504.4,95.6z M496.7,496.7
	c-52.5,52.5-122.4,81.5-196.7,81.5l0,0c-74.3,0-144.2-28.9-196.7-81.5C50.8,444.2,21.8,374.3,21.8,300s28.9-144.2,81.5-196.7
	C155.8,50.8,225.7,21.8,300,21.8s144.2,28.9,196.7,81.5c52.5,52.5,81.5,122.4,81.5,196.7S549.2,444.2,496.7,496.7z"/>
<path id="Blue" class="st0" d="M300,32.8C152.4,32.8,32.8,152.4,32.8,300S152.4,567.2,300,567.2S567.2,447.6,567.2,300
	S447.6,32.8,300,32.8z M462.8,387.8c-15.9,29.1-39.6,53.9-68.1,70.8c-29.1,17.4-62.8,26.7-96.7,25.8
	c-53.9-0.1-106.1-25.8-140.1-67.4c-23.1-27.9-37.7-62.6-41.3-98.7c-2.1-23.3-0.4-46.9,6.3-69.5c10.2-35.7,31.6-67.8,60.2-91.4
	c28.2-23.5,63.5-38.2,100-41.5l0,0c9-0.7,17.9-1.5,27-0.5c49.4,2.2,96.8,25.7,129.2,62.8c22.5,25.5,37.7,57.1,43.3,90.6
	C489.7,309.3,482.5,351.9,462.8,387.8z"/>
<path id="Monogram" class="st0" d="M301.4,167.1c23.6-0.5,47.2,6.4,67.2,18.6c19.8,12.1,36.2,29.9,46.8,50.6
	c5.8,10.8,9.5,22.4,15.1,33.3c-11.4,0.4-22.8,0.1-34.2,0.2c0.9-5.3,1.1-10.6-0.2-15.8c-2.8-11.6-10.3-21.9-18.2-30.5
	c-17.4-20-42.7-33-69.3-34.9c-17.2-0.8-34.1,1.7-48.9,10.9c-5.4-5.5-11.7-10.9-15.9-17.5c5.5-2.9,10.8-5.8,16.6-8
	C273.4,169.2,287.6,167.1,301.4,167.1L301.4,167.1L301.4,167.1z M186.8,174c15.1-0.3,30.2,0,45.3-0.1c0.6,3.2,0.9,6.5,2.5,9.4
	c3.1,5.6,8.4,10.2,12.9,14.7c18.1,18.2,36.3,36.2,54.4,54.5c14.9-14.7,29.5-29.8,44.3-44.5c6.8,3.4,12.7,7.5,18.1,12.9
	c-17.3,16.3-34.4,32.7-51.7,49.1c0.1,8,0.1,15.9,0,23.9c-21.9-21-43.6-42.3-65.3-63.5c-16.7-15.7-32.6-32.5-50.1-47.4
	C193.7,179.9,189.9,177.5,186.8,174L186.8,174L186.8,174z M374.5,173.8c14.1,0.2,28.3-0.4,42.4,0.3c-7.8,6.8-16.1,13.2-23.5,20.4
	c-6.3-5.2-12.9-9.9-20.1-13.8C373.7,178.4,374.1,176.1,374.5,173.8L374.5,173.8z M210.8,205.9c5.6,5.5,11.2,11.1,16.7,16.8
	c-13,11.8-23.2,26.4-28.7,43.2c-6,18.4-6.9,38.6-3.8,57.7c3.7,21.2,13.4,41.2,28.7,56.5c15.6,16,36.3,25.9,58.2,29.7
	c-0.2,7.5-0.2,14.8-2.1,22.1c-31.4-5-60.7-20.5-81.3-45c-17.4-20.5-27.6-46.3-29.8-73c-0.7-14.7-0.6-29.2,3-43.6
	C177.6,245.3,191.6,222.7,210.8,205.9L210.8,205.9L210.8,205.9z M254,250.9c31.6,29.4,63.2,59.1,94.8,88.6c0-23.8,0.1-47.7,0-71.6
	c0-6-2.1-11.2-3.9-16.9c10.1-0.2,20.2-0.1,30.3,0c-1.4,4.6-3.2,8.6-3.7,13.4c-0.5,5-0.4,10-0.5,14.9c0,22.6-0.1,45.1,0.1,67.7
	c-0.2,7.7,1.1,14.5,3.5,21.8c-9.4,0.1-18.9,0-28.3,0c-30.7-29.3-61.8-58.3-92.7-87.5c0,23.4,0,46.9,0,70.3
	c-0.1,6.1,1.9,11.6,4.2,17.1c-10,0.1-20.1,0.1-30.2,0c1.8-5.6,3.4-11.1,3.4-17.1c0.1-25.2,0-50.5,0-75.8c0-4.5,0.2-9.2-0.6-13.6
	c-0.7-3.8-2.3-7.7-3.6-11.3C235.9,250.8,245,251,254,250.9L254,250.9L254,250.9z M289.8,326.4c4.3,3.8,8.3,7.9,12.5,11.8
	c3.4,3.4,7.4,6.4,10.2,10.1c0.4,25.1,0,50.5,0.2,75.7c0.2,5.8,2.3,10.9,4.1,16.4c-10.5,0.1-20.9,0-31.4,0c1.6-4.7,3.5-9.1,3.9-14.2
	c0.5-6.5,0.3-13,0.3-19.5C289.7,380,289.6,353.2,289.8,326.4L289.8,326.4L289.8,326.4z M397.9,329.7c11.3,0,22.6,0,33.8,0
	c-4.7,10.2-7.4,21.1-12.1,31.3c-6.9,15.3-17.1,29.1-29.5,40.4c-18.6,16.5-43.1,26.8-67.6,30.4c-2.2-7.4-2.1-15.1-2.2-22.7
	c13.4-1.5,26.4-6.3,38.2-12.8c15.8-8.7,30.4-22.9,37-40C399.1,347.7,399.4,338.7,397.9,329.7L397.9,329.7L397.9,329.7z"/>
<path id="Letters" d="M347.7,80.1c3.6-3.8,4.1-10.3,3.8-15.3c-0.5-5.8-5.1-9.6-10.5-10.6c-10.7-2-21.8-2.4-32.7-3.7
	c0.7,2.1,1.3,4.1,1,6.3c-1,11.9-2.2,23.7-3.1,35.6c-0.1,2-1.3,3.5-2.3,5.2c4.8,0.3,9.7,0.7,14.5,1.2c-1.4-5.7-0.2-10.7,0.2-16.4
	c2,0.2,4,0.4,6,0.5c2.5,5.4,7.4,11.2,7.4,17.2c5.9,1,11.7,2,17.6,3.2c-4.7-5.5-8.2-12.4-11.7-18.7C341.6,83.5,345,83,347.7,80.1
	L347.7,80.1z M334.7,74.6c-5.1-0.2-10.3-1-15.4-1.8c0.6-3.7,1-7.5,1.2-11.2c5.3,0.5,10.7,0.8,15.9,1.9
	C342.5,64.1,340.8,75.8,334.7,74.6z M288.5,58.2c-6.9-6.5-16.7-7.9-25.6-5.2c-6.1,1.9-11.3,6.2-14.3,11.8
	c-5.6,10.5-2.4,24.8,7.4,31.7c10.6,7.5,26.5,5.5,34.8-4.5C298.8,82.3,297.8,66.8,288.5,58.2L288.5,58.2z M279.7,87.9
	c-5.8,4.8-15.1,3.8-19.4-2.6c-5.1-7.2-3.6-18.3,4.9-22.1c4-1.8,8.3-1.7,12.2,0.4C285.8,68.1,287.3,81.9,279.7,87.9L279.7,87.9z
	 M238.3,57.7c-3.5,7.6-4.8,16.3-7.2,24.3c-0.6,2.9-2.5,6.9-1.2,9.7c1.4,3.9,2.9,7.7,4.5,11.5c0.7,1.9,2.2,3,3.7,4.3
	c-4.7,1.7-9.4,3.5-14,5.5c0.5-5.2-2.1-9.2-3.8-14.1c-0.9-1.9-1.5-4.6-3.4-5.8c-5.7-3.9-11.6-7.5-17.4-11.3c-3-2.1-6.1-3.8-9.5-5.3
	c4.9-2,9.6-4.3,14.3-6.7c3.4,5.5,10.7,8.4,15.7,12.4c1.1-4.7,2.4-9.4,3.4-14.1c0.6-2.3,0.3-3.5-0.6-5.7
	C228,61.1,233.2,59.5,238.3,57.7L238.3,57.7L238.3,57.7z M372.3,60.4c4.6,1.9,9.3,3.7,14,5.6c-0.9,0.6-1.9,1.3-2.8,1.9
	c-2,5-3.9,10.1-5.8,15.1c7.2-2.9,14.3-5.8,21.4-8.7c0.4-0.8,0.9-1.6,1.3-2.4c5.6,2.5,11.2,5.1,16.8,7.6c-8.8,1.9-17.1,6-25.5,9
	c1.4,8.4,3.2,16.7,4.6,25.1c0.6,3.3,1.5,6.5,2.5,9.7c-5.2-2.6-10.3-5.2-15.5-7.7c1-7.6-1.5-15.6-2.5-23.1c-2.8,1-5.5,2.1-8.2,3.2
	c-1.5,5-4.1,8.9-3.9,14.2c-4.5-1.8-9.1-3.5-13.8-5c1.5-1.4,2.9-2.7,3.7-4.7c4.2-10.8,8.3-21.6,12.5-32.4
	C372.1,65.4,372.3,62.9,372.3,60.4L372.3,60.4L372.3,60.4z M163.5,91c0.6,2.5,1.3,4.9,2.3,7.3c5.4,12.4,10.5,25,16,37.4
	c-1.9,1.5-3.8,3.2-5.9,4.5c-1.5-0.3-2.9-1.1-4.2-1.8c-7.1-3.9-14.3-7.7-21.5-11.4c3.5,8.8,7.4,17.5,11,26.3c-2,1.7-4,3.4-6,5.1
	c-7.9-5-16.3-9-24.5-13.5c-6.2-3.1-12.3-7.3-18.9-9.3c3.2-3.5,6.5-6.9,9.6-10.5c1,2.1,2.1,3.2,4.2,4.3c6.7,3.6,13.2,7.3,19.8,11
	c-3.6-9.1-7.7-18-11.2-27.1c1.5-1.4,3.1-2.7,4.6-4.1c8.7,4.8,17.5,9.4,26.3,14.2c-2.1-4.8-4.2-9.7-6.4-14.5c-1.8-3.9-2.9-7.7-6-10.7
	C156.1,95.8,159.8,93.3,163.5,91L163.5,91z M104.2,145.8c3.2,1.7,6.1,3.9,9.1,5.9c-1.8,1.4-3.5,2.9-4.8,4.8
	c-3.9,5.5-7.7,11-11.2,16.8c2.4,1.6,4.8,3.1,7.1,4.7c3-4.4,5.9-8.9,9-13.3c1.5-2,2.5-4.1,3.3-6.5c3.2,2.3,6.4,4.5,9.7,6.6
	c-2,1.6-3.7,3.4-5.1,5.6c-2.8,4.4-5.9,8.4-8.2,13.1c2.4,1.5,4.8,3,7.2,4.5c4-6,7.8-12.1,12.1-17.9c1.5-2,2.5-4.2,3.3-6.6
	c2.9,2.2,5.9,4.3,9,6.4c-8.1,11.3-16,22.8-23.2,34.7c-1.7-4.1-5.1-5.3-8.5-7.5c-8.2-5.1-16.4-10.3-24.6-15.6c-2.1-1.4-4.3-2-6.7-2.6
	C89.1,167.9,96,156.3,104.2,145.8L104.2,145.8L104.2,145.8z M74.2,193.4l0.2,0.2c1.8,1.8,3.5,3.1,5.8,3.9c7.9,3.1,15.8,6.4,23.7,9.6
	c4.6,1.9,8.7,4.2,13.9,4.3c-1.2,3-2.4,5.9-3.6,8.9c-11.6,4.2-23.3,8.1-34.7,12.8c6.8,2.5,13.7,4.4,20.5,6.7c2.4,0.9,4.7,1,7.2,0.9
	c-1.6,4.4-2.9,8.8-4.3,13.3c-1.7-1.7-3.2-3.1-5.6-3.7c-11.1-3.5-22.2-7.1-33.3-10.8c-2.2-0.8-4.1-0.7-6.3-0.3
	c1.6-3.6,2.4-7.7,4.3-11.1c10.8-4.6,22.2-8.3,33.1-12.7c-6.6-2.8-13.3-5.7-19.9-8.4c-2-1-3.9-0.8-6.1-0.6
	C71,202.2,72.7,197.9,74.2,193.4L74.2,193.4L74.2,193.4z M449.4,105.7c8.3,0.2,16.2,4.8,21,11.5c2.3,3,3.3,6.1,7.4,7.1
	c-3.6,3.9-7.1,7.9-10.5,12c-0.3-8-5.3-15.8-12.7-19c-8.3-3.1-17.5,3.3-18.7,11.7c-1,6.5,2.8,12.4,8.5,15.3c3.8,2.3,7.8,2.4,12.1,2.3
	c-3.1,2.8-6.1,5.7-9.1,8.6c-12.9-1.3-23.6-13.2-22.9-26.2C424.7,116.3,436.7,105.2,449.4,105.7L449.4,105.7L449.4,105.7z
	 M488.6,136.7c3.1,3.8,6,7.7,9.4,11.2c-2.6,1.1-5,2.4-7.1,4.3c-8.5,7.2-17.2,14.1-25.9,21.2c-1.7,1.3-2.4,3-3.2,4.8
	c-3.1-3.9-6.2-7.7-9.4-11.5c5.1-1,7.9-4.8,12-7.8c7.7-6.6,16.1-12.5,23.4-19.5C488.1,138.5,488.3,137.6,488.6,136.7L488.6,136.7
	L488.6,136.7z M505.8,157.5c7.7,12.3,15.2,25.2,21.8,38.1c-3.2,1.9-6.5,3.7-9.7,5.7c-0.8-5.6-4-9.8-6.6-14.9
	c-8.9,4.8-17.6,10-26.4,14.9c-2.3,1.2-4,2.8-5.5,4.9c-2.3-4.3-4.8-8.6-7.1-12.9c2.3-0.2,4.4-0.4,6.4-1.7
	c8.9-5.1,17.8-10.3,26.8-15.3c-2.6-4.8-5.3-9.5-9-13.6C499.6,161,502.7,159.1,505.8,157.5L505.8,157.5L505.8,157.5z M529.5,201
	c1.8,5.1,4,10,5.9,15.1c-5.6,3-8.7,10.1-13,14.8c5.5,1.8,11,3.6,16.6,5.3c0.8-0.4,1.6-0.8,2.4-1.2c1.3,5.2,2.4,10.4,3.6,15.6
	c-8.7-4.6-18.6-6.7-27.8-10.2c-3.8-1.6-6.7,0-10.4,1.1c-4.2,1.5-8.2,1.8-11.4,5.3c-1.3-4.7-2.8-9.3-4.4-13.9
	c6.5,0.5,13.2-3,19.5-4.7c5.7-8.1,12-15.7,17.6-23.9C528.6,203.2,529,202.1,529.5,201L529.5,201L529.5,201z M73,277.8
	c4.7,4.4,9.4,8.7,14.8,12.3c-2.2,5.5-4.5,10.9-5.7,16.8c-6.1-0.8-12-0.7-18.1-0.1c-1.3-5.8-3.6-11.2-5.7-16.8
	C63.7,286.5,68.4,282.3,73,277.8L73,277.8z M527.4,277.9c4.7,4.4,9.4,8.6,14.7,12.2c-2.2,5.5-4.3,11-5.7,16.8
	c-6.1-0.6-12-0.7-18,0.1c-1.4-5.8-3.6-11.3-5.8-16.9C518,286.5,522.7,282.2,527.4,277.9L527.4,277.9L527.4,277.9z M540.8,346.3
	c-2.6-4-7.6-5.5-12.2-5.7c-2.8,0-5.2,1.5-7.6,2.8c-3.8-5.7-10.3-8-16.8-5.8c-3.8,1.5-6.2,4.9-7.3,8.8c-2.6,9.2-4.8,18.6-7.9,27.6
	c2.3-0.5,4.3-0.7,6.5,0.1c8.9,2.8,17.8,5.6,26.7,8.3c4.4,1.4,8.5,1.9,12,5.3c2.6-9,5.4-17.9,7.8-27
	C543.2,355.9,543.9,350.4,540.8,346.3L540.8,346.3z M514.6,352.8c-0.6,4.8-2.4,9.5-3.6,14.1c-3-0.9-5.9-1.8-8.9-2.7
	c1.3-4.5,2.2-9.1,3.9-13.5C507.2,346.3,515.3,348.4,514.6,352.8z M532.8,356.2c-0.6,5.4-2.8,10.7-4.2,15.9c-3-0.6-5.9-1.4-8.9-2.2
	c1.2-5.1,2.4-10.2,4-15.1c0.5-1.7,1.6-2.7,3.3-3.4C529.6,351.6,533.3,353,532.8,356.2z M485.7,381.4c3.6,4.7,8.6,5.6,13.7,8.5
	c5.4,2.9,11.8,5,16.3,9.1c5.3,5,6.2,12.3,4.4,19.1c-2.5,8.1-8.4,15.9-17,18c-5.3,1.6-10.3-0.1-14.9-2.8c-6-3.6-11.9-7.2-17.9-10.7
	c-2-1.3-4-1.7-6.3-2c2.5-4.2,5.1-8.4,7.3-12.7c2.8,4.5,7.4,6,11.8,8.9c4.6,2.5,8.9,5.9,13.8,7.8c9,2.9,17.1-10.6,10.3-17.1
	c-3.7-3.3-9-4.9-13.4-7.2c-5.1-2.2-9.6-5.7-15.1-5.7C481.4,390.2,483.5,385.8,485.7,381.4L485.7,381.4L485.7,381.4z M448.7,437.1
	c2,4.7,5.7,7.1,9.2,10.5c5.6,5.2,11,10.6,16.7,15.7c4.5-4.5,8.7-9.2,12.7-14.1c1.3-1.5,1.9-3.2,2.5-5c2.8,2.6,5.7,5,8.5,7.5
	c-7.8,9.9-16.5,18.9-25,28.1c-1-1.9-1.9-3.7-3.5-5.2c-8.8-8.1-17.4-16.3-26.1-24.5c-1.4-1.3-3.1-1.8-4.8-2.6
	C442.1,444,445.4,440.6,448.7,437.1L448.7,437.1L448.7,437.1z M430.4,455.4c4.1,3.2,7.4,7.3,11.3,10.8c-3.9-0.2-7.5-0.6-11.3,1
	c-6,2.3-11,7.4-10.9,14.2c0,8.4,7.7,15.4,16.1,14.2c8.5-1.4,14.3-9.3,15.6-17.5c2.4,3.2,5,6.2,7.6,9.3c-4.2,11.9-16.2,20.4-29,19
	c-11.7-1-20.8-11.2-21.5-22.7c-0.7-8.2,3.2-16.2,9.8-21.1c3.2-2.6,6.8-3.6,10.4-5.5C429.2,456.5,429.8,455.9,430.4,455.4
	L430.4,455.4L430.4,455.4z M100.3,334.9c3.2,13.4,7,26.8,11.3,40c-3.5,0.9-7,1.9-10.4,3.1c-0.1-2.7-0.5-5.1-1.3-7.7
	c-2.1-6.6-3.9-13.2-5.7-19.8c-3,0.8-6,1.7-9,2.5c2.5,6.9,3.1,14.9,7,21.1c-3.8,1-7.6,2-11.4,3.4c-0.2-7.3-3.5-14.5-5.2-21.7
	c-5.4,1.9-12.4,2.3-16.6,6.3c-1.2-4.8-2.5-9.5-4-14.2c2.8,0.6,4.8,0.4,7.5-0.4c10.8-3.2,21.7-6.2,32.6-9.3
	C97.2,337.6,98.7,336.4,100.3,334.9L100.3,334.9L100.3,334.9z M121.9,393.5c-6.1-6.4-15.6-8.9-24.2-6.7c-8.5,2.1-16,8.6-18,17.4
	c-2.4,9.6,1.3,19.9,9,25.9c10.2,8.4,26.8,6.6,35.1-3.6C131.8,417.1,130.5,402,121.9,393.5z M107,424.3c-6.9,1.8-14.4-2.3-16.4-9.2
	c-2.7-7.8,3.1-15.8,10.6-18c7.4-2,14.5,2.4,16.7,9.6C120.2,414.5,114.5,422.3,107,424.3L107,424.3z M152.7,436.2
	c-6.6-4.8-15.1-6.1-22.8-3.5c-8.7,2.9-15.8,10.7-17,19.9c-1.8,12.8,7.4,25.2,19.9,27.7c12.3,2.7,25.6-4.9,29.3-17
	C165.1,453.2,161.1,442.3,152.7,436.2L152.7,436.2z M139.7,470c-6.8,1.4-13.6-3.3-15.4-9.8c-1.9-7.2,2.4-14.4,9-17.3
	c7.2-3,15.6,1.1,18,8.4C154,459.4,147.9,468.6,139.7,470L139.7,470z M173.6,458.7c12.2,8.4,24.9,16.4,37.8,23.9
	c-2,3.2-4,6.4-5.9,9.6c-3-4.5-9.2-6.5-13.6-9.5c-5.4,8.2-10.4,16.7-15.8,24.9c-1.6,2.3-2.3,4.3-2.6,7.1c-3.9-2.8-8.1-5.2-12-7.8
	c2.2-1.8,4.1-3.7,5.5-6.2c4.9-8.2,10.4-16,15.1-24.3c-4.7-2.6-9.1-7.1-14.4-8.2C169.7,465,171.6,461.8,173.6,458.7L173.6,458.7
	L173.6,458.7z M253.1,503c-1.3-3.8-4.2-6.6-7.9-8c-7.7-3-15.6-5.5-23.3-8.6c-1.2-0.5-2.3-1-3.5-1.5c0.4,5-1.9,8.6-3.6,13
	c-2.7,6.5-5.3,13.1-7.9,19.6c-1.7,4-2.7,7.9-6,11c10.2,4,19.8,8.4,30.5,11.2c4.3,1,8.9,0.3,12.2-2.7c4.9-4.7,6.4-12.2,2.5-18.1
	C251.8,515.9,254.9,509.4,253.1,503L253.1,503z M232.6,529.7c-5.5-1.1-10.9-3.5-16.1-5.8c1.1-2.8,2.2-5.8,3.5-8.5
	c4.8,1.7,9.7,3.4,14.4,5.3C239,521.9,237.5,530.5,232.6,529.7L232.6,529.7z M237.4,511.9c-4.8-1.1-9.3-3.3-13.9-4.9
	c1-2.8,2.1-5.7,3.4-8.4c3.1,1,6.1,2.2,9.2,3.3c2.3,0.9,4.6,1.5,6,3.6C242.6,508.2,240.8,512.4,237.4,511.9L237.4,511.9z
	 M363.7,491.9c-0.5,5.3,1.6,9.7,3.1,14.7c2.3,6.9,4.4,13.9,6.7,20.9c5.9-1.7,11.6-3.7,17.3-5.9c2-0.8,3.7-2.1,5.3-3.5
	c1.2,3.6,2.5,7.1,3.8,10.6c-11.7,4.8-23.8,8.6-35.7,12.6c0.2-2.2,0.4-4.2-0.4-6.3c-3.5-11-7.2-22-10.6-33c-0.6-2.2-2-3.9-3.4-5.7
	C354.6,495,359.1,493.5,363.7,491.9L363.7,491.9L363.7,491.9z M325.3,500.5c-0.5,0.5-1.1,1-1.6,1.4c-0.1,3.9,0.3,7.7,0.8,11.5
	c1,8,1.6,15.9,2.7,23.9c7.9-1,16.8-1.1,24.1-4.4c0.3,3.7,1,7.4,1.6,11c-12.3,2.3-24.7,3.8-37.2,5.1c1.2-4.9,0.2-9.4-0.4-14.2
	c-1.2-9.2-1.9-18.5-3.2-27.7c-0.2-1.9-1.3-3.3-2.3-4.8C315,501.7,320.1,501.1,325.3,500.5L325.3,500.5L325.3,500.5z M301.3,543.3
	c-4.6-13.9-9.7-27.6-14.1-41.6c-3.4-0.3-7-0.8-10.4-0.5c-6.6,12.4-13.9,24.4-20.7,36.7c-1.3,2.5-3,4.6-4.9,6.7
	c4.7,0.8,9.3,1.6,13.9,2.7c-0.1-3.4,1.4-5.9,2.9-8.8c6.9,0.6,13.7,1.3,20.6,1.9c0.7,2.1,1.3,4.2,2,6.3c-0.4,0.9-0.8,1.8-1.2,2.7
	c5.2,0.1,10.3,0,15.5,0C303.2,547.6,302,545.7,301.3,543.3L301.3,543.3z M272.7,529.6c2.6-4.8,5.1-9.6,8-14.2c1.8,5,3.3,10,4.8,15.1
	C281.2,530.4,277,530,272.7,529.6L272.7,529.6z"/>
</svg>
