<svg version="1.1" id="Layer_1" xmlns="http://www.w3.org/2000/svg" xmlns:xlink="http://www.w3.org/1999/xlink" x="0px" y="0px"
	 viewBox="0 0 600 600" style="enable-background:new 0 0 600 600;" xml:space="preserve">
<style type="text/css">
	.st0{fill:#FFFFFF;}
</style>
<path id="Gold" class="st0" d="M600,301.2v-2.7C599.4,133.8,465,0,300,0C134.7,0,0,134.7,0,300s134.7,300,300,300
	C465,600,599.4,466.2,600,301.2z"/>
<path id="Black" d="M300,11.7C141,11.7,11.7,141,11.7,300S141,588.3,300,588.3S588.3,459,588.3,300S459,11.7,300,11.7z M560.1,240.6
	c1.2,0,1.8,0,2.4,0l2.1,10.2c-0.3,0.3-0.9,0.3-1.2,0.6s-0.9,0.3-1.2,0.6s-0.9,0.3-1.2,0.6s-0.9,0.6-1.8,1.2l-25.2,15
	c-1.5,0.6-2.4,1.5-3.3,2.1c-0.9,0.6-1.8,1.2-2.1,1.8c-0.3,0.9-0.6,1.5-0.9,2.1c-0.3,0.6-0.3,1.5-0.3,2.4l-4.5,0.9l-4.5-22.5l4.5-0.9
	c0.6,1.8,0.9,2.7,1.5,3.3s1.2,0.9,2.1,0.6c0.6-0.3,2.1-0.9,3.9-1.8l1.2-0.6l-2.4-11.4l-1.2-0.3c-0.6-0.3-1.5-0.3-2.1-0.3
	s-1.2,0.3-1.8,0.3c-0.9,0-1.5,0.6-1.8,1.2c-0.3,0.6-0.3,1.8,0,3.6l-4.5,0.9l-3.6-18.3l4.5-0.9c0.3,0.9,0.9,1.5,1.2,2.1
	c0.3,0.3,0.9,0.9,1.5,1.2s1.5,0.9,2.4,0.9s2.1,0.3,3.6,0.6l28.8,4.2C557.7,240.3,559.2,240.6,560.1,240.6z M534,188.7
	c0.6-0.3,1.2-0.6,1.5-0.9c0.6,0,0.6-0.3,0.9-0.6c0.3-0.3,0.3-0.6,0.6-0.9c0.3-0.6,0.3-1.5,0.3-2.1s-0.3-1.5-0.9-3l4.2-1.8l9.9,22.2
	l-4.2,1.8c-0.9-1.5-1.5-2.4-2.1-3s-1.5-0.9-2.4-0.9c-0.3,0-0.6,0-0.9,0c-0.3,0-0.6,0-0.9,0.3s-0.6,0.3-1.2,0.6
	c-0.6,0-1.2,0.3-2.4,0.9l-18.9,8.4c-1.2,0.3-2.1,0.6-2.4,0.9c-0.3,0.3-0.9,0.6-1.2,0.9c-0.6,0.3-0.6,0.3-0.9,0.6
	c-0.3,0.3-0.3,0.6-0.6,0.9c-0.3,0.6-0.3,1.5-0.3,2.1s0.3,1.8,0.9,3l-4.2,1.8l-9.9-22.2l4.2-1.8c0.9,1.5,1.5,2.4,2.1,3
	s1.5,0.9,2.4,0.9c0.3,0,0.6,0,0.9,0s0.6,0,0.9-0.3s0.6-0.3,1.2-0.6s1.2-0.6,2.1-0.9l18.9-8.4C532.8,189.3,533.4,189,534,188.7z
	 M475.5,141.3l16.5-12.6c0.6-0.6,1.2-1.2,1.8-1.5c0.6-0.3,0.9-0.6,1.2-0.9c0.3-0.3,0.6-0.6,0.6-0.9s0.3-0.6,0.3-0.9
	c0.3-0.6,0.3-1.5,0-2.1s-0.6-1.5-1.5-2.7l3.6-2.7l11.1,14.4l-13.5,10.2l8.1,10.5l13.5-10.2l11.1,14.4l-3.6,2.7
	c-1.2-1.2-2.1-2.1-2.7-2.4s-1.5-0.6-2.4-0.3c-0.3,0.3-0.6,0.3-0.9,0.3c-0.3,0-0.6,0-0.9,0.3s-0.6,0.6-1.2,0.9
	c-0.6,0.3-1.2,0.6-1.8,1.2l-16.5,12.6c-0.6,0.6-1.2,1.2-1.8,1.5s-0.9,0.6-1.2,0.9s-0.6,0.6-0.6,0.9s-0.3,0.6-0.3,0.9
	c-0.3,0.6-0.3,1.5,0,2.1c0.3,0.9,0.9,1.8,1.5,3l-3.6,2.7l-11.1-14.7l16.2-12.6l-8.1-10.5l-16.2,12.6L462,144l3.6-2.7
	c1.2,1.2,2.1,2.1,2.7,2.4c0.6,0.3,1.5,0.6,2.4,0.3c0.3-0.3,0.6-0.3,0.9-0.3s0.6,0,0.9-0.3s0.9-0.6,1.2-0.9
	C474.3,142.2,474.9,141.9,475.5,141.3z M420,104.7c1.5,0.9,2.4,1.2,3.3,1.5s1.5,0,2.4-0.3c0.3,0,0.3-0.3,0.6-0.3
	c0,0,0.3-0.3,0.6-0.6c0.3-0.3,0.6-0.9,0.9-1.2c0.3-0.6,0.6-1.2,1.2-1.8l12.3-16.5c0.6-0.9,1.2-1.5,1.5-2.1s0.9-1.2,0.9-1.5
	s0.3-0.6,0.3-0.9s0-0.6,0-0.9c0-0.9-0.3-1.5-0.6-2.1c-0.6-0.6-1.2-1.5-2.4-2.4l2.7-3.6l11.7,9c1.5,1.2,3,2.1,4.2,3s2.7,1.8,3.9,2.7
	c0.6,0.6,1.5,0.9,2.1,1.5c0.6,0.3,1.5,0.9,1.8,1.2c3.6,2.7,5.4,5.7,5.7,9c0.3,3.3-1.5,7.2-4.8,11.7c-3.3,4.2-6.6,6.9-9.9,7.5
	c-3.3,0.9-6.9-0.3-10.2-3c-2.4-1.8-5.7-4.8-7.2-7.2l-1.8,2.4c-0.6,0.9-1.2,1.5-1.5,2.1c-0.3,0.3-0.9,0.9-0.9,1.2s-0.3,0.6-0.3,0.9
	s0,0.6,0,0.9c0,0.6,0.3,1.5,0.6,2.1c0.6,0.6,1.5,1.5,2.7,2.4l-2.7,3.6l-19.8-14.7L420,104.7z M369.6,82.2c1.5,0.6,2.7,0.9,3.6,0.9
	s1.8-0.3,2.4-0.9c0.3-0.3,0.3-0.6,0.6-0.6c0.3-0.3,0.3-0.6,0.6-0.9c0-0.3,0.3-0.6,0.6-1.2c0.3-0.6,0.6-1.2,0.9-2.1l7.8-19.2
	c0.3-0.9,0.6-1.8,0.9-2.4c0.3-0.6,0.6-1.2,0.6-1.5c0-0.6,0-0.9,0-1.2s0-0.6,0-0.9c-0.3-0.6-0.6-1.2-1.2-1.8
	c-0.6-0.3-1.5-0.9-2.7-1.5l1.8-4.2L408,54l-1.5,4.2c-1.5-0.6-2.7-0.9-3.6-0.9s-1.8,0.3-2.4,0.9c-0.3,0.3-0.3,0.3-0.6,0.6
	c-0.3,0.3-0.3,0.6-0.6,0.9c-0.3,0.3-0.3,0.6-0.6,1.2c-0.3,0.6-0.6,1.2-0.9,2.1l-8.1,19.5c-0.3,0.9-0.3,1.5-0.6,1.8
	c0,0.6-0.3,0.9-0.3,1.2c0,0.3,0,0.3,0,0.6s0.3,0.3,0.3,0.6c0,0.3,0,0.6,0.3,0.6c0,0.3,0.3,0.3,0.6,0.6c0.3,0.3,0.6,0.3,1.2,0.6
	s0.9,0.6,1.8,0.9l0.9,0.3c0.9,0.3,1.5,0.6,2.1,0.9c0.6,0,1.2,0.3,1.5,0.3c0.6,0,0.9,0,1.2,0c0.3,0,0.6-0.3,0.9-0.3
	c0.9,0,1.8-0.6,2.4-1.5s1.2-2.1,2.1-3.6l5.1,2.1l-6,13.5l-35.4-14.7L369.6,82.2z M314.4,71.7c1.5,0.3,2.7,0.3,3.6,0s1.5-0.6,2.1-1.5
	c0.3-0.3,0.6-0.3,0.6-0.6s0.3-0.6,0.3-0.9c0-0.6,0.3-0.9,0.3-1.5s0-1.2,0.3-2.1l3-20.4c0-0.9,0.3-1.8,0.3-2.4s0-1.2,0-1.5
	c0-0.6-0.3-0.9-0.3-1.2s-0.3-0.6-0.3-0.9c-0.3-0.6-0.9-1.2-1.5-1.5s-1.5-0.6-3-0.9l0.6-4.5l29.1,4.2c0.9,0,1.8,0.3,2.7,0.3
	c0.9,0.3,1.5,0.3,2.1,0.3s1.2,0,1.8,0c0.3,0,0.9-0.3,1.8-0.3L355.8,51l-5.4-0.9c0-1.5-0.3-2.7-0.3-3.6c0-0.9-0.3-1.8-0.9-2.4
	c-0.6-0.6-1.2-1.2-2.1-1.5s-2.1-0.6-3.6-0.9l-0.9-0.3c-1.2-0.3-2.1-0.3-2.7-0.3s-1.2,0-1.5,0.3s-0.6,0.6-0.9,1.2
	c-0.3,0.6-0.6,1.2-0.6,2.1l-1.2,7.5l9.6,1.5c0.9,0.3,1.8,0.3,2.4,0.3c0.9,0,1.5,0,2.1,0l-1.2,7.8c-0.6,0-1.2-0.3-1.8-0.3
	c-0.3-0.3-1.5-0.3-2.7-0.6l-9-1.5l-1.2,8.1c-0.3,0.9-0.3,1.8-0.3,2.4s0.3,1.2,0.6,1.5c0.3,0.6,0.6,0.6,1.5,0.9
	c0.6,0.3,1.8,0.3,3,0.6l1.8,0.3c1.5,0.3,2.7,0.3,3.6,0.3c0.9-0.3,1.8-0.3,2.4-0.9s1.2-1.2,1.5-2.1s0.9-2.4,1.2-3.9l5.4,0.9
	l-2.1,14.4l-38.7-5.7L314.4,71.7z M257.1,34.8c2.7-0.3,5.1-0.6,6.9-0.9s3.3-0.3,4.5-0.6c0.9-0.3,1.8-0.6,3-0.6s1.8-0.3,2.4-0.3
	c1.2-0.3,2.4-0.3,3.6-0.3c2.1,0,4.2,0.3,5.7,0.9c2.4,0.9,4.5,2.4,6,4.5c1.2,1.8,2.4,4.2,3.3,6.9s1.5,5.7,1.8,9
	c0.9,7.2,0,12.9-2.7,17.1c-2.4,4.2-6.9,6.6-13.2,7.2c-0.6,0.3-1.2,0.3-1.8,0.3c-0.6,0-1.5,0-2.7,0c-1.5,0-3,0-4.5,0.3
	s-2.7,0.3-4.2,0.6l-15.9,1.8l-0.6-4.5c1.8,0,3-0.6,3.6-0.9s1.2-0.9,1.5-1.8c0-0.3,0.3-0.6,0.3-0.9s0-0.6,0-0.9s0-0.9,0-1.5
	s-0.3-1.2-0.3-2.1l-2.4-20.7c0-0.9-0.3-1.8-0.3-2.4c0-0.6-0.3-1.2-0.3-1.5s0-0.6-0.3-0.9s-0.3-0.6-0.6-0.9c-0.6-0.6-1.2-0.9-1.8-1.2
	c-0.9,0-1.8,0-3.3,0l-0.6-4.5L257.1,34.8z M193.5,59.1c0-1.5-0.3-3-0.3-3.9c0-1.2-0.3-1.8-0.3-2.4l9.6-3.9c0.3,0.3,0.6,0.9,0.9,1.2
	c0.3,0.6,0.6,0.9,0.9,1.2c0.3,0.3,0.6,0.6,0.9,0.9c0.3,0.3,0.9,0.9,1.2,1.2l19.5,21.9c0.9,1.2,1.8,2.4,2.7,3
	c0.6,0.6,1.5,1.2,2.1,1.5s1.5,0.6,2.1,0.6s1.5,0,2.4-0.3l1.8,4.2L215.7,93l-1.8-4.2c1.5-0.6,2.4-1.5,2.7-2.1
	c0.6-0.6,0.6-1.2,0.3-2.1c-0.3-0.3-0.9-1.5-2.4-3.3l-0.9-0.9l-10.8,4.5v1.2c0,0.6,0.3,1.5,0.3,2.1c0.3,0.6,0.3,1.2,0.6,1.5
	c0.6,0.9,1.2,1.5,1.8,1.5s1.8,0,3.6-0.6l1.8,4.2l-17.1,7.2l-1.8-4.2c0.9-0.6,1.2-0.9,1.8-1.5c0.3-0.6,0.6-1.2,0.9-1.8
	c0-0.6,0.3-1.5,0.3-2.4c0-1.2,0-2.4,0-3.9L193.5,59.1z M142.2,82.5l2.7,3.6c-1.2,1.2-2.1,2.1-2.4,2.7s-0.6,1.5-0.3,2.4
	c0.3,0.3,0.3,0.6,0.3,0.9s0,0.6,0.3,0.9s0.6,0.9,0.9,1.2c0.3,0.6,0.6,1.2,1.2,1.8l12.3,16.8c0.6,0.6,0.9,1.2,1.2,1.5
	s0.6,0.9,0.9,0.9s0.3,0.3,0.6,0.3s0.3,0,0.6,0s0.6,0,0.9,0c0.3,0,0.6-0.3,0.9-0.3s0.9-0.3,1.2-0.6c0.3-0.3,0.9-0.6,1.5-1.2l0.9-0.6
	c0.6-0.6,1.2-0.9,1.8-1.5s0.9-0.9,1.2-1.2c0.3-0.3,0.3-0.6,0.6-0.9s0.3-0.6,0.3-0.9c0-1.2,0.3-2.1-0.3-3s-1.2-2.1-2.1-3.6l4.5-3.3
	l9,12.3l-30.6,23.1l-2.7-3.6c1.2-1.2,2.1-2.1,2.4-2.7c0.3-0.6,0.6-1.5,0.3-2.4c-0.3-0.3-0.3-0.6-0.3-0.9s0-0.6-0.3-0.9
	s-0.6-0.6-0.9-1.2c-0.3-0.6-0.6-1.2-1.2-1.8L135,103.8c-0.6-0.9-1.2-1.5-1.5-2.1c-0.6-0.6-0.9-0.9-1.2-1.2c-0.3-0.3-0.6-0.6-0.9-0.6
	s-0.6-0.3-0.9-0.3c-0.6-0.3-1.5-0.3-2.1,0c-0.6,0.3-1.5,0.6-2.7,1.5l-2.7-3.6L142.2,82.5z M105.3,115.2l3.6,3
	c-0.9,1.2-1.5,2.1-1.8,3c-0.3,0.6,0,1.5,0.3,2.4c0,0.3,0.3,0.6,0.3,0.9c0,0,0.3,0.3,0.6,0.6c0,0.3,0.6,0.6,0.9,0.9s0.9,0.9,1.5,1.5
	l15.6,13.5c0.6,0.6,1.2,1.2,1.8,1.5c0.3,0.3,0.9,0.6,1.2,0.9c0.3,0.3,0.6,0.6,0.9,0.6s0.6,0,0.9,0c0.9,0.3,1.5,0,2.1-0.6
	c0.6-0.3,1.5-1.2,2.4-2.1l3.3,3L123,162.6l-3.3-3c0.9-1.2,1.5-2.1,1.8-3c0.3-0.6,0-1.5-0.3-2.4c0-0.3-0.3-0.6-0.3-0.9
	c0,0-0.6-0.3-0.6-0.6s-0.6-0.6-0.9-0.9c-0.6-0.3-0.9-0.9-1.8-1.5L102,136.8c-0.6-0.6-1.2-1.2-1.8-1.5c-0.3-0.3-0.9-0.6-1.2-0.9
	c-0.3,0-0.6-0.3-0.9-0.3c-0.3-0.3-0.6-0.3-0.9-0.3c-0.9,0-1.5,0.3-2.1,0.6s-1.5,1.2-2.4,2.1l-3.3-3L105.3,115.2z M58.2,182.4l15,7.8
	l6.3-12l-15-7.5l8.7-16.5l3.9,2.1c-0.6,1.5-1.2,2.7-1.2,3.6c0,0.9,0.3,1.5,0.9,2.4c0.3,0.3,0.6,0.3,0.6,0.6c0.3,0.3,0.6,0.3,0.9,0.6
	c0.3,0,0.6,0.3,1.2,0.6c0.3,0,0.9,0.6,1.8,0.9l18.3,9c0.9,0.6,1.5,0.9,2.1,1.2s1.2,0.6,1.5,0.6c0.3,0.3,0.6,0.3,0.9,0.3s0.6,0,0.9,0
	c0.6,0,1.2-0.3,1.8-0.9c0.6-0.6,1.2-1.5,2.1-2.7l3.9,2.1l-8.4,16.2l-18.3-9.3l-6,12l18.3,9.3L90,219l-3.9-2.1
	c0.9-1.2,1.2-2.4,1.2-3.3s-0.3-1.5-0.9-2.4c-0.3-0.3-0.3-0.3-0.6-0.6c0-0.3-0.3-0.3-0.6-0.6c-0.3,0-0.6-0.3-1.2-0.6
	s-1.2-0.6-2.7-0.6L63,199.2c-0.9-0.6-1.5-0.9-2.1-1.2s-1.2-0.6-1.5-0.6c-0.6-0.3-0.9-0.3-1.2-0.3s-0.6,0-0.9,0
	c-0.6,0-1.2,0.3-1.8,0.9c-0.3,0.6-0.9,1.5-1.8,2.7l-3.9-2.1L58.2,182.4z M36.3,252c0.3-2.1,0.6-3.6,0.9-5.1s0.6-3,0.9-4.5
	c0-0.9,0.3-1.8,0.3-2.7s0.3-1.5,0.3-2.1c0.9-4.5,2.7-7.5,5.7-9c1.8-0.9,3.9-1.2,6.3-1.2c2.1,0,4.2,0.3,6.6,0.9c5.4,1.2,9,3,11.1,5.7
	c1.8,2.7,2.4,6.3,1.5,11.1c-0.9,3.6-2.1,6.3-4.2,8.4l-4.5-2.7c0.6-1.2,0.9-2.4,1.2-3.3c0.3-1.8,0-3.3-0.9-4.2s-3-1.8-6-2.4
	c-4.2-0.9-6.9-0.9-8.7-0.3c-1.5,0.3-2.4,1.5-2.7,3.9c-0.3,1.8-0.3,3.3,0.3,4.2c0.3,0.6,0.6,0.9,1.2,1.2c0.6,0.3,1.5,0.6,2.7,0.9
	L69,255c0.9,0.3,1.8,0.6,2.4,0.6c0.6,0.3,1.2,0.3,1.5,0.3c0.6,0,0.9,0,1.2,0c0.3,0,0.6,0,0.9-0.3c0.6-0.3,1.2-0.9,1.5-1.5
	c0.3-0.9,0.9-2.1,1.2-3.6l4.5,0.9l-5.1,24.3l-4.5-0.9c0-1.5,0.3-2.7,0-3.6s-0.9-1.5-1.5-2.1c-0.3-0.3-0.3-0.3-0.6-0.6
	c-0.3,0-0.6-0.3-0.9-0.3c-0.6,0-0.9-0.3-1.5-0.3c-0.6-0.3-1.2-0.3-1.2-0.3l-20.4-4.2c-0.9-0.3-1.8-0.6-2.4-0.6
	c-0.6-0.3-0.9-0.3-1.5-0.3s-0.9,0-1.2,0s-0.6,0.3-0.9,0.3c-0.6,0.3-1.2,0.9-1.5,1.5c-0.6,0.6-0.9,1.5-1.2,3l-4.5-0.9L36.3,252z
	 M36.6,318.3l14.7,3l7.2-12.9l1.8,14.7l14.4,3l-13.5,6l1.8,15L52.8,336l-13.5,6.3l7.5-12.9L36.6,318.3z M57,403.8l4.2-14.4
	l-12.6-8.1l14.7-0.9l4.2-14.1l5.1,13.8l15-0.6l-11.7,9.3l5.4,13.8l-12.6-8.1L57,403.8z M112.2,452.4l-14.1-5.1l-9,12l0.3-15
	l-14.1-5.1l14.4-4.2l0.3-14.7l8.4,12l14.4-4.2l-9.3,12L112.2,452.4z M139.2,491.7l-5.7,13.5l-3.3-14.4l-15-1.5l12.9-7.5l-3.3-14.7
	l11.1,9.9l12.9-7.5l-6,13.5l11.4,9.9L139.2,491.7z M189.9,524.7l-2.4,14.7l-6.6-13.5l-14.7,2.4l10.5-10.5l-6.6-13.5l13.2,6.9
	l10.5-10.5l-2.4,14.7l13.2,6.9L189.9,524.7z M248.1,559.2l-9.6-11.1l-13.8,5.7l7.8-12.9l-9.6-11.1l14.4,3.3l7.8-12.6l1.2,14.7
	l14.4,3.6l-13.8,5.7L248.1,559.2z M312,564.3l-12.3-8.7l-12,8.7l4.5-14.1l-12-8.7h15l4.5-14.1l4.5,13.8h15l-12,9L312,564.3z
	 M375,553.8l-13.8-5.7l-9.6,11.4l0.9-14.7l-13.8-5.7l14.4-3.6l0.9-14.7l8.1,12.6l14.4-3.9l-9.6,11.7L375,553.8z M418.8,526.2
	l-6.6,13.5l-2.4-14.7l-15-2.1l13.2-7.2l-2.4-14.4l10.5,10.2l13.2-6.9l-6.6,13.2l10.8,10.5L418.8,526.2z M300,497.4
	c-108.9,0-197.4-88.5-197.4-197.4S191.1,102.6,300,102.6S497.4,191.1,497.4,300S408.9,497.4,300,497.4z M469.5,491.1l-3,14.4
	l-6-13.5l-15,1.5l11.1-9.9l-6-13.5l12.9,7.2l11.1-9.9l-3,14.7l12.9,7.2L469.5,491.1z M510.9,459.6l-9.3-11.7l-13.8,5.1l8.4-12.6
	l-9.3-11.7l14.4,4.2l8.4-12.3l0.3,14.7l14.4,4.2l-14.1,5.1L510.9,459.6z M543,404.1l-11.7-9.3l-12.6,8.4l5.1-13.8l-11.4-9.3
	l14.7,0.6l5.1-14.1l4.2,14.4l14.7,0.6l-12.3,8.1L543,404.1z M560.7,342.6l-13.5-6L537,347.7l1.8-15l-13.8-6l14.7-3l1.5-15l7.5,13.2
	l14.7-3.3l-10.2,11.1L560.7,342.6z M538.2,252.6l-1.8-8.1l7.8,1.2l5.7,0.9c0,0.3-0.3,0.3-0.6,0.3s-0.6,0.3-0.9,0.3l-1.2,0.6
	c-0.3,0.3-0.9,0.6-1.5,0.9l-1.2,0.6c-0.3,0.3-0.3,0.3-0.6,0.3s-0.3,0.3-0.6,0.3L538.2,252.6z M201.6,69.9l-0.3-5.7
	c0.3,0.3,0.3,0.3,0.6,0.6s0.3,0.3,0.6,0.6l0.9,1.2c0.3,0.3,0.6,0.9,0.9,1.2l0.9,0.9c0.3,0.3,0.3,0.3,0.6,0.6c0,0.3,0.3,0.3,0.6,0.6
	l3.6,4.5l-8.1,3.3L201.6,69.9z M263.7,45.3c0-0.9-0.3-1.8,0-2.4c0-0.6,0.3-1.2,0.6-1.5s0.9-0.6,1.8-0.9c0.6-0.3,1.8-0.3,3-0.6
	c2.1-0.3,3.6-0.3,5.1,0.3c1.5,0.3,2.4,1.2,3.6,2.1c0.9,1.2,1.8,2.7,2.4,4.5s0.9,4.5,1.5,7.2c0.3,3,0.6,5.7,0.3,7.8
	c0,2.1-0.6,3.9-1.2,5.1c-0.6,1.5-1.5,2.4-3,3c-1.2,0.6-3,1.2-4.8,1.5c-1.5,0-2.1,0.3-2.7,0.3c-0.3,0-0.6,0-0.9,0
	c-0.6,0-1.2-0.3-1.8-0.9c-0.3-0.3-0.6-0.3-0.6-0.6c-0.3-0.3-0.3-0.3-0.3-0.6s-0.3-0.6-0.3-1.2c0-0.3-0.3-1.2-0.3-1.8L263.7,45.3z
	 M443.4,103.2l8.1-10.8c0.9-0.9,1.2-1.8,1.8-2.1c0.3-0.3,0.9-0.6,1.5-0.6c1.2,0,2.4,0.6,3.9,1.8c1.8,1.5,2.7,2.7,2.4,4.2
	c-0.3,1.8-1.5,4.5-3.9,7.8c-1.8,2.4-3.3,3.9-4.8,4.5c-1.2,0.6-2.7,0.3-4.2-0.9C448.2,106.5,445.2,104.7,443.4,103.2z M300,250.8
	c48.3,0,94.8,5.7,138.9,16.5c1.2-10.2,1.5-20.7,1.5-31.2c0-23.4-2.7-45.9-7.5-67.5c-13.8,4.8-28.5,7.5-43.8,7.5
	c-33.6,0-64.5-12.6-89.1-33.9c-24.6,21.3-55.5,33.9-89.1,33.9c-15.3,0-30-2.7-43.8-7.5c-4.8,21.6-7.5,44.1-7.5,67.5
	c0,10.5,0.6,21,1.5,31.2C205.2,256.5,252.6,250.8,300,250.8z M375.9,187.5l5.1,0.6l12.3,28.2v-26.4l8.4,1.2v54.3l-5.1-0.6l-12.3-27
	V243l-8.4-0.9V187.5z M326.7,189c0-3,2.7-4.8,5.1-4.8l16.8,0.9c2.4,0.3,5.4,2.1,5.4,5.4v44.1c0,3-2.7,4.8-5.1,4.8l-16.8-0.6
	c-2.4-0.3-5.4-2.1-5.4-5.4V189z M295.2,183.6h9v54.3h-9V183.6z M246.9,185.7l5.1-0.3l12.6,25.5v-26.4l8.4-0.6v54.6l-5.1,0.3
	l-12.3-24.9v25.8l-8.7,0.3V185.7z M198.9,191.7l9-1.2v47.1l8.4-1.2v-47.1l9-1.2v49.2c0,3-2.1,5.4-5.4,5.7l-15.6,2.4
	c-0.3,0-0.6,0-0.9,0c-2.7,0-4.5-1.8-4.5-4.5V191.7z M268.2,290.7c-3.6,0-7.2-0.3-7.2-0.3s8.4-4.2,16.2-6.3c0,0-1.2,4.8-3,6
	C273.3,290.7,270.9,290.7,268.2,290.7z M345.3,231.9l-9.3-0.6v-39.9l9.3,0.6V231.9z M460.5,283.5c-50.1-15-104.1-22.8-160.8-22.8
	c-55.8,0-111.3,7.8-160.8,22.8c0,0-3.6,1.2-7.8,2.7l9.3,8.4c7.8-2.4,15.9-4.5,24-6.6c15,87,66,159.9,135.9,198.3
	C369.9,447.9,421.2,375,436.2,288c7.8,2.1,15.6,3.9,23.1,6.3l9.3-8.1C464.4,284.7,460.5,283.5,460.5,283.5z M283.8,278.4
	c0,0,2.7,0.3,5.7,1.8c1.5,0.6,3,0.9,5.4,0.9c2.1,0,3.9-0.3,3.9-0.3c1.8-0.3,3.9-0.3,5.7-0.3c19.8,0,35.4,11.1,37.8,27
	c2.1,13.2-6.3,27.3-22.5,32.4c0,0-9.9,3.6-18.3,6.6c-0.9,0.3-2.1,0.9-3.3,1.2c-9.3,3.3-23.7,8.1-23.7,18c0,2.7,1.2,5.4,3.6,7.8
	c4.5,4.5,12.9,7.2,21.9,7.2c10.5,0,19.8-2.4,23.4-6c1.2-1.2,1.8-2.7,1.8-3.9c0-4.8-6.9-7.8-17.7-7.8c-2.1,0-3.9,0-6,0.3
	c-6.9,0.6-13.2,2.7-17.7,5.1c-0.3-0.3-0.9-1.2-0.6-2.4c0.3-1.8,2.7-5.4,14.1-9.6c5.1-1.8,9.9-3.6,14.1-4.8c4.5-1.5,8.7-2.7,12.3-4.2
	c15.3,4.2,25.2,12,25.2,22.2c0,15.6-22.8,29.1-50.7,30.3c-18.6,0.6-35.7-4.8-44.7-13.8c-4.2-3.9-6.3-8.7-6.3-13.5
	c0-24.3,40.2-37.2,40.8-37.2c8.4-3.3,18.9-6.9,18.9-6.9c4.2-1.8,9.3-3.6,12.6-6.3c4.2-3.3,6.3-7.8,6.3-12.3
	c-0.3-10.2-13.5-18.6-28.5-18.6H297c-1.2,0-6,0.3-9.6,4.5c-5.4,6-9,6-15.9,6.3c-3,0.3-6.6,0.3-10.8,0.9c-11.4,1.5-15-5.7-15.9-7.8
	C247.2,293.4,260.7,283.5,283.8,278.4z M227.4,310.2c-5.4,0.9-9.6,0-13.2-0.9c-1.2-0.3-2.4-0.9-3.3-1.2c9.3,1.2,21.9,0.3,33.6-4.2
	c0.9,0.6,1.5,1.2,2.4,1.5c-8.1,4.8-21.6,10.8-29.1,11.7c4.2-1.5,8.4-4.2,9.9-5.7l1.8-1.5L227.4,310.2z M296.4,429.3
	c-20.4,0-39.6-6.3-49.8-16.5c-5.1-4.8-7.5-10.5-7.5-16.2c0-3.3,0.9-6.9,3-10.2c7.5,13.2,29.7,22.5,54.3,22.5s46.8-9.3,54.6-22.5
	c2.1,3.3,3,6.9,3,10.2C354,414.6,328.2,429.3,296.4,429.3z M366.9,387.6c-2.1,0-3.6-0.3-4.5-0.3c-1.2-4.8-3-9-4.8-12
	c12.9,5.7,24.9,6.6,30.9,6.6C380.4,386.4,372.3,387.6,366.9,387.6z"/>
</svg>
