<svg version="1.1" id="Layer_1" xmlns="http://www.w3.org/2000/svg" xmlns:xlink="http://www.w3.org/1999/xlink" x="0px" y="0px"
	 viewBox="0 0 600 600" style="enable-background:new 0 0 600 600;" xml:space="preserve">
<style type="text/css">
	.st0{fill:#FFFFFF;}
</style>
<path id="White_Outline" class="st0" d="M599.7,357.4c-0.2-0.9-0.6-1.8-0.8-2.6l-0.3-0.7c-0.2-0.6-0.4-1.1-0.6-1.7
	c-0.1-0.3-0.2-0.5-0.2-0.8c0-0.2,0-0.3,0-0.5c0.3-3.2-0.5-4.9-1.8-7c-1-1.7-2.3-2.4-3.2-2.4c-0.2,0.7-0.9,1.1-1.6,1.1
	c-0.1,0-0.2,0-0.3,0c-0.9-0.1-1.5-1-1.4-1.9c0-0.2,0.1-0.4,0.1-0.7c0-0.8-0.2-1.6-0.6-2.4c-1.1-2-8.8-8.4-11.7-8.4
	c-2.4,0-4.9,1.3-6.7,3.5c-0.3,0.4-0.8,0.6-1.3,0.6c-0.1,0-0.1,0-0.2,0c-0.6-0.1-1.1-0.4-1.3-0.9c-0.3-0.5-0.5-1-0.7-1.5
	c-0.5-1.4-0.8-2.8-1.1-4.2l-0.2-1.1c-0.8-3.6-2-7.2-6.8-8.6c-0.4-0.1-0.9-0.2-1.5-0.3c-0.5-0.1-1.1-0.1-1.7-0.1h-0.4
	c-1,0-2,0-2.9-0.2c-2-0.3-3.3-0.9-3.3-3.1c0-0.2,0-0.4,0.1-0.6l0.5-1.5c0.4-1.1,0.9-2.8,1.4-4.8c0.8-3.8,0.9-7.2,0.2-10.2
	c-0.1-0.5,0-1.1,0.4-1.5c0.3-0.3,0.8-0.5,1.2-0.5c0.1,0,0.2,0,0.2,0c2,0.3,3.6,0.3,4,0.3c10.2,0,26.4-6.7,26.4-24.5
	c0-10.3-8.3-20-15.3-26.4c-0.5-0.4-0.7-1.1-0.5-1.7c0.1-0.6,0.6-1.1,1.2-1.2c9.9-2.6,15.4-9.2,15.4-18.6v-0.6c0-1.5,0-3.1-0.3-4.9
	c-0.4-2.5-1.3-4.8-2.8-7.1c-0.2-0.2-0.4-0.5-1-0.5c-0.2,0-0.4,0-0.4,0.1c-0.4,0.1-0.8,0.4-1.1,0.6c-0.9,0.6-2.3,1.7-3.3,2.7
	c-1.2,1-2.7,1.8-4.7,2.5c-1.2,0.4-2.5,0.8-3.9,1.1c-0.7,0.2-1.5,0.4-2.2,0.6c-4.7,1.3-9.9,3.2-15.6,8.3c-2.6,2.3-4.4,6.2-4.6,9.8
	c-0.2,3.1,1,6.2,3.5,9.7c2.2,3,5.1,5.8,8.1,8.7l1.1,1c1.1,1,2.2,2.1,3.2,3.1c1.6,1.6,2.8,2.8,3.7,4c2.4,2.9,3.5,5.4,3.5,7.6
	c0,4.8-3.4,8-8.6,8c-5.7,0-10.2-2.3-16.3-6.3c-0.9-0.6-1.9-1.3-2.9-1.9c-2-1.4-4.2-2.8-6.5-4.3c-4.3-2.7-8.2-4.8-12.4-6.6
	c-1.2-0.5-2.3-1-3.5-1.4V57.8H86.6v199.1c-2.2,0.6-4.3,1.3-6.4,2.3c-2.9,1.4-5.8,3.1-9.5,5.6c-1.6,1.1-3.1,2.2-4.7,3.3
	c-1.4,1-2.7,2-4.1,2.9c-6,4.2-11.2,7-16.8,7c-5.5,0-9.5-3.2-10-8.3c-0.5-4.4,1.8-8.9,6.4-12.6l2.5-2c1.9-1.5,3.6-2.9,5.2-4.3
	c2.7-2.3,4.5-4.1,5.9-6c3.4-4.5,4.3-9.2,2.8-15.1c-1.3-5.3-5.4-9-12.5-11.1c-2.5-0.8-5.1-1.2-7.5-1.6l-0.8-0.1
	c-0.7-0.1-1.4-0.2-2-0.3c-0.8-0.1-1.3-0.3-1.6-0.4c-3.8-1.7-12.2-7.3-13.9-8.4l-0.7-0.5l-0.5,0.7c-1.5,2.2-2.7,3.9-3.7,11.6
	c-1,8.4,5.9,18.7,17.9,20.6c0.7,0.1,1.2,0.6,1.4,1.2c0.2,0.7-0.1,1.3-0.6,1.8c-12.6,9.9-15.3,14.2-16,25.4c-0.4,6.9,2,13.7,6.6,18.6
	c5.1,5.4,12.4,8.2,21.2,8.2c2.4,0,4.8-0.2,7.4-0.6c0.1,0,0.2,0,0.3,0c0.4,0,0.8,0.1,1,0.4c0.4,0.3,0.6,0.7,0.6,1.2
	c0.6,7.8,2,14.1,3.8,16.9c0.4,0.7,0.3,1.6-0.3,2.1c-0.5,0.5-1.4,1-2.5,1.4c-2.7,1.1-6.8,1.7-10.9,1.7c-2.5,0-4.4,1.7-6,5.5
	c-0.5,1.2-0.9,2.5-1.3,3.8l-0.1,0.4c-0.2,0.6-0.4,1.2-0.6,1.7c-0.2,0.5-0.4,0.9-0.6,1.3c-0.5,0.9-1.3,1.8-2.3,2.7
	c-0.3,0.3-0.7,0.4-1.1,0.4c-0.1,0-0.2,0-0.3,0c-0.5-0.1-0.9-0.4-1.2-0.8c-1.2-2.2-3.2-3.7-5.8-4.3h-0.1h-0.3
	c-3.9,0-10.6,3.3-13.1,9.4c-0.2,0.6-0.8,1-1.4,1h-0.3c-3.1,0.3-5,1.8-6.1,4.5c-0.5,1.2-0.7,2.5-1,3.6l-0.2,0.8
	c-0.2,1-0.4,1.9-0.6,2.8c-0.2,0.7-0.5,1.4-0.9,2.1c-0.2,0.4-0.4,0.7-0.6,1c-0.1,0.2-0.3,0.5-0.4,0.7c-0.7,1.3-1,2.6-0.5,4.8
	c0.2,1,1,1.9,2.4,2.6c1,0.5,2.2,1,3.8,1.4c2.7,0.7,5.4,0.9,5.9,0.9c0.4,0,0.7-0.1,1.1-0.3c0.3-0.1,0.5-0.3,0.8-0.5s0.7-0.4,1.1-0.4
	c0.1,0,0.2,0,0.3,0l1.3,0.2c1,0.2,2.3,0.5,3.6,0.7h0.2c1.2,0.2,2.4,0.5,3.4,0.7c0.5,0.1,1,0.2,1.4,0.2c0.4,0.1,0.7,0.1,0.9,0.1l0,0
	c5.3-0.3,7.6-2.3,9.1-4.3c0.4-0.6,0.8-1.2,1.2-1.8l0.6-1l0.5-0.8c0.4-0.8,0.9-1.4,1.3-2.1c0.3-0.4,0.8-0.7,1.4-0.7
	c0.1,0,0.3,0,0.4,0.1c0.6,0.2,1.2,0.3,1.7,0.4c1.2,0.2,2.4,0.3,2.9,0.4c0.4,0,0.7,0,1,0c5.1,0,8.8-2.8,11.9-5.5l1-0.9
	c0.5-0.4,0.9-0.8,1.4-1.2c0.6-0.5,1.4-1.2,2.3-1.8c1.5-1,2.8-1.5,4-1.5H67c1.2,0.1,5.8,0.4,13.5,1.6c0.3,0,0.7,0.1,1,0.1
	c1.3,0,2.9-0.3,4.7-1V382c0,25.6,3.3,35.5,11.2,49.2l0.4,0.8l0.5,0.7c45.7,68.3,121.7,109,203.2,109s157.5-40.8,203.2-109l0.5-0.7
	l0.4-0.8c7.9-13.7,11.2-23.6,11.2-49.2v-35.2c0.6,0.1,1.2,0.1,1.8,0.1c1.3,0,2.6-0.2,3.9-0.5c1.4-0.4,2.9-0.5,4.4-0.5
	c0.8,0,1.5,0.1,2.2,0.1c1.9,0.2,3.6,0.6,5,1l0.4,0.1c2.2,0.6,4.3,1.4,6.4,2.7c1.7,1,3.2,2.1,4.6,3.2l0.4,0.3
	c2.8,2.1,5.7,4.3,9.7,4.3c0.2,0,0.3,0,0.5,0c0.3,0,0.6-0.1,0.7-0.1c0.2-0.1,0.5-0.1,0.8-0.2c0.5-0.2,1.2-0.5,1.9-0.7
	c0.6-0.2,1.4-0.5,2.2-0.7c0.1,0,0.2,0,0.3,0c0.6,0,1.1,0.3,1.4,0.7c0.2,0.3,0.4,0.6,0.6,1c0.4,0.7,0.8,1.3,1.4,2
	c1.6,2,4.4,4.7,11,4.9c0.6,0,1.2,0,1.7,0c3.5,0,5.6-0.3,6.5-0.4c0.1,0,0.2,0,0.3,0c0.3,0,0.7,0.1,1,0.3c0.7,0.5,1.5,0.7,2.3,0.7
	c1.8,0,4.4-0.5,6.6-1.3c1.3-0.5,2.3-1,3.1-1.6c1-0.8,1.6-1.6,1.7-2.5C600.1,359.2,600,358.4,599.7,357.4"/>
<path id="Gold" d="M394.6,314c-0.5,3.1,3.4,7.9,4.6,10c0.5-1.1,3.8-8.6,4.3-9.6C401.9,314.4,397.5,314.3,394.6,314 M205,321.8
	c1.6-2.8,3.3-3.2,4.5-4.6c0.7-1.9,1.6-3,2.9-4.6c-3.1,0.5-9.1,1.6-11.7,2.1C201.3,316.4,201.8,320.5,205,321.8 M399.5,342.3
	c-0.2-0.6-0.3-1.2-0.5-1.9c-0.2-0.8-0.8-1.3-1.6-1.3h-0.1c-0.7,0-1.4,0.5-1.6,1.2c-0.8,2.7-3.1,7.3-9.3,7.6c-0.1,0-0.3,0-0.4,0
	c-2.7,0-6.3-1.4-8.7-2.3l-1.1-0.4c-1.2-0.5-2.4-0.9-3.5-1.3c-1.6-0.5-2.8-0.8-3.7-0.9c-0.2,0-0.5,0-0.7,0c-0.4,0-0.7,0-1.1,0
	c-0.7,0.1-1.4,0.1-2.2,0.2c-1.5,0.2-3.2,0.4-4.8,0.4h-0.4c-3.6-0.1-6.3-1.1-8.5-3.1c-0.3-0.3-0.7-0.5-1.1-0.5s-0.9,0.2-1.2,0.5
	c-5.4,5.6-12.1,8.5-20,8.5h-0.7c-1.6,0-4.5-0.9-5.7-2.5c-0.5-0.6-0.6-1.3-0.4-2c0.1-0.5,0-1-0.3-1.4s-0.8-0.6-1.3-0.7
	c-4.4-0.1-7-2.2-7.7-4.2c-0.5-1.6,0.2-3.2,1.9-4.4l0.4-0.3c0.6-0.4,1.3-0.9,2.3-1.7c1.4-1.2,3.1-2.8,5.1-4.9
	c4.1-4.3,7.2-9.5,9.7-16.4c2.1-5.9,3.6-12.3,5-18.5l0.2-0.9c2.9-12.8,6.2-27.3,16.6-38.7c7.7-8.4,13.6-13.1,30-24.7
	c2.8-2,5.6-4.3,8.3-6.7c-12.2-16.7-29-30-48.5-37.9c8.5,9.9,13.7,22.7,13.7,36.8c0,31.1-25.2,56.4-56.4,56.4
	c-31.1,0-56.4-25.2-56.4-56.4c0-13.9,5-26.6,13.3-36.4c-18,7.5-33.6,19.6-45.5,34.7c2.9,2.1,5.7,4.2,9.2,7.1
	c2.3,1.9,4.8,4.1,7.8,6.6c2.1,1.8,4.4,3.7,7,6c1.5,1.5,3.5,3.8,5.9,6.8c0.8,1,1.6,2,2.3,3c1.1,1.4,2.1,2.7,3,3.8
	c7.3,9,11.8,14.9,12.9,22.3c2,14.3,3.3,22.5,9,36.9c0.1,0.3,0.3,0.6,0.6,1c0.3,0.4,0.7,0.8,1.1,1.2l1.3,1.3c0.4,0.5,0.9,0.9,1.2,1.4
	c0.9,1.2,1.7,2.5,2.3,3.7l0.6,1.1c0.5,1,1,1.9,1.6,2.9c1.3,2.2,3.2,5,6.4,6.8c3.4,1.9,4,2.3,5.2,3.4c0.5,0.5,0.8,1.1,0.8,1.8
	c0,1-0.6,2.3-1.6,3.1c-1,0.9-2.4,1.5-4.2,1.8c-0.5,0.1-0.9,0.4-1.1,0.8c-0.3,0.4-0.3,0.9-0.2,1.3c0.3,1.1,0.1,2.3-0.6,3.2
	c-1.1,1.4-3.1,2.3-5.6,2.4c-0.4,0-0.7,0-1.1,0c-10.6,0-17.8-5-21.1-7.9c-0.3-0.3-0.7-0.4-1.1-0.4c-0.4,0-0.7,0.1-1,0.3l-0.4,0.3
	c-1.2,0.9-3.1,2.2-5.5,3.2c-1.6,0.8-3.5,1.1-5.8,1.1c-0.8,0-1.7,0-2.4-0.1c-0.6,0-1.1-0.1-1.6-0.1c-0.8-0.1-1.6-0.1-2.4-0.2
	c-0.5,0-0.9,0-1.3,0c-0.9,0-1.7,0.1-2.3,0.2c-1.9,0.3-3.9,1-6.1,1.7l-1.4,0.5c-2.5,0.8-5.4,1.7-8.1,1.8c-0.2,0-0.4,0-0.6,0
	c-3.8,0-6.6-1.5-8.1-4.3c-0.3-0.6-0.6-1.2-0.8-2c-0.2-0.7-0.8-1.1-1.5-1.2c-0.1,0-0.1,0-0.2,0c-0.6,0-1.2,0.3-1.5,0.9
	c0,0.1-0.1,0.1-0.1,0.2c19.2,34.6,56.1,58,98.4,58c42.2,0,78.9-23.2,98.2-57.6C399.5,342.4,399.5,342.4,399.5,342.3"/>
<path id="Blue" d="M110.1,249.2l0.6-0.6c0.6-0.5,1.2-1.1,1.8-1.6V83.8h378.8v162.3c1.2,0.8,2.3,1.5,3.4,2.3c1,0.7,2,1.4,2.9,2
	c1.8,1.2,3.5,1.9,5.3,2.5V72.1h-402v182.6c1.7-0.5,3.5-1.1,5.2-2.3C107.2,251.7,108.4,250.7,110.1,249.2 M98.1,255.3v-186h407.6
	v184.3c0.7,0.2,1.5,0.3,2.2,0.5l0.8,0.2c1.1,0.2,2.3,0.5,3.4,0.8V62.9H91.6V256c1-0.1,2-0.2,2.9-0.3
	C95.8,255.6,96.9,255.4,98.1,255.3 M501,338.1c-2.9-3.9-4.9-9.2-5.6-15.1c-0.1-0.5-0.3-0.9-0.8-1.2c-0.3-0.2-0.6-0.3-0.9-0.3
	c-0.2,0-0.4,0-0.5,0.1c-0.6,0.2-1.2,0.3-1.9,0.5v4.7v55.6c0,22.1-2.6,27.3-7.7,36.3c-39.4,58.9-106.1,97.5-181.7,97.5
	s-142.2-38.7-181.7-97.5c-5.2-9-7.7-14.2-7.7-36.3v-50.8v-9.2c-0.1,0-0.3,0-0.5,0h-0.4l0,0c-0.6,0-1.2,0.4-1.5,0.9
	c-0.7,1.5-1.5,3-2.2,4.5l-1.3,2.6c-1.2,2.4-2.4,4.7-3.2,5.8c-0.8,1-1.7,1.7-2.5,2.3v7.6v36.4c0,23.5,2.8,30.9,9.3,42.1l0.2,0.4
	l0.2,0.3C153.7,489.6,225.2,528,301.9,528s148.3-38.4,191.3-102.7l0.2-0.3l0.2-0.3c6.5-11.2,9.3-18.6,9.3-42.1v-37.3v-4.9
	C502.2,339.5,501.5,338.8,501,338.1 M506,342.2c-0.1-0.1-0.2-0.1-0.3-0.2v4.9v35.5c0,24.2-2.9,31.8-9.6,43.5l-0.2,0.4l-0.3,0.4
	C452,491.8,379.6,530.6,302,530.6c-77.7,0-150-38.8-193.6-103.9l-0.3-0.4l-0.2-0.4c-6.7-11.7-9.6-19.3-9.6-43.5v-35.1V340
	c-0.5,0.2-0.9,0.4-1.4,0.6l-0.2,0.1c-0.7,0.3-1.3,0.6-1.7,0.9c-1.1,0.7-2.1,1.3-3.2,1.9v7.5v31.4c0,25.6,3.4,34.3,10.5,46.7l0.4,0.6
	l0.4,0.6c44.8,66.9,119.2,106.8,199,106.8s154.2-39.9,199-106.8l0.4-0.6l0.4-0.6c7.1-12.4,10.5-21.1,10.5-46.7v-31.6v-5.1
	c-1.8-0.8-3.4-1.8-4.9-2.7C506.9,342.7,506.5,342.4,506,342.2 M285.6,233.1c-12.2-2.9-20.5-5.9-20.5-5.9
	c-1.3-12.6-0.2-23.5-0.2-23.5c5.3-2.7,19.6-9.1,19.6-9.1c6.8,7.7,13.3,18.1,13.3,18.1C294.7,218.7,285.6,233.1,285.6,233.1
	 M265.5,181.9c-1.2,2-4.8,8-8,15.2c-3,3.8-5.7,7.7-6.8,9.4C253.2,196.9,258.5,188.4,265.5,181.9 M320.2,212.2c0,0,4.6-9.5,10.1-17.3
	c0,0,10.6,5,15.5,9c0,0,1.8,5.7,0.6,22.3c0,0-6.3,3.7-15.4,5.9C331,232.2,324.8,221.7,320.2,212.2 M296.6,251.3l22.5-0.6l4.4,12.3
	c-8.5,5.1-18.8,7.7-18.8,7.7c-10.8-2.3-16.9-7-16.9-7L296.6,251.3z M301,167.9c6.9,0,13.4,1.3,19.4,3.8c-0.2,1-0.9,3.7-3,7.2
	c-10.9-1.4-22.9-0.3-22.9-0.3l-10-8C289.6,168.9,295.2,167.9,301,167.9 M267.6,260.1c-8.6-7.2-14.9-17.2-17.5-28.5
	c2.8,2.9,8.2,8.4,8.2,8.4c3.2,6.7,11.4,18.4,11.4,18.4C269.1,259,268.2,259.7,267.6,260.1 M134.5,415l5,6.1l17-14.1
	c5.2-4.3,15.2-13.4,19.9-17.8l0.1,0.2c-11.6,12.6-21.2,25.8-31.7,38.1l4.8,5.8l58.7-48.5l-5-6.1l-17,14.1
	c-5.2,4.3-15.2,13.4-19.9,17.8l-0.1-0.2c11.6-12.6,21.1-25.8,31.7-38.1l-4.8-5.7L134.5,415L134.5,415z M235,406.8l-12.5-9.6
	c-3.5-2.6-8.4-2-11.1,1.5l-36.7,47.9c-2.7,3.5-2,8.4,1.5,11.1l12.5,9.6l4.8-6.3l-12.5-9.6l15.9-20.8l9.4,7.2l4.8-6.3l-9.4-7.2
	l15.9-20.8l12.5,9.6L235,406.8L235,406.8z M217.2,483.8l6.8,2.7c6.2-9.8,13.2-19.2,20.2-34l0.2,0.1c-4.9,15.6-6.2,27.2-8.3,38.7
	l6.8,2.7l30.2-69.9l-7.4-2.9c-5.1,12.7-10.4,25.4-15.4,38.1c-1.8,4.6-3.4,9.2-5.2,13.8l-0.2-0.1c3.3-12.2,4.5-20.8,6.4-29.3
	l-6.2-2.4c-4.3,7.6-9.3,14.7-15.2,25.9l-0.2-0.1c1.8-4.6,3.8-9,5.6-13.6c5-12.7,9.7-25.6,14.6-38.4l-7.4-2.9L217.2,483.8
	L217.2,483.8z M317.3,501.3l7.9-0.9l-3.7-33.8c2.3-1.2,4.1-2.9,5.2-5c1.2-2.2,1.6-4.6,1.4-7l-3.4-30.7l-7.8,0.9l3.7,34l-7.8,0.9
	l-3.7-34l-7.8,0.9l3.4,30.7c0.3,2.4,1.3,4.7,2.9,6.5s3.7,3,6.2,3.7L317.3,501.3L317.3,501.3z M375.2,478.8l-7.4,2.9L346,425.4
	l7.3-2.9L375.2,478.8L375.2,478.8z M359.3,481.4c2.4,6.1,9.3,9.1,15.3,6.7c6.1-2.4,9.1-9.3,6.7-15.3l-19.5-50.1
	c-2.4-6.1-9.3-9.1-15.3-6.7c-6.1,2.4-9.1,9.3-6.7,15.3L359.3,481.4L359.3,481.4z M378.7,408.3l6.4-4.7l15.5,21.1l-6.4,4.7
	L378.7,408.3z M412.7,468l6.4-4.7l-20.2-27.5l6.4-4.7l16.9,23c1.1,1.5,3.1,2.8,4.7,3.5l6.5-4.8c-2-0.9-3.6-1.7-4.9-3.4l-15-20.5
	c-2.8-3.8-5-4.1-7-3.6c0.9-2,1.4-4.1-0.8-7L391.4,399c-2.6-3.5-7.5-4.3-11-1.7l-12.7,9.3L412.7,468L412.7,468z M411.5,365.8
	l-5.3,6.1c0,0,1.2,3.3,3.7,5.5c2.6,2.2,14.5,12.5,14.5,12.5s5.7,4.4,0.4,10.7l-24.9-21.4l-5.1,6l57.7,49.6l5.1-5.9l-26.7-23
	c0,0,5.1-6,10.1-1.7c4.3,3.7,17.1,14.7,17.1,14.7s2.7,2.6,5.7,2.7l5.3-6.1c0,0-3.3-0.3-6.9-3.4s-14.3-12.3-14.3-12.3
	s-9.5-9.1-18,0.8c0,0,7.4-9.9-3.3-19.1c-8.4-7.3-12.7-10.9-12.7-10.9S412,368.6,411.5,365.8"/>
<path id="Red" d="M177.9,121.8c0-13.5-10.6-24.3-23.7-24.3c-0.4,0-2.2,0-2.6,0h-27.5v82.4h16.7v-68.2l10-0.1
	c6.2,0,10.9,4.8,10.9,10.8c0,6-5,10.8-11.2,10.8l-3.9,0.1v19.6l16.7,27H183l-23.1-34.5C170.3,142.8,177.9,133.2,177.9,121.8
	 M196.2,148.1c0-5.6,4.4-10.1,9.8-10.1c5.4,0,9.8,4.5,9.8,10.1C215.9,148.1,196.2,148.1,196.2,148.1z M205.9,126.6
	c-14.7,0-26.6,12.3-26.6,27.5c0,15.2,11.9,27.6,26.6,27.6c11.2,0,20-5.2,24.5-13.3l-13.1-6.2c-1.7,3.7-5.6,6.3-10.1,6.3
	c-6.1,0-11-4.6-11-10.3c0-0.4-0.1-0.2-0.1-0.6h35.6c0.1-1.1,0.2-2.3,0.2-3.5C232.2,136.3,220.6,126.6,205.9,126.6 M253.3,154.6
	c0-7.1,5.4-12.9,11.9-12.9c6.6,0,11.9,5.8,11.9,12.9c0,7.1-5.3,12.9-11.9,12.9C258.7,167.5,253.3,161.8,253.3,154.6 M293.2,164.3
	V94.8h-16.3l0.1,39.9c-4.3-4.2-10.1-6.8-16.3-6.8c-13.4,0-24.3,11.8-24.3,26.3s10.9,26.3,24.3,26.3c0.1,0,0.2,0,0.3,0
	C269.4,171.8,280.7,166,293.2,164.3 M463.9,180h15.7V95.4h-15.7V180z M411,159.1c0,4.9-4.1,9-9.2,9s-9.2-4-9.2-9v-29.7h-16v32.9
	c0,11.1,11.3,20.2,25.1,20.2c13.9,0,25.1-9,25.1-20.2v-32.9H411V159.1L411,159.1z M344.3,165.5h-15v-53.7h10.5
	c4.6,0,8.3,3.9,8.3,8.8c0,4.8-3.7,8.8-8.3,8.8h-5.4v14.9h10c5.6,0,9.8,4.7,9.8,10.6C353.9,160.9,350.4,165.1,344.3,165.5
	 M357.5,134.8c4.3-4.2,6.9-9.9,6.9-16.1c0-5.6-2.1-10.8-5.6-14.9c-3.7-4.3-10.4-6.3-19.3-6.3h-26.8v67.3c10.8,2.3,20.4,7.6,28,15
	h6.7c13.3-0.2,24-10.9,24-23.8C371.2,146.7,368,140,357.5,134.8 M437.4,180h15.7V95.4h-15.7V180z M160.1,333.9
	c2,2.2,1.9,5.5,4.1,7.2c2.9,0.5,5.6-0.7,7.9-2.5c1.3-1.1-0.6-2.5-0.8-3.7c-1.3-1.9-0.4-5.6-3.5-5.7c-3.1,0.5-6.3,0.6-9.4,0.6
	l-0.9,0.6C156.8,332.2,159.6,332.2,160.1,333.9 M11,344.3c-1.6,0.8-3.2,2.3-3.6,4c-0.5,3.1,0.2,6.1-2.3,8.4C5,357.3,4.4,358,5,358.6
	c2.2,0.7,4.2,1.6,6.9,1.9c1.2-3.8,2.1-8.1,3.4-11.4v-1C14.1,346.6,13,344.7,11,344.3 M21.3,344c3-1.8,5-5.1,6.6-8
	c-0.3-1.1-1.4-1.9-2.3-2.7c-0.6-0.5-1.5-0.1-2.2,0.1c-2.2,1.9-4.4,3.3-6.8,4.8c-1,0.7-0.6,2.2-0.8,3.2c0,1,1.2,1.7,1.8,2.3
	C18.8,344.3,20.1,344.4,21.3,344 M254.6,301.9c0,0.1-0.3,0.8-0.3,0.8c0,0.1-0.3,0.9-0.3,0.9c-0.3,0.8-0.7,1.2-1.4,1.4
	c-0.4,0.1-0.8,0.1-1.1-0.2c-0.3-0.2-0.5-0.6-0.5-1l-0.1-0.9l-0.3-3c-0.2-1.4-0.7-2.5-1.3-3.4L248,295c0-0.1-1.5-1.7-1.5-1.7
	c-1.2-1.2-2.2-1.7-3.3-1.7c-0.8,0.3-1.6,0.8-2.4,1.7l-1.1,1.3l-0.9,1.2c-0.3,0.6-1.1,0.3-1.1,0.2c0,0-0.1,0-0.1-0.1
	s-0.1-0.1-0.1-0.1c-0.2-0.6-0.3-1.2-0.3-1.7c0-0.9,0.3-1.8,0.6-2.5l0.8-1.6l0.9-1.9l0.1-0.2c0.3-0.3,0.5-0.7,0.8-1.5l0.2-0.7
	l0.5-1.4c0.8-1.7,2-2.2,3.8-1.5c1.4,0.7,2.2,1.9,2.9,2.9l0.4,0.7l0.6,0.9l1.2,1.5c3.2,3.6,4.7,6.9,4.7,10.4
	C254.9,300.1,254.8,301,254.6,301.9 M242.5,328.7L242.5,328.7l-0.1,0.1c-1.8,0.6-3.9,0.8-6.1,0.7h-0.1l-0.4-0.2l-0.4-0.3
	c-0.2-0.2-0.5-0.6-0.4-1.1c0.8-2.6,3.4-5.5,6.6-6.1c0.1,0,0.3,0,0.3,0h0.4l0.7,0.1c0.3,0.1,0.9,0.4,1.1,1.2c0,0.5,0.1,1,0.1,1.5
	C244.2,326.1,243.8,327.7,242.5,328.7 M205.1,263.9l-0.2-0.1c0,0,0,0,0,0.1l-0.1,0.1c-0.3,0.3-0.8,0.5-1.3,0.1c0,0-0.1,0-0.1-0.1
	s0-0.2,0-0.2c-0.8-3.9-1.6-8.1-3.2-11.9l-0.9-1.6l-0.4-0.5l-0.8-1.1c-0.6-1-1.2-2.3-0.4-3.9l0.1-0.1c0.7-0.7,2-0.8,2.8-0.5l0.1,0.1
	c1.7,1.2,2.8,3.1,3.5,4.5c1,2.3,1.5,5.2,1.5,8.2c0,2.3-0.3,4.6-0.9,6.8L205.1,263.9 M282.2,333.1c-5.9-3.4-8.2-9.9-11.9-15
	c-1.3-1.9-3.5-3-4.7-4.9c-4.2-11.5-7.9-23-8.9-36.2c-0.9-3.2-1.6-6.6-3.3-9.6c-5.3-8.6-12.2-16.5-18.9-24.5
	c-0.6-0.6-0.6-0.6-1.9-1.9l-23.3-19.4c-2.9-2.2-6.1-3.5-9.3-5c-4.9-1.9-11.6-1.5-16.4,0.6c-5,2.6-9.5,6.5-14.8,8.3
	c-7.7,3.4-16.3,4.1-22.9,10c-3.8,3.3-7.1,8.5-12.8,7.7c-6.4-0.3-12.1,2.1-16.9,6c-4.3,3.9-8.4,8.5-14.1,9.6
	c-4.9,2.1-10.9,1.1-15.9,2.9c-8,2-14.3,8.3-21,13.1c-6.8,3.9-13.3,8.2-21.7,8c-5.5-0.4-10.8-4.2-12.6-9.5c-1.7-6.1,0.2-12.4,5-16.5
	c5-6,13-9.5,16.9-16.4c2.1-3.6,1.8-9.5-1-13c-5.2-5.4-12.7-5.6-19.5-7.3c-4.3-1.2-7.7-4.5-11.5-6.6c-1.5,2.3-2,4.7-1.8,7.5
	c0.8,6.2,5.5,11.8,11.4,14c3.4,1.5,7.4,0.4,10.9,1.2c1,0.4,2,1.4,2.1,2.5c-0.2,1-0.3,2-1.2,2.7c-5.5,4.6-11.3,9-15.9,14.7
	c-4.9,5.3-5.5,14.6-2.9,21.3c2.8,7.7,10.8,12.7,18.5,13.7c5.6,0.9,10.6-0.6,15.7-1.7c0.7,0,1,0.7,1.3,1.1c0.5,4.5-0.2,8.5,0.8,12.7
	c0.9,3.8,2.2,6.5,3.5,10.2c0.2,1.3,0,2.7-0.9,3.6c-2.8,2.2-5.8,3.6-8.9,5l-7.7,0.5l-1.5,0.7c-2.9,3.3-2.9,6.8-4.7,10.5
	c-2.4,3.9-6.7,5.8-10.3,8.1c-1.2,1.9-2.5,3.8-4.1,5.3c-1.3,1.2-2.9,1.5-4.5,1.7c-2.7,3-3.2,7.3-3.9,11.4c4.3,0.4,8.9,2.7,13.1,0.4
	c3.6-1.7,4.4-6.1,7.2-8.7c2.2-2.4,5.4-0.6,8-0.1c3.8,0.2,6.6-2.6,9.8-3.8c2.3-1.5,4.1-4,6.5-5.5c4.5-2.2,10.8-1,15.5-0.1
	c3.7,1,7.7,0.4,10.9-1.1c3-1.9,5.9-4.2,9.3-5c3-1.6,4.5-5,5.8-7.9c1-2.7,3.5-4.7,3.3-7.8c-0.8-0.7-1.7-2.2-2.8-2.1
	c-1.5,2.1-2.6,4.2-4.2,6.2c-7.1,9.7-12.7,10.6-27.1,10.6c-10.7-0.4-20.3,2.9-27.7,11.2c-0.5,0.3-1.2,0.1-1.6-0.3
	c-0.3-1.2,0.7-3.1,1.2-4c6.6-9.3,16.8-11.5,27.6-11.7c5.9-0.4,11.5-1.4,16.5-3.9c5.6-2.8,9.4-7.3,11.8-12.8
	c1.3-6.2,1.8-12.9,3.3-18.8c0.2-0.6,1.7-1,2.2-0.8c0.6,0.1,1.8,0.6,1.8,1.3c-1.1,6.1-3,13.3-0.7,19.2c4.7,6.2,13.5,2.9,19.9,2.6
	c6.7-0.6,12.1-0.1,18.4,0.3c3.1-0.1,5.5,0.7,7.9-1.3c0.7-1.1,1-2.6,0.8-3.7c-0.2-1.8-1.7-2.8,0-4.3c0.5-0.4,2-0.1,2.3,0.4
	c0.9,2.5,1.3,5.1,2.9,7.3c3.1,4,7.8,7.2,12.1,9.4c4.1,2.9,7.6,6.9,7.9,11.9c0,2.6-2.4,4.3-4.3,5.5c-3.3,1.7-7,3-10.9,2.7
	c-5.2-2.6-6.6-8.1-10-12.1c-1.8-2-4.4-2.4-7.1-2.2c-2.9,0.3-5.7,0.4-8.3,1.3c-0.7,0.6-0.9,1.5-0.8,2.4c1.8,3.2,3.7,6.4,5.7,9.6
	c2.3,1.4,5.4-0.8,7.4,1.7c1.7,2.6,2.8,5.6,5.3,7.6c2.5,2.2,6.2,3.1,9.4,1.8c7.3-2.3,14.5-4.6,21.3-8.3h2.3c2.8-0.3,5.8-0.1,7.8-2.2
	c2.2-3.1,3.9-6.1,5.6-9.4c1.7-2.3,0.9-5.7,0.2-8.2c-3.3-4.1-5.2-8.8-7-13.5c-1.7-0.5-3.1-1.5-5-1.4c-0.9,0.4-2.2,0.2-2.7,1.2
	l7.8,15.3c0.5,1.2,1.1,2.8,0.8,4.4c-1.1,3.3-2.8,6.4-5.4,8.7c-0.5,0.3-1.1,0.6-1.5-0.1c0.9-3.3,2.5-7,2.3-10.8l-7.6-13.7
	c-0.9-1.9-2.5-3.5-2.4-5.7c0-1,0.9-1.7,1.7-2.1c3.3-1.1,7.4-0.9,9.9-3.5c3.3-5.2,4-10.3,4.9-16.5c0.2-0.4,1-1.1,1.6-1.1
	c0.6-0.2,1.3,0.7,1.6,1c1,6.8-0.4,13.7-4.3,19c-0.2,0.7-0.5,1.6,0.3,2.1c3.7,1.2,7.7,0,10.8-1.7c4,0.1,7.8-0.9,11.4-1.5
	c0.4,0.2,0.8,0.6,0.8,1c-2.5,2.8-3.8,5.8-4.5,9.3c-3,3-7.2,5.7-7.5,10.1c0.5,2.2,2.4,0.1,3.6,0.3c0.6,0.1,1,0.6,1,1.2l-2.9,4.3
	c-1.6,2.6,0.3,5.5,0.3,8c0.7,2,3,3,5.1,3c4.4-0.2,8.4-1.9,12.3-3.2c4.3-1.9,9.7-1.8,14.4-1c4.6-0.3,8.1-3.3,11.5-6.4
	c1.9,0,3.5,1.3,4.8,2.7c5.3,5.7,12.2,8.2,19.9,8l0.7-0.4c0.5-0.5,0.3-1.4-0.3-1.8l-4.6-2.4c-3.2-2.1-7.3-4.8-8.4-8.5
	c-1-3.2-2.8-6.8-4.7-9.9c-0.7-1.6-2.3-2.8-2.9-4.4c0.2-0.2,0.4-0.5,0.7-0.4c5.1,1.8,8.2,6.8,10.5,11.3c3.7,5.2,9.1,9.6,16.2,8.5
	l0.6-0.5c0.3-0.4,0.2-0.9,0-1.2L282.2,333.1L282.2,333.1z M413.6,240.6l-0.4,0.8l-0.5,0.7l-3.1,2.9l-3.3,3.1
	c-2.5,2.4-4.2,4.5-5.5,6.4c-1.1,1.4-1.9,3.1-2.6,4.8c-0.2,0.5-0.8,0.5-1.1,0.4c0,0-0.1,0-0.2-0.1c0-0.1-0.1-0.2-0.1-0.2
	c-0.2-0.6-0.3-1.3-0.3-2c0-0.5,0.1-1.1,0.2-1.8l0.6-2.5l0.3-1.1c1.9-5,6.1-10.2,11.6-14.3c0.7-0.4,2-0.8,3-0.5
	c0.6,0.2,1,0.6,1.3,1.2c0.2,0.4,0.4,0.8,0.4,1.2C413.8,240,413.7,240.3,413.6,240.6l0.2,0.1L413.6,240.6 M373.5,296.5l-0.3,0.9
	c-0.2,0.3-0.5,0.7-0.9,0.9c-0.3,0.2-0.8,0.3-1.3,0c-0.5-0.2-0.9-0.5-1.3-1l-0.4-0.6l-0.4-0.6c-0.4-0.8-0.9-1.3-1.9-1.2
	c-0.9,0-1.6,0.3-2.2,0.7l-0.6,0.5l-0.4,0.3l-1,0.7l-1.4,1.2l-0.6,0.5l-2,1.8c-1.4,1.5-2.2,2.9-2.5,4.3l-0.3,1l-0.1,0.4l-0.1,0.6
	c-0.1,0.7-0.4,1.5-1.1,1.9c-0.5,0.1-1.1,0-1.5-0.3s-0.6-0.6-0.6-1c-0.4-4.7,1.3-9.2,4.6-12.2c1.7-1.4,3.1-3,4.2-4.5l1.3-1.6l2.6-3.2
	l0.3-0.2c1.9-0.4,3,1.3,3.5,2c1.6,2.1,2.9,4.5,4.2,7.5c0.1,0.2,0.1,0.4,0.1,0.7C373.6,296.2,373.6,296.3,373.5,296.5 M371.3,330.5
	l-0.1,0.1c-0.6,0.5-1.4,0.6-2.5,0.6l-1.9-0.2l-0.6-0.1h-0.1c-1.9-1-2.3-3.2-2.6-5.3c0-0.7,0.2-1.3,0.7-1.7c0,0,0.1,0,0.1-0.1h0.1
	c2.6,0,4.5,0.8,5.8,2.3l0.1,0.1l0.4,0.8l0.6,1.2l0.2-0.1c-0.1,0-0.2,0.1-0.2,0.1c0.2,0.5,0.3,0.9,0.3,1.3
	C371.5,329.8,371.5,330.2,371.3,330.5 M580.6,349.3c-5,0.3-7.5-5.1-10.4-8.3c-2.5-2.8-7.3-4.5-7.2-8.7c-0.9-1.7-1.1-4.3-1.9-6.5
	c-0.7-1.8-1.4-4.3-3.7-4.7c-4.2-0.7-9.3,0.5-12-3.4c-2.7-3,0.3-6.4,0.8-9.2c1.2-3.6,1.3-8.5,0.7-12.2c-0.1-2.2-1.6-3.9-1.2-6.1
	c1-1.9,3.3-0.5,4.8-0.3c5.5,1.6,12,0.8,17-1.4c6.9-3.3,12.4-10.3,12.1-18.3c-1-10.3-8.4-18.8-16.3-25.4c-1.5-1.3-3.3-2.7-3.8-4.5
	c-0.2-4,4.3-2.1,6.6-3c2.7-0.7,5.5-1.4,7.8-2.9c6-4,7.3-11.1,6.1-18c-0.2-0.6-0.2-1.5-1.1-1.5c-1.1,0.9-2.2,2.2-3.5,3
	c-3.8,2.3-9,1.9-13,3.8c-5,2.2-11.2,5.2-13.4,10.9c-0.6,2.9,0.1,5.8,1.4,8.2c6.1,9.6,19,15.9,21,27.5c0.8,4.7-1.6,8.2-5.2,10.8
	c-5.5,3.3-13.8,2.2-19.3-0.8c-10.6-5.3-19.9-14.1-31.3-17.8c-7.2-3.2-16-2.5-22.4-7.5c-4.8-3.1-9.2-7.3-14.6-8.6
	c-3.7-1.3-8-1.1-11.4-2.9c-3.5-3.1-7.3-6.1-11.4-8.2c-5.7-2.9-12-4.3-18.3-5.7c-3.7-0.9-5.1-5-8.2-7.1c-5.2-4.1-11-7.1-18.1-6.5
	c-2.9,0.2-5.2,2.2-7.5,4.1c-15,13.2-32.2,22.2-46,37.2c-9.2,9.5-11.7,21.6-15.1,33.3c-4.9,17.7-7,37.2-24.8,48.1
	c-0.3,0.5-0.3,1.4,0.3,1.8c4.7,1.2,9.3-0.7,12.5-3.9c3-4.8,6.3-9.4,10.4-13.9l1-0.5c0.5,0.1,1.1,0.4,0.9,1.1
	c-1.2,3.9-4.7,6.8-5.9,10.7c-1.6,4.7-6.1,8.4-9.9,11.7l-0.1,0.6c0,0.5,0.5,1,1,1.1c8.6,0.4,14.8-5.8,20.6-11.6
	c0.6-0.6,1.4-0.5,2.2-0.3c2.6,2,4.9,4.9,8.3,5.6c3.5-0.5,7.3-1,11-0.7c5.2,1.6,10.2,3.7,15.4,5.5c2.6-0.1,4.6-2.7,6-4.8
	c1.1-2.6-0.5-5.1-0.3-7.6c1.3-0.8,2.8,0.2,4.1-0.2c0.6-0.4,1.1-1.1,1.1-1.8c-1-4.5-5-7.9-6.3-12.1c-2-5.4-8.4-8.7-9.5-14.5
	c0.3-0.4,0.8-1,1.3-0.6c4.2,3,8,7.1,13.2,7.9c3.9,0.4,8,0.8,11.9,0.5c0.6-0.2,1.1-0.9,0.9-1.6c-1.7-3.5-3.2-7.1-4.2-10.9
	c-1.4-4.8-2.4-11.5-0.8-16.8c0.3-0.4,1.6-1.1,2.2-0.9c0.8,0.2,1.8,1.1,1.9,1.8c0.6,8.4-0.3,16,4.7,22.6c2.2,3.4,5.9,4.1,8.5,6.8
	c1,1.4,1.2,3.6,0.5,5.2l-6,8.8c-1.4,2-2.8,4.1-3.2,6.3c-0.5,2.5-0.2,4.8,0,7.2c-0.4,0.2-0.6-0.4-1-0.6c-1.6-3.2-3.3-7.4-1.7-11.2
	l7.6-11.7l0.3-0.9c-1.7-0.9-3.5-1.8-5.3-2.2c-0.9,0.4-1.5,1.3-2.1,2.1l-7.4,13.4c-0.5,1.6-1,2.8-0.6,4.4c0.4,2,0.9,3.9,1.8,5.6
	c0.6,2.8,1.1,4.6,2.4,7.1c1.9,2.1,4.4,0.2,6.8,0.8c2.4,0.6,3.2,3.4,5.6,4.1c5.3,1.8,11,2.7,16.3,4.8c2.8,0.9,6.7,2,9.1-0.3
	c3.4-1.9,4.3-5.5,4.9-8.9c1.1-1.5,3.2-0.9,4.8-1.4c3-2,3.9-5.5,6.1-8.2l0.4-1.4c-0.3-0.9-1.1-1.4-1.9-1.7h-10c-4.6,0.6-5,5.7-7,8.8
	c-1.1,2-3.2,2.7-5.5,2.6c-4.7-1.3-10.5-2-12.7-7.1c-0.3-1.3-0.3-2.8,0.7-3.7c2.5-2.8,5.4-6.1,8.5-8.4c4.3-0.9,8.6-4.1,10.8-8
	c1.2-1.7,1-4.1,3-5.4c0.6-0.1,1.9-0.1,2.3,0.5c0.9,2.8-0.7,4.9-1.6,7.4c10.7,1.1,19-2,29.4-1.6c4.4,0,8.4,0.5,12.7,0.2
	c4.3-0.2,9-2,10.4-6.5c2-5.8-0.8-12.4-1.8-17.9l1.2-0.9c0.7-0.4,1.8,0.1,2.3,0.5c1.9,5.2,3.1,11.5,3.9,17.2c0.8,5,2.9,8.3,5.7,12.5
	c5,7.5,13.9,10.4,22.6,8.5c10.6-0.8,19.7,4.8,26.2,13.1v0.5c-0.2,0.4-0.6,0.9-1.1,0.8c-5.6-4.3-11.2-8.9-18.4-9.8
	c-7.3-1.3-13.8,2.5-21.3-0.6c-9.1-3-12.9-8.6-16.8-17.6h-0.8c-0.6,0.1-1,0.7-1.1,1.3l1,6.1c1.2,4.9,2.8,10.7,8.1,13
	c4.1,2.5,8.1,6,13.3,4.6c8.9-2,18,0.6,24.9,5.6c2.3,1.3,4,3.6,6.5,4.5c2.7,1.1,5.9,0.5,8.1-1.3c5-1.7,6.2,4.6,9.6,6.9
	c3,3,9.1,1.7,13.2,1.7l-0.1-0.4C583.3,356,582.2,352.8,580.6,349.3 M438.4,330.9c-2.7,0.5-5.7-0.1-8.4,0.3c-1.2,1.8-2.3,3.9-2,6.3
	c0.3,2.5,3,2.7,4.8,3.3c1.7,0.2,4.1,0.8,5-1c1-2.6,1.9-5.3,2.3-8.1C440,331,439.2,330.7,438.4,330.9 M594,354.4
	c-0.5-2.3,0.1-5.4-1.4-7.5c-1.3-1-2.5-2.5-4.1-2.1c-1.4,1.2-3.4,2.6-3.1,4.6c1.2,3.5,2,6.1,2.7,9.7c0.4,0.7,0,2.1,1.1,2.1l6.3-2.1
	C596.5,357.5,594.4,356.1,594,354.4 M578.1,334c-2-1.7-4,0.8-5,2.3c0.7,2.4,2.6,4.3,4.1,6.5c0.8,1.2,2.1,2,3.4,2.1
	c1.4,0,2.5-0.7,3.4-1.5c0.7-0.9,1.5-2,1.2-3.2C583.4,337.5,580.4,335.9,578.1,334"/>
</svg>
