<svg version="1.1" id="Layer_1" xmlns="http://www.w3.org/2000/svg" xmlns:xlink="http://www.w3.org/1999/xlink" x="0px" y="0px"
	 viewBox="0 0 600 600" style="enable-background:new 0 0 600 600;" xml:space="preserve">
<style type="text/css">
	.st0{fill:#FFFFFF;}
</style>
<path id="Gold_2_" class="st0" d="M77.5,0v228.9C77.5,485.9,300,600,300,600s222.6-114.1,222.6-371.1V0H77.5z"/>
<path id="Red_1_" d="M85.9,8.3v220.6c0,230.1,185,344.5,214.3,361.1c29.1-16.7,214.1-131,214.1-361.1V8.3H85.9z"/>
<path id="Gold_1_" class="st0" d="M300,570.2c44.5-26.7,197.3-133.3,197.3-341.2V25.2H102.7v203.7
	C102.7,436.8,255.8,543.5,300,570.2"/>
<path id="Blue" d="M111.1,33.7v195.2c0,197.2,141,301.3,188.9,331.3c47.9-30,188.9-134.2,188.9-331.3V33.7H111.1z"/>
<path id="White" class="st0" d="M333,429l6.5,18.8c-6,8-14.2,13.9-23.6,17.2l-16.1-11.7l-16,11.9c-9.4-3.2-17.6-9.2-23.6-17.2
	l6.4-19l-16.3-11.5c0.2-9.8,3.4-19.4,9-27.5h20l6-19c9.5-2.9,19.7-2.9,29.2,0l6,19h19.9c5.7,8.1,8.8,17.8,8.9,27.7L333,429z"/>
<path id="Gold" class="st0" d="M391.6,150.8c23.4,22,38.9,51.2,43.9,82.9c-4-32.8-18.9-63.3-42.1-86.7L391.6,150.8z M244.3,393.1
	c-75.4-27.5-114.2-110.9-86.7-186.2c9.3-25.4,25.4-47.7,46.7-64.4l-4.4-9.9c-66.1,49.3-79.7,142.8-30.5,208.9
	c18.6,25,44.6,43.5,74.3,53C243.8,394,244,393.5,244.3,393.1 M344.1,255.5c-9.1-8.5-20.6-13.9-33-15.5c0,0,53.3-4.1,53.3-35.1
	c0-14.9-18.7-35.1-76.8-35.1h-68.2c0,0,8.9,5.1,8.9,9.5v66c8.5,4.1,20,8,31.5,12.6v-12.8h18.8c7.6-0.7,15.2,1.7,21.1,6.6l54.4,50.6
	c10.2,8.5,22.7,13.6,36,14.5c16.9,0,23.6-5.6,23.6-5.6c-7-0.7-13.7-3.4-19.2-7.8L344.1,255.5z M282.7,236.9H260v-58.6h22.7
	c28.6,0,47.6,9.8,47.6,29.3c0,15.8-19.8,29.2-47.6,29.2 M228.6,280.3v21.9c0,5.1-8.1,9.4-8.1,9.4h48.1c0,0-8.6-4.5-8.6-9.4v-7.4
	C250,288.9,239.5,284.1,228.6,280.3 M195.1,99c3.6,8.5,5.1,11.5,5.1,11.5l-2.7,10.7l11.3,4.9l7,15.1c0,0,32.9-14.8,84.5-14.8
	s84.5,14.8,84.5,14.8l7-15.1l11.3-4.9l-2.9-10.7c0,0,1.5-3,5.1-11.5s21.1-17.8,21.1-17.8c-14.8-15.2-27,15.2-42.6,0.5
	c-5.3,8,5.9,17.8,5.9,17.8c-2.5,5.4-7.5,9.2-13.3,10.1c-11.9,2-24.2,1.2-26.7-20.5c0,0-8,22-26.7,17.2c-8.8-2.4-15.8-9.1-18.6-17.8
	c12-1.5,21.2-8.9,21.2-17.8h-17.3c-0.9-6.2-3.8-11.9-8.1-16.4c-4.3,4.5-7.1,10.2-8,16.4h-17.5c0,8.9,9.1,16.2,21.2,17.8
	c-2.8,8.7-9.8,15.4-18.6,17.8C258.5,111,250.4,89,250.4,89c-2.4,21.7-14.8,22.5-26.7,20.5c-5.8-0.9-10.8-4.7-13.3-10.1
	c0,0,11.2-9.6,5.9-17.8c-15.5,14.8-27.8-15.6-42.6-0.4c0,0,17.5,9.2,21.1,17.8 M383.8,160.3c0.4-0.8,0.6-1.7,0.6-2.6
	c0-11.9-37.7-21.4-84.5-21.4s-84.5,9.5-84.5,21.4c0,0.9,0.2,1.8,0.6,2.6c17.8-9.5,48.9-15.8,83.8-15.8s65.8,6.3,83.7,15.8"/>
<path id="Red" class="st0" d="M452.2,255.4c0,62.8-36.4,119.9-93.3,146.4c0.9,3.1,1.5,6.3,1.9,9.5c83.4-35.8,121.9-132.5,86-215.8
	c-10.3-24-26.2-45.2-46.3-61.8l-2.4,1.1C432.5,165.4,452.2,209.3,452.2,255.4 M239,413.3c0.1-1.8,0.3-3.7,0.6-5.5
	c-37.7-13-69.3-39.6-88.6-74.5C169.4,370.1,200.8,398.6,239,413.3 M305,213.3v14.5c12.8-4.5,20.1-12.7,20.1-20.5c0.1-1,0.1-2,0-3
	h-27.7c4.2,1,7.2,4.6,7.5,8.9 M305,263.9V331c-0.3,4.3-3.4,7.9-7.6,8.9h89.2c35.5,0,23.5-21,23.5-21s-7,12.2-28.1,12.2h-50.4v-42.5
	L305,263.9z M278.2,232.3c0,0,9.2-4.5,9.2-12.9s-10.1-12.5-22.2-14.7v10.2C272.5,217.6,277.6,224.5,278.2,232.3 M185.9,318.9
	c0,11.9,22.8,22.8,54.8,22.8c40.3,0,57-20.9,57-40.6c0-42.3-87.5-41.4-87.5-69.2c0-7.3,5.5-13.3,13.3-16.9v-10
	c-17.9,4.4-35.1,14.6-35.1,33c-0.2,39.1,84.7,37.9,84.7,68.6c0,15.9-11.1,26.7-32.3,26.7c-24,0-44.5-12.5-39.3-31.1
	C201.5,302.2,185.9,305.8,185.9,318.9 M250.8,422.8c-0.6,7,1.5,14.1,5.9,19.6l1.8-5.7C254.6,433,251.9,428.1,250.8,422.8
	 M289.2,466.4c6.5,2.8,13.9,2.9,20.5,0.5l-4.8-3.5C300.2,465.9,294.7,467,289.2,466.4 M344.4,427.4c1,5.3,0.4,10.9-1.9,15.8
	c4.7-5.3,7.1-12.3,6.8-19.3L344.4,427.4z M320.7,373.3l1.9,5.7c5.4,0.7,10.4,3,14.5,6.7C333.4,379.6,327.5,375.2,320.7,373.3
	 M280.4,372.9c-6.9,1.6-12.9,5.7-16.8,11.6h6C271.9,379.6,275.7,375.5,280.4,372.9"/>
<path d="M260.1,405.2l16.1-12.7h-14.5c-4.8,7.2-7.6,15.5-7.8,24.2l11.9,8.4L260.1,405.2z M312.7,373.7c-8.3-2.3-17.1-2.3-25.4,0
	l-4.5,14l17-11.5l17,11.5L312.7,373.7z M323.8,392.5l16.1,12.7l-5.6,19.8l11.9-8.4c-0.3-8.6-3-17-7.8-24.2L323.8,392.5z
	 M268.3,432.9l-4.5,13.8c5.3,6.8,12.4,12,20.5,14.9l11.7-8.9l-20.5-0.8L268.3,432.9z M324.7,452.1l-20.5,0.8l11.7,8.9
	c8.1-3,15.2-8.1,20.5-14.9l-4.8-14L324.7,452.1z M319.4,421.8l-5.8-17.9l5.1-11.4l-9.4,8.4h-18.6l-9.3-8.4l4.9,11.4l-5.9,17.8
	l-10.8,6.2l12.5-1.3l15.2,11.1l2.5,12.2l2.6-12.2l15.4-11l12.4,1.3L319.4,421.8z M295.9,411.5l-10.3,13.8l6-19.4H311L295.9,411.5z"
	/>
</svg>
