<svg version="1.1" id="Layer_1" xmlns="http://www.w3.org/2000/svg" xmlns:xlink="http://www.w3.org/1999/xlink" x="0px" y="0px"
	 viewBox="0 0 600 600" style="enable-background:new 0 0 600 600;" xml:space="preserve">
<style type="text/css">
	.st0{fill:#FFFFFF;}
</style>
<path id="Gradient_Outline" class="st0" d="M490.5,28.7C429,9.7,364.9,0,300,0S171,9.7,109.5,28.7C87.1,35.6,72,56.1,72,79.6v280
	c0,60.9,23.7,118.1,66.8,161.2c7.3,7.3,15.1,14.1,23.3,20.4c0,0,5.7,4.2,6.3,4.7l0.2,0.1c41.7,29.9,126.7,52.8,130.3,53.8l1.1,0.3
	l1.1-0.3c3.6-1,88.6-23.8,130.3-53.8l0.2-0.1c0.6-0.5,6.3-4.7,6.4-4.7c8.2-6.2,16-13.1,23.2-20.3c43.1-43.1,66.8-100.3,66.8-161.2
	v-280C527.9,56.1,512.9,35.7,490.5,28.7z"/>
<path id="Black" d="M514.6,359.6v-280c0-17.6-11.3-32.9-28.1-38.2C426.3,22.8,363.6,13.3,300,13.3s-126.3,9.5-186.5,28.1
	C96.7,46.6,85.4,62,85.4,79.6v280c0,57.3,22.3,111.2,62.9,151.8c8.7,8.7,18.2,16.7,28.2,23.8c40.8,29.2,123.6,50.6,123.6,50.6
	s82.8-21.4,123.6-50.6c10-7.1,19.5-15.1,28.2-23.8C492.3,470.8,514.6,417,514.6,359.6z"/>
<path id="Gray" class="st0" d="M482.1,54.4C423.4,36.2,362.1,27,300,27s-123.3,9.2-182.1,27.4c-11.5,3.6-19.2,14-19.2,26.1v278.9
	c0,53.8,20.9,104.3,59,142.3c8.3,8.3,17.1,15.7,26.5,22.4l0,0c39.9,28.6,115.8,47.1,115.8,47.1s75.9-18.4,115.8-47.1l0,0
	c9.4-6.6,18.2-14.1,26.5-22.4c38-38,59-88.6,59-142.3v-279C501.3,68.4,493.6,57.9,482.1,54.4 M121.9,67.1
	C179.3,49.3,239.3,40.2,300,40.2c60.8,0,120.7,9,178.1,26.8c5.9,1.8,9.8,7.2,9.8,13.4v105.7c-60.5-19.4-123.7-29.3-188-29.3
	c-64.2,0-127.4,9.9-188,29.3V80.4C112,74.3,116,68.9,121.9,67.1 M112,200.9c33.5-11,67.8-19,102.6-24c-20.9,9.8-40.2,23.3-57,40.1
	c-20.3,20.3-35.7,44.1-45.6,70L112,200.9z M433.2,492.5c-35.6,35.6-82.9,55.2-133.2,55.2s-97.6-19.6-133.2-55.2
	s-55.2-82.9-55.2-133.2s19.6-97.6,55.2-133.2s82.9-55.2,133.2-55.2s97.6,19.6,133.2,55.2s55.2,82.9,55.2,133.2
	S468.7,457,433.2,492.5 M442.3,217.1c-16.8-16.8-36.1-30.3-57-40.1c34.9,5,69.2,13,102.6,24v86.1C478,261.1,462.6,237.3,442.3,217.1
	"/>
<path id="White" class="st0" d="M147.7,90.3c0,5.2,0.1,9.5,0.1,14.7c4.5-1.2,9-2.4,13.5-3.5c0-6.3,0-12.5,0-18.8
	c0-6.4-5.4-10.3-12.1-8.5c-4,1.1-7.9,2.2-11.9,3.3c-6.6,1.9-12,8.8-12,15.2v15.7c0,3.5,1.2,6.5,3.4,8.6c5.7,5.3,11.4,10.6,17.1,16
	c1.3,1.3,2.1,3.1,2.1,5.1v8.9c0,0.6-0.5,1.1-1,1.3c-2.4,0.7-4.8,1.3-7.2,2c-0.6,0.2-1-0.2-1-0.7c0-5.7,0-10.4,0-16.1
	c-4.5,1.3-8.9,2.6-13.3,4v20c0,6.4,5.3,9.9,12,8c4-1.1,7.9-2.2,11.9-3.3c6.7-1.8,12.1-8.3,12.1-14.7c0-5.1,0-10.3,0-15.4
	c0-3.5-1.2-6.6-3.5-8.8c-5.6-5.4-11.3-10.7-16.9-16c-1.3-1.2-2.1-3.1-2.1-5.1c0-1.7,0-2.6,0-4.4c0-4.4-4.2-4.9-4.5-4.8l0,0l0,0l0,0
	l0,0c4.1-1.2,8.2-2.4,12.3-3.5C147.3,89.4,147.7,89.7,147.7,90.3L147.7,90.3z M199.5,63.9c-6.4,1.1-12.8,2.3-19.1,3.6
	c-4.6,29.9-9.2,59.8-13.8,89.8c4.8-1.1,9.7-2.2,14.6-3.2c0.6-4.6,1.2-8.7,1.8-13.3c4.6-0.9,9.3-1.8,13.9-2.7
	c0.6,4.4,1.2,8.3,1.8,12.6c4.8-0.8,9.7-1.6,14.5-2.4C208.7,120.2,204.1,92,199.5,63.9z M184.6,126.6c1.7-13.3,3.5-33.1,5.2-46.4
	c1.7,12.7,3.5,31.7,5.2,44.4C191.6,125.2,188.1,125.9,184.6,126.6z M219.6,60.8c5-0.7,10.1-1.3,15.1-1.9c3.6,14.1,7.3,28.2,11,42.4
	c0-14.5,0-29,0-43.5c4.7-0.4,9.4-0.8,14-1.1v86.8c-5,0.4-10.1,0.8-15.1,1.2c-3.7-14.4-7.4-28.9-11.2-43.2v44.4
	c-4.6,0.5-9.2,1.1-13.8,1.7C219.6,118.6,219.6,89.7,219.6,60.8z M307.4,55.3c-8.4-0.1-16.7,0-25.1,0.2v86.8
	c8.4-0.3,16.7-0.3,25.1-0.2c6.5,0.1,11.9-4.7,11.9-10.9c0-21.5,0-43,0-64.5C319.2,60.5,313.9,55.4,307.4,55.3z M305.4,126.1
	c0,0.6-0.5,1-1.1,1c-2.7,0-5.4,0-8.1,0c0-18.2,0-33,0-51.3c-0.1-4.5-4.6-6-4.6-6l0,0h-0.1c4.3-0.1,8.5-0.1,12.8-0.1
	c0.6,0,1.1,0.5,1.1,1.1C305.4,90.5,305.4,106.6,305.4,126.1z M329,142.7c4.6,0.2,9.2,0.5,13.8,0.8c0-28.9,0-57.8,0-86.8
	c-4.6-0.3-9.2-0.6-13.8-0.8V142.7z M385.9,61.5c-11.1-1.6-22.3-3-33.5-4v35.6v38.1v13c11.2,1,22.3,2.3,33.5,4c0-4.3,0-9.6,0-13.9
	c-6.5-1-13.1-1.8-19.7-2.6c0-8.4,0-15.8,0-24.2c5.9,0.7,11.8,1.4,17.7,2.3c0-4.3,0-8.7,0-13c-5.9-0.9-11.8-1.6-17.7-2.3
	c0-5.5,0-10.1,0-15.7c-0.1-4.5-4.6-6.5-4.6-6.5l0.2,0.1c-0.1,0-0.2-0.1-0.2-0.1c8.1,0.9,16.2,1.9,24.3,3.1
	C385.9,71.1,385.9,65.9,385.9,61.5z M416,81.7c0,5.5,0.1,10.2,0.1,15.7c4.6,0.9,9.1,1.9,13.6,2.9c0-6.6,0-13.1,0-19.7
	c0-6.4-5.4-12.8-12.1-14.2c-4-0.8-8.1-1.6-12.1-2.3c-6.7-1.2-12.2,3.1-12.2,9.5v64.8c0,6.4,5.5,12.5,12.2,13.7
	c4,0.7,8.1,1.5,12.1,2.3c6.7,1.4,12.1-2.6,12.1-9c0-11.1,0-22.2,0-33.4c-6-1.4-12.1-2.6-18.2-3.8c2.9,3,4.6,6.8,4.6,10.5v19.8
	c0,0.6-0.5,0.9-1.1,0.8c-2.4-0.5-4.7-0.9-7.1-1.4c-0.6-0.1-1.1-0.7-1.1-1.2c0-17.9,0-33.9,0-51.8c0-4.6-4.6-7-4.6-7l0,0l0,0
	c4.2,0.7,8.5,1.5,12.7,2.4C415.5,80.6,416,81.2,416,81.7z M462.6,77.5c-3.9-1.1-7.9-2.2-11.8-3.3c-6.7-1.8-12.1,2.1-12.1,8.6v64.7
	c0,6.4,5.4,13,12.1,14.7c3.9,1,7.9,2.1,11.8,3.3c6.7,1.9,12-1.6,12-8.1c0-21.6,0-43.1,0-64.7C474.6,86.3,469.2,79.4,462.6,77.5z
	 M461.2,149.8c0,0.5-0.4,0.7-0.9,0.6c-2.4-0.7-4.8-1.3-7.2-2c-0.5-0.1-0.9-0.6-0.9-1.1c0-17.9,0-34,0-52c0-4.6-4.5-7.3-4.5-7.3
	c4.2,1.1,8.4,2.2,12.6,3.4c0.5,0.1,0.9,0.6,0.9,1.1V149.8z M461.2,354.7c-0.3-12.4-2.1-24.9-5.3-36.9c-0.3-0.8-0.6-1.7-1-2.6
	c-1.1-2.8-2.3-5.3-3.6-7.6c-5.9-10.2-14.5-15.8-27-17.4c-3.9-0.5-8.7-0.8-13.2-0.8l-110.9,0.2c-9.4,0-18.6,1.9-27.3,5.5l-1.4,0.6
	l9.1-15.8c2.1-3.4,5.8-5.5,9.9-5.5h131.7c6.5,0.1,12.1,1.5,16.7,4l1,0.6l-0.6-1c-2.3-3.9-4.7-7.7-7.3-11.3c-2.5-3.6-6.7-5.7-11-5.7
	H291.5l5.8-10.1c2.2-3.3,5.8-5.3,9.7-5.3h0.1c0.1,0,0.1,0,0.1,0h107l-0.6-0.6c-4.6-4.6-9.5-8.9-14.7-13l-0.3-0.2
	c-5.8-4.5-11.9-8.6-18.2-12.2c-1.1-0.6-2.2-1.2-3.3-1.9c-11.2-6.1-23.1-10.9-35.5-14.2c-0.8-0.1-1.6-0.3-2.5-0.4
	c-16.2-2.5-27.6,1.8-37,14c-2.4,3.1-5.1,7.1-7.3,11l-55.3,96.1c-4.7,8.2-7.7,17.1-8.8,26.4l-0.2,1.6l-9.1-15.8
	c-1.9-3.6-1.8-7.8,0.2-11.3L287.7,211c3.3-5.5,7.3-9.7,11.8-12.5l1-0.6h-1.2c-4.5,0-9,0.2-13.5,0.6c-4.4,0.4-8.3,2.9-10.5,6.7
	l-64.7,112.1l-5.8-10.1c-1.8-3.5-1.7-7.5,0.2-10.9l0.3-0.6l53.4-92.5l-0.8,0.2c-6.3,1.7-12.5,3.8-18.6,6.3l-0.3,0.1
	c-5,2.1-10,4.4-14.8,6.9h-0.1c-1.7,0.9-3.2,1.8-4.8,2.7l-0.7,0.4c-11.9,6.9-22.8,15.3-32.4,24.9c-0.6,0.7-1.2,1.4-1.8,2.2
	c-10.3,12.8-12.2,24.8-6.3,39c1.5,3.6,3.7,8,5.9,11.9l55.5,96c3.1,5.3,6.8,10.2,11.1,14.5c2.3,2.3,4.7,4.4,7.3,6.4l1.2,0.9h-18
	c-4.1-0.1-7.9-2.3-9.9-5.8l-65.8-114.1c-3.1-5.7-4.8-11.2-4.9-16.5V278l-0.6,1c-2.2,3.9-4.3,7.9-6.2,12c-1.8,4-1.6,8.6,0.6,12.4
	L219,415.5h-11.3c-4.1-0.1-7.8-2.4-9.8-5.9L144.4,317l-0.2,0.8c-1.7,6.5-3,13.1-3.9,19.7c-1,7.2-1.5,14.5-1.5,21.7
	c0,1.5,0,2.9,0,4.4c0.3,12.4,2.1,24.9,5.3,36.9c0.3,0.8,0.6,1.7,1,2.7c5.9,15.3,15.4,23,30.6,25c3.9,0.5,8.7,0.8,13.2,0.8l110.9-0.1
	c6.1,0,12.2-0.8,18.1-2.4c3.1-0.8,6.2-1.9,9.2-3.2l1.4-0.6l-9.1,15.7c-2.1,3.4-5.8,5.5-9.9,5.5H177.9c-6.5-0.1-12.1-1.5-16.7-4
	l-1-0.6l0.6,1c2.3,3.8,4.7,7.7,7.3,11.3c2.5,3.6,6.7,5.7,11,5.7h129.4l-5.8,10.1c-2.2,3.3-5.8,5.3-9.7,5.3h-0.1c-0.1,0-0.1,0-0.2,0
	h-107l0.6,0.6c4.6,4.6,9.5,8.9,14.7,13l0.3,0.2c5.8,4.5,11.9,8.6,18.2,12.2c1.1,0.6,2.2,1.2,3.2,1.8c11.2,6.1,23.2,10.9,35.6,14.2
	c0.8,0.1,1.6,0.3,2.5,0.4c16.2,2.5,27.6-1.8,37-14c2.4-3.1,5.1-7.1,7.3-11l55.3-96.1c4.7-8.2,7.7-17.1,8.8-26.4l0.2-1.6l9.1,15.8
	c1.9,3.6,1.8,7.8-0.2,11.3l-65.9,114.1c-3.4,5.5-7.3,9.8-11.8,12.5l-1,0.6h1.2c4.5,0,9-0.2,13.5-0.6c4.4-0.4,8.3-2.9,10.5-6.7
	l64.7-112.1l5.8,10.1c1.8,3.6,1.7,7.7-0.3,11.2c0,0.1-0.1,0.1-0.1,0.1L341.3,515l0.8-0.2c6.3-1.7,12.5-3.8,18.6-6.3l0.2-0.1
	c5-2.1,10-4.4,14.7-6.9l0.2-0.1c1.6-0.9,3.2-1.7,4.7-2.6l0.6-0.4c11.9-6.9,22.8-15.3,32.5-24.9c0.6-0.7,1.2-1.4,1.8-2.2
	c10.3-12.8,12.2-24.8,6.3-39c-1.5-3.6-3.7-8-5.9-11.9c-17.8-30.9-51.7-89.3-55.6-96c-4.7-8.1-10.9-15.2-18.5-20.8l-1.3-0.9h18.1
	c4.1,0.1,7.9,2.3,9.9,5.8l65.9,114.1c3.1,5.7,4.8,11.2,4.9,16.5v1.2l0.6-1c2.2-3.9,4.3-7.9,6.2-12c1.8-4,1.6-8.6-0.6-12.4
	l-64.8-112.1h11.3c4.1,0.1,7.8,2.4,9.8,5.9l53.6,92.8l0.2-0.8c1.7-6.5,3-13.1,4-19.7c1-7.2,1.4-14.5,1.4-21.6
	C461.2,357.7,461.2,356.2,461.2,354.7 M449.2,363l-34.8-60.3h1c2.6,0.1,5.1,0.3,7.2,0.6c10.4,1.4,15.8,5.9,20,16.6
	c4.5,11.5,6.7,25.3,6.7,41.1L449.2,363z M328,310.6c12.9,7.5,22.2,19.6,26.1,34.1c1.3,4.7,1.9,9.5,1.9,14.4c0,14.9-5.9,29-16.5,39.6
	c-3.4,3.4-7.3,6.4-11.5,8.9c-8.4,4.9-18.1,7.4-27.9,7.4c-9.9,0-19.6-2.6-28.1-7.5c-12.9-7.5-22.2-19.6-26.1-34.1
	c-1.3-4.7-1.9-9.5-1.9-14.4c0-14.9,5.9-29,16.5-39.6c3.4-3.4,7.3-6.4,11.5-8.9c8.6-5,18.2-7.4,27.9-7.4
	C309.6,303.2,319.3,305.7,328,310.6 M337.3,216.1c11.7,1.8,23.9,6.5,38.1,14.7l1.7,1h-68.8l0.5-0.8c1.4-2.2,2.8-4.2,4.1-5.9
	C319.3,216.8,325.9,214.3,337.3,216.1 M190.4,280.9c-4-9.7-2.8-16.6,4.4-25.6c7.4-9.2,17.6-17.4,31.8-25.6l1.7-1l-34.4,59.6
	l-0.4-0.9C192.3,285.1,191.2,282.9,190.4,280.9 M185.6,415.6h-1c-2.6-0.1-5.1-0.3-7.2-0.6c-10.4-1.4-15.8-5.9-20-16.6
	c-4.5-11.5-6.7-25.3-6.7-41.1v-2L185.6,415.6z M291.7,486.4l-0.5,0.8c-1.4,2.2-2.8,4.3-4.1,5.9c-5.2,6.8-10.4,9.5-18,9.5
	c-1.9,0-4-0.2-6.4-0.6c-11.7-1.8-23.9-6.5-38.1-14.7l-1.7-1h68.8V486.4z M371.7,489.6l34.4-59.6l0.4,0.9c1.2,2.3,2.3,4.6,3.1,6.5
	c4,9.7,2.8,16.6-4.4,25.6c-7.4,9.3-17.6,17.4-31.8,25.6L371.7,489.6z M267.5,341.7V382c0,3.8,3.1,6.9,6.9,6.9h4.4
	c0.4,0,0.7-0.3,0.7-0.7v-18.6H293c0.4,0,0.7-0.3,0.7-0.7v-11.3c0-0.4-0.3-0.7-0.7-0.7h-13.5v-15.3c0-1.1,0.9-1.9,1.9-1.9h28.1
	c0.2,0,0.3,0.3,0.1,0.4l-5.7,4.3c-1.8,1.3-2.9,3.4-3,5.7v22.1c0,9.1,7.1,16.9,16.2,17.3c9.6,0.4,17.5-7.3,17.5-16.9v-6.9
	c0-0.4-0.3-0.7-0.7-0.7h-10.7c-0.4,0-0.7,0.3-0.7,0.7v6.9c0,2.9-2.5,5.2-5.5,4.8c-2.4-0.3-4.2-2.5-4.2-5v-27.7c0-2.5,1.8-4.8,4.4-5
	c2.9-0.3,5.3,2,5.3,4.8v7.4c0,0.4,0.3,0.7,0.7,0.7h10.7c0.4,0,0.7-0.3,0.7-0.7v-7.4c0-9.3-7.6-16.9-16.9-16.9h-36.4
	C273.8,327.7,267.5,334,267.5,341.7"/>
</svg>
