<svg version="1.1" id="Layer_1" xmlns="http://www.w3.org/2000/svg" xmlns:xlink="http://www.w3.org/1999/xlink" x="0px" y="0px"
	 viewBox="0 0 600 600" style="enable-background:new 0 0 600 600;" xml:space="preserve">
<style type="text/css">
	.st0{fill:#FFFFFF;}
</style>
<path id="Teal_Outline" class="st0" d="M300.5,0l249.3,120l-20,174.5c-7.6,66.7-22.8,113.2-49.3,150.6
	c-26.3,37.2-63.7,64.5-97.7,90.4c-26.7,20-56.3,43.5-82.3,64.5c-26-21-55.6-44.5-82.3-64.7c-33.9-25.7-71.3-53-97.7-90.2
	C94,407.7,78.8,361.2,71.2,294.5L51.2,120L300.5,0z"/>
<path id="Blue_1_" d="M300.5,15.6L66.4,128.3L85.2,293c15.9,138.8,63.8,172.6,146.1,234.8c18.7,14.2,39.9,30.5,69.2,54.3
	c29.3-23.8,50.5-40.1,69.2-54.3c82.3-62.3,130.2-96,146.1-234.8l18.9-164.6L300.5,15.6z"/>
<path id="Green" class="st0" d="M312.9,270.9v138.8c4.6-18.4,9.6-39.6,11.4-48c4.6-21.2,13.6-62.9,19.2-92.1
	C332,270.3,322.2,270.8,312.9,270.9L312.9,270.9z M497.3,290.6l17.1-151.2l-211.8-102l7.1,93.6c20.5,0.8,38.3,4,47.9,7.3v0.3
	c0,0-10.4,3.6-10.4,10.9c0,11.8,35.1,19.2,70.4,33v0.3c0,0-47.2-9.1-116.9-9.1s-116.9,9.1-116.9,9.1v-0.3
	c35.3-13.7,70.4-21.2,70.4-33c0-7.3-10.4-10.9-10.4-10.9v-0.3c9.6-3.3,27.3-6.5,47.9-7.3l7.1-93.6L87,139.4l17.1,151.2
	c14.7,130.2,57.8,161,138.9,222.2c13.9,10.4,29,21.9,45.4,34.9V270.9c-8.9-0.2-18.4-0.7-29.5-1.3c3.3,42.7,8.1,120.1,8.1,166.3
	c0,26.5-0.8,46.2-0.8,46.2c-11.1-85.5-23.8-170.6-30.1-214.3c-44.1-4.6-59.6-14.9-61.8-16.4c19.9-7.6,74.5-10.8,126.5-10.8
	s106.7,3.5,126.5,10.8c-2.2,1.7-18.5,12.1-64.7,16.7C347,349.2,332,430.9,332,482.9c0,22.7,0.8,39.4,1.5,49
	c8.8-6.6,17.2-13.1,25.2-19C439.5,451.6,482.5,420.8,497.3,290.6L497.3,290.6z M417.4,229c-3.8-3.6-36.1-11.1-116.9-11.1
	s-113.1,7.3-116.9,11.1c-2.5-0.2-44.2-3.2-44.2-11.6c0-7.6,62.3-21,161.1-21c98.9,0,161.1,13.4,161.1,21
	C461.7,225.9,419.9,228.9,417.4,229z"/>
<path id="Blue" d="M416.4,328.2h-32v9.4H401L386,370h11.5l19-41.7L416.4,328.2z M434.7,370h9.4v-7.6h4.8v-8.9h-4.8V346h-9.4v7.5
	h-6.5l11.4-25.4h-11l-15.3,34v0.3h21.4V370z M154.1,334.4v10.4l9.8-4.7v30h10.6v-41.9h-7.4L154.1,334.4z M195.6,357.6
	c0.3,0,0.8-0.1,1-0.1l-7.2,12.6h11.7l8.8-15.2c2.9-5,4-8.3,4-11.8c0-8.9-6.8-15.6-16-15.6c-9.1,0-16,6.6-16,15.6
	C182,350.8,187.4,357,195.6,357.6L195.6,357.6z M197.9,337c3.4,0,6,2.6,6,6.1s-2.6,6.1-6,6.1s-6.1-2.7-6.1-6.1
	C191.9,339.6,194.4,337,197.9,337z"/>
</svg>
