<svg version="1.1" id="Layer_1" xmlns="http://www.w3.org/2000/svg" xmlns:xlink="http://www.w3.org/1999/xlink" x="0px" y="0px"
	 viewBox="0 0 600 600" style="enable-background:new 0 0 600 600;" xml:space="preserve">
<style type="text/css">
	.st0{fill:#FFFFFF;}
</style>
<path id="White_Outline" class="st0" d="M283.4,31.5l-16.5,12c-20.4,0-22.8,0.1-22.8,0.3c-0.1-0.1,4.3,13.1,4.2,13
	c0.1,0.2-11.4-8.2-11.3-8c-0.1,0-0.5,1-0.9,2.2c-0.9,2.6-4.8,14.9-6.3,19.4c-4.9,3.6-24.9,18-32.8,23.7c7.2,23,9.2,29.7,9.1,29.8
	c-27.5,2.7-59.8,6.4-87,11c-0.1,108.2-0.2,139.6-0.2,139.6c-16.8,3.2-37.8,7.5-54.1,12.4c-3,0.3,0.7,6.2,2.5,14.8
	c2.1,7.5,3.8,13.8,3.8,13.9s-2.7,0.7-6.6,1.5c-8,1.5-16.7,3.2-23.5,4.8c-0.5-1.3-0.2,16-0.3,19c-11,12.2-31.3,31.9-40.6,43.9
	c9,6.5,28.7,20.3,40.6,28.7c0.1,20.6,0.1,23.1,0.3,23.1c6.4-1.1,17-3,24.6-4.2c16.5-2.7,37.6-6.1,53.7-8c0.4,1.5,0.4,4.2,0.8,6.4
	c13.2,81.7,108.8,127.5,180.1,150.1c69.2-21.7,161.9-66.3,178.9-143.5c0.9-3.6,1.3-9.6,1.9-12.9c3.8,0.5,20.5,2.7,25.3,3.5
	c16.8,2.6,36.8,5.8,53.1,8.7c0.1-0.9,0.2-18.9,0.1-23c10.1-7.1,31.2-22,40.9-28.9c0.1-0.1-0.2-0.6-0.9-1.3
	c-12.3-13-27.6-29.3-40-42.3c0-18.3,0-18.9-0.3-19c-5.7-1.3-24.4-4.8-30.2-6c1.4-5.4,6.5-22.9,7.6-28.4c-16.9-5.4-37.9-9.8-55.4-13
	c-0.1-5.8-0.3-114.6-0.3-139.6c-27.4-5.1-59.8-7.9-86.9-11.4c0.4-1.5,7.5-24.1,9.2-29.5c-19.2-14-21.2-15.3-33-23.9
	c-9.9-26-2.2-24.5-18.4-13.6c0.4-1.7,3.9-11.6,4.1-13.2c-0.9-0.2-18.5-0.1-22.6-0.1c-17.7-12.6-20.2-14.7-33.4-24.1
	C299.9,19.4,292.4,24.8,283.4,31.5z"/>
<path d="M297.5,32.2c-3,2.1-21.5,15.8-27.6,20.1c-11.9,0-13.3,0.1-13.3,0.2c-0.2-0.4,9,27.9,8.9,27.4c0.1,0.1,0,0.1-0.1,0.1
	c0.4,0.3-23.9-17.2-23.5-16.9c-0.2-0.2-4.3,13.2-4.4,13c-1.4,1-24.5,17.6-29.9,21.5c5,16.5,7.9,24.7,10.6,34.3
	c-17.5,1.4-40.7,3.6-58.6,5.9c-9.4,1.2-23,2.9-31.3,4.5c-0.2,0.1-0.2,2-0.2,8.6c0,7.4,0,8.5,0.3,8.5c9.2-1.4,21.3-3.2,31.7-4.5
	c35.8-4.6,70.6-7,106.6-8.4c16.9,12.2,23.7,17.6,33.6,24.2c1.6-1,27.5-19.8,33.6-24.2c47.1,1.9,86.9,5.3,132.4,12.1
	c3,0.5,5.6,0.8,5.8,0.8c0.5,1.3,0.1-14.7,0.2-17.2c-29.1-4.7-61.1-8.2-90.1-10.4c1.9-6.6,8.5-27.8,10.6-34.3
	c1.3,0.6-31-22.6-30.1-22.1c0,0.2-4.3-12.9-4.2-12.7c0.5-0.4-23.9,17.5-23.5,17c-0.2,0.5,8.9-28.1,8.7-27.5
	c-0.6-0.3-11.3-0.2-13.7-0.2c-23.2-16.8-30.1-21.7-30.2-21.7C299.8,30.5,298.7,31.3,297.5,32.2z M256.5,155.5
	c-42.4,2-86.6,6-128.5,12.5c-0.1,99-0.1,104.9,0.2,104.9c4-0.7,14.6-2.3,18.6-3.1c0-66.4,0-85.7,0.1-85.7c3.5-0.4,12.8-1.8,17.4-2.3
	c40.6-5.1,83.1-7.8,123.8-8.8C257.1,151.6,269.9,155.6,256.5,155.5z M336.3,155.4c-6.1,4.8-18.3,13.1-24.4,17.9
	c44.9,0.7,92.9,4.6,137.4,10.5c1.9,0.3,3.5,0.5,3.6,0.5c-0.4-0.1,0.7,71.5,0.2,85.7c5.8,0.9,14.5,2.3,18.5,2.9
	c0.5,7.4,0.1-89.4,0.2-104.9C426.7,161.4,381.5,156.2,336.3,155.4z M280.9,268.4c-68.8,1.6-139.6,8-206.3,25.5
	c0.7,1.7,8.7,33,10.8,40.2c-7.6,38.4-13.5,51.3-8.7,48.7c31.1-8.3,66-13.8,98.1-17.8c97.1-10.8,197.6-9.7,294.1,6.3
	c16.9,2.8,30,5.4,46,9.2c4,0.9,8,2.3,10.7,2.7c0.1-0.1-0.2-1.7-0.7-3.7c-12.1-54.7-12.8-36,0.8-85.7
	C446.7,273.1,362.3,268.2,280.9,268.4z M138.6,379c-5.8,1-8.3,1.4-10.8,1.8c1.1,50.4-3.7,51.2,14.8,87.2
	c34.3,54.1,98.4,83.5,157.3,103.3c59.9-19.9,130.1-52.7,161.3-110.4c13.6-23.1,10.8-54.7,10.7-80.1c0.3-0.2-18.7-2.9-18.4-3
	c-0.3,0-0.3,2.2-0.3,19c2.1,36.9-6.7,62-32,86.9c-33.9,33-77.2,53-121.4,68.1c-54.6-19.5-122.5-49.8-147.2-105.5
	c-8.6-18.8-5.1-44.1-6-68.5L138.6,379z M70.3,325.1c-2.6,0.6-18.3,3.7-20.7,4.2v15.3c-15.1,15.9-26.8,28.6-36,38.5
	c9.3,7,26.5,19,36.1,25.8c0,15.2,0,17,0.2,17c19.7-3.7,42.9-6.8,62.5-10.1c-9.5-4.3-40.3-15.7-49.7-20.1c0-0.1,3-14,6.8-30.9
	l6.9-30.8C72.9,322.6,75.8,324.4,70.3,325.1z M525,329.2l-1.3,4.7c9.4,42.7,10.1,45.1,13.6,61.8c1.2-0.5-51.1,20.5-49.8,20.1
	c16.2,2.7,46.4,7,62.5,10c0.2,0,0.2-14.2,0.2-17c28-19.8,30.2-21.3,36.4-25.7l-36.3-38.8v-15.1c-3.3-0.7-20.5-4.2-24-4.8
	C526.2,324.4,525.7,326.6,525,329.2z M200.7,240.3c-1.8,0.1-15.3,1.5-16.9,1.7c0.6-1.6-20.2,25.8-19.8,25.6c12.1-1.1,28-3.2,40.3-4
	V240C203.4,240,202,240.1,200.7,240.3z M395.9,251.7v11.7c11.6,1.2,28.6,3.2,40.2,4.2c0.6,0.2-19.6-25.8-19.2-25.3
	c-0.2-0.2-2.4-0.5-9.5-1.2c-6.3-0.6-9.2-0.9-11.4-1.1L395.9,251.7z M220.3,391.6c0,0.3,1.7,1.6,2.2,2v21.5c-3.8,3.2-3.4,1.9,3.5,2.2
	c0,0,6,0,6,0l-2.3-2.2v-7.8h19.7v-6h-19.7v-3.9h22.9c2,1.2,2.7,1.5,2.7,1.5c0.2-0.3,0.1-6.2,0.1-7.6
	C226.3,391.4,220.3,391.5,220.3,391.6z M353,391.7c-6.7,1.4-8.6,5.8-8,12.9c0.1,5.5-0.4,6.8,2.7,10.1c4.2,4.6,21.8,2.1,31.4,2.7v-6
	c-22.3-0.7-22.8,1.5-26.7-1.6c0.4-11.6-1.2-9.2,1.3-11.9c0.7-0.4,1.2-0.4,11.7-0.4h11c1.8,1.2,2.4,1.5,2.5,1.5
	c0.3-0.1,0.2-6.3,0.2-7.6C357.1,391.5,354,391.5,353,391.7z"/>
<path id="Dark_Gray" d="M287.4,183.2c-42.6,0.8-88,4-130.1,9.7c0,50.3,0.1,64.9,0.2,65c-0.1,0.5,16.7-23.5,16.5-23.1
	c0.1-0.2,2.6-0.5,7-1c29.7-3.2,60.8-5.4,90.4-6.4v32.1h57.4v-32.1c31.5,1.1,66.1,3.5,97.4,7.3c12.8,18.2,15.5,22.1,16.6,23.5v-65.1
	C392.5,186.4,338.2,183.2,287.4,183.2z M276.4,366.9c-2.7,0.1-5,0.2-5,0.2c-0.1,5.8-0.1,114.2-0.2,139.1
	c-14.3,11.8-18.6,15.3-18.7,15.5c-0.3,0.2,0,0.4,2.5,1.7c14.1,7.1,30.2,13.7,45,18.9c17.5-6.2,32.2-11.7,47.8-20.3
	c-0.9-0.8-15.4-12.9-18.9-15.8c0-135.4,0-138.9-0.3-138.9C326.3,367.2,278.6,366.7,276.4,366.9z M111.8,383.8c-12,2.4-24,5-35.1,8
	c-1.1-0.2,43.3,17.4,42.3,16.8c0-1.1,0-21.6-0.1-26.3L111.8,383.8z M480.8,395.5c0,7.3,0.1,13.2,0.2,13.2s9.6-3.8,21.1-8.3
	c11.5-4.6,20.9-8.4,20.9-8.6c-0.6-0.6-2.2-0.7-5.1-1.4c-11.6-3-25.6-5.9-37.2-8.2L480.8,395.5z M440.9,424.5
	c-11.8,17.5-28,32.2-45,44.8c1,28.6-3.8,25.6,7.3,17.3c19-16.3,37.4-38.5,39.2-64.4C442.3,422.4,441.7,423.3,440.9,424.5z
	 M157.6,423.5c3.1,27.9,23.3,50.5,44.4,67.4c3.7,3.3,1.6,0.4,2.2-10.1c0,0,0-11.5,0-11.5c-13.9-10.1-24-18.9-35-31.6
	c-3.4-4-7.2-8.8-9.8-12.7C158.3,423.6,157.5,421.5,157.6,423.5z"/>
<path id="Light_Grey" d="M196.9,371.5c-11,1-29.2,3.2-39.7,4.6c0.3,23.2-0.8,14.8,1.9,25.4c7.1,19.5,23,35,38.8,47.9
	c1.4,1.1,5,4.2,6.3,4.7c0.1-0.3,0.3-69.3,0.2-83.3C203.5,370.9,200.4,371.1,196.9,371.5z M396,412.6v41.8
	c18.9-14.9,38.2-31.9,45.6-55.3c1.6-4.2,1.1-15.5,1.2-23c-14.1-2-32.8-3.8-46.8-5.2L396,412.6L396,412.6z M212.3,486.8v11.8
	c13.8,8.8,19.5,13.1,32,19c-0.2,0.2,18.9-15.7,18.5-15.6c-16.5-7.3-35.5-16.9-50.5-26.9L212.3,486.8z M384.1,477.2
	c-14,9.2-31.6,18-46.8,24.6c-0.6-0.2,19.3,16.3,19,15.8c10.2-5.2,21.7-12.6,31.5-19.1c0-18.5,0-23.4-0.1-23.4
	C387.5,475.2,385.9,476.1,384.1,477.2z"/>
<path id="Letter_Shadows" class="st0" d="M383.2,314.2v17.4l2.5,2.4v-33.3l3.9-3.5c-2.8-0.3-4.1-0.3-6.4-0.4V314.2z M324.1,311
	c-0.3,16.8,1.4,16.5-7.5,23.6c-1.2,0.7-3.2,1.3-4.6,1.7c-23.6,0-28.4,0.1-28.4,0.2c5.9,3.6,5.6,1.7,18.5,2.2
	c4.6-0.1,15.7,0.9,19.1-2.9c6.9-8.2,4.6-4.4,5.3-20.6c0,0,0.1-12.1,0.1-12.1C323.3,292.9,324.3,300.8,324.1,311z M264.7,303
	c0,5.9,0,8.2-3,12.3c0.8,1.1,1.1,1.3,1.3,1.3c1.1-0.6,2.7-2.3,3.3-3.8c0,0,0.8-1.6,0.8-1.6c-0.1-9.7,0.6-7.1-1.2-11.4
	C264.4,297.7,264.8,297.1,264.7,303z M287.4,299.9c-3.1-0.1-1.4,16.6-1.8,21.6h2.4c0.4-25.3-3.8-17.9,20.6-19.1v-2.6
	C292.4,299.8,287.6,299.8,287.4,299.9z M237.7,301.9c-6.2,0.3-10.3,0.6-11.1,0.6v7.9c0.9-0.3,1.6-0.2,2.4-0.2v-5.5
	c3.4-0.3,17.7-1,20.6-1.3v-2.3C248.3,301.3,243.3,301.6,237.7,301.9z M205.5,314.9c-0.1,3.1,0.5,15.9-1.8,17.9
	c-2,3.9-5.6,7.2-9.8,8.5c-2,0.9-25.3,3-27.9,3.3c-1.1,0.1-0.9,0.5,0.1,0.9c5.5,2.3,7.1,0.4,17-0.2c10.9-1.6,12.2-0.3,18.4-4.4
	c7.3-7.6,6.2-5.9,6.6-21.6c0.1-9.8,0-11.7-0.2-12.9C205.2,298.9,205.6,301,205.5,314.9z M442.6,308v5c1.7,1.9,2.2,2.4,2.3,2.4
	c0.3-0.6,0.2-10.1,0.2-12.3c-1.4-0.2-2-0.3-2.1-0.3C442.6,302.9,442.6,303.3,442.6,308z M150.9,303.7l-0.9,0.2l0.1,10.2
	c4,3.7,1.9,0.3,2.4-4.6C152.1,302.8,153.5,303.4,150.9,303.7z M397.4,307.3c0,1.6,0.1,2.9,0.1,3c0.3,0.1,3-2.4,3.6-3
	c5.7,0.2,7.1,1.9,7-0.5c0.1-2.4-2-1.1-5.3-1.9C398.2,304.9,397.2,302.5,397.4,307.3z M179.3,306.7c-8.5,1.3-9.5,0.3-11.5,2.3
	c-0.7-1.3-0.5,17.1-0.6,20.6c1.4-0.2,1.9-0.3,2-0.3c0.3,0.8,0.3-14.9,0.4-17.6c0.5-3.1,18.4-2.9,20.7-4v-2.3
	C189.4,305.6,184.7,306.1,179.3,306.7z M423.3,321.4v13.9l2.6,2.6v-28c1.1,0.2,9.7,1.3,10.6,1.1c1,0.2-1.7-2.1-2-2.5
	c-8.7-0.8-10.2-1-11.3-1L423.3,321.4L423.3,321.4z M345.1,320v9.5l2.3,2.3v-18.4c-1.6-2.3-2.1-2.9-2.2-2.9
	C345.2,310.4,345.1,314.7,345.1,320z M136.3,312.8l-5.3,1l-0.1,28.1c1.7,1.4,2.3,1.7,2.3,1.7c0.1,0.6,0.1-28.4,0.2-27.8
	c-0.1,0,10.8-2,10.8-1.9c0.2-0.1-2.5-2.1-2.5-2C141.6,311.8,139.1,312.2,136.3,312.8z M460.9,312.6c-1.6,1.8-0.7,1.1-1,11.1
	c0,0,0,9.9,0,9.9l2.3,0.3c0.2-17.2,0.2-17.5,0.6-17.9c1.3-1.4,3.1,0,10.4,0.8c5.2,0.9,9.5,1.6,9.6,1.6c0.2,0.1,0.2-2.5,0.2-2.4
	c0,0-4.7-0.8-10.4-1.8C465.8,313.2,462.6,312,460.9,312.6z M110.1,317.4l-5.3,0.9c0.1,5.9,0.1,6,0.4,5.6c0.4-0.5,2.5-3.1,3.3-4
	l7-1.3c0-1.8,0-2.3-0.1-2.3C115.5,316.5,113.1,316.9,110.1,317.4z M498.3,316.6c0-0.6,0,28.4-0.5,26.9c-1.3,5.2-6.3,9.2-11.7,9
	c-1.5,0-4.3-0.5-15.1-2.3c-7.3-1.3-13.3-2.3-13.4-2.3c5.5,4.7,5.3,2.8,17.4,5.4c11.5,1.3,13.5,4.1,20.8-0.1
	c6.7-7.1,4.2-5.2,4.8-19.7C500.6,329.6,501.3,319.4,498.3,316.6z M264.8,325.8v3.2c2.7,2.3,2.4,3,2.5,0
	C267.8,326.6,264.4,318.6,264.8,325.8z M236.9,324.6c-11.8,1.3-10.5-2.1-10.4,6.4l2.4,2.2v-5.7c15.6-0.8,20.3-1.1,20.4-1
	c0.3,0,0.2-2,0.2-2.4C247.7,324,242.6,324.2,236.9,324.6z M262.1,336.9l-5.4,0.2c-1.9,2-2.4,2.5-2.4,2.6c0,0,3.4-0.1,7.5-0.2
	c5-0.2,7.5-0.2,9.1-0.5C266.4,335.1,268.5,337.2,262.1,336.9z M335.7,338.4l-1.1,1.1c1.4,0,15.6,0.6,16.6,0.5
	c-0.1-0.1-2-2.2-2.5-2.6l-11.8-0.2L335.7,338.4z M224,339.1l-5.4,0.5l-2.6,2.6c1.8-0.3,15-1,16.4-1.3
	C230.5,337.6,229.1,338.8,224,339.1z M371.9,338.7c0-0.1,1.8,2.6,1.8,2.5c0,0,3.2,0.2,7,0.5c4.9,0.4,7,0.5,8.8,0.5l-2.5-2.4
	C375.3,338.9,371.9,338.7,371.9,338.7z M414.2,343.5c-0.6,0.5-1.1,1-1,1.1c-0.3,0.1,16.5,1.9,16.3,1.8c-0.1-0.1-1.9-2.2-2.3-2.6
	C416,343.1,417.1,341.3,414.2,343.5z M129.9,349.9c-3.6,0.7-5.2,0.9-7.3,1.2c-1.7,2.1-2.1,2.7-2,2.8c0.8,0.1,13.3-2.4,16.3-2.9
	c-1.2-1-1.5-1.3-2.4-1.9L129.9,349.9z"/>
<path id="Letters_White" class="st0" d="M329.4,288.7c0.1,0.3,2.7,3.1,3.4,3.8v37.8c-2.7,2.7-3.4,3.5-3.4,3.5
	c1,0.1,15.8,0.6,16.4,0.5l-3.8-3.8c0-22.1,0-28.6,0.1-28.7s5.9,7.4,12.9,16.5c16.6,20.7,7.9,16.7,28.7,18.1
	c-0.1-0.3-2.7-3.1-3.4-3.8v-37.7c2.8-2.7,3.5-3.5,3.5-3.5c0.2,0-16.3-1-16.1-1c-0.3,0.2,2.7,3.1,3.2,3.7c0,22.3-0.1,28.8-0.1,28.9
	c-1.3-1.2-21.4-27.9-26.1-33.9C342.1,289.1,331.6,288.6,329.4,288.7z M392,298.1c0,8.7-0.3,6.2,3.8,3.1l15.3,1.6l0.1,32.4
	c-3.4,3.1-3.5,3.2-3,3.3c0.3,0.1,3.7,0.5,7.6,0.9c8.3,0.5,10.2,2.8,4.7-3.2c0-31.6,0-32.4,0.3-32.3c0.9,0.1,12.1,1.3,15,1.5
	c1.9,2,2.5,2.6,3.9,4.1c0-9.7-0.1-12.5-0.1-12.5c-7.9-0.8-40-4.4-47.6-5V298.1z M320.7,296.5c-5.5-10.6-6.1-7.8-23.6-8.4
	c-14.2,0.4-12.6-0.9-17.6,1.3c-3.2,1.6-5.1,4.6-6.1,8c0.7,5.3-2.4,29.8,3.6,32.9c7.6,4.9,2.6,2.5,20.2,3.1c17.9-0.7,15.4,2.2,22.5-6
	c2.1-5.2,0.9-2.3,1.3-16.7C321,299.8,320.9,297.4,320.7,296.5z M311.4,323.4c-1.9,2.2-2.9,0.6-14.1,1.1c-11.1-0.4-12.2,0.9-14-1
	c-0.4-0.5-0.4-0.7-0.5-12.6c0.4-12.9-1.1-11.1,1.3-13.7c0.6-0.3,1.6-0.3,13.2-0.3c10.7,0,12.6,0,13.2,0.3c2.7,2.8,0.8,0,1.4,25.5
	L311.4,323.4z M261.7,330.3c-0.4-11.4,1.2-10-5.1-14.7c6.6-3.8,5.3-12.1,4.8-18.4c-5.1-12.7-15.3-6.6-32.2-6.7
	c-10.2,0.7-18.6,1.2-18.6,1.3c0.1,0.3,2.8,2.7,3.4,3.3v38.1c-6.1,6.3-2.3,2.9,4.9,3.1c8.1-1,10,0.8,4.5-4v-10.1
	c1.8-0.1,7.9-0.5,14.6-0.8c11.2-0.6,12.4-0.6,13-0.4c2.3,0.5,1.1,6.8,1.4,9.7c-3.6,3.6-3.8,3.8-3.4,3.8c0.5,0,15.3-0.8,15.8-0.8
	c0,0,0.7,0,0.7,0L261.7,330.3z M252.2,310.8c-1.5,2.8-25.7,2.1-28.7,2.9v-14c0.9,0.4,26.8-1.9,27.7-1.2c0.4,0.2,0.8,0.5,1,0.9
	c0.4,0.6,0.4,1,0.4,5.8C252.6,309.8,252.5,310.2,252.2,310.8z M123,303.3l-23.6,4.2c0.6,13.5-1.8,14.9,3.7,8.2
	c5.2-0.9,10.5-1.8,15.5-2.7v32.3c-6.2,7-2.6,3.4,4.8,2.8c7.4-1.7,10.1-0.3,4.6-4.5v-32.3c5.4-1.1,10.3-1.8,15.4-2.8
	c2.7,2.3,3.6,2.9,3.6,2.9c0.2,0.5,0.1-13.6-0.1-12.4C146.7,299,136,300.9,123,303.3z M202.2,301.1c-4.5-10.8-10-7.2-23.3-6.2
	c-9.7,1.4-12.5,0.8-16.6,2.7c-3.3,1.5-5.9,5.1-6.8,8.5c-0.3,1.1-0.3,2.2-0.3,14.2c0.3,15.1-0.8,10.9,1.3,16.4
	c6.2,8,9.5,3.9,22.3,3.4c10.1-1.4,12.6-0.7,16.8-2.8c3.5-1.7,5.7-4.7,6.8-8.4c0.4-1.4,0.4-2.1,0.4-14
	C202.5,304.2,202.5,302.1,202.2,301.1z M193.1,328.2c0.7,2.4-26,3.8-26.9,4.2c-3.6-0.9-1.3-5.2-2-13.2c0.6-10.2-1.6-13.3,2.9-14.3
	c2.7,0.3,24.4-4.3,26-1.4L193.1,328.2L193.1,328.2z M494.8,314.9c-4.2-11.9-10.1-10.2-24.3-12.9c-9-1.3-12.3-2.5-15.3-2
	c-9.6,3.6-7.3,5.6-7.8,20.6c0.3,13.4-0.8,11.1,1.2,16.2c1.4,3.3,4.6,6.2,7.8,7.6c-1,0.2,29.5,5.4,29.4,5.1c4.2,0.2,8.1-3.1,9-7.2
	c0.2-1,0.3-3,0.3-13.7C495.1,318.4,495,315.9,494.8,314.9z M485.8,338.9c-0.2,0.8-0.9,1.7-1.9,1.6c0,0.1-25-4.2-25-4.2
	c-3.8-3.5-1.4-1.5-2-26.2c2.6-2.7,5.9,0.1,14.8,0.9c11.1,2.2,11.6,1.4,13.7,3.3c0.4,0.5,0.4,0.9,0.4,12.3
	C485.9,333,485.9,338.6,485.8,338.9z"/>
<path id="White_Pentagons" class="st0" d="M289.7,58.9c-5.6,4.1-10.3,7.5-10.5,7.7c-0.3,0.2,0.2,1.7,3.8,12.5l4,12.3h26
	c7.3-22.4,8-24.7,7.7-24.9c-0.1-0.1-4.9-3.5-10.5-7.6s-10.3-7.4-10.3-7.4C299.9,51.5,295.3,54.9,289.7,58.9z M238,96.5
	c-5.7,4.2-10.4,7.8-10.4,7.9c0,0.2,1.9,6.1,4.2,13.2s4.2,13,4.2,13s5.7-0.3,12.7-0.6c6.9-0.4,12.7-0.7,12.7-0.7s1.9-5.6,4.1-12.4
	s4.1-12.5,4.1-12.6s-4.7-3.6-10.5-7.8l-10.5-7.6L238,96.5z M341.1,96.5c-5.7,4.2-10.3,7.7-10.3,7.8c0,0.1,1.7,5.8,3.9,12.6
	c2.2,6.8,4,12.4,4,12.4s5.7,0.3,12.7,0.7s12.7,0.7,12.7,0.6c0,0,1.9-6,4.3-13.2c4.1-12.6,4.3-13.1,3.9-13.4c-0.2-0.2-4.7-3.5-10-7.3
	s-9.9-7.2-10.2-7.4l-0.6-0.4L341.1,96.5z M286.9,110.1c0,0.1-1.8,5.6-4,12.2c-2.2,6.7-3.9,12.2-3.9,12.3c0.1,0.1,4.8,3.6,10.5,7.7
	c5.7,4.1,10.5,7.4,10.6,7.4s4.7-3.3,10.3-7.3c5.6-4,10.2-7.4,10.4-7.5c0.2-0.2-0.5-2.5-3.8-12.6l-4-12.3
	C292.7,110,286.9,110,286.9,110.1z"/>
</svg>
