<?xml version="1.0" encoding="utf-8"?>
<!-- Generator: Adobe Illustrator 25.2.3, SVG Export Plug-In . SVG Version: 6.00 Build 0)  -->
<svg version="1.1" id="Layer_1" xmlns="http://www.w3.org/2000/svg" xmlns:xlink="http://www.w3.org/1999/xlink" x="0px" y="0px"
	 viewBox="0 0 600 600" style="enable-background:new 0 0 600 600;" xml:space="preserve">
<style type="text/css">
	.st0{fill:#FFFFFF;}
	.st1{fill:#9EA2A2;}
	.st2{fill:#363B37;}
	.st3{fill:#4891CE;}
	.st4{fill:#E3173E;}
</style>
<path id="Outline" class="st0" d="M300.2,600c-112.5,0-208.1-82.4-224.7-193.6L16.1,0h567.8l-59.2,406.1
	C508.2,517.4,412.7,599.9,300.2,600L300.2,600z"/>
<path id="Grey" class="st1" d="M300.2,588c-106.6,0-197.1-78-212.8-183.4L30.1,12h540.1L513,404.5C497.3,509.9,406.8,588,300.2,588z
	"/>
<path id="Black" class="st2" d="M300.2,570.6c-97.9,0-181.1-71.8-195.5-168.6L50.2,29.4h499.9L495.8,402
	C481.3,498.9,398.1,570.6,300.2,570.6z"/>
<path id="Blue" class="st3" d="M268.6,410.7v-0.8h-15.1v0.8c0.1,20.8-10.7,40.2-28.4,51.1c-9.8-8.3-18.2-18.2-24.8-29.2h-17.2
	c22.2,43.4,67.6,71.9,116.9,71.9c49.4,0,94.7-28.4,116.8-71.9h-17.3c-6.5,11-14.8,20.8-24.6,29c-17.6-11-28.3-30.3-28.2-51v-0.9
	h-15.1v0.9c-0.1,23.9,11.2,46.4,30.5,60.5c-16.3,10.5-35,16.7-54.4,18v-98.7h-15.1v98.7c-19.4-1.3-38.2-7.5-54.6-17.9
	C257.3,457.2,268.7,434.7,268.6,410.7L268.6,410.7z"/>
<path id="Red" class="st4" d="M300.2,533.1c-65.2,0-123.9-39.7-148.1-100.3h-16.1c32.7,90.7,132.6,137.7,223.3,105.1
	c48.9-17.6,87.5-56.2,105.1-105.1h-16.1C424,493.4,365.4,533.1,300.2,533.1L300.2,533.1z M176.8,267.8l2.2-5.6l22.9-59.8l-7.1-47.7
	l19.9,14.5l5.6-14.6l-94.9-69.2l29.1,198.4L134,337.4L94.1,68h159.5l5.8-15.1H76.6l50.8,343.9L176.8,267.8z M145.6,118.9l32.1,23.3
	l8.6,58.5L165.6,255L145.6,118.9z M340.7,52.8l5.8,15.1H506l-39.9,269.4l-20.2-52.9l29.2-199.1l-95.2,69.3l5.6,14.6l20-14.6
	l-7.2,47.6l21.7,56.8l3.3,8.6l49.3,128.8l50.9-343.9H340.7L340.7,52.8z M413.8,200.7l8.8-58.4l32.3-23.5l-20.1,136.8L413.8,200.7z"
	/>
<path id="White" class="st0" d="M198,102.1l33.2,24.2l17.2,12.5l7.4,5.4l-101.5,266l73.2-0.1l14.1-41h116.8l14.3,40.6l73.2-0.1
	L343.6,144.7l8.1-5.9l17.2-12.5l33.3-24.2h-75.1l-18.9-48.9l-8.2-25.3l-0.7,2.2V30l-27.5,72.1L198,102.1z M299.6,199.9l37.8,108.6
	h-75.1L299.6,199.9z"/>
</svg>
