<?xml version="1.0" encoding="utf-8"?>
<!-- Generator: Adobe Illustrator 25.2.3, SVG Export Plug-In . SVG Version: 6.00 Build 0)  -->
<svg version="1.1" id="Layer_1" xmlns="http://www.w3.org/2000/svg" xmlns:xlink="http://www.w3.org/1999/xlink" x="0px" y="0px"
	 viewBox="0 0 600 600" style="enable-background:new 0 0 600 600;" xml:space="preserve">
<style type="text/css">
	.st0{fill:#FFFFFF;}
	.st1{fill:#00A8E1;}
	.st2{fill:#0D2240;}
	.st3{fill:#C4D600;}
</style>
<g>
	<path id="Light_Blue_2_" class="st0" d="M600,106.6l-13,8l-10.7,6.6l-3.2,1.9c-37.8,21.9-77.8,40.5-118.9,55.1
		c-16.1,5.7-30.3,9.9-44.7,14c-21.4,6.1-38.2,10.9-50.2,19.5c-5.7,4.1-10,8.9-13,14.6c-0.4-0.8-1-1.5-1.5-2.2c-0.8-1-1.6-2-2.4-3
		c1-1.8,1.9-3.8,2.7-5.8l0-0.1l0-0.1c3.4-9.5,3.7-19.7,0.8-29.4l0-0.1l0-0.1l-1.3-3.8l-1.4-4l-4.2,0.5l-3.8,0.5
		c-9.4,0.9-18.5,3.9-26.5,8.8c-0.3-0.2-0.5-0.4-0.8-0.6l-6.5-4.7l-7.1-5.1l-1.2,8.7l-0.3,2.2c-0.5-0.1-0.9-0.1-1.4-0.2
		c-8.1-5-17.3-8.1-26.8-9l-3.8-0.5l-4.3-0.5l-1.3,4.1l-1.2,3.8l0,0c-1,3.1-5.6,19.5,3.5,35.3c-0.8,0.9-1.6,1.9-2.3,2.9
		c-0.6,0.7-1.2,1.4-1.6,2.2c-3-5.7-7.3-10.5-12.9-14.5c-11.9-8.6-28.8-13.4-50.1-19.5c-12.8-3.6-27.8-8-44.8-14
		c-41.2-14.6-81.2-33.2-118.9-55.2l-3.3-2L13,114.6l-13-8l5.3,14.2c0.5,1.5,10.7,28.2,27.9,49.8l-5.3-2.4l-14.7-6.5l8,13.9l7.4,12.8
		l0,0l0,0c5.8,9.6,12.8,18.3,21,25.9c-2-0.1-4-0.4-5.9-0.6l-13.8-2L15,209.7l10.4,10.9l9.6,10.1l0,0l0,0l0.2,0.2
		c3.5,3.5,13.8,13.6,26.2,21.9c-1.4,0.2-2.7,0.4-4.1,0.6l-9.9,1.2l-10.9,1.3l7.9,7.6l7.3,7c0.1,0.1,10.7,10.6,29.9,20.9
		c-3.8,0.9-6,1.4-6,1.4l-8.4,1.8l5.4,6.6c1.3,1.6,2.8,3.4,4.3,5.3c3.4,4.3,7.4,9.2,12.1,14.8h-0.4l7.7,8.7l2.8,3.2
		c2.9,3.3,6,6.8,9.1,10.2v23.5c0.1,11.1,5.5,21.5,14.7,27.9c7.2,5.1,15.8,7.8,24.7,7.8l0.6,0l10.2,0v23.3v5.2h5.2h42.2
		c14.1,10.6,29.2,21.2,46,32.4c13.3,8.9,43.9,27.5,45.2,28.3l2.7,1.6l2.7-1.7c1.4-0.9,34.5-21,48.9-30.7
		c16.1-10.8,29.9-20.6,42.1-29.9h42.8h5.2v-5.2v-23.2h9.8c8.8-0.2,17.2-2.9,24.3-7.9c9.1-6.3,14.7-16.7,14.8-27.8l0-22.2
		c12.9-13.9,25.2-28.7,36.7-43.8l4.9-6.4l-7.9-1.8c0,0-2-0.4-5.4-1.3c10.7-5.7,20.6-12.7,29.7-20.8l0.1-0.1l0.1-0.1l7.2-7l7.8-7.6
		l-10.8-1.3l-10-1.2c-1.3-0.2-2.7-0.4-4-0.6c11.8-7.9,21.7-17.4,26.1-21.9l0.2-0.2l0,0l0,0l9.6-10.1l10.4-10.9l-14.9,2.2l-13.8,2
		c-1.9,0.2-3.8,0.4-5.8,0.6c8.1-7.6,15.1-16.3,21-25.9l0-0.1l0-0.1l7.3-12.8l7.9-13.8l-14.5,6.5l-5.3,2.4
		c17.2-21.6,27.4-48.4,27.9-49.8L600,106.6L600,106.6z"/>
	<path id="Light_Blue" class="st1" d="M566.9,185.8l7.3-12.8l-13.4,6c-4.9,2-9.9,3.7-15,5c27-19.7,44-65.1,44-65.1l-10.7,6.6l-3.3,2
		c-38.2,22.1-78.3,40.7-119.8,55.6c-16.9,6-31.9,10.3-45,14.1c-41.5,11.8-66.5,19-64.7,57.6c0.7,14.4-1.9,25.1-7.6,31.1
		c-1.6,1.6-3.4,3-5.5,3.9c-0.7-1.2-1-2.5-1.1-3.9l-0.1-0.9v-1.8c0.2-4.7,4.2-15.1,5.6-18.8c0.2-0.7,0.7-1.6,1.1-2.7
		c7.2-18.3,4.2-30.4,4.1-31l-0.1-0.5l-0.4-0.5c-0.4-0.9-0.9-1.7-1.5-2.5c-1.5-2-3.1-3.8-4.9-5.5c1.8-2.6,3.3-5.4,4.5-8.3
		c3-8.4,3.2-17.6,0.7-26.1l-1.3-3.8l-3.9,0.5c-10,0.9-19.5,4.4-27.7,10.2c-1-1.1-2.1-2.2-3.3-3l-6.4-4.7l-1.1,7.9
		c-2.4-0.8-5-1.2-7.5-1.4c-7.7-5-16.5-8-25.7-8.9l-3.9-0.5l-1.2,3.8c-0.4,0.8-6.2,18.9,5.2,34.5c-1.9,1.6-3.5,3.5-4.9,5.5
		c-0.7,0.7-1.2,1.6-1.6,2.5l-0.2,0.5l-0.1,0.5c-0.1,0.6-3.2,12.7,4,31l0.4,0.8c1.6,4.2,6.1,15.6,6.3,20.6v2.8c0,1.4-0.4,2.7-1.1,3.9
		c-2.1-1-4-2.3-5.6-4c-5.6-6-8.2-16.6-7.6-31.1c1.9-38.6-23.2-45.7-64.6-57.6c-13.2-3.8-28.1-8.1-45-14.1
		c-41.6-14.8-81.7-33.4-119.8-55.6l-3.4-2L10.2,119c0,0,17,45.4,44,65.1c-5.1-1.3-10.1-3-14.9-5l-13.5-6l7.4,12.8
		c8,13.3,18.6,24.8,31.1,34c-1.8,0-3.6,0.1-5.4,0.1c-5.3,0.1-10.6-0.2-15.8-0.9l-13.8-2l9.6,10.1c0.9,0.9,18.1,18.8,36.5,27.8
		c-5.6,1.8-11.4,3-17.2,3.8l-10,1.2l7.3,7c0.7,0.7,15.5,15,41.5,26.1c-12.3,3.3-20.2,4.9-20.2,4.9c5.7,7,13.4,16.8,23.7,28.6h-0.1
		l2.8,3.2c3.2,3.6,6.7,7.5,10.4,11.6v25.6c0,9.4,4.7,18.2,12.4,23.6c6.5,4.6,14.3,7,22.3,6.9h15.5v28.5h44
		c14.3,10.8,29.9,21.8,47.1,33.3c13.4,8.9,45,28.1,45,28.1s34.2-20.9,48.7-30.6c15.7-10.6,30.1-20.8,43.3-30.8h44.6v-28.4h15
		c7.6-0.1,15.1-2.5,21.3-6.9c7.8-5.3,12.4-14.1,12.5-23.6v-24.2c13.3-14.3,25.9-29.3,37.8-44.9c0,0-2.6-0.6-7-1.6
		c-0.1,0-5.4-1.3-12.5-3.2c15.2-6.4,29.2-15.3,41.5-26.3l7.2-7l-10-1.2c-5.8-0.7-11.6-2-17.2-3.8c18.4-9,35.4-26.8,36.3-27.8
		l9.6-10.1l-13.8,2c-5.2,0.7-10.5,1-15.8,0.9c-1.8,0-3.6,0-5.4-0.1C548.3,210.7,558.9,199.1,566.9,185.8z"/>
	<path id="Navy_Blue" class="st2" d="M562.7,183.4c-14.5,6.6-38.3,10-38.3,10c32.4-17.9,49.5-51.4,54.1-61.4l-0.1-0.2
		c-38.4,22.3-78.8,41-120.6,55.9c-69.6,24.9-108.7,21-106.6,66.9c1.4,29.3-10.2,38.1-18.8,40.7c-4.7-2.6-4.7-6.3-5.2-9.8V283
		c0.2-4.8,3-13,6-20.4c0.4-0.9,0.8-1.8,1.1-2.7c6.7-17,3.9-28,3.9-28h-0.1c-0.3-0.6-0.7-1.2-1.2-1.8c-2.2-3-4.9-5.5-8-7.5
		c14.1-14.4,7.5-33.8,7.5-33.8c-14.2,1.6-23.4,7.2-29.1,12.3c-1.3-2.3-3-4.4-5.2-6c-0.3,2.3-1.2,4.4-2.7,6.2
		c-1.2-1.4-2.9-2.3-4.7-2.7c0,1.3-0.1,2.7-0.4,4c-5.4-5.4-15-12-30.7-13.7c0,0-6.4,19.2,7.6,33.7c-3.2,2-5.9,4.6-8.1,7.6
		c-0.4,0.5-0.8,1.1-1.2,1.8c0,0-2.8,10.9,3.9,28l0.1,0.1l0.1,0.6c3.2,7.9,6.6,17.1,6.7,22.3c0.1,1.2,0.1,2.3,0,3.5
		c-0.4,3.2-0.8,6.3-5,8.7c-8.6-2.6-20.2-11.4-18.8-40.6c2.1-46.1-36.9-42.2-106.5-66.9c-41.9-14.9-82.3-33.6-120.8-55.9l-0.1,0.1
		c4.6,10.1,21.8,43.6,54.1,61.4c0,0-23.8-3.4-38.3-9.8c0,0,17,29.8,44,40.3c0,0-24.5,2.2-39,0c0,0,26.3,27.7,47.6,31.2
		c-10,4-20.5,6.9-31.2,8.4c0,0,19.5,19.1,53.1,30.2c-13.1,4.2-26.5,7.3-26.5,7.3c10.3,13.2,21.3,25.8,32.9,37.8V367
		c0.1,7.9,4,15.2,10.4,19.7c5.7,4,12.5,6.1,19.5,6h20.4v28.5h42.1c28.6,22,58.5,42.3,89.5,60.9c30.9-18.5,60.8-38.9,89.3-60.9h42.1
		v-28.6h19.7c6.7,0,13.2-2.1,18.6-6c6.5-4.4,10.4-11.7,10.4-19.6v-26.7c12.2-12.5,23.8-25.6,34.6-39.4c0,0-13.4-3-26.6-7.3
		c33.7-11.1,53.2-30.2,53.2-30.2c-10.7-1.6-21.2-4.4-31.3-8.4c21.3-3.6,47.6-31.2,47.6-31.2c-14.5,2.2-39,0-39,0
		C545.7,213.2,562.7,183.4,562.7,183.4z M255.2,439.2c-8-5.4-16.2-11.1-24.2-17.1l32.2,5.2C260,430.8,257.3,434.9,255.2,439.2z
		 M231,249.7c0.1-11.1-8.9-19.3-32.8-25.9c-23.9-6.6-29.9-8.8-68.2-21.3c-23.9-8.1-46.2-20.3-65.9-36.1h0.1
		c57,28,93.6,37.2,124.3,46.3c30.7,9.1,40.8,12.2,48.2,25.3c6.3,11.1-4.2,28.3,10.6,53.9c5.3,9.4,14.2,16.3,24.6,19.1
		C226.2,306.8,230.8,261,231,249.7z M344.5,439.5c-2.1-4.4-4.8-8.4-8.1-12l32.6-5.4C361,428.2,352.6,434.1,344.5,439.5z
		 M470.1,202.5c-38.2,12.5-44.2,14.8-68.2,21.3c-23.9,6.6-32.8,14.8-32.7,25.9c0.1,11.3,4.7,57.1-40.8,61.3
		c10.4-2.8,19.3-9.7,24.5-19.1c14.9-25.7,4.3-42.8,10.6-53.9c7.4-13.1,17.5-16.2,48.3-25.3c30.7-9.1,67.2-18.3,124.3-46.3
		C516.3,182.2,494,194.4,470.1,202.5z"/>
	<path id="White_1_" class="st0" d="M330,235c-1.9-2.1-4.1-3.9-6.6-5.3c-1.7-3-3.9-5.8-6.4-8.1c8.3-4.6,13.2-13.7,12.4-23.2
		c0,0-12,3-17.4,9.6c-0.6,0.7-1.1,1.4-1.5,2c0.8,5.7-0.4,13.1-6.2,22c-2.7,3.5-3.1,8.2-1.2,12.1c0,0-5.2-0.4-8.4-7.2
		c-4.3-8.8,2.8-15.8-3.2-24.4c-0.6-0.8-1.3-1.8-2-2.7c-2.8-3.3-6.3-6-10.1-8.1c-2.9-1.4-5.8-2.6-8.9-3.4
		c-0.7,9.5,4.1,18.6,12.4,23.2c-2.6,2.3-4.7,5.1-6.4,8.1c-2.4,1.5-4.6,3.2-6.6,5.3c-0.1,3.5,0.5,6.9,1.9,10.1
		c-0.8,5.3,1.6,10.7,6.2,13.5c0.1,6,1.3,12,3.4,17.7c1.3-3.6,1.9-7.3,1.9-11.1c0,0,6.9,8.7,2.9,27.4c0,0-0.4,0.7-0.9,1.6
		c-1.1,1.9-2.6,4.2-3.4,5.4c-0.9,1.8,6,14.4,6,14.4c3.4,2,7.2,3.1,11.1,3h1.6c7.7-0.4,11.3-3,11.3-3s6.9-12.7,5.9-14.4
		c-0.7-1.2-2.2-3.6-3.3-5.4c-0.6-0.9-0.9-1.6-0.9-1.6c-4.1-18.8,2.9-27.4,2.9-27.4c0,3.8,0.6,7.5,1.8,11.1
		c2.2-5.7,3.4-11.7,3.5-17.8c4.5-2.8,7-8.1,6.2-13.4c1.3-3.2,1.9-6.6,1.8-10.1L330,235z"/>
	<path id="Green" class="st3" d="M511.5,201.2c0,0-15,13.1-47.8,22.4c-32.8,9.4-64.7,20.3-64.7,20.3s86.4-6.6,111.6-11
		c0,0-12.7,9.7-54.1,15.2c-41.5,5.4-65.9,6.4-65.9,6.4s80.8,10.9,111.2,10.6c0,0-14,6.8-54.2,4.8c-40.2-2.1-58-5.6-58-5.6
		s17.2,15.5,84.5,31.4c0,0-23.4,2-44.2-4.2c-14.7-4.5-29-10-43-16.3c8.1,11.2,16.8,21.9,26.1,32.1c0,0-12.9-2.9-29.1-20.5
		c0,0-10.2,22.9-24.6,24.2c0,0,17.7-18.3,17.8-40.9c0.1-22.6-3.2-29.4,27.1-38.2C434.4,223,482.7,209.2,511.5,201.2z M88.5,201.2
		c0,0,15,13.1,47.8,22.4c32.9,9.4,64.8,20.3,64.8,20.3s-86.5-6.6-111.7-11c0,0,12.7,9.7,54.2,15.2c41.4,5.4,65.9,6.4,65.9,6.4
		s-80.9,10.9-111.2,10.6c0,0,13.8,6.8,54.1,4.8c40.3-2.1,58-5.7,58-5.7s-17.2,15.6-84.5,31.5c0,0,23.4,2,44.3-4.2
		c14.7-4.5,29-10,43-16.3c-8.2,11.2-16.9,21.9-26.3,32.1c0,0,12.9-2.9,29.2-20.5c0,0,10.1,22.9,24.5,24.2c0,0-17.7-18.3-17.8-40.9
		c-0.1-22.6,3.2-29.4-27.1-38.2C165.7,223,117.4,209.2,88.5,201.2z M330,235c-2,1.9-4,3.7-6.2,5.4c-2,1.4-8,11.4-8,11.4
		s-4.6,1.2-4.5,4.5c0,3.2,0.9,1.6-0.4,7.6c-1.2,5-4.3,17,1.5,27.1c0.9,2,2.1,4,3.5,5.7c-3.4-15.1-0.8-24.3,0.7-28.1
		c0.3,2.6,0.9,5.2,1.6,7.7c4.7-11.6,3.3-17.6,3.4-17.7C332,252.4,330,235,330,235z M287.3,291.3c6.2-10.2,2.9-22.3,1.9-27.4
		c-1.4-6-0.5-4.5-0.4-7.6c0-3.3-4.6-4.5-4.6-4.5s-6-10-8-11.4c-2.1-1.6-4.2-3.4-6.1-5.3c0,0-2.1,17.4,8,23.4
		c0.2,0.1-1.2,6.1,3.5,17.7c0.7-2.5,1.3-5,1.6-7.5c1.5,3.9,4,13,0.6,27.9C285.3,295,286.4,293.2,287.3,291.3z M312,306.3l-3.4-3.3
		c-2.4,4.8-8.3,6.6-13,4.2c-1.8-0.9-3.3-2.4-4.2-4.2l-3.4,3.3c-2.5-0.9-4.7-4.6-5.9-6.6c-1.1,1.8,5.9,14.4,5.9,14.4
		c3.4,2,7.3,3,11.3,3h1.6c3.9,0.1,7.8-1,11.1-3c0,0,6.9-12.7,6-14.4C316.8,301.8,314.5,305.3,312,306.3z M287.4,220.7
		c-1.3-9.7-11.5-18.3-16.9-22.3c-0.7,9.5,4.2,18.6,12.5,23.2c-2.6,2.3-4.8,5-6.4,8.1C279.4,225.8,283.1,222.7,287.4,220.7z
		 M312.5,220.7c1.4-9.7,11.5-18.3,16.9-22.3c0.7,9.5-4.1,18.6-12.4,23.2c2.6,2.3,4.8,5.1,6.4,8.1
		C320.6,225.8,316.8,222.7,312.5,220.7z M308.4,320c-2.5,0.8-5,1.3-7.6,1.4h-1.5c-2.6-0.1-5.2-0.6-7.6-1.4l-1.2-0.5l0.8,3.3l0.2,0.1
		c2,1.4,4.4,2.2,6.8,2.2c0.5,0.1,1.1,0.1,1.6,0.1c0.5,0,1.1,0,1.6-0.1c2.5-0.1,4.9-0.9,6.9-2.2l0.1-0.1l0.9-3.3L308.4,320z
		 M195.9,405.9h-8.3v-9.3h8.3C195.9,396.7,195.9,405.9,195.9,405.9z M197,392.6h-14.1v17.4H197c1,0,1.9-0.3,2.6-0.9
		c0.7-0.5,1.2-1.3,1.2-2.2v-10.9c0-0.9-0.4-1.8-1.2-2.3c-0.7-0.6-1.6-0.9-2.6-0.8V392.6z M240.7,396.7v3.8h-8.3v-3.8H240.7z
		 M244.5,393.5c-0.8-0.6-1.7-0.9-2.7-0.9h-10.3c-1,0-1.9,0.3-2.7,0.9c-0.7,0.6-1.1,1.4-1.1,2.3v14.1h4.7v-5.4h8.3v5.4h4.8v-14.1
		c0-0.9-0.4-1.8-1.2-2.3H244.5z M277.3,392.6h-4.7v17.4h13.8v-4.1h-9.1V392.6z M318.2,392.6h-4.7v17.4h14v-4.1h-9.3V392.6z
		 M367.6,400.4h-8.3v-3.6h8.3V400.4z M368.5,392.6h-10.3c-1,0-1.9,0.4-2.7,0.9c-0.7,0.5-1.1,1.4-1.1,2.2v14.2h4.7v-5.5h8.4v5.5h4.7
		v-14.1c0-0.9-0.4-1.7-1.1-2.3c-0.8-0.6-1.7-0.9-2.7-0.8L368.5,392.6z M417.2,399.9l-13.1-1.3v-2h13.1v-4.1H403
		c-0.9,0-1.9,0.3-2.6,0.9c-0.7,0.6-1.1,1.4-1.2,2.3v6.6l13.1,1.4v2h-13.1v4.1h14.1c1,0,1.9-0.3,2.7-0.9c0.7-0.5,1.1-1.4,1.1-2.2
		v-6.8H417.2z M257.3,379.9h-20.6v-49.4l1.5,0.1c5.5,0.5,11.8,0.8,17.8,1.2l1.3,0.1V379.9z M354.6,379.9c-4,0-7.9-1-11.4-2.8
		L343,377c-4.1-2.6-4.9-5.5-4.9-7.6l0.1-26.7c0.2-3.3,2.1-6.3,5-7.9c3.5-2.1,7.4-3.3,11.5-3.5c14.4-1.1,28.7-2.6,42.6-4.3l1.5-0.2
		v14l-1.2,0.1c-11.1,1.2-32.1,2.7-37.4,3.2v22.9l16.4-0.4v-15.8l21.9-1.4v30.6L354.6,379.9z M407.6,379.9v-14.3h1.3
		c12.7-0.5,25.1-1.1,37.2-1.8v-4.5l-38.5-4.5l0.1-17.7c0.2-3.6,2-7,4.9-9.1c3.3-2.7,7.3-4.5,11.6-5.3c14.4-2.5,28.6-5.5,42.2-9
		l1.6-0.5v17l-1.1,0.2c-12,2.5-24.5,4.6-37.2,6.4v3.3l38.3,3.6v21.5c-0.1,4-1.9,7.7-4.9,10.2c-3.3,2.7-7.5,4.1-11.7,4.1
		c-14.3,0-28.5,0.1-42.7,0.2H407.6z M328.5,379.9h-22.2v-34.2H290v34.2h-22v-47.4h1.3c0.2,0,14.1,0.4,21.1,0.5
		c7.2,0.1,14.3,0.1,21.6,0h0.5c3.9-0.1,7.7,0.8,11.1,2.6c3,1.3,4.9,4.2,5,7.4L328.5,379.9L328.5,379.9z M225.4,379.9h-76.1
		c-4.3,0-8.4-1.4-11.7-4.1c-3-2.5-4.8-6.2-4.9-10.2v-52.3l22.2,5.2v45.3l13.1,0.7v-43.3l22.3,3.9v40.3l13.1,0.5v-38.9l1.5,0.2
		l19.3,2.2l1.2,0.1L225.4,379.9z M302.8,435.2v31c4.7-2.9,10-6.2,15.7-10c-4.2-5.7-7.9-12.3-8.1-20.2
		C307.9,435.6,305.3,435.3,302.8,435.2z M267.8,447c3.2,2.1,6.2,4.2,9.3,6.3c3.7-4.6,6.1-10.1,7-15.9
		C278,439.1,272.3,442.4,267.8,447z M322.2,423.6c-1.2,0.3-2.3,0.9-3.3,1.8c-1.7,1.7-2.7,3.9-2.9,6.3c7.8,2.1,14.9,6.2,20.5,12.1
		l2.2-1.5C335.2,434.5,329.5,428,322.2,423.6z M284.6,421.3c2.7,2.4,4.4,5.7,4.8,9.3c2.6-0.4,5.3-0.6,8-0.7v-12.3
		c-4.6,0.2-9.2,1.3-13.5,3L284.6,421.3z"/>
	<path id="Navy_Blue_1_" class="st2" d="M296.5,307.8c0,0-2.3-7-5.6-9.3c0,0-6.6,3.8-4.2,7c0.7,1.3,2.1,2.2,3.6,2.3
		c0,0-1.5-1.9,0.9-3.6C292.8,305.8,294.6,306.9,296.5,307.8z M303.3,307.8c0,0,2.3-7,5.7-9.3c0,0,6.4,3.8,4.2,7
		c-0.7,1.3-2.1,2.2-3.6,2.3c0,0,1.5-1.9-1.1-3.6C307.1,305.8,305.3,307,303.3,307.8z M274.1,238.7c0.2,2.1,0.9,4.1,2,5.9
		c-1.2,1.5-1.1,3.6,0.2,5c0.8-1.1,1.7-2.1,2.6-3c-0.4,1.6-0.2,3.3,0.5,4.8c1.1,2.2,2,2.8,4.7,4.3c1.6,0.8,3.1,2,4.1,3.5
		c0,0,2.9-4.8-2-10.7C282.8,244.6,279.8,243.8,274.1,238.7z M325.9,238.7c-0.2,2.1-0.9,4.1-1.9,5.9c1.2,1.5,1,3.7-0.4,5
		c-0.8-1.1-1.6-2.1-2.6-3c0.4,1.6,0.2,3.3-0.4,4.8c-1.1,2.2-2,2.8-4.8,4.3c-1.6,0.8-3.1,2-4.1,3.5c0,0-2.9-4.8,2-10.7
		C317.2,244.6,320.2,243.8,325.9,238.7z"/>
	<path id="White" class="st0" d="M239.3,377.2h15.2v-42.7c-5.2-0.4-10.4-0.7-15.2-1.1V377.2z M396.2,329.7
		c-13.5,1.8-27.3,3.2-41.3,4.1c-3.7,0.2-7.2,1.3-10.3,3.3c-2.1,1.1-3.6,3.1-3.9,5.5v26.8c0.2,2.3,1.6,4.2,3.6,5.3
		c3.1,1.7,6.6,2.5,10.2,2.5l0,0l41.3-0.1V352l-16.6,1.2V369l-21.7,0.5v-28.1h1.2c0.4,0,24.4-1.8,37.4-3L396.2,329.7z M410.3,368.2v9
		c13.7-0.1,27.4-0.1,41.3-0.2c3.6,0.1,7.2-1.2,10-3.5c2.5-1.9,4-4.9,4-8.1v-19l-38.3-3.6v-8.1l1.2-0.1c12.7-1.9,25.1-4,37.2-6.3
		v-11.4c-13.2,3.3-27,6.2-40.8,8.7c-3.8,0.6-7.4,2.2-10.3,4.7c-2.3,1.6-3.8,4.2-4,7l-0.1,15.4l38.5,4.5v9.4l-1.3,0.1
		C435.4,367.1,422.9,367.7,410.3,368.2z M309,377.2h16.9V343c-0.2-2.2-1.7-4.2-3.8-5c-3-1.6-6.4-2.4-9.8-2.2h-0.4
		c-7.3,0.1-14.4,0.1-21.7,0c-5.6-0.1-15.9-0.4-19.7-0.5v42h16.9v-34.4h1.3c6.3,0.1,12.7,0.1,19,0h1.4L309,377.2z M135.3,316.6v48.9
		c0.1,3.2,1.5,6.2,4,8.2c2.8,2.3,6.4,3.5,10.1,3.4h73.3v-45.3l-16.5-1.9v38.7l-18.5-0.7v-40.7l-17-2.9v42.9l-18.5-0.8v-45.8
		L135.3,316.6z M322.9,453.3c3-2,6.1-4.1,9.3-6.3c-4.5-4.5-10.1-7.8-16.3-9.6C316.8,443.2,319.2,448.7,322.9,453.3z M289.6,436.1
		c-0.2,7.9-3.9,14.4-8,20.2c5.6,3.8,11,7,15.7,10v-31C294.8,435.3,292.2,435.6,289.6,436.1z M302.8,429.8c2.6,0.1,5.3,0.4,7.9,0.7
		c0.4-3.6,2.1-6.9,4.8-9.3c0.2-0.3,0.5-0.5,0.8-0.7c-4.3-1.8-8.9-2.8-13.5-3V429.8z M284.1,431.7c-0.2-2.4-1.3-4.7-3-6.3
		c-0.9-0.8-2.1-1.4-3.3-1.8c-7.2,4.5-12.9,11-16.5,18.6l2.2,1.5C269.1,438,276.3,433.8,284.1,431.7z"/>
</g>
</svg>
