<?xml version="1.0" encoding="utf-8"?>
<!-- Generator: Adobe Illustrator 25.2.3, SVG Export Plug-In . SVG Version: 6.00 Build 0)  -->
<svg version="1.1" id="Layer_1" xmlns="http://www.w3.org/2000/svg" xmlns:xlink="http://www.w3.org/1999/xlink" x="0px" y="0px"
	 viewBox="0 0 600 600" style="enable-background:new 0 0 600 600;" xml:space="preserve">
<style type="text/css">
	.st0{fill:#3C286E;}
	.st1{fill:#FA4B0A;}
	.st2{fill:#FFFFFF;}
</style>
<g>
	<path class="st0" d="M148.2,69.3C21,147.2-19,313.5,58.9,440.7l73.9-257.4l-40.2-17.9l6.2-21.9h124.9l-11.4,39.7
		c59.3-39.7,90.7-39.7,170.2-39.7l-11.4,39.7c44.7-27.1,70.8-35.6,107.8-38.3c17.3-1.2,37.3-1.2,62.6-1.2l-56.2,196h45.4
		c-1,7.3-2.7,14.4-4.4,21.2L385,412.4l59.5-207.3c-82,27.3-117,130.5-148.2,239.5l-88.9,32.3l78-271.8
		c-81,23.5-113.4,119.9-159,277.6c-2.5,8.7-5,17.7-7.7,26.6c48,39.3,108.2,60.7,170.2,60.6h0.4c27.7,0,55.3-4.3,81.7-12.7
		C513.5,512,592.1,360.1,546.9,217.8l28.5-99.3l-85.1,0.6C403.3,22.2,259.4,1.2,148.2,69.3z"/>
	<path class="st1" d="M534.2,299.8c0,94.8-54.7,181.1-140.5,221.6c-153.3-21.3-260.4-162.8-239.3-316.1c7-51.1,28-99.2,60.8-139
		c24-7.6,48.9-11.5,74.1-11.4C424.6,55,534.2,164.6,534.4,299.8"/>
	<path class="st2" d="M600,99.8l-102,0.4C387.7-15.2,204.7-19.3,89.3,91s-119.5,293.3-9.2,408.7s293.3,119.5,408.7,9.2
		c57-54.5,89.3-130,89.3-208.9c0-27.8-3.9-55.4-11.9-82L600,100L600,99.8z M289.1,569.9c-62,0.1-122.2-21.3-170.2-60.6
		c2.7-8.9,5.2-17.9,7.7-26.6c45.6-157.7,78-254.1,159-277.6l-78,271.8l88.9-32.3c31.2-109,66.2-212.3,148.2-239.5L385,412.4
		L526.3,361c1.7-6.9,3.3-13.9,4.4-21.2h-45.4l56.2-196c-25.4,0-45.4,0-62.6,1.2c-37,2.7-63,11.2-107.8,38.3l11.4-39.7
		c-79.5,0-110.9,0-170.2,39.7l11.4-39.7H98.9l-6.2,21.9l40.2,17.9L58.9,440.7C-19,313.5,21,147.2,148.2,69.3
		c111.1-68.1,255-47.1,342.1,49.9l85.1-0.6l-28.5,99.3c45.2,142.3-33.5,294.2-175.7,339.4c-26.4,8.4-54,12.7-81.7,12.7"/>
</g>
</svg>
