<?xml version="1.0" encoding="utf-8"?>
<!-- Generator: Adobe Illustrator 25.2.3, SVG Export Plug-In . SVG Version: 6.00 Build 0)  -->
<svg version="1.1" id="Layer_1" xmlns="http://www.w3.org/2000/svg" xmlns:xlink="http://www.w3.org/1999/xlink" x="0px" y="0px"
	 viewBox="0 0 600 600" style="enable-background:new 0 0 600 600;" xml:space="preserve">
<style type="text/css">
	.st0{fill:#FFFFFF;}
	.st1{fill:#441E36;}
</style>
<g>
	<path class="st0" d="M457.3,80.9L457.3,80.9L457.3,80.9H169h-5.2l-2,4.8l-5.2,12.2l-4.6,10.9h11.9h115.9l-17.4,12.2h24.9h70.9
		c-1.8,1.8-3.6,3.6-5.3,5.4c-2,2.1-4.7,3.3-7.6,3.3h-197h-7.9v6.3l-4.6,10.8l-4.6,10.9H143h95.1c-0.1,0.3-0.3,0.5-0.4,0.8l-5.9,11.5
		h12.9h85c2.5,0,5-0.3,7.4-0.8c-3.1,2.2-5.7,4.2-7.8,5.9c-3,2.4-6.7,3.7-10.5,3.7H127.4h-5.2l-2,4.8l-5.2,12.2l-4.6,10.9h11.9h100.9
		c-0.1,1.2-0.3,2.4-0.4,3.7l-0.8,8.6h8.6h79.2c2.3,0,4.5,0.6,6.5,1.9c1.6,1,3.3,1.8,5.1,2.5c-1.8,0.7-3.5,1.5-5.1,2.5
		c-2,1.2-4.2,1.9-6.5,1.9l-13.2,0l0,0h-66h-8.6l0.8,8.6c0.1,1.2,0.2,2.4,0.4,3.7H101.4h-5.2l-2,4.8L89,257l-4.6,10.9h11.9h222.6
		c3.7,0,7.4,1.3,10.4,3.6c2.2,1.7,4.8,3.8,7.9,6c-2.4-0.6-4.9-0.8-7.3-0.8h-85.1h-12.9l5.9,11.4c0.1,0.3,0.3,0.5,0.4,0.8H80.7h-5.2
		l-2,4.8l-5.2,12.2l-4.6,10.9h11.9h269.7c2.9,0,5.7,1.2,7.7,3.3c1.7,1.9,3.5,3.7,5.3,5.4h-70.9h-24.8l17.4,12.2H59.9h-5.2l-2,4.8
		l-5.2,12.2l-4.6,10.9h0l-1.5,3.5l-6.1,14.4l-4.6,10.9h11.9h12.8l-11.6,27.3l-4.1,9.6H20.2H15l-2,4.8l-8.3,19.6L0,466.8h11.9h21.8
		l-17.6,41.4l-4.6,10.9h11.9h24.8h5.2l2-4.8l20.2-47.5h18l-17.6,41.4l-4.6,10.9h11.9h77.2l0,0h11.9h24.8h5.2l2-4.8l4.4-10.5
		l-0.4,6.9l-0.5,8.3h8.4h26h3.8l2.4-3l5.9-7.6l-4.5,10.6h11.9h24.8h5.2l0,0h0.9h24.8h5.2l2-4.8l5.4-12.8h41.5c0.2,0,0.4,0,0.7,0
		c5,0,10-1.2,14.5-3.4c0.4,6,3.4,11.6,8.2,15.2l0.1,0l0.1,0c5,3.7,11,5.7,17.3,5.7c0.4,0,0.8,0,1.3,0H464c0.2,0,0.5,0,0.7,0
		c6.4,0,12.6-1.8,18-5.3l0.1-0.1l0.1-0.1c5.5-3.8,9.6-9,12.1-15.2l14.1-33.3c1.5-3.5,2.3-7.2,2.4-11c0.1-6.7-2.9-13-8.2-17.1l-0.1,0
		l-0.1,0c-2.6-1.9-5.3-3.3-8.3-4.3h10.4c0.2,0,0.4,0,0.5,0c5.1,0,10-1.5,14.3-4.3l0.1-0.1l0.1-0.1c4.3-3,7.6-7.1,9.6-12l10.3-24.3
		c1.2-2.8,1.9-5.8,1.9-8.9l0-3.3l-0.4-0.4c-0.8-4.1-3.1-7.9-6.5-10.5l-0.1,0l-0.1,0c-4.1-3-8.9-4.6-13.9-4.6c-0.3,0-0.6,0-1,0h-36.9
		c-0.1,0-0.3,0-0.4,0c-0.9,0-1.9,0-2.8,0.1l0.1-0.1H477c19.3-2.7,38-9.3,54.7-19.6c22.4-13.7,40.6-33.3,52.5-56.7
		c0,0,10.8-27.5,12.4-34.8c1.7-7.7,2.7-15.6,3-23.5l0.2-4.7h0.2l-0.1-1.7l0.1-1.7h-0.2l-0.2-4.7c-0.4-7.9-1.4-15.8-3-23.5
		c-1.6-7.3-12.4-34.8-12.4-34.8c-11.9-23.4-30.1-43-52.5-56.7C509.3,88.1,483.6,80.9,457.3,80.9L457.3,80.9z M420.8,188.6h96.8
		l-4.2,9.8H481h-5.2l-2,4.8l-26.9,63.3h-15.2l24.3-57.2l4.6-10.9h-11.9h-32.1L420.8,188.6L420.8,188.6z M357.4,365.8h19.9l-1.5,3.4
		l-7.1,16.6l-1.9-6.9c-0.6-2.2-1.3-4.3-2.3-6.4l-0.1-0.1l-0.1-0.1c-1.4-2.8-3.7-5-6.5-6.2l-0.2-0.1l-0.2-0.1
		C357.5,365.8,357.5,365.8,357.4,365.8L357.4,365.8z M315.9,365.8h11.4l-1.5,3.4l-1.1,2.5c-0.8-1-1.7-1.9-2.8-2.6l-0.1,0l-0.1,0
		C320,367.6,318,366.6,315.9,365.8L315.9,365.8z M242.2,365.8h19.3c-2.1,0.7-4.2,1.7-6.1,3l0,0l0,0c-1.5,1-2.8,2.1-4,3.4
		c-0.8-1-1.6-1.9-2.6-2.7l-0.1-0.1l-0.1-0.1C246.6,367.8,244.5,366.6,242.2,365.8L242.2,365.8z M173.2,365.8h9.6l-1.5,3.4l-0.5,1.2
		c-0.5-0.5-1-0.9-1.6-1.4l-0.1,0l-0.1,0C177.3,367.6,175.3,366.6,173.2,365.8L173.2,365.8z M446.3,394.5h6.7l-4.5,10.6
		c-1.2,2.8-1.9,5.8-1.9,8.9c-0.1,5.5,2.4,10.8,6.9,14.2l0,0l0.1,0c1.8,1.3,3.8,2.4,5.9,3.2h-25.4c-0.2,0-0.3,0-0.5,0c-1,0-2,0-3,0.1
		l1.5-3.5L446.3,394.5L446.3,394.5z M400.3,394.5h10.8l-11.6,27.3l-4.6,10.9h11.9h17.4c-3,0.9-5.9,2.3-8.6,4l0,0l0,0
		c-2.7,1.8-5.1,4-7.1,6.5c-1.2-2.2-2.9-4.1-4.8-5.8c-4.8-4.1-11-6.2-18.6-6.2h0h0h-0.2l1.4-3.4L400.3,394.5L400.3,394.5z
		 M90.5,394.5h6.6l-4.5,10.6c-1.2,2.8-1.9,5.8-1.9,8.8c-0.1,5.5,2.4,10.9,6.9,14.2l0,0l0,0c1.8,1.3,3.8,2.4,5.9,3.2H74.9l1.4-3.4
		L90.5,394.5L90.5,394.5z M334.6,431.4l1.4-3.4l7.1-16.7l4.5,15.8l1.2,4.3H334.6L334.6,431.4z M195.7,418.4h9.3l3.6,9.3l1.4,3.7h-2
		l0,0h-11.9h-5.9l1.4-3.4L195.7,418.4L195.7,418.4z M236.4,432.8h8.8l-0.8-2.2c3.1,1.4,6.5,2.2,9.9,2.2c0.3,0,0.6,0,1,0h18.8
		c-6.1,1.9-11.4,5.8-15.2,11.2l-11.5,15.8l0.4-6.9c0.4-6.9-1.3-12.3-5-16C241,435,238.9,433.7,236.4,432.8L236.4,432.8z"/>
	<path class="st1" d="M51,424.9h18.1l16.3-38.3h21.2l6.1-14.4h-64l-6.1,14.4h24.7L51,424.9z M184.4,424.9l6.1-14.4h20l5.5,14.4h17.7
		l-5.6-14.6c2.5-0.4,5-1.3,7.1-2.8c3-2.1,5.4-5,6.8-8.5l4.1-9.3c0.9-1.9,1.3-3.9,1.3-6c0.1-3.2-1.3-6.2-3.7-8.2
		c-2.8-2.2-6.3-3.4-9.8-3.2h-45.1l-22.3,52.6H184.4z M224,386.7c1-0.1,1.9,0.2,2.8,0.7c0.6,0.4,1,1.2,1,2c0,0.6-0.1,1.1-0.4,1.6
		l-1.1,2.6c-1,2.3-3.4,3.7-5.9,3.5h-24l4.4-10.3H224z M328.8,424.9l15.8-37.2l10.5,37.2h23.7l22.4-52.6h-18.1l-15.9,37.3l-7.9-28.7
		c-0.5-1.8-1.1-3.5-1.8-5.2c-0.6-1.2-1.5-2.1-2.7-2.6c-1.7-0.7-3.5-0.9-5.3-0.9H333l-22.4,52.6H328.8z M423,386.7l-16.3,38.3h18.1
		l16.3-38.3h21.2l6.1-14.4h-64l-6.1,14.4H423z M178.3,383.1c0.1-3.1-1.3-6-3.8-7.8c-2.9-2.1-6.4-3.2-10-3h-37.1
		c-3.7-0.1-7.3,1-10.4,3c-3.1,2.1-5.5,5-6.8,8.5l-10.4,24.4c-0.8,1.8-1.3,3.8-1.3,5.9c-0.1,3.1,1.3,6,3.8,7.8c2.9,2.1,6.4,3.2,10,3
		h37.1c3.7,0.1,7.3-0.9,10.5-3c3.1-2.1,5.4-5.1,6.8-8.5L177,389C177.8,387.2,178.3,385.2,178.3,383.1L178.3,383.1z M158.1,391
		l-6.8,16.2c-1,2.3-2.9,3.5-5.9,3.5h-23.1c-1,0.1-1.9-0.2-2.8-0.7c-0.6-0.4-1-1.1-1-1.9c0-0.6,0.1-1.2,0.4-1.7l6.8-16.2
		c1-2.3,3.4-3.7,5.9-3.5h23.1c1-0.1,2,0.2,2.8,0.7c0.6,0.4,1,1.2,1,1.9C158.4,389.9,158.3,390.4,158.1,391L158.1,391z M321,383.1
		c0.1-3.1-1.3-6-3.8-7.8c-2.9-2.1-6.4-3.2-10-3h-37.1c-3.7-0.1-7.3,1-10.4,3c-3.1,2.1-5.5,5-6.8,8.5l-10.4,24.4
		c-0.8,1.8-1.3,3.8-1.3,5.9c-0.1,3.1,1.3,6,3.8,7.8c2.9,2.1,6.4,3.2,10,3h37.1c3.7,0.1,7.3-0.9,10.4-3c3.1-2.1,5.4-5.1,6.8-8.5
		l10.4-24.4C320.5,387.2,321,385.2,321,383.1L321,383.1z M300.8,390.9l-6.8,16.2c-1,2.3-2.9,3.5-5.9,3.5h-23.1
		c-1,0.1-1.9-0.2-2.8-0.7c-0.6-0.4-1-1.1-1-1.9c0-0.6,0.1-1.2,0.4-1.7l6.8-16.2c1-2.3,3.4-3.7,5.9-3.5h23.1c1-0.1,1.9,0.2,2.8,0.7
		c0.6,0.4,1,1.2,1,1.9C301.1,389.9,301,390.4,300.8,390.9L300.8,390.9z M534.2,383.1c0.1-3.1-1.3-6-3.8-7.8c-2.9-2.1-6.4-3.2-10-3
		h-37.1c-3.7-0.1-7.3,1-10.4,3c-3.1,2.1-5.5,5-6.8,8.5l-10.4,24.4c-0.8,1.8-1.3,3.8-1.3,5.9c-0.1,3.1,1.3,6,3.8,7.8
		c2.9,2.1,6.4,3.2,10,3h37.1c3.7,0.1,7.3-0.9,10.4-3c3.1-2.1,5.4-5.1,6.8-8.5l10.4-24.4C533.8,387.2,534.2,385.2,534.2,383.1
		L534.2,383.1z M514,390.9l-6.8,16.2c-1,2.3-2.9,3.5-5.9,3.5h-23.1c-1,0.1-1.9-0.2-2.8-0.7c-0.6-0.4-1-1.1-1-1.9
		c0-0.6,0.1-1.2,0.4-1.7l6.8-16.2c1-2.3,3.4-3.7,5.9-3.5h23.1c1-0.1,2,0.2,2.8,0.7c0.6,0.4,1,1.2,1,1.9
		C514.3,389.9,514.2,390.4,514,390.9L514,390.9z M99.3,458.9l8.3-19.6H20.2l-8.3,19.6h33.7l-22.2,52.3h24.8l22.2-52.3H99.3z
		 M116.4,491.6l3.7-8.7h50.1l6.9-16.2h-50.1l3.3-7.7h57.4l8.3-19.6h-82.3l-30.5,71.9h82.8l8.3-19.6H116.4z M285.1,456.3l-23.3,54.9
		h24.8l30.6-71.9h-33.7c-7.3-0.2-14.2,3.3-18.3,9.3l-27.4,37.8l2.1-33.9c0.3-4.6-0.6-7.9-2.7-10c-2.1-2.1-5.2-3.1-9.5-3.1H203
		l-30.6,71.9h24.8l22.3-52.5l-3.2,52.5h26L285.1,456.3z M401.5,463.1c1.2-2.6,1.8-5.5,1.9-8.3c0.1-4.3-1.7-8.4-5-11.2
		c-3.3-2.9-7.8-4.3-13.5-4.3h-61.7l-30.5,71.9h24.8l7.5-17.6h46.8c5.1,0.1,10.1-1.3,14.3-4.1c4.2-2.9,7.4-6.9,9.3-11.6L401.5,463.1
		L401.5,463.1z M376.1,464.8l-2,4.5c-1.4,3.2-4.1,4.7-8.1,4.7h-32.8l6.4-15.1h31.9c1.3-0.1,2.7,0.2,3.9,0.9c0.9,0.5,1.4,1.5,1.4,2.6
		C376.7,463.2,376.5,464,376.1,464.8L376.1,464.8z M498.5,443.4c-3.9-2.9-8.8-4.4-13.7-4.1H434c-5-0.1-10,1.3-14.2,4.1
		c-4.2,2.9-7.5,6.9-9.4,11.6l-14.2,33.4c-1.1,2.5-1.7,5.3-1.7,8c-0.1,4.2,1.8,8.2,5.1,10.7c3.9,2.9,8.8,4.4,13.7,4.1h50.8
		c5.1,0.1,10-1.3,14.3-4.1c4.2-2.9,7.4-6.9,9.3-11.7l14.2-33.4c1.1-2.5,1.7-5.3,1.8-8C503.7,449.9,501.8,445.9,498.5,443.4z
		 M476,464.8l-9.4,22.1c-1.3,3.2-4,4.7-8.1,4.7h-31.7c-1.3,0.1-2.7-0.2-3.8-0.9c-0.9-0.6-1.4-1.5-1.3-2.6c0-0.8,0.2-1.6,0.5-2.4
		l9.4-22.1c1.4-3.2,4.1-4.7,8.1-4.7h31.7c1.3-0.1,2.7,0.3,3.8,1c0.9,0.6,1.4,1.6,1.3,2.6C476.5,463.3,476.3,464.1,476,464.8
		L476,464.8z M457.3,357.9c50.6,0,96.9-28.4,119.9-73.4c-0.1,0-45.2,35.7-119.9,35.7c-59.3,0-100-22.4-114.3-31.7
		c-4-2.6-8.6-4-13.3-4h-85c2.1,4.2,4.5,8.3,7.1,12.2H80.7L75.5,309h269.7c5.1,0,9.9,2.1,13.4,5.8c6.4,6.9,13.6,13.2,21.3,18.6h-92.7
		c6.7,4.7,13.8,8.8,21.3,12.2H59.9l-5.2,12.2L457.3,357.9L457.3,357.9z M309.7,235.6h-79.2c0.4,4.1,0.9,8.2,1.7,12.2H101.4L96.2,260
		h222.6c5.5,0,10.9,1.9,15.3,5.3c15.9,12.7,61,43.6,123.3,43.6s106.7-30.4,122.9-43.3c4.4-3.5,7.5-8.5,8.7-14
		c1.6-7.3,2.5-14.7,2.8-22.2H482.9l5.2-12.3h103.7c-0.3-7.5-1.3-14.9-2.8-22.2c-1.2-5.5-4.3-10.5-8.7-14
		c-16.2-12.9-61.2-43.3-122.9-43.3s-107.2,30.8-123.2,43.5c-4.4,3.5-9.8,5.4-15.4,5.4H127.4l-5.2,12.2h110c-0.7,4-1.3,8.1-1.7,12.2
		h79.2c3.8,0,7.5,1.1,10.7,3.1c3.2,2,6.9,3,10.7,3.1h101.2l-5.2,12.3h-96c-3.8,0-7.5,1.1-10.7,3.1
		C317.2,234.5,313.5,235.6,309.7,235.6L309.7,235.6z M448.7,206.3h-43.9l10.8-25.6h113.9l-10.8,25.6H481L452,274.4h-32.3
		L448.7,206.3z M148.2,137.7l-5.2,12.2h108.8c-2.6,4-4.9,8-7.1,12.2h85c4.7,0,9.4-1.4,13.3-4c14.3-9.3,54.9-31.7,114.3-31.7
		c74.7,0,119.9,35.7,119.9,35.7c-23-45.1-69.3-73.4-119.9-73.4H169l-5.2,12.2h144.7c-7.4,3.4-14.6,7.5-21.3,12.2h92.7
		c-7.7,5.5-14.9,11.7-21.3,18.6c-3.5,3.7-8.3,5.8-13.4,5.8L148.2,137.7L148.2,137.7z"/>
</g>
</svg>
