<?xml version="1.0" encoding="utf-8"?>
<!-- Generator: Adobe Illustrator 25.2.3, SVG Export Plug-In . SVG Version: 6.00 Build 0)  -->
<svg version="1.1" id="Layer_1" xmlns="http://www.w3.org/2000/svg" xmlns:xlink="http://www.w3.org/1999/xlink" x="0px" y="0px"
	 viewBox="0 0 600 600" style="enable-background:new 0 0 600 600;" xml:space="preserve">
<style type="text/css">
	.st0{fill:#E03A3E;}
	.st1{fill:#C4CED4;}
	.st2{fill:#002B5C;}
	.st3{fill:#FFFFFF;}
</style>
<path id="Outline_Red" class="st0" d="M590.3,290.9c-4.4-11.7-15.8-35.1-8.1-53.7c5.4-13.4,12.2-18,11.7-38.2
	c-3.7-43.5-34.7-52.9-41.6-53.7c-14.8-1.6-23.1,7.7-23.3,15c-0.5,5.8,2.4,11.4,7.5,14.3c0,0-2.5-12.6,8.9-11
	c6.6,1.3,10.8,7.8,9.5,14.3c-0.2,1.1-0.6,2.2-1.1,3.2c-9.2,12.6-24.3,6.8-33.5-3.9c-6.8-6.7-21.5-25.2-49.9-25.4
	c-44.9-0.2-57.8,35.9-90.5,24.3c-12.5-4.8-19.4-16.3-12-30.5c5.9-8.1,15.5-9.7,21.8-6c4.8,3.7,7.5,9.3,5.4,15.1
	c-2.1,4.1-5.9,5.2-10.5,2.7c-3.3-2.4-3.5-5.2-2.1-6.7c2.5-1.8,4.1-0.6,4.1-0.6c-2.4-3.4-5.1-4.6-9.2-2.7c-9.2,6.3-8.3,23.9,16.6,25
	c28.1-2.7,45.6-25,35.7-59.9c-7.4-18.9-34.2-67.7-130-67.1c-95.8-0.6-122.6,48.3-130.1,67.1c-9.9,34.8,7.7,57.1,35.8,59.9
	c25-0.8,25.8-18.7,16.6-25c-4.1-1.9-6.8-0.6-9.2,2.7c0,0,1.6-1.2,4.1,0.6c1.3,1.2,1.1,4.1-2.2,6.7c-3,2.3-7.3,1.7-9.6-1.4
	c-0.3-0.4-0.6-0.8-0.8-1.3c-2.1-5.8,0.6-11.4,5.4-15.1c6.3-3.6,15.8-2.1,21.8,6c7.5,14.3,0.5,25.8-12,30.5
	c-32.7,11.5-45.6-24.6-90.5-24.3c-28.4,0.1-43.2,18.7-49.9,25.4c-9.2,10.6-24.3,16.4-33.6,3.9c-3-6.1-0.6-13.5,5.5-16.5
	c0.9-0.5,1.9-0.8,3-1c11.6-1.6,8.9,11,8.9,11c5.1-2.9,8-8.5,7.5-14.3c-0.1-7.3-8.6-16.6-23.2-15c-6.8,0.8-37.9,10.2-41.5,53.7
	c-0.5,20.2,6.2,24.8,11.7,38.2c7.6,18.6-3.9,42-8.1,53.7c-3.7,10.4-17.2,54.8,0.4,82c25.5,39.3,67,20.9,67.4,43.3
	c0.4,17.9-24.7,15.6-21.9,6.3c2.3-7.4,9.8-3.9,9.8-3.9c-4-11-17.2-13.5-25-0.5c-7.1,12.3-3.3,28,8.7,35.7
	c27.2,17.7,54.8,6.9,76.4-5.8c21-12.5,41.6-25.9,52-26.1c15.8-0.4,21.3,12.7,17.5,22.7c-3.7,10.3-12.2,29.8-0.8,45.2
	c11.6,15.4,28.8,20.1,55.9,25.3c23.9,4.6,44.3,26.5,50.1,39.8c5.8-13.3,26-35.2,50.1-39.8c27-5.2,44.3-10,55.9-25.3
	c11.6-15.5,2.9-35-0.8-45.2c-3.7-10,1.9-23.1,17.5-22.7c10.4,0.4,31,13.9,52,26.1c21.5,12.7,49.2,23.5,76.4,5.8
	c11.2-7.4,16.3-23.1,8.7-35.7c-8-13.1-21-10.5-25,0.5c0,0,7.5-3.4,9.7,3.9c2.9,9.3-22.1,11.6-21.8-6.3c0.4-22.5,41.8-4.1,67.2-43.3
	C607.6,345.5,594,301.2,590.3,290.9z"/>
<path id="Outline_Grey" class="st1" d="M581.5,294l-1.9-5.1c-5.4-13.3-14.2-35.7-5.9-55.3c1.4-3.6,3.1-7.1,5-10.5
	c4.5-7.1,6.6-15.4,5.9-23.7c-3.4-40.5-33-45-33.4-45.1c-1.4-0.1-2.7-0.1-4.1,0c6.5,1,12.1,5.2,15,11.1c3.2,6.2,3.2,13.6-0.1,19.8
	l-0.4,0.6l-0.4,0.4c-4.5,6.5-11.8,10.5-19.7,10.9c-9.6,0.4-20-4.7-28.1-13.8c-0.7-0.7-1.3-1.6-2.2-2.4c-7.1-7.5-19.4-20.1-41-20.2
	c-19.1-0.1-31.6,7.3-43.7,14.3c-14.3,8.3-28.9,16.9-49.8,9.7l-0.1-0.1h-0.1c-8.6-3.1-15.6-9.7-19-18.3c-2.1-5.4-3.3-14.3,2.4-25.2
	l0.4-0.8l0.5-0.5c8.3-11.2,22.9-15,33.9-8.5l0.5,0.4l0.4,0.4c8.7,6.5,11.9,16.3,8.6,25.6l-0.4,0.5l-0.2,0.5
	c-0.5,0.9-1.1,1.8-1.7,2.7c6.6-1.9,12.4-5.9,16.3-11.5c5.8-8.5,6.9-20.4,3-34.3c-9.3-23.2-37.3-61.6-121.3-61.1
	c-83.9-0.5-112,37.7-121.2,61.1c-3.9,13.9-2.9,25.9,2.9,34.3c4,5.6,9.8,9.6,16.4,11.5c-0.6-0.8-1.2-1.7-1.7-2.7l-0.4-0.5l-0.2-0.5
	c-3.3-9.3,0-19,8.5-25.6l0.5-0.4l0.5-0.4c11-6.3,25.5-2.7,33.9,8.5l0.5,0.5l0.4,0.8c4.4,7.6,5.3,16.8,2.4,25.2
	c-3.5,8.4-10.4,15-19,18.3l-0.1,0.1c-20.9,7.4-35.7-1.2-49.8-9.7c-12.1-7-24.7-14.4-43.7-14.3c-21.6,0.1-33.9,12.7-41,20.2
	c-0.8,0.8-1.6,1.7-2.3,2.4c-8,8.9-18.4,14.2-28.1,13.8c-7.9-0.3-15.2-4.3-19.6-10.9l-0.4-0.4l-0.4-0.6c-3.4-6.2-3.4-13.7,0-19.8
	c2.9-5.9,8.4-10,14.9-11.1c-1.4-0.1-2.7-0.1-4.1,0c-0.4,0-29.8,4.6-33.4,45.1c-0.6,8.3,1.5,16.6,5.9,23.7c1.9,3.4,3.6,6.9,5.1,10.5
	c8,19.5-0.7,41.8-5.9,55.3c-0.7,1.9-1.5,3.7-2.1,5.1c-6.4,17.8-13.8,53.2-0.6,73.9c12.1,18.4,27.7,21.8,41.4,24.8
	c12.1,2.5,27.2,5.9,27.6,23.3c0.3,8.7-4.5,16.7-12.3,20.6c-7.7,3.6-16.7,2.7-23.5-2.4c-2.2-1.9-3.7-4.4-4.4-7.1
	c-1.6,7.3,1.4,14.9,7.6,19c18.5,12.1,39.2,10.2,66.8-6l10-5.9c21.8-13.1,35.8-21.2,46.3-21.4c10-0.2,18.3,3.5,23.3,10.5
	c5.1,7.2,6.3,16.4,3.1,24.7l-0.8,2.4c-3.5,9.4-8.9,23.8-1.2,34c9.1,12.2,22.9,16.7,50.2,21.9c20.2,3.9,37.9,18.4,48.4,31.6
	c10.5-13.4,28.1-27.7,48.5-31.6c27.3-5.3,41-9.7,50.2-21.9c7.6-10.3,2.4-24.6-1.2-34l-0.8-2.4c-3-8.2-1.9-17.4,3-24.7
	c5.5-7.3,14.3-11.2,23.3-10.5c10.5,0.4,24.4,8.3,46.4,21.4l10,5.9c27.6,16.2,48.1,18.1,66.6,6c6.3-4.1,9.3-11.7,7.6-19
	c-0.8,2.7-2.3,5.2-4.4,7.1c-5.7,5-15.6,6-23.5,2.4c-7.9-3.7-12.7-11.9-12.2-20.6c0.2-17.4,15.4-20.7,27.5-23.3
	c13.8-3,29.4-6.4,41.4-24.8C595.5,347.3,588,311.7,581.5,294z"/>
<path id="Blue_Background" class="st2" d="M572.9,297.2c-0.4-1.3-1.2-3-1.9-4.8c-5.8-14.8-15.4-39.3-5.8-62.3
	c1.6-3.8,3.4-7.6,5.4-11.2c3.5-6.5,5.1-9.6,5-18.9c-0.4-5.1-1.5-10.2-3.3-15c-0.5,1.7-1.3,3.2-2.2,4.7l-0.4,0.6l-0.2,0.5l-0.4,0.5
	l-0.4,0.5c-6.2,8.8-16,14.2-26.7,14.6c-12.2,0.4-25.2-5.8-35.1-16.7c-0.8-0.7-1.5-1.6-2.2-2.4c-6.7-6.9-16.7-17.3-34.5-17.4
	c-16.6-0.1-27.5,6.2-38.9,12.9c-14.4,8.5-32.5,19-57.4,10.4l-0.1-0.1c-0.1,0-0.3-0.1-0.4-0.1h-0.1c-11.1-4-19.9-12.5-24.3-23.5
	c-3.9-10.8-2.8-22.8,2.9-32.8l0.7-1.5l0.5-0.6l0.4-0.6c11.2-14.9,31-19.7,46-10.9l0.5,0.2l0.5,0.4l0.5,0.4l0.5,0.4
	c5.4,4,9.4,9.5,11.6,15.8c2.8-7.1,1.5-15.6-0.2-22.1c-8.5-20.8-34.3-55.2-112.6-54.7c-78-0.5-103.9,33.9-112.4,54.7
	c-1.8,6.5-3,15-0.4,22.1c2.3-6.3,6.3-11.8,11.6-15.8l0.5-0.4l0.5-0.4l0.5-0.4l0.5-0.2c15-8.7,34.7-3.9,46,10.9l0.4,0.6l0.5,0.6
	l0.7,1.5c5.7,10,6.7,22,2.7,32.8c-4.4,10.9-13.2,19.5-24.3,23.5h-0.1c0,0,0,0.1-0.4,0.1l-0.1,0.1c-24.9,8.7-43.1-1.8-57.4-10.4
	c-11.4-6.8-22.3-13.1-38.9-12.9c-17.7,0-27.7,10.5-34.3,17.4c-0.7,0.8-1.6,1.6-2.3,2.4c-9.7,10.9-22.9,17.1-35,16.7
	c-10.7-0.5-20.6-5.9-26.8-14.6l-0.4-0.5l-0.4-0.5l-0.7-1.1c-0.9-1.5-1.5-3.1-2.1-4.7c-1.7,4.8-2.8,9.9-3.3,15
	c-0.1,9.3,1.3,12.2,5,18.9c1.6,3,3.5,6.7,5.4,11.2c9.6,23-0.1,47.5-5.9,62.3c-0.7,1.7-1.3,3.5-1.9,4.8c-5.4,15-12.8,48.1-1.6,65.7
	c9.8,15.2,22.4,18,35.6,20.9c12,2.5,34.3,7.4,34.8,32.2c0.5,12-6.2,23.2-16.9,28.5c10.5,0.1,22.5-3.9,37-12.5l10-5.9
	c23.9-14.3,38-22.3,50.8-22.6c13.1-0.4,24.2,4.7,31.1,14.4c6.8,9.7,8.5,22.1,4.4,33.1c-0.3,0.8-0.6,1.6-1,2.3
	c-3,8.1-7.1,19.1-2.5,25.3c6.7,8.8,16.7,12.9,44.6,18.4c16.4,3.3,33.1,12.9,46.7,26.8c13.4-13.9,30.2-23.6,46.6-26.8
	c28.1-5.4,38-9.4,44.6-18.4c4.7-6.2,0.6-17.2-2.4-25.3c-0.4-1.1-0.8-1.9-1-2.4v0.1c-4.1-11.1-2.5-23.4,4.2-33.1
	c7.2-9.7,18.9-15.2,31-14.4c12.9,0.4,27.2,8.5,50.9,22.6l5,3c1.8,1,3.5,2.1,5.1,3.3l-0.1-0.4c14.6,8.5,26.5,12.7,37,12.6
	c-10.7-5.4-17.3-16.6-16.9-28.5c0.5-24.8,22.7-29.6,34.8-32.3c13.3-2.8,25.6-5.4,35.6-20.8C585.7,345.4,578.4,312.2,572.9,297.2z"/>
<path id="Red_Ring" class="st0" d="M299.1,79c-33,0-59.1,7.9-58.8,17.5s26.7,17.5,58.8,17.5c32.2,0,58.4-7.9,58.7-17.5
	C358.2,86.8,331.7,79,299.1,79z M299.5,106c-26,0-47-5.4-47.3-11.9c-0.2-6.5,20.9-11.9,47.3-11.9c26.2,0,47.4,5.4,47.2,11.9
	C346.5,100.8,325.3,106,299.5,106L299.5,106z"/>
<path id="Gray_Smoke" class="st1" d="M276.8,84.2c-0.7,11.6,21.9,14.6,26.4,8.6c-7,0.4-9.8-2.8-8.7-7.4c5-20.1,69.2-15.5,70.8,10.8
	c1.2,19.4-30.2,8.7-55.3,62.8c21.8-46.8,67.2-44.4,67.6-60.4C378.3,66.1,278.8,56.9,276.8,84.2z M360.9,311.4
	c-2.2-5.9-2.2-15.1,7-15.1c-6.5-8.5-20.3,1.3-9.9,16.9c3.3,4.8,5.4,13.3,6.2,26.5c1.5,27.7-31.3,27-23,68.6c-1.2-1.6-2.5-3-3.9-4.4
	c-6.3-6.5-13.3-11.4-15.5-17.9c-7-20.6,18.5-21.3,6.7-55.9c-13.8-39.4-54.8-5.8-75.7-47.3c-17.5-35.2,15-77.9,41.4-106.4
	c-5.6,5.8-10,10.5-9.6,9.8c-21.8,21.4-62.9,57.3-43.3,101.8c13.3,29.9,59.5,15.1,65.6,47.4c6.3,32.9-23.7,22.3-37.6,55.8
	c-2.4,6-8.7,14-12.9,19.8c-5.8,8.9-9,19.2-9.3,29.9v1.5c-5.9-0.5-10.7-5.1-11.2-11c-0.3-1.5-0.4-3-0.4-4.5c0-1,0.1-2,0.4-2.9
	c3-13.8,24.4-21.5,26.7-38.6c2.4-17.3-21.3-19.7-28.8-17.3c0,0,13.3,4.2,13.3,16.7c0,10.4-13.9,15.6-17.3,35.2
	c-1.6,8.9-0.6,21.4,17.7,26.8c2.3,15.6,14.5,40.4,52.5,40.3c43.1-0.1,53-31.9,53-46.1c-0.1-5.3-0.8-10.5-2.2-15.6
	c-12.6-57.7,12-40.8,20.9-66.6c0.2-0.8,0.6-1.7,0.8-2.7C377.8,335.9,363.6,318.3,360.9,311.4z"/>
<path id="Basketball_Blue" class="st2" d="M302.2,436.7V448c12.4,1.8,23.1,9.4,28.9,20.6c5-5.7,8.4-12.7,9.7-20.2
	C331,441,318.4,437.1,302.2,436.7z M296.7,431v-9.7c-5.8-0.2-11.6-1.4-17.1-3.5c-4.2-1.9-9-2.5-13.5-1.6c-5.3,7.3-8.2,16-8.2,25v1.2
	C269.4,435.1,282.9,431.1,296.7,431z M326.8,409.3c-6.9-5.9-15.6-9.4-24.7-10v16.1c5.6-0.2,11.1-1.5,16.2-3.6
	C321,410.6,323.9,409.8,326.8,409.3L326.8,409.3z M296.7,453.8c-10.9,1.1-19.8,9.6-24.8,18.6c6.9,6.1,15.6,9.8,24.8,10.5V453.8z"/>
<path id="Letter_Red" class="st0" d="M143.3,371c-0.6,3.1-0.5,5.8-1.2,9.1c0,0,22.5-21.2,26.1-60.4C162.2,353,143.3,371,143.3,371z
	 M64.5,321.5L64.5,321.5c-0.7,21.2,3.6,44,27.5,59.9c0.5-2.5,1.2-9.2,1.2-9.2C72.2,358.2,65.7,339.9,64.5,321.5z M109.6,359.7
	c-0.9,3-1.3,6.1-1.2,9.2c0,0,8.9,6.9,19.1,6c0.9-3,1.3-6.1,1.2-9.2C118.5,366.5,109.6,359.7,109.6,359.7z M539.9,327h-0.2
	c1.1,19.6-12.2,39.7-30.6,41.2c-16.3,1.3-21.8-8.1-22.4-14c-0.8,8.9,5.1,24.9,23.7,23.3C529.5,375.6,542.8,351,539.9,327z
	 M340.9,349.6c-16.3,0.5-18.7-16-19.6-25.2v-0.6c-0.1,4.7-0.1,8.3,0,9.8c0.8,9.2,3.3,26,19.6,25.3c16.3-0.8,15.8-22.1,15.5-27.6
	C356.7,336.8,353,349.1,340.9,349.6z M413.4,336.2c0.2,5.3-3.5,17.9-15.6,18.3c-16.3,0.5-19.6-18.5-20.4-27.8c0-0.5-0.1-1.2-0.1-1.9
	c-0.1,3.8,0,7.5,0.4,11.2c0.8,9.1,4,28.3,20.3,27.7C414.2,363,413.5,341.4,413.4,336.2z M470.1,347.7c-5.8,9.8-15.8,10.6-23.8,7.6
	c-5.7-2.4-10.6-6.3-14.2-11.4c-2.9-4.2-6.7-14.2-7.9-28.4c-0.1,19.6,4.7,32.5,8.2,37.6c3.5,5.1,8.4,9,14.2,11.4
	c8,3,18.1,2.4,23.8-7.5c2.8-5.9,3.5-12.6,1.9-19C472.8,341.4,472,344.8,470.1,347.7z M271.5,350.3c-15.4,0.7-19.6-9.7-19.7-15.2
	c-1.1,9.9,3.3,25.2,19.7,24.4c16.7-0.7,29.4-21.9,28.9-43.1C298.7,333.7,286.9,349.6,271.5,350.3z M217,355.2
	c-10.9,7.9-30.1,8-34-2.7c-1.1-2.6-1.5-5.3-1.2-8.1c-5.9,28.1,23.8,27.7,34.8,20.1c13.1-8.7,26-34,26.4-76.9
	C240.8,324.7,228.7,346.7,217,355.2z"/>
<path id="Letter_Gray" class="st1" d="M76.7,243.6c0,0-15,8.8-23.1,15.1c2.7,2.1,5,4.5,6.8,7.4c6.4-4.7,13.3-8.8,20.4-12.2
	C79.6,250.4,78.3,247,76.7,243.6z M103,252.6c19,0,19.6,18,19.6,18c5.2-18.5,16.6-20.4,21.3-19.6c4.1,0.7,19.8,3.5,24.7,30.8
	c-2.2-37.4-21.9-40.9-26.4-41.6c-5-0.8-16.4,1.2-21.6,19.7c-0.4-10.4-9.2-18.6-19.7-18.2c-0.1,0-0.3,0-0.4,0
	c-11.7,0-17.9,14.2-18.5,15.5c1.5,4.4,2.9,11,2.9,11S90.9,252.6,103,252.6z M512.6,248.5c10-1.2,16,5.3,15.6,11.2
	c-0.1,0.8-0.4,1.7-0.5,2.4c2.4-3.4,5.9-21.6-11.4-23.5c-8.8-0.7-20.1,7.4-22.7,24.3C496.6,254.9,504,249.3,512.6,248.5z
	 M346.1,240.6c-0.4,3.1-0.5,6.7-0.7,10.2c6.4-0.1,12.7-1.9,18.3-5.1l1.2-10.5C359.2,238.6,352.8,240.5,346.1,240.6z M322.8,247.1
	c0.1-5.7,0.1-9.2,0.1-9.2c-5.4-0.9-10.8-1.4-16.2-1.3c-2.9,8.8-4.1,18-3.7,27.2c0.6-5.7,1.8-11.3,3.5-16.8
	C311.9,246.2,317.4,246.2,322.8,247.1L322.8,247.1z M349.5,215c0,0-13.4,10.4-26.1,13.7c0,0-0.4,3.9-0.5,9.3
	c8.9-2.7,17.2-6.8,24.8-12.1C348.2,221.1,349.5,215,349.5,215z M404.3,243.4c0.6-3.3,1.3-6.8,2.1-10.4c0,0-21.8,6.9-27,8.9
	c0,0-0.1,3.9-0.5,9.9c0,0.5,0.1,0.8,0.1,1.2v-1C387.1,248.2,395.6,245.3,404.3,243.4z M391.6,224.2c3.8-0.1,6.9,3,7,6.8c0,0,0,0,0,0
	c1.7-2.3,2.5-5.2,2.3-8.1c-0.2-4-3.5-7.1-7.5-7.1c-9.2,0-10.2,12.2-9.2,13.4c0,0.1,0.2,0.2,0.2,0.4
	C385.4,226.3,388.3,224.1,391.6,224.2z M460.9,240.4c8.8-1.1,19.5,6,17.4,19.6L478,262c2.7-5.1,8.6-26.5-11.7-31
	c-10-2.2-31.1,6.7-37.6,40.6l-0.7,4v-0.1C435.3,248,452.3,241.3,460.9,240.4z M278.5,234c7.9-0.7,12.8,4.2,13.5,9.2
	c1.2-8.3-3.7-18.7-13.8-18.4c-8.7,0.4-20.4,5.4-20.2,25.2c0,2.2,0.3,4.5,0.8,6.7C260.1,239.9,270.7,234.6,278.5,234z M185.3,249.7
	c5.5-4,11.7-6.9,18.4-8.5l0,0c0.1-3.4,0.4-7.1,0.7-11c-7.5,1.8-14.6,4.9-21,9.2c-1.2,14.2-0.6,28.4,1.7,42.5l0.1-0.4
	C184.5,270.9,184.5,260.3,185.3,249.7z M238.7,225.1c-9.7,2.8-20.2,12.2-20.2,12.2s0.7,4.1,1.6,10.2c0,0,10.2-8.9,19.8-12
	C239.4,232.1,239,228.6,238.7,225.1z"/>
<path id="Letter_White" class="st3" d="M344,115.7c-0.9,0.4-1.7,0.8-2.5,1.3h-0.4c-14.8,8.3-24.3,26.1-24.3,26.1
	c-1-10.4-9.6-22.3-9.6-22.3l-7.7,0.2c-0.9,7.8-3.6,15.3-7.7,21.9c-5.8-11.9-16.1-21-28.7-25.3c-0.1,0-14.6-5.1-14.6-5.1
	s0.1,0,0.4,0.2l-1.3-0.6c0,0,38.9,28.8,15.8,64.9c0,0,19.5-6.8,27.6-23.5c0,0,5.1,16.2-10.2,35.9c0,0,23.8-12.8,32.9-33.1
	c0.5,9.3-2.3,18.5-7.9,26c40.8-11.1,17.2-53.3,47-70.9L344,115.7z M271.9,168.3c8.6-23-4.6-41-10.9-47.9
	c11.6,4.1,24.4,15.1,28.8,27.5C285.8,156.1,279.6,163.2,271.9,168.3z M291.6,177.5c6.2-10.4,4.1-22.4,2.1-29.1
	c3.4-5.7,8.8-16,10-24.7c0,0,8.9,8.1,10,24.7C302.8,172.2,291.6,177.5,291.6,177.5z M314.1,175.2c3.7-7.7,3.9-19.4,3.3-26.4v-0.1
	c4.5-8,10.3-15.2,17.2-21.3C329.2,142.9,330.4,166.7,314.1,175.2z M519,219.2c-1.3-0.8-2.9-0.6-4,0.4c-1.4,1.4-2.3,3.2-2.7,5.1
	c-2.3-3-5.2-5.4-8.6-7h-0.1c-1.4-0.6-3-1-4.6-1c1.3,2.3,2.2,4.9,2.4,7.5c-0.1,2.2-0.8,4.2-2.2,5.9c3-0.6,5.3-2.9,5.9-5.8v-1.2
	c3,2.3,5.2,5.4,6.3,8.9l5.1,0.8C516.3,232.9,513.6,224.2,519,219.2L519,219.2z M339.9,199.3c-1.4-0.5-3-0.1-3.9,1.1
	c-1.1,1.6-1.7,3.5-1.8,5.4c-2.7-2.6-6-4.5-9.7-5.4h-0.1c-1.5-0.4-3.1-0.4-4.7-0.2c1.7,1.9,3,4.3,3.7,6.8c0.2,2.2-0.2,4.5-1.3,6.4
	c2.8-1.1,4.8-3.7,5-6.8v-1.2c3.3,1.7,5.9,4.4,7.5,7.7h5.1C339.5,213,335.5,205.1,339.9,199.3z M428.3,206.5c-1.2-1.2-18-1.9-18-1.9
	l-0.4,2.9c0.9-0.9,2.1-1.4,3.4-1.3c0.7,0,2.4,0.2,4.1,0.4v0.1c-3.7,3-2.4,11.6-2.4,11.6l6.3,0.2c0,0-4.1-6.2,0-11.4
	c1.6,0.2,2.7,0.4,3.3,0.5c1.3,0.4,2.5,1.2,3.3,2.3C427.8,209.9,429.3,207.7,428.3,206.5L428.3,206.5z M291.1,200.1
	c-1.7-0.5-3.6-0.1-5,1.1c-3.5,3.3-1.9,11.7-1.9,11.7h6.3C290.7,212.7,285.7,205.8,291.1,200.1L291.1,200.1z M247.6,215.3l6.4-0.4
	c0,0-5.4-7.7-0.5-13.8c-1.7-0.4-3.5,0.1-4.8,1.3c-1.2,1.5-1.8,3.4-1.7,5.3l-6.7,0.4c-0.2-1.7-1.3-3.2-2.9-3.9
	c-1.7-0.7-3.7-0.7-5.4,0.1c2,1.2,3.6,3.2,4.4,5.4c0.5,2.2,0.1,4.5-1,6.4c2.5-1,4.3-3.1,5-5.7l6.7-0.4
	C247,212,247.2,213.7,247.6,215.3L247.6,215.3z M153.5,226.5l8.2-1c0,0-6.8-9.2-10.4-11.4c-2.8-1.8-4.4-2.5-5.9-0.1
	c-2.6,4.5-4.8,9.2-6.5,14.2l3.5-0.4c0,0,0.4-1.2,0.8-2.9l9.2-1C152.9,224.7,153.3,225.6,153.5,226.5L153.5,226.5z M144.4,222
	c0.6-1.5,1.4-2.9,2.4-4.1c0.8-1,2.7,1.1,4.4,3.4L144.4,222z M463.2,210.5c-6.2-0.7-11.2,1.6-11.6,4.7c-0.5,3.3,3.9,6.7,10,7.5
	c6.3,0.8,11.4-1.6,11.7-4.7C473.7,214.7,469.5,211.2,463.2,210.5L463.2,210.5z M467.9,217.4c-0.7,2.6-3.3,4.2-5.9,3.7
	c-2.7-0.1-4.7-2.4-4.6-5c0,0,0,0,0-0.1c0.7-2.6,3.3-4.3,5.9-3.7C466,212.5,468,214.7,467.9,217.4L467.9,217.4z M377.5,209.8
	c-0.4-1.3-5.2-2.7-5.2-2.7H383c-0.6,0.7-0.9,1.7-0.8,2.7c0.1,1.3,0.5,3.9,0.5,3.9c-2.5,0.7-5,1-7.6,0.8c-5.9-0.1-11.9-3-11.9-6.8
	c0-3.6,5.1-6.7,11-6.7c3.1-0.3,6.2,1.1,8.1,3.5c-2.4-1-4.9-1.6-7.5-1.7c-3.1-0.3-5.9,1.9-6.4,5c0.4,3.3,3.4,5.6,6.7,5.2
	c0.7-0.1,1.4-0.3,2.1-0.5C377.6,211.7,377.7,210.7,377.5,209.8z M201.9,213.2c2.3,0.4,5,2.2,4,4.2c-1.3,2.9-5.8,4.4-11.4,3.9
	c-2.7,0.1-5.1-1.4-6.3-3.7c1.4,0.8,3,1.4,4.6,1.7c2.4,0.6,4.9,0.3,7.1-0.7c0.7-0.6,0.7-1.3,0-1.8l-7.5-1.3c-3.7-0.5-5.8-3.1-4.2-5.1
	c2.2-2.2,5.4-3.3,8.5-2.9c5.9,0.5,7.5,2.5,7.5,2.5s-8.3-1.2-9.8,0.7c-0.5,0.5,0,1.2,1.1,1.6L201.9,213.2z M96.3,228.3
	c0,0-2.2,5.9-2.7,7.3c-0.6,1.2-0.6,1.6-3.9,0.5c-6.2-2.3-12-11.9-12-11.9l7.4-1.1c0,0,2.4,6.7,7.4,8.8l4.2-11.6
	c0,0,6.3,10.4,8.1,9.4c2.7-1.2,4.2-8.5,4-11.2l3.1-0.4c0.1,5.7-2,11.2-5.8,15.4c-1,1.2-2.7,1.6-4.1,1
	C99.9,232.6,98,230.6,96.3,228.3z M302.2,454v29c9.1-0.6,17.7-4.1,24.6-10C322.4,462.9,313.1,455.7,302.2,454L302.2,454z
	 M281.6,412.4c4.8,1.9,9.9,3,15.1,3.3v-16.1c-9.2,0.6-17.9,4.3-24.8,10.5C275.2,410.3,278.5,411.1,281.6,412.4L281.6,412.4z
	 M320.5,417.2c-5.8,2.3-12,3.7-18.3,4.1v9.7c16,0.5,28.9,4.1,39.2,10.9v-0.7c0.1-9.4-3.1-18.5-8.9-25.9
	C328.4,414.8,324.2,415.4,320.5,417.2L320.5,417.2z M296.7,448v-11.4c-13.7,0.2-26.9,4.5-38.1,12.3c1.2,7,4.3,13.5,8.9,18.9
	C274.4,456.5,285.3,449,296.7,448L296.7,448z M539.6,327c-1.2-23.1-15.8-38.5-26-52.1c-7.4-9.7-3.4-16-1-17.5c3-1.7,8-1.1,8.8,2.5
	c0.5,2.2,0,6.9-3.5,7.5c0,0,7.5,1.2,9.6-5c0.3-0.8,0.5-1.7,0.5-2.5c0.5-5.7-5.6-12.2-15.5-11.1c-8.6,0.7-16.1,6.4-19,14.5
	c-1.5,4.3-2.1,8.8-1.8,13.3c0.6,14.4,14.3,27.6,20.4,35.3c5.8,7.4,12.1,23.1,6.5,35.7c-4.6,10.2-10.6,11-14.3,11.2
	c-3.7,0.2-9.7-3.5-8.5-8.1c1.3-4.6,7.4-5.8,8.3-4.7c0,0-3.9-3.7-7.6-3.5c-5.3,0.2-9.6,4.4-9.9,9.7v2.2c0.7,5.9,5.9,15.5,22.4,14.2
	C527.4,366.8,540.7,346.4,539.6,327z M460.9,240.4c-8.5,1-25.6,7.6-33,35.1c-0.5,2.2-1.1,4.2-1.6,6.7c-2.1,11-2.8,22.2-2.1,33.4
	c1.2,14.4,5,24.2,7.9,28.4c3.6,5,8.5,9,14.2,11.4c8,3,18,2.2,23.8-7.6c1.8-2.9,2.6-6.3,2.2-9.7c-1.1-7.1-8.1-11.4-8.1-11.4
	c5.3,8,2.1,16-7.5,16.8c-11.1,1.2-14.9-25.4-13.8-54.1c1.1-28.5,11.2-37.3,15.4-38.2c4.2-0.8,9.3,1.5,9.6,5.9c0.1,3.7-0.7,6.4-3,7.9
	c-2.4,1.6-6.9,0-6.9,0c0.2,3.9,2.8,7.3,6.5,8.5c2.9,0.8,11.2,0,13.8-11.4l0.4-2.2C480.4,246.4,469.9,239.4,460.9,240.4z
	 M398.6,230.9c-0.1-3.8-3.2-6.9-7-6.9c-3.3,0-6.2,2.1-7,5.3c-0.2,0.6-0.3,1.2-0.4,1.8c0,4,3.3,7.2,7.3,7.1c3.9,0,7.1-3.2,7.1-7.1
	V230.9z M413.4,336.2c0,0-1.5,6.4-6.4,5.9c-5.1-0.6-7.5-5.2-9.1-14.6c-2.1-11.7-3.3-35.4,6.5-83.8c-8.8,1.7-17.3,4.5-25.3,8.5v1
	c-0.4,7.4-2.4,56.8-1.9,71.6c0,0.7,0.1,1.3,0.1,1.9c0.8,9.2,4.1,28.4,20.4,27.8C409.8,353.9,413.5,341.4,413.4,336.2z M346.1,240.6
	c0.2-5,0.8-9.9,1.7-14.8c-7.5,5.4-15.9,9.5-24.8,12.1c0,0,0,3.5-0.1,9.3c-5.4-1-10.8-1-16.2-0.1c-1.8,5.4-2.9,11.1-3.4,16.8
	c6-3.1,12.7-4.6,19.5-4.4c-0.4,23.9-1.7,57-1.2,64.2v0.5c0.8,9.2,3.1,25.6,19.5,25.3c12.1-0.5,16-12.9,15.6-18.3
	c0,0-1.3,6.3-6.4,5.8c-5.1-0.4-7-2.1-7.9-13.9c-0.5-7.5,1.2-37.3,2.7-64.1c14.3-3.4,18.7-13.4,18.7-13.4c-5.5,3.3-11.8,5.1-18.3,5.1
	C345.7,247.3,345.9,243.8,346.1,240.6z M278.7,259.6c-6.3-9.8-2.5-15.8-0.2-17.1c2.7-1.6,7.1-0.8,7.9,2.7c0.4,2.1-0.1,6.7-3.5,7.1
	c3.9,1.1,8-1.3,9.1-5.2c0.2-0.6,0.2-1.2,0.3-1.8c0.1-0.8,0.1-1.6,0-2.4c-0.8-5-5.8-9.7-13.7-9.2c-7.9,0.7-18.3,5.8-19.6,22.5
	c-0.1,1.2-0.1,2.4-0.1,3.7c0.1,14.2,12,27.3,17.3,35.2c5,7.4,10.4,23,4.8,35.1c-4.5,9.7-10,10.4-13.3,10.4c-3.4,0.1-8.7-3.7-7.4-8.2
	c1.2-4.6,6.8-5.4,7.5-4.2c-1.7-2-4.1-3.3-6.7-3.9c-5.1,0.1-9.2,4.1-9.4,9.2v1.3c0.1,5.8,4.4,16,19.8,15.2
	c15.2-0.7,27.1-16.6,28.8-33.9c0.1-1.7,0.4-3.4,0.4-5.2C300.2,288.9,287.4,273.2,278.7,259.6z M168.5,281.9
	c-4.8-27.5-20.6-30.2-24.6-30.8c-4.7-0.8-16.1,1.1-21.4,19.6c0,0-0.5-18-19.6-18c-12.2,0-18.1,15.7-18.1,15.7s-1.3-6.5-2.8-11
	c-0.5-1.5-1.2-2.9-1.5-3.5c-7.1,3.4-13.9,7.5-20.3,12.2c0,0,8.1,8.3,5.9,24.8c-1.6,10.2-2.1,20.4-1.7,30.7
	c1.2,18.3,7.9,36.6,28.5,50.6c-20.7-39.7-3.3-100.3,4.7-101.5c6.8-1.1,15,5.9,11.9,89.1c0,0,8.9,6.9,19.1,6c0,0,1.7-46.6,0.8-65.8
	c-0.6-11.7-2.9-30.6,9.9-31c10.8-0.5,16.7,42.3,3.9,102c0,0,19-17.9,25-51c1.1-6.2,1.7-12.5,1.7-18.7
	C170.1,294.7,169.6,288.2,168.5,281.9z M239.7,235.7c-9.4,3-19.7,12-19.7,12s6.5,35-0.2,61.2c0,0-22.3,16.2-16.1-66.9v-0.5
	c-6.6,1.6-12.8,4.5-18.4,8.5c-0.8,10.6-0.8,21.3-0.1,31.9c1.8,22.6,8.5,48.4,29.8,46c0,0-4.7,23.3-17.1,23.8c-6,0.2-7.4-6.4-6.8-9.4
	c0.5-2.5,2.1-4.7,4.5-5.8c-1.6-0.8-3.5-1.1-5.3-0.8c-4.6,0.6-8.2,4.2-8.7,8.8c-0.2,2.8,0.2,5.5,1.2,8.1c3.9,10.6,23.1,10.5,34,2.7
	c11.9-8.5,23.9-30.5,25.9-67.7C243.6,270.1,242.7,252.7,239.7,235.7z"/>
</svg>
