<svg version="1.1" id="Layer_1" xmlns="http://www.w3.org/2000/svg" xmlns:xlink="http://www.w3.org/1999/xlink" x="0px" y="0px"
	 viewBox="0 0 600 600" style="enable-background:new 0 0 600 600;" xml:space="preserve">
<style type="text/css">
	.st0{fill:#FFFFFF;}
</style>
<path id="White" class="st0" d="M600,300c0,165.7-134.3,300-300,300S0,465.7,0,300S134.3,0,300,0s300,134.1,300,299.8V300z"/>
<path id="Red" d="M218.9,218.3c1.6-4.8-16.6-2.6-16.6-2.6c21.6-20,46.6-1.6,63,6.4c10,4.8,21.1,7.3,32.4,6.8
	c-2.9,35.3-31.8,43.4-57.2,32.7C215.7,251,217.3,223.1,218.9,218.3z M557.1,190.7c61.3,141.9-4.2,306.3-145.7,367.4
	C269.5,619.2,104.9,553.9,43.8,412c139.8-61.1,164.9-61.1,164.9-61.1c-30.1,14.5-50.5,46.3-50.5,46.3
	c42.4-22.7,105.1-45.3,151.7-48.8c46.6-3.2,65,6.8,70.8,12.3c5.8,5.5,1.6,17.4,1.6,17.4c11.8-7.1,31.1-28.2,31.1-53.4
	c0-25.1-9.8-40.8-30.8-55.3s-42.1-31.4-55.9-46.6c-13.9-14.7-27.1-20.8-76.6-36.9c-17.1-5.5-108-32.1-135.4-40.1
	c-17.2-5.2-31.4-9-38.9-11.3C128.5,63.5,211.7,21.8,300,21.9C411.7,21.6,512.8,88,557.1,190.7z M491.8,197.8
	C434.3,92,302.1,53,196.3,110.6c21,5,74.3,19.2,112.5,33.7c62.7,23.4,53.7,39.5,72.7,51.4c17.7,11,87.9,46.9,87.9,121.9
	c0,74.6-67.2,130.3-159.1,143.1c0,0,17.4-26.9,17.4-38.5c0-11.3-70.4-26.4-183.3,31.8c40.8,42.1,96.9,65.8,155.6,65.6
	c36.4,0.2,72.5-9,104.6-26.4C510.4,435.7,549.4,303.4,491.8,197.8z"/>
</svg>
