<svg version="1.1" id="Layer_1" xmlns="http://www.w3.org/2000/svg" xmlns:xlink="http://www.w3.org/1999/xlink" x="0px" y="0px"
	 viewBox="0 0 600 600" style="enable-background:new 0 0 600 600;" xml:space="preserve">
<style type="text/css">
	.st0{fill:#FFFFFF;}
</style>
<path id="Black" d="M300,0C134.3,0,0,134.3,0,300s134.3,300,300,300s300-134.3,300-300l0,0l0,0C599.8,134.4,465.6,0.2,300,0L300,0z"
	/>
<path id="White" class="st0" d="M313.3,500c8.5,0,34.7-0.1,56.5-18.6c19.3-17.5,21.3-38.1,21.9-61.4l-0.1-65.4
	c0-20.4,0-45.5-21.4-63.2c-4.8-4-10.3-7.2-16.1-9.5c9.7-6.5,16.9-16.1,20.4-27.3c2.5-9.1,3.5-18.5,3.1-28l-0.2-58.2
	c-0.5-16.1-2.3-34.5-15.3-49.3c-11.5-12.7-28.8-19.2-50.7-19.2H311l-78.9,0.2c-2.4,0-4.7,1-6.4,2.7c-1.7,1.6-2.6,3.9-2.6,6.2
	l0.7,382.2c0,3.1,1.6,6,4.3,7.6c1.5,0.9,3.2,1.4,5,1.4L313.3,500L313.3,500z M343.7,330.9c2.1,7.5,3.1,15.3,2.8,23.1l0.1,54.2
	c0,24.7-1.5,36.3-11,43.6c-5.6,4-12.5,6.4-30.2,7c0,0-30.3,0.1-32.6,0.1c-2.7,0-3.8-1.7-3.8-4.2c0-22.3-0.3-145.1-0.3-146.1
	c-0.2-1.3,0.7-2.5,2-2.7c0.2,0,0.4,0,0.6,0c10.6-0.2,21.3,0.1,31.9,1.1c9.2,1,19.1,2.7,27,7.7C336.6,318.2,341.3,324,343.7,330.9
	L343.7,330.9z M270.7,140.7h21.8c28.3,0,40.5,4.2,40.5,33.2v49c-0.4,11.8-0.6,31.7-23.9,38.7c-6.5,1.8-9.6,2.4-23.8,2.9h-14
	c-0.1,0-0.2,0-0.3,0c-2.2,0-2.8-1.2-2.8-2.9c0-1.1-0.1-117.7-0.1-117.7C268.1,142,268.8,140.9,270.7,140.7L270.7,140.7z
	 M571.6,226.8c5.2,19.4,8.4,39.2,9.3,59.3c-8.3,16.4-24.6,29.9-36.4,36.6c-1-7.7-2.4-16.5-4.2-24.6c-1.8-8.3-3.8-16.4-6-24.4
	c9.4-5.7,17.6-13.2,24.2-22C564.2,244.1,568.6,235.7,571.6,226.8L571.6,226.8z M300,18.7c104.3,0.1,199.9,57.8,248.7,149.9
	c11.8,22,10.5,48.7-3.4,69.5c-0.5,0.8-1.1,1.5-1.7,2.3c-4.2,5.5-9.2,10.4-14.8,14.4c-15.2-48.1-36.8-90.1-64.5-125.1
	c-28.3-35.9-64-65.3-104.7-86.1c-20.6-10.5-42.3-18.9-64.7-24.8C296.6,18.8,298.2,18.7,300,18.7L300,18.7z M117.2,513.6
	c-60.7-51.8-96.5-127-98.4-206.7c17.1,17.8,36.3,33.3,57.3,46.3c39.4,24.1,83.1,40.1,128.7,47.2v-19c-41.7-6.8-81.8-21.6-117.9-43.6
	c-38.8-24-60.5-49.9-67.4-58.8c3.3-44.1,17-86.9,40-124.7c11.9-4.5,67.1-21.5,136.8,16.6c2.7,1.5,5.4,3,8.1,4.5V154
	c-54.7-29.6-101.3-28.6-128.8-23.4c27.7-36.7,64-66,105.6-85.6c31.2-14.6,66.5-18.3,100-10.4c24.2,5.7,47.7,14.3,69.9,25.6
	c38.3,19.6,71.9,47.2,98.5,81c27,34.1,47.9,75.3,62.4,122.8c-9.9,4-20.3,6.7-30.9,8.1c-26.6,3.7-56.8-2.9-88-14.8
	c-1.4,6.1-3.9,11.9-7.2,17.2c27.5,10.5,54.6,17.3,80,17.3c5.9,0,11.9-0.4,17.7-1.2c11.5-1.5,22.8-4.4,33.6-8.5
	c1.7,6.5,3.3,13.1,4.8,19.8c2.2,9.8,3.8,19.7,4.9,29.7c-27.4,14.2-66.6,28.4-116.7,39.2v19c45.6-9.6,86.3-22.6,118.1-37.9
	c0.5,16.4-0.7,32.8-3.5,48.9c-16.8,10.6-32.7,22.7-47.4,36.2c-44.6,39.4-87.8,74-165.8,99c-39.2,12.6-78.7,14-108,12.3
	C171.8,546.6,141.4,534.3,117.2,513.6L117.2,513.6z M505,465.2c-3.1,7-6.4,13.4-9.7,19.3c-16.4,29.6-41.5,53.4-71.9,68.2
	c-65.3,31.9-140.5,37.3-209.7,15c3.1,0.1,6.2,0.1,9.5,0.1c31.9,0.2,63.7-4.5,94.2-13.9c81.3-26,127.9-63.5,172.5-102.8
	c11.3-10,20.9-17.7,29-23.6C515.2,440.5,510.5,453.1,505,465.2L505,465.2z M522.5,471.8c8.4-18.7,14.7-38.3,18.8-58.4
	c11.3-5.6,16.3-5.2,18-4.7C549.9,431.2,537.5,452.4,522.5,471.8L522.5,471.8z M567,388.5c-2.2-0.6-4.5-0.8-6.7-0.5
	c-5.2,0.4-10.4,1.5-15.3,3.3c2-16.2,2.5-32.5,1.5-48.8c5.8-3.3,11.5-7,16.9-10.9c6.2-4.4,11.9-9.3,17.3-14.6
	C579.3,341.3,574.6,365.4,567,388.5L567,388.5z"/>
</svg>
