<svg version="1.1" id="Layer_1" xmlns="http://www.w3.org/2000/svg" xmlns:xlink="http://www.w3.org/1999/xlink" x="0px" y="0px"
	 viewBox="0 0 600 600" style="enable-background:new 0 0 600 600;" xml:space="preserve">
<style type="text/css">
	.st0{fill:#AAAAAA;}
	.st1{fill:#555555;}
	.st2{fill:#FFFFFF;}
</style>
<path id="Outline" class="st0" d="M588.5,101.5c-13.6,35.7-31.4,73.1-40.3,88.5c-15,25.7-45,41.1-62.4,47.1c0,0-8.6,20.7-17.5,32
	H504v48.5l34.3,16.3L504.1,351v41.1L471,412.5c0,0-26.4-3.2-39.3-4.7l-104.8,60.6c-20.7,94.9-26,122.3-26,122.3s-5-26-26-122.3
	L170,407.8c-12.8,1.5-39.3,4.7-39.3,4.7l-33.2-20.4V351l-34.3-17l34.3-16.3v-48.8h35.7c-8.7-10.8-17.6-32.3-17.6-32.3
	c-10.4-3.6-20.7-8.2-29.6-13.9c-14.2-8.9-25.7-20.7-33.2-32.8c-13.3-25.4-30.2-63.1-39.3-88.5C7.4,86,0,62.5,0,62.5
	s19.6,9.2,25.4,12.1C16.2,46.5,7.9,9.3,7.9,9.3S142,97.8,236.1,173l1.5-1.1v-5c0-1.1,0-2.9,0.6-5.3c1.1-3.2,3.6-6.8,8.9-10.4
	c-6.8-5.3-19.6-13.6-20.7-15c-8.9-7.9-10.7-16.8-10-21l1.5-10l50.9,37.8c27.8-7.9,47.4-4.2,62.1,0l50.9-37.8l1.5,10
	c0.6,4.7-0.6,13.3-10,21c-1.1,1.1-13.6,9.7-20.7,15c5.7,3.6,7.9,7.1,8.9,10.4c0.6,2.4,0.6,4.2,0.6,5.3v5l1.5,1.1
	C460.1,96,592.1,9.5,592.1,9.5s-6.8,30.7-17.5,65.3c5.3-2.4,25.4-12.1,25.4-12.1C596.4,81.4,588.5,101.5,588.5,101.5L588.5,101.5z"
	/>
<path id="Dark_Body" d="M146.7,274.7h-42.9v46.4l-25.7,12.5l25.7,13.6v41.1l28.5,17.5c10.4-1.5,23.6-3.2,39.3-4.7l109.5,63.1
	l20.1,91.7c0-0.3,20.4-91.7,20.4-91.7L431,401c15.4,1.8,28.9,3.2,39.3,4.7l28.1-17.5v-41.1l25.7-13.3L498.4,321v-46.4h-42.9
	c0,0,6.8-6.5,15-20.7c3.6-6,6.8-13.6,10.7-22.2c31.1-9.2,53.9-29.3,63.9-48.5c26.7-48.5,46.7-108.4,46.7-108.4s-11.5,5.7-25.4,12.5
	c11-34.3,18.1-63.6,18.1-63.6S461.9,105.2,366,181.5l-8.2-5c0-0.6,0.3-7.4,0.3-8.2c0,0,1.1-7.9-13.3-12.8c-1.1-0.3-1.8-0.6-2.4-0.6
	c6.8-5.3,17.8-13.3,25.4-18.6c12.5-8.6,11-18.1,11-18.1l-45.6,34c-34.9-11.5-64.2,0-64.2,0l-45.6-34c0,0-1.5,9.2,11,18.1
	c7.9,5.3,18.9,13.3,25.7,18.6c-0.6,0.3-1.8,0.6-2.4,0.6c-14.2,5-13.3,12.8-13.3,12.8c0,0.6,0.3,7.4,0.3,8.2l-8.2,4.2
	C140.5,104.6,17.9,23.4,17.9,23.4S24.7,52.6,36,86.9c-15-7.1-25.4-12.5-25.4-12.5s19.9,60,46.4,108.4c9.7,19.6,32.8,39.3,63.9,48.5
	c0,0,5.3,12.1,9.7,20.7C136.3,263.1,146.7,274.7,146.7,274.7L146.7,274.7z"/>
<path id="Teal" class="st1" d="M560.6,57.3c-88.3,54-167.1,114.7-208.2,147.8c-0.3,1.5-1.1,2.9-1.5,3.9
	c43.2-28.1,118.1-77,202.2-131.6C553.1,77.4,553.1,79.2,560.6,57.3L560.6,57.3z M41.1,57.5c7.1,21.3,7.4,20.1,7.4,20.1
	C132.6,131.7,208,181,251.2,209.2c-0.8-1.1-1.1-2.6-1.5-4C209.1,172,130.2,111.3,41.1,57.5z M302.2,156.8c-7,0-14.3,0.8-21.6,2.5
	c7.6,10.7,6.5,25.7,6.5,25.7c-2.9-13.6-11.8-19.9-17.1-22.8c-2.1,0.6-4.5,1.3-7.5,2.4c5.7,2.3,12.5,7.9,17.1,18.6
	c2.3,5.3,3.6,25.7,15,30.7c-9.5,8.9-21.4,6.5-30.2-1.5c11,23.9,29.6,33.2,36.7,36.1c6.3-4.9,9.5-19.6,6.5-34.6
	c11.5-5,12.9-25.4,15-30.7c4.7-11.2,11.5-16.2,17.1-18.6c-2.4-0.6-5-1.8-7.4-2.4c-5.3,2.8-14.2,9.5-17.1,22.8c0,0-1-15,6.5-25.7
	C315.8,157.8,309.2,156.9,302.2,156.8L302.2,156.8z M463.4,234.3l-8.3,2.4c-27.8,7.4-80.2,14.5-80.2,14.5
	c25.2,0.3,47.1,2.4,59.2,3.9c2.6-3.2,5.7-6.8,6.8-10c0,0-1.1,9.5-3.2,15.7c-2.4,7.9-5.8,14.5-7,16
	C432.8,275.2,452.2,260.2,463.4,234.3z M430.6,276.8c-0.1,0.1-0.4,0.3-0.4,0.3C430.3,277.1,430.4,277,430.6,276.8z M138.5,234.4
	c12.1,27.8,33.2,42.9,33.2,42.9s-4.2-7.5-7.4-16.3c-2.1-6-3.2-15.7-3.2-15.7c1.1,2.9,4.4,6.8,6.8,10c12.1-1.5,33.8-3.2,59.2-3.9
	c0,0-52.7-7.5-80.2-14.6C146.7,236.8,138.5,234.4,138.5,234.4z M182,376.7c-3.9,0.3-7.4,0.6-11,1.1l74.6,43.2
	c-4.1-4.4-7.3-8.6-10-13.3C235.5,407.8,182,376.7,182,376.7z M420.2,376.7l-53.5,31c-2.4,4.7-5.7,8.9-10,13.3l74.6-43.2
	C427.6,377.4,424.1,377.1,420.2,376.7L420.2,376.7z M296.5,379.3c-15,0.3-26.4,2.1-34.3,4.2c1.8,2.1,3.9,3.9,5.7,5.7
	c8.9,8.6,16.8,12.5,16.8,24.3c0,3.6-1.8,6.8-4.2,9.2c-1.5,2.1-4.4,3.6-6.8,5c-0.6,0.5-1.8,0.8-2.4,1.1c10,6.2,17.1,8.6,20,9.7
	c0,0-5.6,1-12.4,0.3c2.3,3.6,4.4,6.8,6.5,10.7c1.8-0.6,7.4-3.9,15.4-3.9c8.3,0,13.6,3.2,14.7,3.9c1.8-3.9,4.4-7.1,6.5-10.7
	c-6.5,1.1-12.4-0.3-12.4-0.3c2.9-1.1,10.3-3.2,20-9.7c-0.6-0.5-1.8-0.8-2.4-1.1c-2.1-1.1-4.7-2.9-6.8-5c-2.4-2.4-4.2-5.3-4.2-9.2
	c0-11.5,7.9-15.7,16.8-24.3c1.8-1.8,3.6-3.9,5.7-5.7c-8.2-2.1-19.3-3.9-34.3-4.2l-3.9,49.6H300L296.5,379.3L296.5,379.3z
	 M257.7,384.3c-7.5,2.9-11.8,5.7-14.2,7.4c5.3,5,15.4,11.5,33.2,15.4c-1.9-5.3-7.6-11.1-13.6-17.5L257.7,384.3z M344.3,384.7
	L339,390c-5.8,6-11.5,11.8-13.6,17.5c18.1-3.9,27.8-10.4,33.2-15.4C356.5,390,351.8,387.1,344.3,384.7L344.3,384.7z M243.7,398.4
	c5,9.7,12.1,18.6,21,24.3c0.3,0.2,10.4-3.1,12.5-7.4C253.6,409.9,243.7,398.4,243.7,398.4L243.7,398.4z M358.6,398.6
	c0,0-9.7,11.8-33.5,16.8c2.1,4.2,12.5,7.4,12.5,7.4C346.4,416.4,353.9,408.3,358.6,398.6L358.6,398.6z"/>
<path id="White" class="st2" d="M553.9,77.2c-84.1,54.5-159.2,103.5-202.2,131.6c-1.8,4.7-3.6,8.6-5.7,12.5L515.9,129l-132.3,95.6
	l6.5-1.1l69.9-6.8c0,0,47.4-4.7,73.9-39.9c12.4-19.2,33.5-74.6,33.5-74.6l-31.2,15.7C546.2,94.2,553.9,77.2,553.9,77.2L553.9,77.2z
	 M48.5,77.5c0,0,7.4,16.7,17.8,40.3l-30.6-15.4c0,0,21,55.3,33.3,74.6c26.5,35.3,73.9,39.9,73.9,39.9l69.9,6.8l6.5,1.1L87,129.3
	l169.3,92.3c-2.1-3.9-3.9-7.8-5.7-12.5C207.7,181,132.6,132,48.5,77.5z M275,197.1c0.2,0-11.3,19.2,10,18.1
	C285,215.2,276.4,209.5,275,197.1z M327.8,197.1c-1.5,12.5-10,18.1-10,18.1C338.8,216.3,327.8,197.1,327.8,197.1z M186.2,265.1v18.6
	l2.6,2.4h12.8v-6.8h-5v2.1h-4.9v-11.3h4.9v1.5h5v-6.5L186.2,265.1L186.2,265.1z M213.3,265.1v21h5v-6.8h6v6.8h5v-21h-5v9.5h-6v-9.5
	H213.3z M240.8,265.1v20.7h5.3V279h6.1v6.8h4.9v-18.3l-2.4-2.4C254.7,265.1,240.8,265.1,240.8,265.1z M257.2,285.9v0.3l0.2-0.3
	H257.2z M298.6,265.1v21h12.9v-4.7h-7.6v-16.3H298.6z M321.8,265.1v18.6l2.4,2.4h13.9v-18.6l-2.4-2.4H321.8z M349.7,265.1v5h4.7v16
	h5.7v-16l4.2-0.3v-4.7H349.7z M374.9,265.1v5h4.7v16h5.7v-16l3.9-0.3v-4.7H374.9z M401.2,265.1v21h15.4v-4.7h-10.4v-3.2h10.4v-4.9
	h-10.4v-3.2h10.4v-5L401.2,265.1L401.2,265.1z M269.3,265.6v20.7h5.3V279h3.9l3.2,7.1h5.3l-3.4-7.1h2.1v-11l-2.4-2.4H269.3z
	 M246.2,269.7h6.1v5h-6.1V269.7z M274.6,269.8h6.2v4.2h-6.2V269.8z M326.9,270h6v11.5h-6V270z M435.2,285.9l5.7,6.5v34l29.6,12.8
	V358c0,0-6.8-0.6-15.4-2.1v-6l-14.2-1.8v19.3c15.7,1.8,30.2,3.9,43.8,6.5c-0.3-10.7-0.3-26.4-0.3-34.1c4.7-2.1,8.9-4.2,13.3-6.4
	c-14.2-6.8-28.5-12.5-43.2-18.1V299h15.4v6h14.5v-18.9h-49.2V285.9z M116.8,286.2v42.1c0,0-11.8,5.6-11.8,6l11.8,6.1v34.3
	c4.7-0.6,9.2-1.8,14.2-2.4v-32.8l16.3-6.8v36.7c4.7-0.6,9.2-1.5,14.2-1.8v-81.3h-14.2v29.3l-16.3,6.8v-36.1
	C131,286.2,116.8,286.2,116.8,286.2z M222.9,298.3l5.7,6.8v56.3c5-0.3,9.2-0.3,14.2-0.6V339h-0.2c3.6,0,6.8-0.3,10.7-0.3
	c2.9,6.8,5.3,14.5,7.9,21.4c5,0,9.2-0.3,14.2-0.3c-2.9-6.8-5.3-14.5-7.9-21.4h5.7v-33.5l-6.5-6.5L222.9,298.3L222.9,298.3z
	 M167.1,298.6l5.3,6.5v53.5l5.7,6.8c12.5-1.5,26-2.4,39.6-3.2v-56.8l-6.8-6.8H167.1z M392,298.6v13.3h12.4v51.8
	c5.3,0.3,10.3,0.6,15.7,1.5V312h12.4v-13.3L392,298.6L392,298.6z M278.5,298.8l5.6,6.8v54.5h14.6c-0.2-0.5-0.2-48.2-0.2-48.2h16.3
	v47.9c5,0,10,0,15,0.3v-54.5l-6.8-6.8L278.5,298.8L278.5,298.8z M335.6,299.1l5.3,6.8v55c14.6,0.3,29.3,1.1,43.2,2.1v-14.5h-0.3
	v-0.2c-9.2-0.3-18.6-1.1-27.8-1.5v-10c9.2,0.3,18.6,0.6,27.8,1.1v-14.2c-9.2-0.3-18.6-0.3-27.8-0.6v-10.7h27.8v-13.3L335.6,299.1
	L335.6,299.1z M186.6,311.9H203v37c-5.7,0.3-10.7,0.6-16.3,1.1L186.6,311.9L186.6,311.9z M242.6,311.9h16.3v12.8
	c-5.6,0-10.7,0-16.3,0.3L242.6,311.9L242.6,311.9z M300.8,460.2c-6.8,0-8.6,1.8-10.7,3.2l11,44.1l10.4-43.8
	C310,462,307.6,460.2,300.8,460.2z"/>
</svg>
