<svg version="1.1" id="Layer_1" xmlns="http://www.w3.org/2000/svg" xmlns:xlink="http://www.w3.org/1999/xlink" x="0px" y="0px"
	 viewBox="0 0 600 600" style="enable-background:new 0 0 600 600;" xml:space="preserve">
<style type="text/css">
	.st0{fill:#AAAAAA;}
	.st1{fill:#FFFFFF;}
</style>
<path id="Outline" d="M599.8,143.8c-2.4-41.8-21.1-79.5-32.1-101.9l-1.4-2.4l-4.8-9.7l1,10.7c1,14.9,4.5,66-10.7,95.4
	c-19,39-74.6,35.2-93,34.2h-1c-30.1-2.1-127.9-5.5-157.9-5.5c-39.4,0.3-82.9,3.5-118.2,6.2c-17.3,1.4-32.1,2.4-42.2,2.8
	c-1,0-2.1,0.3-3.8,0.3c-49.1,4.5-80.2-10-92.3-43.2c-7.3-20.4-7.3-60.8-7.3-80.2V36.7l-3.8,6.9C14.7,75,3.8,109.7,0.3,145.5
	c-3.5,62.2,29,84.7,53.6,95.7c25.9,12.1,52.2,13.8,60.8,14.5h0.3c1.9,0.3,3.9,0.4,5.9,0.3c2.9-0.1,5.8,0.1,8.6,0.7
	c-4.8,1-11.1,2.1-16.2,2.8c-5.9,1.4-11.4,2.1-14.2,2.8c-5.9,1.4-30.8,6.9-43.9,11.7c-11.1,3.8-23.5,9.7-23.8,9.7l-2.1,1l1.7,2.1
	c0,0,4.1,5.5,8.3,10c16.9,15.2,39.5,22.6,62.2,20.4c23.2-2.8,35.9-8.6,40.8-11.1c2.5,8.8,5.5,17.5,9,25.9
	c10.4,25.9,34.6,76,43.5,93.3c7.3,14.2,14.5,26.6,19.4,34.9l1.7,3.1c-1.5,4.5-4.4,8.4-8.3,11.1c-0.7,0.7-1,1.4-1.7,1.7l-0.3,0.7v1
	c-0.3,4.5-1.4,48.4,28,80.2l0.3,0.3h0.3c14.9,5.9,33.9,11.7,65,11.7c31.4,0,58.1-7.6,67.4-12.1l0.3-0.3l0.3-0.3
	c20.4-24.2,30.1-61.2,30.1-74.3v-0.7l-0.7-0.7l-1.4-1.4c-4.8-4.3-8.2-10-9.7-16.2c2.8-4.1,7.6-14.5,11.7-22.8
	c1.5-3.7,3.2-7.3,5.2-10.7c8.6-17.3,33.9-71.9,44.2-97.4c6.2-16.6,9.7-24.5,11.4-28c4.5,2.4,16.6,7.9,39.4,10.4
	c29.4,2.8,57.4-16.6,65.3-27.6c1.4-1.7,3.5-4.1,3.8-4.5l1.7-2.1l-2.4-1c-0.3,0-1-0.3-5.9-2.1l-16.2-5.2l-16.2-5.5
	c-4.5-1.4-24.5-5.9-38.7-9l-11.1-2.4l3.5-0.7C515.1,248.2,605,232.6,599.8,143.8z"/>
<path id="Red" class="st0" d="M32.7,54c-1,23.2-0.7,48.4,4.5,70.5c-4.7-5-9.7-9.7-14.9-14.2c-4.8,5.2-9,10.7-13.8,15.5
	C13.5,101,21.6,76.8,32.7,54z M590.8,115.5l1.4,6.2l-12.1-8.6c-5.5,2.4-10.7,5.9-15.9,8.3c3.8-22.7,4.9-45.8,3.5-68.8
	C578.4,72.3,584.2,93.7,590.8,115.5z M300.5,334.6c12.4,19.4,35.6,24.9,57,19.4c7.9-1.8,15.5-4.4,22.8-7.9
	c-7.4,21.1-11.1,43.3-10.7,65.7c0.1,19.4,3.2,38.6,9.3,57c-3.1-0.7-5.9-3.1-9.3-4.5c-42.5-21.4-102.3-20.7-144.1,1.4
	c2.1-6.6,4.1-14.2,5.9-21.1c6.2-32.1,1.7-65.7-9.3-95c22.5,9.3,55.3,11.4,73.6-9.3C297.1,338.1,298.8,336.2,300.5,334.6z
	 M205.9,350.5c-1,9-4.1,19.4-13.8,22.8c-7.9,2.1-14.9-2.4-20-7.9c-2.4-2.6-4.1-5.8-4.8-9.3c12.1,7.9,28,1.7,38.4-5.9L205.9,350.5z
	 M433.6,351.5c-2.8,8.3-10,16.6-18.3,18.3c-6.4,1-12.7-2-15.9-7.6c-2.2-3.1-3.5-6.6-3.8-10.4C406.3,360.5,423.2,358.4,433.6,351.5z
	 M410.1,375c4.6,0.5,9.2-0.1,13.5-1.7c-12.1,30.1-26.6,59.1-41.5,88.1c-5.2-14.5-3.8-30.1-3.1-46.3c2.3-18.9,6.5-37.5,12.4-55.6
	C395.6,366.3,402.1,373.6,410.1,375z M221.1,461v0.3c-18.3-27.6-32.1-57-45.3-86.4c5.9,3.1,15.9,5.2,22.1,1
	c5.6-4.4,9.6-10.4,11.4-17.3C224.2,388.5,227.6,427.2,221.1,461z M391.4,484.5c-2.4,25.3-12.4,49.3-28.7,68.8
	c-37.7,14.9-88.5,16.2-126.1,0.3c-18.7-20-25.6-46-26.6-73.6c40.1-29,102.6-35.6,148.6-14.9C370,470.7,381.4,476.2,391.4,484.5z
	 M546.6,276.5c-34.1-12.1-69.9-18.8-106.1-19.7c-3.1-38.4-7.6-62.2-15.2-84c-17.6-1-95.7-4.1-126.1-4.1c-30.1,0-107.1,4.8-124.4,5.9
	c-9.8,27.1-16.2,55.3-19,84c-38.4,3-76.3,11-112.6,23.8c-4.8,1.7-6.9,3.5-6.9,3.1c13.2,16.8,33.2,26.8,54.6,27.3
	c10.4,0.3,30.1-1.7,42.5-7.3c3.5-1.4,10.4-4.5,10.4-4.5c1.3,2.3,2.5,4.7,3.5,7.3c3.5,9.7,7.9,23.8,11.1,29.7
	c4.5,9.3,11.7,16.2,23.5,16.6c7.8-0.4,14.9-4.2,19.7-10.4c-30.4-1.7-43.2-18-45.3-42.5c-7.3-1-9.3-1.7-10-5.9
	c-0.9-4.4,0.2-9,3.1-12.4c3.5-4.8,9.3-9.3,23.8-4.8c8.3,3.2,15.9,7.9,22.5,13.8c6.2,5.9,24.5,24.9,35.6,31.1
	c11.7,6.9,34.2,13.5,48.7-1c9.2-8.7,15.3-20.3,17.3-32.8c-22.9-0.6-45.7-2.6-68.4-5.9c-6.2-1-3.5-6.9,1.4-5.5c0,0,39.7,5.2,68.1,5.5
	c0-3.5,0-9,0.3-15.5c-23.9-0.5-47.7-2.9-71.2-7.3c-5.2-1.4-4.1-7.3,0.7-5.9c23.3,3.8,46.9,6.1,70.5,6.9c0-4.8,0.3-12.1,0.3-18.7
	c-23.4-0.3-46.7-2.4-69.8-6.2c-5.9-1-4.5-6.2,0-5.5c23.1,3.2,46.4,5,69.8,5.5v-15.5c0-5.9,5.2-6.2,5.2-0.3v15.5
	c22-0.5,43.9-2.6,65.7-6.2c6.9-1.4,6.2,4.5,3.1,4.8c-22.7,4.4-45.7,7-68.8,7.9V262c21.1-0.7,46-1.4,67-6.2c7.9-1.7,8.6,4.5,2.1,5.5
	c-22.7,3.9-45.7,6.2-68.8,6.9c0,5.2,0,11.7,0.3,15.5c23.9-0.7,47.8-2.8,71.5-6.2c5.5-1,6.6,4.8,0.7,5.9c-5.9,0.7-45.6,5.9-71.2,6.6
	c2.8,8.6,3.1,21.1,15.5,31.8c11.7,10.4,32.1,9.3,46.3,1c11.1-6.6,28.7-25.6,34.9-31.4c5.2-4.5,17.6-15.9,34.2-15.5
	c16.2,0.3,16.6,8.6,17.6,11.1c0.7,2.8,1.4,7.3-2.4,9.7c-2.8,1.7-5.5,1-8.3,2.4c-2.1,13.5-6.2,28.7-16.9,36.6
	c-11.4,8.6-29,9.7-29,9.7s2.4,2.8,3.1,3.5c4.6,3.3,10.3,4.8,15.9,4.1c7.3-1.2,14.1-4.8,19.4-10c5.5-7.3,10.7-22.1,14.5-31.8
	c1.4-3.5,4.8-10,5.9-12.8c3.5,1.4,4.8,2.4,11.1,4.8c12.7,4.8,26.2,7.1,39.7,6.9c16.9-0.3,36.3-10.7,47.7-21.4
	c1.7-1.7,5.9-6.6,5.9-6.6S549.7,277.5,546.6,276.5z"/>
<path id="Black_1_" d="M364.5,488.7c3.1,5.9,0.7,12.4-2.8,17.6c-6.3,7.8-16.6,11.2-26.3,8.6c-6-1.9-11.1-5.8-14.5-11.1
	c-1.4,4.8,2.1,8.3,1.7,12.8c-0.6,0.8-1.7,1.1-2.5,0.5c-0.1-0.1-0.2-0.1-0.2-0.2c-5.5-7.3-7.6-18.3-2.8-26.3
	c5.9-11.1,17.3-15.5,29.4-14.5C354.1,477.3,360.8,481.9,364.5,488.7z M281.2,492.5c4.8,7.9,2.4,18.3-2.1,25.9c-0.7,1-1.7,2.1-3.1,1
	c-2.1-2.4,0.7-4.5,1-6.9c0.6-2,0.7-4.2,0.3-6.2c-6,8.8-16.5,13.2-27,11.4c-7.8-1.9-14.3-7.4-17.3-14.9c-1.4-4.8-0.7-10,2.1-14.2
	c7.3-9.7,20.4-11.7,31.1-8.3C272.6,482.5,277.9,486.8,281.2,492.5z M363.8,544.6c-0.7,1.7-1,1.7-2.4,3.5c-3.8-1-7.9-2.4-12.1-3.8
	c-34.6-13.5-78.4-9.7-110.9,3.8c-1.1-0.7-1.8-1.8-2.1-3.1C273.9,528.1,325.8,526,363.8,544.6z M370,361.2
	c-5.5,27.3-22.8,58.7-51.8,66.7c-22.8,5.9-48.4,1-63.9-18c-10.7-13.7-17.1-30.3-18.3-47.7c1.1-0.6,2.3-0.8,3.5-0.7
	c2.4,25.9,15.9,54.3,41.8,62.2c23.5,7.5,49.2,0,65-19c10-13.3,17-28.6,20.4-44.9C367.8,359.7,369.1,360.2,370,361.2z"/>
<path id="White" class="st1" d="M43.1,142.1c14.9,28.7,44.9,38,75.7,36.3c16.9,0,33.5-1.7,50.5-2.8v1c-8.6,24.1-14.6,49-18,74.3
	c-44.2,1.7-89.5-2.1-122-31.4C6.8,197,1.3,165.9,6.1,135.2c5.2-6.2,11.1-11.4,16.2-17.6C29.6,125.5,41.4,131.7,43.1,142.1z
	 M593.6,129.3c1,4.5,1,8.6,1.7,13.5c2.1,33.9-12.8,65.3-41.8,82.6c-31.8,19.4-68.4,25.6-107.5,27c-0.7-3.5-1-8.3-1.7-12.1
	c-2.7-22.4-7.2-44.6-13.5-66.3c41.8-0.7,92.6,10.4,120.3-28c3.5-5.5,7.3-10,10.4-15.9c6.2-2.8,12.1-6.9,18.3-10
	C584.9,122.4,588.4,126.5,593.6,129.3z M435,301.7c0.3,13.1-4.1,26.6-15.9,32.8c-5.5,2.8-11.7,4.2-18,3.8c-0.2-1.3-0.2-2.5,0-3.8
	c9.3,0,18.7-3.5,23.8-11.1c3.2-6.1,4.9-12.8,4.8-19.7C431.3,302.7,433.1,302,435,301.7z M199.3,337c-1.9,0.5-4,0.5-5.9,0
	c-16.8,0-30.5-13.6-30.5-30.4c0-0.8,0-1.6,0.1-2.4c1.9-0.7,4-0.7,5.9,0c0,12.1,4.8,28,29.7,28C200.3,334.9,198.6,335.2,199.3,337z"
	/>
</svg>
