<svg version="1.1" id="Layer_1" xmlns="http://www.w3.org/2000/svg" xmlns:xlink="http://www.w3.org/1999/xlink" x="0px" y="0px"
	 viewBox="0 0 600 600" style="enable-background:new 0 0 600 600;" xml:space="preserve">
<style type="text/css">
	.st0{fill:#AAAAAA;}
</style>
<path id="Black" d="M377.6,278.7l0.6-53.7c0-25.1-26.3-29.3-45.6-29.2c12.9-4.4,28.5-11.6,39.8-23.9c11.9-11,20.3-26.4,18.9-48
	c-2.4-36.4-48-54.5-123.5-47.2c-1.2,0.2-2.5,0.3-3.7,0.3c-3.2-26.2-9-52-17.4-77.1L243,3.7c-8.6,25.8-15.1,52.2-19.5,79
	c-25.9,4.3-51.5,10.4-76.6,18.1l-3.7,3.7c0,0,36.4-3.2,77.9-2.7c-4.7,47.2,0.2,92,0,176.7c-67.1-1.9-125.9,9.2-140.2,27.2
	c-4.7,3.9-7.3,8.2-7.1,12.7c0.8,20.5,61.7,39.3,147.3,46.6l3.7,116.4l3.7-3.7l6-79c0-1.1,0.1-2.3,0.5-3.4c1.8,0.3,3.5,2.6,3.5,6.6
	l2.6,104l3.7-3.7l6.4-84.6c0-1.6,0.1-3.1,0.5-4.7c1.8,0.3,3.5,2.9,3.4,7.7l2.9,108.3l3.7-3.7l5.2-157.7c9.8,0.3,19.8,0.5,30.1,0.5
	c10.8,0,21.4-0.2,31.9-0.5l5.2,164.4l3.7-3.7l4.4-86.1c0-1.5,0.1-2.9,0.5-4.4c1.6,0.3,3.2,2.9,3.2,7.4l4.5,120.7l3.7-3.7l4.5-104.3
	c0-1.3,0.2-2.5,0.6-3.7c2.1,0,4.4,2.6,4.4,7.6l3.7,138.2l3.7-3.7l5.5-231.5c73.2-6.4,128.8-21.1,142.7-38.2
	c4.5-3.9,7.1-7.9,7.1-11.9C525.3,292.4,457.4,275,377.6,278.7 M220.4,340.8c-58.7-5.6-98.3-17.6-98.3-32.6c0-1.1,0.4-2.3,1-3.2
	c13.7-9.7,55.9-15.8,98.2-22.1c0,16.6-0.3,34.7-0.8,54.5L220.4,340.8L220.4,340.8z M340.1,138.6c2.3,16.6-2.6,29.2-11.1,38.7
	c-15.3,13.9-39.3,20.2-58.8,23.1c0.3-31.3-0.2-63.8-2.9-95.8C304.9,108.7,337.3,118.2,340.1,138.6 M328.9,344
	c-9.2,0.3-18.5,0.5-28.2,0.5c-11.3,0-22.4-0.2-33-0.6l0.5-13.4c-1-33.9,1.1-76.4,1.8-121.9c27.6,3.2,60.6,11,60.1,30.3L328.9,344z
	 M475,317.9c-13.7,10.8-50,19.2-98,23.4l0.6-57.7c55,7.1,99.6,15.2,99.6,28.4C477.2,314.1,476.4,316.2,475,317.9"/>
<path id="Red" class="st0" d="M526.3,315c-1-22.6-68.8-40-148.6-36.1l0.6-53.7c-0.2-33.2-45.6-30-60.9-27.9
	c17.9-3.2,77.7-18.2,74-73c-2.4-36.4-48-54.5-123.5-47.2c-1.2,0.2-2.5,0.3-3.7,0.3c-3.2-26.2-9-52-17.4-77.1
	c-10.5,32.6-16.6,58.2-20,82.1c-27,4.3-53.7,10.6-79.8,18.7c0,0,36.4-3.2,77.9-2.7c-4.7,47.9,0.2,93.3,0,180.5
	c-79.3-2.7-148.1,12.6-147.3,36.1c0.6,20.5,61.7,39.3,147.3,46.6l3.7,116.4l6-79c0.2-9.8,7.6-8.9,7.6-0.5l2.7,104l6.4-84.6
	c-0.2-11.4,7.9-10.8,7.6-0.6l2.9,108.3l5.2-161.5c11,0.3,22.2,0.6,33.7,0.6c10.8,0,21.4-0.2,31.9-0.5l5.2,164.4l4.4-86.1
	c0-11,7.4-10.5,7.4-0.6l4.5,120.7l4.5-104.3c0.3-10.3,8.5-9.8,8.7,0l3.7,138.2l5.5-234.7v-0.2C463.4,354.3,526.3,335.5,526.3,315
	 M343.8,134.9c6.1,45.5-40.3,60.5-73.7,65.4c0.6-33.3-0.5-66.7-3.2-99.9C306.2,104.3,340.9,113.6,343.8,134.9 M122.1,308.2
	c0-13.9,51.4-21.3,102.8-29c0,16.6-0.3,34.7-0.8,54.5l0.2,7.6C163.4,335.6,122.1,323.5,122.1,308.2 M267.7,343.8l0.5-13.4
	c-1-35,1.3-79,1.8-125.9c28,2.9,64.3,10.5,63.7,30.8l-1,108.7c-10.3,0.3-21,0.5-31.9,0.5C289.4,344.3,278.5,344.2,267.7,343.8
	 M377,341.3l0.8-61.9c56.6,7.3,103.2,15.5,103.2,28.9C481,323.5,438.4,335.8,377,341.3"/>
</svg>
