<svg version="1.1" id="Layer_1" xmlns="http://www.w3.org/2000/svg" xmlns:xlink="http://www.w3.org/1999/xlink" x="0px" y="0px"
	 viewBox="0 0 600 600" style="enable-background:new 0 0 600 600;" xml:space="preserve">
<style type="text/css">
	.st0{fill:#FFFFFF;}
	.st1{fill:#AAAAAA;}
</style>
<path id="Outline" class="st0" d="M558,300c9.9-15.6,15.5-33.2,16.5-53H566c10.8-12,13.2-30.5,14.5-50H439l-0.7-0.2
	C405.2,148.1,349.4,116,286,116c-64.5,0-121.2,33.2-154,83.4h-25l-23.8,43.2h18l-9.4,17h-18l-32,58.2H57l-6.3,11.5H22.8l-15.9,29
	h12.7L0,394h127.9c32.1,53.8,90.9,89.9,158.1,89.9c65.8,0,123.4-34.5,156-86.4l0,0c57.8,42.2,154.5-21.3,158-97.5H558z"/>
<path id="Yellow" class="st1" d="M287.9,467.2c89.4,0,162-73.5,162-164.4c0-90.6-72.5-164.2-162-164.2s-162,73.5-162,164.2
	C125.9,393.6,198.4,467.2,287.9,467.2z"/>
<path id="Purple" d="M305.7,302h-6.9c-0.5,0-1,0.5-1,1s0.5,0.7,1,0.7h7.2c2.5,0,4.7,0.3,4,1.3l-18.6,35.6c-0.8,2.2-3.2,3.2-5.4,2.4
	c-1.2-0.5-2.2-1.4-2.5-2.7l-9.2-47.5l32.2-25c3.2-3,9.4-7.5,12.6-7.5h7.2c4.2,0,5.7,2,4.7,4.7l-1.3,2.2c-0.7,1.5-3.5,1.7-5.5,1.7
	H320c-0.4-0.1-0.7,0.2-0.7,0.5c0,0.1,0,0.1,0,0.2c0,0.5,0.3,1,0.7,1h4.2c1.7,0,3.7,0,3,1.3l-14.8,28.7
	C311.6,301.7,308.4,302,305.7,302z M361.7,319.6c-15.1,18.5-23.5,24.7-38.9,24.7c-5.2,0-7.9-1.3-6.7-3.7l18.4-36.6h6.9
	c7.6,0,6.7,6.5,4.7,15.4c-0.5,1.3,0.5,1.3,1.5,0.3l17.4-30.4c0.7-2-1.5-2.2-2.5-0.7c-8.6,11.6-17.8,10.9-21.8,10.9h-3l19.3-37.2h7.9
	c9.9,0.5,14.4,8.9,11.6,29.2h4l14.4-28.3c1.3-2.5-1.3-4.7-4-4.7l-97.1,0.3c-5.7,0-5.9,4.2-0.5,4.2c4.5,0,4.2,6.2,0.3,9.2l-41.4,32.9
	l8.5,38.6c0.5,2.7,3,4.6,5.7,4.2h80.3c2.3,0.2,4.6-0.8,5.9-2.7l14.4-25C368.9,316.4,364.4,316.7,361.7,319.6z M184.1,309.2h-25.5
	l32.2-42.6L184.1,309.2z M178.2,335.7c-0.7,4.2-5.2,7.2-10.6,8.6l-5.7,1.5l4.7-8.5c1.3-2.5-1.5-3.7-4.5-0.3
	c-19.8,23-26.3,34.2-57,34.2h-8.2c-2.5,0-5.2-1-3.5-3.2l10.9-20.3h41.1c5.5,0,4.2-4.2,0.7-4.2c-2.5-0.4-4.8-1.8-6.2-4
	c-1.1-1.9-1-4.1,0.3-5.9l15.6-21.1H182L178.2,335.7z M239.1,343.7c-1.8-0.2-3.3-1.4-4-3c-0.8-2.4-0.7-5,0.3-7.5l37.4-66.4
	c0.5-1.3,2.2-4,4-4c3.2,0,4.7-4.2-0.7-4.2h-30.2c-5.5,0-5.5,4.2-0.3,4.2c1.4-0.1,2.6,0.9,2.7,2.3c0,0.4,0,0.8-0.2,1.2l-8.2,15.1
	c-1.3,1.5-3.5,1.7-5.9,1.7h-7c-0.5,0-1,0.3-1,0.7c0,0.5,0.4,1,1,1h6.9c2,0,3.5,0.5,2.5,2.7L208.7,338c-2,2.7-5.9,3.2-5.7-2l9.6-73.8
	c0.5-2.2,0-4-2.5-4h-14.8c-1.5,0-3,0.9-3.7,2.2l-5.5,6.5c-0.5,0.7-2.2,0.7-3.7,0.7H170c-0.5,0-1,0.5-1,1s0.5,0.7,1,0.7h10.2
	c1.7,0,3.7,0.5,3,1.5l-14.1,17.8c-0.8,0.5-1.8,0.7-2.7,0.7h-4c-0.5,0-1,0.3-1,0.7c0,0.5,0.4,1,1,1h3.2c1,0,1,0.5,0.7,1l-13.5,16.9
	c-1.1,0.5-2.2,0.8-3.5,0.7h-11.9c-0.5,0-0.7,0.5-0.7,1c-0.1,0.4,0.2,0.7,0.5,0.7c0.1,0,0.1,0,0.2,0h10.2c1.7,0,2.7,0.3,2,1.5
	l-19.1,23.8c-3.5,4.7-20.8,6.9-24.3,6.9l64.6-120.6c1.1-2.1,3.1-3.4,5.5-3.5H190c6.5,0,6.5-4.5,0.7-4.5h-68.8
	c-5.7,0-5.9,4.5,0.7,4.5h12.6c3.7,0,4.7,2,3.7,4l-1.7,3.2c-0.5,1-1.5,1.5-4.9,1.5h-22.5c-0.5,0-0.7,0.5-0.7,1
	c-0.1,0.4,0.2,0.7,0.5,0.7c0.1,0,0.1,0,0.2,0h22.5c1.3,0,3,0.5,2,2.7l-3.2,5.7c-0.5,1-2,1.3-3.5,1.3h-10.3c-0.5,0-0.7,0.5-0.7,1
	s0.3,1,0.7,1h10.2c1.5,0,1.7,1,0.7,2.2l-7.2,13.4c-0.7,1.3-1.7,1.5-4.2,1.5h-4c-0.5,0-1,0.3-1,0.7c0,0.5,0.4,1,1,1h4
	c1.5,0,2,0.7,1.3,2.2l-5.9,11.2c-1,1.5-2.2,2.2-6.2,2.2H83.3c-0.4-0.1-0.7,0.2-0.7,0.5c0,0.1,0,0.1,0,0.2c0,0.5,0.3,1,0.7,1h22.5
	c2.5,0,3.5,1.3,2.5,3l-11.6,21.8c-0.7,1-2.5,1.3-5.7,1.3H68.5c-0.5,0-1,0.3-1,0.7c0,0.5,0.4,1,1,1h22.3c2.7,0,4.5,0,3.7,1.5
	l-6.7,12.6c-1.3,2-4.7,2-6.2,2h-7.2c-0.4-0.1-0.7,0.2-0.7,0.5c0,0.1,0,0.1,0,0.2c0,0.5,0.3,1,0.7,1h7.2c2.5,0,3.7,0.5,3.2,1.7
	L76,342.1c-1,1.5-4.5,1.5-7.2,1.5H34c-0.5,0-1,0.5-1,1s0.5,0.7,1,0.7h34.6c2.5,0,5.2,0.5,4.2,2.2l-5.7,10.6c-0.5,1-2.5,1-5.5,1h-6.9
	c-0.5,0-1,0.4-1,1s0.5,0.7,1,0.7h6.9c1.7,0,4,0.3,3.2,1.7l-3.7,6.7c-0.8,2-2.8,3.2-4.9,3.2H38.7c-6.5,0-6.2,4.5-0.5,4.5h102.5
	c3,0,3.2-0.5,4.5-2.7l15.4-26.5h77.8C243.8,347.8,242.5,343.7,239.1,343.7z M437.7,294.8c-2.7,2.5-7.2,4.9-8.2,4.2
	c-2.2-1.8-4.5-3.4-6.9-4.7l16.8-30.7c0.7-1.1,2-1.6,3.2-1.5c6.7,0,8.6,6.9,5.7,15.8C446.1,284.2,442.7,290.8,437.7,294.8z
	 M572.9,322.3c-0.5-2-1.3-0.7-2.5,1.7c-0.5,1-1.7,1-3.2,1h-4c-0.5,0-0.8,0.4-1,0.7c-0.1,0.5,0.4,0.9,0.8,1c0.1,0,0.1,0,0.2,0h4
	c1.5,0,1.5,1,0.7,2.5c-2.5,5.5-5.8,10.5-9.6,15.1c-0.8,0.8-2,1.3-3.2,1.3l-4.2,0.3c-0.5,0-1,0.3-1,0.7c0,0.5,0.5,1,1,1h4
	c2.2,0,0,1.3-0.3,1.7c-5,6.7-10.8,12.9-17.4,18.1c-1.9,0.4-3.8,0.5-5.7,0.3h-4.2c-0.5,0-0.7,0.5-0.7,1c-0.1,0.4,0.2,0.7,0.5,0.7
	c0.1,0,0.1,0,0.2,0l4.2,0.3c3,0,0.7,1.7,0.3,2c-11.2,9.4-28,12.4-35.5,11.4c-24.7-3-30-21.8-31.7-29.4c-0.8-2.2-1.5-4.4-2-6.7
	c-0.7-4,10.4-4.9,13.4-3c4.7,3.2,15.6,6.5,24.3,6.5c7.9,0,24-5.7,28.7-19.3c5-14.1-7.2-29.4-12.6-34.9c-6.7-6.7-13.1-17.5-10.4-25.5
	c2-5.9,5.5-8.6,12.6-8.6c9.6,0,16.4,5.9,16.4,14.6c0,0.7-0.3,1.7-1,1.7h-3.2c-0.5,0-1,0.5-1,1s0.5,0.7,1,0.7h3
	c0.7-0.1,1.3,0.5,1.4,1.2c0,0.2,0,0.4-0.1,0.5c-0.5,3-0.7,4.9-1.5,7.9c-0.3,1.7,2.2,2.7,3,1.5l14.8-26.5c1.3-2-1.3-2.5-3-2
	c-4.2,1.5-10.6,2.5-13.1,0.7c-5.2-4.2-11.7-6.5-18.4-6.5c-13.1,0-22.5,3.2-28.4,14.1c-0.5,0.7-1.7,0.7-2.7,0.7h-2.7
	c-0.5,0-0.7,0.5-0.7,1s0.3,1,0.7,1l2.2-0.3c1,0,1.5,0.5,1,1.5c-0.3,1-0.7,2-1,3c-1.4,5.8-1,11.8,1.3,17.4c0.3,0.3-0.3,0.5-1.3,0.5
	h-4c-0.5,0-1,0.4-1,1s0.5,0.7,1,0.7h4c2,0,2.2,0.3,3,1.3c2.2,3,4.5,5.2,6.9,8.6c1,1-2.7,1.3-4.7,1.3h-15.8c-0.5,0-1,0.5-1,1
	s0.5,1,1,1l0,0h16.1c2.7,0,7.2-0.3,7.6,0.5c4,4.5,8.6,11.4,9.4,17.4c0.3,1.7-0.5,2.5-2.5,2.5H503c-0.4-0.1-0.7,0.2-0.7,0.5
	c0,0.1,0,0.1,0,0.2c0,0.5,0.3,1,0.7,1h2c1.7,0,2.5,0.3,2.2,1.5c-2.2,6.7-5.2,11.6-18.1,11.4c-13.6,0-16.4-13.1-12.4-27
	c0.7-2.7,0-4-1.3-1.7l-9.3,14.4c-0.6,0.6-1.5,1-2.5,1h-1.3c-0.5,0-1,0.4-1,1s0.4,1,1,1l0,0c1,0,1.5,0.5,1,1.3l-3.5,5.2
	c-5.3-12.3-12.1-23.9-20.1-34.6v-0.3c12.6-0.7,31-12.4,33.9-22.8c5.2-18.4-12.4-25-22-25h-42.1c-5.7,0-5.9,4.5-0.7,4.5
	c3,0,5.5,2.5,4.2,5l-9.3,16.8c-0.7,1.5-3.5,1.5-7.5,1.5h-4c-0.5,0-1,0.3-1,0.7c0,0.5,0.4,1,1,1h4c2.7,0,5.7,0,4.7,2L389.8,310
	c-0.5,1-2,1-5.7,1h-4c-0.5,0-1,0.5-1,1s0.5,0.7,1,0.7h4c3,0,4,0.5,3.2,2l-14.8,26.7c-1.7,2-3.7,2.2-7.5,2.2c-5.5,0-5.2,4.2,0.3,4.2
	h36.2c5.7,0,4.2-4.2,1-4.2c-2,0-4-3.7-2.7-5.7l18.4-35.2h2c8.2,0,10.2,13.6,11.6,28.3c0.3,1-1.7,1.3-5.9,1.3h-10.2
	c-0.5,0-1,0.3-1,0.7c0,0.5,0.5,1,1,1h10.2c2.7,0,6.5,0,6.5,1c0.4,5.8,1.3,11.4,2.5,17.1c0.5,1.7-2.5,1.5-5.5,1.5h-13.1
	c-0.5,0-1,0.5-1,1s0.5,0.7,1,0.7h13.1c4,0,6.2,0,6.5,1c5.5,20.5,29.7,36.9,53,35.9c20.3-0.7,37.2-11.6,45.8-18.8
	c11.6-9.2,28.7-28.7,35.6-42.8C571.5,328,573.4,324.6,572.9,322.3z M234.1,231.4c-3.1,3.8-7.9,5.8-12.9,5.5h-1.5l8.9-17.5
	c0.4-0.9,1.4-1.5,2.5-1.5c1.3,0,1-2.2-0.5-2.2h-13.9c-1.3,0-1.7,2.2-0.5,2.2s1.3,1.3,0.7,2.5L209,236c-0.6,0.7-1.5,1.2-2.5,1.3
	c-1.3,0.5-2,2.5-0.5,2.5h22.3c1.7,0,2.2-0.5,2.5-1.3l4.7-6.9C236.1,230.7,234.9,230.5,234.1,231.4z M301.5,216.1
	c-0.9,0.6-2.1,0.6-3,0c-2.1-1.5-4.6-2.3-7.2-2.5c-5.2,0-8.9,1-11.4,5.9c-1.7,4.2,0.3,7.9,4.7,9.9c2.2,1,4.7,2.2,3.7,4.7
	c-0.7,1.7-2.7,2-4.7,2c-2.5-0.3-6.2-2-6.7-5.5c-0.3-1.3-1.5-1-2-0.3l-3.2,6.2c-0.5,1,0.7,1.7,1.5,1.3c1.2-1.2,3-1.5,4.5-0.7
	c2.4,1.7,5.2,2.7,8.2,3c4.7,0.4,9.2-1.9,11.6-5.9c2.7-4.2,1-8.5-3.7-10.6c-2.7-1.3-4.9-3.5-3.7-5.7c0.7-1.5,3-1.3,4.2-1
	c2.3,0.4,4.3,2,5.2,4.2c0.2,0.5,0.7,0.8,1.2,0.6c0.2-0.1,0.5-0.2,0.5-0.4l1.5-4C303.2,216.6,302,215.9,301.5,216.1z M456.7,222.5
	l2-3.7c1-1.5-0.5-3.2-2.7-3.2h-26.3c-1.7,0-1.3,2-0.5,2c1.7,0,2.2,2,1.3,3.7l-7.9,14.4c-1.3,1.5-2,2-3.5,2s-2,2,0,2h26.5
	c1,0,1.5-0.3,1.7-1l3.7-4.7c1-1-1-1-1.5-0.5c-3.5,3.2-8.3,4.9-13.1,4.5h-2.7l3.5-8.2h0.7c2.5,0,5.2,0,5.7,1.7
	c0.5,0.5,1.3,0.6,1.8,0.2c0.1-0.1,0.1-0.1,0.2-0.2l3-6.2c0.5-1-0.7-1-1.3-0.5c-1.3,2.2-6.7,1.7-7.9,1.7h-0.7l4.5-8.9h4.9
	c3,0,5.7,1.9,6.7,4.7C454.7,222.8,456.5,223.3,456.7,222.5z M327.7,226.9l8.6-6.9v6.9H327.7z M389.8,215.6h-9.2c-2,0-1.5,2-0.5,2
	c1.6,0,2.9,1.4,2.9,3c0,0.5-0.2,1-0.5,1.4l-3.7,6.9l-8.5-12.4c-0.9-0.8-2.1-1.3-3.2-1.3H358c-1.7,0-1.5,2-0.5,2
	c1.7,0,1.3,1.5,0.7,2.5l-7.2,14.1c-0.4,0.8-1.4,1.1-2.2,0.7c-0.4-0.2-0.7-0.5-0.8-1l-5.7-18.4c-0.3-0.7-3.5-0.7-4.5,0l-14.1,11.6
	h-7.2c-1.5,0-2.2,0.7-2.2,1.5c0,0.7,0.7,1.5,2.2,1.5h3.7l-3.7,3.2c-2.2,1.5-4.5,3.7-5.7,3.7h-1c-1.5,0-2.2,0.3-2.2,1.3
	c0,1.3,0.7,1.5,2,1.5H321c2.2,0,1.7-2.7,0.7-2.7c-1.2,0-2.2-0.9-2.2-2.1c0-0.6,0.3-1.2,0.7-1.6l3.5-3.2h6.9c4,0,6.9,4.7,4.5,6.2
	l-2,1c-0.7,0.5-1.3,2.5,0,2.5h22.3c1.7,0,1.5-2.2,0.7-2.2c-2.5,0-1.3-3.2-0.7-4l5.7-11.2l8.4,15.7c0.7,1,1.3,1.5,2,1.5h3.2
	c0.8,0.1,1.5-0.4,1.7-1.3l9.4-17.1c1.5-3,2.7-3.7,4.7-3.7C391.4,217.6,391.8,215.6,389.8,215.6z M260.1,229.5
	c-2.5,4.9-6.7,7.9-9.2,6.7c-2.7-1.3-3-6.5-0.3-11.4c2.5-4.9,6.5-7.9,9.2-6.7C262.6,219.6,262.6,224.5,260.1,229.5z M257.9,214.3
	c-7.6,0-15.8,4-17.4,12.1c-1.4,6.5,2.6,12.9,9.1,14.3c1,0.2,2,0.3,3,0.3c8.5,0,16.1-5.5,17.5-13.4
	C271.8,219.8,266.1,214.3,257.9,214.3z M416.4,226.5h-9.9c-2,0-1.5,2-0.7,2c0.9-0.1,1.6,0.5,1.7,1.3c0,0.1,0,0.3,0,0.4
	c0,4-1.7,5.5-5.5,5.5c-3.7,0-5.2-4.5-2.5-10.2c2-4.3,6.4-7.2,11.2-7.2c3.2,0,5.9,0.7,6.2,3.7c0.3,0.7,1.3,0.7,1.7,0l2.2-4.2
	c0.3-0.5,0-1-0.7-1c-0.7-0.3-2,0.7-3,0c-2.9-1.8-6.2-2.9-9.6-3c-7.5-0.4-14.6,3.5-18.1,10.2c-4.7,7.9,2,16.4,8.2,16.4
	c3.5,0,7.6-2.5,9.9-3.5l2.5,1.7c0.5,0.5,1.3,0.9,2,1h1c1,0,1.3-1.3,1.5-2l4-9.4C418.8,227.2,418.6,226.5,416.4,226.5z M554.4,216.1
	c-0.9,0.6-2.1,0.6-3,0c-2.1-1.5-4.6-2.3-7.2-2.5c-5.2,0-8.9,1-11.4,5.9c-1.7,4.2,0.3,7.9,5,9.9c2,1,4.5,2.2,3.5,4.7
	c-0.7,1.7-2.7,2-4.7,2c-2.5-0.3-6.2-2-6.7-5.5c-0.3-1.3-1.5-1-2-0.3l-3.2,6.2c-0.5,1,0.7,1.7,1.5,1.3c1.2-1.2,3-1.5,4.5-0.7
	c2.4,1.7,5.2,2.7,8.2,3c5.2,0,8.9-1.5,11.6-5.9c2.7-4.2,1.3-8.5-3.7-10.6c-2.7-1.3-4.7-3.5-3.7-5.7c0.7-1.5,3-1.3,4.2-1
	c2.3,0.4,4.3,2,5.2,4.2c0.2,0.5,0.7,0.8,1.2,0.6c0.2-0.1,0.5-0.2,0.5-0.4l1.5-4C556.1,216.6,554.8,215.9,554.4,216.1z M484.5,231.4
	c-3.5,4.2-7.9,5.5-13.1,5.5h-1.3l8.9-17.5c0.4-1,1.4-1.6,2.5-1.5c1,0,1-2.2-0.5-2.2h-14.1c-1.3,0-1.5,2.2-0.5,2.2
	c1.3,0,1.5,1.3,1,2.5l-8.2,15.6c-0.5,0.7-1.4,1.2-2.2,1.3c-1.3,0.5-2,2.5-0.7,2.5h22.3c1.7,0,2.2-0.5,2.7-1.3l4.5-6.9
	C486.5,230.7,485,230.5,484.5,231.4z M518.2,217.6c3,0.2,5.6,2,6.7,4.7c0.3,0.5,1.7,1,2.2,0.3l2-3.7c0.7-1.5-0.5-3.2-2.7-3.2h-26.3
	c-2,0-1.3,2-0.5,2c1.7,0,2.2,2,1,3.7l-7.6,14.4c-0.8,1.3-2.2,2.1-3.7,2c-1.3,0-1.7,2,0,2h26.5c1.3,0,1.7-0.3,2-1l3.7-4.7
	c0.7-1-1-1-1.7-0.5c-3.4,3.2-8.1,4.9-12.9,4.5h-3.2l3.7-8.2h0.7c2.2,0,5,0,5.7,1.7c0.3,0.4,1,0.6,1.4,0.3c0.1-0.1,0.2-0.2,0.3-0.3
	l3.2-6.2c0.5-1-1-1-1.3-0.5c-1.3,2.2-6.7,1.7-8.2,1.7h-0.7l4.7-8.9L518.2,217.6z"/>
<path id="Black" d="M316,155.1c-12.4-0.7-22.5-1.3-31.2-0.3c2.4-6,6.5-11.2,11.6-15.1c8,0.4,15.9,1.3,23.8,3
	c22,4.2,56.2,17.8,71.1,37.4C371.6,167,339.1,156.9,316,155.1z M279.1,155.7c-8.6,1-17.3,2.5-25.7,4.7c-1.3-3.2-4.5-13.1-5.7-16.4
	c13.6-3.8,27.8-5.2,41.8-4.2C286.1,142.5,280.4,152.7,279.1,155.7z M217,173.9c-1.5-2.5-8.6-9.2-12.6-10.4
	c9.2-6.9,30.2-16.6,38.4-18.4c1.3,2.5,4.9,12.4,6.2,16.4C241.8,163,223,170,217,173.9z M415.1,196.5c-2-2.5-4.7-7.5-24.5-24.7
	c-29.4-25.5-68.4-37.2-104.8-37.2c-26.7,0-50.3,5.9-76.5,20.3c-33.2,18.4-46.8,39.4-50.3,43.6c-2.5,3.2-2.7,4.9-1.3,5.9
	c1.3,0.7,3.5-1.7,5.5-4.5c9.9-13.1,23-26,36.6-33.7c4.2,0.7,10.2,6.7,12.4,9.6c-9.9,6.2-19.5,12.9-28.7,20.1
	c-4.7,3.7-6.2,5.7-4.9,7.2c1,1.3,4.7-1,7.6-3.5c9-7.2,18.5-13.7,28.4-19.5c5.5,6.2,3.7,17.5,1.7,19.8c-1,1.5-1,2.7,0,3.5
	c1.3,0.7,2.2-1,3.7-3.2c3.7-5.2,2.2-17.5-0.7-22c9.4-5.9,22.8-9.9,31-11.6c0.7,1.3,10.6,30.2,12.6,35.5c1,3,2,6.5,4.2,5.7
	c1.3-0.3,0.5-3.5-0.7-6.7c-1.5-4-8.9-28.3-11.4-35.5c2.7-1.5,19.1-4.7,23.3-4.7c-2,10.6,5.5,15.1,13.9,20.5c4.5,3,33.2,19.3,39.1,23
	c3.5,2.2,6.2,3.5,6.9,2.5s-1.5-3.5-4.7-5.2c-2.5-1.5-29.2-17.1-40.4-24c-7.9-5.2-12.1-10.4-10.4-17.5c2.7-0.7,10.6-0.7,19.1-0.7
	c57,0.5,102.5,32.9,107.5,38.4c2.7,2.5,6.2,4.7,7.6,3.7C417.8,200.8,416.4,197.8,415.1,196.5L415.1,196.5z M427.6,390.9
	c2.2-3.7,3.7-5.9,2-6.9c-1.5-1-3.2,2.7-5.2,6.2c-6.7,11.4-13.9,21.1-30.2,35.9c-13.6,12.2-29.2,21.9-46.3,28.4
	c-6.2-17.4-29.7-91.2-30.4-93.3c-0.7-3.2-1.7-4-2.7-3.7c-1.3,0.5-0.5,2.2,0.3,4.9c0.5,2.7,28.4,90.4,29.4,93.3
	c-5.5,2.7-28.3,9.2-43.8,9.6c-14.1,0.5-30.7,0-39.1-2c-9.6-7.9-31.9-39.4-40.4-56c-9.9-19.8-16.6-37.9-18.4-45.5
	c-0.7-3.7-1.7-6.5-3.7-5.9c-2,0.3-0.7,3.2,0.5,7.2c4.6,15.6,10.6,30.7,18.1,45.1c11.2,21.5,30.7,47.1,36.4,54
	c-21.9-4.8-42.5-14.1-60.4-27.4c-17.8-13.4-33.2-30.2-40.9-42.6c-1.3-2.2-2.7-5.2-4.7-4c-1,0.7,0.3,3,1.5,5.5
	c11.2,20.1,38.4,48.5,73.5,64.2c40.6,18.1,85,17.1,124.8,1.7C382.5,446.2,412.7,418.5,427.6,390.9z"/>
</svg>
