<svg version="1.1" id="Layer_1" xmlns="http://www.w3.org/2000/svg" xmlns:xlink="http://www.w3.org/1999/xlink" x="0px" y="0px"
	 viewBox="0 0 600 600" style="enable-background:new 0 0 600 600;" xml:space="preserve">
<style type="text/css">
	.st0{fill:#555555;}
	.st1{fill:#AAAAAA;}
	.st2{fill:#FFFFFF;}
</style>
<path id="Black_Outline" d="M74.2,229.6c1.8-19.9,73.6-46.4,190.4-50.8c-14.7,10.9-24.4,27.3-27,45.5l-1.2,8.5
	c-0.6,5.6-1.8,10.9-3.5,16.1c-4.7,11.7-17.3,21.4-30.5,28.5c-46.9-5.6-86.3-15.8-109.1-28.2C80.7,242.8,73.6,235.4,74.2,229.6z
	 M521.3,223.4c4.7,5,4.1,8.2,4.1,9.1c-0.3,5.6-7.3,12.6-19.4,18.8c-24.9,12.9-68.1,22.9-118.5,28.2c2.3-1.5,5-2.6,7.3-3.8l0.6-0.3
	c14.7-5.9,31.4-12.6,32-37c0.3-3.8,0.3-15.5,2.3-19.7c2.9-5.6,10-13.8,15.8-16.1l-10.3-1.8h-1.5c3.2-2.3,5.6-5.3,7.3-8.8
	C483.5,200.5,511.3,212.3,521.3,223.4L521.3,223.4z M572.1,193.2c-21.4-24.4-70.1-43.7-132-55.2c0-7,4.7-10.3,12.3-15.8
	c4.4-3.2,8.8-6.5,12.9-10.3c19.9-19.4-3.5-48.1-4.1-49.6l-12.9-15.8l3.2,20.5c2.1,13.8-2.9,18.8-18.2,29.3c-1.8,1.2-3.2,2.6-5,4.1
	c1.2-10.9,0.3-21.7-2.1-32.3c-2.9-12.6-9.1-17.9-9.1-17.9L415.3,69c0,0.3-1.5,14.7-20.8,32.3c1.8-2.1,3.2-3.8,4.7-5.9
	c9.4-14.1,6.7-29.6,3.5-47.8l-0.6-3.8c-3.2-18.8,1.8-30.5,5-32.9c3.2-3.8,9.4-10.3,9.4-10.3s-3.2-1.5-12.6-0.3
	c-12,1.8-32.3,9.1-32,25.8c0.6,6.7,2.3,13.8,5,19.9c2.1,6.7,4.1,12.9,2.1,15.8c-1.5,2.3-5.6,4.7-12.6,5.9
	c-28.8,5.3-50.8,18.2-61.6,37.3c-3.8,6.2-6.5,13.2-7.6,20.5c-70.7,0.3-137.9,9.1-189.8,24.9c-58.4,17.9-90.4,42.5-93,71
	c-1.5,15.3,5.6,36.7,42.8,57.5h-0.3l10.6,5.3l5.6,2.3c19.4,8.5,39.6,15.3,60.1,19.7c-7.9,4.4-15.3,9.7-22.3,15.8
	C44,377.4,34.6,476,89.5,542.9c55.2,66.9,153.7,76.3,220.6,21.4c27.6-22.6,46.6-54.3,54-89.2c12.6-37.6,11.1-78,10.6-93.6
	c-1.5-34.9,15.8-54.3,26.7-62.8c49.3-6.5,93.3-17.3,125.6-31.7l5.3-2.3l11.1-5.3l-0.3-0.3c26.4-14.7,41.1-31.7,42.5-49.9
	C587,216.1,582.3,204.1,572.1,193.2L572.1,193.2z"/>
<path id="Flames_Red" class="st0" d="M59.5,454c4.7,24.9,18.8,46.9,39.3,61.9c7,5,14.7,9.1,22.9,12c-5-8.5-10.9-17.3-17-26.1
	c-11.1-16.4-22.9-33.7-30.2-52.2c-7.6-18.5-9.7-39-6.5-58.7c-6.2,16.7-9.1,34.3-9.1,52.2C59.2,447,59.5,450.5,59.5,454z M84.8,446.1
	c7,17.3,18.2,33.7,29.3,49.6c8.2,12,15.8,24.4,22.9,37c7,1.5,14.1,2.3,21.1,3.2c-7.9-11.4-14.4-24.1-19.4-37
	c-21.7-54.3-19-121.2,8.3-159.9c13.5-19.1,31.4-34.3,52.2-45.2c18.2-10,29.9-12.9,42-19.9c12.6-7.3,19.4-19.9,10.9-48.7
	c-2.1-6.5-2.6-13.2-2.1-19.9c-3.2,6.2-5.6,12.9-6.5,19.7c-0.9,8.8-2.6,17.6-5.3,26.1c-11.1,29.6-65.7,45.8-72.8,48.1
	c-18.5,5.3-35.8,14.7-50.8,27C80.7,356.3,68.9,403.8,84.8,446.1z M313,178.8c0.3,1.8,0.6,3.5,1.2,5.3c1.5,10.6-1.8,19.1-14.1,20.8
	c-12.9,2.1-17.6-9.1-18.8-18.2c0-3.5,0.3-5.9,0.3-7.6h-6.5c-5.6,3.2-10.6,7-15.3,11.7c-2.3,5.6-5.6,13.5-0.6,31.4
	c8.5,32,4.7,51.3-20.8,62.2c-32.9,14.1-54,22.6-81.6,57.8c-13.5,16.4-20.8,44.6-21.7,72.5c-0.9,27.6,4.1,54.9,14.1,80.4
	c5.9,14.7,13.5,28.8,22.9,41.7c8.8-0.6,17.6-1.8,26.4-3.5c-9.7-11.4-15.5-25.8-16.4-40.8c-3.2-52.2,24.6-73.9,67.5-108l19.4-16.1
	c76.9-65.1,54.3-131.4,62.8-188.1C325.3,178.8,319.2,178.8,313,178.8z M343.5,180c-2.1,11.7-3.5,23.5-4.1,35.2
	c-3.2,49.3-1.5,105.3-64,160.5L256.6,391c-42,33.4-65.7,54.6-64,100c0.3,14.7,6.5,28.5,17.3,38.4c12-3.5,23.5-8.5,34.6-14.4
	c54.3-31.1,88.3-77.2,101.5-136.1c8.2-37.3,8.2-67.5,7.6-92.1c0-12.3,1.8-36.4,1.8-36.4c1.8-15.3,3.8-37,21.7-64.8
	c0.6-1.2,1.2-1.8,1.8-2.9C367.9,181.2,355.8,180.6,343.5,180z M362,338.4c-1.8,9.1-2.1,19.1-3.2,28.8c-0.6,3.5-1.5,7.3-1.8,10.9
	c0,1.2-0.3,2.1-0.6,3.2c-13.5,62.2-49,110.6-106.2,142.9c-9.4,5.6-19.4,10-29.6,13.8c17,10.9,36.4,14.4,49.6,12.3
	c51.3-7.3,76.3-40.8,88.3-76.9c12.3-36.7,10.9-75.7,10.3-91.8c-1.8-54.3,39.9-74.2,39.9-74.2C376.4,305.6,365.5,319.6,362,338.4z
	 M327.7,537.9c-15.3,12.6-33.7,20.5-53.4,22.9c-23.2,3.2-46.9-3.2-65.1-17.9c-0.6-0.3-0.6-0.6-1.5-1.2c-8.8,2.3-17.6,4.1-26.7,5
	c20.5,22.3,47.8,34.9,84.2,37h0.3c24.6-9.7,46.4-25.5,63.1-46.1C328.3,537.6,328.3,537.9,327.7,537.9z M137,575.2
	c0-11.7-2.6-23.5-8.2-33.7c-12.9-3.8-25.2-9.1-36.7-16.1c-6.5-4.7-12.6-10.3-17.9-16.1C87.7,537,109.7,560.2,137,575.2z
	 M241.4,590.7c-19.1-3.8-37.3-11.7-53.1-23.2c-7.9-5.9-15.3-12.9-21.4-20.5c-8.2,0-16.4-0.9-24.6-2.3c4.7,11.4,6.5,24.1,5.3,36.4
	c19.7,9.1,41.1,13.5,62.8,13.5c10.6,0,21.1-1.2,31.4-3.2C242,590.7,241.4,590.7,241.4,590.7z M417.2,219.6
	c-3.5,11.7-15.3,10.3-18.8,3.8c-5.3-10-3.2-17.6,2.3-22.9c5.3-5.3,14.4-8.2,23.2-12.3h0.3c-10.3-1.8-21.1-3.2-32.3-4.7
	c-0.3,0.3-0.3,0.3-0.6,0.3c-0.9,1.2-1.8,2.3-2.9,3.5c-12.9,18.8-20.8,40.5-22.6,63.4l-0.3,5c-1.2,10.3-1.5,20.5-1.2,30.5v5
	c-0.3,4.1-0.3,8.5-0.3,12.3l0,0c0.3-1.8,0.3-2.1,0.3-1.5c5-16.4,14.4-26.4,27.9-32c14.7-5.6,28.8-10.9,29.6-32
	c0.3-8.8,1.2-17.6,2.9-21.7c2.1-4.7,5.6-8.5,10.3-10.6C428,205.5,420.4,208.5,417.2,219.6z"/>
<path id="Flames_Yellow" class="st1" d="M434.5,136.6c1.2-14.1,14.4-16.4,27.6-28.5c16.4-15.8-5.3-42-5.3-42
	c2.9,17.6-5.3,24.4-19.9,34.9c-4.7,2.9-7.9,8.2-8.8,13.8c-0.3,7-0.9,13.8-2.1,20.8C428.6,135.7,431.5,136,434.5,136.6z M389,112.2
	c-3.8,2.9-7.3,5.9-10.9,9.1c-2.3,2.3-5,4.7-7,7c14.4,1.2,28.5,2.9,42.2,4.7c8.5-15.8,12.6-33.4,7.3-64
	C420.7,69.1,419.8,89.6,389,112.2z M308,125.4c16.4,0.3,32.9,0.6,49,2.1c0.3-0.6,0.9-1.2,1.5-1.8c10.6-11.1,27-21.1,35.8-33.7
	s5.3-28.5,1.8-47.5c-5.6-32.9,8.5-38.7,8.5-38.7s-27.9,3.8-27,19.7c0.6,21.4,22.9,41.7-10.6,47.8c-36.7,6.7-59.6,26.4-64.5,52.5
	C304.2,125.4,306.3,125.4,308,125.4z"/>
<path id="Halo" class="st2" d="M308,133.6C154.6,132.2,26.7,171.8,22.6,222c-1.8,19.9,16.1,38.7,48.1,54.3
	c23.8,10.9,48.7,18.8,74.2,24.1c5.9-2.3,11.7-4.7,18.2-6.7c8.5-2.6,16.7-5.6,24.6-9.1c-42.8-5.9-77.5-15.8-98.9-27.6
	c-15.8-8.6-24.3-18-23.1-28.3C68.6,195,176,168.9,305.1,170c129.7,1.5,232.1,29.9,228.8,63.4c-0.6,9.4-9.4,17.9-24.1,25.8
	c-27,14.4-74.5,24.9-132.6,30.2c-2.1,2.9-3.8,5.9-5.3,9.1c26.4-10,56.9,5,56.9,5c1.2,0.6,2.3,1.2,3.5,1.8c38.4-7,71.6-17,96.2-28.5
	c29.3-13.8,47.2-31.1,48.7-49C581.7,177.4,461.2,135.4,308,133.6z"/>
</svg>
