<svg version="1.1" id="Layer_1" xmlns="http://www.w3.org/2000/svg" xmlns:xlink="http://www.w3.org/1999/xlink" x="0px" y="0px"
	 viewBox="0 0 600 600" style="enable-background:new 0 0 600 600;" xml:space="preserve">
<style type="text/css">
	.st0{fill:#AAAAAA;}
	.st1{fill:#FFFFFF;}
</style>
<path id="Outline_1_" class="st0" d="M384.7,0c-3.3,0-6.4,1.9-7.8,5c-1.8,3.9-0.4,8.6,3.3,10.9c19.2,11.7,35.9,27.5,48.3,45.6
	c-15.6-3.7-26-4.1-29.6-4.1c-1,0-1.6,0-1.7,0c-4.2,0.2-7.7,3.5-8.1,7.8c-0.4,4.2,2.4,8.1,6.5,9.1c0.2,0.1,24.9,6.2,51.9,25.8
	c5.2,16.1,7.9,32.5,7.9,48.8c0,31.3-10.1,63.6-27.7,88.5c-4.4,6.2-8.7,11.6-13.4,16.5c1.8-32-7-83-65.4-106.4
	c-1-0.4-2.1-0.6-3.2-0.6c-3.1,0-6.1,1.7-7.6,4.6c-2,3.9-0.7,8.7,3,11.1c9.4,6.1,17.5,14.1,23.5,23.3c-6.2-2-11.7-2.7-15.7-3.2
	l-1.1-0.1c-0.4,0-0.7-0.1-1.1-0.1c-3.6,0-6.9,2.3-8.1,5.8c-1.3,3.9,0.3,8.1,3.8,10.2c18.7,10.8,29.2,23.4,31.1,37.6
	c2.1,15.6-6.5,30.2-12.6,38.3c-15.8-18.2-26.1-49.4-29-61.1c-1-3.9-4.4-6.5-8.3-6.5c-0.3,0-0.7,0-1,0.1c-4.3,0.5-7.5,4.1-7.6,8.5
	c-0.2,38.2,10.1,64.2,20.6,80.8c-15.9,8.3-31.6,8.7-34.9,8.7c-0.3,0-0.5,0-0.6,0s-0.2,0-0.3,0c-0.1,0-0.2,0-0.3,0c0,0-0.2,0-0.6,0
	c-3.3,0-18.9-0.5-34.9-8.7c10.5-16.5,20.8-42.5,20.6-80.8c0-4.3-3.3-7.9-7.6-8.5c-0.3,0-0.7-0.1-1-0.1c-3.9,0-7.4,2.6-8.3,6.5
	c-2.9,11.7-13.3,43-29.1,61.2c-6.1-8.1-14.8-22.7-12.8-38.2c1.8-14,12.2-26.6,31-37.4c3.5-2,5.1-6.3,3.8-10.1
	c-1.2-3.5-4.5-5.8-8.1-5.8c-0.4,0-0.7,0-1.1,0.1l-1,0.1c-3.9,0.5-9.2,1.1-15.4,3.1c6-9.3,14-17.4,23.4-23.5c3.7-2.4,5-7.2,2.9-11.1
	c-1.5-2.9-4.5-4.6-7.6-4.6c-1.1,0-2.1,0.2-3.2,0.6c-43.5,17.4-58.4,50-63.2,74.3c-2.3,11.4-2.7,22.6-2.1,32.1
	c-4.7-5-9-10.4-13.4-16.6c-17.6-24.8-27.7-57.1-27.7-88.5c0-16.5,2.6-32.9,7.9-48.8c27.1-19.5,51.8-25.8,52.1-25.9
	c4.1-1,6.9-4.9,6.5-9.1s-3.8-7.5-8-7.8c-0.2,0-0.9,0-2,0c-4.5,0-14.6,0.5-29.2,4c12.5-18.1,29.1-33.8,48.1-45.4
	c3.7-2.2,5.2-6.9,3.4-10.9c-1.4-3.1-4.5-5-7.8-5c-0.9,0-1.7,0.1-2.6,0.4c-8.3,2.6-28.4,10.4-49.2,28.2c0.9-2.3,0.8-4.8-0.5-7.1
	c-1.5-2.9-4.5-4.5-7.6-4.5c-1,0-1.9,0.2-2.9,0.5c-0.7,0.2-16.7,6.1-34.6,21.5C101.3,53.3,80.1,78.6,72,118.7
	c-7.9,39.3,0.4,75.6,25.5,110.9c12.7,17.9,28.7,34.1,45.2,49c-3.1,0.2-6,1.6-8.1,4.1c-2.4,2.9-3.4,6.8-2.8,10.9l1.2,10.1
	c0.7,6.5,5.1,38.8,25,49.8c4.2,2.4,11.1,5,30.2,6.3l20.8,1.4l-2.2,7.3c-0.7,2.4-0.4,4.9,0.9,7l14.9,23.8c-0.4,0.6-0.6,1.3-0.8,2
	l-32.3,114.8c-0.9,3.3,0.2,6.8,2.8,8.9l88.6,72.9c1.6,1.3,3.5,2,5.4,2c1.5,0,3.1-0.4,4.5-1.3c3.1-1.9,4.7-5.6,3.9-9.1l-20-90.4
	l18.6,22.6c1.6,2,4.1,3.1,6.6,3.1l0,0c2.6,0,5-1.2,6.6-3.2l18.1-22.2l-19.9,90.1c-0.8,3.6,0.8,7.2,3.9,9.2c1.4,0.8,2.9,1.3,4.5,1.3
	c1.9,0,3.9-0.7,5.5-2l88.6-73c2.6-2.2,3.7-5.7,2.8-8.9l-32.3-114.8c-0.2-0.7-0.5-1.4-0.8-2l14.9-23.8c1.3-2.1,1.6-4.6,0.9-7
	l-2.2-7.3l20.7-1.4c18.6-1.3,25.4-3.8,30-6.3c0,0,0.1,0,0.1-0.1c19.8-11.1,24.3-43.3,25-49.8l1.2-10.1c0.7-4-0.3-8-2.8-10.9
	c-2.1-2.5-5-3.9-8.1-4.1c16.6-14.9,32.6-31.1,45.3-49.1c25-35.3,33.3-71.5,25.5-110.8c-8.1-40.1-29.3-65.4-45.7-79.6
	c-17.8-15.4-33.9-21.3-34.6-21.6c-1-0.3-1.9-0.5-2.9-0.5c-3.1,0-6,1.7-7.6,4.5c-1.2,2.3-1.3,4.9-0.4,7.2c-20.9-18-41-25.7-49.3-28.3
	C386.5,0.1,385.6,0,384.7,0L384.7,0z"/>
<path id="Green" d="M112.8,247.3L112.8,247.3L112.8,247.3L112.8,247.3z M345.8,155.5c76,30.5,60.1,110.7,56,121
	c12.4-9.3,22.5-19.5,32.9-34.1c18.5-26.2,29.2-60.3,29.2-93.5c0-18.8-3.3-36.9-9.2-54.1c-29.7-22.3-57.1-28.9-57.1-28.9
	s18.5-1,49.2,9.9c-13.5-27.4-35.6-51.1-62.2-67.3c20.6,6.5,61.9,27.8,86.5,80.4c9.9,6.7,18.2,15.3,27.2,26.4
	c-9.3-43.1-31.7-73.5-53.8-89.8c0,0,60.1,21.8,74.8,94.8c17,85.2-51,138.4-106.1,184l41.8-17c2.8-1.2,4.9,1.6,4.3,4.9l-1.2,10.4
	c-0.6,5.6-4.9,34.5-20.7,43.3c-3.4,1.8-9.3,4-26.5,5.3l-31.4,2.1l5.3,17.6L354,420.2l15.8-16.6L402,518.4l-88.6,73l27.7-125.3
	l-40.9,50.2L259,466.2l27.7,125.3l-88.7-73l32.3-114.8l15.8,16.6L215.3,371l5.3-17.6l-31.4-2.1c-17.5-1.2-23.4-3.4-26.5-5.3
	c-15.8-8.7-20.1-37.6-20.7-43.3l-1.2-10.4c-0.6-3.3,1.5-6.1,4.3-4.9l41.8,17c-55.2-45.6-123.2-98.9-106.1-184
	c14.7-73.2,74.8-94.8,74.8-94.8c-22,16.3-44.5,46.9-53.8,89.8C111,104.3,119.3,95.7,129,89c24.3-52.6,66.1-73.9,86.5-80.4
	c-26.4,16-48.6,39.8-62.2,67.2c30.7-11,49.2-9.9,49.2-9.9s-27.4,6.7-57.3,28.9c-5.9,16.9-9.2,35.1-9.2,54.1
	c0,33.3,10.8,67.4,29.2,93.5c10.4,14.7,20.6,24.8,32.9,34.1c-4-10.4-19.9-90.5,56-121c-17.9,11.6-31.7,30-37.2,51.4
	c13.8-13.2,28-14.4,35.8-15.4c-70.5,40.6-14.4,95.7-14.4,95.7c22.1-18.7,35.1-60.3,37.9-71.7c0.2,44-14.4,70.5-24.3,83.3
	c22.8,15.7,48.1,14.7,48.1,14.7s25.4,1,48.1-14.7c-9.9-12.8-24.6-39.2-24.3-83.3c2.8,11.4,15.8,53,37.9,71.7
	c0,0,55.7-55.3-14.8-95.9c7.7,1,22.4,2.2,36.2,15.7C377.8,185.6,363.9,167.1,345.8,155.5z M480.9,117.9c9.9,34.9-3.3,94.2-3.3,94.2
	s34.7-54.8,11-85.5C486.2,123.6,483.5,120.5,480.9,117.9z M119.5,117.9c-2.7,2.8-5.3,5.6-7.7,8.7c-23.6,30.7,11.1,85.5,11.1,85.5
	S109.9,152.8,119.5,117.9z M98.9,232.7L98.9,232.7L98.9,232.7L98.9,232.7z"/>
<path id="White" class="st1" d="M155.5,302.3c0,0,3.1,25.8,13.8,31.7c7.3,4,25,3.7,40.6,4.9C192.5,332.2,167.2,313.9,155.5,302.3
	L155.5,302.3z M445.1,302.3c-12,11.6-37.2,29.9-54.4,36.6c15.4-1.2,33.3-0.9,40.6-4.9C442,328.1,445.1,302.3,445.1,302.3
	L445.1,302.3z M351.7,341.1c-0.4,0-0.9,0-1.2,0.2c-8.6,3.9-16.9,7.7-21.3,9.8c-1.8,0.9-2.2,3.3-0.9,4.5c4.3,4.3,12.2,8.3,21.8,1
	c5.1-3.9,5-9.5,4.5-13.2C354.2,342.1,352.9,341.1,351.7,341.1L351.7,341.1z M248.8,341.2c-1.2,0-2.4,1-2.6,2.3
	c-0.6,3.7-0.6,9.3,4.5,13.2c9.3,7.3,17.5,3.3,21.8-1c1.2-1.5,0.9-3.7-1-4.5c-4.5-2.1-13-5.9-21.3-9.8
	C249.7,341.4,249.2,341.2,248.8,341.2L248.8,341.2z M290.7,361.1l-8.3,27.2c0,0-2.8,10.8-14.7,18.2l-5.1,22.4l12.4,16.9h13.2
	L276,427.7l2.1-11.1c5.5,5.9,13.5,9.8,22.1,9.8s16.6-3.7,22.1-9.8l2.1,11.1l-12.2,18.1h13.2l12.4-16.9l-5.1-22.4
	C321,399,318,388.3,318,388.3l-8.3-27.2l-9.5,4.6L290.7,361.1L290.7,361.1z M282.3,456.1l8.6,11.6h18.7l8.6-11.6H282.3L282.3,456.1z
	"/>
</svg>
