<svg version="1.1" id="Layer_1" xmlns="http://www.w3.org/2000/svg" xmlns:xlink="http://www.w3.org/1999/xlink" x="0px" y="0px"
	 viewBox="0 0 600 600" style="enable-background:new 0 0 600 600;" xml:space="preserve">
<style type="text/css">
	.st0{fill:#FFFFFF;}
	.st1{fill:#555555;}
</style>
<path id="Outline" class="st0" d="M600,300c0,165.7-134.3,300-300,300S0,465.7,0,300S134.3,0,300,0l0,0C465.7,0,600,134.2,600,300
	C600,299.9,600,300,600,300"/>
<path id="Blue" d="M17.9,359C50.5,514.8,203.2,614.7,359,582.1c75.1-15.1,140.8-59.9,182.2-124.3c41.3-64.2,56-141.9,41-216.8
	C549.5,85.3,396.9-14.6,241.2,17.7C85.3,50.3-14.7,203,17.9,358.9C17.9,358.9,17.9,358.9,17.9,359"/>
<path id="White" class="st0" d="M410.5,74.3c-0.9-8.8-4-17.2-8.9-24.5c33.3,13.7,63.7,33.8,89.3,59.1c-13.6,10.1-32.2,25-55,44
	c-13.8-13.2-28.2-25.6-43.3-37.2C405.7,102.8,411.8,89,410.5,74.3z M483.5,206.4c12.3-8.7,25.2-12.3,37.9-9.7
	c14.7,3,28.3,16.6,38.9,30.9c-11.3-40.8-32.1-78.4-60.7-109.6c-13.1,9.7-31.6,24.4-54.7,43.7C459,175.5,471.8,190.5,483.5,206.4z
	 M382.5,108c11.2-10.4,16.6-21.3,15.6-32.6l0,0c-1-13.1-10.1-25-19.5-34c-43.4-13.2-89.4-15.3-133.8-5.9
	c-17.1,3.6-33.8,8.8-49.9,15.6c10.5-1.6,21-2.4,31.6-2.5C276.9,48.9,328.4,68.4,382.5,108z M534.8,433.6c0.4-2.3,0.7-4.7,1.1-7.1
	c-3.8,3.5-8.6,6.1-14.2,7.8c-1.7,10.2-3.7,19.7-5.9,28.4c-51.1,67.7-131.1,107.5-215.9,107.6c15.2-7.8,29.3-17.6,41.8-29.3
	c28.7-26.3,49.6-67.8,65.3-111c-4.7,2.7-9.9,4.7-15.3,5.7c-14.6,38-33.5,73.5-58.3,96.2c-18,17.1-39.8,29.7-63.6,36.8
	c-42-4.8-82.3-19.3-117.7-42.5c-17.1-11.2-32.9-24.3-47.2-39.1c14.3-15.3,28.6-30.2,42.6-44.7c-0.2-0.1-0.4-0.2-0.5-0.3
	c-4.1-1.8-8.3-3.2-12.6-4.2c-12.5,13-25.2,26.3-37.9,39.8C65.9,442.8,45,400.6,35.6,355.2c-3.8-18.1-5.8-36.6-5.8-55.1
	c3-7.2,5.2-12.3,5.2-12.3c6.6-17.6,17.5-32.7,30.9-45.5v-12.5c0-0.1,0.4-2.6,1.5-5.7c-14,11.6-26.4,25.1-35.5,41.1
	c5.3-40.4,19.6-79.1,42-113.2c19.2-29.5,43.8-55.2,72.4-75.7c64-27,135.9-25.1,226.2,39.8c-32.6,22.5-86.5,31.7-130.5,39.1
	c-7.4,1.1-14.7,2.3-22,3.8c1.4,3.9,2.5,8,3.2,12.2c7-1.3,14-2.5,21-3.5c46.6-7.9,104.1-17.7,138.9-43.7
	c15.1,11.6,29.6,23.9,43.4,37.1c-26.5,22.5-57.8,50.2-92.7,82.2c2.7,3.3,4.9,7,6.6,11c36.1-33.1,68.3-61.5,95.2-84.4
	c14,13.7,26.8,28.7,38.2,44.7c-18.5,17.6-34.2,46.7-42.7,82.5l-2.5,10.5c-2.5,10.5-5.2,22.2-8.3,34.6L434,338
	c2.4-9.9,4.6-19.2,6.6-27.8l2.5-10.4c8.1-34,22.4-59.4,37.8-74.6c24,37.4,36.6,75.2,41.9,110.8c6.6,1.3,11.1,3.9,14.1,7
	c-5.6-44.8-21.4-88-46.4-126.2c9.8-6.9,19.6-9.7,28.3-7.9l0,0c18.9,3.9,39.1,35.6,48.8,53.8C576,321.8,564.4,381.9,534.8,433.6z
	 M197.2,391.6c-1.5-4.4-2.7-9.1-3.7-14c-11,11.1-22.2,22.4-33.5,33.9c-0.1,5.8,0.1,11.6,0.6,17.3
	C172.9,416.1,185.2,403.7,197.2,391.6z"/>
<path id="_x36_ers" d="M393,410.3c-9.7,0-15.4-8.8-16.3-17.7l41.5-11.2c-1.2-20.3-13-38.2-35-38.2c-23.5,0-39.1,18.3-39.1,45.3
	c0,21.1,12.1,40.2,37.5,40.2c14.7,0.3,28.5-7.2,36.2-19.8l-8.2-9.8C405.7,405.4,401,410.3,393,410.3z M374.7,372
	c0-6.2,0-17.7,6.8-17.7c6.3,0,7.9,9.7,7.9,15c0.6,4.4-2.6,8.5-7,9c-0.1,0-0.2,0-0.4,0l-7.4,2L374.7,372z M461.2,426.3h-43.8v-11.1
	l7.9-1.2v-34.3c0-12.3-1.6-18.2-10.4-18.2v-9.7l31.2-9.1c3.2,7.1,5,14.8,5.2,22.6h0.3c3.2-9.4,7.1-22.5,17.2-22.5
	c8.9,0,12.8,6.9,12.8,15.3c0,8.5-3.8,15.4-10.2,15.4c-3.6-0.2-7.1-1.1-10.4-2.6c-5.6-1.9-7.5,22.8-7.5,28v15l7.8,1.2L461.2,426.3
	L461.2,426.3z M535,359c0,6.8-5.9,10.2-12.1,10.2c-7.4-0.4-13.4-6.1-14.3-13.4c-3.2,0-5.5,1.6-5.5,7.1c0,12.7,35.9,3.6,35.9,35.8
	c0,24.1-17.5,30.1-34.2,30.1c-10.2,0-28-1.3-28-16.9c0-7.1,3.9-12.4,11-12.4c10.8,0,12.7,10,14.6,17c0.5,1.5,2,2.4,3.6,2.2
	c5.8,0,10-2.3,10-6.2c0-14.4-36.8-8.8-36.8-40.2c0-19.9,23.5-28.8,34.9-28.8C526.9,343.4,535,347.7,535,359 M289.8,306.1
	c-14,0-28.3,5.6-35.8,17.3h-0.3l1.4-20.2c0.9-13.7,3.9-50.9,22.9-50.9c9.1,0,7.1,12.1,8.1,17.6c2.5,12.8,8.1,27.7,25.8,27.7
	c13,0.6,24.1-9.5,24.6-22.5c0-0.6,0-1.1,0-1.7c0-25.1-20.9-41.5-46.4-41.5c-65.3,0-91.6,49.9-91.6,110.3c0,52.5,20.3,97.8,76.6,97.8
	c36.5,0,66.1-26,66.1-69.5C341,333.5,321.5,306.1,289.8,306.1z M270.3,419.3c-15.6,0-15-20-15-43.1s2.2-43,15-43
	c15.7,0,16.4,19.9,16.4,43C286.9,399.2,283.6,419.3,270.3,419.3z"/>
<path id="_x37_" class="st1" d="M73.8,230.6v77.9c43.6,6.5,95.6,2.2,132.5-51.6c1.6-2.3,2.5-0.7,1.4,1.3
	c-10.2,20.9-34.6,40.2-55.7,56.8c-20.2,15.9-74.4,72.7-73.7,122.7c0,3.9,0.1,2.7,3.6,0.3c16.4-12.3,48.6-12.5,68.4-3.2
	c2.7,1.3,3,0.9,2.6-2.6c-3.8-38.8,4.9-81.1,21.5-105.7c11.4-17,42.3-60.9,47.6-95.2c0.6-3.6-1.3-3-5.8,1.7
	c-34.9,36.9-97.9,35.9-138.8-3C75.1,227.3,74,228.5,73.8,230.6"/>
<path id="Stars" d="M149.4,111.9l2.5,7.9h8.5l-6.9,4.9l2.5,7.8l-6.5-4.8l-6.8,4.8l2.6-7.8l-6.9-4.9h8.5L149.4,111.9z M199,140.9
	l2.6,7.8h8.5l-6.9,5l2.5,7.8l-6.6-4.8l-6.6,4.8l2.6-7.8l-6.9-5h8.5L199,140.9z M177.7,118.6l2.6,7.8h8.5l-6.9,5l2.5,7.8l-6.5-4.8
	l-6.6,4.8l2.5-7.8l-6.9-5h8.5L177.7,118.6z M207.3,168.2l2.5,7.9h8.5l-6.9,5l2.6,7.8l-6.6-4.8l-6.6,4.8l2.5-7.8l-6.8-5h8.4
	L207.3,168.2z M203.7,197.2l2.6,7.9h8.4l-6.8,5l2.5,7.8l-6.6-4.9l-6.6,4.9l2.5-7.9l-6.8-4.9h8.5L203.7,197.2z M187.6,220.2l2.5,7.9
	h8.5l-6.8,5l2.5,7.8l-6.5-4.8L181,241l2.6-7.8l-6.9-5h8.5L187.6,220.2z M162.5,233.2l2.6,7.9h8.4l-6.9,5l2.6,7.8l-6.6-4.8l-6.6,4.8
	l2.5-7.8l-6.8-5h8.4L162.5,233.2z M98.8,138.3l-2.6,7.9h-8.4l6.8,4.9l-2.5,7.8l6.5-4.8l6.8,4.8l-2.6-7.8l6.9-4.9h-8.5L98.8,138.3z
	 M119.6,118.6l-2.6,7.8h-8.4l6.8,5l-2.5,7.8l6.6-4.8l6.6,4.8l-2.5-7.8l6.8-5H122L119.6,118.6z M89,164.7l-2.5,7.9H78l6.9,4.9
	l-2.5,7.9l6.5-4.9l6.6,4.9l-2.5-7.9l6.9-4.9h-8.4L89,164.7z M91.7,193.6l-2.6,7.9h-8.5l6.9,5l-2.5,7.8l6.5-4.8l6.6,4.8l-2.5-7.8
	l6.8-5H94L91.7,193.6z M107.6,217.2l-2.5,7.9h-8.5l6.9,5L101,238l6.6-4.9l6.8,4.9l-2.6-7.8l6.8-5h-8.4L107.6,217.2z M132.7,232.2
	l-2.5,7.9h-8.5l6.9,5l-2.5,7.8l6.5-4.8l6.8,4.8l-2.6-7.9l6.9-4.9h-8.5L132.7,232.2z"/>
</svg>
