<svg version="1.1" id="Layer_1" xmlns="http://www.w3.org/2000/svg" xmlns:xlink="http://www.w3.org/1999/xlink" x="0px" y="0px"
	 viewBox="0 0 600 600" style="enable-background:new 0 0 600 600;" xml:space="preserve">
<style type="text/css">
	.st0{fill:#FFFFFF;}
	.st1{fill:#AAAAAA;}
	.st2{fill:#555555;}
</style>
<path id="Outline" class="st0" d="M431.6,52.6c-2.3,0-4.6,0.9-6.3,2.6L376.1,104l-90.6-40.5c-1.2-0.5-2.4-0.8-3.6-0.8
	c-1.5,0-2.9,0.4-4.3,1.1c-2.4,1.3-4.1,3.7-4.5,6.5L261,149.9l-79.8,17.6c-3.6,0.8-6.3,3.7-6.9,7.3c-0.6,3.6,1.1,7.2,4.2,9.1
	l36.9,22.1l-36.6,18.4c-3.6,1.8-5.5,5.7-4.8,9.6c0.7,3.9,4,6.9,8,7.2l20.9,1.9L42.3,367.5c-3.7,2.8-4.5,8-2,11.9
	c1.7,2.6,4.6,4.1,7.5,4.1c1.4,0,2.8-0.3,4.2-1l83.2-44.1L29.6,418.7c-3.7,2.8-4.6,8-2.1,11.9c1.7,2.7,4.6,4.1,7.5,4.1
	c1.4,0,2.8-0.3,4.1-1l108.5-56.5L15.5,476.4c-3.7,2.8-4.7,8-2.2,11.9c1.7,2.7,4.6,4.1,7.5,4.1c1.4,0,2.9-0.3,4.2-1l127.1-67.7
	L3.7,531.2c-3.8,2.8-4.8,8-2.3,12c1.7,2.7,4.6,4.2,7.5,4.2c1.4,0,2.9-0.4,4.3-1.1L205.8,441L93.3,531.5c-3.6,2.9-4.4,8.1-1.8,12
	c1.7,2.5,4.5,3.9,7.4,3.9c1.5,0,3-0.4,4.4-1.2l215.2-123.5l-1.2,8.9c-0.5,3.4,1,6.7,3.8,8.6c1.5,1,3.3,1.6,5,1.6
	c1.5,0,3-0.4,4.4-1.1l32.7-18.4l82.1,77.8c1.7,1.6,3.9,2.4,6.1,2.4c0.7,0,1.5-0.1,2.2-0.3c3-0.7,5.3-2.9,6.3-5.8l44.4-133.5
	l60.9-3.8c2.9-0.2,5.5-1.7,7-4.1s1.8-5.4,0.7-8.1l-31.4-78l55.1-43.1c2.5-2,3.8-5.1,3.3-8.3s-2.6-5.8-5.6-7l-71.2-28l18.1-76.7
	c0.8-3.3-0.4-6.8-3-8.9c-1.6-1.3-3.6-2-5.7-2c-1.3,0-2.5,0.3-3.7,0.8l-58.5,26.8l-30.8-64.4c-1.2-2.6-3.7-4.4-6.5-4.9
	C432.6,52.7,432.1,52.6,431.6,52.6L431.6,52.6z"/>
<polygon id="Yellow" points="8.9,538.4 289.3,385.1 98.9,538.4 329.9,405.8 326.1,432.8 364.6,411.2 451.5,493.5 497.7,354.3 
	564.6,350 530.7,265.8 591.1,218.6 512.7,187.7 532.6,103.5 466.2,133.9 431.6,61.5 378,114.7 281.8,71.6 268.8,157.3 183,176.2 
	233.9,206.6 182.7,232.3 226.2,236.2 47.7,374.6 227.3,279.3 35,425.7 239.7,319.2 20.8,483.5 261.9,355.1 "/>
<path id="Orange" class="st1" d="M521.8,266.9c-3.2,77-68.4,136.7-145.4,133.5C299.5,397.1,239.8,332,243,255
	c3.2-76.8,68.1-136.5,144.9-133.5C465.2,124.8,525.1,189.8,521.8,266.9z"/>
<path id="Dark_Orange" class="st2" d="M399.6,381.6c-77-3.1-137-68-133.9-144.9c1.4-34.3,15.3-66.9,39.3-91.5
	C240.8,188,223.7,274.8,266.6,339c24.7,37,65.6,60,110,62c39.8,1.5,78.4-13.9,106.1-42.3C458.2,375,429,383,399.6,381.6z"/>
<path id="Ball_Lines" d="M521.8,262.7c0.3-4.9,0.1-9.8-0.4-14.6c-8.6-6.2-18.4-10.1-28.9-11.5c-2.2,0-4.2-0.4-6.6-0.4
	c-1.3-9.3-3.4-18.4-6.2-27.3c1.4,0.3,2.8,0.4,4.2,0.4c10,0.7,19.6,2,29.3,3.5c-1.3-3.6-2.8-7.3-4.6-10.8
	c-10.4-1.5-21.6-2.7-32.7-3.5l0,0c-3.5-9.1-7.7-17.8-12.8-26.2c6.9-1.3,13.3-4.5,18.5-9.3c-2.7-2.7-5.3-5-8.1-7.7
	c-4.8,4.2-10.7,6.7-17,7.3c-1.1-1.5-2.2-3.1-3.1-4.2c-9.4-12.1-20.3-22.7-32.7-31.5c-10.8-3.2-21.9-5-33.1-5.3h-1.5
	c21.7,8.8,40.8,23,55.4,41.2c-16.3-2.2-32.4-6-48.1-11.2c-5-1.5-9.7-2.7-14.3-4.2c-21.4-6.3-43.9-8.8-66.2-7.7
	c-12.1,7-23.1,15.6-32.7,25.8c17.7-7.3,53.1-19.6,96.2-7.7c4.6,1.1,9.3,2.2,14.3,3.8c18.8,5.7,40.4,11.9,58.9,11.9
	c4.9,7.7,9.4,15.8,13,24.3c-3.6-0.3-7.1-0.4-10.8-0.4c-90-1.5-166.5,25-209.2,68.1c0.1,8.4,1,16.8,2.7,25
	c11.9-17.2,30-33.1,53.1-46.1c43-24.3,100.8-36.9,161.9-36.2c2.2,0,4.2,0.4,6.6,0.4c3.1,8.8,5.3,18.1,6.9,27.3
	c-39.7,2-65,26.2-94.6,52.7c-26.2,23.4-58.5,47-105.4,61.1c4.5,5.3,9.4,10.4,14.6,15c44.2-17.7,73.5-45.4,98.4-67.7
	c28.5-25.4,52.7-49.6,88-50.7c1.1,10,1.1,20,0,30c-4.6,54.7-36.6,101.2-79.6,124.2c10.9-1.1,21.6-3.4,32-6.9c3.5-3.1,6.9-6.2,10-9.3
	c28.7-28.6,46.4-66.4,49.6-107c1.1-10.2,1.1-20.6,0-30.7c2,0.4,3.8,0.4,5.3,0.7C503.8,249.3,514,254.6,521.8,262.7z"/>
</svg>
