<svg version="1.1" id="Layer_1" xmlns="http://www.w3.org/2000/svg" xmlns:xlink="http://www.w3.org/1999/xlink" x="0px" y="0px"
	 viewBox="0 0 600 600" style="enable-background:new 0 0 600 600;" xml:space="preserve">
<style type="text/css">
	.st0{fill:#FFFFFF;}
</style>
<path id="Gold" d="M600,144.7v-44.1l-10.8-10.9C450.9-41.9,154.6,130.9,54,214.2L4.4,291.4l61.8-15.3c-94.9,118.8-61,196.9-57,205
	c10,28.1,32.8,50.6,69.8,65.3c28.1,11.2,59.9,12.6,87.3,11.3c118-5.5,257.4-79,347.5-157.5l2.1-1.8l18.2-90.2L499,327.7
	c-71.6,31.5-144.8,59.2-219.3,82.9c-64,20-93.4,23.2-114.3,18.3l-2.7-0.6c-3.9-1.3-6.7-4.8-7-8.9c-1-40.1,67.9-126.5,102.6-163.4
	c32.3-34.7,83.1-72.8,126.1-90.9c28.8-12.1,47.4-16.9,56.2-16c-3.2,9.7-7.2,19.1-11.9,28.1c0,0-33.4,66-44.5,87.8
	c-0.5,1.1-0.1,2.5,1.1,3c0.6,0.3,1.4,0.3,2,0L600,144.7z"/>
<path id="Red" class="st0" d="M326.8,138.2c-39.7,21.1-85.2,63.2-99.4,78.2C111.4,340,30.1,505.1,284.2,426
	c75.2-23.9,149.1-51.8,221.3-83.8c-347,293.1-674.6,170.4-352.2-137.6c-29.4,6.7-59,13.1-88,21.1C168.6,140.2,451.6-19,578,101.3
	l-135.3,82.8c58-113.6-46.4-86.9-116.1-45.9"/>
</svg>
