<svg version="1.1" id="Layer_1" xmlns="http://www.w3.org/2000/svg" xmlns:xlink="http://www.w3.org/1999/xlink" x="0px" y="0px"
	 viewBox="0 0 600 600" style="enable-background:new 0 0 600 600;" xml:space="preserve">
<style type="text/css">
	.st0{fill:#FFFFFF;}
</style>
<path id="Yellow_Circle" d="M300.2,0C465.7,0.3,599.8,134.5,600,300c0,165.4-134.6,300-299.8,300C134.5,600.1,0.1,465.9,0,300.2
	c-0.1-79.6,31.6-156,87.9-212.3C144.1,31.4,220.5-0.2,300.2,0"/>
<path id="Red_Circle" class="st0" d="M300.2,576.2c152,0,275.8-123.8,275.8-276.2c0-152.1-123.8-276-275.8-276
	C147.8,23.9,24,147.8,24,299.9C24,452.3,147.8,576.2,300.2,576.2"/>
<path id="Blue_Circle" d="M44.4,299.9C44.4,159,159.2,44.4,300,44.4c141.1,0,255.5,114.5,255.5,255.6S441.1,555.4,300,555.5
	C159.2,555.6,44.4,440.9,44.4,299.9"/>
<path id="Yellow" class="st0" d="M326,100.5l-11,14.4l-15.1-36.3l-92.5,113l40.8-10.5l51.8,65.1l51-65.4l51.3,13.3L326,100.5z
	 M501.3,192.9l5.7-3.2l-18.3-28.5l-5.1,3.8c-31.2-39.4-86.7-83.4-139.5-90c39.8,18.1,84.5,64.5,111.8,100.2L427.3,196l3.4,5.2
	L301,285.5l-129.6-84.2l3.5-5.2l-28.8-20.8c27.4-35.7,72-82,111.9-100.2c-52.6,6.6-108.1,50.5-139.2,89.8l-5.4-3.9l-18.3,28.4
	l5.7,3.3l-0.2,0.3C77.8,237.9,61,307,77.4,357.7c-0.4-43.8,23.1-104,44.2-144l30.9,17.4l3.2-5L276,301.7L117.3,404.9l-0.3-0.3
	l-21.3,5.7l0.3,0.6c-1,3.9,0.9,11.2,5.4,18.3c4.5,7.2,10.2,11.9,14.5,12.8l0.3,0.6l14.1-17.1l-0.1-0.3l316.1-198.7l3.2,5l31.1-17.4
	c21.2,40,44.7,100.3,44.4,144C541.1,307.1,524.1,237.8,501.3,192.9 M484.9,404.6l-0.3,0.3l-145.9-94.8l-25.5,15.1L471.7,425
	l-0.1,0.3l14.1,17.1l0.4-0.6c4.2-0.8,9.9-5.6,14.6-12.8c4.3-7.1,6.4-14.2,5.4-18.3l0.3-0.6L484.9,404.6z M245.6,501
	c13-12.5,29.9-20.3,47.8-22.1v-25.1h-69.2C225.6,471.6,233.1,488.3,245.6,501 M293.2,524.3v-29.7c-13.4,1.6-26,7.4-36,16.5
	C268,518.4,280.3,522.9,293.2,524.3 M308.7,453.9v25c18,1.6,34.8,9.4,47.7,22.1c12.5-12.7,20.1-29.4,21.5-47.1H308.7L308.7,453.9z
	 M308.7,524.3c12.9-1.3,25.2-5.8,35.8-13.2c-9.9-9.1-22.5-14.9-35.8-16.5V524.3z"/>
<path id="White" class="st0" d="M326,139.8v-39.3l-11,14.4L326,139.8z M299.9,78.6l-92.5,113l40.8-10.5l51.8,65.1V78.6H299.9z
	 M308.7,370.5v29.6c13.4-1.5,26-7.3,35.8-16.5C333.9,376.3,321.5,371.8,308.7,370.5 M356.4,393.8c-13,12.5-29.8,20.2-47.7,21.9v22.8
	h69C375.6,421.6,368.2,406,356.4,393.8 M293.2,400.1v-29.6c-12.9,1.3-25.2,5.8-35.8,13.2C267.4,392.7,279.9,398.5,293.2,400.1
	 M224.3,438.5h69v-22.8c-17.9-1.8-34.8-9.5-47.8-21.9C233.7,406,226.3,421.7,224.3,438.5"/>
</svg>
