<svg version="1.1" id="Layer_1" xmlns="http://www.w3.org/2000/svg" xmlns:xlink="http://www.w3.org/1999/xlink" x="0px" y="0px"
	 viewBox="0 0 600 600" style="enable-background:new 0 0 600 600;" xml:space="preserve">
<style type="text/css">
	.st0{fill:#FFFFFF;}
</style>
<path id="Grey_Circle" class="st0" d="M600,300c0,165.7-134.3,300-300,300S0,465.7,0,300S134.3,0,300,0s300,134.2,300,299.9V300"/>
<path id="Blue_Circle" d="M591.4,300c0,160.9-130.4,291.4-291.4,291.4S8.6,460.9,8.6,300S139.1,8.6,300,8.6l0,0
	C460.9,8.6,591.3,139,591.4,300L591.4,300"/>
<path id="Red_Circle" d="M548.4,300c0,137.2-111.2,248.5-248.4,248.5S51.5,437.3,51.5,300.1S162.7,51.6,299.9,51.6
	C437.1,51.5,548.4,162.7,548.4,300L548.4,300"/>
<path id="White" class="st0" d="M300,51.6C162.8,51.6,51.6,162.8,51.6,300S162.8,548.4,300,548.4S548.4,437.2,548.4,300
	C548.3,162.9,437.1,51.7,300,51.6 M65.9,307.3h45.7v-14.6H65.9c0.2-5.5,0.4-11,1-16.5c16.1-81.6,114.5-144.6,233-144.6
	s216.8,62.9,233,144.6c0.5,5.4,0.8,10.9,1,16.5h-45.7v14.6H534c-0.2,5.5-0.4,11-1,16.5c-16.2,81.6-114.5,144.6-233,144.6
	S83.2,405.5,67,323.8C66.4,318.3,66,312.9,65.9,307.3 M300,65.8c96.6,0.1,183.2,59.4,218.2,149.4c-41.7-57-123.9-95.8-218.2-95.8
	s-176.7,38.9-218.2,95.8C116.8,125.2,203.4,65.9,300,65.8 M300,534.3c-96.6-0.1-183.2-59.4-218.2-149.4
	c41.7,57,123.9,95.8,218.2,95.8s176.7-38.9,218.2-95.8C483.1,474.8,396.5,534.1,300,534.3 M195,385.4h17.5v-78.9H195V385.4z
	 M262.3,306.6h-0.5c-4.9,0-22.9-0.1-26.4,0h-0.9c-5.3,0-8.6,2.5-9.5,7.1c-0.1,0.4-0.1,0.9-0.1,1.4c0,0.2-1.2,15,0.2,19.2
	c2.4,6.8,7.8,9.3,12.9,10.8c0.2,0,0.3,0.1,0.5,0.1l0.9,0.3c0.5,0.2,0.9,0.5,1.1,0.9l0.1,28.4h-14.5l0.1,10.5h19.1
	c6.7-0.3,11.1-3.2,12.9-8.2c0.5-3.9,0.5-30.3,0.2-35.8c-0.1-2.1-1.2-4.1-3-5.3c-0.9-0.7-1.8-1.3-2.8-1.9c-1-0.5-2.2-1.1-3.2-1.6
	c-4.2-2-8.8-4.3-8.8-9.6v-4.5h13.8c2.8,0,5.3-1.5,6.6-4c0.7-1.3,1.2-2.7,1.5-4.2c0.1-1.1,0.1-2.2,0-3.3L262.3,306.6z M342.6,306.5
	c-3.8-0.2-7.6,0.2-11.4,1c-8.6,2.1-12.8,7.8-12.8,17.6v47c0,12,8.6,14.5,21.6,14.5c15.6,0,24.6-5.5,24.6-15.2v-49
	C364.6,306.5,354.5,306.5,342.6,306.5 M336.9,324.3c0-1.6,0.2-3.3,0.5-4.9l0.3-0.3c0.8-0.1,1.7-0.2,2.5-0.2h0.3
	c5.9,0.1,6.1,1.9,6.1,12.6v32.9c0,1,0,1.9-0.1,2.9c0,0.9-0.1,1.8-0.3,2.7l-0.3,0.3c-1,0.1-2.1,0.2-3.1,0.2c-1.7,0.1-3.4-0.4-4.7-1.5
	c-1.4-1.5-1.5-3.9-1.4-6.7V329C336.8,329.3,336.8,325.5,336.9,324.3 M405.3,340.1c-8.4-30.4-21.9-33.8-27.4-33.8
	c-0.8,0-1.6,0.1-2.4,0.2l-0.4,0.1v78.9h17.8v-31.8l12.4,31.8h18.1v-79h-18V340L405.3,340.1L405.3,340.1z M173.5,306.5l-44.4,0.1
	h-0.5v0.5c0,5.8,4.2,10.8,10,11.6v66.9h18.2V352h15.3c8.1,0,12.7-5.3,12.7-14.6v-2.8C184.9,312.1,184,307.6,173.5,306.5
	 M166.5,341.6h-9.9v-22.9c0,0,5.4-0.1,6.1,0c2,0.2,3.8,1,3.8,3.3C166.6,322.7,166.5,341.6,166.5,341.6 M313,306.6h-41.1V319h11.8
	v66.6h18.1v-66.7h0.6c2.8,0.2,5.6-0.9,7.6-2.9c2.1-2.5,3.2-5.6,3-8.9V306.6z M471.3,306.6h-0.5c-4.9,0-22.9-0.1-26.4,0h-0.9
	c-5.3,0-8.6,2.5-9.5,7.1c-0.1,0.4-0.1,0.9-0.1,1.4c0,0.2-1.3,15,0.2,19.2c2.4,6.8,7.8,9.3,12.9,10.8c0.2,0,0.3,0.1,0.5,0.1l0.9,0.3
	c0.5,0.2,0.9,0.5,1.1,0.9l0.1,28.4h-14.5l0.1,10.5h19.1c6.7-0.3,11.1-3.2,12.9-8.2c0.5-3.9,0.5-30.3,0.2-35.8
	c-0.1-2.1-1.2-4.1-3-5.3c-0.9-0.7-1.8-1.3-2.8-1.9c-1-0.5-2.2-1.1-3.2-1.6c-4.2-2-8.8-4.3-8.8-9.6v-4.5h13.8c2.8,0,5.3-1.5,6.6-4
	c0.7-1.3,1.2-2.7,1.5-4.2c0.1-1.1,0.1-2.2,0-3.3L471.3,306.6z M309.9,257.8h3c2.9,0.1,7.8,0.9,7.8,6.2c0,2.5,0.2,10.4,0.3,13.3v1.1
	c0,1.7,0.2,3.3,0.4,5c1.3,4.6,4.8,7.4,10.4,7.9h5.1v-28.1c-0.2-3-1.4-5.9-3.2-8.2l-0.4-0.5c2.8-3.1,4.2-7.1,4-11.2v-2.7
	c0-21.8-0.8-26.1-11-27.3h-34v77.1h17.6L309.9,257.8L309.9,257.8z M310,225.6h3.5c4.6,0.1,6.4,0.1,6.1,8.2c0,6.5,0,6.9-0.1,10.1v0.6
	c0,0.9-0.4,1.9-0.9,2.6c-0.4,0.4-0.9,0.6-1.5,0.6H310V225.6z M419,213.4h-17.2v77.1H419V213.4z M254.5,290.6h17.6v-65.1h0.6
	c2.8,0.2,5.5-0.9,7.5-2.8c2-2.4,3.1-5.5,2.9-8.6v-0.5H243v12.1h11.5V290.6z M439.4,290.6H457v-65.1h0.6c2.8,0.2,5.5-0.9,7.5-2.9
	c2-2.4,3.1-5.5,2.9-8.6v-0.5h-40.1v12.1h11.5V290.6z M233.7,278.1h-18.4v-18.7H228v-16.7h-12.7v-17.4h18.4v-11.9h-35.5l-0.1,77.1
	h35.6L233.7,278.1L233.7,278.1z M175.8,213.4h-44l-0.1,0.5c-0.3,2.9,0.6,5.7,2.3,8c2.1,2.3,5.1,3.6,8.2,3.5v64.9H175
	c7.5,0,12.5-6.4,12.5-15.7V239C187.5,219.2,187.5,213.9,175.8,213.4 M169.7,278.1h-9.8v-52.6c2.5-0.3,5-0.1,7.4,0.3
	c2.3,0.9,2.2,5.1,2.2,5.2C170.2,237.2,169.8,273.3,169.7,278.1 M370.6,213.4c-3.8-0.1-7.6,0.2-11.4,1c-8.5,2-12.7,7.7-12.7,17.2
	v45.9c0,11.8,8.5,14.2,21.4,14.2c15.5,0,24.5-5.4,24.5-14.8V229C392.4,213.4,382.3,213.4,370.6,213.4 M364.8,230.9
	c0-1.6,0.2-3.2,0.5-4.8l0.3-0.3c0.8-0.1,1.7-0.2,2.5-0.2h0.3c5.9,0.1,6,1.9,6,12.4v32.3c0,0.9,0,1.9-0.1,2.8c0,0.9-0.1,1.8-0.3,2.6
	l-0.3,0.3c-1,0.1-2.1,0.2-3.1,0.2c-1.7,0.2-3.3-0.3-4.6-1.5c-1.4-1.5-1.5-3.8-1.4-6.5v-32.6C364.8,235.7,364.8,232.2,364.8,230.9"/>
</svg>
