<svg version="1.1" id="Layer_1" xmlns="http://www.w3.org/2000/svg" xmlns:xlink="http://www.w3.org/1999/xlink" x="0px" y="0px"
	 viewBox="0 0 600 600" style="enable-background:new 0 0 600 600;" xml:space="preserve">
<style type="text/css">
	.st0{fill:#FFFFFF;}
</style>
<path id="Blue" d="M600,300c0,165.7-134.3,300-300,300S0,465.7,0,300S134.3,0,300,0l0,0C465.7,0,600,134.3,600,300"/>
<path id="Yellow" class="st0" d="M496.2,103.7C387.9-4.6,212.2-4.7,103.8,103.6s-108.4,283.9-0.1,392.3l0.1,0.1
	c108.3,108.4,283.9,108.4,392.3,0.1s108.4-283.9,0.1-392.3C496.2,103.8,496.2,103.8,496.2,103.7 M114.5,114.3
	c102.6-102.4,268.9-102.2,371.2,0.5c76.8,77,98.2,193.4,53.7,292.7c-31.9-10.8-63.2-22.8-93.9-36.5c-4.1-1.8-8.1-3.5-12.1-5.4
	l-11.9-5.6l-6-2.9l-5.9-2.9l-11.8-5.9c-3.9-2-7.9-4.1-11.7-6.2l-5.9-3.1c-2-1-3.8-2.1-5.8-3.1l-11.5-6.4l-11.4-6.7
	C321,305,291.7,285.1,264,263.1c-13.8-11-27.3-22.4-40-34.6c-6.4-6-12.6-12.3-18.6-18.8c-1.4-1.6-3-3.1-4.5-4.9
	c-1.4-1.6-2.9-3.3-4.3-5c-1.4-1.7-2.9-3.3-4.2-5c0-0.1-0.1-0.1-0.1-0.3c-0.5-19.3-0.8-30.8-0.8-30.8l-13.1-3.1v17.6h-11.1v-18.5
	l-14,3.4l0.1,6.7l-6.6,3.5c0.1,5.5,0.3,12.7,0.4,21.2c-5.4,9.3-63.5,109.7-107,140.7c-1.6-11.9-2.5-23.8-2.5-35.8
	C37.5,230.1,65.1,163.3,114.5,114.3 M459.2,428.6l-27,0.9l-22-57l4.3,2.1l12.1,6c4.1,2,8.1,3.8,12.2,5.8c1.2,0.5,2.4,1,3.4,1.6
	L459.2,428.6z M452.6,392.8c10.9,5,21.9,9.7,32.9,14.3l9,20.2l-27.1,0.9L452.6,392.8z M423.8,429.8l-27.7,0.9l-28.7-81.6
	c1.8,1,3.7,2.1,5.5,3.1l5.9,3.3c3.9,2.2,7.9,4.3,11.8,6.6l9,4.9L423.8,429.8z M388.1,431l-24.7,0.8l-35.9-107.3
	c5.5,3.5,11,7.1,16.7,10.5l11.5,7.1l1.6,0.9L388.1,431z M355.2,432.2l-25.8,0.9l-42.6-136.8c9.8,7.3,19.9,14.4,30,21.4L355.2,432.2z
	 M321.2,433.3l-24.9,0.8l-50.7-170.8c3.5,3.1,7.2,6.2,10.9,9.2c6.4,5.4,12.8,10.5,19.5,15.6L321.2,433.3z M288.3,434.4l-27.5,0.9
	l-60.6-216.2c5.2,5.9,10.8,11.5,16.4,17.2c5.9,5.9,11.9,11.5,18,17.2L288.3,434.4z M252.8,435.6l-23.9,0.8l-33.3-126.9
	c-1-32.8-2-62.9-2.6-87.3L252.8,435.6z M220.9,436.6l-20.6,0.7c-1.3-30.2-2.5-61.9-3.5-92.7L220.9,436.6z M512,454.9
	c-1.8,2.4-3.5,4.9-5.5,7.2l-305.1-6l-0.1-2.9L512,454.9z M503,427.2l-6.9-15.7c11.5,4.7,23.2,9.2,34.9,13.4
	c-0.3,0.4-0.5,0.9-0.8,1.3L503,427.2z M178.3,235.2v16.1h-12.2v14.9h12.2v16.1h-12.2v14.9h12.2v30.3h-12.2v14.9h12.2v31.2h-12.2
	v14.9h12.2v49l-11.3,0.4v-228h11.1V220H166v15h12.3V235.2z M60.6,407.6l34.2-115.3c16.7-22.4,31.7-45.9,45.1-70.4L78.5,441
	C71.7,430.3,65.7,419.2,60.6,407.6 M55.7,396.4c-6-15.4-10.6-31.4-13.6-47.6c14.5-11.9,27.8-25.3,39.6-39.9L55.7,396.4z M147.1,225
	c0,23.2-0.4,51.1-0.9,80.9l-35.3,134.4l-24.4,0.8L147.1,225z M145.4,339.6c-0.9,33.3-2.1,67.7-3.8,99.7l-22.6,0.8L145.4,339.6z
	 M98.6,468.4l41.3,1.4c-0.8,12.7-1.7,24.8-2.8,36.1c-8-6.3-15.6-13.1-22.8-20.3C108.8,480,103.6,474.3,98.6,468.4 M300,562.4
	c-32.2,0.1-64.1-5.8-94.1-17.3c-1.2-18-2.4-39.5-3.5-62.9l-24-8.1v58.6c-3.8-2-7.6-4.1-11.3-6.3v-55.6l11.3,0.4v0.4h12.2l22.2,0.8
	l276.3,9.8c-1,1.2-2.2,2.2-3.3,3.4C436.5,534.9,369.7,562.6,300,562.4"/>
</svg>
