<svg version="1.1" id="Layer_1" xmlns="http://www.w3.org/2000/svg" xmlns:xlink="http://www.w3.org/1999/xlink" x="0px" y="0px"
	 viewBox="0 0 600 600" style="enable-background:new 0 0 600 600;" xml:space="preserve">
<style type="text/css">
	.st0{fill:#FFFFFF;}
</style>
<path id="P_Grey" class="st0" d="M119,33.6L0,572.5h235.5c0,0,26.2-107.3,28.2-117h102c76.5,0.5,138.8-25.4,180.8-74.8
	c77.1-83.7,63.6-205.5,5.8-275.4c-41.2-49.8-102.7-78.6-167.6-77.8H120.3L119,33.6z"/>
<path id="P_Blue" d="M246.7,434.4l-28.2,117H26.7L137.3,49.9h246.9c58.5-0.8,114.2,24.9,151.3,70.2c54.9,66.1,60.3,176.2-5.3,247.4
	c-40.4,47-99.7,68.2-164.8,67.4L246.7,434.4z"/>
<path id="Ball" class="st0" d="M111.4,164.6h108.1c12.5,0,25.7,9.9,20.3,26.2c-3.8,10.4-6.4,21.1-7.9,32
	c-0.8,7.9,8.4,13.2,13.2,13.2h220.7c4.1,0,6.4-1.3,6.4-3.3c0-4.8-0.3-9.4-1.3-14.2c-0.8-4.6-1.3-5.8-5.3-5.8
	c-27.5,0-38.7-12.5-67.9-30.8c-28.7-18.8-71.2-29.5-107.8-29.5H112.7L111.4,164.6z M245.4,307.3c-3.8-8.6-7.1-17.8-9.7-27
	c-2.5-11.2-12.5-20.3-29.5-20.3h-116l3.3-13l376.4,0.5c3.3,0,2.8,1.8,2.5,5.8c0,4.1-1.3,11.7-1.8,16.3c-0.5,5.1-4.1,3.8-7.4,3.8
	c-12-0.3-23.6,2.8-33.6,9.2c-15.5,12-49.1,32.8-67.4,38.1C341.8,326.3,267.5,349.7,245.4,307.3z M69.9,354.6h196.3
	c7.9-0.3,15.5,2,22.1,6.6c18.3,14,38.9,24.2,61,30.3c9.9,3.3,28-0.8,43.7-9.7c39.2-22.4,64.3-64.3,73.2-91.8c2-7.1-2-6.6-7.1-6.4
	c-16.5,1.3-34.1,16.3-57,31.3c-23.4,14.2-69.4,28.2-113.9,28.2H73L69.9,354.6z M358.6,91.4c5.8-1,12-0.8,17.8,0.8
	c37.9,15,72.7,53.7,87.7,94.9c2.8,8.4,3.8,13,0,13.2c-17,2-24.4-6.6-45.3-19.8c-19.6-13.5-41.2-23.9-64.1-30.8
	c-25.4-7.9-71.2-9.7-76.5-9.7c-5.8,0-5.3-2.5-2.8-5.1C297.8,112.2,326.8,96.9,358.6,91.4z M537.3,232.7c-0.3,2-1.8,3.6-3.8,3.8
	h-43.2c-5.3,0-5.3-2.5-5.3-5.8c-0.8-4.3-1.3-8.9-1.3-13.2c0-3.3-1.8-7.4,3.3-9.7c12-6.1,21.6-15.5,28.2-27c1.3-3.3,4.1-8.6,7.1-4.1
	C533,192.8,536.6,212.9,537.3,232.7z M521.8,310.1c-0.5,1.8-3.8,2.8-4.1,0c-6.1-14.7-17.3-26.7-31.5-33.6c-2.8-1.8-2.8-3.8-2.8-7.1
	c0.5-2.8,1.8-13,2-16.5c0-3.3,1.8-5.8,4.1-5.8h45c1.3,0,3.3,1.8,3.3,2.5C537.1,270.6,531.7,291.2,521.8,310.1z M405.4,394.2
	c-3.3,0.8-10.4-0.5,0.5-6.6c32.6-19.1,62-63.3,69.4-89c3.3-9.9,3.3-10.4,7.4-9.2c7.9,3.6,14.5,9.2,19.1,16.3
	c5.8,8.4,8.6,24.9,5.1,29C482.4,367,445.8,388.6,405.4,394.2z M488.3,193.3c-7.4,4.1-9.2,2.8-10.9-2.5
	c-14.2-49.6-56.2-86.5-73.2-97.7c-2.8-1.8-2.5-3.3,0-2.8c40.7,5.8,81.1,28,101,58.2C517.2,165.9,495.6,189,488.3,193.3z"/>
</svg>
