<svg version="1.1" id="Layer_1" xmlns="http://www.w3.org/2000/svg" xmlns:xlink="http://www.w3.org/1999/xlink" x="0px" y="0px"
	 viewBox="0 0 600 600" style="enable-background:new 0 0 600 600;" xml:space="preserve">
<style type="text/css">
	.st0{fill:#FFFFFF;}
</style>
<path id="White_1_" class="st0" d="M555.8,147.3c6.9-12.5,10.6-26.4,10.7-40.7c-0.6-29.4-15.7-56.7-40.2-72.9
	C493.5,11.5,444.4,8.4,409.6,50c-37.1-4.8-74.7,0-109.5,13.7C265.4,49.9,227.7,45.2,190.6,50C155.8,8.4,106.6,11.5,74,33.7
	c-24.6,16.2-39.7,43.5-40.2,72.9c0.2,14.2,3.9,28.2,10.7,40.7C18.2,185.1,0,230,0,275.7c0,55,23.6,83.5,32.4,95.7l7-7
	c24.9,63.4,67.5,97.6,119,128.6c0,0,1.1-6.2,2.2-11.9c55.4,48,81.8,36.2,139.4,101.4c57.5-64.9,84.6-53.8,139.4-101.4
	c1.1,5.6,2.2,11.9,2.2,11.9c22.9-13.8,87.5-48.5,119-128.6l7,7c5.4-7.5,32.4-37.5,32.4-95.7C600.3,230,582.1,185.2,555.8,147.3"/>
<path id="Black" d="M540,148.1c52.8-81.2-67.1-165.6-125.1-83.9c-38.8-6.4-78.6-1.5-114.8,14.1c-36.1-15.6-76-20.4-114.8-14.1
	c-58.1-81.7-177.8,2.7-125,83.9C0.1,230.7,6.1,312.3,34,350.6l11.5-11.5c0,0,16.4,79.7,103.1,132.1l3.1-17.2
	c53.4,57,102.2,55.7,148.2,107.9c46.1-52,94.9-50.8,148.2-107.9l3.1,17.2c86.7-52.3,103.1-132.1,103.1-132.1l11.5,11.5
	C594.3,312.2,600.3,230.9,540,148.1"/>
<path id="White" class="st0" d="M437.3,102.3c0,0,17.8-44.4,72.4-33.7c0,0-50.1-32.9-85,26.6c0,0-50-23.4-124.5,8.8
	c0,0-70.1-24.7-123.3-10.7c0,0-31-53.9-74.8-31.7C58.3,83.8,81.2,135,88.8,148.5c0,0-72.5,73.8-45.3,165l14.6-18.2
	c0,0,20.9,99.5,74.5,130.8l3.3-24.4c0,0,56.1,67.6,122,96.3c6.2,3,41.2,20.3,42.3,28.9v-47.3c0,0-45.7,3.8-57.9-17.3
	c-8.3-14.4-60.8-108.1-34.8-206.4c0,0-25.3-3.8-30.1-46.5c-13.3-5.8-27.8-8.3-42.3-7.3c0,0,41.9-13.1,81.2,2
	c39.3,15.1,49.9,53.9,76.4,36.9l7.3-109.1l8,109.1c26.6,17.1,37.1-21.5,76.4-36.9c39.3-15.2,81.3-2,81.3-2
	c-13.4-8.4-28.2-14.3-43.8-17.2c-22.5-4.5-55.6,9.9-55.6,9.9s4.6-30.9,19.6-47.4C399,133,428.3,129.9,437.3,102.3z M98.2,139.8
	c-1.6-14.9,17.2-29.5,17.2-29.5c-7.7-8-21.3-1.1-21.3-1.1c12.2-24,39.7-12.2,39.7-12.2c-10.4-12.7-32.4-11.9-32.4-11.9
	c27.2-27.1,60.2,14.2,60.2,14.2C132.4,105.9,98.2,139.8,98.2,139.8z M300.7,468.2c-55,0.1-47.8-12.2-47.8-12.2
	c6.2-3.8,47.8-4.5,47.8-4.5c15.1-0.3,30.3,1.5,45,5.5C345.3,458.4,353,467.9,300.7,468.2z M241.1,252.7
	c-38.3,8.3-44.6-37.8-44.6-37.8c5.8-0.2,11.5,1.2,16.5,4.1c0.1,0,0.1,0.1,0.2,0.1c-0.6,13.4,3.9,27.5,16.9,31.3
	c3.9-7.6,10.8-12,15-10.6c0,0,0,0-0.1-0.1c2.8,2.2,5.4,4.3,7.9,6.4c26.2,22,47.3,17.5,47.3,17.5v93.9c-0.1,0.1-76.2-5.9-35.6,45.6
	c0,0,6.5-18.8,13.4-12.9c9.6,8.3,22.1,25.1,22.1,26.8v22.4l-15.2,0.8c-12.4,1.6-24.7,3.9-36.9,6.9
	C209.2,351.2,230.8,278.7,241.1,252.7z M336,403.1c33.8-44.7-27.5-45.1-35.6-45.5C305.4,356.8,384.5,353.9,336,403.1z M390.1,219.2
	c5.4-2.1,11-3.5,16.7-4.2c-0.2,0-4.2,38.8-38.6,39.3c43.6,117.5-11.7,193.1-12.1,193.5c34.3-90,12.3-164.6-2.7-192.4
	c-5.6,0.5-11.3,0.6-16.9,0.3c6.7-4.2,13.1-8.8,19.1-14c0.5-0.5,1.1-0.9,1.8-1.6c0,0,0,0,0.1-0.1c4.2-1.8,11.5,2.5,15.5,10.4
	C386,246.7,390.5,232.6,390.1,219.2C390,219.2,390.1,219.2,390.1,219.2z"/>
</svg>
