<svg version="1.1" id="Layer_1" xmlns="http://www.w3.org/2000/svg" xmlns:xlink="http://www.w3.org/1999/xlink" x="0px" y="0px"
	 viewBox="0 0 600 600" style="enable-background:new 0 0 600 600;" xml:space="preserve">
<style type="text/css">
	.st0{fill:#FFFFFF;}
</style>
<path id="Outline" class="st0" d="M298.1,56.7l-4.6,0.3h-6.9v0.2l-10.5,1l0.1-0.4l-10.8,1.5l0.2-1.4l-17.1,3.5l-2.1,0.4L245,62v0.1
	l-12.2,2.5l-8,1.6v0.2c-0.8,0.2-1.7,0.4-2.5,0.6v-0.1l-9.7,2.8l-1.4,0.4l0,0c-2.2,0.6-4.3,1.3-6.9,2.2l-5.9,2.1l-1.7,6
	c-1.7,6.2-3.5,12.5-5.2,18.7c-0.4,1.3-0.7,2.6-1.1,3.8l-22.7-10.5h-0.1h-0.1l-0.8-0.4l-12.1-5.4l-4.2,12.6l-0.2,0.7l-0.1,0.4
	l-38.7,15.5l-3.8,1.3l-2.3,3.4l-0.2,0.3l-0.5,0.8l-0.4,0.9L89.4,155h-65H0l14.9,19.4L56.2,228l-27.6,60.6l-3.5,7.6l5.9,5.9l62,62.1
	l6.5,6.6l8-4.6l2.8-1.6c1-0.5,2.1-1.2,3.3-1.9c1.3-0.8,2.7-1.6,4.3-2.5l0,0l0,0l1.7-1c6.7-3.9,15.9-9.3,20.1-11.4l0.8-0.4l0.1-0.1
	l0.1-0.1l0.8-0.4c1.4-0.7,2.8-1.3,4.4-2.1l24.2,31.4c3.3,53.1,38.4,98.7,88.9,115.5l30.5,39.5l9.5,12.3l9.5-12.2l30.1-38.6
	c25.1-7.8,47.7-23.3,64-44.1c16.9-21.4,26.4-47,27.7-74.2l22.1-28.5c11.7,6.1,23.6,13,35,20.2l2.9,1.9l8.3,5.5l6.9-7.1l62.7-64.7
	l5.7-5.9l-3.4-7.5l-27.1-59.9l41.5-53.8L600,155h-24.5h-65l-14.9-32.7l-0.4-0.9l-0.5-0.8l-0.2-0.3l-2.3-3.4l-3.9-1.3l-0.2-0.1
	L427.8,94l-0.2-0.1l-6.3-2.5l-5.4,4.1l-0.4,0.3l0,0l0,0l-6.9,5.3l-0.3-1l-0.2-0.6l0.1-0.2l-1.5-5.3l-3.9-14.1l-1.8-6.5l-6.4-1.9
	c-3.8-1.1-7.3-2.1-7.5-2.1l-3.9-1.1l-0.6-0.2c-2-0.7-4.1-1.2-5.8-1.6l-9.5-2.7l0.2,0.6l-0.5-0.5l-4.2-0.7l-15.2-2.7l-16.3-2.8
	l0.1,0.9l-4.8-0.5l-5.9-0.6l-0.2,0.2l-3.3-0.3v-0.2L305.5,57c-0.1,0-1.5,0-3.1-0.1l-4.4-0.1L298.1,56.7L298.1,56.7z"/>
<path id="Blue" d="M529.6,226.6l30.1,66.5L497,357.8l-2.9-1.9c-14.8-9.5-30.3-18.2-44.9-25.4l-30.6,39.4
	c-0.9,53.6-37.4,98.5-86.9,112.1l-32.5,41.7l-32.8-42.5c-47.7-14.2-82.7-57.6-84.3-109.5l-32.2-41.9c-7.8,3.4-10.4,4.7-14.1,6.5
	l-1,0.5c-4.9,2.4-15.2,8.5-22.7,12.9c-3,1.7-5.6,3.3-7.5,4.4l-2.8,1.7l-62-62.1l30.6-67.2l-45.7-59.3l0,0H97l18-39.6l0.2-0.3
	l0.3-0.1l41-16.4l0.7-0.3l0.3,0.7l0.7,1.8l3.3-9.1l0.3-0.8l0.8,0.4l28.6,13.1l0.3,0.1l0.1,0.3l4,8.6c0,0,21.9-5.5,44.2-8.5
	c22.2-3,56.2-5,56.2-5v12.2l11.9-11.9l0.3-0.3h0.4l1.7,0.1l1.6,0.1c16.1,1.3,26.1,2.1,29.9,2.5c36.9,3.7,62,10,62,10l2.8-6.7
	l0.1-0.2l0.2-0.1l16.1-12.3l0.4-0.3l0.5,0.2l60.6,21.6l0.3,0.1l0.2,0.3l18.1,39.7h72.8L529.6,226.6z M325.5,70.3L325.5,70.3
	L325.5,70.3L325.5,70.3z M212.9,96.2l2.7,5.7l-4,16l8.5-1.7l8.8-38.3c-2.7,0.6-7.9,2-7.9,2l-2,7.8c0,0-2.2-4.2-3.2-6.3
	c-2.6,0.7-4.7,1.4-7.5,2.4c-3.5,12.5-7,24.9-10.5,37.4l8.4-1.9L212.9,96.2z M323.3,105.1c-0.7-10.2-1.3-20.5-1.9-30.8
	c1.1-1.5,2.8-2.6,4.1-4l10,1l4.4,4.7c0.8,10,2.5,19.6,3.5,28.9l-3.8,5.7l-12-0.8L323.3,105.1z M328.7,77.7l2.1,23.9l4.2,0.4
	l-2.3-23.7L328.7,77.7L328.7,77.7z M345.5,72.5L345.5,72.5l15.2,2.7l5,5.7l2.8,14.2l-1.6,2.2l2.8,3.3l2.4,14.1l-8-1.4l-2.2-11.9
	l-4.8-0.6l1.7,11.5l-8-1L345.5,72.5z M354.2,81.5l1.4,9.9l4.5,0.6l-1.9-9.7L354.2,81.5z M387.8,117.9l-2.8-12.1l5.1,1.2l3.2,12.1
	l8.3,1.8l-5-17.4l-3.3-3.7l1.7-2.6l-3.9-14.1c-3.8-1.1-7.3-2.1-7.3-2.1l3.6,14.7l-1.4,1.9l-2.8-0.6c0,0-2.9-11.9-4.4-17.5
	c-3.3-1.1-7.6-1.9-7.6-1.9l0,0c0,0,5.2,25.6,8.2,38.7L387.8,117.9z M227.3,114.9c5.7-1,11.6-1.8,17.5-2.6c0.5-2.4,1.3-7.9,1.3-7.9
	l-8.5,1.2l1.6-8.1l8.2-1.2c0.6-2.9,0.7-4,1.2-7.2c-3.6,0.5-5.4,0.7-8.4,1.3l1.5-8.5l8.2-1.6l1.2-7.3l-15.7,3.2
	C233.6,85.6,227.3,114.9,227.3,114.9z M228.9,77.9L228.9,77.9L228.9,77.9L228.9,77.9z M254.6,111.3l8.9-0.8l3.9-3.3l3,2.7l8.2-0.5
	l4.8-4.8l2-34.9l0,0c-2.5,0.2-4,0.1-6.8,0.5l-2.4,30.6l-4.8,0.5l2.8-30.7l-6.7,0.6l-3.8,31l-4.9,0.6l3.7-30.9l-6.8,0.9l-5.1,34.9
	L254.6,111.3z M304.2,98.3l0.1,10.6l7.3,0.2l-0.2-10.6l1.4-0.1l4.1-4.1L316,69.5c-2-0.2-6.5-0.3-6.5-0.3l0.3,21.9h-4.3l-0.1-22
	c0,0-4.4-0.1-6.8-0.1l0,0l-0.4,24.6l4.4,4.5L304.2,98.3z M250.9,73.3L250.9,73.3L250.9,73.3L250.9,73.3z"/>
<path id="Grey" class="st0" d="M507.2,177.5h47.4l0,0l-29.8,38.4l-7-15.4l0,0l-0.1-0.2l-0.2-0.1l-16.4-11L507.2,177.5L507.2,177.5z
	 M92.3,177.5H45.5L75,215.7L92.3,177.5z M424.4,319.5l-3.1-1c-2.4-0.6-7.9-2.2-15.5-4.1c6.2,12.1,10.3,25.4,11.9,39.6l21.8-28.1
	C434.2,323.5,429.2,321.3,424.4,319.5z M187.3,314.5c-6.2,2-9.6,3.4-9.6,3.4l-2.5,0.9c-6.3,2.8-11.5,5-15.7,6.8l23.1,29.9
	c1.7-15.7,6.3-30.5,13.5-43.8C192.7,312.8,189.7,313.7,187.3,314.5z M282.1,484.7l17,22L316,485c-5.1,0.7-10.5,1-15.8,1
	C294.1,486.1,288,485.7,282.1,484.7z M362.9,246.5L362.9,246.5L362.9,246.5L362.9,246.5z M188.7,255L188.7,255L188.7,255L188.7,255z
	"/>
<path id="Orange" class="st0" d="M166.5,114.7l-16.6,47.2l-26.5,22.9l24.3-61.2L121.5,134L49.7,291.5l11.2,11.3
	c6.7-3.9,13.4-7.6,20.3-11.2l22.9-58.1l20.1-17.9l4.8,5.6l-19.8,57c10.8-4.8,21.9-9.2,33.1-13.1l14.4-47l-12.4-20.5l25.7-24.4
	l15.1-50.1L166.5,114.7L166.5,114.7z M424.6,115l-9.8,7.6l17.8,57.9l57.3,40.5l14.7,36.7L480.7,247l-8.2-22.8l-29.2-8.6L459,267
	c4.9,1.7,9.6,3.6,14.3,5.5c13,5.2,25.8,11.1,38.2,17.5c8.6,4.4,17.1,9.1,25.4,14.1l12.5-12.8l-38.6-85.1L450.5,166L440,136.5
	l18.6,6.6l7.5,18.4l28.4,9.1L478,133.9L424.6,115L424.6,115z M311.7,121.1l-13,13v90.5l13.7,14c14.1,0.5,28.1,1.5,41.9,3.1
	l-2.8-25.8l-25.5-1.5l-4.1-72.4l21.7,1.1l-2.6-19.9L311.7,121.1L311.7,121.1z M286.1,121.1l-22,1.2l-10.4,118.1
	c9.4-0.9,18.7-1.5,28.3-1.8L286.1,121.1L286.1,121.1z M251.1,123.9l-20.5,2.9l-6.7,38.8l-7.6-36.6l-24.1,6.1l-33.4,124.4
	c9.6-3,19.4-5.7,29.3-8.1l18.4-83.7l9.3,44.9l-6,34.1c8.9-1.7,17.9-3.2,27-4.4h0.1L251.1,123.9L251.1,123.9z M348.1,124.1
	c0,0,10.5,79.6,15.3,118.9c9.5,1.4,18.7,2.9,28,4.9l-7.3-38.4l7.2-9.7l10.5,8.6l9.6,44.1c10.2,2.6,20.2,5.4,30,8.6l-18-64.7
	l-18.6-15.2l10.6-14.1l-8.8-32.8l-22.4-5l8.8,33l-14,18.6l-10.4-54.3L348.1,124.1L348.1,124.1z M297.1,258.4
	c-10.2,0.2-20.1,1.5-29.4,4.9c4,2.6,7.3,3.5,13.3,7c8.6-4,17.4-8.6,26.5-11.9C304,258.3,300.5,258.3,297.1,258.4L297.1,258.4z
	 M318.7,259.9c-10.7,2.8-31.6,12.7-31.6,12.7c35.5,9.9,77.3,7.9,105.1,36C375.7,282.3,347.7,264.9,318.7,259.9L318.7,259.9z
	 M260.8,265.5c-10.4,4.2-21.4,9.7-29,16.7c11.8,1.4,16.8,2.1,26.4,4.7c5.7-5.1,11.3-9.6,18.2-13.7L260.8,265.5L260.8,265.5z
	 M281.5,275c-6.6,4-13,8.8-18.6,13.8c60.5,19,115.6,78.3,128.7,139.4c9.6-13.7,15.2-29.7,17.5-46.6c1.5-26,1.2-49.6-23.4-72.1
	C356.4,283.7,315.7,287,281.5,275L281.5,275z M225.9,287c-10.7,9.5-20.9,24.1-25.8,36.3c10.2-10.3,22.8-18.6,38.9-15.1h0.1
	c4.6-6.4,8.9-11.9,14.8-17.6C243,287.2,235.8,287.4,225.9,287L225.9,287z M258.9,292.6c-5.5,5.3-10.4,11.1-14.7,17.3v0.2
	c20.3,8.8,25.6,30.6,33.3,59.3c10,37.6,19.3,75.7,47.6,105c15.9-3.8,32.5-10.8,47.6-24.3c4.7-4.7,11.6-11.1,14.4-15.8
	C377.2,372.5,319.4,309.6,258.9,292.6L258.9,292.6z M232.3,312.6c-15.9-0.3-27.9,11.5-37.5,24.8c-12.4,43.5,4,88.4,31.6,111.4
	c-21.3-44.4-17.7-94.9,9.1-136.1C234.4,312.7,233.3,312.7,232.3,312.6L232.3,312.6z M240.9,314.3c-28.5,40.3-31.2,102.3-2.7,144
	c23.1,14.6,51.9,23.3,81,17.4c-37.4-43.2-40.6-90.7-55-133.6C262.3,336.5,254.7,318.4,240.9,314.3L240.9,314.3z"/>
</svg>
