<svg version="1.1" id="Layer_1" xmlns="http://www.w3.org/2000/svg" xmlns:xlink="http://www.w3.org/1999/xlink" x="0px" y="0px"
	 viewBox="0 0 600 600" style="enable-background:new 0 0 600 600;" xml:space="preserve">
<style type="text/css">
	.st0{fill:#FFFFFF;}
</style>
<path id="Outline" class="st0" d="M300.1,122.8c-32.8,0-66,4.4-98.7,13c-32.6,8.6-65.7,21.7-98.2,38.9c-4.1,2.1-6.2,6.7-5.3,11.2
	c6.3,31.2,16,61.1,28.8,88.8c-42.1,18.2-83.1,39.8-121.9,64.1c-4.5,2.8-6.1,8.6-3.8,13.3c1.8,3.6,5.4,5.8,9.3,5.8
	c1.2,0,2.4-0.2,3.5-0.6c32.3-11.8,66.8-23.5,104.8-35.6c-5.9,12.6-11.6,25-17,36.9c0,0,0,0,0,0.1c-0.3,0.7-0.7,1.5-1.1,2.4
	c-3.8,8.3-9.5,20.9-5.3,32.1c1.6,4.1,4.3,7.6,8.1,10.1c-24.4,17.4-47.9,36.1-70.3,55.8c-4,3.5-4.7,9.4-1.6,13.7
	c2,2.8,5.2,4.4,8.5,4.4c1.7,0,3.4-0.4,5-1.3c52.6-29.2,108.3-57.6,165.7-84.4c24.3,23.2,52.4,44.4,83.8,63.3c1.6,1,3.5,1.5,5.3,1.5
	s3.6-0.5,5.2-1.4C342,433.5,374.6,408,402,379c26.1-27.6,48-59.1,65.1-93.5c39.9-14.6,82.1-28.6,125.4-41.9
	c5.1-1.5,8.1-6.6,7.1-11.8c-0.9-4.9-5.2-8.4-10.2-8.4c-0.3,0-0.6,0-0.8,0c-33.9,2.8-67.9,7.6-101.4,14.3c0.9-2.7,1.9-5.4,2.8-8.1
	c30.6-5.6,62.8-10.8,100.7-16.2c5.2-0.8,9.1-5.3,8.9-10.6c-0.2-5.3-4.4-9.6-9.6-9.9c-21.5-1.5-43.2-2.2-64.8-2.2
	c-8,0-16.1,0.1-24.1,0.3c0.4-1.6,0.7-3.2,1.1-4.7c1-4.6-1.1-9.3-5.3-11.5c-32.6-17.2-65.6-30.3-98.2-38.9
	C366.1,127.2,332.9,122.8,300.1,122.8L300.1,122.8z"/>
<path id="Stripe_Blue" d="M40.1,466.9c35.7-31.5,74-60,114.4-85.3c7.9-4,15.9-7.9,23.8-11.9c3.1-1.4,9.6-4.5,17.6-8.5
	c5.7,6.2,11,12.2,17,17.8C152.6,407.1,94.8,436.5,40.1,466.9z M470.4,251.8c39.3-8.8,79.1-14.9,119.3-18.1
	c-42.8,13-86.4,27.5-130.3,43.6C463.3,269.1,466.7,260.6,470.4,251.8z"/>
<path id="Stripe_Orange" d="M10.3,347.6c41.6-26.1,85.3-48.7,130.6-67.7c1.4,3.1,3.4,7.1,5.1,10.2c-2.5,5.1-4.8,9.6-7.3,14.7
	C94.7,318.4,51.4,332.6,10.3,347.6z M487.1,201.7c34.1-1.4,68.2-0.9,102.3,1.4c-35.4,5.1-71.4,10.8-107.9,17.6
	C483.4,214.4,485.4,208.2,487.1,201.7z"/>
<path id="Shield_Light_Blue" d="M420.3,181.3c4.5,1.7,9.1,3.1,13.6,4.8c10.8,4.2,20.4,8.2,28.6,12.2
	c-23.9,83.6-75.7,156.4-146.7,206.5l-5.7,4c-11.7-8.7-22.8-18.1-33.4-28l9.9-1.4c86.8-14.7,145.4-96.7,131.2-183.6
	c-0.3-1.1-1.1-4.5-1.1-4.5s-3.1-10.2-3.7-11.7C415.4,180,417.8,180.6,420.3,181.3z M421.1,182.4c4.2,1.4,8.8,3.1,13,4.5
	C429.9,185.6,425.4,183.9,421.1,182.4L421.1,182.4z"/>
<path id="Yellow" d="M303,413.3c-28.1-18.8-53.4-41.4-75.4-67.1l12.2-5.7c3.7,4.5,7.4,9.1,11,13.3c1.7,2.2,3.6,4.3,5.7,6.2
	c16.2,17.9,34.1,34.1,53.5,48.4C307.8,410.2,305.4,411.8,303,413.3z M183,242c-2.5,2.3-5.4,4.8-7.9,7.4l-5.8,6.1
	c-8.3-18.3-15.2-37.1-20.7-56.4c48.4-23.1,101.1-35.8,154.7-37.4c24.9,0.2,51.6,3.8,76,8.8L183,242z"/>
<path id="Ball_Orange" d="M170.4,205.1c39.2-17.9,80.9-32.1,129.9-35.8c44.1-3.8,80.9-1.6,108.1,8.6c12,45.1,5.1,89.5-14.4,120.6
	c-31.4,50.4-73.4,72.7-121.9,78C225.2,330,189.9,274.1,170.4,205.1z"/>
<path id="Ball_Blue" class="st0" d="M239.5,340.2c1-0.5,1.9-0.9,2.9-1.4c4.5,0.3,9.1,0.6,13,0.8c-0.1,5-1.8,9.8-5,13.7
	c1.8,2.1,3.7,4.2,5.5,6.2c4.9-4.3,8-10.7,8.2-19.9c11.2-0.3,22.4-1.6,33.4-4c-0.6,17.3-2.8,29.7-7.9,34.8l-0.3,0.3
	c-1,1.1-2,2.2-3.1,3.1c4.7-0.8,9.3-1.8,13.9-3.1c5.7-12.2,5.7-33.4,5.9-37.1c11-2.8,20.7-5.4,29.5-8.5c0.3,9.9,4.2,19.5,11.9,22.9
	c3.6-2.2,7-4.8,10.2-7.6c-1.7,0.6-14.2,1.4-13.9-18.1c25.8-9.6,42.2-21.2,56.9-38.5c4-8.9,7.1-18,9.3-27.5
	c-17.6,27.5-33.7,43.6-65.2,56.4c1.2-6.8,2.9-13.5,5.1-20.1c9.1-3.7,37.9-62,37.9-62s7.9-43,1.3-42.2c1.2-5.1,1.9-10.3,2.3-15.5
	c-2.9-0.7-6-1.3-9.1-1.8c-0.8,6.5-2,12.9-3.6,19.3l-36.5,25.7l-20.2-7.8c0,0-16.7-4.3-26.9-2.3c-2-13.3-4.2-25.7-5.9-35.6
	c-2.9,0.3-5.7,0.7-8.5,1c2,9.9,4,22.4,6.2,36.5l-10.7,24.7l-27.4,4.5l-27.4,7.5c0,0-9.6-17.5-12.1-16.7c-6.7-9.5-12.7-19.6-17.8-30
	l-0.7-1.7c-2.7,1.1-5.3,2.2-8,3.3l0.8,2c5.1,10.3,10.9,20.1,17.6,29.5c-6.5,2.8,19.9,20.1,14.4,24.5
	C229.7,292.1,216.3,311.1,239.5,340.2z M320.1,294.2c1.4,0.3,17.4,3.4,20.2,2.4c-1.9,6.5-3.3,13.1-4,19.8
	c-8.8,3.1-18.4,5.9-29.7,8.8c0-5.1,0-9.9-0.3-15.3C312.6,307.4,320.1,294.2,320.1,294.2z M287.9,305.6c2.3,4.2,10.2,7.9,10.2,7.9
	v13.6c-11.1,2.7-22.5,4-34,4l-1.9-8.2L287.9,305.6z"/>
<path id="Blue_Shield_Outline" d="M108.1,183.9c22.6,111.5,86.6,198.8,191.8,262c103.5-59.7,166.2-148.1,192.3-262
	C364.2,116.2,236.1,116.2,108.1,183.9z M299.3,431.2C205.4,375.9,148.4,294.1,122,190.4c117.3-59.3,235.6-60.7,354.9-0.3
	C451.4,296.1,391.2,375.7,299.3,431.2z"/>
<path id="OKC_Blue" d="M152.8,275.6c2.5-4.1,5.3-8,8.5-11.6c1.4-1.4,13.6-14.4,13.6-14.4c7.3-7.9,16.2-14.1,26.1-18.4l8.2-3.1
	c2.5-0.8,5.1-1.7,7.9-2.5c8.8-2.3,17.3-4.5,26.3-6.8c7.9-2.3,21-6.5,27.2,0.3l9.1-9.6l7.1-1.4l8.2-2c0,0,20.1-4.2,30.3-6.2l-3.4,8.5
	l-0.3,0.8l10.2-10.8c10.2-1.7,20.1-3.7,30.6-5.7l-1.7,5.4c5-4,10.9-6.7,17.3-7.6h0.8l10.5-2c6.5-0.8,12.7-1.7,19.3-2.8
	c-2.8,10.5-5.4,21.2-7.9,31.7L388,230.6l10.8-3.4c-3.7,13.3-7.1,26.6-10.2,40.2l-13.9,14.4c-5.9,2.5-15.6,7.1-24.6,10.8l-9.6,4
	c-2.8,1-5.6,1.8-8.5,2.3c-1.4,0.3-2.8,0.3-4.2,0l-2.8,2.8c-6.2,2.8-12.2,5.7-18.4,8.2l-8.2,3.7l-4.8,2.3c-2.3-4.2-3.1-5.9-5.4-10.2
	l-3.4,8.8l-14.7,11.9l-5.9,2.8l-21.5,9.6c-11.3,5.4-24.4,11.6-35.7,16.7l-10.5,5.7c-7.9,4-14.4,7.1-17.8,8.8
	c-9.9,5.1-19.8,9.9-29.7,15c-11.3,5.7-23.8,14.4-36.8,11c-14.2-6.2-4.8-23.5-0.6-33.1c11-24.6,22.7-49.3,34.6-73.7L152.8,275.6z"/>
<path id="OKC_White" class="st0" d="M218,230.6c-15,4.2-28.3,10.5-39.1,22.4c-5.9,7.1-10.8,14.9-14.7,23.2
	c-11.9,24.6-23.5,49.3-34.6,73.9c-2.8,6.5-11.6,22.1-2.3,26.3c10.5,2.5,23.5-6.2,32.6-10.8c9.9-5.1,20.1-10.2,30-15
	c17-8.5,32.3-18.7,42.8-35.1c3.8-7.2,7.2-14.5,10.2-22.1c6.5-16.1,13-32,19.8-47.9c2.5-6.2,7.1-13.6,5.7-20.1
	c-2.8-8.8-17.8-3.4-24.1-1.7C235.6,226.1,226.8,228.3,218,230.6z M199,322.1c-7.9,3.7-15.6,7.1-23.5,10.8
	c11.3-26.3,23.2-52.7,35.7-79c6.8-2,13.9-4.5,21-6.5C220.5,272.2,209.5,297.2,199,322.1z M334.7,203.1c-11,14.4-21.8,28.9-32.6,43.3
	c5.1-13,10.2-26.3,15.3-39.7c-11.3,2.3-22.9,4.8-34,7.4c-3.1,6.8-5.9,13.6-8.8,20.7c2.3-0.8,4.7-1.5,7.1-2
	c-8.8,21.5-17.6,43.1-26.1,64.9c-3.7,8.8-7.1,17.8-10.5,26.6c11.3-5.4,22.9-10.8,34.3-15.9c5.1-14.4,10.2-28.6,15.6-43.1
	c4.8,9.9,9.6,19.5,14.4,29.2c7.4-3.1,14.7-6.5,22.1-9.6c-4.5-10.2-9.1-20.4-13.6-30.6c8.2-12.5,16.4-24.9,24.6-37.1
	c2.3-0.6,4.8-0.8,7.1-1.4c2-5.4,3.7-10.8,5.4-16.1C348.3,200.9,341.5,202,334.7,203.1z M378.9,195.8c-6.1,0.8-11.9,3.5-16.4,7.6
	c-3.4,4-5.9,8.8-7.4,13.9c-4.8,15.3-9.6,30.6-14.7,45.9c-2,5.9-5.1,17,4.5,16.4c3.3-0.7,6.6-1.8,9.6-3.4c9.9-4.2,19.8-8.2,29.7-12.2
	c2.3-9.6,4.8-19.3,7.4-28.9c-5.1,1.4-10.2,3.1-15.6,4.8c-1.4,4.5-2.5,8.8-3.7,13.3c-3.7,1.1-7.4,2.5-10.8,3.7
	c4.5-15.6,8.8-30.9,13.6-46.5c3.1-0.8,6.2-1.4,9.3-2.3c-0.6,2.8-1.3,5.5-2.3,8.2c4.8-1.1,9.3-2.3,14.2-3.4c1.7-6.8,3.4-13.9,5.1-21
	C394.2,193.2,386.5,194.6,378.9,195.8z"/>
</svg>
