<svg version="1.1" id="Layer_1" xmlns="http://www.w3.org/2000/svg" xmlns:xlink="http://www.w3.org/1999/xlink" x="0px" y="0px"
	 viewBox="0 0 600 600" style="enable-background:new 0 0 600 600;" xml:space="preserve">
<style type="text/css">
	.st0{fill:#FFFFFF;}
</style>
<path id="Outline" class="st0" d="M561.7,0l-40.5,40.6L484.8,77l-45.1-45.1L423,15.2l-16.8,16.7L360.6,77l-45.1-45.1l-16.8-16.8
	L282,31.9L236.9,77l-45-45.1L175,15l-16.8,16.8l-45,45.2L78.8,42.9L38.3,2.7v57v301.1c0,32.6,7,64.2,20.9,93.9
	c13.3,28.5,32.4,54.1,56.6,76c24,21.8,52,38.8,83.1,50.7C230.9,593.8,265,600,300,600s69.1-6.2,101.1-18.5
	c31.1-11.9,59-29,83.1-50.7c24.2-21.9,43.2-47.5,56.6-76c13.9-29.7,20.9-61.3,20.9-93.9V57.4V0L561.7,0z"/>
<path id="Grey" d="M64.1,382.2c6.1,31,18.4,60.5,36.1,86.8c10.7-18.9,32.4-42.4,74.7-52.3c-3.3-10.9-6.2-22.4-8.6-34.5H64.1
	L64.1,382.2z M117,491.3c45.1,53.3,111.2,84.3,181.1,84.9c-6.5-3.3-12.9-7-19.1-11c-29.5-19-69.9-56-96-124.7
	C141.8,449.5,124.4,472.8,117,491.3 M208.3,437c18.6,46.6,46.6,82.5,83.4,106.5c19.2,12.6,40.5,21.5,63,26.5
	c38.6-9.1,74.3-27.5,104.1-53.7c-23.5-2.6-47.5-16.1-72.9-30.3c-39.7-22.2-89-49.9-155.6-49.9C223,436,215.6,436.4,208.3,437
	 M225,411.1c50.7-1.1,100.9,11.7,164.8,48.1c47.3,26.9,68.1,35.1,82.2,31.7c13.1-3.3,25.1-10.9,46.6-56.1
	c7.7-16.8,13.4-34.4,16.9-52.5h-344c2.4,10.4,4.7,20.8,7.9,30.3C207.8,411.6,216.4,411.1,225,411.1"/>
<path id="Purple" d="M308.4,260.9h-85.6v102h35.6V281H285v81.9h34v-87.8C319,267.4,314.2,260.9,308.4,260.9 M334,260.9v87.5
	c0,7.8,4.7,14.5,10.6,14.5h85.6V301H396v41.8h-26.7v-62.1h60.9V261L334,260.9L334,260.9z M128,260.9l-19.3,41.2H97.5v-41.2H62v102
	h35.4v-41.1h11.2l19.3,41.1h35.4l-25-50.9l25-51.1H128z M172.8,260.9h36.7v102h-36.7V260.9z M538,288.5v-27.6h-94.1v46.6
	c0,7.7,4.7,14.1,10.6,14.1h47.9v22.2h-58.5v19.1H538V316c0-7.2-4-14.1-9.4-14.1h-49.4v-21.4h24.7v7.8L538,288.5L538,288.5z
	 M437.9,157.5h-30.1l61.9-62l-46.9-46.9l-62.3,61.9l-61.8-61.9L190,157.5h-30.1l61.8-62.1L175,48.6l-61.8,61.9L62,59.7v101.5v81h476
	v-78.5V57.4L437.9,157.5z"/>
<path id="Letters" class="st0" d="M166,222.6c0,2.6,2.1,4.8,4.7,4.8h26.7v-7.2h-21.8v-23.3h21.8v-7.2h-31.6L166,222.6L166,222.6z
	 M122.4,189.8v37.6h9.8v-9.8h12v9.8h9.8v-32.9c-0.1-2.7-2.3-4.8-5-4.8c-0.1,0-0.3,0-0.4,0L122.4,189.8L122.4,189.8z M144.2,210.4
	h-12v-13.5h12V210.4z M515.4,189.8h-22.1c-2.6,0-4.7,2.1-4.7,4.7v28.1c0,2.6,2.1,4.7,4.7,4.8h22.1c2.6,0,4.7-2.2,4.7-4.8v-28.1
	C520.2,191.9,518.1,189.8,515.4,189.8 M510.4,220.2h-12V197h12V220.2z M78.8,207.4c0,2.6,2.1,4.7,4.8,4.7h17v8.1H78.8v7.2h31.6
	v-17.7c0-2.5-1.8-4.5-4.3-4.7h-0.3H88.5v-8.1h21.8v-7.2H78.8V207.4z M279.2,189.8h-26.7v37.6h9.8v-9.8h12v9.8h9.8v-32.9
	C283.9,191.9,281.8,189.8,279.2,189.8 M274.2,210.4h-12v-13.5h12V210.4z M446.2,196.9h10.9v30.5h9.7v-30.5h10.9v-7.1h-31.6
	L446.2,196.9L446.2,196.9z M345.3,189.8h-48.5v37.6h9.8v-30.5h12v30.5h9.8v-30.5h12v30.5h9.8v-32.9
	C350,191.9,347.9,189.8,345.3,189.8 M431.6,189.8h-26.7v37.6h9.8v-30.5h12v30.5h9.8v-32.9C436.3,191.9,434.2,189.8,431.6,189.8
	 M363.3,222.6c0,2.6,2.1,4.8,4.7,4.8h26.7v-7.2H373v-8.1h21.8V205H373v-8.1h21.8v-7.2h-31.5V222.6L363.3,222.6z M235,213.7h5.2
	v-19.2c-0.1-2.7-2.4-4.8-5.1-4.8c-0.1,0-0.2,0-0.3,0h-26.2v37.6h9.8v-13.7h7l5.8,13.7h9.5L235,213.7z M230.5,206.6h-12V197h12V206.6
	z"/>
</svg>
