<svg version="1.1" id="Layer_1" xmlns="http://www.w3.org/2000/svg" xmlns:xlink="http://www.w3.org/1999/xlink" x="0px" y="0px"
	 viewBox="0 0 600 600" style="enable-background:new 0 0 600 600;" xml:space="preserve">
<style type="text/css">
	.st0{fill:#FFFFFF;}
</style>
<path id="Black" d="M299.9,600C134.2,599.8,0,465.3,0.2,299.6c0.1-78.3,30.7-153.4,85.4-209.3C141.1,33.2,217.1,0.7,296.7,0h3.4
	C465.8,0.2,600,134.7,599.8,300.4c-0.1,78.3-30.7,153.4-85.4,209.3c-55.5,57-131.5,89.5-211.1,90.3C302,600,300.9,600,299.9,600"/>
<path id="White" class="st0" d="M329.4,94.3l-10.3,10.5h-29.3l-10.5-10.5v-58l10.5-10.5h29.1l10.5,10.5L329.4,94.3L329.4,94.3z
	 M299.1,42.8l-3.2,3.2v38.2l3.2,3.2h10.8l3.2-3.2V46l-3.2-3.2H299.1z M498.6,230.7l-13.9-4.9L472,199.5l4.9-13.9l52.3-25.1l13.9,4.9
	l12.7,26.4l-4.9,13.9L498.6,230.7z M531.9,181.2l-4.2-1.5l-34.4,16.4l-1.5,4.2l4.6,9.7l4.2,1.5l34.6-16.4l1.5-4.2L531.9,181.2z
	 M174.4,137.9l0.2,14.8l-20.5,20.9l-14.8,0.2l-41.5-40.3l-0.2-14.8l20.2-20.9l14.8-0.2L174.4,137.9z M116.4,124v4.4l27.4,26.6h4.4
	l7.4-7.6V143l-27.4-26.6h-4.4L116.4,124z M436.8,59.3l-30.6,72.5l-12.7-5.5l-3.4-51.5l-17.9,42.4l-13.9-5.7L389.1,39l17.1,7.2
	l0.2,45.1l16.2-38.2L436.8,59.3z M234.1,75.7l-3.6,12.2l21.9,21.7l-15.4,6.7l-20.5-19.6l-7.4,3.4l10.3,23.8l-14.1,6.1l-31-72.5
	L208,42.7l14.3,5.7L234.1,75.7z M201.8,82.9l12.4-5.5c0.7-1.3,1.2-2.6,1.7-4l-4.2-9.9l-4.2-1.7l-12.4,5.5L201.8,82.9z M498.6,129.9
	l-10.3-10.1l-43.4,44.1l-11.6-11.6l43.4-44.1l-10.3-10.1l11.8-12l32.3,31.6L498.6,129.9z M78,174.8l-5.9,13.1l56.5,25.3l-6.7,15.2
	l-56.5-25.3l-5.9,13.1l-15.6-7l18.6-41.3L78,174.8z M510.2,376l-7.8,14.8l-5.5-3l-1.5,3l-4.9,9.3l1.3,4.2l7.8,4l-1.1-0.6l4.2-1.3
	l9.3-17.7l14.6-4.4l23.6,12.4l4.4,14.1l-13.5,25.9c0,0-14.3,4.4-14.3,4.2l-11.8-6.3l7.8-14.8l5.9,3.2l6.3-12.2l-1.3-4.2l-6.3-3.4
	l-4.2,1.3l-9.1,17.3l-14.8,4.4l0,0l-23.6-12.4l-4.6-14.6l13.5-25.9l14.3-4.2L510.2,376z M105,430.4l-12.4-2.7l-20,23.4l-7.8-14.8
	l18.1-21.7l-3.8-7.2l-23.2,12L48.7,406l70-36.3l17.1,32.7l-4.9,14.6L105,430.4z M95.5,398.8l6.3,12l4.2,1.3l9.5-5.1l1.3-4.2l-6.3-12
	L95.5,398.8z M208.2,525.8L196.8,553l-13.7-5.7l30.4-73l33.3,13.9l5.5,14.3l-11,26.6l-11,5.9L208.2,525.8z M214.1,511.6l11.2,4.6
	l4-1.7l4.2-9.9l-1.7-4l-11.2-4.6L214.1,511.6z M327.7,512.1l-14.3,0.2l0.6,62l-16.4,0.2l-0.6-62l-14.3,0.2l-0.2-17.1l45.3-0.4v16.9
	H327.7z M419.5,538l-5.9,13.5l-27.4,10.3l-13.5-6.1l-20.5-54.2l6.1-13.5l27.2-10.3l13.5,6.1L419.5,538z M372.9,500.7l-1.9,4
	l13.5,35.9l4,1.9l9.9-3.8l1.9-4L386.8,499l-4-1.9L372.9,500.7z M477.3,461.7l0.2,12.7l27.4,14.3l-12.7,10.8l-25.3-12.9l-6.1,5.3
	l16.9,19.8l-11.6,9.9l-51-60.1l28-23.8l15.4,1.5L477.3,461.7z M448.6,477.7l10.3-8.9l0.4-4.4l-7-8.2l-4.4-0.4l-10.3,8.9L448.6,477.7
	z M143,526.4L130.8,515l5.7-11.6l-16.9-15.6l-11.2,6.7L96,483.2l71.3-42.8l12.4,11.4L143,526.4z M143.4,488.9l10.8-21.9l-20.9,12.4
	L143.4,488.9z"/>
<path id="Red" class="st0" d="M361.3,458.7c0.2,0.4,0.4,0.6,0.6,0.6c0.9-0.1,1.8-0.2,2.7-0.4l1.7-0.8l5.1-1.9l12.4-5.9l2.1-1.1
	l1.1-0.4l1.3-0.8l2.1-1.3l2.5-1.5l3.4-2.1l5.9-4.2l3-2.3l4-3l3.8-2.7l1.7-1.3l2.5-2.3l2.5-2.5l4.2-4.4l4.9-4.6l5.5-6.3l3-4l1.1-1.5
	l3.4-4l6.3-9.3l1.7-3l4.2-8.4l2.3-4.6l4.2-8.4l2.3-5.1l2.5-7.8c0,0,3-10.3,4.4-15.8c0.3-0.6,0.2-1.2-0.2-1.7
	c-0.8-1.3-1.5-2.7-2.3-4.2c-0.4-0.6-1.1-1.5-1.5-2.1s-1.5-1.9-1.9-2.5l-1.5-1.5c-1.3-1.3-2.5-2.5-3.6-3.4c-0.6-0.2-1.1-0.6-1.5-1.1
	c-3.4-2.7-7-4.8-11-6.5c-1.7-0.6-3.4-1.3-5.1-1.9c-1.5-0.5-2.9-0.8-4.4-1.1c-0.6-0.2-1.3-0.2-1.9,0.2c-0.6,0.4-0.6,1.3-0.6,2.1
	c-0.2,2.1-0.2,4.4-0.4,6.7s-0.4,4.4-0.6,6.7c-0.2,2.1-0.2,4-0.4,6.1c-0.2,2.7-0.6,5.4-1.3,8c-0.8,4.9-1.9,9.9-3,14.8
	c-0.2,1.4-0.5,2.7-1.1,4c-0.9,2.1-1.5,4.3-1.9,6.5c-1,4.6-2.4,9.1-4.2,13.5c-1.1,3.7-2.7,7.2-4.6,10.5c-0.2,0.2-0.2,0.4-0.2,0.6
	c-1.1,2.3-1.9,4.6-3,6.7c-0.8,1.4-1.5,2.8-2.1,4.2c-0.9,1.8-1.8,3.6-3,5.3c-1.7,2.7-3.6,5.3-5.1,8c-1.1,1.9-2.3,3.7-3.6,5.5
	c-0.4,0.4-0.7,0.9-0.8,1.5c-0.9,1.6-2,3-3.2,4.4c-2.1,2.7-4.4,5.5-6.7,8.2c-1.5,1.7-3,3.2-4.4,4.9c-1.3,1.5-2.7,3-4.2,4.4
	c-0.3,0.3-0.7,0.6-1.1,0.8c-0.9,0.6-1.7,1.3-2.5,2.1c-1.7,1.8-3.6,3.5-5.7,4.9c-0.8,0.6-1.9,1.3-2.7,1.9
	C366.2,456,363.8,457.5,361.3,458.7 M472.2,326c0.1-0.1,0.2-0.3,0.2-0.4c0-0.4,0.1-0.9,0.2-1.3l1.3-10.8l0.6-10.1V292l-1.3-11.4
	c0,0-1.5-10.3-2.5-15.4c-0.4-1.6-1.5-2.9-3-3.6c-0.5-0.2-1.1-0.5-1.7-0.6c-1.1-0.4-2.3-0.8-3.4-1.3c-2.5-0.6-5.1-1.5-7.6-1.9
	c-3.2-0.4-6.1-0.8-9.3-1.1c-2.5-0.2-5.1-0.4-7.6-0.4H433c-1.1,0-2.3,0-2.7,0.6c-0.3,1-0.3,2.1,0,3.2c0.4,2.5,0.8,3.8,1.3,6.1
	c1.4,7.2,2.3,14.6,2.7,21.9c0.2,3.4,0.4,6.7,0.4,9.9v2.5c0,0.6,0.2,1.2,0.4,1.7c0.3,0.4,0.8,0.6,1.3,0.6c0.6,0.2,1.3,0.2,1.9,0.4
	c0.6,0.2,1.9,0.4,2.5,0.6c3,1.1,6.1,2.1,8.9,3.2c2,0.9,4,1.8,5.9,3c0.2,0.2,0.4,0.2,0.6,0.4c1.1,0.8,2.3,1.7,3.4,2.5
	c2.9,1.8,5.4,4,7.6,6.5c0.4,0.4,0.8,1.1,1.3,1.5c0.8,0.6,2.1,3.4,3.2,4.4C472,325.8,472,326,472.2,326 M396.1,204.8
	c0.9,0,1.8,0,2.7-0.2c0.6,0,1.1,0,1.5-0.6c0.1-0.5,0-1.1-0.4-1.5c-0.2-0.4-2.1-4-2.1-4l-1.9-3l-8-11.6l-1.7-1.9l-1.5-2.1l-2.5-3
	l-6.5-7.2L373,167l-10.1-9.3l-8.2-6.3l-3-1.5L342,144l-6.7-3.6l-1.3-0.6l-5.5-2.1l-8.2-3l-0.6-0.2l-2.5-0.6l-0.6-0.2l-2.3-0.6
	l-4.9-0.8h-2.3l-4.4-0.8l-5.3-0.4l-1.9-0.2h-3.2l-5.5,0.2l-5.3,0.6h-4.2l-3.6,0.4l-3.8,0.8l-3,0.8l-4.6,0.8h-1.1l-4.4,1.5l-2.5,0.6
	l-1.5,0.8l-3.8,1.1l-1.9,1.1l-2.3,0.8l-5.7,2.3l-7.2,2.7l-2.3,1.1l-5.1,2.7l-4.4,3l-4,2.1l-1.5,0.8l-4.4,2.3l-0.6,0.4l-5.1,4
	l-4.2,2.7l-0.8,0.6l-4.6,3.8l-1.7,1.5c0,0-2.5,2.1-2.5,2.5l1.7-0.6c0,0,3.2-1.3,3.4-1.3h0.6l4.6-1.9h0.6l5.1-2.1l2.7-0.8l2.7-1.1
	l3.8-1.3l9.3-3.6h0.8l4.6-1.7l3.8-1.5l0.4,0.4l7.2,0.2l4.6,0.4h0.2l9.3,0.6l0,0l12.9,0.6v0.2l4.6,4h0.4l4.6,4.4l0.4-0.2l6.3,0.2
	l0.2-0.2l16,0.8v0.4l7.2,4.2h0.2l12.7,6.1v0.6l7.2-2.7l10.5,3.6l1.7,3l3.8,0.2l3.8,4.2h0.4l3,3.4v0.2h0.4l8.2,1.9l3.2,4.6l7.6,2.7
	c4.1,1.1,8.3,1.9,12.4,2.5C387.8,204.9,392,205.2,396.1,204.8 M467.8,253.5c-0.3-1.3-0.6-2.6-1.1-3.8l-0.4-1.3l-0.4-1.7l-1.3-4
	l-1.3-3.6l-4-8.9l-1.7-4.2l-2.3-5.1l-2.7-4.4l-0.6-1.3l-1.9-3.6l-1.7-2.7l-0.6-0.8l-11.6-15.6c0,0-1.1-1.3-1.7-1.9
	c-0.2-0.4-0.4-0.6-0.6-0.6l0,0c0,0-3.6,5.7-5.1,7.4s-4.4,4.4-4.4,4.4s-2.5,2.1-3,2.3c-0.7,0.5-1.5,1-2.3,1.5l-2.5,1.5
	c0,0-1.9,0.8-2.3,1.1c-0.4,0.2-0.6,0.2-0.8,0.4c-0.2,0.2-0.2,0.4-0.2,0.8c0,0.4,0.2,0.6,0.4,1.1c1.1,2.3,2.1,4.4,3.2,6.7
	c1.6,3.3,3,6.7,4.2,10.1c0.5,1.1,0.9,2.2,1.3,3.4c1.1,3,1.9,5.9,2.7,8.9c0.4,1.3,0.8,2.5,1.3,4c0.4,1.3,0.6,2.7,1.1,4
	c0.2,0.8,0.9,1.3,1.7,1.3h2.5c3.2,0,6.1-0.2,9.3-0.2c0.8,0,7,0.6,7,0.6s2.1,0.2,3.2,0.4c2.3,0.4,4.6,1.1,7,1.5c2,0.4,3.9,1,5.7,1.9
	c0.9,0.4,1.8,0.7,2.7,0.8c0.3,0,0.6,0.1,0.8,0.2C467.6,253.9,467.8,253.7,467.8,253.5 M427.5,185c-0.2-0.6-0.5-1.2-0.8-1.7l-0.6-1.1
	l-1.7-1.9l-1.1-1.7l-2.1-2.1l-0.6-0.6c-3.6-3-11-8.9-11-8.9l-2.1-1.7l-3.8-3.4l-19-11.4l-15-7.2l-8-3.2l-3-1.1l-9.9-3.4l-7-1.7
	l-6.7-1.5H334l-0.6,0.6l0.2,0.2c0.3,0.2,0.7,0.4,1.1,0.4l6.3,2.5c1.3,0.7,2.6,1.2,4,1.7c1,0.2,1.9,0.6,2.7,1.1l9.5,5.7
	c1.9,1.1,3.7,2.5,5.3,4c1.2,1.2,2.5,2.2,4,3c0.6,0.4,1.3,1.1,1.9,1.5c0.4,0.2,0.6,0.6,1.1,0.8c1.9,1.4,3.8,3,5.5,4.6
	c1.7,1.9,3.6,3.8,5.5,5.5c1.8,1.7,3.5,3.5,5.1,5.5c1.2,1.6,2.6,3.2,4,4.6c2.7,2.7,4.9,5.9,7.4,8.9c0.2,0.5,0.5,0.9,0.8,1.3
	c1.7,2.5,3.2,5.3,5.1,7.6c1.3,1.7,2.5,3.4,3.6,5.3c0.6,1.2,1.3,2.3,2.1,3.4c0.3,0.5,0.9,0.8,1.5,0.8c0.4-0.1,0.7-0.2,1.1-0.4
	l1.3-0.6c0,0,1.7-0.8,2.3-1.1c0.8-0.3,1.6-0.8,2.3-1.3c0.4-0.4,2.3-1.7,3.2-2.5c1.1-1,2.1-2.2,3-3.4l1.5-1.9l2.5-4.2
	C427.3,185.8,427.4,185.4,427.5,185 M419.5,248.2c-1.1-3.2-1.9-6.1-3-9.3c-0.8-2.6-1.7-5.1-2.7-7.6c-0.6-1.5-1.1-3.2-1.7-4.6
	c-0.2-0.8-0.6-1.5-0.8-2.3c-1.5-3.8-3.3-7.4-5.3-11c0-0.2-0.2-0.4-0.4-0.6c-0.2-0.4-0.5-0.7-0.8-0.8c-0.4-0.2-0.8,0-1.7,0
	c-1.7,0.2-3.6,0.4-4.4,0.4s-4,0.2-6.5,0.4l-0.6-0.2h-3.2l-8.2-1.1c-3-0.4-9.9-2.1-9.9-2.1l-5.1-1.7l-6.1-2.1l-0.4,0.2L349,205
	l-0.2,0.2l-5.5-4.2h-0.6l-3.4-3.2l-0.2-0.6l-3.8-0.6l-0.4,0.2l-3.2-1.1l-0.4-0.4l-7.2,0.4l-6.5-2.5l-22.4,1.3l-0.4-0.2l-4.2,0.2
	l-0.4,0.4l-11,0.8l-0.2-0.2l-15.6,9.1l-0.2,0.6l-0.6,0.6l-0.4-0.2l-7.8-0.8L254,205h-13.9l-0.2-0.2l-4-0.2l-1.3-0.6L220,215.4v0.2
	l-5.1,4l-5.7-2.7l-0.4,0.2l-2.1-0.6c0,0-10.5,2.7-10.3,2.7l-9.9-1.5l-0.6-0.6L184,219l-4,1.9v0.4l-7.8,5.9l-11.2,8l-12.7,9.3
	l-5.7,4.2l-0.2,2.3l-2.3,5.5l-1.1,4.6l-1.5,9.5l-0.8,4.2l-0.4,5.1l-1.3,10.3l-0.6,22.8l0.6,1.3l0.4,6.3c0,0,0,1.1,0.4,1.1l0,0
	l27.8-28.7l9.1-3.6l7.6-0.4l4.6-5.3l0.4-1.1l0.6,0.2l12.4-1.5l0.6-0.4h4.6l0.6,0.2l1.5-1.9l5.7-3.4l5.9-4.2l16.9,0.2l0.2,0.4
	l6.5,0.6l5.1-1.1l9.5-9.7h0.2l7.6-7.2l11.2-1.5l0.4-0.2l0.4,0.4l5.9,2.7l0.4-0.4l5.3-0.6l0.2-0.2l4.9-0.8l0.4-0.2l5.3,4.4l0.2-0.4
	l11-0.2l0.8-0.6l8.6,0.4l0.4,0.2l1.3-0.4l0.2-0.4l3.6-1.5h0.4l4-1.9l0.4-0.4l4.2-1.7l0.2-0.4l11.8-4.6v-0.2l2.1-0.6l0.4-0.4l0.6,0.6
	l3.4,1.7h1.1l3.8,2.1l0.2-0.4l1.3-0.6h0.2l1.9-0.8v-0.2l2.7-0.6l7.2,1.9l1.5-0.4l1.3,0.8l5.3,0.8l5.1,1.9l3-0.2l1.1,0.6l0.8-0.4
	c0,0,10.1-1.3,15.2-1.7c3.4-0.2,6.5-0.6,9.9-0.8c1.9-0.2,3.8-0.4,5.5-0.6C419.5,249.9,419.9,249.5,419.5,248.2 M426.9,299.9
	c0-0.6-0.2-1.1-0.2-1.9c-0.2-2-0.2-3.9-0.2-5.9c0-0.6-0.2-1.3-0.2-1.9c-0.2-2.3-0.2-4.9-0.4-7.2c-0.2-3.2-0.8-6.1-1.3-9.1
	c-0.4-2.3-0.8-4.6-1.3-7c-0.4-2.5-0.8-4.6-1.5-7.2c-0.6-2.5-1.1-2.7-3.6-2.5c-0.2,0-0.5,0-0.6,0.2c-0.8,0.2-2.3,0.2-3.2,0.4
	c-4.9,0.6-9.5,0.8-14.6,1.5l-14.1,4.9l-20.5-0.6L363,263v0.4l-6.1,4.4H356l-4.9,4.4l-0.2,0.6l-12.2,1.7l-11.2,8.6h-1.3l-5.9,3.6
	L318,287l-2.3,1.9l-0.6-0.4l-11.4-0.8l-1.9,2.3v0.4l-9.9,10.8l-0.2,0.6h-0.4l-12.7,14.3h-3.4l-0.2,0.4l-10.3,1.7h-0.8l-0.2,0.4
	l-17.1,9.5l-7.6-0.8l-1.7,0.6l-7.6-0.4l-7.6,8.2l-4.4,0.8l-2.5-0.2l-2.7,1.1l-1.7-0.2v0.4l-9.3,7.2l-0.8,0.2L186,356.4l0.2,0.6
	l-9.1,21.9l0.4,0.8l-15,1.3l-4.9,4.2l-0.4,1.7l6.7,9.3l4.9,7.6l4.2,5.5l7,7.6c0,0.2,0.1,0.5,0.2,0.6c0.2,0,0.8,0,0.8,0.2l4.2,1.5
	l5.1,1.7c0,0.1,0.1,0.2,0.2,0.2l0,0h0.4l8.4,3.4h0.6l0.4,0.6h0.8l1.9,1.3l3.6-1.9h0.2l1.7-1.1l12.9,3.2l9.5-4.9l20.9-2.1l8.6-13.7
	l3.8-3.8h0.4l3-2.7V399l5.3-4.9l2.5-2.5l0.6-0.4l3-3l2.3-2.3l0.6-0.2l-0.6-2.1l2.3-8.9l4.6-1.5l0.2-0.2l1.5-0.2V372l6.3-10.1
	l0.6-0.2l2.5-5.1l4.2-2.3l0.6-0.6l0.8,0.2l2.5-1.5h0.2l4.6-2.1l0.4-0.6l15.4-7h0.8l0.2-0.8l0.6-0.4l1.5-5.3l4.9-2.1l5.7-0.6l5.1-3.6
	l7.2,0.2l0.6,0.6l0.4-0.4l10.1-4.4v-1.3l2.5-4.6l5.1-1.3l0.2-0.4l6.7-1.5l2.5-3.2h0.4c0.5-0.5,1.1-1,1.7-1.5l4.6,0.6l0.2,0.2
	l2.5,0.4l1.7,0.2c0,0,7-3.2,9.7-4.4c1.3-0.4,2.3-0.8,3.6-1.3c1.7-0.6,3.2-1.1,4.9-1.7c0.8-0.2,1.7-0.4,2.3-0.6l3.2-0.6l3.8-0.6
	l2.3-0.2c0.5-0.1,1-0.2,1.5-0.2c0.5,0.1,1.1-0.1,1.5-0.4c0.4-0.4,0.4-0.8,0.6-1.3C427,301.5,426.9,300.7,426.9,299.9 M426.6,313.4
	c0.1-0.7-0.1-1.3-0.4-1.9c-0.3-0.3-0.8-0.6-1.3-0.6c-0.4,0-2.1,0.2-2.1,0.2l-3,0.4c-0.4,0-0.7,0-1.1,0.2c-1.7,0.4-3.6,0.8-5.3,1.3
	c-1.9,0.5-3.8,1.1-5.7,1.9c-1.9,0.8-4.2,1.5-6.1,2.5c-0.6,0.4-7.4,3.6-10.3,5.1l-3.8,4l-0.2,0.8l-0.4-0.2l-2.3,0.2l-0.2,0.2
	l-7.8,2.5v0.8l-0.8,0.8v0.4l-3.6,6.3h-0.4v0.6c-0.5,0.8-1,1.7-1.5,2.5l-16.4,10.5h-0.4L351,354l-1.7,7l-1.7,1.5l-6.3,23.8l0.8,2.7
	l-9.5,4.6h-1.5l-1.9,8.2L329,402l-2.3,7.6l0.2,0.4l-1.1,6.5l-0.4,0.4l0.2,0.6l-9.1,14.6l-0.6,0.2l-2.3,3.6v0.6l-7.8,11l-8.2,4.9
	l0.4,0.6l-0.4,3.4l0.6,1.3l-1.3,0.4l-5.9,3.6l-0.6-0.2l-8.9,5.3l-1.1,1.7c1.1,0.2,2.2,0.4,3.4,0.4l5.7,0.4l3.8,0.2h13.3l12.2-1.5
	l7.4-1.3l5.5-1.5l5.9-1.7l7.6-3l0.6-0.4l2.1-1.3c3.1-1.6,6-3.3,8.9-5.3c4.6-3.6,9.5-7.2,13.9-11.2c1.5-1.5,3-2.7,4.4-4.2
	c1.5-1.3,2.7-2.7,4.2-4.2c0.2-0.2,0.6-0.4,0.6-0.8c0.5-1,1.2-2,2.1-2.7c0.6-0.6,1.2-1.2,1.7-1.9c1-1.4,2.2-2.7,3.6-3.8
	c1-1,1.9-2.1,2.7-3.2c1.5-2.1,2.7-4.2,4.2-6.3c1.9-2.7,3.8-5.5,5.5-8.4c1.7-3.2,3.4-6.3,5.1-9.3c1.5-2.5,3-5.3,4.2-8
	c1.9-4.6,4-9.1,5.7-13.9c1.9-4.9,3.4-10,4.6-15.2c1.1-3.8,1.7-7.8,3-11.4c0.2-0.4,0.2-1.1,0.4-1.5c0.6-3.2,1.1-6.3,1.5-9.3
	s0.8-5.9,1.3-8.9c0.2-2.1,0.6-4,0.8-6.1c0.2-2.7,0.4-5.7,0.4-8.4V314C426.7,314.1,426.7,313.8,426.6,313.4"/>
</svg>
