<svg version="1.1" id="Layer_1" xmlns="http://www.w3.org/2000/svg" xmlns:xlink="http://www.w3.org/1999/xlink" x="0px" y="0px"
	 viewBox="0 0 600 600" style="enable-background:new 0 0 600 600;" xml:space="preserve">
<style type="text/css">
	.st0{fill:#FFFFFF;}
</style>
<path id="Grey" d="M563.8,157.1c-18.5-34-43.2-64-72.7-88.4c-5.5-4.6-11.3-8.9-17.1-13.1C425,20.7,365.2,0.1,300.5,0h-0.4
	C139.8,0,8.8,125.8,0.6,284.1c-0.3,5.1-0.4,10.3-0.4,15.4v0.4c0,41.4,8.3,80.8,23.6,116.7c1.9,4.5,3.9,8.9,6,13.3
	c16.8,34.9,40.2,66.2,68.6,92c7.2,6.4,14.5,12.5,22.2,18.3c49.9,37.4,112.1,59.6,179.3,59.8h0.1h0.1l0,0c36.2,0,71-6.4,103-18.2
	c114.8-42,196.6-152,196.8-281.4v-0.1l0,0V300c0-41.3-8.3-80.8-23.6-116.6C572.6,174.3,568.4,165.6,563.8,157.1"/>
<path id="White" class="st0" d="M300.4,7.5C139.1,7.5,8.5,138.2,8.5,299.3s130.7,291.9,291.9,291.9c161.3,0,291.9-130.7,291.9-291.9
	S461.7,7.5,300.4,7.5L300.4,7.5z"/>
<path id="Upper_Ball" d="M300.2,31.8c-19.4,0-38.3,2.1-56.6,6c13.4,7,26.8,19.7,35.3,42.9l21.2-31.2l21.2,31.2
	c8.5-23.3,21.9-35.9,35.3-42.9C338.4,34,319.6,31.8,300.2,31.8L300.2,31.8z M215.7,45.5C137.3,71.6,75.1,133.1,48.1,211.1
	C84,157.1,154.2,95.9,261.6,83.8C252.1,61.1,233,50.5,215.7,45.5L215.7,45.5z M384.3,45.5c-17.1,5.1-36.2,15.8-45.6,38.3
	c106.4,12.1,176.5,72.4,212.6,126.1C524.1,132.5,462.3,71.6,384.3,45.5L384.3,45.5z"/>
<path id="Lower_Ball" d="M391.6,114.9c-9.5,0.1-14.2,3.4-14.2,3.4l-31,17.4l1.6,5.8l6.7,24.6c0,0,12.8,35.5,43.1,65.7
	c57.2,56.6,130.4,139.4,123,215.3c27.9-41.3,44.4-90.8,45.3-144c-4.6-26.8-13.3-50.5-24-71.3c-20-38.3-58.6-74.5-106-102.6
	C415.9,117.5,401.3,114.8,391.6,114.9L391.6,114.9z M208.5,115.1c-9.5-0.1-24.3,2.5-44.6,14.3c-47.4,28-86,64.1-106,102.6
	c-11,21.3-19.8,45.8-24.4,73.6c1.5,52.6,18,101.5,45.8,142.4c-7.9-75.9,65.4-159.1,122.8-215.9c30.4-30.3,43.1-65.7,43.1-65.7
	l6.7-24.6l1.6-5.8l-31-17.4C222.7,118.4,218.2,115.2,208.5,115.1L208.5,115.1z M300.1,171.1c-3.1,2.2-101.4,72.9-144.7,143
	c-58.4,94.5-50.8,149.1-35.8,180.2c37.7,34.6,85.4,58.6,138.2,66.9l23-322.9l18.9-19.1l0.3-0.3l0,0l0.1,0.3l19.1,19.1l23,322.7
	l-0.3,0.1c53.2-8.3,101.2-32.5,139.1-67.5c14.9-31.3,21.9-85.7-36.1-179.5C401.4,244,303.2,173.4,300.1,171.1L300.1,171.1z"/>
<path id="Monument_Shadow_1_" d="M302.2,224.1l15.1,15.1L340,559.9l-37.6,21.4L302.2,224.1"/>
<path id="Star" d="M300.1,70.4l-3.1,6.3l-6.1,12.7l0,0l-0.3,0.6l-0.3,0.6l-3.3,6.9l-0.3,0.6v0.1l-8.3,0.6c-11.8,0.7-23.4,2.4-35,4.3
	c-5.1,0.9-10.3,1.6-15.4,2.7l16.4,8.8l16.4,8.8l5.1,2.7l5.1,2.7l-3.1,11l-0.1,0.6l-1.3,5.1l-9.1,33.1l20.7-15.2l14-10.4l4.2-3.1
	l4.2-3.1v-0.1l0.1,0.1l0.1-0.1v0.1l4.2,3.1l4.2,3.1l34.7,25.6l-9.1-33.1l-0.7-2.8l-0.7-2.8l-3.1-11l3.3-1.8l6.9-3.7l22.1-11.9
	l10.6-5.8c-5.1-1.2-10.3-1.9-15.4-2.7c-11.6-1.9-23.1-3.6-35-4.3l-8.3-0.6l-0.1-0.3l-0.1-0.3l-3.3-6.9l-0.1-0.4L300.1,70.4
	L300.1,70.4z"/>
</svg>
