<svg version="1.1" id="Layer_1" xmlns="http://www.w3.org/2000/svg" xmlns:xlink="http://www.w3.org/1999/xlink" x="0px" y="0px"
	 viewBox="0 0 600 600" style="enable-background:new 0 0 600 600;" xml:space="preserve">
<style type="text/css">
	.st0{fill:#FFFFFF;}
	.st1{fill:#00853F;}
</style>
<circle class="st0" cx="300" cy="300" r="300"/>
<path class="st1" d="M101.4,212l-24.7-8.4L73,214.1l4.3,1.5l-5.4,1.9l-5.6,16.4l8.7,13l73.3,24.9l13.2-4.9l7.5-22.2l-8.6-12.4
	l-13-4.4l-3.9,11.2l14,4.8l-5.3,15.5l-74.3-25.3l5.5-16.3l14.1,4.8L101.4,212 M468.4,165l17.9-19l-8.1-7.6l-3.1,3.3l0.5-5.7
	l-12.7-12l-15.5,2.5l-53.2,56.3l-1,14.1l17,16.1l14.9-2.7l9.4-9.9l-8.6-8.2L415.8,203l-12-11.3l53.9-57.1l12.5,11.8l-10.2,10.9
	L468.4,165z M153.3,142.3l-19.6-17.1l-29.2,33.4l8.4,7.4l4.7-5.3l59.2,51.7l-4.7,5.3l8.3,7.3l29.2-33.4l-19.3-16.9l-7.1,8.2l11,9.7
	l-9.2,10.6l-25.9-22.6l8.4-9.6l-8.4-7.4l-8.4,9.6l-24.8-21.7l8.8-10.1l11.2,9.8L153.3,142.3z M266.2,164.6l-10-23.6l-10.5,4.4
	l5.7,13.5l-11.5,4.9l-30.5-72.4l6.1-2.6l-4.3-10.3l-23.3,9.8l4.3,10.3l6.1-2.6l30.5,72.4l-6.1,2.6l4.3,10.2L266.2,164.6z
	 M331.6,87.9v-26H277v26h11.8V73h9.5v78.6h-7.4v11h26.3v-11h-6.7V73h9.8v14.9H331.6z M399.4,94.6l4-10.4l-23.7-9.1l-4,10.4l6.7,2.6
	l-28.1,73.3l-6.7-2.6l-4,10.3l23.6,9.1l4-10.3l-5.9-2.2l28.2-73.3L399.4,94.6z M452.3,269.4l35.4-14.9l5.1-8.3l-9.4-22.4l29.7-12.5
	l6.9,16.4l-13.7,5.8l4.6,10.9l24-10l-4.5-10.7l-4.1,1.7l2.8-5.1l-6.8-16.2l-14.2-4L475,214.2l-4.3,8.2l9.3,22.2L447.7,258l-6.9-16.5
	l13.5-5.7l-4.6-11l-23.6,9.8l4.7,11l4.1-1.7l-2.9,4.9l6.9,17.1L452.3,269.4z M451.6,336.6c-9.2-12.9-25.5-20.5-39.7-22.3
	c-14.3-1.7-24.5,0-36.6,3.6c-15.5,3.6-27.1,9.2-43.3,15.4c8.4-9.3,18.7-20.1,25.9-32.9c10.1-17.8,15.9-30.4,16.7-49.1
	c0.8-18.6-9.3-40.1-24.9-51.1c-12.3-8.4-29.7-9.2-43.3-0.3c-5.6,3.7-9.7,7.3-12.3,10c-11.9-8.4-23.5-13-38.1-10.6
	c-13.2,1.2-22.7,13-28.5,23.6c-19,38.6,13.3,77.3,37.3,105.1c-42.7-12.7-53.3-13-64.3-13.9c-11-0.9-28.6,0.3-41.3,7.5
	c-12.6,7.2-23.8,19.2-24.9,40.8c-0.8,15.7,7.8,31.1,23.7,40.1c-8.8,21.2-2.9,42.8,19.2,52.3c25.3,10.9,47.1,3.9,64.3-8.8
	c17.3-12.7,32-28.9,45-46c-4,93.7,54.4,122.5,54.4,122.5l6.5-23.2c-11-7.9-40.5-35.1-37.7-98.3l5.2,5.1c15.2,15.6,29,28.6,47.1,43.5
	c18.2,14.9,52.9,20.1,73-4.3c9.2-11.1,12.1-33.5,6.3-42.8l0.2-2.2c8.7-5.6,16.1-12.3,19.1-22.7C465.3,363.4,459,347.7,451.6,336.6z
	 M24.1,292.6C28.1,140.2,155,20.1,307.4,24.1C459.8,28.2,579.9,155,575.9,307.4C571.8,459.8,445,579.9,292.6,575.9
	C140.2,571.8,20.1,445,24.1,292.6z"/>
</svg>
