<svg version="1.1" id="Layer_1" xmlns="http://www.w3.org/2000/svg" xmlns:xlink="http://www.w3.org/1999/xlink" x="0px" y="0px"
	 viewBox="0 0 600 600" style="enable-background:new 0 0 600 600;" xml:space="preserve">
<style type="text/css">
	.st0{fill:#FFFFFF;}
	.st1{fill:#007DC5;}
	.st2{fill:#C4CED4;}
</style>
<path id="Outline" class="st0" d="M279.5,2.1C279.5,2.1,279.5,2.1,279.5,2.1c-31.8,0-58.8,13-75.8,23.9
	c-15.9,10.2-26.2,20.3-28.9,23.2c-14.5,6.7-28.5,14.4-41.5,22.9c-18.9,6.5-34.6,20.5-43.2,38.7c-8,6.7-20.8,23.5-23.6,27.2
	c-3.9,2.6-7.5,5.4-10.6,8.3l-0.2,0.1l-0.1,0.2c-14.5,15.6-24.6,34.9-29.2,55.7c-0.5,0.9-0.8,1.9-0.8,2.9c-0.2,0.9-0.3,1.8-0.4,2.6
	c-0.1,0.8-0.2,1.5-0.4,2.1l-0.1,0.3l0,0.3c-0.2,1.8-0.6,3.5-0.9,5.2c-0.4,1.9-0.8,3.8-1,6l-0.1,1c-2,5.8-3.8,11.9-5.1,18l0,0l0,0
	c-0.4,1.8-5.6,16.9-9.1,27.1l0,0.1l0,0.1c-20.9,73.7,3.7,120.4,12.4,133.8c9.8,28.1,24,54.5,42.2,78.5
	c18.1,23.8,39.8,44.8,64.5,62.2c24.9,17.6,52.4,31.3,81.6,40.7c30.2,9.7,61.7,14.6,93.7,14.6c0.7,0,1.4,0,2.2,0
	c46.6,0,93.2-11.1,134.9-32.1c41.6-21,78.3-51.9,106-89.4l0.3-0.4l0.2-0.4c1.1-2.4,1.9-5,2.3-8c3.5-1.9,5.6-3.7,6.5-5.6
	c29.8-45.7,45.4-98.6,45.1-153.2c0.4-28.5-3.7-56.9-12.1-84.2c-8.4-27.3-21-53.1-37.3-76.5l-0.5-0.7l-0.6-0.5
	c-2.1-1.6-5.9-4-6.1-4.1l0,0c-0.5-2.1-1.1-4.3-2-6.4l-0.3-0.6l-0.4-0.5c-26-33.4-59.5-61.2-96.8-80.5l-0.1-0.1l-0.1-0.1
	c-4.2-1.8-8.9-3.1-13.9-3.8l0,0c-3.6-3.5-7.9-6.3-12.5-8C381.1,28,343,20.5,303.9,20.5l-0.8,0c-8.3,0.1-16.5,0.5-24.6,1.2l8.7-11.6
	l5.7-7.7l-9.6-0.3C282.1,2.1,280.8,2.1,279.5,2.1L279.5,2.1L279.5,2.1z"/>
<path id="Black" d="M546.5,150.9c-2-1.5-5.8-3.9-5.8-3.9c-0.8-0.5-1.5-1.2-2-2c-0.4-2.4-1.1-4.6-2-6.8c-25.7-32.9-58.1-60-95.2-79.2
	c-4-1.8-8.3-2.9-12.6-3.4c-0.9,0-1.8-0.4-2.5-1c-3.1-3.1-7-5.7-11.2-7.3c-35.6-14.6-73.8-21.9-112.2-21.8
	c-11.9,0.1-23.7,0.9-35.5,2.5l15.5-20.8c-61.2-2-105.4,46.1-105.4,46.1c-14.7,6.7-28.8,14.5-42.3,23.3
	c-18.4,6.1-33.3,19.7-41.3,37.4C86,120.2,70,141.7,70,141.7c-3.7,2.5-7.4,5.2-10.7,8.3c-14.2,15.2-23.9,34-28.2,54.4
	c-0.4,0.4-0.6,0.9-0.5,1.5c-0.5,1.5-0.5,3.4-1,5.3c-0.5,3.9-1.5,7.3-2,11.2l0.5-0.5c0,0.5-0.2,1.1-0.5,1.5c-2.2,6-3.9,12.2-5.3,18.5
	c-0.5,2.5-9.2,27.7-9.2,27.7l0,0c-21.8,76.8,7.3,122.9,12.1,130.2c38.9,112.6,148.8,193.2,277.5,193.2c94.2,0.7,183-43.8,239-119.5
	c1.1-2.3,1.7-4.7,2-7.3c0.1-1,0.6-1.9,1.5-2.5c3.9-2,5.3-3.4,5.3-3.9c29.4-44.8,44.9-97.4,44.6-151
	C595.8,252.4,578.7,197.1,546.5,150.9z"/>
<path id="White" class="st0" d="M385.2,524c-142.3,6.8-177.3-61.2-177.3-61.2c-0.4-0.9-0.9-1.7-1.5-2.5c2.5,1,45.1,15.5,85.9-21.8
	l-9.2-78.2L273,386.5c-0.5-0.9-0.8-1.9-1-2.9c-0.5-1-31.6-155.5-32.5-160.8c4.8,4.3,23.3,21.3,38.8,29.1c0,0,4.3,3,2,0.5
	c0,0-63.6-54.4-55.9-121.4c16.5,33,37.9,40.8,37.9,40.8l-26.7-95.7c0,0-2.9-25.3,24.8-56.3c0,0,3.4-2.5-2-0.5
	c0,0-43.8,9.7-70.4,46.6c-2.3,8.6-3.3,17.4-3.4,26.3H184l-1.5,1.5c-0.5,0.5-1.5,1-2,2c-15.3,16-28.2,34.2-38.4,53.9
	c-21.8,42.3-33.5,100.5,20.4,154.4c-4.1-0.4-33.8-3.7-50.9-27.6c1,4.8,9.7,39.3,23.3,61.2c-16-4.3-29.6-23.8-31.6-27.7
	c0-1-0.5,0-0.5,0c5.8,20.4,10.7,27.7,10.7,27.7c2.5,4.8,19.5,36.9,59.3,80.6h-0.5c-52-4.8-69.9-23.3-69.9-23.3c-0.5-1-0.5,0-0.5,0.5
	c3.9,8.7,8.7,17,14.1,24.8c3.9,6.3,92.8,152,264.2,106.4c2.4-0.3,4.6-0.8,6.8-1.5c0.3-0.3,0.6-0.5,1-0.5
	C388.6,524,385.2,524,385.2,524z M239,410.8c5.3-11.2,9.7-16,14.1-16c3.4,0,6.3,3,8.3,7.3c2.6,5.3,4.5,10.8,5.8,16.5
	c1,4.8,2,9.7,2.5,13.6c0.5,2.5,0.5,5.3,1,9.7c-19-58.8-23.8-9.7-23.8-9.7l-8.8-18C238.5,413.1,238.9,412,239,410.8z M241.9,31.8
	l-0.5,0.5c-14.6,18.5-17.5,33.5-18,36.9v1c-8.3-3.9-17,9.7-19.5,13.6c-0.5,1-0.5,0-0.5,0C211.8,41.1,240.5,32.3,241.9,31.8z
	 M207.4,151.9v0.5c1.7,17.2,6.8,33.9,15,49.1c0.4,1.3,1.1,2.4,2,3.4c-7.7-0.2-14.9-3.3-20.4-8.8l-1.5-1.5c0-0.5-0.5-1.5-1-1.5
	c-0.6-1.6-1.4-3-2.5-4.3c-1.8-4.3-2.8-8.9-2.9-13.6C196.3,166.1,200.5,157.6,207.4,151.9z M180.7,142.6c0.5-0.5,0.5-1.5,0.5-0.5
	s-0.2,2-0.5,2.9v1.5c-2.5,14.6-5.8,58.8,29.1,77.2c0.7,0.6,1.6,1,2.5,1c0.5,0.5,1,1,1.5,1c2.1,0.6,3.9,1.4,5.8,2.5l2.5,10.2l4.3,19
	C224.9,256.8,145.2,223.3,180.7,142.6z M162.7,303.4L162.7,303.4c0.3,0,0.5,0.2,0.5,0.5c0,0-0.2,0-0.5,0V303.4z M147.2,317.5
	c0,0,15,10.2,27.2,5.8c0,0,39.3,85.9,45.6,98.1c0,0,0,1,0.5,1c0,0,0,0.5-1-1C212.3,413.2,166.6,368.5,147.2,317.5z"/>
<path id="Blue" class="st1" d="M508.5,140.2c0,0-68.9-92.3-198.6-92.3h-3c-0.8,0-1.5,0.4-2,1c0,1,1,1.5,2,2
	c10.4,8.3,20.3,17.3,29.1,27.2v0.5l0.5-0.5c2.7-1.2,5.4-2.2,8.3-3c7.3-1.9,14.8-2.9,22.3-3c14.6,0,29,3.6,41.8,10.7
	c-6.8,3.4-38.8,19.5-46.1,38.4l0.5,0.5c0,0,32.5,29.1,99.6,29.1c11.7,0.1,23.4-0.7,35-2.5c2,0,3.9-0.4,5.8-1c3-1,6.3-2,6.3-5.3
	C509.4,141.6,509,140.9,508.5,140.2z M369.2,269.4c-0.5-0.5-1-0.5-1,0c-0.5,0-0.5,0.5,0,0.5c0.7,0.8,1.4,1.6,2,2.5
	c3.9,5.3,11.2,18,11.2,40.3c-0.5,20.9-5.6,41.5-15,60.3c-0.1-7.2-0.9-14.4-2.5-21.3c-2.5-12.6-6.8-25.8-17-28.6h-1l-5.8,54.9
	l21.8,81.6l-43.3,35c-0.5,0-0.5,0-0.5,0.5c0,0.3,0.2,0.5,0.5,0.5l0,0c14.9,3.8,30.3,5.7,45.6,5.3c18.5-0.1,36.9-2.1,54.9-5.8
	c3.1-0.9,5.6-3.2,6.8-6.3c3.3-17.8,5-35.8,4.8-53.9C431.3,386.5,421.1,318,369.2,269.4z M440.6,488.5c-1-0.5-1-1.5-1-2.9v-2.5
	c1.6-5.9,2.7-11.9,3.4-18c2.4-14.9,3.5-30.1,3.4-45.1c0-49.1-11.7-117.5-66.6-170.5c-0.3-0.3-0.6-0.4-1-0.5l-1.5-1.5
	c0.1-0.4,0.2-0.7,0.5-1h1c0.8,0,1.7,0.2,2.5,0.5c9.3,3.1,17.9,8.5,24.8,15.5c-0.5-2.5-1.5-7.8-3-14.6c-3.5-11.7-9.3-22.6-17-32.1
	l-1.5-1.5c-0.5-1-1-1-1-2v-1h1c0.5,0,1,0.5,2.5,1.5c3.4,1.5,141.4,68,146.2,202.1v2.5c0.3,5-1.5,9.9-4.8,13.6
	c-1.5,1.5-34,42.3-82.6,57.3c-0.9,0.6-1.9,0.9-3,1C442.6,489.5,441.1,489.5,440.6,488.5z M544,390.3
	c-2.9-110.7-107.9-186-160.3-217.1c-9.3-5.8-19.1-11-29.1-15.5l-2.5-1h3.4c12.7,0.1,24.7,5.5,33,15c-0.2-4.8-1-9.5-2.5-14.1l-1-1.5
	l1.5,0.5c15,5.8,34,7.8,52.9,7.8c16.6-0.2,33.1-1.5,49.6-3.9c13.1-1.5,21.8-3.4,21.8-3.4h2c7.8,0,10.2,4.3,10.2,4.8
	c18,20,39.8,65.6,43.8,120.5c0.5,6.8,0.5,13.6,0.5,20c0,41.3-8.8,73.4-15,86.4c-2.5,4.8-4.3,7.3-6.3,7.3
	C544.5,395.7,544,393.8,544,390.3z"/>
<path id="Grey" class="st2" d="M342,450.6l-35.5,36.9l43.8-33.5l-22.8-77.7l10.2-93.2L320.1,372L342,450.6z M333.2,261.1
	c0.7-0.1,1.4-0.5,2-1c3.7-2,7-4.6,9.7-7.8c9.6-10,14.8-23.5,14.1-37.4c-0.1-9.9-1.8-19.8-4.8-29.1
	C353.7,199,349.7,247.1,333.2,261.1z M349.7,102.3c12.1-18.5,32.5-20,41.3-20c-6.6-2.2-13.5-3.3-20.4-3.4c-7.1-0.2-14.2,1-20.8,3.4
	c-3.9,1.5-6.3,2.5-7.3,3C345.2,90.8,347.7,96.5,349.7,102.3z M318.7,151.9l0.5-0.5L318.7,151.9z M333.7,141.7c0.3,0,0.5,0.2,0.5,0.5
	l0,0v5.3c0,39.8-10.2,83.6-14.6,99.1c13-29.4,19.6-61.2,19.5-93.2c0-11.7-1-23.4-2.9-35c-0.5-3.4-1.1-6.9-2-10.2
	c-3.9,30.1-15.5,43.8-15.5,43.8l-0.5,0.5c-0.5,0-0.5,0-1-0.5c-10.9-19.5-25.3-37-42.3-51.5c-6.8-6-14.4-11.2-22.3-15.5
	c36,77.7,46.6,137.5,49.6,157.4v-6.8c-0.7-24.2-3.4-48.2-8.3-71.9c-3.9-20.8-8.3-36-8.3-36v-1h1c16,12.6,27.7,48.1,29.1,54.9
	c4.4-6.7,8.1-13.9,10.7-21.3c3-9.2,5.8-18,5.8-18L333.7,141.7z M31,303.4c0,36.9,6.3,75.3,38.4,124.9
	c30.6,63.6,85.9,97.6,112.2,110.7c8.8,3.9,14.1,6.3,14.1,6.3c35.8,17.2,74.9,26.2,114.7,26.3c53.8-0.5,106.4-16.7,151-46.6
	c7.8-5.3,12.1-8.8,12.1-8.8l0,0l3.4-3.4c0,0.5-1,1-1.5,1l-2.9,2c-56.8,33-108.9,43.3-151.5,43.3c-67.1,0-109.7-24.8-109.7-24.8
	C69.5,460.3,67.5,332,67.5,332c0-0.3,0.2-0.5,0.5-0.5l0,0h1c18,35.5,40.3,47.1,50.1,51c1.1,0.6,2.3,1.1,3.4,1.5
	c-41.3-51.5-52.9-95.2-52.9-127.7c0-43.8,20.8-68,20.8-68l0.5-0.5c0.3,0,0.5,0.2,0.5,0.5l0,0c-2.6,13.3-3.8,26.7-3.9,40.3
	c-0.2,14.7,1.8,29.2,5.8,43.3c1.3,3.8,2.8,7.6,4.3,11.2c-1.4-10-2-20.1-2-30.1c-0.1-62.7,24.8-123,68.9-167.6
	c-9.2,3.9-20,13.6-28.6,22.8c-9.7,9.7-17.5,19.5-17.5,19.5H118c-0.5,0-0.5,0-0.5-0.5c0.8-7.8,3.2-15.2,7.3-21.8
	c-7.5,7.6-13.6,16.5-18,26.3c-3,5.9-5.4,12.1-7.3,18.5v0.5C87.2,164.8,76.9,180.8,69,198c-3.5,7.4-6.5,15-8.8,22.8c-0.5,2-1,3-1,3.4
	c0,0,0,0.5-1,0.5c-1,0-0.5-0.5-0.5-1v-0.5c0-1,0.2-2,0.5-2.9c0-18.5,7.8-38.4,10.7-46.1c-21.3,22.8-26.7,54.4-26.7,79.2
	c0,14.1,1.6,28.1,4.8,41.8c0.6,15.8,2.4,31.6,5.3,47.1c3.4,14.6,5.8,25.3,5.8,25.3c0.7,1.6,1.2,3.1,1.5,4.8v0.5h-0.5
	c-1,0-1-0.5-1.5-1c-0.5,0-0.5-0.5-1-1.5l-1-2C40.3,345.2,33,307.3,31.5,298C31.1,299.8,31,301.6,31,303.4z M233.2,370l-5.9-101.6
	l34.5,113.2C261.8,381.6,250.6,354.8,233.2,370z M261.8,171.7l-26.3-95.7v2l7.3,60.7c0.3,0.8,0.5,1.6,0.5,2.5c0,3.4-2,7.8-18.5-9.2
	c-0.5-1-1-1-1-1C240.5,164.5,261.8,171.7,261.8,171.7z M199.2,189.3c-2.3-4.3-3.3-9.1-3.4-14.1c0.2-8.9,4.2-17.2,11.2-22.8l0.5-0.5
	c-0.6-8.1-0.6-16.2,0-24.3c-8.8,12.6-27.2,43.3-4.8,67.1c-0.5-0.5-1-1-1-1.5C200.8,191.9,199.9,190.6,199.2,189.3z M254.1,383.1
	c0,0-17-4.3-15.5,30.6c0.1-1,0.4-2.1,1-2.9c4.8-11.7,9.7-16,14.1-16.5c3.4,0,6.3,3.4,8.3,7.8c2.2,5.2,3.9,10.6,5.3,16
	c1.4,4.6,2.4,9.3,3,14.1c0.5,3,0.6,6.1,0.5,9.2v0.5C271.1,437.9,278.3,389.9,254.1,383.1z"/>
</svg>
