<svg version="1.1" id="Layer_1" xmlns="http://www.w3.org/2000/svg" xmlns:xlink="http://www.w3.org/1999/xlink" x="0px" y="0px"
	 viewBox="0 0 600 600" style="enable-background:new 0 0 600 600;" xml:space="preserve">
<style type="text/css">
	.st0{fill:#FFFFFF;}
	.st1{fill:#0A2240;}
</style>
<circle id="White_Circle" class="st0" cx="300" cy="300" r="300"/>
<path id="Logo_Center" class="st1" d="M83.7,280.2L26.2,289C32,142.7,152.4,25.7,300.2,25.7l0,0v1.5v89.1l0,0v26.6l0,0v14.5l0,0v15
	l1.5,0.5l4-15.5h71.7l0.5,1.6c-0.8,5.3-0.2,20.8,25.8,32.2l0.8,2.1l-104.1-2.7l-104.3,2.7l0.8-2.1c26.3-11.3,26.6-26.9,25.8-32.2
	l0.5-1.6h71.7l-3.5-14.2l-52.2,1.8l0.5-1.5c15.5-8.7,16-21,15.8-25.6l0.5-1.6h28.5L276,84C173.8,95.5,93.1,177.5,83.7,280.2z
	 M485.2,186.1l-8.4,25.5l1.6,3.9h75.9l3.1-9.3c-37.2-101.7-133-175.3-246.3-179.5L320,84C390.3,89.8,450.4,129.3,485.2,186.1z
	 M478.6,384.6l-1.6,3.9l8.4,25.5c-34.8,56.6-95.1,95.9-164.7,102.5l-8.9,57.5c113.5-4.7,208.9-78,246.1-179.7l-3.2-9.3h-76.1V384.6z
	 M409.3,207.8l-0.8-2.1H300H191.5l-0.6,2.1c-0.3,6.6-3.2,27.1-31.7,55.3l-0.6,2.4c16-6.8,30.3-12.6,43.5-17.7
	c16.4-6.1,31.9-11.1,46.9-15c8.2-2.3,16.4-4,24.3-5.8c8.4-1.8,16.8-3.1,25-4.4l1.6-0.3l1.8,0.3c6.9,1,14,2.1,21.3,3.5
	c6.8,1.5,13.9,2.9,21.1,4.8c13.1,3.4,26.3,7.4,40.8,12.6c19.7,7.1,38.7,14.7,57.4,22.7l-1-3.4C412.7,235.2,409.6,214.4,409.3,207.8z
	 M360.9,143.7c-15.5-8.7-16-21.1-15.8-25.6l-0.5-1.6h-28.5l-6.9,26.8l52.2,1.8L360.9,143.7z M348.7,428.4c0.2,0.2,0.5,0.5,0.6,1l0,0
	l0,0c0.5,0.8,1.5,1.5,2.4,2.1c1,0.8,2.3,1.5,3.5,1.9l0,0l0,0c2.4,1.3,5.8,2.3,10,3.2c7.4,1.9,16,2.9,23.4,3.5c2.3,0.3,4,0.5,6.3,0.5
	c3.4-9.7,7.6-19.3,12.4-29c-8.7,3.9-18.1,7.3-28,10.2C366.7,425.4,356.1,427.3,348.7,428.4z M235.1,436.7c4-1,7.3-1.9,9.8-3.2l0,0
	c1.5-0.5,2.6-1.5,3.5-1.9c1-0.6,1.9-1.5,2.4-2.1l0,0l0,0c0.2-0.3,0.5-0.8,0.8-1c-7.3-1-18.1-2.9-30.8-6.3c-10-2.9-19.3-6.3-28-10.2
	c4.8,9.7,8.9,19,12.4,29c2.1-0.2,4.2-0.2,6.3-0.5C218.8,439.6,227.5,438.4,235.1,436.7z M573.8,300L573.8,300v11l-57.5,8.9
	l-60.1,9.5c-12.9,20.8-26.6,41.6-38.7,62.5c-1.5,1-2.9,1.8-4.4,2.7c-19.2,11-40.3,17.4-63.8,19.3c2.3-5.2,5.3-10,8.4-14.8
	c1.8-2.6,3.5-5.3,6.1-8.7c1.9-2.7,4.2-5.6,6.6-8.7c6.1-7.7,12.2-15.8,18.4-23.2c2.9-3.5,6.1-7.6,9.2-11.4l6.9-8.7
	c0.3-0.5,0.5-0.8,1-1.3c1.9-2.6,3.9-5.3,5.8-7.7c2.3-2.9,4.4-6.1,6.4-9.2c0.8-1,1.3-1.9,1.9-2.9c0.3-0.5,0.8-1.3,1.3-1.8l0,0l0,0
	l-11.6-3.4c0,0,0,0.3-0.2,0.3c-0.5,1-1.3,1.9-1.6,2.9c-1.8,2.6-3.5,5.3-6.3,8.7c-3.4,4.7-7.9,10.5-13.1,16c-0.3,0.2-0.5,0.6-0.8,1
	l0,0c-6.1,7.1-12.9,14.3-19.2,21.1c-3.5,3.9-7.4,7.9-11.1,12.1c-4.7,5-9.8,11.1-14.7,17.4c-2.4,3.2-4.7,6.3-6.8,9.3
	c-1.6,2.7-3.9,6.4-5.6,10.6c-1.3,2.9-2.7,7.4-2.4,12.7c0,5.2,2.1,10.5,5.8,14.3c1.9,2.3,4.2,3.9,6.3,5.3l0,0l0,0
	c2.4,1.5,4.8,2.7,6.9,3.5c4.2,1.8,8.7,2.9,14,3.9c4.7,1,9.2,1.5,13.5,1.6c4.5,0.5,9.3,0.5,13.2,0.5c0.2,0,0.5,0,0.5,0
	c1,0,1.6,0,2.7,0c-0.8,2.6-1.3,5.3-1.9,7.9l0,0l0,0l0,0l0,0L349,475.8l-24.8,9.5l-17.4-178.9l-1.6-16.3l-3.2-32.9l-1.9,0.8v32.2v9.5
	v4.4v196l0,0v72.7v1.5c-151.3,0-274.1-122.6-274.1-274l0,0v-0.2h60.4h101h16l0.5-1.8l-26.4-7.3l-24.7-6.8l1-2.7
	c45.3-20,94.3-39.2,146.2-46.4c51.1,6.8,100.1,27.1,146.5,47.1l0.6,1.9l-24.7,6.8l-26.1,7.3l0.5,1.8h16h101h60v0H573.8z
	 M280.2,516.3l-4.8-31.4l-23.7-9l-40.1-14.5c0,0,0,0-0.3,0l0,0l0,0l0,0c-0.5-2.6-1.3-5.3-1.9-7.9c1,0,1.8,0,2.7,0c0.2,0,0.5,0,0.5,0
	c4,0,8.7,0,13.2-0.5c4.4-0.2,8.9-0.6,13.5-1.8c5.3-1,9.7-2.1,14-3.9c2.3-1,4.7-1.9,7.1-3.5l0,0l0,0c1.9-1.5,4.4-3.1,6.3-5.3
	c3.5-3.9,5.6-9.2,5.8-14.3c0-2.4,0-6.4-2.4-12.9c-1.8-4-3.9-7.9-5.6-10.6c-1.9-3.2-4.4-6.6-6.8-9.5c-4.8-6.3-10.2-12.2-14.7-17.4
	c-3.5-4-7.6-8.2-11.1-12.1c-6.4-6.8-13.1-14-19-21l0,0c-0.3-0.3-0.5-0.5-0.8-1c-5.2-5.8-9.7-11.6-13.1-16.1
	c-2.4-3.4-4.4-6.1-6.3-8.7c-0.8-1-1.3-1.9-1.6-2.9c0,0,0-0.2-0.3-0.2l-11.6,3.4l0,0l0,0c0.5,0.5,0.6,1.3,1.3,1.6
	c0.6,1,1.3,1.9,1.9,2.9c2.3,3.1,4.4,6.3,6.6,9.2c1.9,2.7,3.9,5.3,5.8,8.1c0.3,0.3,0.5,0.8,0.8,1l6.9,8.7c3.2,3.9,6.1,7.7,9.2,11.3
	c6.1,7.7,12.6,15.5,18.4,23.2c2.4,3.2,4.7,5.8,6.6,8.7c2.4,3.4,4.4,6.1,6.1,8.7c3.1,4.8,6.3,9.7,8.4,14.7
	c-23.2-2.1-44.8-8.7-63.7-19.3c-1.5-0.6-2.9-1.6-4.4-2.6c-11.8-21-25.6-41.9-38.7-62.7L84,319.3C93.4,424.1,175.9,506.9,280.2,516.3
	z M300.3,500L300.3,500L300.3,500L300.3,500z"/>
</svg>
