<svg version="1.1" id="Layer_1" xmlns="http://www.w3.org/2000/svg" xmlns:xlink="http://www.w3.org/1999/xlink" x="0px" y="0px"
	 viewBox="0 0 600 600" style="enable-background:new 0 0 600 600;" xml:space="preserve">
<style type="text/css">
	.st0{fill:#707271;}
	.st1{fill:#12173F;}
	.st2{fill:#5D76A9;}
	.st3{fill:#FFBB22;}
</style>
<path id="Grizzly_Grey" class="st0" d="M555.8,147.3c6.9-12.5,10.6-26.4,10.7-40.7c-0.6-29.4-15.7-56.7-40.2-72.9
	C493.5,11.5,444.4,8.4,409.6,50c-37.1-4.8-74.7,0-109.5,13.7C265.4,49.9,227.7,45.2,190.6,50C155.8,8.4,106.6,11.5,74,33.7
	c-24.6,16.2-39.7,43.5-40.2,72.9c0.2,14.2,3.9,28.2,10.7,40.7C18.2,185.1,0,230,0,275.7c0,55,23.6,83.5,32.4,95.7l7-7
	c24.9,63.4,67.5,97.6,119,128.6c0,0,1.1-6.2,2.2-11.9c55.4,48,81.8,36.2,139.4,101.4c57.5-64.9,84.6-53.8,139.4-101.4
	c1.1,5.6,2.2,11.9,2.2,11.9c22.9-13.8,87.5-48.5,119-128.6l7,7c5.4-7.5,32.4-37.5,32.4-95.7C600.3,230,582.1,185.2,555.8,147.3"/>
<path id="Grizzly_Blue" class="st1" d="M540,148.1c52.8-81.2-67.1-165.6-125.1-83.9c-38.8-6.4-78.6-1.5-114.8,14.1
	c-36.1-15.6-76-20.4-114.8-14.1C127.2-17.5,7.5,66.9,60.3,148.1C0.1,230.7,6.1,312.3,34,350.6l11.5-11.5c0,0,16.4,79.7,103.1,132.1
	l3.1-17.2c53.4,57,102.2,55.7,148.2,107.9c46.1-52,94.9-50.8,148.2-107.9l3.1,17.2c86.7-52.3,103.1-132.1,103.1-132.1l11.5,11.5
	C594.3,312.2,600.3,230.9,540,148.1"/>
<path id="Highlight" class="st2" d="M300.7,451.5c0,0-41.6,0.7-47.8,4.5c0,0-7.2,12.3,47.8,12.2c52.3-0.3,44.6-9.8,45-11.2
	C331,453,315.8,451.2,300.7,451.5 M264.6,403.1c0,0,6.5-18.8,13.4-12.9c9.6,8.3,22.1,25.1,22.1,26.8v22.4l-15.2,0.8
	c-12.4,1.6-24.7,3.9-36.9,6.9c-38.8-95.9-17.2-168.4-6.9-194.4c-38.3,8.3-44.6-37.8-44.6-37.8c5.8-0.2,11.5,1.2,16.5,4.1
	c11.3,5.8,22,12.8,32,20.7l0,0c2.8,2.2,5.4,4.3,7.9,6.4c26.2,22,47.3,17.5,47.3,17.5v93.9C300.1,357.6,224,351.6,264.6,403.1
	 M336,403.1c48.5-49.2-30.6-46.3-35.6-45.5C308.5,358,369.8,358.4,336,403.1 M368.2,254.3c43.6,117.5-11.7,193.1-12.1,193.5
	c34.3-90,12.3-164.6-2.7-192.4c-5.6,0.5-11.3,0.6-16.9,0.3c6.7-4.2,13.1-8.8,19.1-14c0.5-0.5,1.1-0.9,1.8-1.6
	c9.6-8.8,20.6-15.9,32.7-20.9l0,0c5.4-2.1,11-3.5,16.7-4.2C406.6,215,402.6,253.8,368.2,254.3 M437.3,102.3c0,0,17.8-44.4,72.4-33.7
	c0,0-50.1-32.9-85,26.6c0,0-50-23.4-124.5,8.8c0,0-70.1-24.7-123.3-10.7c0,0-31-53.9-74.8-31.7s-20.9,73.4-13.3,86.9
	c0,0-72.5,73.8-45.3,165l14.6-18.2c0,0,20.9,99.5,74.5,130.8l3.3-24.4c0,0,56.1,67.6,122,96.3c6.2,3,41.2,20.3,42.3,28.9v-47.3
	c0,0-45.7,3.8-57.9-17.3c-8.3-14.4-60.8-108.1-34.8-206.4c0,0-25.3-3.8-30.1-46.5c-13.3-5.8-27.8-8.3-42.3-7.3c0,0,41.9-13.1,81.2,2
	s49.9,53.9,76.4,36.9l7.3-109.1l8,109.1c26.6,17.1,37.1-21.5,76.4-36.9c39.3-15.2,81.3-2,81.3-2c-13.4-8.4-28.2-14.3-43.8-17.2
	c-22.5-4.5-55.6,9.9-55.6,9.9s4.6-30.9,19.6-47.4C399,133,428.3,129.9,437.3,102.3z M98.2,139.8c-1.6-14.9,17.2-29.5,17.2-29.5
	c-7.7-8-21.3-1.1-21.3-1.1c12.2-24,39.7-12.2,39.7-12.2c-10.4-12.7-32.4-11.9-32.4-11.9c27.2-27.1,60.2,14.2,60.2,14.2
	C132.4,105.9,98.2,139.8,98.2,139.8z"/>
<path id="Eyes" class="st3" d="M245.1,239.8c-4.2-1.4-11.1,3-15,10.6c-13-3.8-17.5-17.9-16.9-31.3l0,0
	C224.5,224.9,235.2,231.9,245.1,239.8 M373,250.4c-4.1-8-11.5-12.3-15.7-10.3c9.6-8.8,20.6-15.9,32.7-20.9l0,0
	C390.5,232.6,386,246.7,373,250.4"/>
</svg>
