<svg version="1.1" id="Layer_1" xmlns="http://www.w3.org/2000/svg" xmlns:xlink="http://www.w3.org/1999/xlink" x="0px" y="0px"
	 viewBox="0 0 600 600" style="enable-background:new 0 0 600 600;" xml:space="preserve">
<style type="text/css">
	.st0{fill:#9EA2A2;}
	.st1{fill:#0C2340;}
	.st2{fill:#236192;}
	.st3{fill:#78BE20;}
	.st4{fill:#FFFFFF;}
</style>
<ellipse id="Grey_Circle" class="st0" cx="300" cy="300" rx="300" ry="300.1"/>
<ellipse id="Navy_Circle" class="st1" cx="301.5" cy="299.6" rx="289.4" ry="289.5"/>
<path id="Light_Blue" class="st2" d="M302.2,108.2c-14.7-0.1-29.2,1.5-43.2,4.7c-1.3,4.2-3,12.3-0.1,19.7c1.8,4.5,5.2,8.1,10,10.9
	c13.3-5.4,27.6-10.9,41.5-15.6c17.5-6.4,33.1-9.9,45.2-11.8c-0.3-0.1-0.6-0.2-1-0.3c-8.6-2.5-17.2-4.4-25.9-5.7
	C319.9,108.9,311.1,108.2,302.2,108.2L302.2,108.2z M245.6,116.4c-27.4,8.3-52.7,22.7-73.9,42c0.9,0,2,0,2.9,0.1
	c18.2-1.1,44-0.3,58.8,0.3c6.2-2.8,13.8-6.1,22.2-9.7c-3.7-3.4-6.5-7.4-8.3-12C244.6,129.7,244.7,122.3,245.6,116.4L245.6,116.4z
	 M382,126.1l0,0.2c-0.5,0-40.8-0.9-90.7,23.3c-0.9,0.5-1.7,1.1-2.6,1.6c15.6,4.6,28.5,5.5,37.8,6.1c2.2,0.2,4.1,0.3,5.8,0.4l1.4,0.1
	c6,0.5,14.4,1.5,24.4,3.2c7.4-9,16.3-14.7,22.3-16c7.1,2.6,10.7,6.8,13.3,12.7c9.8,4.1,16.4,11.3,20.7,20
	c22.7,9.9,45.5,24.5,62.9,46.2C458.9,181.7,425.7,146.3,382,126.1L382,126.1z M278,160.6c-4.1,4.6-7.5,9.4-10.1,13.4
	c5.2,5.4,15.1,15.8,20,21.3c8.5,5.1,17,10.6,25.4,16.5c13.4-15.1,25.3-27.4,37.1-39.7c-5.7-0.8-11.6-1.5-17.8-2l-1.5-0.1
	c-1.6-0.2-3.4-0.3-5.5-0.4C315.1,168.9,298.3,167.5,278,160.6L278,160.6z M171.3,170.7c-4.9,0-9.1,0.2-12.3,0.4
	c-15.9,17.5-28.7,38.2-37.4,61.4c19.5-20.2,48.8-41.7,81.4-35.4c2.6-4.6,5.2-9.1,7.6-13.3c-10.2-6.7-16.5-11.5-34.1-13.1
	C174.7,170.7,173,170.7,171.3,170.7L171.3,170.7z M419.5,192.9c5.8,26.1-0.8,55.7-0.8,55.7s14.2,8.2,17.6,23.8c0,0,1.9,0.8,3.4,3.1
	c4,4.9,9,16.1,0.9,38.1c0,0-4.8-10.3-15,0.8c-0.9,1.2-1.7,2.4-2.6,3.6c19.4,26.7,34.2,54.6,41.8,81.9c8.6-14.2,15.6-29.7,20.5-46.4
	c6.8-23.2,8.9-46.7,7-69.5C487.3,261.3,471.2,219.4,419.5,192.9L419.5,192.9z M241.4,197.4c-5.2,2.5-11,5.4-16.5,8.6
	c15.6,10.2,27.2,27.5,36.1,47.9c12.4-4.3,21-4.4,21-4.4c8.3-10.6,16-19.9,23.2-28.3c-8.3-5.8-16.7-11.3-25.1-16.3
	C270.8,201.6,248.9,198.4,241.4,197.4L241.4,197.4z M189.8,208.3c-34.1,1.1-64.3,36.8-76.5,53.3c-8.5,41.4-2.9,83,13.9,119.2
	c9-8.5,17.7-17.2,26-26c-0.6-27.5,3-54,11.1-79.4c6.8-21.2,15.8-39.2,25.5-54.2c1.5-2.9,3.9-7.4,6.8-12.7
	C194.3,208.3,192.1,208.2,189.8,208.3L189.8,208.3z M213.3,213.4c-2.9,2.1-5.6,4.3-7.8,6.5c-22.3,31.4-38.2,72.4-39.8,121.4
	c23.8-26.2,43.5-50.6,56.8-63.5c9.3-8.9,18.6-15,27.1-19.2C240.8,238.1,229.1,221.4,213.3,213.4L213.3,213.4z M415.6,329.3
	c-12.5,20.3-18.6,39.4-19.3,73c-0.4,18.4,8.7,32.5,15.4,54.4c16.7-11.7,31.5-26.1,43.8-42.8C449.9,386.4,435.5,357.4,415.6,329.3
	L415.6,329.3z"/>
<path id="Green" class="st3" d="M379.8,153.5c-3.7-0.1-8.4,3.2-14.2,13.8c12.4-13.3,23.3-4.7,23.3-4.7
	C387.5,159.4,384.5,153.6,379.8,153.5z M263.7,156.1l-26.6,13.3c0,0-19-1.6-29-1.9c9.1,5.9,17,12.7,17,12.7l-11.8,19.5l25.1-13.6
	c0,0,15.8,2.7,30.3,5.6c-8.2-9.4-18.3-16.4-18.3-16.4L263.7,156.1L263.7,156.1z M274.4,271c-14.5,7.2-36.3,29-36.3,29
	c10.5-7.2,32.3-10.4,32.3-10.4C270.9,280.6,274.4,271,274.4,271L274.4,271z"/>
<path id="Grey" class="st0" d="M300.9,83.9c-107.2,0-199.1,80.2-213.8,186.6c-6.1,44.2,1.4,88.1,21.2,127c2.5-2.1,4.9-4.2,7.4-6.3
	c-18.2-36.7-25-78-19.2-119.4C110.4,170,198.3,93.3,300.9,93.3c9.4,0,19,0.7,28.5,2c54.6,7.5,103,35.9,136.4,80
	c33.4,44,47.6,98.4,40.1,153c-8.3,60.2-42.5,111.7-90.3,143.7c0.6,3.2,1.2,6.6,1.7,10.1c51.8-33.2,89.1-88.1,98-152.5
	c7.9-57.1-7-113.9-41.9-159.9c-34.9-46-85.5-75.7-142.6-83.6C320.8,84.6,310.7,83.9,300.9,83.9L300.9,83.9z M395.3,173.5
	c0.4,1.3-0.1,6.1-0.4,9.8c0,0,0-0.1-0.1-0.1c-8.7,1.6-27.7-0.6-33.9-3.8c-23.5,25.2-49,60.1-68.3,92.3c-8.3,17-16.5,36.9-18.6,53.1
	c0,0-2.7-7.3-3.3-17.1c-10.7,4.1-46.8,21.9-54.6,76.4c0,0,23-23.7,48.4-33c0,0-16.1,42.2,14.6,116.9c0,0,12.4-45.8,38.5-57.4
	c15.8,78.3,62,79.6,75.4,132.8c0,0,14.1-27.6-2.9-74.5c0,0,5.9,1.6,10.8,7.5c0,0-0.8-13.7-13.6-43.3c-8.4-15.8-11-37.2-11-37.2
	c-7.5,6.8-9.4,29.8-9.4,29.8c-22.9-62.2,42.2-123.9,54-133c5.8-4.4,9.4-4.5,11.5-3.5c2.2-4.6,2-7.6-0.7-9.5c0,0-1.1-0.8-1.4-0.9
	c-6.9-3.7-19.3,7.1-27.4,11.5c-8.1,4.4-19.9,13.9-25.6,0.9c-5.7-13.1,7.5-33.5,12.1-46.3c10.1-28.4,10.5-45.2,8.3-54.2
	c9.3,10.5,12.3,30.8,12.3,30.8S413.8,183.5,395.3,173.5L395.3,173.5z M192.8,390.3c0,0-43.4,31.8-87.8,34.4c0,0,43.9,10.3,62.5,2.8
	c-1.8-1.2-3.8-2.9-5.8-5.4c0,0,17.9-11.5,31-31.5C192.8,390.4,192.8,390.3,192.8,390.3L192.8,390.3z"/>
<path id="White" class="st4" d="M323.8,30.3l-1.1,8l10.1,1.3L329.1,68l8.2,1.1l3.8-28.4l10.1,1.3l1.1-8L323.8,30.3L323.8,30.3z
	 M253.4,33.5l-1.2,0.2L242,73.1l8.9-1.5l5.1-19.3l11.2,16.5l9-1.6L253.4,33.5L253.4,33.5z M375.5,40.1L365,75.3l7.9,2.3l10.4-35.2
	L375.5,40.1L375.5,40.1z M216.4,42.1l-26.6,10.8l3,7.4l9.5-3.8L213.1,83l7.6-3.1L210,53.4l9.5-3.8L216.4,42.1L216.4,42.1z
	 M411.1,52.1l-17.2,32.9l7.3,3.8l7.9-15.1l3.7,14l0.9,0.5l13.6-5l-7.9,15.1l7.3,3.8L444,69.3l-1.1-0.6l-24.2,8.8l-6.5-24.7l0-0.2
	L411.1,52.1L411.1,52.1z M164.5,69.1c-10.4,0-18.8,8.4-18.8,18.8s8.4,18.8,18.8,18.8c10.4,0,18.9-8.4,18.9-18.8
	S174.9,69.1,164.5,69.1z M164.5,77.7c5.7,0,10.3,4.6,10.3,10.3c0,5.7-4.6,10.3-10.3,10.3s-10.3-4.6-10.3-10.3
	C154.2,82.3,158.8,77.7,164.5,77.7z M468.6,87.5l-5.4,6.2l-3.7,4.2l-0.3,0.3l-5.1,5.8l-4.4,5l-5.4,6.2l6.2,5.4l5.4,4.7
	c2.3,2,5.1,3.2,8,3.3c3.4,0.1,6.6-1.3,8.9-3.9c2-2.3,2.9-5.1,2.7-8c2.1-0.6,4-1.7,5.5-3.5c2.3-2.7,3.3-5.9,2.7-9.2
	c-0.5-2.6-2-5.1-4.3-7.1l-4.6-4L468.6,87.5L468.6,87.5z M469.4,99l4.6,4c1.9,1.7,2.2,3.2,0.9,4.8c-1.6,1.9-3.7,0.8-5.1-0.4l-4.3-3.7
	L469.4,99L469.4,99z M120.6,103.5l-0.7,0c-4.1,0.1-8,2.1-11.5,6c-2.2,2.4-3.6,5.3-3.8,8.1c-0.3,3.3,0.9,6.2,3.5,8.6
	c4,3.7,8.7,3.9,14.4,0.7l3.9-2.2c2-1.2,3.4-1.6,4.5-0.6c1.3,1.2,1,2.9-0.9,5c0,0,0,0-0.1,0.1c-2.5,2.8-5.4,3-7.4,2.9l-0.7,0
	l-0.9,9.1l0.8,0c3,0.2,9-0.5,14.7-6.7c0.1-0.1,0.1-0.1,0.2-0.2c2.9-3.2,4.4-6.4,4.6-9.4c0.2-3.2-1.2-6-3.9-8.6
	c-4.1-3.7-8.5-3.8-14.9-0.3l-4.4,2.5c-1.6,0.9-2.6,1-3.5,0.1c-1.1-1-0.9-2.5,0.5-4c0,0,0,0,0,0c1.6-1.7,3.3-2.6,5.5-2.8l0.7-0.1
	L120.6,103.5L120.6,103.5z M460.4,109.4l5,4.4c2.1,1.8,2.6,3.9,1.2,5.5c-1.3,1.5-3.4,1.4-5.3-0.2l-5.4-4.7L460.4,109.4L460.4,109.4z
	 M507.9,125.5l-28.8,22.8l15.5,19.6l6.4-5.1l-10.4-13.1l4.8-3.8l8.9,11.3l6.4-5.1l-8.9-11.3l4.7-3.8l10.4,13.1l6.4-5L507.9,125.5
	L507.9,125.5z M83.7,137.8l-13.8,20.7l30.5,20.4l13.8-20.7l-6.8-4.5l-9.3,13.9l-5.1-3.4l8-12l-6.8-4.5l-8,12l-5-3.4l9.3-13.9
	L83.7,137.8L83.7,137.8z M538.1,169l-32.9,16.2l3.6,7.4l15.2-7.5l-10.4,17.3l4.3,8.8c0,0,7.5-12.7,8.1-13.5
	c3.1,3.3,8.3,3.8,12.9,1.5c6.9-3.4,9-10.2,5.2-17.9L538.1,169L538.1,169z M534.5,180l2.3,4.7c1.7,3.4,0.9,5.7-2.1,7.2
	c-3,1.5-5.4,0.7-7.1-2.7l-2.3-4.7L534.5,180L534.5,180z M55.3,185.2l-3.1,7.7l17.7,7.2l-25.8,11.8l-0.5,1.2l34.3,14l3.1-7.6
	l-17.8-7.3l26-11.8l0.5-1.2L55.3,185.2L55.3,185.2z M558.8,214L526,235.8l0.3,1.3l22.1,5.1L531,256.7l0.3,1.3l39.1,4.4l-2-8.4
	l-18.8-2.2l15.5-13l-0.3-1.2l-19.7-4.6l15.8-10.4L558.8,214L558.8,214z M35.5,243.9l-1.3,8.2l18.9,3l-22.4,17.4l-0.2,1.3l36.6,5.7
	l1.3-8.1l-19-3l22.5-17.5l0.2-1.3L35.5,243.9L35.5,243.9z M419.9,260.9c1.8,2.8,1.9,6.7,1.7,9.1c2.4-0.6,4.2-0.7,5.6-0.6
	c-0.4-1.1-1.2-2.8-2.5-4.4C422.7,262.7,419.9,260.9,419.9,260.9L419.9,260.9z M400.8,264.6c2,6,1.6,12,1.1,15.4
	c2.8-1.9,5.4-3.5,7.7-4.9c-0.4-1-1.1-2.5-2.1-4.2C405.7,267.5,400.8,264.6,400.8,264.6L400.8,264.6z M553.6,282.5
	c-10.4,0-18.8,8.4-18.8,18.9c0,10.4,8.4,18.8,18.8,18.8c10.4,0,18.9-8.4,18.9-18.8C572.4,291,564,282.5,553.6,282.5z M553.6,291.1
	c5.7,0,10.3,4.6,10.3,10.3c0,5.7-4.6,10.3-10.3,10.3s-10.3-4.6-10.3-10.3C543.3,295.7,547.9,291.1,553.6,291.1z M66.6,301.9
	l-36.7,0.9l0.2,8.2l36.7-0.9L66.6,301.9L66.6,301.9z M68.2,332.1l-36.3,7.7l0.3,1.2l22.2,13l-14.9,20.7l-0.1,0.1l0.2,1.2l36.3-7.7
	l-1.7-8L57.5,364l8.4-11.8l-0.2-1.1l-12.5-7.4l16.7-3.5L68.2,332.1L68.2,332.1z M532.6,339.6l-5.6,23.8l8.1,1.9l3.7-15.8l27.6,6.4
	l1.9-8L532.6,339.6L532.6,339.6z M559.1,385.4l-40.6,1.8l-0.4,1.1l28.1,29.3l3.4-8.4l-13.8-14.5l19.9-0.9L559.1,385.4L559.1,385.4z
	 M504.6,416.4l-13.3,21.1l6.9,4.4l8.9-14.1l5.2,3.3l-7.7,12.2l6.9,4.4l7.7-12.2l5.1,3.2l-8.9,14.1l6.9,4.3l13.3-21.1L504.6,416.4
	L504.6,416.4z M486,455.5c-0.7,0-6.5,0-10.6,2c-2.1,1-3.9,2.3-5.4,3.8c-1.9,1.9-3.3,4.2-3.9,6.6c-1.1,4,0.1,8.3,3,11
	c2.8,2.7,6.8,3.5,10.6,2.3c1.3-0.4,2.7-1.1,4.4-2c2-1,5-2.5,6.4-2.6c3.4-0.2,3.3,4.7-1,6.8c-1.6,0.8-4.4,1.6-5.8,1.8l1,8.3
	c0.6-0.1,5.6-0.7,9.1-2.9c6.1-3.7,7.3-8.5,7.4-11.1c0.2-2.4-0.8-5.9-3.4-8.4c-2.2-2.1-5.1-3-8.2-2.7c-2.9,0.3-6.3,2-9.2,3.4
	c-1.3,0.6-2.7,1.3-3.4,1.5c-0.9,0.3-1.7,0.2-2.3-0.4c-0.6-0.5-1-1.6-0.7-2.8c0.5-1.9,2.4-3.8,4.9-5.1c1.7-0.8,5.2-1.2,6.9-1.2
	L486,455.5L486,455.5z"/>
</svg>
