<svg version="1.1" id="Layer_1" xmlns="http://www.w3.org/2000/svg" xmlns:xlink="http://www.w3.org/1999/xlink" x="0px" y="0px"
	 viewBox="0 0 600 600" style="enable-background:new 0 0 600 600;" xml:space="preserve">
<style type="text/css">
	.st0{fill:#FFFFFF;}
	.st1{fill:#DA1A32;}
	.st2{fill:#00438C;}
</style>
<path id="White" class="st0" d="M370.1,0H229.7c-34.3,0-62.1,27.8-62.1,62.1v475.6c0,34.3,27.8,62.2,62.1,62.3h140.4
	c34.3-0.1,62.2-27.9,62.3-62.3V62.1C432.2,27.8,404.4,0.1,370.1,0"/>
<path id="Red" class="st1" d="M335.3,109.8v1.9c4.2,2.5,6.4,4.6,10.8,7.3c11.5,7.3,25.6,20,23.7,64.2c3.2,9.6,4.6,28.5,7.6,34.7
	c6,11.9,9.9,19.5,11.7,30.8c0,0,1.8,17.3,3.9,18.6c11.9,2.7,8.5,3.9,10.1,5.8c1.6,1.9,8.7,2.3,8.7,8.7c2.2,3.1,4,6.4,5.5,9.9V62.1
	c0-26.1-21.1-47.3-47.2-47.4h-45.5c7.3,2.7,11.3,5.7,13.8,10.4c5.8,0.5,12.9,13.6,1.9,33.1c4.8,3.2,1.1,8-2.5,13.6
	c-1.1,1.8-2.1,5-5.3,4.8c-4.1,8.7-9,17.2-12.9,17.7c-1.1,1.4-1.9,5.1-0.2,6.9C325.1,103.2,330.5,106.1,335.3,109.8 M417.5,323
	c-8.7,21.7-33.3,32.2-55,23.5c-21.7-8.7-32.2-33.3-23.5-55c5.1-12.6,15.9-22.1,29.1-25.3c-5-12.2-15.2-32-18.2-38.6
	c-3-6.5-9.9-46.7-11.3-54.7c-0.4-1.8-18.2,10.4-18.2,11.1c0,0.7-13.4,33.4-14,35.2c-0.5,1.8-0.4,5.5-0.4,5.5s6,0.7,9.6,11.3
	c3.5,10.6,14,49.4,14,49.4s-2.8,3-3,2.8c13.4,44.8,8.7,64,14.7,77.1c7.6,18.6,9.6,16.1,16.1,31.7c4.6,11.3,9.7,55.9,11.5,57.8
	c7.3,9.2,11.1,16.3,11.1,21.4c0,5.1-6.2,20.5-3.9,29.5c1.4,5.3,2.1,17,4.4,19.3c2.3,2.3,2.3,4.4,1.1,6.4c-0.5,0.7-0.7,1.6-0.7,2.5
	c4.1,14,16.8,38-4.1,50.6h0.5c23.1-3.6,40.1-23.5,40-46.9V323L417.5,323L417.5,323z"/>
<path id="Blue" class="st2" d="M364.1,528.5c-7.6-6.7-2.5-9.7-2.8-12.4c-5-20.7-21.6-33.4-12.9-40.2c-2.1-6.9-6.4-15.4-6.2-15.4
	c-25.6-14.7-47.6-38.7-51.3-42.3c-3.7-3.5-12.2-9.9-13.6-13.8c-6.2-5.7-36.4-48.6-43.5-64.6l-12.4-1.8
	c-5.7-22.8-24.2-42.1-24.8-64.9c-0.2-8.7,3.9-27.2,5.5-31c1.6-3.7,8.7-9.9,8.7-9.9v-6.2c-26.9,0.7-19.1-1.9-23.7-12.4
	c-3.2-7.3-0.9-8.8,0.2-13.8c3.5-14.9,15.6-37.7,20.5-47.9c1.6-5.3,6.7-17.9,6.7-17.9c20-40.7,27.4-37.7,51.3-40l1.2-1.8
	c23.9-1.1,20-2.8,23.3-25.8c-3.5,1.4-4.4-7.3-4.4-7.3c-1.9-13.1,3.5-10.6,6.2-10.8c0.5-21.4,2.8-28.1,18.2-34.1h-80.7
	c-26.2,0-47.4,21.2-47.4,47.4v475.6c0,26.2,21.2,47.5,47.4,47.6h140.4C354,576.5,363.6,560,364.1,528.5L364.1,528.5z"/>
<path id="NBA" class="st0" d="M256.3,555.4v-86.1h16.7c9.7,0,15.6,5.2,15.6,17.3v12.8c0,7.8-2.4,11.8-5.7,13.8
	c3.3,2.3,5.7,6.1,5.7,12.7v12.5c0,11.8-6.4,17.1-15.6,17.1L256.3,555.4L256.3,555.4z M267.7,518v26.6h4.4c4,0,5-2.1,5-6.1v-14.6
	c0-4.3-1.4-5.8-5.1-5.8L267.7,518L267.7,518z M267.7,480.1v28.4h4.3c4.1,0,5.1-1.5,5.1-6.1v-16.6c0-4-1.2-5.8-5-5.8h-4.4V480.1z
	 M315.6,537.9h-10.4l-1.5,17.5h-11.6l10.4-86.1h16.5l10,86.1H317L315.6,537.9z M310.5,479h-0.6c-0.7,10.4-2.2,28.5-2.6,34.4
	l-1.4,14.8h9l-1.4-14.8C313.1,507.4,311.5,489.4,310.5,479 M222.2,555.4h-10v-86.1H228l12.8,70.5c-1-16.9-2.5-37.3-2.5-54.7v-15.9
	h10v86.1h-14.6l-12.8-69c0.8,15.9,1.1,28.6,1.1,41.9v27.2L222.2,555.4L222.2,555.4z"/>
</svg>
