<svg version="1.1" id="Layer_1" xmlns="http://www.w3.org/2000/svg" xmlns:xlink="http://www.w3.org/1999/xlink" x="0px" y="0px"
	 viewBox="0 0 600 600" style="enable-background:new 0 0 600 600;" xml:space="preserve">
<style type="text/css">
	.st0{fill:#C69E66;}
	.st1{fill:#001644;}
	.st2{fill:#DA1A32;}
	.st3{fill:#FFFFFF;}
</style>
<g>
	<path id="Outline" class="st0" d="M346.8,183.5l-0.7,0c-7.2-0.8-14.2,2.7-17.9,9c-2.3,4.5-2.7,9.7-1.1,14.4
		c-1.1-1.2-2.4-2.3-3.7-3.2c-3-2.2-6.1-4.1-9.4-5.8c0,0,0.7,4.2-0.9,3.7c-0.9-0.3-1.7-0.7-2.6-1.1c-4.3-2-10.5-5.8-10.5-5.8
		s-6.3,3.8-10.6,5.8c-0.8,0.4-1.7,0.8-2.6,1.1c-1.5,0.5-0.9-3.7-0.9-3.7c-3.3,1.7-6.4,3.6-9.4,5.8c-1.3,0.9-2.6,2-3.7,3.2
		c1.6-4.7,1.2-9.9-1.1-14.4c-3.7-6.2-10.7-9.7-17.9-9l-0.7,0c-53,0.9-168.5,23.8-248,70.1L0,256.9c5.1,11.9,14.9,21.2,27.1,25.5
		l-2.6,1.3c0,0,10.9,17.7,27.8,21.3l-3.2,1.3c8.2,12.1,20.8,20.5,35.1,23.4l-3.4,1.7c11.2,11.2,26,18,41.8,19.4l-3.7,2.8
		c12.7,7.6,26.8,12.4,41.5,14l-4,3.5c0,0,43.9,16,80.6,2.7c10.3,25.8,35.2,42.7,62.9,42.7h0c27.7-0.1,52.6-17,62.9-42.7
		c36.7,13.4,80.6-2.7,80.6-2.7l-4-3.5c14.7-1.6,28.9-6.4,41.5-14l-3.7-2.8c15.8-1.4,30.6-8.3,41.8-19.4l-3.4-1.7
		c14.3-2.9,26.9-11.3,35.1-23.4l-3.2-1.3c16.9-3.7,27.8-21.3,27.8-21.3l-2.6-1.3c12.2-4.4,22-13.6,27.1-25.5l-5.2-3.2
		C515.3,207.3,399.8,184.4,346.8,183.5"/>
	<path id="Blue" class="st1" d="M591.6,259.2c-77.8-45.3-192.1-68.4-244.9-69.3c-6.4-0.1-10.7,1.4-12.9,5.6l0,0
		c-3.7,6.9,1.5,14.6,3.7,17.9c6.8,9.2,10.6,20.3,11.1,31.7c0.1,15-7.4,29-20,37.2c6.1-9,9.2-19.8,8.9-30.6
		c0-32.3-19.3-43.9-19.3-43.9s-0.5,1.9-1.6,1.9c-4.2-1.4-8.2-3.3-12.1-5.5c-1.5-0.8-3.6-2.1-4.4-2.5c0,0-3.2,1.7-4.7,2.5
		c-3.9,2.2-7.9,4-12.1,5.5c-1.2,0-1.6-1.9-1.6-1.9s-19.3,11.7-19.3,43.9c-0.3,10.9,2.8,21.6,8.9,30.6c-12.6-8.2-20.1-22.2-20-37.2
		c0.5-11.4,4.4-22.5,11.1-31.7c2.2-3.3,7.4-11,3.7-17.9c-2.8-4.3-7.9-6.5-12.9-5.6c-52.8,0.9-167.1,23.9-244.9,69.3
		c7.9,12.8,22.2,20.3,37.2,19.6c-3.8,1.9-7.6,3.8-11.4,5.7c8.8,12.3,23.7,18.5,38.6,16.1c-4.5,2.1-9.1,4.4-13.6,6.6
		c10.2,12.4,25.8,19.1,41.8,18c-6.6,3.3-10.6,5.5-10.6,5.5c13.7,11.7,31.9,16.7,49.7,13.4c-3.3,2.4-6.7,5-10.6,7.7
		c15.1,7.6,32.2,10.6,49,8.5c-3.4,2.6-6.8,5.2-10.2,7.9c-0.1-0.4,40.6,11.1,69.5-1.6c1.1-0.5,2.1-1,3.1-1.5
		c8.9,32.6,42.7,51.8,75.3,42.9c20.9-5.7,37.2-22,42.9-42.9c1,0.5,2.1,1.1,3.1,1.5c28.9,12.7,69.5,1.3,69.5,1.6
		c-3.4-2.7-6.8-5.3-10.3-7.9c16.8,2,33.9-0.9,49-8.5c-3.9-2.8-7.3-5.3-10.6-7.7c17.7,3.2,36-1.7,49.6-13.4c0,0-4-2.1-10.6-5.5
		c16,1,31.6-5.7,41.8-18c-4.5-2.3-9-4.5-13.6-6.6c14.9,2.4,29.9-3.8,38.6-16.1c-3.8-2-7.6-3.9-11.4-5.7
		C569.4,279.5,583.7,272,591.6,259.2z M98,260.6c38.3-13.1,77.8-22.7,117.8-28.5c-0.8,6-1.1,12.1-0.8,18.2
		c-7.2,1.4-29.8,6.2-80.2,20.5C134.8,270.8,107.9,278.2,98,260.6z M122.6,287.3c30.5-11.1,61.9-19.9,93.7-26.2v0
		c1,5.5,2.6,10.8,4.8,15.8c-8.5,2.7-36.8,11.8-59,18C135.8,302.4,122.6,287.3,122.6,287.3z M152.6,310c19-7.3,63.9-21.9,72.9-24.8
		c2.5,4,5.4,7.7,8.7,11.1c-5.3,2.3-17.4,7.3-39.3,15.9C163.5,324.6,152.6,310,152.6,310z M239.3,340.2c-5.9,1.5-12,1.2-17.7-0.7l0,0
		v0h0c5.6-4.1,14.3-9.9,22.1-14.9C241.5,329.5,240.1,334.8,239.3,340.2z M235.2,320.9c-26.7,16.5-47.9,6.1-47.9,6.1
		c16.9-8.1,46-20.9,53.9-24.3c3.4,2.7,6.9,5.1,10.7,7.3L235.2,320.9z M378.4,339.5c-5.7,1.9-11.9,2.2-17.7,0.7
		c-0.7-5.4-2.2-10.6-4.4-15.6C364.1,329.6,372.8,335.3,378.4,339.5L378.4,339.5z M364.8,320.9L348.2,310c3.7-2.2,7.3-4.6,10.7-7.3
		c7.8,3.4,37,16.2,53.9,24.3C412.8,327,391.5,337.4,364.8,320.9z M405.1,312.3c-21.9-8.6-34-13.7-39.3-15.9
		c3.3-3.4,6.2-7.1,8.7-11.1c9,2.9,53.9,17.5,72.9,24.8C447.4,310,436.5,324.6,405.1,312.3z M437.9,295c-22.1-6.3-50.5-15.3-59-18
		c2.2-5.1,3.8-10.4,4.8-15.8v0c31.9,6.3,63.2,15.1,93.7,26.2C477.5,287.3,464.2,302.4,437.9,295z M465.2,270.8
		c-50.5-14.3-73-19.1-80.2-20.5c0.3-6.1,0-12.2-0.8-18.2c40.1,5.8,79.5,15.4,117.8,28.5C492.1,278.2,465.2,270.8,465.2,270.8z"/>
	<path id="Red" class="st2" d="M285,252.7c-0.9-0.2-1.4-1.1-1.1-2c0.1-0.3,0.3-0.6,0.6-0.8c-0.6-0.7-1.3-1.3-2-1.9
		c0,0-1.4,6.6,4.5,5.9c-0.2-0.5-0.4-1-0.6-1.4C285.8,252.8,285.4,252.8,285,252.7 M317.6,248.1c-0.7,0.5-1.4,1.2-2,1.9
		c0.3,0.2,0.5,0.5,0.6,0.8c0.2,0.9-0.3,1.7-1.1,2c-0.4,0.1-0.9,0.1-1.3-0.2c-0.2,0.5-0.5,0.9-0.6,1.4
		C319.1,254.7,317.6,248.1,317.6,248.1 M291.8,330c-4.3-22.8-7.8-39.7-10.5-51.9c-2.1-9.4,3.5-5.6,6.5,0.2L291.8,330z M308.2,330
		c4.3-22.8,7.8-39.7,10.5-51.9c2.1-9.4-3.5-5.6-6.5,0.2L308.2,330z M302.8,338.4c1.9-35.2,4.7-60.2,4.7-63.3c0-1.4-0.2-2.8-0.6-4.1
		l-2.1,6.7l-0.6-11.8c-1.2-1.5-2.6-2.8-4.2-3.9h-0.1c-1.5,1.1-2.9,2.4-4,3.9l-0.6,11.8l-2.1-6.7c-0.4,1.3-0.6,2.7-0.6,4.1
		c0,3.1,2.8,28.1,4.7,63.3c1.9,35.2-2.5,41.8-2.5,41.8c2,3.2,3.8,6.6,5.3,10.2c1.5-3.5,3.2-6.9,5.3-10.2
		C305.3,380.2,300.9,373.7,302.8,338.4"/>
	<path id="White" class="st3" d="M256.7,206.2c4.1-5.9,2.1-8.2-13.6-6.8c-73.1,7.4-144.4,27.5-210.6,59.4c6.3,3.2,13.8,3.4,20.3,0.4
		c4.1-1.5,11.2-4.4,11.2-4.4c100.8-40.7,174.3-43.7,174.3-43.7c-20.7,50.7,5.4,77.6,23.9,89.5c0.8-0.7,1.7-1.3,2.6-1.9
		C217.1,257.2,253.6,210.7,256.7,206.2 M356.9,199.4c-15.6-1.5-17.7,0.9-13.6,6.8c3.1,4.5,39.6,51-8,92.5c0.9,0.6,1.7,1.3,2.6,1.9
		c18.5-11.9,44.6-38.8,23.9-89.5c0,0,73.5,3,174.3,43.7c0,0,7.1,2.9,11.2,4.4c6.5,2.9,13.9,2.8,20.3-0.5
		C501.2,226.9,430,206.8,356.9,199.4 M289.7,266.1l0.1-0.2c1.5-2.9,0.8-6.6-1.8-8.7c0,0-10.1,2.1-10.4-11.3c0-1.5-0.4-3-1.2-4.2
		c0,0,2.6-2.4,8.2,1.9c5.6,4.2,8.7,16.2,11.8,13.4c3-2.8,1.9-18.4,3.5-19c1.6,0.6,0.5,16.2,3.5,19c3.1,2.8,6.1-9.2,11.8-13.4
		c5.6-4.2,8.2-1.9,8.2-1.9c-0.8,1.3-1.2,2.7-1.2,4.2c-0.2,13.4-10.3,11.3-10.3,11.3c-2.6,2.1-3.3,5.7-1.8,8.6c0,0.1,0.1,0.1,0.1,0.2
		c6.4-6.9,11.4-9.6,14.1-8.5c0-0.1,0-0.1,0.1-0.2c2.3-4.2,3.3-9,2.9-13.8c0.1-8.4-2.9-16.6-8.4-22.9c0,0-0.1,2.8-4.9-0.3
		c-8.5-6-19.8-6-28.3,0c-4.6,3.1-4.8,0.3-4.8,0.3c-5.5,6.4-8.5,14.5-8.4,22.9c-0.3,4.7,0.6,9.3,2.7,13.5c0.1,0.2,0.1,0.3,0.2,0.5
		C278.2,256.4,283.2,259.2,289.7,266.1 M344.7,354.7c3.1-4.8,5.4-10.1,6.8-15.7c-1.8-9.1-5.9-17.6-12-24.5c1.1,7.1,0.4,14.4-2,21.2
		l0,0.1C341.4,341.4,343.8,347.9,344.7,354.7L344.7,354.7z M262.4,335.6c-2.4-6.8-3.1-14.1-2-21.2c-6.1,7-10.2,15.4-12,24.5
		c1.4,5.6,3.7,11,6.8,15.9l0,0C256.2,348,258.6,341.5,262.4,335.6L262.4,335.6z M331.7,328.5c2.2-8.5,0.4-17.6-4.8-24.7
		c-2.5-1.4-5-2.7-7.7-3.7c-1.2,5.9-2.5,12-3.8,18.1l0,0.1C321.5,320.5,327.1,324,331.7,328.5L331.7,328.5z M284.6,318.2
		c-1.3-6.1-2.6-12.3-3.8-18.1c-2.7,1-5.3,2.3-7.7,3.7c-5.2,7.1-7,16.2-4.8,24.7l0,0.1C272.9,324,278.5,320.5,284.6,318.2
		L284.6,318.2z M351.7,358.1c-2.1,3.3-4.4,6.4-7.1,9.3l-0.1,0.1c-0.9,6.4-3.3,12.5-6.8,17.9l0.1-0.1
		C345.1,377.6,349.9,368.2,351.7,358.1 M255.4,367.3c-2.7-2.8-5-5.9-7.1-9.2c1.8,10.2,6.6,19.6,13.8,27c0,0,0.1,0.1,0.1,0.1
		C258.7,379.8,256.4,373.7,255.4,367.3L255.4,367.3z"/>
	<path id="Ball" class="st0" d="M316.4,384.6c-2.9,0.8-5.9,1.3-8.9,1.7c-1,1.8-1.8,3.6-2.6,5.4l-1.2,3v6.6
		c6.7-0.5,13.3-2.2,19.3-5.2C319.7,393,317.4,389,316.4,384.6 M292.5,386.2c-3-0.3-6-0.9-8.9-1.7c-0.9,4.4-3.3,8.4-6.7,11.4
		c6,3,12.6,4.7,19.3,5.2v-6.6l-1.2-3C294.3,389.8,293.4,388,292.5,386.2 M323.9,373.4c8.4-4.3,15.6-10.7,20.8-18.7
		c-0.9-6.8-3.3-13.3-7.1-19c-1.7,5.1-3.7,10.2-5.9,15.1C328.1,357.9,325.5,365.6,323.9,373.4 M276.1,373.6
		c-1.6-7.9-4.2-15.6-7.8-22.8c-2.3-4.9-4.2-9.9-6-15.1c-3.8,5.8-6.3,12.3-7.1,19.2C260.4,362.9,267.6,369.3,276.1,373.6
		 M309.6,377.6l0.3,0.7c2-0.4,4.1-0.9,6.1-1.5c1.1-10.1,4.1-19.9,8.7-29c3-6.1,5.3-12.5,7-19.1c-4.6-4.6-10.2-8.1-16.3-10.3
		c-3.8,18.1-7.2,35.5-8,41.6C307.2,365.8,307.9,371.8,309.6,377.6 M284.1,376.8c2,0.6,4,1.1,6,1.5l0.4-0.7c1.7-6,2.4-12.2,2.2-18.3
		c-1-6.6-4.3-23.4-8-40.9c-6.1,2.2-11.7,5.7-16.4,10.3c1.7,6.6,4.1,13,7,19.1C280,356.8,283,366.6,284.1,376.8 M323.7,382
		c0,0.3,0.1,0.7,0.1,1c0.9,3.6,3.1,6.8,6.1,8.9c2.8-2,5.4-4.2,7.8-6.7c3.5-5.4,5.8-11.5,6.8-17.9C338.7,373.7,331.6,378.7,323.7,382
		 M276.2,383.1c0.1-0.3,0.1-0.7,0.1-1c-7.9-3.3-15-8.3-20.8-14.7c0.9,6.4,3.3,12.5,6.8,17.9c2.4,2.5,5,4.7,7.8,6.7
		C273.1,389.8,275.3,386.7,276.2,383.1"/>
</g>
</svg>
