<svg version="1.1" id="Layer_1" xmlns="http://www.w3.org/2000/svg" xmlns:xlink="http://www.w3.org/1999/xlink" x="0px" y="0px"
	 viewBox="0 0 600 600" style="enable-background:new 0 0 600 600;" xml:space="preserve">
<style type="text/css">
	.st0{fill:#061922;}
	.st1{fill:#0050B5;}
	.st2{fill:#FFFFFF;}
</style>
<path id="Blue_1_" class="st0" d="M335.1,81.5l-5.4,8.4l-42.5,65.8h-61.3h-7.4l5.3,5.1l15.5,14.7h-8.9h-57.2v-52.7v-9.9l-5.4,8.3
	l-35.1,54.2H82.3H75l5.3,5.1l30.3,29l-38.3,59.1L65.5,279l10.7-6.3l62.1-36.6l29.8,28.4l5,4.7v-6.9v-46.7l58.8-34.7l8.1-4.8
	l11.5,10.9l-5.3,8.2l-48.3,74.7h-71.3h-7.3l5.3,5.1l43.4,41.3l-51.8,80l-6.8,10.4l10.7-6.3l84.1-49.5l14.6,13.9
	c1.1,5.2,2.2,9.9,3.5,14h-48.6h-7.4l5.4,5.1l36.8,34.5L163.4,489l-6.3,10l10.3-5.8l78.2-44.3c0.4-0.2,1-0.4,1.6-0.5
	c1.4,0.2,2.7,0.9,3.8,1.9l0.3,0.3l0.2,0.1c0.4,0.3,1.4,1.1,2.3,1.9c0.6,0.5,1.2,1,1.9,1.6c4,3.2,8.2,6.7,8.7,7.2l0.1,0.1l0.1,0.1
	c23,18.7,48.4,33.9,75.7,45.2l0.1,0l0.1,0c21.5,7.9,43.8,11.8,66.5,11.8c39.2,0,77-11.8,109.5-34c33.2-22.7,58-54.8,71.9-92.7
	c9-24.5,12.9-50,11.6-75.8c-1.2-25-7.2-49.1-17.7-71.9c-10.5-22.8-25.1-43-43.4-60c-18.9-17.7-40.9-31.2-65.4-40.1
	c-21.4-7.9-43.7-11.9-66.4-12c-25.1,0-49.3,5.1-71.9,15.1V91.5V81.5L335.1,81.5z M251.5,210.7v-13.9v-9.7l9.4,9L251.5,210.7
	L251.5,210.7z M99.9,263.5l-5.4,8.4l-32.2,49.7H16.5H9.2l5.3,5.1L42,353L6.8,407.4L0,417.9l10.7-6.3L68,377.8l27,25.8l5,4.8v-6.9
	v-42.5L154,327l9.3-5.5h-10.8H99.9v-48.1V263.5L99.9,263.5z"/>
<path id="Blue_3_" class="st1" d="M170.3,178.3v-55.5l-36,55.5h-52l32.1,30.7l-39.6,61.2l64-37.7l31.4,29.9V214l60.2-35.6h-60.1
	V178.3z M97,324.5v-51.1l-33,51.1H16.5l29.2,28L9.2,409l59.2-34.9L97,401.5v-44.2l55.5-32.8H97z M406.9,134.9
	c-24.8,0-49.2,5.1-71.8,15.4l-3,1.3V91.5l-43.4,67.1h-62.9l38.9,37.1l-16.2,25.1v-23.9l-49.2,76h-72.9l45.1,43l-53.1,82.1l86-50.7
	l16.8,16l0.1,0.7c1.1,5.4,2.3,10.4,3.8,15.1l0.8,2.7h-52.6l38.5,36.1l-46.2,72.6l78.2-44.3c0.9-0.5,2-0.8,3.1-0.9
	c2.2,0.3,4.2,1.2,5.8,2.7c0.3,0.1,2.2,1.8,4.6,3.8c3.6,3,8.4,6.9,8.9,7.4c22.6,18.5,47.8,33.6,74.9,44.7
	c98.7,36.1,208-14.4,244.1-113.1c36.1-98.7-14.4-208-113.1-244.1C451,138.9,429.1,135,406.9,134.9z"/>
<path id="White" class="st2" d="M468.7,158.9c-19.8-7.5-40.7-11.3-61.7-11.3c-30.6,0-60.5,8-87.2,23v-36.9l-24.3,37.5h-38.5
	l23.9,22.8L256,232.3h0.1c-8,12.9-14.3,27-18.6,41.5v-39.2l-32.1,49.6h-51.2l31.7,30.2l-32.5,50.1l52.6-31l27.2,26
	c1.9,10,4.7,19.8,8.4,29.2l-3.1,5.7h-33.2l22.9,21.4l-25.9,40l34.9-20.6c7.4-4.4,17-3.2,23.2,2.8c0.3,0.3,0.8,0.7,1.6,1.5
	c24.1,22.1,52,39.8,82.3,52.2C436.3,526,538.6,479.4,573,387.4C607.2,295.5,560.6,193.2,468.7,158.9z M535.8,229.7
	c8.5,15.6-2.2,32.9-26.3,36.5c-10.1-46.2-42.7-84.2-87.1-101.1C467.7,169.6,509,193.1,535.8,229.7z M355.7,172.7
	c16.3-5.7,34-6.3,50.7-1.6c43.1,15.1,75.5,51.1,86,95.4c-49.2-5.3-95.3-61.7-160.2-61.9c-15.4,0-30.5,4.3-43.7,12.1
	C306.8,196.6,329.9,181.5,355.7,172.7z M256.9,382.4c-13.9-36.7-13.9-77.2-0.1-114c10.1-29.4,37.9-49.2,69-49.1
	c63.9,0,108.9,61.7,170.8,65.4c2,10.8,3.1,21.7,3.5,32.8c-94.7,1.5-232.4,4.9-232.4,4.9v6.2c0,0,137.6,3.4,232.4,4.9
	c-0.4,10.9-1.5,22-3.5,32.8c-61.9,3.6-106.9,65.2-170.9,65.1C294.7,431.5,267.1,411.8,256.9,382.4z M404.3,480.4
	c-14.4,3.8-29.7,3.4-43.9-1.1c-22.9-7-43.8-19-61.5-35.2c-3.4-3.1-6.6-6.3-9.7-9.7c13.1,7.5,27.9,11.6,43,11.7
	c65,0,111.1-56.6,160.2-61.9C481.9,429.5,448.5,465.9,404.3,480.4z M536.2,420.3c-26.6,36.7-67.5,60.4-112.5,65.1
	c43.5-17.4,75.7-55.1,85.9-100.8C533.2,388.1,543.9,404.8,536.2,420.3z M549.1,399.3c0.3-15.9-12.3-29.2-35.6-32.6
	c2-10.9,3.2-22,3.6-33c20.1,0.3,37.3,0.4,49.7,0.4C565.7,356.8,559.8,378.9,549.1,399.3z M517.3,317.2c-0.4-11.1-1.6-22.1-3.5-32.9
	c23.3-3.4,35.9-16.8,35.6-32.8c10.5,20.2,16.4,42.5,17.7,65.2C554.5,316.8,537.4,316.9,517.3,317.2z M160,207.9l32.9-19.4H160v-31.3
	l-20.2,31.3h-31.9l19.8,18.9l-20.6,31.8l33.4-19.7l19.7,18.7v-30.3H160z M87.1,306.7l-17.9,27.6H40.9L58.4,351l-18.3,28.3l29.7-17.5
	l17.4,16.6v-26.8l29.2-17.3H87.1V306.7z"/>
</svg>
