<svg version="1.1" id="Layer_1" xmlns="http://www.w3.org/2000/svg" xmlns:xlink="http://www.w3.org/1999/xlink" x="0px" y="0px"
	 viewBox="0 0 600 600" style="enable-background:new 0 0 600 600;" xml:space="preserve">
<style type="text/css">
	.st0{fill:#FFFFFF;}
	.st1{fill:#CF0A2C;}
</style>
<path id="Black" d="M505.9,161c-8.8-13.3-19-25.6-30.5-36.7c-4.9-4.9-10-9.6-15.4-13.9L570.7,0H248.9L124.6,124.3l-0.3,0.3
	c-11.2,11.3-21.4,23.6-30.5,36.7c-8.9,13.4-16.6,27.5-22.8,42.3c-26,61.7-26,131.3,0,193c6.2,14.7,13.8,28.8,22.8,42
	c8.8,13.3,19,25.6,30.5,36.7c4.8,5.1,9.9,9.9,15.4,14.2L29.3,600h321.8l124.6-124.9c22.6-22.4,40.6-49.1,53-78.4
	c26-61.7,26-131.3,0-193C522.7,188.6,515,174.3,505.9,161z"/>
<path id="White" class="st0" d="M461.2,138.8c-4.7-5-10.1-9.8-15.1-14.2l-135,135.6c6.9,2,13.2,5.6,18.4,10.7
	c16,16.4,16,42.5,0,58.9L79,580.2h29.6L344,344.5c24.3-24.3,24.6-63.6,0.6-88.2l14.5-14.5c32.3,32.4,32.2,84.8-0.2,117.1
	c0,0,0,0,0,0l-0.1,0.1L137.9,580.2h29.3l206.3-206.3c40.3-40.6,40.5-106.1,0.3-146.8l14.5-14.5c48.6,48.6,48.5,127.4-0.1,176
	l-0.1,0.1L196.5,580.2h29.3l177-177c56.8-56.7,56.9-148.6,0.3-205.4l14.8-14.8c64.7,65.1,64.4,170.3-0.6,235L255.2,580.2h29.6
	l147.4-147.7c73-72.8,73.2-190.9,0.4-263.9l-0.1-0.1l14.8-14.8c80.9,81.2,80.7,212.7-0.5,293.6c0,0,0,0-0.1,0L314.1,580.2h29.3
	l118.1-118.1C550.3,372.6,550.2,228.1,461.2,138.8z"/>
<path id="Red" class="st1" d="M139.4,461.5c4.7,4.9,9.8,9.6,15.1,13.9l135-135c-7-1.8-13.3-5.5-18.4-10.7
	c-16.3-16.2-16.3-42.6,0-58.9l0,0L521.6,20.1h-29.3L256.3,256c-24.4,24.3-24.5,63.7-0.3,88.2l-14.8,14.5
	c-32.2-32.3-32.2-84.5,0.1-116.7c0.2-0.2,0.3-0.3,0.5-0.5L463,20.1h-29.3L227,226.7c-40.5,40.5-40.6,106.1-0.3,146.8l-14.8,14.5
	c-48.3-48.8-48.2-127.5,0.3-176.1L404.3,20.1H375L197.7,197.4c-56.8,56.7-56.9,148.6-0.3,205.4l-14.8,14.8
	c-64.6-65.1-64.5-170.1,0.3-235L345.4,20.1h-29.3l-147.7,148c-73,72.8-73.2,190.9-0.6,264L153.3,447c-81-81.1-80.9-212.6,0.2-293.6
	l0.1-0.1L286.8,20.1h-29.3L138.8,138.8C49.9,228.1,50.2,372.5,139.4,461.5L139.4,461.5z"/>
</svg>
