<svg version="1.1" id="Layer_1" xmlns="http://www.w3.org/2000/svg" xmlns:xlink="http://www.w3.org/1999/xlink" x="0px" y="0px"
	 viewBox="0 0 600 600" style="enable-background:new 0 0 600 600;" xml:space="preserve">
<style type="text/css">
	.st0{fill:#FFFFFF;}
	.st1{fill:#C4CED4;}
</style>
<path id="Outline" class="st0" d="M546.3,0H535h-59.7h-6.6l-3.3,5.7l-34.5,60.8l-1.1,2l-0.3,2.3l-5.4,47l-57.3,102h-54.3l50.4-89.2
	l1.5-2.6v-3V11.6V0.3h-11.3h-62.2h-6.7l-3.2,5.9l-33.1,60.5l-1.1,2l-0.2,2.3l-4.9,46.9L155.1,272l-2.7,4.8l2.1,5l13.4,33l-18.5-20.1
	l2.3,32.3l4.5,62.5l-69.3,3.1l-33.2,1.5l27.2,19.1l55.1,38.6l-39.4,58.7l-18.2,27.1l31.1-10l63.6-20.6l26.3,63.3l12.3,29.6l9-30.7
	l20.4-69.3l71.5,18.2l35.3,9l-24-27.4l-45.8-52.4l56.1-46.6l26.7-22.2l-34.7,2.2l-39.7,2.5l51.5-58.3h90.8h6.6l3.2-5.8l106.1-188.1
	l1.5-2.6v-3V11.3V0L546.3,0z M177.3,325.1h2.3h37.7l-12,30.5L177.3,325.1L177.3,325.1z"/>
<polygon id="Black" points="252.6,121.4 164.9,277.5 179.6,313.7 234,313.7 209.4,376.5 163,326.2 168.3,400.3 87.4,404 151.6,449 
	106.1,516.9 179.6,493.1 209.9,566.1 233.4,486.3 315.4,507.2 262,446.1 327,392.1 260,396.3 333,313.7 428.9,313.7 535,125.6 
	535,11.3 475.3,11.3 440.8,72.1 435.1,121.4 373.4,231.1 293.1,231.1 353.1,125 353.1,11.6 290.8,11.6 257.7,72.1 "/>
<path id="Silver" class="st1" d="M301,114.3h-28.3l3.7-32.8h27.7L301,114.3z M331,28.3h-29.7l-21.2,37.6h31.7L331,28.3z M484.6,28.3
	l-21.5,37.6h29.1l20.4-37.6H484.6z M455.2,114.3h28l2.8-32.8h-27.4L455.2,114.3z M449.5,134.4H479l-75.8,135.5h-85.4l-98.4,148.8
	h3.1l47.5-3.1l-33.7,28l27.7,32l-42.7-11l-11.9,41.3l-15.8-37.6l-38.2,12.4l23.5-35.4l-33.4-23.8l42.2-1.7l-2.8-38.2l28,30.3
	l62.2-142h-84.9l77.2-135.5h29.7l-63.9,111.7h153L449.5,134.4z M211.3,441.6c0-6.8-5.7-12.4-12.4-12.4c0,0,0,0-0.3,0
	c-7.1,0.3-12.4,5.9-12.2,13c0.3,6.8,5.7,12.2,12.2,12.2c6.8,0.3,12.4-5.1,12.4-11.9C211.3,442.2,211.3,441.9,211.3,441.6z"/>
</svg>
