<svg version="1.1" id="Layer_1" xmlns="http://www.w3.org/2000/svg" xmlns:xlink="http://www.w3.org/1999/xlink" x="0px" y="0px"
	 viewBox="0 0 600 600" style="enable-background:new 0 0 600 600;" xml:space="preserve">
<style type="text/css">
	.st0{fill:#FFFFFF;}
	.st1{fill:#4E008E;}
</style>
<path id="White" class="st0" d="M0.1,386.9l0.2,3.4c1.6,26.6,11.9,52.4,29.2,72.6l1.6,1.9c1.5,1.7,3.1,3.3,4.7,4.7l3.4,3.1
	c20.5,18.9,47.2,30.3,75.1,32l3.3,0.2c2.5,0.1,4.7,0.1,6.9,0l3.2-0.2c28.2-1.6,55-12.8,75.5-31.8l3.5-3.2l4.4-4.8l1.6-1.8
	c17.5-20.3,28-46.1,29.5-72.7l0-0.3v-0.3v-0.2L242,380l67.7-145.1h219.1h6.1l2.6-5.5l56.2-120.6l6.4-13.6l0,0h-15h-265h-6.1
	l-2.6,5.5l-96.3,206.5c-0.8-1-1.6-2-2.5-2.9l-1.4-1.6l-7.8-8.2c-20.7-19-47.5-30.3-75.4-31.8l-3.4-0.2v-0.4l-3.8,0.2l-2.9-0.2v0.3
	l-3.4,0.2c-10.5,0.6-21,2.6-31.2,5.8l-0.1,0l-0.1,0C66.5,274,51.7,282.7,39,294.5l-3.5,3.2l-4.4,4.8l-1.6,1.9
	c-17.3,20.2-27.7,45.9-29.2,72.4l-0.2,3.4C0,382.5,0,384.8,0.1,386.9z"/>
<path id="Purple" class="st1" d="M68.5,354.8c2.5,7.3,3.9,14.9,4.4,22.5H9.8c1.4-24.5,10.9-48,26.9-66.7
	C51.7,321.7,62.8,337.2,68.5,354.8z M114.9,272.3v105.1H85.5c-0.6-9-2.3-17.9-5.2-26.6c-6.4-19.6-18.6-36.7-34.8-49.3
	c11.6-10.7,25.4-18.9,40.5-23.9C95.4,274.7,105.1,272.8,114.9,272.3z M156.6,377.3h-29.2V272.3c25.8,1.3,50.3,11.7,69.4,29.2
	c-16.4,12.5-28.6,29.7-35,49.3C158.9,359.4,157.2,368.3,156.6,377.3z M196.8,465.8c-19.1,17.5-43.7,27.8-69.6,29.2V389.8h29.2
	c1,14,4.7,27.7,10.9,40.4C174.3,444,184.4,456.2,196.8,465.8z M63.5,424.6c-6.3,12.6-15.5,23.6-26.7,32.1
	c-16.1-18.8-25.5-42.3-26.9-66.9h63.3C72.2,401.9,69,413.8,63.5,424.6z M319.9,104.7h265l-56.2,120.6H303.5l-70.9,152.1H169
	c0.6-7.7,2.1-15.2,4.4-22.5c5.9-17.6,17.1-33.1,31.9-44.3c3.8,4.3,7.3,9,10.4,14c0.6,0.8,1.5,0.8,1.7,0L319.9,104.7z M114.9,389.8
	V495c-25.8-1.5-50.2-11.9-69.2-29.4c12.2-9.5,22.1-21.7,29-35.6c6.4-12.6,10.2-26.3,10.9-40.4L114.9,389.8z M232.6,389.8
	c-1.3,24.7-10.9,48.2-27.1,66.9c-21.3-16-34.6-40.5-36.5-67.1h63.6V389.8z"/>
</svg>
